<?xml version="1.0" standalone="no"?><!DOCTYPE svg PUBLIC "-//W3C//DTD SVG 1.1//EN" "http://www.w3.org/Graphics/SVG/1.1/DTD/svg11.dtd"><svg t="1591838002651" class="icon" viewBox="0 0 1024 1024" version="1.1" xmlns="http://www.w3.org/2000/svg" p-id="3956" xmlns:xlink="http://www.w3.org/1999/xlink" width="200" height="200"><defs><style type="text/css"></style></defs><path d="M192 0h640a192 192 0 0 1 192 192v640a192 192 0 0 1-192 192H192a192 192 0 0 1-192-192V192a192 192 0 0 1 192-192z" fill="#0062FF" p-id="3957"></path><path d="M342.912 465.92a64 64 0 1 0-89.6 90.88l162.432 160.768a64 64 0 0 0 94.336-4.8l264.064-320a64 64 0 0 0-98.432-81.472L455.872 577.28z" fill="#FFFFFF" p-id="3958"></path></svg>