<?xml version="1.0" standalone="no"?><!DOCTYPE svg PUBLIC "-//W3C//DTD SVG 1.1//EN" "http://www.w3.org/Graphics/SVG/1.1/DTD/svg11.dtd"><svg t="1591772894518" class="icon" viewBox="0 0 1069 1024" version="1.1" xmlns="http://www.w3.org/2000/svg" p-id="3767" xmlns:xlink="http://www.w3.org/1999/xlink" width="208.7890625" height="200"><defs><style type="text/css"></style></defs><path d="M0 972.784045V437.598647a52.380075 52.380075 0 0 1 53.449056-51.204196h507.071195a52.380075 52.380075 0 0 1 53.449057 51.204196v535.185398a52.380075 52.380075 0 0 1-53.449057 51.204196H53.449056a52.380075 52.380075 0 0 1-53.449056-51.204196zM0 238.287116v-187.071696a52.380075 52.380075 0 0 1 53.449056-51.204196h507.071195a52.380075 52.380075 0 0 1 53.449057 51.204196v187.071696a52.380075 52.380075 0 0 1-53.449057 51.204196H53.449056a52.380075 52.380075 0 0 1-53.449056-51.204196z m717.019088 734.496929V437.598647a52.380075 52.380075 0 0 1 53.449056-51.204196H1015.532066a52.380075 52.380075 0 0 1 53.449056 51.204196v535.185398a52.380075 52.380075 0 0 1-53.449056 51.204196h-245.063922a52.380075 52.380075 0 0 1-53.449056-51.204196z m0-734.336581v-187.071697a52.380075 52.380075 0 0 1 53.449056-51.204196H1015.532066a52.380075 52.380075 0 0 1 53.449056 51.204196v186.911349a52.380075 52.380075 0 0 1-53.449056 51.204196h-245.063922a52.380075 52.380075 0 0 1-53.449056-51.204196z" fill="#B5B5BE" p-id="3768"></path></svg>