<?xml version="1.0" standalone="no"?><!DOCTYPE svg PUBLIC "-//W3C//DTD SVG 1.1//EN" "http://www.w3.org/Graphics/SVG/1.1/DTD/svg11.dtd"><svg t="1591773113608" class="icon" viewBox="0 0 1024 1024" version="1.1" xmlns="http://www.w3.org/2000/svg" p-id="7223" xmlns:xlink="http://www.w3.org/1999/xlink" width="200" height="200"><defs><style type="text/css"></style></defs><path d="M581.741816 1023.949789H112.974274a67.935142 67.935142 0 0 1-46.99726-18.628187 62.361749 62.361749 0 0 1-19.48177-45.189673V63.769658a62.612803 62.612803 0 0 1 19.431559-45.189673A67.935142 67.935142 0 0 1 112.924063 0.002008h797.898994a67.935142 67.935142 0 0 1 47.198103 18.628188 62.612803 62.612803 0 0 1 19.48177 45.189673v614.931029a46.545363 46.545363 0 0 1-46.545363 46.545363h-235.990515a67.935142 67.935142 0 0 0-46.99726 18.678398 62.361749 62.361749 0 0 0-19.48177 45.189673v188.390726a46.545363 46.545363 0 0 1-46.545363 46.545363z m57.08962-438.038564a31.883825 31.883825 0 1 0 0-63.717439H245.982545a31.883825 31.883825 0 1 0 0 63.717439h392.899102zM511.898665 415.797211a31.883825 31.883825 0 1 0 0-63.667228h-266.116963a31.883825 31.883825 0 1 0 0 63.667228z m284.092412-201.897417a31.180874 31.180874 0 0 0-9.791096-22.544626 33.992676 33.992676 0 0 0-23.448419-9.288988H245.982545a31.883825 31.883825 0 1 0 0 63.667228h516.819227a33.992676 33.992676 0 0 0 23.49863-9.288988 31.180874 31.180874 0 0 0 9.740885-22.544626z m148.121706 564.368806a33.992676 33.992676 0 0 1 23.49863 9.288988 20.937882 20.937882 0 0 1-1.405901 31.482139l-10.494046 8.485617-234.584614 188.641779a25.105374 25.105374 0 0 1-33.289726-1.456111 31.180874 31.180874 0 0 1-9.791096-22.544626v-182.114383a31.180874 31.180874 0 0 1 9.791096-22.544625 33.992676 33.992676 0 0 1 23.49863-9.288989z" fill="#92929D" p-id="7224"></path></svg>