<?xml version="1.0" standalone="no"?><!DOCTYPE svg PUBLIC "-//W3C//DTD SVG 1.1//EN" "http://www.w3.org/Graphics/SVG/1.1/DTD/svg11.dtd"><svg t="1572858787846" class="icon" viewBox="0 0 1024 1024" version="1.1" xmlns="http://www.w3.org/2000/svg" p-id="6286" xmlns:xlink="http://www.w3.org/1999/xlink" width="200" height="200"><defs><style type="text/css"></style></defs><path d="M614.28736 110.21312l51.45088-74.60864c2.20672-3.1744 1.38752-7.5776-1.78176-9.78432l-1.28512-0.89088a7.03488 7.03488 0 0 0-9.7792 1.80736L599.94624 103.4752c-34.57024-14.98112-73.14432-23.34208-113.8432-23.34208-38.63552 0-75.35104 7.5264-108.54912 21.10976L326.94784 27.91936a7.05536 7.05536 0 0 0-9.7792-1.80736l-1.28 0.89088a7.05536 7.05536 0 0 0-1.78176 9.7792l48.91648 70.91712c-76.92288 36.74624-132.18304 106.79808-143.43168 189.53728h533.01248c-10.98752-80.88064-64.07168-149.66784-138.3168-187.02336zM373.84704 217.088a26.56256 26.56256 0 0 1-26.54208-26.56768 26.55744 26.55744 0 0 1 53.10464 0 26.55744 26.55744 0 0 1-26.56256 26.56768z m229.28896 0a26.58304 26.58304 0 0 1-26.56256-26.56768 26.5728 26.5728 0 0 1 26.56256-26.56256 26.57792 26.57792 0 0 1 26.56768 26.56256A26.57792 26.57792 0 0 1 603.136 217.088zM117.75488 335.86176h11.776c29.13792 0 52.9664 30.52544 52.9664 67.85024v217.6c0 37.31968-23.82848 67.81952-52.9664 67.81952h-11.776c-29.16864 0-53.00736-30.49984-53.00736-67.81952v-217.6c0-37.3248 23.83872-67.85024 53.00736-67.85024z m728.6016 1.31072h11.78112c29.1328 0 52.97664 30.50496 52.97664 67.81952v217.6c0 37.31968-23.83872 67.85024-52.97664 67.85024h-11.78112c-29.15328 0-52.99712-30.53056-52.99712-67.85024V404.992c0-37.30944 23.83872-67.81952 52.99712-67.81952z m-405.92384 478.93504v122.65984c0 37.28896-23.808 67.81952-52.97664 67.81952h-11.776c-29.13792 0-52.9664-30.53056-52.9664-67.81952v-122.65984h-48.75776c-29.79328 0-54.18496-24.38656-54.18496-54.21056v-429.3632h536.88832v429.36832c0 29.824-24.38656 54.21056-54.17984 54.21056h-44.71296v124.09856c0 37.28896-23.83872 66.5856-52.97664 66.5856h-11.78112c-29.15328 0-52.99712-29.29664-52.99712-66.5856v-124.09856H440.43264z m0 0" p-id="6287"></path></svg>
