<?xml version="1.0" standalone="no"?><!DOCTYPE svg PUBLIC "-//W3C//DTD SVG 1.1//EN" "http://www.w3.org/Graphics/SVG/1.1/DTD/svg11.dtd"><svg t="1571102194150" class="icon" viewBox="0 0 1024 1024" version="1.1" xmlns="http://www.w3.org/2000/svg" p-id="2235" xmlns:xlink="http://www.w3.org/1999/xlink" width="200" height="200"><defs><style type="text/css"></style></defs><path d="M631.47 852.818a22.15 22.15 0 0 1-22.139 22.134h-177.09a22.15 22.15 0 0 1-22.14-22.134 22.15 22.15 0 0 1 22.14-22.139h177.09a22.154 22.154 0 0 1 22.14 22.139z m-22.139 33.203h-177.09c-14.567 0-25.846 14.07-20.992 29.348 2.923 9.226 12.242 14.925 21.923 14.925h0.328a33.761 33.761 0 0 1 30.193 18.657l0.23 0.466a45.507 45.507 0 0 0 40.7 25.15h32.322a45.481 45.481 0 0 0 40.683-25.15l0.23-0.466a33.787 33.787 0 0 1 30.198-18.657h0.328c9.672 0 19-5.699 21.924-14.925 4.869-15.278-6.41-29.348-20.977-29.348z m-88.545-708.357a22.144 22.144 0 0 0 22.139-22.134V66.98a22.15 22.15 0 0 0-22.14-22.134 22.15 22.15 0 0 0-22.138 22.134v88.545a22.15 22.15 0 0 0 22.139 22.139z m-234.793 84.285a22.036 22.036 0 0 0 15.652 6.487 22.134 22.134 0 0 0 15.652-37.785l-62.618-62.613a22.124 22.124 0 1 0-31.288 31.294l62.602 62.617z m-52.977 203.49a22.154 22.154 0 0 0-22.139-22.15h-88.545a22.139 22.139 0 0 0 0 44.278h88.54a22.144 22.144 0 0 0 22.144-22.128z m52.977 203.484l-62.607 62.602a22.144 22.144 0 0 0 15.651 37.801 22.01 22.01 0 0 0 15.642-6.492l62.618-62.613a22.124 22.124 0 0 0 0-31.293 22.124 22.124 0 0 0-31.304-0.005z m469.58 0a22.124 22.124 0 1 0-31.298 31.293l62.613 62.613a22.052 22.052 0 0 0 15.652 6.492 22.144 22.144 0 0 0 15.646-37.801l-62.612-62.597zM919.23 443.29h-88.535a22.144 22.144 0 0 0 0 44.277h88.535a22.144 22.144 0 0 0 22.15-22.128 22.16 22.16 0 0 0-22.15-22.15zM739.917 268.436a22.093 22.093 0 0 0 15.662-6.487l62.607-62.617a22.124 22.124 0 1 0-31.293-31.294l-62.618 62.608a22.134 22.134 0 0 0 0 31.298 22.01 22.01 0 0 0 15.642 6.492zM631.47 797.476a22.15 22.15 0 0 1-22.139 22.139h-177.09a22.154 22.154 0 0 1-22.14-22.14c0-11.785 9.242-21.34 20.86-22.005-13.773-124.56-142.608-152.305-142.608-298.967 0-128.369 104.06-232.427 232.428-232.427s232.427 104.058 232.427 232.427c0 146.662-128.834 174.408-142.607 298.967 11.622 0.666 20.87 10.22 20.87 22.006zM469.77 306.16a16.625 16.625 0 0 0-21.622-9.15c-56.576 22.928-99.466 71.92-114.734 131.067a16.599 16.599 0 0 0 11.935 20.219 16.614 16.614 0 0 0 20.23-11.914c12.646-49.004 48.163-89.605 95.037-108.59a16.62 16.62 0 0 0 9.154-21.632z m0 0" p-id="2236"></path></svg>
