<?xml version="1.0" standalone="no"?><!DOCTYPE svg PUBLIC "-//W3C//DTD SVG 1.1//EN" "http://www.w3.org/Graphics/SVG/1.1/DTD/svg11.dtd"><svg t="1590377456691" class="icon" viewBox="0 0 1024 1024" version="1.1" xmlns="http://www.w3.org/2000/svg" p-id="3883" xmlns:xlink="http://www.w3.org/1999/xlink" width="200" height="200"><defs><style type="text/css"></style></defs><path d="M205.35808 889.68192h625.16736v69.79584a43.92448 43.92448 0 0 1-43.92448 43.91936H249.28768a43.93984 43.93984 0 0 1-43.92448-43.91936v-69.79584h-0.00512z m0 0M517.9392 17.92c9.88672 0 14.8224 4.94592 14.8224 14.82752v55.1424c0 9.88672-4.93568 14.8224-14.8224 14.8224s-14.82752-4.93568-14.82752-14.8224V32.74752c0.00512-9.8816 4.9408-14.82752 14.82752-14.82752z m0 0M820.9408 405.71904c0-9.8816 4.93056-14.82752 14.8224-14.82752h55.14752c9.8816 0 14.82752 4.94592 14.82752 14.82752 0 9.88672-4.94592 14.8224-14.82752 14.8224h-55.14752c-9.89184 0-14.8224-4.93568-14.8224-14.8224z m0 0M126.976 405.71904c0-9.8816 4.9408-14.82752 14.82752-14.82752h55.13728c9.88672 0 14.8224 4.94592 14.8224 14.82752 0 9.88672-4.93568 14.8224-14.8224 14.8224H141.80352c-9.88672 0-14.82752-4.93568-14.82752-14.8224z m0 0M301.45024 191.44704c-7.04 6.94272-14.02368 6.89152-20.97152-0.1536l-38.69696-39.27552c-6.94272-7.04-6.89152-14.0288 0.1536-20.9664 7.04-6.9376 14.0288-6.8864 20.9664 0.1536l38.7072 39.2704c6.93248 7.05024 6.88128 14.03904-0.15872 20.97152z m0 0M798.27456 138.63424c6.85056 7.13216 6.71232 14.11584-0.41984 20.9664l-39.75168 38.20544c-7.13728 6.84544-14.12608 6.71232-20.9664-0.41984-6.85056-7.12704-6.71232-14.11072 0.4096-20.9664l39.76192-38.20032c7.13216-6.84544 14.11584-6.7072 20.9664 0.41472z m0 0M782.34112 856.32H253.5424V406.59968c0-146.0224 118.36928-264.40192 264.3968-264.40192 146.0224 0 264.40192 118.37952 264.40192 264.40192v449.72032z m-167.74656-353.83296l-80.41984-27.97056a8.5504 8.5504 0 0 1-5.62176-9.47712l30.592-183.95136c1.56672-9.48224-11.28448-13.95712-15.93344-5.53984L417.88928 502.4a8.5504 8.5504 0 0 0 4.67968 12.2112l80.4096 27.96544a8.57088 8.57088 0 0 1 5.632 9.48736l-30.592 183.99232c-1.58208 9.49248 11.27936 13.96224 15.9232 5.54496l125.32224-226.8928a8.56576 8.56576 0 0 0-4.66944-12.22144z m0 0" p-id="3884"></path></svg>