<svg xmlns="http://www.w3.org/2000/svg" viewBox="0 0 36 36"><defs><style>.cls-1{fill:#fff;fill-opacity:0.65;fill-rule:evenodd;}.cls-2{fill:none;}</style></defs><title>资源 2</title><g id="图层_2" data-name="图层 2"><g id="图层_1-2" data-name="图层 1"><path class="cls-1" d="M24,9H21V8a1,1,0,0,0-1-1H16a1,1,0,0,0-1,1V9H12a1,1,0,0,0-1,1V28a1,1,0,0,0,1,1H24a1,1,0,0,0,1-1V10A1,1,0,0,0,24,9ZM16,8h4V9H16Zm8,20H12V10H24Z"/><path class="cls-1" d="M22.46,18a.51.51,0,0,0-.46-.29H19l1.28-4.62a.49.49,0,0,0-.26-.58.5.5,0,0,0-.62.14l-5.81,7.5A.5.5,0,0,0,14,21H17l-1.24,3.84a.5.5,0,0,0,.85.48l5.82-6.75A.49.49,0,0,0,22.46,18Zm-5,4.76.69-2.15A.49.49,0,0,0,18,20.2a.48.48,0,0,0-.4-.2H15l3.64-4.69-.78,2.8a.51.51,0,0,0,.49.64h2.54Z"/><rect class="cls-2" width="36" height="36"/></g></g></svg>