<?xml version="1.0" standalone="no"?><!DOCTYPE svg PUBLIC "-//W3C//DTD SVG 1.1//EN" "http://www.w3.org/Graphics/SVG/1.1/DTD/svg11.dtd"><svg t="1629192163877" class="icon" viewBox="0 0 1024 1024" version="1.1" xmlns="http://www.w3.org/2000/svg" p-id="7643" xmlns:xlink="http://www.w3.org/1999/xlink" width="200" height="200"><defs><style type="text/css"></style></defs><path d="M682.666667 256h-85.333334V227.555556a28.444444 28.444444 0 0 0-28.444444-28.444445h-113.777778a28.444444 28.444444 0 0 0-28.444444 28.444445v28.444444h-85.333334a28.444444 28.444444 0 0 0-28.444444 28.444444v512a28.444444 28.444444 0 0 0 28.444444 28.444445h341.333334a28.444444 28.444444 0 0 0 28.444444-28.444445V284.444444a28.444444 28.444444 0 0 0-28.444444-28.444444z m-227.555556-28.444444h113.777778v28.444444h-113.777778z m227.555556 568.888888H341.333333V284.444444h341.333334z" fill="#FFFFFF" fill-opacity=".65" p-id="7644"></path><path d="M638.862222 512a14.506667 14.506667 0 0 0-13.084444-8.248889h-85.333334l36.408889-131.413333a13.937778 13.937778 0 0 0-7.395555-16.497778 14.222222 14.222222 0 0 0-17.635556 3.982222l-165.262222 213.333334A14.222222 14.222222 0 0 0 398.222222 597.333333h85.333334l-35.271112 109.226667a14.222222 14.222222 0 0 0 24.177778 13.653333l165.546667-192a13.937778 13.937778 0 0 0 0.853333-16.213333z m-142.222222 135.395556l19.626667-61.155556a13.937778 13.937778 0 0 0-4.266667-11.662222 13.653333 13.653333 0 0 0-11.377778-5.688889H426.666667l103.537777-133.404445-22.186666 79.644445a14.506667 14.506667 0 0 0 13.937778 18.204444h72.248888z" fill="#FFFFFF" fill-opacity=".65" p-id="7645"></path></svg>