<svg width="36" height="36" viewBox="0 0 36 36" fill="none" xmlns="http://www.w3.org/2000/svg">
<path fill-rule="evenodd" clip-rule="evenodd" d="M24 10H12V28H24V10ZM12 9C11.4477 9 11 9.44772 11 10V28C11 28.5523 11.4477 29 12 29H24C24.5523 29 25 28.5523 25 28V10C25 9.44772 24.5523 9 24 9H12Z" fill="white" fill-opacity="0.65"/>
<path fill-rule="evenodd" clip-rule="evenodd" d="M20 8H16V9H20V8ZM16 7C15.4477 7 15 7.44772 15 8V9H21V8C21 7.44772 20.5523 7 20 7H16Z" fill="white" fill-opacity="0.65"/>
<path fill-rule="evenodd" clip-rule="evenodd" d="M20.0424 12.5531C20.2559 12.6602 20.3638 12.9033 20.3 13.1335L19.021 17.75H22C22.1955 17.75 22.3731 17.864 22.4545 18.0417C22.536 18.2194 22.5064 18.4284 22.3787 18.5764L16.5605 25.3264C16.4052 25.5067 16.1443 25.5525 15.9369 25.4359C15.7294 25.3193 15.6329 25.0726 15.7061 24.8462L16.9493 21H14C13.8091 21 13.6349 20.8914 13.551 20.72C13.467 20.5486 13.488 20.3443 13.6049 20.1935L19.4231 12.6935C19.5695 12.5048 19.8289 12.446 20.0424 12.5531ZM15.0207 20H17.6364C17.7963 20 17.9466 20.0765 18.0406 20.2058C18.1347 20.3351 18.1613 20.5016 18.1121 20.6538L17.4186 22.7993L20.9089 18.75H18.3636C18.2074 18.75 18.0602 18.677 17.9657 18.5527C17.8711 18.4284 17.8401 18.267 17.8818 18.1165L18.6595 15.3093L15.0207 20Z" fill="white" fill-opacity="0.65"/>
</svg>
