<svg xmlns="http://www.w3.org/2000/svg" viewBox="0 0 36 36"><defs><style>.cls-1{fill:#fff;fill-opacity:0.65;fill-rule:evenodd;}.cls-2{fill:none;}</style></defs><title>资源 4</title><g id="图层_2" data-name="图层 2"><g id="图层_1-2" data-name="图层 1"><path class="cls-1" d="M27.4,11.43,19,6.58a2,2,0,0,0-2,0L8.61,11.43a2,2,0,0,0-1,1.73v9.69a2,2,0,0,0,1,1.73L17,29.43a2,2,0,0,0,2,0l8.4-4.85a2,2,0,0,0,1-1.73V13.16A2,2,0,0,0,27.4,11.43Zm0,11.42a1,1,0,0,1-.5.86l-8.4,4.85a1,1,0,0,1-1,0L9.11,23.71a1,1,0,0,1-.5-.86V13.16a1,1,0,0,1,.5-.87L17.5,7.45a1,1,0,0,1,1,0l8.4,4.84a1,1,0,0,1,.5.87Z"/><path class="cls-1" d="M22.46,17a.51.51,0,0,0-.46-.29H19l1.27-4.61a.5.5,0,0,0-.87-.44l-5.82,7.5a.47.47,0,0,0,0,.52A.49.49,0,0,0,14,20H17l-1.24,3.85a.5.5,0,0,0,.85.48l5.82-6.75A.51.51,0,0,0,22.46,17Zm-5,4.76.7-2.14a.51.51,0,0,0-.07-.45.52.52,0,0,0-.41-.21H15l3.63-4.69-.77,2.81a.49.49,0,0,0,.48.63h2.54Z"/><rect class="cls-2" width="36" height="36"/></g></g></svg>