<?xml version="1.0" standalone="no"?><!DOCTYPE svg PUBLIC "-//W3C//DTD SVG 1.1//EN" "http://www.w3.org/Graphics/SVG/1.1/DTD/svg11.dtd"><svg t="1629192153959" class="icon" viewBox="0 0 1024 1024" version="1.1" xmlns="http://www.w3.org/2000/svg" p-id="7500" xmlns:xlink="http://www.w3.org/1999/xlink" width="200" height="200"><defs><style type="text/css"></style></defs><path d="M779.377778 325.12L540.444444 187.164444a56.888889 56.888889 0 0 0-56.888888 0l-238.648889 137.955556a56.888889 56.888889 0 0 0-28.444445 49.208889v275.626667a56.888889 56.888889 0 0 0 28.444445 49.208888L483.555556 837.12a56.888889 56.888889 0 0 0 56.888888 0l238.933334-137.955556a56.888889 56.888889 0 0 0 28.444444-49.208888v-275.626667a56.888889 56.888889 0 0 0-28.444444-49.208889z m0 324.835556a28.444444 28.444444 0 0 1-14.222222 24.462222l-238.933334 137.955555a28.444444 28.444444 0 0 1-28.444444 0l-238.648889-137.955555a28.444444 28.444444 0 0 1-14.222222-24.462222v-275.626667a28.444444 28.444444 0 0 1 14.222222-24.746667l238.648889-137.671111a28.444444 28.444444 0 0 1 28.444444 0l238.933334 137.671111a28.444444 28.444444 0 0 1 14.222222 24.746667z" fill="#FFFFFF" fill-opacity=".65" p-id="7501"></path><path d="M638.862222 483.555556a14.506667 14.506667 0 0 0-13.084444-8.248889h-85.333334l36.124445-131.128889a14.222222 14.222222 0 0 0-24.746667-12.515556l-165.546666 213.333334a13.368889 13.368889 0 0 0 0 14.791111 13.937778 13.937778 0 0 0 11.946666 9.102222h85.333334l-35.271112 109.511111a14.222222 14.222222 0 0 0 24.177778 13.653333l165.546667-192a14.506667 14.506667 0 0 0 0.853333-16.497777z m-142.222222 135.395555l19.911111-60.871111a14.506667 14.506667 0 0 0-1.991111-12.8 14.791111 14.791111 0 0 0-11.662222-5.973333H426.666667l103.253333-133.404445-21.902222 79.928889a13.937778 13.937778 0 0 0 13.653333 17.92h72.248889z" fill="#FFFFFF" fill-opacity=".65" p-id="7502"></path></svg>