<svg width="36" height="36" viewBox="0 0 36 36" fill="none" xmlns="http://www.w3.org/2000/svg">
<path fill-rule="evenodd" clip-rule="evenodd" d="M26.8925 12.2888L18.5002 7.44354C18.1908 7.26491 17.8096 7.26491 17.5002 7.44354L9.10791 12.2888C8.79851 12.4675 8.60791 12.7976 8.60791 13.1549V22.8455C8.60791 23.2027 8.79851 23.5329 9.10791 23.7115L17.5002 28.5568C17.8096 28.7354 18.1908 28.7354 18.5002 28.5568L26.8925 23.7115C27.2019 23.5329 27.3925 23.2027 27.3925 22.8455V13.1549C27.3925 12.7976 27.2019 12.4675 26.8925 12.2888ZM19.0002 6.57752C18.3814 6.22025 17.619 6.22025 17.0002 6.57752L8.60791 11.4228C7.98911 11.7801 7.60791 12.4403 7.60791 13.1549V22.8455C7.60791 23.56 7.98911 24.2203 8.60791 24.5775L17.0002 29.4228C17.619 29.7801 18.3814 29.7801 19.0002 29.4228L27.3925 24.5775C28.0113 24.2203 28.3925 23.56 28.3925 22.8455V13.1549C28.3925 12.4403 28.0113 11.7801 27.3925 11.4228L19.0002 6.57752Z" fill="white" fill-opacity="0.65"/>
<path fill-rule="evenodd" clip-rule="evenodd" d="M20.0426 11.5533C20.2561 11.6604 20.364 11.9035 20.3002 12.1337L19.0212 16.7502H22.0002C22.1957 16.7502 22.3733 16.8641 22.4548 17.0419C22.5362 17.2196 22.5066 17.4285 22.3789 17.5766L16.5608 24.3266C16.4054 24.5069 16.1445 24.5526 15.9371 24.4361C15.7296 24.3195 15.6331 24.0728 15.7063 23.8464L16.9495 20.0002H14.0002C13.8094 20.0002 13.6352 19.8915 13.5512 19.7201C13.4672 19.5487 13.4882 19.3445 13.6052 19.1937L19.4233 11.6937C19.5697 11.505 19.8291 11.4462 20.0426 11.5533ZM15.0209 19.0002H17.6366C17.7965 19.0002 17.9468 19.0767 18.0409 19.206C18.135 19.3353 18.1615 19.5018 18.1123 19.654L17.4188 21.7994L20.9091 17.7502H18.3639C18.2077 17.7502 18.0604 17.6772 17.9659 17.5529C17.8713 17.4286 17.8403 17.2672 17.882 17.1167L18.6598 14.3095L15.0209 19.0002Z" fill="white" fill-opacity="0.65"/>
</svg>
