<?xml version="1.0" standalone="no"?><!DOCTYPE svg PUBLIC "-//W3C//DTD SVG 1.1//EN" "http://www.w3.org/Graphics/SVG/1.1/DTD/svg11.dtd"><svg t="1606358720253" class="icon" viewBox="0 0 1024 1024" version="1.1" xmlns="http://www.w3.org/2000/svg" p-id="9399" xmlns:xlink="http://www.w3.org/1999/xlink" width="200" height="200"><defs><style type="text/css"></style></defs><path d="M934.4 605.8496c24.064 0 43.9296 18.1248 46.592 41.472l0.3584 5.4784v281.6c0 24.064-18.1248 43.9296-41.472 46.592l-5.4784 0.3584h-281.6a46.9504 46.9504 0 0 1-5.4784-93.5936l5.4784-0.3072h234.6496V652.8c0-24.064 18.1248-43.9296 41.472-46.592l5.4784-0.3584z m-506.5216-9.728c16.896 16.896 18.176 43.52 3.8912 61.952l-3.8912 4.4544-224.9728 224.9216H371.2c24.064 0 43.9296 18.1248 46.592 41.472l0.3584 5.4784c0 24.064-18.1248 43.9296-41.472 46.592l-5.4784 0.3584H88.064a46.4896 46.4896 0 0 1-2.5088-0.2048l4.0448 0.2048a47.6672 47.6672 0 0 1-24.4224-6.8608 49.0496 49.0496 0 0 1-12.544-11.1616l3.7888 4.2496a46.8992 46.8992 0 0 1-13.4144-27.6992l-0.1536-1.28a47.2064 47.2064 0 0 1-0.1536-3.2768V652.8a46.9504 46.9504 0 0 1 93.5424-5.4784l0.3072 5.4784v168.192l224.9216-224.8704a46.9504 46.9504 0 0 1 66.4064 0zM934.4 42.6496h0.9216c1.0752 0 2.2016 0.1024 3.2768 0.2048L934.4 42.6496a47.36 47.36 0 0 1 28.9792 9.984c2.9696 2.3552 5.632 5.0176 7.9872 8.0384l-3.7888-4.2496a46.6432 46.6432 0 0 1 13.4144 27.6992l0.1536 1.4336a46.592 46.592 0 0 1 0.1536 2.56V371.2a46.9504 46.9504 0 0 1-93.4912 5.4784l-0.3584-5.4784V202.9056L662.528 427.8272a46.9504 46.9504 0 0 1-70.2976-61.952l3.8912-4.4032 224.8704-224.9216H652.8a46.9504 46.9504 0 0 1-46.592-41.472l-0.3584-5.4784c0-24.064 18.1248-43.9296 41.472-46.592l5.4784-0.3584h281.6z m-563.2 0a46.9504 46.9504 0 0 1 5.4784 93.5424l-5.4784 0.3584H136.5504V371.2c0 24.064-18.1248 43.8784-41.472 46.592l-5.4784 0.3584a46.9504 46.9504 0 0 1-46.592-41.472L42.6496 371.2v-281.6c0-24.064 18.1248-43.9296 41.472-46.592L89.6 42.5984h281.6z" p-id="9400"></path></svg>