<?xml version="1.0" standalone="no"?><!DOCTYPE svg PUBLIC "-//W3C//DTD SVG 1.1//EN" "http://www.w3.org/Graphics/SVG/1.1/DTD/svg11.dtd"><svg t="1591940660067" class="icon" viewBox="0 0 1024 1024" version="1.1" xmlns="http://www.w3.org/2000/svg" p-id="3852" xmlns:xlink="http://www.w3.org/1999/xlink" width="200" height="200"><defs><style type="text/css"></style></defs><path d="M0.099837 85.416247a43.262774 43.262774 0 0 1 25.599275-39.337553 41.98281 41.98281 0 0 1 46.676011 9.30107l87.037534 86.013563A518.214651 518.214651 0 0 1 512 0.085331a511.985494 511.985494 0 1 1-393.972837 839.314886 21.332729 21.332729 0 0 1 1.279963-28.671188l91.389411-91.816065a25.599275 25.599275 0 0 1 17.066183-5.973164 21.588722 21.588722 0 0 1 15.359565 8.021106 337.483771 337.483771 0 0 0 269.30437 132.604243 341.323662 341.323662 0 1 0-233.038731-591.513907l91.986727 91.986727a41.129501 41.129501 0 0 1 9.30107 45.993363A42.665458 42.665458 0 0 1 341.338169 426.654578H42.679964a42.665458 42.665458 0 0 1-42.665458-42.665458V85.330916z" fill="#4E4E4E" p-id="3853"></path></svg>