<?xml version="1.0" standalone="no"?><!DOCTYPE svg PUBLIC "-//W3C//DTD SVG 1.1//EN" "http://www.w3.org/Graphics/SVG/1.1/DTD/svg11.dtd"><svg t="1591838014975" class="icon" viewBox="0 0 1024 1024" version="1.1" xmlns="http://www.w3.org/2000/svg" p-id="4225" xmlns:xlink="http://www.w3.org/1999/xlink" width="200" height="200"><defs><style type="text/css"></style></defs><path d="M871.254187 18.432L519.424853 467.882667 148.90752-0.085333a244.906667 244.906667 0 0 0-6.229333 292.437333c108.970667 150.869333 376.746667 455.594667 376.746666 455.594667l389.12-489.472A223.573333 223.573333 0 0 0 871.254187 18.432zM516.608853 654.165333a53.930667 53.930667 0 1 1 54.528-53.930666 54.186667 54.186667 0 0 1-54.528 53.930666z m229.461334 11.093334a179.2 179.2 0 1 0 181.418666 179.2 180.394667 180.394667 0 0 0-181.418666-179.2z m0 269.653333a90.282667 90.282667 0 1 1 91.306666-90.282667 90.794667 90.794667 0 0 1-91.306666 90.624z m-454.656-269.653333a179.2 179.2 0 1 0 181.333333 179.2 180.394667 180.394667 0 0 0-181.333333-179.2z m0 269.653333a90.282667 90.282667 0 1 1 91.306666-90.282667 90.794667 90.794667 0 0 1-91.306666 90.624z m0 0" fill="#4E4E4E" p-id="4226"></path></svg>