<?xml version="1.0" standalone="no"?><!DOCTYPE svg PUBLIC "-//W3C//DTD SVG 1.1//EN" "http://www.w3.org/Graphics/SVG/1.1/DTD/svg11.dtd"><svg t="1606357315276" class="icon" viewBox="0 0 1024 1024" version="1.1" xmlns="http://www.w3.org/2000/svg" p-id="7903" xmlns:xlink="http://www.w3.org/1999/xlink" width="200" height="200"><defs><style type="text/css"></style></defs><path d="M203.126985 25.726392A44.669208 44.669208 0 0 1 243.188481 0h537.566402c16.95894 0 32.509968 9.983376 40.061496 25.726392l32.445972 67.387788h61.884132c24.766452 0 44.7972 20.7987 44.7972 46.525093v139.639272a45.693144 45.693144 0 0 1-44.7972 46.525092h-47.67702l-42.045372 654.679083A45.565152 45.565152 0 0 1 780.754883 1023.936004H243.188481a45.565152 45.565152 0 0 1-44.669208-43.453284l-42.045373-654.679083H108.79688a45.693144 45.693144 0 0 1-44.7972-46.525092V139.639273c0-25.726392 20.030748-46.525092 44.7972-46.525093h61.884132L203.126985 25.726392zM153.59408 232.689457V186.228361h44.797201a44.669208 44.669208 0 0 0 40.061496-25.726392l32.445972-67.323793h482.145866l32.445972 67.323793a44.669208 44.669208 0 0 0 40.061496 25.726392h44.7972v46.525092H153.59408z m92.666209 93.11418l38.845572 605.018187h453.731642l38.845572-605.018187H246.260289z" p-id="7904"></path></svg>