<?xml version="1.0" standalone="no"?><!DOCTYPE svg PUBLIC "-//W3C//DTD SVG 1.1//EN" "http://www.w3.org/Graphics/SVG/1.1/DTD/svg11.dtd"><svg class="icon" width="200px" height="200.00px" viewBox="0 0 1024 1024" version="1.1" xmlns="http://www.w3.org/2000/svg"><path fill="#ffffff" d="M1024.08704 51.2a51.2 51.2 0 0 0-51.2-51.2h-460.8a51.2 51.2 0 0 0 0 102.4h409.6v819.2h-409.6a51.2 51.2 0 0 0 0 102.4h460.8a51.2 51.2 0 0 0 51.2-51.2V51.2zM317.88544 245.4016a51.2 51.2 0 0 0-72.3968 0L17.90464 472.9856a51.2 51.2 0 0 0-13.9264 58.6752c2.56 6.1952 6.3488 11.8784 11.1104 16.64l230.4 230.4a51.2 51.2 0 0 0 72.3968-72.3968l-143.36-143.36H716.88704a51.2 51.2 0 1 0 0-102.4H175.08864l142.7968-142.7456a51.2 51.2 0 0 0 0-72.3968z" /></svg>