<?xml version="1.0" standalone="no"?><!DOCTYPE svg PUBLIC "-//W3C//DTD SVG 1.1//EN" "http://www.w3.org/Graphics/SVG/1.1/DTD/svg11.dtd"><svg class="icon" width="200px" height="200.00px" viewBox="0 0 1024 1024" version="1.1" xmlns="http://www.w3.org/2000/svg"><path fill="#ffffff" d="M0 51.2a51.2 51.2 0 0 1 51.2-51.2h460.8a51.2 51.2 0 1 1 0 102.4H102.4v819.2h409.6a51.2 51.2 0 0 1 0 102.4H51.2a51.2 51.2 0 0 1-51.2-51.2V51.2zM706.2016 245.4016a51.2 51.2 0 0 1 72.3968 0l227.584 227.584A51.0976 51.0976 0 0 1 1024 512a51.2 51.2 0 0 1-15.0016 36.3008l-230.4 230.4a51.2 51.2 0 0 1-72.3968-72.3968l143.36-143.36H307.2a51.2 51.2 0 1 1 0-102.4h541.7984l-142.7968-142.7456a51.2 51.2 0 0 1 0-72.3968z" /></svg>