<?xml version="1.0" standalone="no"?><!DOCTYPE svg PUBLIC "-//W3C//DTD SVG 1.1//EN" "http://www.w3.org/Graphics/SVG/1.1/DTD/svg11.dtd"><svg class="icon" width="200px" height="170.10px" viewBox="0 0 1204 1024" version="1.1" xmlns="http://www.w3.org/2000/svg"><path fill="#ffffff" d="M512 481.882353a60.235294 60.235294 0 0 1-25.961412 49.513412l-391.529412 271.058823A60.235294 60.235294 0 0 1 0 752.941176v-542.117647a60.235294 60.235294 0 0 1 94.509176-49.513411l391.529412 271.058823A60.235294 60.235294 0 0 1 512 481.882353zM120.470588 325.812706v312.199529L345.931294 481.882353 120.470588 325.812706z m1051.949177-168.357647A60.235294 60.235294 0 0 1 1204.705882 210.823529v542.117647a60.235294 60.235294 0 0 1-94.509176 49.513412l-391.529412-271.058823a60.235294 60.235294 0 0 1 0-99.026824l391.529412-271.058823a60.235294 60.235294 0 0 1 62.223059-3.855059zM602.352941 0a30.117647 30.117647 0 0 1 30.117647 30.117647v56.621177a30.117647 30.117647 0 0 1-60.235294 0V30.117647A30.117647 30.117647 0 0 1 602.352941 0z m0 169.803294a30.117647 30.117647 0 0 1 30.117647 30.117647v113.242353a30.117647 30.117647 0 0 1-60.235294 0v-113.242353a30.117647 30.117647 0 0 1 30.117647-30.117647z m0 226.364235a30.117647 30.117647 0 0 1 30.117647 30.117647v113.242353a30.117647 30.117647 0 0 1-60.235294 0v-113.242353a30.117647 30.117647 0 0 1 30.117647-30.117647z m0 226.424471a30.117647 30.117647 0 0 1 30.117647 30.117647v113.242353a30.117647 30.117647 0 1 1-60.235294 0v-113.242353a30.117647 30.117647 0 0 1 30.117647-30.117647z m0 226.364235a30.117647 30.117647 0 0 1 30.117647 30.117647v56.621177a30.117647 30.117647 0 0 1-60.235294 0v-56.621177a30.117647 30.117647 0 0 1 30.117647-30.117647z" /></svg>