<?xml version="1.0" standalone="no"?><!DOCTYPE svg PUBLIC "-//W3C//DTD SVG 1.1//EN" "http://www.w3.org/Graphics/SVG/1.1/DTD/svg11.dtd"><svg class="icon" width="200px" height="181.88px" viewBox="0 0 1126 1024" version="1.1" xmlns="http://www.w3.org/2000/svg"><path fill="#ffffff" d="M435.2 25.6a51.2 51.2 0 0 1 39.3216 18.432l112.64 135.168H921.6a102.4 102.4 0 0 1 102.4 102.4v102.4h51.2a51.2 51.2 0 0 1 50.176 61.2352l-102.4 512a51.2 51.2 0 0 1-50.176 41.1648H51.8144a51.456 51.456 0 0 1-39.1168-17.408A51.0976 51.0976 0 0 1 0 947.2v-819.2a102.4 102.4 0 0 1 102.4-102.4h332.8z m128 256a51.2 51.2 0 0 1-39.3216-18.432l-112.64-135.168H102.4v403.3024l27.136-108.544A51.2 51.2 0 0 1 179.2 384H921.6v-102.4h-358.4z m-446.464 614.4l102.4-409.6h793.6l-81.92 409.6H116.736z" /></svg>