<?xml version="1.0" standalone="no"?><!DOCTYPE svg PUBLIC "-//W3C//DTD SVG 1.1//EN" "http://www.w3.org/Graphics/SVG/1.1/DTD/svg11.dtd"><svg class="icon" width="200px" height="200.00px" viewBox="0 0 1024 1024" version="1.1" xmlns="http://www.w3.org/2000/svg"><path fill="#ffffff" d="M486.4 588.8a51.2 51.2 0 0 1 42.0864 22.0672l230.4 332.8A51.2 51.2 0 0 1 716.8 1024h-460.8a51.2 51.2 0 0 1-42.0864-80.3328l230.4-332.8A51.2 51.2 0 0 1 486.4 588.8zM353.7408 921.6h265.3696L486.4 729.9584 353.7408 921.6zM210.6368 27.4432A51.2 51.2 0 0 1 256 0h460.8a51.2 51.2 0 0 1 42.0864 80.3328l-230.4 332.8a51.2 51.2 0 0 1-84.1728 0l-230.4-332.8A51.2 51.2 0 0 1 210.6368 27.4432zM76.8 512a25.6 25.6 0 0 1 25.6-25.6h48.128a25.6 25.6 0 1 1 0 51.2H102.4A25.6 25.6 0 0 1 76.8 512z m144.3328 0a25.6 25.6 0 0 1 25.6-25.6h96.256a25.6 25.6 0 1 1 0 51.2h-96.256a25.6 25.6 0 0 1-25.6-25.6z m192.4096 0a25.6 25.6 0 0 1 25.6-25.6h96.256a25.6 25.6 0 1 1 0 51.2h-96.256a25.6 25.6 0 0 1-25.6-25.6z m192.4608 0a25.6 25.6 0 0 1 25.6-25.6h96.256a25.6 25.6 0 1 1 0 51.2h-96.256a25.6 25.6 0 0 1-25.6-25.6z m192.4096 0a25.6 25.6 0 0 1 25.6-25.6h48.128a25.6 25.6 0 0 1 0 51.2h-48.128a25.6 25.6 0 0 1-25.6-25.6z" /></svg>