<?xml version="1.0" standalone="no"?><!DOCTYPE svg PUBLIC "-//W3C//DTD SVG 1.1//EN" "http://www.w3.org/Graphics/SVG/1.1/DTD/svg11.dtd"><svg t="1606358716086" class="icon" viewBox="0 0 1024 1024" version="1.1" xmlns="http://www.w3.org/2000/svg" p-id="9169" xmlns:xlink="http://www.w3.org/1999/xlink" width="200" height="200"><defs><style type="text/css"></style></defs><path d="M307.2 0a51.2 51.2 0 0 1 51.2 51.2v204.8h307.2V51.2a51.2 51.2 0 1 1 102.4 0v204.8h204.8a51.2 51.2 0 1 1 0 102.4h-204.8v307.2h204.8a51.2 51.2 0 1 1 0 102.4h-204.8v204.8a51.2 51.2 0 1 1-102.4 0v-204.8H358.4v204.8a51.2 51.2 0 1 1-102.4 0v-204.8H51.2a51.2 51.2 0 1 1 0-102.4h204.8V358.4H51.2a51.2 51.2 0 0 1 0-102.4h204.8V51.2a51.2 51.2 0 0 1 51.2-51.2z m51.2 358.4v307.2h307.2V358.4H358.4z" p-id="9170"></path></svg>