<?xml version="1.0" standalone="no"?><!DOCTYPE svg PUBLIC "-//W3C//DTD SVG 1.1//EN" "http://www.w3.org/Graphics/SVG/1.1/DTD/svg11.dtd"><svg t="1595207230974" class="icon" viewBox="0 0 1024 1024" version="1.1" xmlns="http://www.w3.org/2000/svg" p-id="11849" xmlns:xlink="http://www.w3.org/1999/xlink" width="48" height="48"><defs><style type="text/css"></style></defs><path d="M349.606009 327.986579a373.312686 373.312686 0 0 1 205.916634-191.0502 383.223642 383.223642 0 0 1 272.584333-6.111756 182.064266 182.064266 0 0 1 124.745903 167.858562c-258.576849-166.570138-393.167635-159.599432-603.24687 29.303394z" fill="#1273FF" p-id="11850"></path><path d="M722.423146 951.055362a412.328817 412.328817 0 0 0-26.759582-607.04607c26.429217 18.170086 54.774552 34.324945 79.28765 54.840624a392.870306 392.870306 0 0 1 120.781521 423.825526 181.700865 181.700865 0 0 1-173.309589 128.37992z" fill="#1273FF" p-id="11851"></path><path d="M301.967345 72.812492a408.992128 408.992128 0 0 0 29.171248 605.129952c-11.265454-5.847464-23.125565-11.001161-33.730287-17.674538A394.059621 394.059621 0 0 1 127.765771 205.685379a181.899084 181.899084 0 0 1 174.201574-132.872887z" fill="#1273FF" p-id="11852"></path><path d="M72.759964 726.836495c259.567944 164.125436 410.181443 155.63505 604.337076-31.483804-6.144793 11.628855-11.562782 23.687185-18.533489 34.787456a394.786424 394.786424 0 0 1-449.296683 167.825526 182.295522 182.295522 0 0 1-136.506904-171.129178z" fill="#1273FF" p-id="11853"></path><path d="M754.86501 527.428055c77.536714 178.000774-36.769648 429.474771-220.716996 487.02439a188.308169 188.308169 0 0 1-188.308169-42.947477 404.862563 404.862563 0 0 0 409.025165-444.076913z" fill="#FFA015" p-id="11854"></path><path d="M459.419404 22.497871a181.965157 181.965157 0 0 1 214.737385 29.43554c-253.423151 9.11808-422.867467 206.80862-403.93754 443.746548-25.900632-41.725126-33.465996-122.763711-17.311137-200.201317A383.818299 383.818299 0 0 1 459.254221 22.530907" fill="#FFA015" p-id="11855"></path><path d="M519.678018 270.040521a375.162731 375.162731 0 0 1 312.888889 18.89689 381.076268 381.076268 0 0 1 171.558652 174.201575 178.397213 178.397213 0 0 1-32.342753 209.154213A405.159892 405.159892 0 0 0 519.678018 270.040521z" fill="#FFA015" p-id="11856"></path><path d="M51.451408 352.334495c8.754678 244.70151 203.009421 424.981804 463.931862 399.741902a368.555427 368.555427 0 0 1-219.395535 19.821912A384.974577 384.974577 0 0 1 22.841781 565.254872a178.859724 178.859724 0 0 1 28.609627-212.920377z" fill="#FFA015" p-id="11857"></path></svg>