<?xml version="1.0" standalone="no"?><!DOCTYPE svg PUBLIC "-//W3C//DTD SVG 1.1//EN" "http://www.w3.org/Graphics/SVG/1.1/DTD/svg11.dtd"><svg t="1591838064860" class="icon" viewBox="0 0 1024 1024" version="1.1" xmlns="http://www.w3.org/2000/svg" p-id="5029" xmlns:xlink="http://www.w3.org/1999/xlink" width="200" height="200"><defs><style type="text/css"></style></defs><path d="M837.497545 1023.997547H186.338453a114.467947 114.467947 0 0 1-99.423588-172.192497l269.817303-466.702172V0h310.698713v385.102878l269.817303 466.702172a114.467947 114.467947 0 0 1-99.423588 172.192497zM416.746078 60.259198v340.950956l-277.993585 480.683613a54.5358 54.5358 0 0 0 47.177146 81.76282h651.159092a54.5358 54.5358 0 0 0 47.177147-81.76282l-277.993586-480.847139V60.095672H415.928449z" fill="#4E4E4E" p-id="5030"></path><path d="M412.085597 847.471621a178.897048 178.897048 0 1 1 178.978811-178.978812 179.2241 179.2241 0 0 1-178.978811 178.978812z m0-272.270188a93.373139 93.373139 0 1 0 93.454902 93.291376 93.454902 93.454902 0 0 0-93.454902-93.373139z m165.160895-99.423588a133.927498 133.927498 0 1 1 133.927497-133.927498 134.172786 134.172786 0 0 1-133.927497 133.927498z m0-182.331087a48.403589 48.403589 0 1 0 48.403589 48.403589 48.485352 48.485352 0 0 0-48.403589-48.485352z" fill="#4E4E4E" p-id="5031"></path></svg>