<?xml version="1.0" standalone="no"?><!DOCTYPE svg PUBLIC "-//W3C//DTD SVG 1.1//EN" "http://www.w3.org/Graphics/SVG/1.1/DTD/svg11.dtd"><svg class="icon" width="200px" height="200.00px" viewBox="0 0 1024 1024" version="1.1" xmlns="http://www.w3.org/2000/svg"><path fill="#ffffff" d="M287.651929 2.471552a46.545243 46.545243 0 0 1 59.112458 29.323503l23.272622 69.817865a46.638333 46.638333 0 1 1-88.435962 29.788955l-23.272621-69.817864a46.545243 46.545243 0 0 1 29.323503-59.112459z m-157.788374 80.988723a46.545243 46.545243 0 0 1 66.094245 0l69.817865 69.817865a46.731424 46.731424 0 1 1-66.094245 66.094245l-69.817865-69.817865a46.545243 46.545243 0 0 1 0-66.094245zM558.545243 209.597884a232.726215 232.726215 0 0 0-232.726215 232.726215v279.271457h465.45243v-279.271457a232.726215 232.726215 0 0 0-232.726215-232.726215z m-325.816701 232.726215a325.816701 325.816701 0 0 1 651.633402 0v325.8167a46.545243 46.545243 0 0 1-46.545243 46.545243H279.273785a46.545243 46.545243 0 0 1-46.545243-46.545243v-325.8167z m-186.180972-201.07545a46.545243 46.545243 0 0 1 59.112459-29.323503l69.817864 23.272621a46.545243 46.545243 0 0 1 20.293726 74.937841 46.545243 46.545243 0 0 1-50.082681 13.498121l-69.817865-23.272622A46.545243 46.545243 0 0 1 46.54757 241.714101v-0.465452z m93.090486 689.800501a46.545243 46.545243 0 0 1 46.545243-46.545243h744.723888a46.545243 46.545243 0 0 1 0 93.090486H186.183299a46.545243 46.545243 0 0 1-46.545243-46.545243z" /></svg>