<?xml version="1.0" standalone="no"?><!DOCTYPE svg PUBLIC "-//W3C//DTD SVG 1.1//EN" "http://www.w3.org/Graphics/SVG/1.1/DTD/svg11.dtd"><svg t="1606357308551" class="icon" viewBox="0 0 1024 1024" version="1.1" xmlns="http://www.w3.org/2000/svg" p-id="7639" xmlns:xlink="http://www.w3.org/1999/xlink" width="200" height="200"><defs><style type="text/css"></style></defs><path d="M51.2 51.2a51.2 51.2 0 0 1 51.2-51.2h563.2a51.2 51.2 0 0 1 36.1984 15.0016l256 256A51.2 51.2 0 0 1 972.8 307.2v665.6a51.2 51.2 0 0 1-51.2 51.2H102.4a51.2 51.2 0 0 1-51.2-51.2V51.2z m487.0144 51.2H153.6v819.2h716.8V411.648h-280.9856a51.2 51.2 0 0 1-51.2-51.2V102.4z m313.088 206.848L644.4032 102.4h-3.7888v206.848h210.688z" p-id="7640"></path></svg>