<?xml version="1.0" standalone="no"?><!DOCTYPE svg PUBLIC "-//W3C//DTD SVG 1.1//EN" "http://www.w3.org/Graphics/SVG/1.1/DTD/svg11.dtd"><svg class="icon" width="200px" height="180.12px" viewBox="0 0 1137 1024" version="1.1" xmlns="http://www.w3.org/2000/svg"><path fill="#ffffff" d="M170.666667 113.777778a56.888889 56.888889 0 0 0-56.888889 56.888889v682.666666a56.888889 56.888889 0 0 0 56.888889 56.888889h796.444444a56.888889 56.888889 0 0 0 56.888889-56.888889V170.666667a56.888889 56.888889 0 0 0-56.888889-56.888889H170.666667zM0 170.666667a170.666667 170.666667 0 0 1 170.666667-170.666667h796.444444a170.666667 170.666667 0 0 1 170.666667 170.666667v682.666666a170.666667 170.666667 0 0 1-170.666667 170.666667H170.666667a170.666667 170.666667 0 0 1-170.666667-170.666667V170.666667zM341.333333 312.888889a28.444444 28.444444 0 1 0 0 56.888889 28.444444 28.444444 0 0 0 0-56.888889zM256 341.333333a85.333333 85.333333 0 1 1 170.666667 0 85.333333 85.333333 0 0 1-170.666667 0zM447.146667 508.586667a42.666667 42.666667 0 0 1 30.151111 12.515555l233.813333 233.813334a42.666667 42.666667 0 1 1-60.302222 60.302222l-203.662222-203.662222-203.662223 203.662222a42.666667 42.666667 0 0 1-60.302222-60.302222l233.813334-233.813334a42.666667 42.666667 0 0 1 30.151111-12.515555zM676.352 509.155556c11.320889 0 22.186667 4.437333 30.151111 12.458666l233.813333 233.244445a42.666667 42.666667 0 0 1-60.245333 60.416l-203.548444-203.093334-79.644445 80.099556a42.666667 42.666667 0 0 1-60.529778-60.188445l109.795556-110.364444a42.666667 42.666667 0 0 1 30.151111-12.572444z" /></svg>