<?xml version="1.0" standalone="no"?><!DOCTYPE svg PUBLIC "-//W3C//DTD SVG 1.1//EN" "http://www.w3.org/Graphics/SVG/1.1/DTD/svg11.dtd"><svg class="icon" width="200px" height="200.00px" viewBox="0 0 1024 1024" version="1.1" xmlns="http://www.w3.org/2000/svg"><path fill="#ffffff" d="M511.984896 102.411827a409.587917 409.587917 0 1 1-289.629855 699.217773 51.19849 51.19849 0 0 0-72.394665 72.394664 511.984896 511.984896 0 1 0 0-724.04904A1923.015271 1923.015271 0 0 0 102.396979 199.996148V102.411827a51.19849 51.19849 0 0 0-102.396979 0v230.393203a51.19849 51.19849 0 0 0 51.19849 51.19849h230.393203a51.19849 51.19849 0 1 0 0-102.396979H166.395091c20.991381-22.834526 41.675571-44.952274 55.95995-59.236653A408.154359 408.154359 0 0 1 511.984896 102.411827zM409.280726 416.360965c26.828009 0 47.205007 9.727713 61.130997 29.183139 13.721195 19.045838 20.581793 45.259465 20.581793 78.640881 0 35.429355-7.270186 64.305303-21.810557 86.627844-15.154753 22.322541-35.224561 33.483812-60.209424 33.483812-42.597143 0-66.660434-19.865014-72.18987-59.595042h32.562239c4.300673 21.298572 17.61228 31.947858 39.934822 31.947858 14.745165 0 26.828009-7.474979 36.248531-22.424939 8.80614-14.540371 13.20921-32.255048 13.20921-53.144032l-0.307191-3.993482H457.202513a61.950172 61.950172 0 0 1-23.346512 21.503366 69.578747 69.578747 0 0 1-30.411903 6.7582c-21.70816 0-39.013249-6.962995-51.915268-20.888984-12.492431-13.311607-18.738647-30.821491-18.738647-52.52965 0-22.117748 7.270186-40.139616 21.810556-54.065605 14.540371-14.335577 32.767033-21.503366 54.679987-21.503366z m1.228764 27.647185c-13.925989 0-24.780069 4.505467-32.562239 13.516401-8.191758 8.80614-12.287638 20.274602-12.287638 34.405385s4.095879 25.292054 12.287638 33.483812c7.78217 8.601346 18.533853 12.902019 32.255048 12.90202s24.575275-4.300673 32.562239-12.90202c7.986964-8.601346 11.980447-20.069808 11.980447-34.405385 0-14.130783-4.095879-25.496848-12.287637-34.098194a42.136357 42.136357 0 0 0-31.947858-12.902019zM595.950419 416.360965c25.804039 0 45.77145 10.85408 59.902233 32.56224 12.902019 20.274602 19.353029 47.409801 19.353029 81.405598s-6.45101 61.130997-19.353029 81.405599c-14.335577 21.70816-34.302988 32.562239-59.902233 32.562239-25.599245 0-45.566656-10.85408-59.902232-32.562239-12.902019-20.274602-19.353029-47.409801-19.35303-81.405599 0-34.405385 6.45101-61.540585 19.35303-81.405598a67.479609 67.479609 0 0 1 59.902232-32.56224z m0 28.261567c-18.021868 0-30.719094 9.932507-38.091676 29.797521-5.324643 13.106813-7.986964 31.743064-7.986964 55.90875 0 23.960893 2.662321 42.597143 7.986964 55.908751 7.372583 19.865014 20.069808 29.797521 38.091676 29.797521s30.719094-9.932507 38.091677-29.797521c5.324643-14.130783 7.986964-32.767033 7.986964-55.908751 0-23.551305-2.662321-42.187555-7.986964-55.90875-7.372583-19.865014-20.069808-29.797521-38.091677-29.797521zM714.218931 396.393554c10.85408 0 20.069808 3.891085 27.647184 11.673256a37.2725 37.2725 0 0 1 11.366065 27.339993 37.2725 37.2725 0 0 1-11.366065 27.339994 37.784485 37.784485 0 0 1-27.647184 11.673256 36.146134 36.146134 0 0 1-27.339994-11.673256 35.531752 35.531752 0 0 1-11.673256-27.339994c0-11.058874 3.891085-20.172205 11.673256-27.339993a35.531752 35.531752 0 0 1 27.339994-11.673256z m0 17.509884c-6.143819 0-11.161271 2.04794-15.052356 6.143819a20.991381 20.991381 0 0 0-6.45101 15.359546 20.991381 20.991381 0 0 0 6.45101 15.359547 20.479396 20.479396 0 0 0 15.052356 6.143819c5.734231 0 10.85408-2.04794 15.359546-6.143819a20.991381 20.991381 0 0 0 6.45101-15.359547 20.991381 20.991381 0 0 0-6.45101-15.359546 20.837785 20.837785 0 0 0-15.359546-6.143819z" /></svg>