<?xml version="1.0" standalone="no"?><!DOCTYPE svg PUBLIC "-//W3C//DTD SVG 1.1//EN" "http://www.w3.org/Graphics/SVG/1.1/DTD/svg11.dtd"><svg class="icon" width="200px" height="200.00px" viewBox="0 0 1024 1024" version="1.1" xmlns="http://www.w3.org/2000/svg"><path fill="#ffffff" d="M512.02509 102.393344a409.573378 409.573378 0 1 0 289.619575 699.192953 51.196672 51.196672 0 0 1 72.392094 72.392094 511.966722 511.966722 0 1 1 0-724.023338c12.901561 12.901561 29.950053 30.973987 47.612906 50.019149V102.393344a51.196672 51.196672 0 0 1 102.393344 0v230.385025a51.196672 51.196672 0 0 1-51.196672 51.196673h-230.385025a51.196672 51.196672 0 0 1 0-102.393345h115.192512a2200.432972 2200.432972 0 0 0-56.009159-59.23455A408.088674 408.088674 0 0 0 512.02509 102.393344zM417.157657 416.331338c26.827056 0 47.203332 9.727368 61.128826 29.182104 13.720708 19.045162 20.581062 45.257858 20.581062 78.638088 0 35.428097-7.269927 64.30302-21.809782 86.62477-15.154215 22.321749-35.22331 33.482624-60.207286 33.482623-42.595631 0-66.658067-19.864309-72.187308-59.592926h32.561083c4.30052 21.297816 17.611655 31.946723 39.933405 31.946723 14.744642 0 26.827056-7.474714 36.247243-22.424142 8.805828-14.539855 13.208741-32.253903 13.208742-53.142146l-0.30718-3.99334h-1.22872a61.947973 61.947973 0 0 1-23.345683 21.502602 69.576278 69.576278 0 0 1-30.410823 6.757961c-21.707389 0-39.011864-6.962747-51.913426-20.888243-12.491988-13.311135-18.737982-30.820397-18.737982-52.527785 0-22.116962 7.269927-40.138191 21.809783-54.063686 14.539855-14.335068 32.76587-21.502602 54.678046-21.502603z m1.22872 27.646203c-13.925495 0-24.779189 4.505307-32.561084 13.515922-8.191468 8.805828-12.287201 20.273882-12.287201 34.404164s4.095734 25.291156 12.287201 33.482623c7.781894 8.601041 18.533195 12.901561 32.253904 12.901562s24.574403-4.30052 32.561083-12.901562c7.986681-8.601041 11.980021-20.069096 11.980021-34.404163 0-14.130282-4.095734-25.495943-12.287201-34.096984a42.134861 42.134861 0 0 0-31.946723-12.901562zM603.820723 416.331338c25.803123 0 45.769825 10.853695 59.900107 32.561084 12.901561 20.273882 19.352342 47.408118 19.352342 81.402709s-6.450781 61.128827-19.352342 81.402709c-14.335068 21.707389-34.30177 32.561084-59.900107 32.561083-25.598336 0-45.565038-10.853695-59.900106-32.561083-12.901561-20.273882-19.352342-47.408118-19.352342-81.402709 0-34.404164 6.450781-61.5384 19.352342-81.402709a67.477214 67.477214 0 0 1 59.900106-32.561084z m0 28.260564c-18.021229 0-30.718003 9.932154-38.090324 29.796463-5.324454 13.106348-7.986681 31.741937-7.986681 55.906766 0 23.960043 2.662227 42.595631 7.986681 55.906766 7.372321 19.864309 20.069096 29.796463 38.090324 29.796463s30.718003-9.932154 38.090325-29.796463c5.324454-14.130282 7.986681-32.76587 7.98668-55.906766 0-23.550469-2.662227-42.186058-7.98668-55.906766-7.372321-19.864309-20.069096-29.796463-38.090325-29.796463zM722.085036 396.364636c10.853695 0 20.069096 3.890947 27.646203 11.672842a37.271177 37.271177 0 0 1 11.365661 27.339023 37.271177 37.271177 0 0 1-11.365661 27.339022 37.783144 37.783144 0 0 1-27.646203 11.672842 36.144851 36.144851 0 0 1-27.339023-11.672842 35.530491 35.530491 0 0 1-11.672841-27.339022c0-11.058481 3.890947-20.171489 11.672841-27.339023a35.530491 35.530491 0 0 1 27.339023-11.672842z m0 17.509262c-6.143601 0-11.160875 2.047867-15.051821 6.143601a20.990636 20.990636 0 0 0-6.450781 15.359002 20.990636 20.990636 0 0 0 6.450781 15.359001 20.478669 20.478669 0 0 0 15.051821 6.143601c5.734027 0 10.853695-2.047867 15.359002-6.143601a20.990636 20.990636 0 0 0 6.450781-15.359001 20.990636 20.990636 0 0 0-6.450781-15.359002 20.837046 20.837046 0 0 0-15.359002-6.143601z" /></svg>