<?xml version="1.0" standalone="no"?><!DOCTYPE svg PUBLIC "-//W3C//DTD SVG 1.1//EN" "http://www.w3.org/Graphics/SVG/1.1/DTD/svg11.dtd"><svg t="1591838300300" class="icon" viewBox="0 0 1024 1024" version="1.1" xmlns="http://www.w3.org/2000/svg" p-id="5568" xmlns:xlink="http://www.w3.org/1999/xlink" width="200" height="200"><defs><style type="text/css"></style></defs><path d="M800.116643 42.638241a40.762159 40.762159 0 0 1 38.715523-42.638241h94.998001a40.762159 40.762159 0 0 1 38.715523 42.638241v938.723518a40.762159 40.762159 0 0 1-38.715523 42.638241H838.832166a40.762159 40.762159 0 0 1-38.715523-42.638241V42.638241z m-138.147902 939.064624c0 23.365756-14.07062 30.78481-30.955363 17.055296L62.986729 536.986009a31.296469 31.296469 0 0 1 0-50.398401L631.098655 24.815456c17.055296-13.900067 30.955363-6.139907 30.955363 17.055297v940.087941z" fill="#4E4E4E" p-id="5569"></path></svg>