<?xml version="1.0" standalone="no"?><!DOCTYPE svg PUBLIC "-//W3C//DTD SVG 1.1//EN" "http://www.w3.org/Graphics/SVG/1.1/DTD/svg11.dtd"><svg class="icon" width="200px" height="180.12px" viewBox="0 0 1137 1024" version="1.1" xmlns="http://www.w3.org/2000/svg"><path fill="#ffffff" d="M845.010357 16.824557a56.880072 56.880072 0 0 0 0 80.428422l83.898107 83.898107H421.424457a421.424457 421.424457 0 0 0 0 842.848914h474.152284a56.880072 56.880072 0 0 0 0-113.760145H421.424457a307.664312 307.664312 0 0 1-307.721192-319.666007l-56.880073-2.275203 56.880073 2.275203a307.664312 307.664312 0 0 1 307.152391-295.776377h507.540887l-83.386186 84.011867a56.766312 56.766312 0 0 0 17.974103 93.567719 56.880072 56.880072 0 0 0 62.454319-13.139297l180.992391-180.99239a56.880072 56.880072 0 0 0 0-80.428423L925.438779 16.824557a56.880072 56.880072 0 0 0-80.428422 0z" /></svg>