<?xml version="1.0" standalone="no"?><!DOCTYPE svg PUBLIC "-//W3C//DTD SVG 1.1//EN" "http://www.w3.org/Graphics/SVG/1.1/DTD/svg11.dtd"><svg class="icon" width="200px" height="180.12px" viewBox="0 0 1137 1024" version="1.1" xmlns="http://www.w3.org/2000/svg"><path fill="#ffffff" d="M278.114172 16.667509a56.885697 56.885697 0 0 1 0 80.436376L194.207769 181.010288h507.534189a421.466129 421.466129 0 1 1 0 842.932257H227.542788a56.885697 56.885697 0 0 1 0-113.771393h474.19917a307.751621 307.751621 0 0 0 307.182763-319.697617l56.885697-2.275428-56.885697 2.275428a307.694735 307.694735 0 0 0-307.182763-295.805625H194.207769l83.906403 84.020175A56.885697 56.885697 0 1 1 197.677797 459.067575L16.667509 278.114172a56.885697 56.885697 0 0 1 0-80.436375L197.677797 16.667509a56.885697 56.885697 0 0 1 80.436375 0z" /></svg>