<?xml version="1.0" standalone="no"?><!DOCTYPE svg PUBLIC "-//W3C//DTD SVG 1.1//EN" "http://www.w3.org/Graphics/SVG/1.1/DTD/svg11.dtd"><svg class="icon" width="200px" height="172.83px" viewBox="0 0 1185 1024" version="1.1" xmlns="http://www.w3.org/2000/svg"><path fill="#ffffff" d="M276.913853 26.570105A53.894737 53.894737 0 0 1 323.371116 0h538.947368a53.894737 53.894737 0 0 1 46.457263 26.570105l269.473685 458.105263a53.894737 53.894737 0 0 1 0 54.649264l-269.473685 458.105263A53.948632 53.948632 0 0 1 862.318484 1024H323.371116a53.894737 53.894737 0 0 1-46.457263-26.570105l-269.473685-458.105263a53.894737 53.894737 0 0 1 0-54.649264l269.473685-458.105263zM354.198905 107.789474L116.415326 512 354.198905 916.210526h477.29179l237.783579-404.210526L831.490695 107.789474H354.198905zM404.213221 512a188.631579 188.631579 0 1 1 377.263158 0 188.631579 188.631579 0 0 1-377.263158 0zM592.8448 431.157895a80.842105 80.842105 0 1 0 0 161.68421 80.842105 80.842105 0 0 0 0-161.68421z" /></svg>