<?xml version="1.0" standalone="no"?><!DOCTYPE svg PUBLIC "-//W3C//DTD SVG 1.1//EN" "http://www.w3.org/Graphics/SVG/1.1/DTD/svg11.dtd"><svg t="1591838008248" class="icon" viewBox="0 0 1024 1024" version="1.1" xmlns="http://www.w3.org/2000/svg" p-id="4091" xmlns:xlink="http://www.w3.org/1999/xlink" width="200" height="200"><defs><style type="text/css"></style></defs><path d="M818.986789 725.343553l-98.107785-110.371258 53.468743-60.336287 187.058842 211.177006-186.977086 211.177006-53.468742-60.336287 93.856447-106.283434H360.823435v-85.026746h457.836328z m33.193133 37.526227v6.04998l2.697964-3.02499zM285.280441 85.435529H134.112697v853.210699h377.960239v85.353772H134.112697A80.938922 80.938922 0 0 1 58.487946 938.646228V85.353772A80.938922 80.938922 0 0 1 134.112697 0h642.524231l188.939242 213.302675v298.656447h-75.624751V255.979561L738.783675 85.353772v341.333334a80.938922 80.938922 0 0 1-75.624751 85.353772h-302.499002a80.938922 80.938922 0 0 1-75.62475-85.353772V85.353772z m75.624751 341.333333h302.499002V85.353772h-302.499002z m151.167744-255.979561h75.624751v170.625789h-75.624751V170.625788z" fill="#4E4E4E" p-id="4092"></path></svg>