<?xml version="1.0" standalone="no"?><!DOCTYPE svg PUBLIC "-//W3C//DTD SVG 1.1//EN" "http://www.w3.org/Graphics/SVG/1.1/DTD/svg11.dtd"><svg t="1595207270554" class="icon" viewBox="0 0 7467 1024" version="1.1" xmlns="http://www.w3.org/2000/svg" p-id="11990" xmlns:xlink="http://www.w3.org/1999/xlink" width="350.015625" height="48"><defs><style type="text/css"></style></defs><path d="M1687.898657 277.502435a13.31742 13.31742 0 0 1-4.97296-8.864232h7.880878a6.25132 6.25132 0 0 0 2.55672 4.214374 11.842389 11.842389 0 0 0 6.012506 1.180024q8.906376 0 8.906375-9.552579v-5.267967a12.320018 12.320018 0 0 1-10.564029 5.534877 15.241983 15.241983 0 0 1-11.744053-4.846529 18.262284 18.262284 0 0 1-4.495332-13.022414 18.641578 18.641578 0 0 1 4.495332-13.078605 15.031265 15.031265 0 0 1 11.744053-4.987009 12.362162 12.362162 0 0 1 10.564029 5.324159v-4.354853h7.880879v33.518316a14.918882 14.918882 0 0 1-16.787254 16.969877 20.004225 20.004225 0 0 1-11.477144-2.767439z m4.214374-39.193672a13.078605 13.078605 0 0 0-2.48648 8.583274 14.047911 14.047911 0 0 0 1.938611 7.965165 8.20398 8.20398 0 0 0 7.389201 3.469834 8.793992 8.793992 0 0 0 7.023956-2.978157 13.612426 13.612426 0 0 0 2.416241-8.428746 13.865288 13.865288 0 0 0-2.416241-8.583274 9.285669 9.285669 0 0 0-13.879336 0z m-421.9852 39.193672a13.289324 13.289324 0 0 1-4.972961-8.864232h7.86683a6.25132 6.25132 0 0 0 2.55672 4.214374 11.842389 11.842389 0 0 0 6.012506 1.180024q8.906376 0 8.906376-9.552579v-5.267967a12.320018 12.320018 0 0 1-10.56403 5.534877 15.241983 15.241983 0 0 1-11.730005-4.846529 18.262284 18.262284 0 0 1-4.481284-13.022414 18.641578 18.641578 0 0 1 4.481284-13.078605 15.031265 15.031265 0 0 1 11.730005-4.987009 12.362162 12.362162 0 0 1 10.56403 5.324159v-4.354853h7.880878v33.518316a14.918882 14.918882 0 0 1-16.787254 16.969877 20.004225 20.004225 0 0 1-11.533335-2.767439z m4.214373-39.193672a13.078605 13.078605 0 0 0-2.48648 8.583274 14.047911 14.047911 0 0 0 1.924563 7.965165 8.20398 8.20398 0 0 0 7.389202 3.469834 8.793992 8.793992 0 0 0 7.023955-2.978157 13.612426 13.612426 0 0 0 2.416241-8.428746 13.865288 13.865288 0 0 0-2.416241-8.583274 9.285669 9.285669 0 0 0-13.879336 0z m563.672431 40.991805l6.279416-14.539588-14.160294-34.979299h8.569226l9.468292 25.482911 9.046854-25.482911h8.569226l-19.329925 49.518887z m-105.921249 0l6.279416-14.539588-14.146247-34.979299h8.569226l9.468292 25.482911 9.032807-25.482911h8.569226l-19.329926 49.518887z m-1036.946555 0v-49.504839h7.318962v3.806984a12.853839 12.853839 0 0 1 10.774747-4.77629 15.171744 15.171744 0 0 1 12.432402 5.619165 23.474059 23.474059 0 0 1 0 26.522456 14.4553 14.4553 0 0 1-12.081204 5.619164 13.008366 13.008366 0 0 1-10.634269-5.886075v18.627531z m9.833538-40.443936a14.567684 14.567684 0 0 0-2.205522 8.583273v0.561917a13.893384 13.893384 0 0 0 2.809582 9.07495 7.698255 7.698255 0 0 0 6.279416 3.118637 9.060903 9.060903 0 0 0 7.740399-3.399595 15.565085 15.565085 0 0 0 2.205522-8.934471 16.857493 16.857493 0 0 0-2.008851-8.934472 8.54113 8.54113 0 0 0-7.656112-3.736744 7.965166 7.965166 0 0 0-7.333009 3.624361z m-354.892377 40.443936v-49.504839h7.318961v3.806984a12.839791 12.839791 0 0 1 10.774748-4.77629 15.157696 15.157696 0 0 1 12.432401 5.619165 23.445964 23.445964 0 0 1 0 26.522456 14.427205 14.427205 0 0 1-12.081203 5.619164 12.994318 12.994318 0 0 1-10.634269-5.886075v18.627531z m9.833537-40.443936a14.609828 14.609828 0 0 0-2.205522 8.583273v0.561917a13.935528 13.935528 0 0 0 2.809582 9.07495 7.712303 7.712303 0 0 0 6.293465 3.118637 9.046855 9.046855 0 0 0 7.726351-3.399595 15.452702 15.452702 0 0 0 2.205522-8.934471 16.857493 16.857493 0 0 0-2.008852-8.934472 8.569226 8.569226 0 0 0-7.670159-3.736744 7.979213 7.979213 0 0 0-7.178483 3.624361z m1584.730799 22.785711a19.23159 19.23159 0 0 1-4.972961-14.047911 19.456357 19.456357 0 0 1 4.692003-13.359563 15.452702 15.452702 0 0 1 12.57288-5.478685 16.042714 16.042714 0 0 1 13.471947 5.956314 23.881449 23.881449 0 0 1 4.214373 15.087456h-26.691031a12.825743 12.825743 0 0 0 2.697199 7.628016 8.218028 8.218028 0 0 0 6.560374 2.62696 9.735202 9.735202 0 0 0 5.872027-1.657654 11.645718 11.645718 0 0 0 3.174828-4.354852h7.86683a16.042714 16.042714 0 0 1-4.97296 8.428746 17.770607 17.770607 0 0 1-11.870485 4.087942 16.660823 16.660823 0 0 1-12.64312-4.916769z m6.363704-24.176454a11.786197 11.786197 0 0 0-2.907918 6.433943h18.374668a8.583274 8.583274 0 0 0-9.327813-8.653513 8.302315 8.302315 0 0 0-6.167033 2.163378z m-79.483081 16.478199h7.656111a8.091597 8.091597 0 0 0 2.416241 4.84653 9.833538 9.833538 0 0 0 5.619165 1.320503q8.302315 0 8.288267-4.425092a4.43914 4.43914 0 0 0-3.104588-3.947463 44.040201 44.040201 0 0 0-7.023956-2.008851 31.102075 31.102075 0 0 1-8.906375-3.118636 8.189932 8.189932 0 0 1-4.144134-7.276818 8.583274 8.583274 0 0 1 4.073894-7.684208 17.840847 17.840847 0 0 1 10.634269-2.809582q14.160294 0 15.452702 11.36476h-7.67016a6.447991 6.447991 0 0 0-2.48648-3.806984 10.254975 10.254975 0 0 0-5.38035-1.109785 9.566627 9.566627 0 0 0-4.692002 0.899067 3.09054 3.09054 0 0 0-1.798133 2.978157q0 1.727893 2.809583 2.978157a58.045968 58.045968 0 0 0 7.12229 2.079091 29.31799 29.31799 0 0 1 8.976616 3.399594 8.428747 8.428747 0 0 1 4.214373 7.543728q0 11.420952-16.084858 11.420952-14.820546-0.028096-16.000571-12.629072z m-79.483081 0h7.656112a8.063501 8.063501 0 0 0 2.41624 4.84653 9.833538 9.833538 0 0 0 5.619165 1.320503q8.288268 0 8.274219-4.425092a4.453188 4.453188 0 0 0-3.09054-3.947463 43.98401 43.98401 0 0 0-7.023956-2.008851 31.102075 31.102075 0 0 1-8.906375-3.118636 8.189932 8.189932 0 0 1-4.144134-7.276818 8.597322 8.597322 0 0 1 4.073894-7.684208 17.868943 17.868943 0 0 1 10.634269-2.809582q14.160294 0 15.452702 11.36476h-7.656111a6.476087 6.476087 0 0 0-2.486481-3.806984 10.240927 10.240927 0 0 0-5.38035-1.109785 9.566627 9.566627 0 0 0-4.692002 0.899067 3.104588 3.104588 0 0 0-1.798133 2.978157q0 1.727893 2.809583 2.978157a58.10216 58.10216 0 0 0 7.122291 2.079091 29.261799 29.261799 0 0 1 8.962567 3.399594 8.428747 8.428747 0 0 1 4.284613 7.543728q0 11.420952-16.098906 11.420952-14.876738-0.028096-16.056763-12.629072z m-178.155608 7.684208a19.23159 19.23159 0 0 1-4.97296-14.047911 19.512548 19.512548 0 0 1 4.692002-13.359564 15.452702 15.452702 0 0 1 12.57288-5.478685 16.014619 16.014619 0 0 1 13.457899 5.956314 23.881449 23.881449 0 0 1 4.284613 15.087457h-26.691031a12.825743 12.825743 0 0 0 2.697199 7.628015 8.218028 8.218028 0 0 0 6.560374 2.62696 9.721154 9.721154 0 0 0 5.872027-1.657654 11.659766 11.659766 0 0 0 3.174828-4.354852h7.86683a16.084858 16.084858 0 0 1-4.97296 8.428746 17.770607 17.770607 0 0 1-11.884533 4.087942 16.646775 16.646775 0 0 1-12.685264-4.902721z m6.349656-24.176455a11.912629 11.912629 0 0 0-2.907918 6.433943h18.374668a8.583274 8.583274 0 0 0-9.327813-8.653513 8.316363 8.316363 0 0 0-6.152985 2.177426z m-92.53359 24.176455a19.245638 19.245638 0 0 1-4.972961-14.047911 19.456357 19.456357 0 0 1 4.70605-13.359564 15.452702 15.452702 0 0 1 12.558833-5.478685 16.014619 16.014619 0 0 1 13.457899 5.956314 23.881449 23.881449 0 0 1 4.284613 15.087457h-26.691031a12.867887 12.867887 0 0 0 2.697198 7.628015 8.232076 8.232076 0 0 0 6.560375 2.62696 9.74925 9.74925 0 0 0 5.872027-1.657654 11.715958 11.715958 0 0 0 3.174828-4.354852h7.86683a16.056762 16.056762 0 0 1-4.972961 8.428746 17.75656 17.75656 0 0 1-11.870485 4.087942 16.646775 16.646775 0 0 1-12.685263-4.902721z m6.32156-24.218599a11.786197 11.786197 0 0 0-2.907918 6.433943h18.36062a8.569226 8.569226 0 0 0-9.327813-8.653513 8.288268 8.288268 0 0 0-6.124889 2.21957z m-77.965907 23.488107a20.931387 20.931387 0 0 1-4.144133-13.443851 20.383519 20.383519 0 0 1 4.073894-13.092653 14.441253 14.441253 0 0 1 12.081203-5.619164 13.008366 13.008366 0 0 1 10.634269 5.886075v-19.526597h7.880878v50.417953h-7.347057v-3.806984a12.853839 12.853839 0 0 1-10.774748 4.77629 15.059361 15.059361 0 0 1-12.390258-5.534877z m6.082746-22.223795a14.989121 14.989121 0 0 0-2.149331 8.793992 16.309625 16.309625 0 0 0 2.008852 8.934472 8.428747 8.428747 0 0 0 7.656111 3.736744 8.063501 8.063501 0 0 0 7.108243-3.666505 15.452702 15.452702 0 0 0 2.205522-8.583273v-0.561917a13.907432 13.907432 0 0 0-2.809582-9.07495 7.698255 7.698255 0 0 0-6.279416-3.118637 8.87828 8.87828 0 0 0-7.726351 3.596266z m-48.549581 22.912143a19.217542 19.217542 0 0 1-4.97296-14.047911 19.484453 19.484453 0 0 1 4.692002-13.359564 15.452702 15.452702 0 0 1 12.558832-5.478685 16.028667 16.028667 0 0 1 13.471947 5.956314 23.881449 23.881449 0 0 1 4.214373 15.087457h-26.691031a12.741455 12.741455 0 0 0 2.697199 7.628016 8.20398 8.20398 0 0 0 6.560375 2.626959 9.735202 9.735202 0 0 0 5.872027-1.657654 11.645718 11.645718 0 0 0 3.174828-4.354852h7.880878a16.042714 16.042714 0 0 1-4.972961 8.428747 17.770607 17.770607 0 0 1-11.870485 4.087942 16.646775 16.646775 0 0 1-12.586928-4.860578z m6.349656-24.176455a11.828341 11.828341 0 0 0-2.907918 6.433943h18.374668a8.583274 8.583274 0 0 0-9.327813-8.653513 8.302315 8.302315 0 0 0-6.110841 2.21957z m-78.668302 26.255546a9.833538 9.833538 0 0 1-3.315307-7.754447 11.09785 11.09785 0 0 1 5.253919-10.044257 21.310681 21.310681 0 0 1 11.673814-2.809582h7.79659v-0.87097q0-7.023956-7.670159-7.023956a10.016161 10.016161 0 0 0-5.520829 1.320504 5.900123 5.900123 0 0 0-2.697199 4.425092h-7.810638a12.502641 12.502641 0 0 1 5.450589-9.48234 19.948034 19.948034 0 0 1 11.111898-2.62696 15.452702 15.452702 0 0 1 11.673814 3.947463 13.724809 13.724809 0 0 1 3.315307 9.974017v22.855952h-7.33301v-4.706051a13.823144 13.823144 0 0 1-5.169631 4.214374 20.313279 20.313279 0 0 1-8.021357 1.517174 12.825743 12.825743 0 0 1-8.765897-2.879822z m14.146246-14.609828q-9.384005 0-9.384004 6.644662a4.354852 4.354852 0 0 0 1.404791 3.259115 6.433943 6.433943 0 0 0 4.354852 1.320504 11.70191 11.70191 0 0 0 7.93707-2.626959 9.369957 9.369957 0 0 0 2.907918-7.150387v-1.404791z m-130.097704 12.530737a19.23159 19.23159 0 0 1-4.97296-14.047911 19.456357 19.456357 0 0 1 4.692002-13.359564 15.452702 15.452702 0 0 1 12.558832-5.478685 16.042714 16.042714 0 0 1 13.471947 5.956314 23.881449 23.881449 0 0 1 4.214373 15.087457h-26.691031a12.783599 12.783599 0 0 0 2.697199 7.628016 8.218028 8.218028 0 0 0 6.560375 2.626959 9.74925 9.74925 0 0 0 5.872027-1.657654 11.715958 11.715958 0 0 0 3.174828-4.354852h7.86683a16.084858 16.084858 0 0 1-4.972961 8.428747 17.784655 17.784655 0 0 1-11.870485 4.087942 16.646775 16.646775 0 0 1-12.615024-4.860578z m6.363704-24.176455a11.828341 11.828341 0 0 0-2.907918 6.433943h18.374668a8.583274 8.583274 0 0 0-9.327813-8.653513 8.302315 8.302315 0 0 0-6.152985 2.21957z m-201.166087 23.755018a18.782057 18.782057 0 0 1-4.832481-13.443851 18.978728 18.978728 0 0 1 4.902721-13.570282 18.655626 18.655626 0 0 1 26.101019 0 21.18425 21.18425 0 0 1 0 27.014133 18.641578 18.641578 0 0 1-26.241498 0z m5.52083-22.027125a17.208691 17.208691 0 0 0 0 17.110356 9.384005 9.384005 0 0 0 15.199839 0 15.073409 15.073409 0 0 0 2.346001-8.513034 14.750307 14.750307 0 0 0-2.346001-8.583274 9.384005 9.384005 0 0 0-15.199839 0zM865.351321 261.164715a18.782057 18.782057 0 0 1-4.832481-13.443851 18.978728 18.978728 0 0 1 4.902721-13.570282 18.655626 18.655626 0 0 1 26.101019 0 21.170202 21.170202 0 0 1 0 27.014133 18.641578 18.641578 0 0 1-26.241498 0z m5.619165-22.013077a17.208691 17.208691 0 0 0 0 17.110356 9.384005 9.384005 0 0 0 15.199839 0 15.073409 15.073409 0 0 0 2.346002-8.527082 14.750307 14.750307 0 0 0-2.346002-8.583274 9.369957 9.369957 0 0 0-15.199839 0z m-108.000341 24.583844a9.833538 9.833538 0 0 1-3.315307-7.754447 11.083802 11.083802 0 0 1 5.239871-10.044256 21.324729 21.324729 0 0 1 11.673814-2.809582h7.810639v-0.94121q0-7.023956-7.67016-7.023956a10.030208 10.030208 0 0 0-5.520829 1.320504 5.942266 5.942266 0 0 0-2.697199 4.425092h-7.79659a12.460497 12.460497 0 0 1 5.450589-9.48234 19.919938 19.919938 0 0 1 11.111898-2.62696 15.452702 15.452702 0 0 1 11.673814 3.947463 13.738857 13.738857 0 0 1 3.315307 9.974017v22.855952h-7.318962v-4.706051a13.766953 13.766953 0 0 1-5.169631 4.214374 20.285184 20.285184 0 0 1-8.021357 1.517174 12.825743 12.825743 0 0 1-8.779944-2.879822z m14.160295-14.609827q-9.398052 0-9.398053 6.644662a4.354852 4.354852 0 0 0 1.404791 3.259115 6.462039 6.462039 0 0 0 4.354853 1.320504 11.715958 11.715958 0 0 0 7.93707-2.62696 9.369957 9.369957 0 0 0 2.907917-7.206578v-1.404791z m-220.271246 12.530736a19.217542 19.217542 0 0 1-4.97296-14.047911 19.484453 19.484453 0 0 1 4.692002-13.359563 15.452702 15.452702 0 0 1 12.572881-5.478685 16.028667 16.028667 0 0 1 13.457898 5.956314 23.881449 23.881449 0 0 1 4.214374 15.087456h-26.691031a12.825743 12.825743 0 0 0 2.697199 7.628016 8.232076 8.232076 0 0 0 6.560374 2.626959 9.735202 9.735202 0 0 0 5.872027-1.657653 11.645718 11.645718 0 0 0 3.174828-4.354852h7.880878a16.098906 16.098906 0 0 1-4.972961 8.428746 17.770607 17.770607 0 0 1-11.870484 4.087942 16.646775 16.646775 0 0 1-12.64312-4.930817z m6.32156-24.246694a11.828341 11.828341 0 0 0-2.907917 6.433943h18.374667a8.583274 8.583274 0 0 0-9.327813-8.653513 8.302315 8.302315 0 0 0-6.138937 2.21957z m-165.175338 24.232646a19.245638 19.245638 0 0 1-4.97296-14.047911 19.484453 19.484453 0 0 1 4.692002-13.359563 15.452702 15.452702 0 0 1 12.57288-5.478685 16.014619 16.014619 0 0 1 13.457899 5.956314 23.881449 23.881449 0 0 1 4.214373 15.087456h-26.691031a12.741455 12.741455 0 0 0 2.697199 7.628016 8.218028 8.218028 0 0 0 6.560375 2.62696 9.721154 9.721154 0 0 0 5.872027-1.657654 11.659766 11.659766 0 0 0 3.174828-4.354852h7.86683a16.084858 16.084858 0 0 1-4.972961 8.428746 17.784655 17.784655 0 0 1-11.884533 4.087942 16.646775 16.646775 0 0 1-12.586928-4.916769z m6.349656-24.176454a11.870485 11.870485 0 0 0-2.89387 6.433943h18.36062a8.583274 8.583274 0 0 0-9.327813-8.653513 8.302315 8.302315 0 0 0-6.124889 2.163378z m-134.508748 24.176454a19.245638 19.245638 0 0 1-4.972961-14.047911 19.484453 19.484453 0 0 1 4.692002-13.359563 15.452702 15.452702 0 0 1 12.572881-5.478685 16.014619 16.014619 0 0 1 13.457899 5.956314 23.881449 23.881449 0 0 1 4.284612 15.087456h-26.691031a12.741455 12.741455 0 0 0 2.697199 7.628016 8.20398 8.20398 0 0 0 6.560375 2.62696 9.721154 9.721154 0 0 0 5.872027-1.657654 11.589527 11.589527 0 0 0 3.174827-4.354852h7.880879a16.084858 16.084858 0 0 1-4.972961 8.428746 17.784655 17.784655 0 0 1-11.884533 4.087942 16.646775 16.646775 0 0 1-12.671215-4.916769z m6.349655-24.176454a11.870485 11.870485 0 0 0-2.907917 6.433943h18.374667a8.583274 8.583274 0 0 0-9.327813-8.653513 8.302315 8.302315 0 0 0-6.124889 2.163378z m-97.703221 26.255545a9.833538 9.833538 0 0 1-3.315307-7.754447 11.083802 11.083802 0 0 1 5.239871-10.044256 21.324729 21.324729 0 0 1 11.673814-2.809582h7.79659v-0.927162q0-7.023956-7.656111-7.023956a10.030208 10.030208 0 0 0-5.520829 1.320504 5.942266 5.942266 0 0 0-2.697199 4.425092h-7.810639a12.488593 12.488593 0 0 1 5.464638-9.48234 19.919938 19.919938 0 0 1 11.111897-2.62696 15.452702 15.452702 0 0 1 11.673815 3.947463 13.738857 13.738857 0 0 1 3.315307 9.974017v22.855952h-7.318962v-4.706051a13.823144 13.823144 0 0 1-5.183679 4.214374 20.285184 20.285184 0 0 1-8.021357 1.517174 12.825743 12.825743 0 0 1-8.751849-2.879822z m14.146246-14.609827q-9.384005 0-9.384004 6.644662a4.354852 4.354852 0 0 0 1.404791 3.259115 6.447991 6.447991 0 0 0 4.354852 1.320504 11.715958 11.715958 0 0 0 7.93707-2.62696 9.369957 9.369957 0 0 0 2.89387-7.206578v-1.404791z m-59.71767 2.964109v-22.279987h7.866831v21.816406a9.4121 9.4121 0 0 0 1.798132 6.377752 7.768495 7.768495 0 0 0 5.942267 2.008851 7.347057 7.347057 0 0 0 4.97296-2.205522 13.261228 13.261228 0 0 0 3.455786-6.096794v-21.900693h7.86683v35.808125h-7.86683v-4.63581a13.92148 13.92148 0 0 1-11.238329 5.619164q-12.797647-0.028096-12.797647-14.497444z m607.79692 13.528138v-50.432h7.866831v50.432z m-520.545344 0v-50.432h7.86683v50.432z m1809.033795 0v-22.097364a8.87828 8.87828 0 0 0-1.798133-6.167033 7.908974 7.908974 0 0 0-5.928218-1.938611 6.152985 6.152985 0 0 0-4.832482 2.205522 8.428747 8.428747 0 0 0-2.008851 6.096793v21.886645h-7.86683v-22.013076q0-8.175884-7.023956-8.175884a6.504183 6.504183 0 0 0-5.464637 2.626959 9.229478 9.229478 0 0 0-2.065043 6.096793v21.465208h-7.880878v-35.794077h7.880878v3.666505a13.176941 13.176941 0 0 1 9.664963-4.635811 11.982868 11.982868 0 0 1 11.238328 5.815835 14.300773 14.300773 0 0 1 5.18368-4.565571 13.064557 13.064557 0 0 1 5.998458-1.250264 12.404305 12.404305 0 0 1 9.187333 3.666505 13.471947 13.471947 0 0 1 3.596266 9.622819v23.474059z m-103.715728 0a8.709705 8.709705 0 0 1-6.841332-2.48648 9.496388 9.496388 0 0 1-2.065043-6.58847v-20.228992h-6.419896v-6.504183h6.419896v-8.316363l7.86683-3.259116v11.561431h7.951117v6.504183h-7.951117v20.228992a2.809582 2.809582 0 0 0 0.561916 1.938612 2.416241 2.416241 0 0 0 1.798133 0.632156h4.692002v6.504182z m-271.925414 0v-35.808125h7.810638v5.127488a11.449048 11.449048 0 0 1 3.385547-4.214374 8.583274 8.583274 0 0 1 5.619164-1.938611 9.974017 9.974017 0 0 1 4.481284 0.899066v7.894926a17.41941 17.41941 0 0 0-5.11344-0.758587 7.684207 7.684207 0 0 0-5.619164 2.41624 9.833538 9.833538 0 0 0-2.809582 7.347058v18.978728z m-62.218198 0v-21.409016q0-8.793992-8.077549-8.793992a7.220626 7.220626 0 0 0-5.11344 2.07909 9.833538 9.833538 0 0 0-2.907917 6.574423v21.535447h-7.880878v-35.794077h7.880878v4.214373a14.25863 14.25863 0 0 1 4.692002-3.806983 12.91003 12.91003 0 0 1 5.872027-1.320504q13.401707 0 13.387659 14.680067v22.097364z m-196.867426 0a8.709705 8.709705 0 0 1-6.841332-2.48648 9.496388 9.496388 0 0 1-2.079091-6.58847v-20.228992h-6.419896v-6.504183h6.419896v-8.316363l7.880878-3.259116v11.561431h7.93707v6.504183h-7.93707v20.228992a2.809582 2.809582 0 0 0 0.561916 1.938612 2.402193 2.402193 0 0 0 1.784085 0.632156h4.692002v6.504182z m-84.456041 0v-35.808125h7.810638v5.127488a11.505239 11.505239 0 0 1 3.385547-4.214374 8.569226 8.569226 0 0 1 5.619164-1.938611 9.974017 9.974017 0 0 1 4.495332 0.899066v7.894926a17.41941 17.41941 0 0 0-5.11344-0.758587 7.684207 7.684207 0 0 0-5.619164 2.41624 9.833538 9.833538 0 0 0-2.809582 7.347058v18.978728z m-103.856207 0a8.695657 8.695657 0 0 1-6.827284-2.48648 9.496388 9.496388 0 0 1-2.079091-6.58847v-20.228992h-6.419896v-6.504183h6.419896v-8.316363l7.86683-3.259116v11.561431h7.951118v6.504183h-7.951118v20.228992a2.809582 2.809582 0 0 0 0.561916 1.938612 2.416241 2.416241 0 0 0 1.798133 0.632156h4.692002v6.504182z m-31.832566 0v-21.409016q0-8.793992-8.077549-8.793992a7.220626 7.220626 0 0 0-5.113439 2.07909 9.833538 9.833538 0 0 0-2.907918 6.574423v21.535447h-7.880878v-35.794077h7.880878v4.214373a14.25863 14.25863 0 0 1 4.692002-3.806983 12.91003 12.91003 0 0 1 5.872027-1.320504q13.401707 0 13.387659 14.680067v22.097364z m-44.953315 0v-35.808125h7.880878v35.808125z m-53.241583 0v-29.360134h-7.93707v-6.433943h7.86683v-3.806984a9.833538 9.833538 0 0 1 2.55672-7.206578 9.468292 9.468292 0 0 1 7.318962-2.62696h7.599919v6.644662h-6.490134a3.146732 3.146732 0 0 0-2.346002 0.828827 3.554121 3.554121 0 0 0-0.758587 2.570768v3.596265h9.117095v6.433943h-9.117095v29.360134z m-95.076262 0v-22.097364a8.850184 8.850184 0 0 0-1.798133-6.167033 7.923022 7.923022 0 0 0-5.942266-1.938611 6.167033 6.167033 0 0 0-4.832482 2.205522 8.428747 8.428747 0 0 0-2.008851 6.096793v21.886645h-7.86683v-22.013076q0-8.175884-7.023956-8.175884a6.504183 6.504183 0 0 0-5.450589 2.626959 9.229478 9.229478 0 0 0-2.079091 6.096793v21.465208h-7.86683v-35.794077h7.86683v3.666505a13.190988 13.190988 0 0 1 9.664963-4.635811 11.996916 11.996916 0 0 1 11.238329 5.815835 14.230534 14.230534 0 0 1 5.169631-4.565571 13.064557 13.064557 0 0 1 6.012506-1.250264 12.432401 12.432401 0 0 1 9.187334 3.666505 13.500043 13.500043 0 0 1 3.596265 9.622819v23.474059z m-74.158923 0v-35.808125h7.810639v5.127488a11.575479 11.575479 0 0 1 3.385546-4.214374 8.583274 8.583274 0 0 1 5.619165-1.938611 9.974017 9.974017 0 0 1 4.481283 0.899066v7.894926a17.405362 17.405362 0 0 0-5.113439-0.758587 7.684207 7.684207 0 0 0-5.619165 2.41624 9.833538 9.833538 0 0 0-2.809582 7.347058v18.978728z m-70.239555 0v-29.360134h-7.93707v-6.433943h7.93707v-3.806984a9.833538 9.833538 0 0 1 2.55672-7.206578 9.468292 9.468292 0 0 1 7.318961-2.62696h7.59992v6.644662h-6.490135a3.146732 3.146732 0 0 0-2.346001 0.828827 3.526026 3.526026 0 0 0-0.758587 2.570768v3.596265h9.117094v6.433943h-9.117094v29.360134z m-20.369471 0a8.709705 8.709705 0 0 1-6.841333-2.48648 9.510436 9.510436 0 0 1-2.079091-6.58847v-20.228992h-6.419895v-6.504183h6.419895v-8.316363l7.880878-3.259116v11.561431h7.93707v6.504183h-7.93707v20.228992a2.809582 2.809582 0 0 0 0.561917 1.938612 2.402193 2.402193 0 0 0 1.784085 0.632156h4.692002v6.504182z m-163.854835 0a8.695657 8.695657 0 0 1-6.841332-2.48648 9.510436 9.510436 0 0 1-2.079091-6.58847v-20.228992h-6.419896v-6.504183h6.293465v-8.316363l7.880878-3.259116v11.561431h7.937069v6.504183h-7.937069v20.228992a2.809582 2.809582 0 0 0 0.547868 1.938612 2.416241 2.416241 0 0 0 1.798133 0.632156h4.692002v6.504182z m-31.832566 0v-21.409016q0-8.793992-8.077549-8.793992a7.220626 7.220626 0 0 0-5.11344 2.07909 9.833538 9.833538 0 0 0-2.907917 6.574423v21.535447h-7.880878v-35.794077h7.880878v4.214373a14.272678 14.272678 0 0 1 4.692002-3.806983 12.867887 12.867887 0 0 1 5.872027-1.320504q13.401707 0 13.401707 14.680067v22.097364z m-86.169887 0v-22.097364a8.850184 8.850184 0 0 0-1.798132-6.167033 7.894926 7.894926 0 0 0-5.928219-1.938611 6.167033 6.167033 0 0 0-4.832481 2.205522 8.428747 8.428747 0 0 0-2.008851 6.096793v21.886645h-7.866831v-22.013076q0-8.175884-7.023955-8.175884a6.490135 6.490135 0 0 0-5.45059 2.626959 9.201382 9.201382 0 0 0-2.07909 6.096793v21.465208h-8.021358v-35.794077h7.86683v3.666505a13.190988 13.190988 0 0 1 9.664963-4.635811 11.982868 11.982868 0 0 1 11.238329 5.815835 14.202438 14.202438 0 0 1 5.183679-4.565571 13.022414 13.022414 0 0 1 5.998458-1.250264 12.418353 12.418353 0 0 1 9.187334 3.666505 13.500043 13.500043 0 0 1 3.596265 9.622819v23.474059z m-65.954942 0v-35.808125h7.740399v35.808125z m-30.652542 0v-35.808125h7.810639v5.127488a11.519287 11.519287 0 0 1 3.385546-4.214374 8.583274 8.583274 0 0 1 5.619165-1.938611 9.974017 9.974017 0 0 1 4.481283 0.899066v7.894926a17.461553 17.461553 0 0 0-5.113439-0.758587 7.684207 7.684207 0 0 0-5.619165 2.41624 9.833538 9.833538 0 0 0-2.809582 7.347058v18.978728z m-104.825512 0l-8.906376-13.233132-8.976615 13.233132h-9.257574l13.879337-19.048967-12.291923-16.759158h9.187334l7.445393 10.943323 7.389201-10.943323h9.187334l-12.291922 16.759158 13.879336 19.048967z m-216.197352 0a8.681609 8.681609 0 0 1-6.827284-2.48648 9.468292 9.468292 0 0 1-2.079091-6.58847v-20.228992h-6.532279v-6.504183h6.419896v-8.316363l7.86683-3.259116v11.561431H123.621617v6.504183h-7.965165v20.228992a2.809582 2.809582 0 0 0 0.561916 1.938612 2.416241 2.416241 0 0 0 1.798133 0.632156h4.692002v6.504182z m-41.497529 0v-35.808125h7.796591v5.127488a11.589527 11.589527 0 0 1 3.385546-4.214374 8.569226 8.569226 0 0 1 5.619165-1.938611 10.002113 10.002113 0 0 1 4.495331 0.899066v7.894926a17.461553 17.461553 0 0 0-5.113439-0.758587 7.684207 7.684207 0 0 0-5.619165 2.41624 9.833538 9.833538 0 0 0-2.809582 7.347058v18.978728z m-21.071866 0v-35.808125h7.86683v35.808125z m-36.594809 0L0 216.155207h8.765897l13.528138 40.303457H22.476658l13.528138-40.303457h8.80804l-17.545841 49.448647zM1129.452049 224.176565a5.183679 5.183679 0 0 1-1.517174-3.806984 4.958913 4.958913 0 0 1 1.517174-3.736745 5.436542 5.436542 0 0 1 3.792936-1.404791 5.352254 5.352254 0 0 1 3.863176 1.404791 5.099392 5.099392 0 0 1 1.517174 3.736745 4.930817 4.930817 0 0 1-1.587414 3.806984 5.282015 5.282015 0 0 1-3.792936 1.404791 5.436542 5.436542 0 0 1-3.792936-1.404791z m-660.968263 0a5.183679 5.183679 0 0 1-1.517174-3.806984 4.958913 4.958913 0 0 1 1.517174-3.736745 5.436542 5.436542 0 0 1 3.792936-1.404791 5.366302 5.366302 0 0 1 3.863175 1.404791 5.11344 5.11344 0 0 1 1.517175 3.736745 4.930817 4.930817 0 0 1-1.587414 3.806984 5.282015 5.282015 0 0 1-3.792936 1.404791 5.450589 5.450589 0 0 1-3.76484-1.404791z m-414.230753 0a5.169631 5.169631 0 0 1-1.517175-3.806984 4.944865 4.944865 0 0 1 1.517175-3.736745 5.787739 5.787739 0 0 1 7.656111 0 5.11344 5.11344 0 0 1 1.517174 3.736745 4.902721 4.902721 0 0 1-1.587414 3.806984 5.282015 5.282015 0 0 1-3.792936 1.404791 5.422494 5.422494 0 0 1-3.76484-1.404791z m1402.234386-104.839561a138.175253 138.175253 0 0 1-59.001227 28.095823l-8.948519-13.977672a124.4083 124.4083 0 0 0 59.64743-28.727978 5.057248 5.057248 0 0 1 0.94121-1.264312h-62.47106V88.248977h71.517915a97.183449 97.183449 0 0 0 7.206578-31.720183V36.426233h16.436056v20.088513a121.008706 121.008706 0 0 1-5.787739 31.720183h48.226479v15.241984h-55.264483l-2.655055 4.214373a358.685313 358.685313 0 0 1 57.146902 26.213402l-9.229477 14.286726a307.649252 307.649252 0 0 0-57.76501-28.85441z m-418.810373 17.278931a124.576875 124.576875 0 0 0 11.898581-55.896638V28.264397H1099.951436V1.264312h16.450104v7.023956h49.63127v13.500042h-49.603174v6.433943h62.625587v7.389202a117.805782 117.805782 0 0 1-7.361105 23.235244l-15.972475-4.509379a84.441993 84.441993 0 0 0 5.324158-11.772149h-50.727007v9.4121l40.55632-4.087942 2.191474 13.190988-42.747794 4.214374v1.727893q0 3.919367 4.860578 3.919367h32.310195a11.013562 11.013562 0 0 0 6.419895-1.404791q2.346001-1.741941 3.287211-10.044257l14.876738 4.860578q-2.036947 14.59578-7.023955 17.419409A32.942351 32.942351 0 0 1 1150.523916 84.287466h-39.418439q-16.857493 0-16.857493-13.654569v-3.736745l-22.701424 2.36005-2.022899-13.190989 24.738371-2.514576v-10.999514h-28.404876v38.154126a138.709074 138.709074 0 0 1-15.340319 67.429973z m972.115446 10.521885v-5.970362h-74.833223v5.970362h-16.604631v-67.429973h108.028436v67.429973z m-74.833223-21.675926h74.833223V95.525795h-74.833223z m-1381.836819 10.676412a175.598888 175.598888 0 0 0 14.708163-75.999199V6.433943h96.284382v14.455301H630.751207q-1.727893 6.897524-3.132685 10.985466h28.812266v58.256687h-24.583844v40.738942q0 15.551038-14.567684 15.53699h-13.148845l-3.441738-14.764354a68.539758 68.539758 0 0 0 11.238329 0.94121q4.382948 0 4.382948-5.619165V90.131397h-25.159809V31.87471h21.071867a94.233387 94.233387 0 0 0 3.132684-10.985466h-31.87471v39.249863a196.83933 196.83933 0 0 1-17.995374 86.998713zM605.464967 77.263511h36.791479v-10.367359H605.464967z m0-22.139508h36.791479v-10.676412H605.464967z m-246.273929 92.013817V55.896638H421.437332v72.866515q0 17.278931-15.972475 17.27893H393.34151l-3.919368-15.227935 10.802844 0.786683q5.324158 0 5.324158-6.279416v-7.234675H374.938746v29.05108z m15.747708-42.56517h30.680638v-10.198784H374.938746z m0-23.712874h30.680638v-10.830939H374.938746z m1416.282297 65.800415V92.955027h-61.066269V77.094936h61.066269V23.080718h-54.786853V7.023956h127.920278v16.014618h-56.528794v54.056362h62.316534v15.860091h-62.316534v53.705164z m-507.579122-12.404305a106.441022 106.441022 0 0 0 36.327898-56.683321 331.755468 331.755468 0 0 0 6.883476-73.175569h15.663421a350.270614 350.270614 0 0 1-7.206578 75.999199 103.490961 103.490961 0 0 1-3.596265 12.71336A378.324293 378.324293 0 0 1 1355.623417 135.983779l-13.148845 9.103046a364.430909 364.430909 0 0 0-17.68632-35.63955A120.699652 120.699652 0 0 1 1293.812609 146.660191zM911.484661 133.455155A50.122947 50.122947 0 0 0 929.971712 113.689744a103.420721 103.420721 0 0 0 6.110841-36.749335h15.972475a133.258484 133.258484 0 0 1-7.361105 43.969961 62.527252 62.527252 0 0 1-22.701424 25.749821z m-625.469192 13.190989V138.652882h-71.644346v8.007309h-15.888188V80.705249h103.336434v65.954942z m-71.644346-23.558347h71.644346V96.087712h-71.644346z m309.306905 16.660822a459.465027 459.465027 0 0 0 23.319533-54.477799l14.047911 5.619165a513.956874 513.956874 0 0 1-22.223795 55.587584z m219.97624 6.588471l-3.750793-16.014619a143.738226 143.738226 0 0 0 15.972475 1.095737q4.537475 0 4.537476-5.015104V93.123602q-26.761271 1.727893-47.762898 2.669104L708.099005 81.477884a58.593837 58.593837 0 0 0 14.047911-2.992205 193.959508 193.959508 0 0 0 36.018844-21.352825q-13.626474 1.095737-38.673899 2.514576l-3.287211-14.286725a40.261313 40.261313 0 0 0 10.95737-2.978157 75.18442 75.18442 0 0 0 20.355423-17.587985q-24.429317 0.632156-37.92936 0.632156L704.980369 11.238329a636.763712 636.763712 0 0 0 114.125229-8.723753l7.993261 13.65457a454.927552 454.927552 0 0 1-59.338376 7.543728 130.814148 130.814148 0 0 1-23.797161 22.294035q11.111898-0.632156 31.158267-2.205522 8.765897-7.220626 19.891842-17.41941l15.031264 7.375153a441.469653 441.469653 0 0 1-63.215599 46.948119q32.422579-2.191474 53.705164-4.860577-3.287211-4.382948-10.184736-13.190989l12.053108-7.52968a310.458834 310.458834 0 0 1 29.908002 40.036547l-12.994317 8.948519q-3.132684-5.492733-9.55258-15.227936-12.530737 1.404791-32.88616 2.978157v38.631756a13.795049 13.795049 0 0 1-15.340318 15.860091z m-660.25182-0.941211l-3.441738-15.452702a81.913369 81.913369 0 0 0 11.744053 1.095737q5.015104 0 5.015105-7.698255V87.307767H61.965336v-15.452702h81.885273v15.452702H112.383288v40.191074q0 17.897039-15.199839 17.897038z m1491.607196-1.095737l-4.453188-14.441252a105.836962 105.836962 0 0 0 11.435 1.250264q10.016161 0 12.207635-6.433943a185.221707 185.221707 0 0 0 2.191474-38.308654h-39.334151l7.361105-56.065213 14.876738 0.786683-5.942266 40.82323H1587.41395l6.574422-49.940324h-36.159323V7.220626h52.286325l-7.361105 64.690631h8.765896q0 55.742111-5.015104 64.381576a22.265939 22.265939 0 0 1-20.973531 8.639465q-3.329355 0-10.521886-0.632156z m-357.603624 0.632156l-3.441738-15.227935a97.759413 97.759413 0 0 0 11.420952 0.786683q4.860577 0 4.860577-5.970362V93.432656q-7.206578 2.669103-15.340319 5.18368l-3.750792-15.733661a177.734171 177.734171 0 0 0 19.105159-5.338206V44.279016h-17.391314V28.727978h17.377266V1.573366h15.972475v27.154612h14.567684v15.551038h-14.567684v27.014133q7.19253-3.146732 14.876738-7.389202v16.014619q-6.110841 2.992205-14.876738 6.911572v41.76444q0 16.337721-15.340319 16.33772z m-768.729789-0.477629q-16.857493 0-16.857493-15.073408V76.785882h16.127002v16.4782a209.032917 209.032917 0 0 0 38.46318-7.571825L491.676887 100.330181a275.971213 275.971213 0 0 1-43.84353 7.698255v17.911087q0 4.073894 5.324158 4.087942h18.009422a5.197727 5.197727 0 0 0 4.860577-2.360049 37.114581 37.114581 0 0 0 2.346001-15.452702l14.876738 4.860577a43.969962 43.969962 0 0 1-6.110841 23.712874 19.793507 19.793507 0 0 1-12.839791 3.610313z m535.77328-0.463581q-17.545841 0-17.545841-15.452702V75.057989h15.452702V125.307367c0 2.416241 0.842875 3.821032 2.514577 4.214373h8.316363q3.905319-0.463581 4.382948-6.433943 0.632156-8.428747 0.632156-17.264883l13.935528 5.029152a65.744224 65.744224 0 0 1-3.441738 27.632241 19.484453 19.484453 0 0 1-14.708163 5.492733z m77.81138-0.309054V128.763153H1099.951436V88.50184h15.817948v40.261313h12.376209V88.712558h15.972475v40.036547h37.59221v14.918881zM787.006121 108.969646l10.802844-10.521885A285.172595 285.172595 0 0 1 836.651439 132.050364l-11.589527 11.617622a237.676607 237.676607 0 0 0-38.055791-34.69834zM696.214472 129.704363a151.717439 151.717439 0 0 0 37.92936-30.146817l11.420952 10.212831a152.25126 152.25126 0 0 1-39.137481 33.279501z m916.836915 12.249778V126.248577h50.221282a470.689308 470.689308 0 0 0 14.399109-59.001227l15.663421 4.087942a397.752554 397.752554 0 0 1-14.609827 54.913285h21.45116V141.883902z m-1558.756211-9.271621A114.139277 114.139277 0 0 0 70.239555 96.719868l15.031265 3.146732a144.356334 144.356334 0 0 1-17.222739 41.764439z m815.706004-8.330411a230.961706 230.961706 0 0 0 50.57248-16.857494v15.60723a225.89041 225.89041 0 0 1-48.535533 17.587984zM119.884873 100.021127l14.047911-4.551523a282.222533 282.222533 0 0 1 15.972475 38.46318l-14.399109 6.447991A295.301138 295.301138 0 0 0 119.884873 100.021127zM7.164435 123.888528a235.204175 235.204175 0 0 0 48.226478-14.750307V125.026408A217.840957 217.840957 0 0 1 9.355909 140.2122z m571.300447 6.58847a93.348369 93.348369 0 0 0 14.567683-31.397081l14.399109 3.146732a121.135137 121.135137 0 0 1-15.817948 36.524569z m59.661478-27.632241l13.457899-4.70605a243.028861 243.028861 0 0 1 15.185792 34.389286l-13.781001 6.124889a273.849978 273.849978 0 0 0-14.86269-35.808125z m430.076797-7.838735l13.935528-5.619164a193.046394 193.046394 0 0 1 14.399109 31.256602l-14.244582 5.970362a230.821227 230.821227 0 0 0-14.090055-31.6078z m79.061643 24.330982a164.360559 164.360559 0 0 0 16.281529-29.99229l13.457899 6.433944A164.950572 164.950572 0 0 1 1160.58222 126.4312z m112.734487-9.763298a10.269023 10.269023 0 0 0 7.361105-9.271621V10.830939h15.340319v91.072608q9.229478-3.919367 17.68632-8.428747l4.214373 14.441253a280.059155 280.059155 0 0 1-39.446534 16.323672z m293.868251-5.183679a231.621958 231.621958 0 0 0 36.636952-8.428747v14.581732a205.31022 205.31022 0 0 1-34.600005 9.271621z m63.412271-27.786768l13.935527-4.874625a363.573986 363.573986 0 0 1 12.64312 44.279016l-13.935527 3.301259a334.424571 334.424571 0 0 0-12.64312-42.677554z m24.120263-5.183679l13.935528-4.551523a383.156774 383.156774 0 0 1 10.170687 42.551122l-13.935528 3.301259a367.605737 367.605737 0 0 0-10.184735-41.272762z m-773.758941 22.954286a22.223795 22.223795 0 0 0 7.361105-4.70605 148.289749 148.289749 0 0 0 16.857493-24.963138q-6.897524 0.94121-21.282585 3.132685l-4.073894-15.073409a17.250835 17.250835 0 0 0 7.023955-6.279416A289.246489 289.246489 0 0 0 892.379502 0.786683l15.663421 6.124889a260.883756 260.883756 0 0 1-22.083316 44.58807q7.023956-0.786683 14.047911-1.88242l8.302315-16.337721 14.567684 5.619165a455.854714 455.854714 0 0 1-30.540159 51.345115A189.379889 189.379889 0 0 0 920.559612 80.073093v15.087457a211.29463 211.29463 0 0 1-48.535533 14.286725zM7.318962 94.528394a25.047425 25.047425 0 0 0 7.19253-4.396997 166.228932 166.228932 0 0 0 15.19984-25.749821q-6.574422 0.94121-20.355423 3.455787l-3.919367-13.977672a15.452702 15.452702 0 0 0 6.419895-5.619164A375.079225 375.079225 0 0 0 27.674385 0.786683L42.70565 6.602518a298.672637 298.672637 0 0 1-19.877795 46.161436q5.001056-0.632156 13.457899-2.514576 2.205522-4.70605 7.67016-17.278931l15.185792 5.619165A380.487671 380.487671 0 0 1 29.500613 91.704763 184.744078 184.744078 0 0 0 55.854494 82.882675v14.623876a212.263936 212.263936 0 0 1-44.461638 11.617622z m1397.345713-25.131713l8.13374-11.926677a175.598888 175.598888 0 0 1 31.326842 15.705565l-8.428747 12.881934a143.415124 143.415124 0 0 0-31.031835-16.660822z m612.629401-10.198784q-48.844587 4.396996-108.815119 6.58847l-2.978157-15.536989q16.604631-2.669103 48.535533-49.462695l16.857493 5.970362a302.943202 302.943202 0 0 1-37.269108 43.028752q38.041743-1.88242 74.215114-5.183679-6.897524-10.198783-14.399109-19.667076l14.876738-7.023955a474.819394 474.819394 0 0 1 35.541215 51.977271l-15.972475 7.852782q-4.158182-7.86683-10.606173-18.543243z m-1029.416874 6.757045q-30.048482 4.396996-62.934642 6.911573L921.542965 58.411214a24.204551 24.204551 0 0 0 3.132685-1.264312 87.420151 87.420151 0 0 0 17.180595-25.117665h-23.33358V16.492248h37.578162a115.33335 115.33335 0 0 0-5.78774-13.345516l16.590583-2.809582q2.669103 6.433943 5.619165 16.169145h33.967849V32.029237h-47.566227a207.347167 207.347167 0 0 1-15.031265 24.808611q16.759158-1.559318 35.232161-4.551523l-8.428747-11.77215 12.516689-7.852782a276.617417 276.617417 0 0 1 23.460011 34.866915l-12.643119 8.94852q-3.483882-6.237273-6.138938-10.521886z m-465.618013-13.190988l10.957371-10.521885a190.18062 190.18062 0 0 1 25.988636 22.92619l-10.957371 11.154042a150.930756 150.930756 0 0 0-25.988636-23.558347z m1221.98564-16.028667l15.185792-7.375153a366.650479 366.650479 0 0 1 16.225337 35.021442l-15.340319 7.529681a286.900488 286.900488 0 0 0-16.056762-35.161922zM448.830758 71.644346q-17.068212 0-17.068212-19.147302V2.205522h16.127002v17.897039q24.27479-3.919367 38.519372-7.698256L491.676887 26.859606q-19.414213 4.214373-43.84353 8.007309v14.118151q0 7.852782 5.478685 7.852782h17.854895a5.422494 5.422494 0 0 0 4.860577-2.346001 40.907517 40.907517 0 0 0 2.191474-15.227936l15.185792 5.029153a45.360705 45.360705 0 0 1-6.110841 23.712873 20.032321 20.032321 0 0 1-12.994318 3.610314z m1376.358134-8.161836a194.324754 194.324754 0 0 0 17.068212-34.69834l14.876738 7.023955a188.930356 188.930356 0 0 1-17.222739 35.119778z m-1649.224758-10.198783A226.747332 226.747332 0 0 0 244.194838 1.095737h11.898581a218.725975 218.725975 0 0 0 67.795218 51.977271l-8.920423 15.860092a208.358617 208.358617 0 0 1-23.319533-14.441253v10.830939h-82.995058v-10.985466q-11.898581 8.161836-23.881449 14.918882z m39.460582-3.778888h69.326441a218.402873 218.402873 0 0 1-34.600005-33.49022 192.231615 192.231615 0 0 1-34.754532 33.448076z m1071.855614-24.499557l13.781001-4.706051a303.308448 303.308448 0 0 1 17.335122 39.839876l-13.626474 6.279416a271.813031 271.813031 0 0 0-17.531793-41.455385z m390.152634 26.22745v9.103046h-44.953316v-8.428747a141.026979 141.026979 0 0 1-15.340319 13.823145l-8.611369-13.190989a127.344314 127.344314 0 0 0 39.615109-50.881533h14.399109a120.025352 120.025352 0 0 0 39.755588 50.319617l-8.920423 13.654569a140.95674 140.95674 0 0 1-15.972475-14.441252z m-39.460582-5.619165h34.600005a119.758442 119.758442 0 0 1-17.222739-27.955343 160.385001 160.385001 0 0 1-17.363219 27.885104z m-224.050134 0l7.824687-11.463095A149.624301 149.624301 0 0 1 1452.413524 49.167689l-8.288267 12.881934a127.274074 127.274074 0 0 0-30.217057-16.506295z m-1340.058332 13.58433v-9.833538h-13.626473v-32.310195h32.886159a148.331893 148.331893 0 0 0-6.419895-13.752905l16.74511-2.809582q3.441738 8.428747 5.942266 16.4782h36.173371v32.310195h-13.626473v9.833538z m1.88242-14.918881h54.168745v-12.404306H75.746336z m337.149866 0.154527a575.444581 575.444581 0 0 1-58.088112 5.801787L350.354902 36.524569a21.493304 21.493304 0 0 0 7.361105-4.087942A144.11752 144.11752 0 0 0 378.689538 1.264312l15.663421 4.70605a111.287551 111.287551 0 0 1-21.296633 29.837763q12.207635-0.786683 32.88616-2.978157-1.264312-2.050995-8.147789-12.404305l12.516689-8.00731a317.14564 317.14564 0 0 1 20.959484 32.169717l-13.471947 9.580675z m976.65292 6.911572v-35.119778h58.551694Q1445.052419 8.428747 1442.242837 2.809582L1459.577959 0a157.982808 157.982808 0 0 1 4.692002 16.169146h57.596436v34.557861h-16.590583V31.411129h-99.26254v19.948034zM525.08282 14.286726l10.95737-10.521886a232.506976 232.506976 0 0 1 28.025583 23.881449l-11.111898 10.985466a170.513544 170.513544 0 0 0-27.871055-24.345029z" fill="#FFFFFF" p-id="11991"></path></svg>