<?xml version="1.0" standalone="no"?><!DOCTYPE svg PUBLIC "-//W3C//DTD SVG 1.1//EN" "http://www.w3.org/Graphics/SVG/1.1/DTD/svg11.dtd"><svg class="icon" width="200px" height="200.00px" viewBox="0 0 1024 1024" version="1.1" xmlns="http://www.w3.org/2000/svg"><path fill="#ffffff" d="M819.2 563.2a51.2 51.2 0 0 0-51.2-51.2H256l-5.9904 0.3584A51.2 51.2 0 0 0 256 614.4h512l5.9904-0.3584A51.2 51.2 0 0 0 819.2 563.2zM563.4048 768a51.2 51.2 0 0 0-51.2-51.2H256l-5.9904 0.3584A51.2 51.2 0 0 0 256 819.2h256.2048l5.9904-0.3584a51.2 51.2 0 0 0 45.2096-50.8416zM128 0A128 128 0 0 0 0 128v768A128 128 0 0 0 128 1024h768a128 128 0 0 0 128-128V235.6736a51.2 51.2 0 0 0-16.2816-37.376L810.24 13.824A51.0464 51.0464 0 0 0 775.168 0H128z m435.3536 102.4h191.6928L921.6 257.9456V896a25.6 25.6 0 0 1-25.6 25.6h-768a25.6 25.6 0 0 1-25.6-25.6v-768a25.6 25.6 0 0 1 25.6-25.6H204.8v137.8304C204.8 283.8016 242.7904 307.2 281.6 307.2h204.8c38.8096 0 76.8-23.3984 76.8-66.9696L563.3536 102.4zM307.2 102.4v102.4h153.6512l0.1024-102.4H307.2z" /></svg>