<?xml version="1.0" standalone="no"?><!DOCTYPE svg PUBLIC "-//W3C//DTD SVG 1.1//EN" "http://www.w3.org/Graphics/SVG/1.1/DTD/svg11.dtd"><svg class="icon" width="200px" height="170.10px" viewBox="0 0 1204 1024" version="1.1" xmlns="http://www.w3.org/2000/svg"><path fill="#ffffff" d="M0 60.235294a60.235294 60.235294 0 0 1 60.235294-60.235294h301.176471a60.235294 60.235294 0 0 1 60.235294 60.235294v301.176471a60.235294 60.235294 0 0 1-60.235294 60.235294H60.235294a60.235294 60.235294 0 0 1-60.235294-60.235294V60.235294z m120.470588 60.235294v180.705883h180.705883V120.470588H120.470588z m421.647059-60.235294a60.235294 60.235294 0 0 1 60.235294-60.235294h542.117647a60.235294 60.235294 0 0 1 0 120.470588h-542.117647a60.235294 60.235294 0 0 1-60.235294-60.235294z m0 301.176471a60.235294 60.235294 0 0 1 60.235294-60.235294h542.117647a60.235294 60.235294 0 0 1 0 120.470588h-542.117647a60.235294 60.235294 0 0 1-60.235294-60.235294zM0 632.470588a60.235294 60.235294 0 0 1 60.235294-60.235294h301.176471a60.235294 60.235294 0 0 1 60.235294 60.235294v301.176471a60.235294 60.235294 0 0 1-60.235294 60.235294H60.235294a60.235294 60.235294 0 0 1-60.235294-60.235294v-301.176471z m120.470588 60.235294v180.705883h180.705883v-180.705883H120.470588z m421.647059-60.235294a60.235294 60.235294 0 0 1 60.235294-60.235294h542.117647a60.235294 60.235294 0 0 1 0 120.470588h-542.117647a60.235294 60.235294 0 0 1-60.235294-60.235294z m0 301.176471a60.235294 60.235294 0 0 1 60.235294-60.235294h542.117647a60.235294 60.235294 0 0 1 0 120.470588h-542.117647a60.235294 60.235294 0 0 1-60.235294-60.235294z" /></svg>