<?xml version="1.0" standalone="no"?><!DOCTYPE svg PUBLIC "-//W3C//DTD SVG 1.1//EN" "http://www.w3.org/Graphics/SVG/1.1/DTD/svg11.dtd"><svg class="icon" width="200px" height="200.00px" viewBox="0 0 1024 1024" version="1.1" xmlns="http://www.w3.org/2000/svg"><path fill="#ffffff" d="M126.488381 189.001143a487.619048 487.619048 0 0 1 777.606095 8.777143 48.810667 48.810667 0 0 1-46.275047 77.872762 48.761905 48.761905 0 0 1-32.085334-19.894858 390.095238 390.095238 0 0 0-623.37219-5.363809 38.13181 38.13181 0 0 1-3.169524 3.705905l-13.312 14.140952H292.571429a48.761905 48.761905 0 0 1 0 97.52381H73.142857a48.761905 48.761905 0 0 1-48.761905-48.761905v-219.428572a48.761905 48.761905 0 0 1 97.52381 0v96.353524l4.583619-4.87619zM170.666667 487.66781a48.761905 48.761905 0 0 1 48.761904-48.761905h731.428572a48.761905 48.761905 0 0 1 48.761905 48.761905v438.857142a48.761905 48.761905 0 0 1-48.761905 48.761905H219.428571a48.761905 48.761905 0 0 1-48.761904-48.761905v-438.857142z m97.523809 48.761904v341.333334h633.904762v-341.333334H268.190476z" /></svg>