<?xml version="1.0" standalone="no"?><!DOCTYPE svg PUBLIC "-//W3C//DTD SVG 1.1//EN" "http://www.w3.org/Graphics/SVG/1.1/DTD/svg11.dtd"><svg t="1591940868336" class="icon" viewBox="0 0 1225 1024" version="1.1" xmlns="http://www.w3.org/2000/svg" p-id="4656" xmlns:xlink="http://www.w3.org/1999/xlink" width="239.2578125" height="200"><defs><style type="text/css"></style></defs><path d="M1079.629984 205.473684V0H823.629984v205.473684h-83.189793V0H484.440191v205.473684h-83.189792V0H145.250399v205.473684H0v613.052632h145.250399v205.473684h256V818.526316h83.189792v205.473684h256V818.526316h83.189793v205.473684h256V818.526316H1224.880383V205.473684zM887.629984 56.956938H1015.629984v148.516746H887.629984z m-339.189793 0h128v148.516746H548.440191z m-339.189792 0h128v148.516746H209.250399z m128 909.984051H209.250399V818.424242h128z m339.189792 0H548.440191V818.424242h128z m339.189793 0H887.629984V818.424242H1015.629984zM1151.795853 745.135566H72.982456V277.945774h1078.813397z" fill="#4E4E4E" p-id="4657"></path></svg>