<svg width="20" height="20" viewBox="0 0 20 20" fill="none" xmlns="http://www.w3.org/2000/svg">
<path d="M9.99992 2C6.13725 2 3 4.83851 3 8.35037C3 9.69226 3.46186 10.9389 4.2457 11.9653C4.28477 12.0247 4.31727 12.0824 4.36452 12.1339L9.1331 17.5781C9.37058 17.8627 9.68612 18 10.0016 18C10.3171 18 10.6293 17.8642 10.8684 17.5781L15.6355 12.1325C15.6793 12.0792 15.7151 12.0229 15.7492 11.9699C16.5364 10.942 17 9.6969 17 8.35028C16.9967 4.83851 13.8643 2.00002 9.99992 2.00002V2ZM9.99992 10.8907C8.45316 10.8907 7.19931 9.75174 7.19931 8.35045C7.19931 6.94756 8.45324 5.81039 9.99992 5.81039C11.5448 5.81039 12.8004 6.94924 12.8004 8.35045C12.799 9.75166 11.5448 10.8907 9.99992 10.8907Z" fill="#828282"/>
</svg>
