<?xml version="1.0" standalone="no"?><!DOCTYPE svg PUBLIC "-//W3C//DTD SVG 1.1//EN" "http://www.w3.org/Graphics/SVG/1.1/DTD/svg11.dtd"><svg t="1591773163267" class="icon" viewBox="0 0 1024 1024" version="1.1" xmlns="http://www.w3.org/2000/svg" p-id="8209" xmlns:xlink="http://www.w3.org/1999/xlink" width="200" height="200"><defs><style type="text/css"></style></defs><path d="M421.504 800H256a32 32 0 0 1-28.576-46.432l53.44-105.888v-160.576a231.424 231.424 0 0 1 135.84-210.528 96 96 0 0 1 190.656 0 231.456 231.456 0 0 1 135.776 210.528v160.576l53.44 105.888A32 32 0 0 1 768 800h-165.44a96 96 0 0 1-181.088 0zM512 800z m-167.072-312.896v168.16a32 32 0 0 1-3.424 14.432L308.032 736h408l-33.472-66.304a32 32 0 0 1-3.424-14.432v-168.16a167.136 167.136 0 1 0-334.24 0z" fill="#92929D" p-id="8210"></path></svg>