<?xml version="1.0" standalone="no"?><!DOCTYPE svg PUBLIC "-//W3C//DTD SVG 1.1//EN" "http://www.w3.org/Graphics/SVG/1.1/DTD/svg11.dtd"><svg class="icon" width="200px" height="170.24px" viewBox="0 0 1203 1024" version="1.1" xmlns="http://www.w3.org/2000/svg"><path fill="#ffffff" d="M1078.80369 1023.242985H125.011586A126.400604 126.400604 0 0 1 9.260118 972.312339a135.197716 135.197716 0 0 1-9.260118-41.670529v-13.890176a147.698874 147.698874 0 0 1 27.780353-78.710999c9.260118-18.520235 87.971116-148.16188 175.942232-296.32376 157.421998-263.913349 268.543408-449.115699 277.803526-463.005876A149.550898 149.550898 0 0 1 597.27758 0a149.087892 149.087892 0 0 1 111.12141 74.08094c9.260118 18.520235 69.450881 115.751469 148.16188 236.132997 134.271704 217.612762 310.213937 504.676405 324.104113 527.826698a122.696557 122.696557 0 0 1 9.260118 125.011587c-13.890176 32.410411-41.670529 60.190764-111.121411 60.190763zM92.601175 926.011751a261.135314 261.135314 0 0 0 32.410411 4.630059h953.792104a80.100017 80.100017 0 0 0 32.410412-4.630059 37.503476 37.503476 0 0 0-9.260118-32.410411c-13.890176-23.150294-189.832409-310.213937-324.104113-527.826698-74.08094-120.381528-134.271704-222.24282-143.531821-236.132997a199.092527 199.092527 0 0 0-32.410412-32.410411 65.746834 65.746834 0 0 0-37.04047 32.410411c-9.260118 13.890176-157.421998 259.28329-277.803525 458.375817-87.971116 148.16188-166.682115 277.803525-180.572292 296.323761a68.52487 68.52487 0 0 0-13.890176 41.670528z"  /><path fill="#ffffff" d="M560.23711 439.855582a42.133535 42.133535 0 1 1 83.341057 0V694.508814a38.892494 38.892494 0 0 1-41.670529 41.670528 41.670529 41.670529 0 0 1-41.670528-41.670528zM601.907638 870.451046a46.300588 46.300588 0 1 1 46.300588-46.300587 49.541629 49.541629 0 0 1-46.300588 46.300587z"  /></svg>