<svg xmlns="http://www.w3.org/2000/svg" viewBox="0 0 188 188"><defs><style>.cls-1{fill:#fff;}.cls-2{opacity:0.2;}.cls-3{opacity:0.63;}</style></defs><title>资源 2</title><g id="图层_2" data-name="图层 2"><g id="图层_1-2" data-name="图层 1"><path class="cls-1" d="M94,188a94,94,0,1,1,94-94,4,4,0,0,1-8,0,86,86,0,1,0-86,86,4,4,0,0,1,0,8Z"/><g class="cls-2"><path class="cls-1" d="M94,188a4,4,0,0,1,0-8l1.92,0H96a4,4,0,0,1,.08,8Z"/><path class="cls-1" d="M119.88,184.22a4,4,0,0,1-1.15-7.83c1.22-.36,2.46-.76,3.68-1.19a4,4,0,0,1,2.64,7.55c-1.34.47-2.69.91-4,1.3A3.82,3.82,0,0,1,119.88,184.22ZM145.26,172A4,4,0,0,1,143,164.7c1.05-.73,2.1-1.49,3.12-2.27a4,4,0,0,1,4.85,6.36c-1.11.85-2.26,1.68-3.41,2.48A4,4,0,0,1,145.26,172Zm20.35-19.47a4,4,0,0,1-3.18-6.43c.77-1,1.54-2.06,2.27-3.12a4,4,0,1,1,6.57,4.57c-.8,1.15-1.63,2.3-2.48,3.41A4,4,0,0,1,165.61,152.52ZM179,127.73a4.11,4.11,0,0,1-1.32-.22,4,4,0,0,1-2.45-5.1c.42-1.19.82-2.43,1.19-3.66a4,4,0,1,1,7.66,2.3c-.41,1.35-.84,2.7-1.3,4A4,4,0,0,1,179,127.73Z"/><path class="cls-1" d="M184,100h-.09A4,4,0,0,1,180,95.91c0-.63,0-1.27,0-1.91a4,4,0,0,1,8,0c0,.7,0,1.39,0,2.09A4,4,0,0,1,184,100Z"/></g><path class="cls-1" d="M77.89,117.82a4,4,0,0,1-1.73-.39L48.23,104a4,4,0,0,1-1.93-5.2L74,35.48a4,4,0,0,1,3.65-2.4h0a4,4,0,0,1,3.66,2.37l28.16,63a4,4,0,0,1-1.62,5.08L95.23,111a4,4,0,0,1-4.07-6.89l9.55-5.65L77.69,47,55.17,98.49l18.72,9V73.94a4,4,0,0,1,8,0v39.88A4,4,0,0,1,80,117.21,4.07,4.07,0,0,1,77.89,117.82Z"/><path class="cls-1" d="M77.88,97.07a4.06,4.06,0,0,1-2-.56l-9.56-5.67A4,4,0,1,1,70.36,84l9.57,5.66a4,4,0,0,1-2.05,7.45Z"/><path class="cls-1" d="M77.89,102.73a4,4,0,0,1-2-7.44c2.21-1.31,13.31-7.9,14.78-8.64a4,4,0,0,1,3.58,7.16h0c-.89.45-8,4.64-14.27,8.36A4,4,0,0,1,77.89,102.73Z"/><path class="cls-1" d="M60.18,143.36a4,4,0,0,1-.73-7.94c2.19-.4,23.39-.21,35.84-.06a4,4,0,0,1-.1,8c-15.17-.19-32.32-.26-34.38-.05A4.58,4.58,0,0,1,60.18,143.36Z"/><path class="cls-1" d="M77.89,143.36a4,4,0,0,1-4-4V113.82a4,4,0,0,1,8,0v25.54A4,4,0,0,1,77.89,143.36Z"/><g class="cls-3"><path class="cls-1" d="M113.51,105.78a4,4,0,0,0-.47,1.87V105.5Z"/><path class="cls-1" d="M113,96.21v9.29l-5.5-3.26a4,4,0,1,1,4.07-6.88Z"/><path class="cls-1" d="M142.49,107.09l-22-49.2a4,4,0,0,0-3.65-2.37h0a4,4,0,0,0-3.65,2.4L91.57,107.37a4,4,0,0,0,1.94,5.21L113,121.94l2.27,1.09a4,4,0,0,0,1.73.39,4,4,0,0,0,4-4v-9.5c4.3-2.55,8.51-5,9.13-5.34a3.86,3.86,0,0,0,1.7-1.64l1.86,4.16-6.78,4A4,4,0,0,0,131,118l9.86-5.83A4,4,0,0,0,142.49,107.09Zm-15.91-9.66c-.59.3-3,1.71-5.54,3.2V88.29a4,4,0,0,0-8,0V105.5l.47.28a4,4,0,0,0-.47,1.87v5.42l-12.59-6L116.9,69.42l12.37,27.7A4,4,0,0,0,126.58,97.43Z"/><path class="cls-1" d="M134.58,139.41a4,4,0,0,1-4,4h0L118,143.24h-1.92c-6.15,0-11,0-12.19.08h-.06a4,4,0,0,1-1.32-7.89c.79-.15,4.32-.21,10.55-.2,2.3,0,5,0,8,0l9.59.1A4,4,0,0,1,134.58,139.41Z"/><path class="cls-1" d="M116.12,143.23h1.8a3.22,3.22,0,0,1-.88.12A3.1,3.1,0,0,1,116.12,143.23Z"/><path class="cls-1" d="M121,119.42v15.84c-3,0-5.7,0-8,0V121.94l2.27,1.09a4,4,0,0,0,1.73.39,4,4,0,0,0,4-4Z"/></g></g></g></svg>