<svg width="189" height="189" viewBox="0 0 189 189" fill="none" xmlns="http://www.w3.org/2000/svg">
<g clip-path="url(#clip0)">
<g opacity="0.63">
<g opacity="0.63">
<path opacity="0.63" d="M120.3 105.3C120 105.9 119.8 106.5 119.8 107.2V105L120.3 105.3Z" fill="#0062FF"/>
</g>
<g opacity="0.63">
<path opacity="0.63" d="M119.8 95.7002V105L114.3 101.7C112.4 100.6 111.8 98.1002 112.9 96.2002C114 94.3002 116.5 93.7002 118.4 94.8002L119.8 95.7002Z" fill="#0062FF"/>
</g>
<g opacity="0.63">
<path d="M149.3 106.6L127.3 57.4C126.6 55.9 125.2 55 123.6 55C122 55 120.6 55.9 119.9 57.4L98.2999 106.8C97.3999 108.8 98.2999 111.1 100.2 112L119.7 121.4L122 122.5C122.6 122.8 123.1 122.9 123.7 122.9C124.4 122.9 125.2 122.7 125.8 122.3C127 121.6 127.7 120.3 127.7 118.9V109.4C132 106.9 136.2 104.4 136.8 104.1C137.6 103.7 138.1 103.2 138.5 102.5L140.4 106.7L133.6 110.7C131.7 111.8 131.1 114.3 132.2 116.2C133.3 118.1 135.8 118.7 137.7 117.6L147.6 111.8C149.4 110.6 150.1 108.4 149.3 106.6ZM133.3 96.9C132.7 97.2 130.3 98.6 127.8 100.1V87.8C127.8 85.6 126 83.8 123.8 83.8C121.6 83.8 119.8 85.6 119.8 87.8V105L120.3 105.3C120 105.9 119.8 106.5 119.8 107.2V112.6L107.2 106.6L123.7 69L136 96.6C135.2 96.4 134.2 96.5 133.3 96.9Z" fill="#0062FF"/>
</g>
<g opacity="0.63">
<path d="M141.3 138.9C141.3 141.1 139.5 142.9 137.3 142.9C133.1 142.9 128.7 142.8 124.7 142.8C124.1 142.8 123.5 142.8 122.9 142.8C116.7 142.8 111.9 142.8 110.7 142.9C110.5 142.9 110.3 142.9 110.1 142.9C108.2 142.9 106.5 141.6 106.2 139.6C105.8 137.4 107.2 135.3 109.4 134.9C110.2 134.8 113.7 134.7 120 134.7C122.3 134.7 125 134.7 128 134.7C130.9 134.7 134.1 134.8 137.6 134.8C139.6 134.9 141.4 136.7 141.3 138.9Z" fill="#0062FF"/>
</g>
<path opacity="0.63" d="M122.9 142.7C123.5 142.7 124.1 142.7 124.7 142.7C124.4 142.8 124.1 142.8 123.8 142.8C123.5 142.8 123.2 142.8 122.9 142.7Z" fill="#0062FF"/>
<path opacity="0.63" d="M127.8 118.9V134.7C124.8 134.7 122.1 134.7 119.8 134.7V121.4L122.1 122.5C122.7 122.8 123.2 122.9 123.8 122.9C124.5 122.9 125.3 122.7 125.9 122.3C127.1 121.6 127.8 120.3 127.8 118.9Z" fill="#0062FF"/>
</g>
</g>
<path d="M94.2002 188.1C42.4002 188.1 0.200195 145.9 0.200195 94.1001C0.200195 42.3001 42.4002 0.100098 94.2002 0.100098C146 0.100098 188.2 42.3001 188.2 94.1001C188.2 96.3001 186.4 98.1001 184.2 98.1001C182 98.1001 180.2 96.3001 180.2 94.1001C180.2 46.7001 141.6 8.1001 94.2002 8.1001C46.8002 8.1001 8.2002 46.7001 8.2002 94.1001C8.2002 141.5 46.8002 180.1 94.2002 180.1C96.4002 180.1 98.2002 181.9 98.2002 184.1C98.2002 186.3 96.4002 188.1 94.2002 188.1Z" fill="#0062FF"/>
<g opacity="0.2">
<g opacity="0.2">
<path opacity="0.2" d="M94.2002 188.1C92.0002 188.1 90.2002 186.3 90.2002 184.1C90.2002 181.9 92.0002 180.1 94.2002 180.1C94.8002 180.1 95.5002 180.1 96.1002 180.1H96.2002C98.4002 180.1 100.2 181.8 100.2 184C100.2 186.2 98.5003 188 96.3003 188.1C95.6003 188 94.9002 188.1 94.2002 188.1Z" fill="#0062FF"/>
</g>
<g opacity="0.2">
<path opacity="0.2" d="M120.1 184.3C118.4 184.3 116.8 183.2 116.3 181.4C115.7 179.3 116.9 177.1 119 176.4C120.2 176 121.5 175.6 122.7 175.2C124.8 174.5 127.1 175.6 127.8 177.7C128.5 179.8 127.4 182.1 125.3 182.8C124 183.3 122.6 183.7 121.3 184.1C120.9 184.2 120.5 184.3 120.1 184.3ZM145.5 172C144.2 172 143 171.4 142.2 170.3C140.9 168.5 141.4 166 143.2 164.7C144.3 164 145.3 163.2 146.3 162.4C148.1 161.1 150.6 161.4 151.9 163.2C153.2 165 152.9 167.5 151.1 168.8C150 169.6 148.8 170.5 147.7 171.3C147.1 171.8 146.3 172 145.5 172ZM165.8 152.6C165 152.6 164.1 152.3 163.4 151.8C161.6 150.5 161.3 148 162.6 146.2C163.4 145.2 164.1 144.1 164.9 143.1C166.2 141.3 168.7 140.8 170.5 142.1C172.3 143.4 172.8 145.9 171.5 147.7C170.7 148.9 169.9 150 169 151.1C168.2 152 167 152.6 165.8 152.6ZM179.2 127.8C178.8 127.8 178.3 127.7 177.9 127.6C175.8 126.9 174.7 124.6 175.4 122.5C175.8 121.3 176.2 120.1 176.6 118.8C177.2 116.7 179.5 115.5 181.6 116.1C183.7 116.7 184.9 119 184.3 121.1C183.9 122.5 183.5 123.8 183 125.1C182.4 126.8 180.8 127.8 179.2 127.8Z" fill="#0062FF"/>
</g>
<g opacity="0.2">
<path opacity="0.2" d="M184.2 100.1C184.2 100.1 184.1 100.1 184.2 100.1C181.9 100.1 180.2 98.2001 180.2 96.0001C180.2 95.4001 180.2 94.7001 180.2 94.1001C180.2 91.9001 182 90.1001 184.2 90.1001C186.4 90.1001 188.2 91.9001 188.2 94.1001C188.2 94.8001 188.2 95.5001 188.2 96.2001C188.2 98.3001 186.4 100.1 184.2 100.1Z" fill="#0062FF"/>
</g>
</g>
<path d="M78.1002 117.9C77.5002 117.9 76.9002 117.8 76.4002 117.5L48.5002 104.1C46.6002 103.2 45.7002 100.9 46.6002 98.9002L74.3003 35.6002C74.9003 34.1002 76.4002 33.2002 77.9002 33.2002C79.5002 33.2002 80.9002 34.1002 81.6002 35.6002L109.8 98.6002C110.6 100.5 109.9 102.6 108.2 103.7L95.6002 111.2C93.7002 112.3 91.2002 111.7 90.1002 109.8C89.0002 107.9 89.6002 105.4 91.5002 104.3L101.1 98.6002L78.1002 47.1002L55.6002 98.6002L74.3003 107.6V74.0002C74.3003 71.8002 76.1003 70.0002 78.3003 70.0002C80.5003 70.0002 82.3003 71.8002 82.3003 74.0002V113.9C82.3003 115.3 81.6002 116.6 80.4002 117.3C79.6002 117.7 78.9002 117.9 78.1002 117.9Z" fill="#0062FF"/>
<path d="M78.1 97.1003C77.4 97.1003 76.7 96.9003 76.1 96.5003L66.5 90.8003C64.6 89.7003 64 87.2003 65.1 85.3003C66.2 83.4003 68.7 82.8003 70.6 83.9003L80.1999 89.6003C82.0999 90.7003 82.7 93.2003 81.6 95.1003C80.8 96.4003 79.5 97.1003 78.1 97.1003Z" fill="#0062FF"/>
<path d="M78.1001 102.8C76.7001 102.8 75.4001 102.1 74.7001 100.8C73.6001 98.9001 74.2001 96.4001 76.1001 95.3C78.3001 94 89.4001 87.4 90.9001 86.7C92.9001 85.7 95.3002 86.5 96.3002 88.5C97.3002 90.5 96.5001 92.9 94.5001 93.9C93.6001 94.3 86.5001 98.5 80.2001 102.3C79.5001 102.6 78.8001 102.8 78.1001 102.8Z" fill="#0062FF"/>
<path d="M60.4003 143.4C58.5003 143.4 56.8002 142.1 56.5002 140.1C56.1002 137.9 57.5002 135.8 59.7002 135.4C61.9002 135 83.1002 135.2 95.5002 135.3C97.7002 135.3 99.5002 137.1 99.5002 139.3C99.5002 141.5 97.7002 143.3 95.5002 143.3C80.3002 143.1 63.2002 143 61.1002 143.3C60.8002 143.4 60.6003 143.4 60.4003 143.4Z" fill="#0062FF"/>
<path d="M78.1001 143.4C75.9001 143.4 74.1001 141.6 74.1001 139.4V113.9C74.1001 111.7 75.9001 109.9 78.1001 109.9C80.3001 109.9 82.1001 111.7 82.1001 113.9V139.4C82.1001 141.6 80.3001 143.4 78.1001 143.4Z" fill="#0062FF"/>
<defs>
<clipPath id="clip0">
<rect width="51.6" height="87.8" fill="white" transform="translate(98 55)"/>
</clipPath>
</defs>
</svg>
