<?xml version="1.0" standalone="no"?><!DOCTYPE svg PUBLIC "-//W3C//DTD SVG 1.1//EN" "http://www.w3.org/Graphics/SVG/1.1/DTD/svg11.dtd"><svg t="1593408551917" class="icon" viewBox="0 0 1024 1024" version="1.1" xmlns="http://www.w3.org/2000/svg" p-id="2954" xmlns:xlink="http://www.w3.org/1999/xlink" width="48" height="48"><defs><style type="text/css"></style></defs><path d="M876.352 0a80.192 80.192 0 0 1 73.024 85.504v852.992A80.128 80.128 0 0 1 876.352 1024H147.712A80.128 80.128 0 0 1 74.688 938.496V85.504A80.128 80.128 0 0 1 147.712 0h728.64z m0 923.456V100.544a25.6 25.6 0 0 0-22.784-27.456H170.368a25.6 25.6 0 0 0-22.784 27.456v822.912a25.6 25.6 0 0 0 22.784 27.456h683.264a25.6 25.6 0 0 0 22.784-27.456z m-110.208-194.624a36.544 36.544 0 0 1 0 73.024H256.896a36.544 36.544 0 0 1 0-73.024z m-106.88-253.376a36.544 36.544 0 0 1 0 73.024H257.024a36.544 36.544 0 0 1 0-73.024h402.304z m-47.104-237.696a36.608 36.608 0 0 1 0 73.152H256.896a36.608 36.608 0 0 1 0-73.152z" fill="#92929D" p-id="2955"></path></svg>