<svg width="188" height="189" viewBox="0 0 188 189" fill="none" xmlns="http://www.w3.org/2000/svg">
<path d="M76.4 163C75.4 163 74.3 162.8 73.4 162.3C70.5 160.9 69.2 157.8 70.1 154.7L81.8 113C81.9 112.6 82.1 112.1 82.3 111.5C82.3 111.5 82.3 111.5 82.3 111.4C81.6 111.4 81 111.5 80.6 111.5C79.8 111.6 79.2 111.6 78.7 111.6H57.2C54.7 111.6 52.4 110.1 51.2 107.8C50.1 105.6 50.3 103.1 51.7 101.2C69.3 76.9998 86.9 52.6998 104.5 28.4998C106.5 25.7998 110.1 24.8998 113.1 26.3998C116 27.7998 117.3 30.8998 116.5 33.9998L105.3 73.8998C105.1 74.4998 104.8 75.2998 104.6 76.0998C104.4 76.4998 104.2 77.0998 104 77.6998C106.2 77.6998 109.2 77.4999 110.8 77.2999C112.3 77.1999 113.7 76.9998 114.7 76.9998H129.4C131.9 76.9998 134.2 78.4999 135.4 80.7999C136.5 82.9999 136.3 85.4998 134.9 87.3998L82 160.2C80.7 162 78.6 163 76.4 163ZM83.6 103.3C86.2 103.3 88.6 103.8 90 105.7C91.9 108.3 90.6 111.7 89.7 114.1C89.6 114.5 89.4 114.8 89.4 115L79.7 149.5L126.7 84.7999H114.6C113.9 84.7999 112.7 84.8998 111.4 84.9998C105.4 85.4998 100.6 85.7999 97.4 83.8998L96 83.0998L95.6 81.5998C94.8 78.7998 96 75.5998 97 73.0998C97.2 72.4998 97.4 71.8998 97.5 71.5998L106.7 38.8998C91 60.4998 75.4 81.9998 59.7 103.6H78.6C78.9 103.6 79.3 103.6 79.9 103.5C81.1 103.4 82.4 103.3 83.6 103.3Z" fill="#0062FF"/>
<path d="M94 188.1C42.2 188.1 0 145.9 0 94.1001C0 42.3001 42.2 0.100098 94 0.100098C145.8 0.100098 188 42.3001 188 94.1001H180C180 46.7001 141.4 8.1001 94 8.1001C46.6 8.1001 8 46.6001 8 94.1001C8 141.6 46.6 180.1 94 180.1V188.1Z" fill="#0062FF"/>
</svg>
