<svg xmlns="http://www.w3.org/2000/svg" viewBox="0 0 188 188"><defs><style>.cls-1{fill:#fff;}.cls-2{opacity:0.2;}</style></defs><title>资源 6</title><g id="图层_2" data-name="图层 2"><g id="图层_1-2" data-name="图层 1"><path class="cls-1" d="M76.42,162.94a6.89,6.89,0,0,1-3-.7A6.33,6.33,0,0,1,70,154.6l11.68-41.7c.11-.39.3-.91.52-1.51a.43.43,0,0,1,0,0l-1.7.12c-.79.07-1.41.12-1.92.12H57.16a6.85,6.85,0,0,1-6-3.78,6.22,6.22,0,0,1,.45-6.59q26.5-36.4,52.94-72.8a6.92,6.92,0,0,1,8.61-2.14,6.36,6.36,0,0,1,3.36,7.64L105.34,73.8c-.18.65-.45,1.38-.74,2.15-.15.41-.37,1-.58,1.6,2.2,0,5.19-.23,6.77-.37s2.88-.26,3.91-.26h14.72a6.83,6.83,0,0,1,6,3.78,6.25,6.25,0,0,1-.46,6.63L82,160.1A6.84,6.84,0,0,1,76.42,162.94Zm1.32-6.17Zm-2.22-1.37Zm8.09-52.12c2.59,0,5,.47,6.4,2.43,1.88,2.61.64,6-.27,8.44-.13.36-.25.68-.32.91l-9.67,34.53L126.8,84.92H114.7c-.67,0-1.9.11-3.19.23-6,.54-10.83.81-14-1.09l-1.36-.83-.43-1.54c-.77-2.82.41-6,1.36-8.53.22-.58.44-1.18.53-1.51l9.17-32.74q-23.47,32.34-47,64.67H78.63c.28,0,.73,0,1.26-.09C81.11,103.39,82.38,103.28,83.61,103.28Z"/><path class="cls-1" d="M94,188a94,94,0,1,1,94-94h-8a86,86,0,1,0-86,86Z"/><g class="cls-2"><path class="cls-1" d="M94,188a4,4,0,0,1,0-8l1.92,0H96a4,4,0,0,1,.08,8Z"/><path class="cls-1" d="M119.88,184.22a4,4,0,0,1-1.15-7.83c1.22-.36,2.46-.76,3.68-1.19a4,4,0,0,1,2.64,7.55c-1.34.47-2.69.91-4,1.3A3.82,3.82,0,0,1,119.88,184.22ZM145.26,172A4,4,0,0,1,143,164.7c1.05-.73,2.1-1.49,3.12-2.27a4,4,0,0,1,4.85,6.36c-1.11.85-2.26,1.68-3.41,2.48A4,4,0,0,1,145.26,172Zm20.35-19.47a4,4,0,0,1-3.18-6.42c.77-1,1.54-2.06,2.27-3.13a4,4,0,1,1,6.57,4.57c-.8,1.16-1.63,2.3-2.48,3.41A4,4,0,0,1,165.61,152.52ZM179,127.73a4.06,4.06,0,0,1-1.32-.22,4,4,0,0,1-2.45-5.1c.42-1.19.82-2.42,1.19-3.66a4,4,0,0,1,7.66,2.3c-.41,1.35-.84,2.7-1.3,4A4,4,0,0,1,179,127.73Z"/><path class="cls-1" d="M184,100h-.09A4,4,0,0,1,180,95.91c0-.63,0-1.27,0-1.91a4,4,0,0,1,8,0c0,.7,0,1.39,0,2.09A4,4,0,0,1,184,100Z"/></g></g></g></svg>