<?xml version="1.0" standalone="no"?><!DOCTYPE svg PUBLIC "-//W3C//DTD SVG 1.1//EN" "http://www.w3.org/Graphics/SVG/1.1/DTD/svg11.dtd"><svg t="1591772916739" class="icon" viewBox="0 0 1194 1024" version="1.1" xmlns="http://www.w3.org/2000/svg" p-id="4248" xmlns:xlink="http://www.w3.org/1999/xlink" width="233.203125" height="200"><defs><style type="text/css"></style></defs><path d="M197.12011 713.355662h3.629675a1102.332295 1102.332295 0 0 0 778.984095-582.618678l9.465076 47.269537a32.834598 32.834598 0 0 0 32.722916 26.915436h5.80748l2.792057-0.725935a34.035183 34.035183 0 0 0 23.285761-39.284252l-27.641371-137.48092-0.725935-2.177805a35.31953 35.31953 0 0 0-10.916945-16.752346 29.484129 29.484129 0 0 0-31.271046-6.533415l-124.38617 37.106446a35.598736 35.598736 0 0 0-23.285761 39.284252 32.694996 32.694996 0 0 0 32.722916 25.463566h6.533415l49.475262-15.272555a1031.804918 1031.804918 0 0 1-736.824024 557.183032 34.286468 34.286468 0 0 0-26.915436 39.284251 36.603876 36.603876 0 0 0 36.548035 28.339386z m966.05196 245.114744h-143.2884V349.020054a33.700136 33.700136 0 0 0-32.834599-33.504692 32.332028 32.332028 0 0 0-32.722916 33.504692v609.534114h-186.202327v-359.337824a33.700136 33.700136 0 0 0-32.722916-33.504693 32.332028 32.332028 0 0 0-32.722916 33.504693v359.337824h-187.654197v-205.858413a32.750837 32.750837 0 1 0-65.473753 0v205.858413H263.347719v-122.850538a32.750837 32.750837 0 1 0-65.473753 0v122.850538h-165.848227A32.44371 32.44371 0 0 0 0.028758 991.277084a32.91836 32.91836 0 0 0 31.996981 32.722916h1130.922966a32.778757 32.778757 0 0 0 0-65.473753z" fill="#0062FF" p-id="4249"></path></svg>