<?xml version="1.0" standalone="no"?><!DOCTYPE svg PUBLIC "-//W3C//DTD SVG 1.1//EN" "http://www.w3.org/Graphics/SVG/1.1/DTD/svg11.dtd"><svg t="1591772941277" class="icon" viewBox="0 0 1024 1024" version="1.1" xmlns="http://www.w3.org/2000/svg" p-id="4487" xmlns:xlink="http://www.w3.org/1999/xlink" width="200" height="200"><defs><style type="text/css"></style></defs><path d="M512 1024C228.977778 1024 0 795.022222 0 512S228.977778 0 512 0s512 228.977778 512 512-228.977778 512-512 512z m0-967.111111C261.688889 56.888889 56.888889 261.688889 56.888889 512s204.8 455.111111 455.111111 455.111111 455.111111-204.8 455.111111-455.111111S762.311111 56.888889 512 56.888889z" fill="#0062FF" p-id="4488"></path><path d="M503.466667 290.133333h44.088889v31.288889c68.266667 9.955556 109.511111 44.088889 123.733333 102.4L595.911111 440.888889c-8.533333-31.288889-25.6-51.2-48.355555-58.311111v89.6c89.6 22.755556 133.688889 59.733333 130.844444 110.933333-1.422222 64-45.511111 99.555556-130.844444 106.666667v36.977778h-44.088889v-38.4c-79.644444-4.266667-125.155556-42.666667-139.377778-113.777778l75.377778-17.066667c9.955556 42.666667 31.288889 66.844444 64 73.955556v-103.822223c-89.6-19.911111-133.688889-55.466667-130.844445-103.822222 4.266667-62.577778 48.355556-96.711111 130.844445-103.822222v-29.866667z m0 173.511111v-82.488888c-36.977778 2.844444-55.466667 17.066667-55.466667 38.4 0 17.066667 18.488889 32.711111 55.466667 44.088888z m42.666666 73.955556v95.288889c35.555556-2.844444 52.622222-18.488889 52.622223-45.511111 1.422222-22.755556-15.644444-38.4-52.622223-49.777778z" fill="#0062FF" p-id="4489"></path></svg>