<?xml version="1.0" standalone="no"?><!DOCTYPE svg PUBLIC "-//W3C//DTD SVG 1.1//EN" "http://www.w3.org/Graphics/SVG/1.1/DTD/svg11.dtd"><svg class="icon" width="200px" height="178.55px" viewBox="0 0 1147 1024" version="1.1" xmlns="http://www.w3.org/2000/svg"><path fill="#ffffff" d="M324.066911 792.343598V442.55709a25.719596 25.719596 0 0 1 51.439192 0v324.066912h113.166223a24.17642 24.17642 0 0 1 25.719596 25.719596 27.777164 27.777164 0 0 1-25.719596 25.719596H349.786507a24.17642 24.17642 0 0 1-25.719596-25.719596zM529.82368 792.343598V442.55709a24.17642 24.17642 0 0 1 25.719596-25.719596h159.461496a24.17642 24.17642 0 0 1 25.719596 25.719596v108.022304a25.719596 25.719596 0 0 1-51.439192 0V468.276687h-108.022304v298.347315h108.022304v-113.166223h-56.583111a25.719596 25.719596 0 0 1 0-51.439193h82.302707a24.17642 24.17642 0 0 1 25.719596 25.719597v164.605415a24.17642 24.17642 0 0 1-25.719596 25.719596h-159.461496a24.17642 24.17642 0 0 1-25.719596-25.719596zM766.443964 710.04089v-190.325011A108.536696 108.536696 0 0 1 874.466268 411.693575a105.450344 105.450344 0 0 1 108.022304 108.022304 25.719596 25.719596 0 1 1-51.439192 0 56.583111 56.583111 0 0 0-113.166223 0v190.325011a56.583111 56.583111 0 0 0 113.166223 0 25.719596 25.719596 0 0 1 51.439192 0 105.450344 105.450344 0 0 1-108.022304 108.022304 108.536696 108.536696 0 0 1-108.022304-108.022304z"  /><path fill="#ffffff" d="M1095.654795 139.065856H823.027076V46.47531a47.324057 47.324057 0 0 0-51.439192-46.295273H77.158788A74.586829 74.586829 0 0 0 0 72.194906v766.443965a47.324057 47.324057 0 0 0 51.439192 46.295273h102.878385V977.52469a47.324057 47.324057 0 0 0 51.439192 46.295273h889.898026a47.324057 47.324057 0 0 0 51.439192-46.295273V185.361129a47.324057 47.324057 0 0 0-51.439192-46.295273zM154.317577 185.361129v606.982469H102.878384V92.770583h617.270307v46.295273H205.756769a47.324057 47.324057 0 0 0-51.439192 46.295273z m889.898026 745.868288H257.195961V231.656402h787.019642z"  /><path fill="#ffffff" d="M514.391922 792.343598a27.777164 27.777164 0 0 1-25.719596 25.719596H349.786507a24.17642 24.17642 0 0 1-25.719596-25.719596V442.55709a25.719596 25.719596 0 0 1 51.439192 0v324.066912h113.166223a24.17642 24.17642 0 0 1 25.719596 25.719596zM740.724368 442.55709v108.022304a25.719596 25.719596 0 0 1-51.439192 0V468.276687h-108.022304v298.347315h108.022304v-113.166223h-56.583111a25.719596 25.719596 0 0 1 0-51.439193h82.302707a24.17642 24.17642 0 0 1 25.719596 25.719597v164.605415a24.17642 24.17642 0 0 1-25.719596 25.719596h-159.461496a24.17642 24.17642 0 0 1-25.719596-25.719596V442.55709a24.17642 24.17642 0 0 1 25.719596-25.719596h159.461496a24.17642 24.17642 0 0 1 25.719596 25.719596zM982.488572 710.04089a105.450344 105.450344 0 0 1-108.022304 108.022304 108.536696 108.536696 0 0 1-108.022304-108.022304v-190.325011A108.536696 108.536696 0 0 1 874.466268 411.693575a105.450344 105.450344 0 0 1 108.022304 108.022304 25.719596 25.719596 0 1 1-51.439192 0 56.583111 56.583111 0 0 0-113.166223 0v190.325011a56.583111 56.583111 0 0 0 113.166223 0 25.719596 25.719596 0 0 1 51.439192 0z"  /><path fill="#ffffff" d="M514.391922 792.343598a27.777164 27.777164 0 0 1-25.719596 25.719596H349.786507a24.17642 24.17642 0 0 1-25.719596-25.719596V442.55709a25.719596 25.719596 0 0 1 51.439192 0v324.066912h113.166223a24.17642 24.17642 0 0 1 25.719596 25.719596zM982.488572 710.04089a105.450344 105.450344 0 0 1-108.022304 108.022304 108.536696 108.536696 0 0 1-108.022304-108.022304v-190.325011A108.536696 108.536696 0 0 1 874.466268 411.693575a105.450344 105.450344 0 0 1 108.022304 108.022304 25.719596 25.719596 0 1 1-51.439192 0 56.583111 56.583111 0 0 0-113.166223 0v190.325011a56.583111 56.583111 0 0 0 113.166223 0 25.719596 25.719596 0 0 1 51.439192 0zM689.285176 550.579394V468.276687h-108.022304v298.347315h108.022304v-113.166223h-56.583111a25.719596 25.719596 0 0 1 0-51.439193h82.302707a24.17642 24.17642 0 0 1 25.719596 25.719597v164.605415a24.17642 24.17642 0 0 1-25.719596 25.719596h-159.461496a24.17642 24.17642 0 0 1-25.719596-25.719596V442.55709a24.17642 24.17642 0 0 1 25.719596-25.719596h159.461496a24.17642 24.17642 0 0 1 25.719596 25.719596v108.022304a25.719596 25.719596 0 0 1-51.439192 0z"  /></svg>