<?xml version="1.0" standalone="no"?><!DOCTYPE svg PUBLIC "-//W3C//DTD SVG 1.1//EN" "http://www.w3.org/Graphics/SVG/1.1/DTD/svg11.dtd"><svg t="1591773146531" class="icon" viewBox="0 0 1024 1024" version="1.1" xmlns="http://www.w3.org/2000/svg" p-id="7608" xmlns:xlink="http://www.w3.org/1999/xlink" width="200" height="200"><defs><style type="text/css"></style></defs><path d="M512 1024C233.244444 1024 7.111111 795.022222 7.111111 512S233.244444 0 512 0 1016.888889 228.977778 1016.888889 512 790.755556 1024 512 1024z m0-967.111111C264.533333 56.888889 64 261.688889 64 512s200.533333 455.111111 448 455.111111S960 762.311111 960 512 759.466667 56.888889 512 56.888889z" fill="#3DD598" p-id="7609"></path><path d="M554.666667 662.755556c-8.533333 2.844444-18.488889 4.266667-28.444445 5.688888v-139.377777l64-64c8.533333-8.533333 8.533333-21.333333 0-29.866667-8.533333-8.533333-21.333333-8.533333-29.866666 0l-35.555556 35.555556v-54.044445c0-11.377778-9.955556-21.333333-21.333333-21.333333s-21.333333 9.955556-21.333334 21.333333v149.333333l-35.555555-35.555555c-8.533333-8.533333-21.333333-8.533333-29.866667 0-8.533333 8.533333-8.533333 21.333333 0 29.866667l64 64V668.444444c-9.955556-1.422222-19.911111-2.844444-28.444444-5.688888-58.311111-17.066667-98.133333-68.266667-100.977778-128-2.844444-72.533333 35.555556-119.466667 86.755555-174.933334l8.533334-9.955555c19.911111-21.333333 38.4-44.088889 54.044444-69.688889 18.488889 28.444444 39.822222 55.466667 64 79.644444l1.422222 2.844445c46.933333 52.622222 88.177778 99.555556 85.333334 172.088889 2.844444 59.733333-38.4 110.933333-96.711111 128m48.355555-328.533334l-2.844444-2.844444c-22.755556-22.755556-42.666667-48.355556-61.155556-75.377778-1.422222-1.422222-1.422222-2.844444-2.844444-4.266667-2.844444-4.266667-5.688889-7.111111-9.955556-9.955555-8.533333-5.688889-18.488889-8.533333-29.866666-5.688889-11.377778 2.844444-19.911111 8.533333-25.6 18.488889-15.644444 24.177778-32.711111 45.511111-51.2 65.422222l-8.533334 9.955556c-55.466667 58.311111-100.977778 115.2-98.133333 204.8 4.266667 78.222222 56.888889 145.066667 132.266667 166.4 9.955556 2.844444 24.177778 5.688889 36.977777 7.111111-1.422222 11.377778-7.111111 22.755556-15.644444 29.866666-9.955556 5.688889-14.222222 18.488889-8.533333 28.444445s18.488889 14.222222 28.444444 8.533333c27.022222-14.222222 35.555556-45.511111 38.4-66.844444 14.222222-1.422222 28.444444-4.266667 41.244444-8.533334 75.377778-21.333333 128-89.6 130.844445-166.4 4.266667-88.177778-45.511111-143.644444-93.866667-199.111111" fill="#3DD598" p-id="7610"></path></svg>