<?xml version="1.0" standalone="no"?><!DOCTYPE svg PUBLIC "-//W3C//DTD SVG 1.1//EN" "http://www.w3.org/Graphics/SVG/1.1/DTD/svg11.dtd"><svg class="icon" width="200px" height="200.00px" viewBox="0 0 1024 1024" version="1.1" xmlns="http://www.w3.org/2000/svg"><path fill="#ffffff" d="M512 0a512 512 0 1 0 512 512A512 512 0 0 0 512 0z m418.909091 460.8h-186.181818a710.283636 710.283636 0 0 0-13.963637-139.636364 453.352727 453.352727 0 0 0 111.709091-69.818181A436.130909 436.130909 0 0 1 930.909091 460.8z m-158.254546-269.963636c-18.618182 13.963636-41.890909 27.927273-65.163636 41.890909a269.032727 269.032727 0 0 0-23.272727-65.163637c-4.654545-13.963636-13.963636-27.927273-18.618182-41.890909a506.88 506.88 0 0 1 107.054545 65.163637z m-349.090909 9.309091a325.818182 325.818182 0 0 1 51.2-83.781819A46.545455 46.545455 0 0 1 512 93.090909a46.545455 46.545455 0 0 1 37.236364 23.272727 232.727273 232.727273 0 0 1 51.2 83.781819 269.032727 269.032727 0 0 1 23.272727 65.163636A431.941818 431.941818 0 0 1 512 279.272727a431.941818 431.941818 0 0 1-111.709091-13.963636c9.309091-23.272727 13.963636-46.545455 23.272727-65.163636zM181.527273 256A453.352727 453.352727 0 0 0 293.236364 325.818182a645.12 645.12 0 0 0-13.963637 139.636363v4.654546H93.090909a438.458182 438.458182 0 0 1 88.436364-214.109091z m-82.850909 307.2h186.181818a710.283636 710.283636 0 0 0 13.963636 139.636364A453.352727 453.352727 0 0 0 186.181818 772.654545a436.130909 436.130909 0 0 1-87.505454-209.454545zM251.345455 837.818182a195.025455 195.025455 0 0 1 65.163636-41.890909 269.032727 269.032727 0 0 0 23.272727 65.163636 165.236364 165.236364 0 0 0 18.618182 41.890909A367.243636 367.243636 0 0 1 251.345455 837.818182zM339.781818 162.909091a269.032727 269.032727 0 0 0-23.272727 65.163636A195.025455 195.025455 0 0 1 251.345455 186.181818a411.461818 411.461818 0 0 1 107.054545-65.163636c-4.654545 13.963636-13.963636 27.927273-18.618182 41.890909zM605.090909 823.854545a325.818182 325.818182 0 0 1-51.2 83.781819 46.545455 46.545455 0 0 1-37.236364 23.272727c-9.309091 0-18.618182-4.654545-37.236363-23.272727a232.727273 232.727273 0 0 1-51.2-83.781819 269.032727 269.032727 0 0 1-23.272727-65.163636 407.272727 407.272727 0 0 1 111.70909-13.963636 431.941818 431.941818 0 0 1 111.709091 13.963636c-9.309091 23.272727-13.963636 46.545455-23.272727 65.163636z m37.236364-153.6a588.8 588.8 0 0 0-130.327273-13.963636 588.8 588.8 0 0 0-130.327273 13.963636 763.810909 763.810909 0 0 1-9.309091-107.054545h279.272728a909.032727 909.032727 0 0 1-9.309091 107.054545zM372.363636 465.454545a763.810909 763.810909 0 0 1 9.309091-107.054545A588.8 588.8 0 0 0 512 372.363636a588.8 588.8 0 0 0 130.327273-13.963636A763.810909 763.810909 0 0 1 651.636364 465.454545z m293.236364 437.527273c4.654545-13.963636 13.963636-27.927273 18.618182-41.890909a269.032727 269.032727 0 0 0 23.272727-65.163636 157.789091 157.789091 0 0 1 65.163636 41.890909 367.243636 367.243636 0 0 1-107.054545 65.163636z m176.872727-130.327273a453.352727 453.352727 0 0 0-111.709091-69.818181 710.283636 710.283636 0 0 0 13.963637-139.636364h186.181818a441.250909 441.250909 0 0 1-88.436364 209.454545z"  /><path fill="#ffffff" d="M930.909091 460.8v4.654545a16.756364 16.756364 0 0 0 0-4.654545zM98.676364 563.2V558.545455a16.756364 16.756364 0 0 0 0 4.654545z"  /></svg>