<?xml version="1.0" standalone="no"?><!DOCTYPE svg PUBLIC "-//W3C//DTD SVG 1.1//EN" "http://www.w3.org/Graphics/SVG/1.1/DTD/svg11.dtd"><svg t="1591773172452" class="icon" viewBox="0 0 1125 1024" version="1.1" xmlns="http://www.w3.org/2000/svg" p-id="8610" xmlns:xlink="http://www.w3.org/1999/xlink" width="219.7265625" height="200"><defs><style type="text/css"></style></defs><path d="M991.778848 857.801047h-857.801047c-75.057592 0-134.031414-58.973822-134.031414-134.031413v-589.73822c0-75.057592 58.973822-134.031414 134.031414-134.031414h857.801047c75.057592 0 134.031414 58.973822 134.031414 134.031414v589.73822c0 75.057592-58.973822 134.031414-134.031414 134.031413z m-857.801047-777.382199c-32.167539 0-53.612565 21.445026-53.612565 53.612566v589.73822c0 32.167539 21.445026 53.612565 53.612565 53.612565h857.801047c32.167539 0 53.612565-21.445026 53.612566-53.612565v-589.73822c0-32.167539-21.445026-53.612565-53.612566-53.612566h-857.801047z" fill="#92929D" p-id="8611"></path><path d="M444.180105 636.434764c-16.08377 0-26.806283-5.361257-32.16754-16.083769l-101.863874-150.115183-96.502618 123.3089c-16.08377 16.08377-37.528796 21.445026-58.973822 5.361257-16.08377-16.08377-21.445026-37.528796-5.361256-58.973822l134.031413-166.198953c5.361257-10.722513 21.445026-16.08377 32.16754-16.08377 10.722513 0 26.806283 5.361257 32.167539 16.08377l107.225131 155.47644 182.282722-214.450262c10.722513-16.08377 32.167539-21.445026 53.612566-10.722513l107.225131 64.335078 144.753926-166.198953c16.08377-16.08377 37.528796-21.445026 58.973822-5.361256 16.08377 16.08377 21.445026 37.528796 5.361257 58.973822l-166.198953 193.005235c-10.722513 16.08377-32.167539 16.08377-53.612565 10.722513l-107.225131-64.335078-193.005236 230.534031c-16.08377 5.361257-26.806283 10.722513-42.890052 10.722513z" fill="#92929D" p-id="8612"></path><path d="M873.080628 1022.445236h-632.628272c-21.445026 0-42.890052-16.08377-42.890052-42.890053s16.08377-42.890052 42.890052-42.890052h632.628272c21.445026 0 42.890052 16.08377 42.890053 42.890052s-16.08377 42.890052-42.890053 42.890053z" fill="#92929D" p-id="8613"></path></svg>