<svg width="189" height="189" viewBox="0 0 189 189" fill="none" xmlns="http://www.w3.org/2000/svg">
<path d="M94.6001 188.1C42.8001 188.1 0.600098 145.9 0.600098 94.1001C0.600098 42.3001 42.8001 0.100098 94.6001 0.100098C146.4 0.100098 188.6 42.3001 188.6 94.1001C188.6 96.3001 186.8 98.1001 184.6 98.1001C182.4 98.1001 180.6 96.3001 180.6 94.1001C180.6 46.7001 142 8.1001 94.6001 8.1001C47.2001 8.1001 8.6001 46.7001 8.6001 94.1001C8.6001 141.5 47.2001 180.1 94.6001 180.1C96.8001 180.1 98.6001 181.9 98.6001 184.1C98.6001 186.3 96.8001 188.1 94.6001 188.1Z" fill="#0062FF"/>
<g opacity="0.2">
<g opacity="0.2">
<path opacity="0.2" d="M94.6001 188.1C92.4001 188.1 90.6001 186.3 90.6001 184.1C90.6001 181.9 92.4001 180.1 94.6001 180.1C95.2001 180.1 95.9001 180.1 96.5001 180.1H96.6001C98.8001 180.1 100.6 181.8 100.6 184C100.6 186.2 98.9001 188 96.7001 188.1C96.0001 188 95.3001 188.1 94.6001 188.1Z" fill="#0062FF"/>
</g>
<g opacity="0.2">
<path opacity="0.2" d="M120.5 184.3C118.8 184.3 117.2 183.2 116.7 181.4C116.1 179.3 117.3 177.1 119.4 176.4C120.6 176 121.9 175.6 123.1 175.2C125.2 174.5 127.5 175.6 128.2 177.7C128.9 179.8 127.8 182.1 125.7 182.8C124.4 183.3 123 183.7 121.7 184.1C121.3 184.2 120.9 184.3 120.5 184.3ZM145.9 172C144.6 172 143.4 171.4 142.6 170.3C141.3 168.5 141.8 166 143.6 164.7C144.7 164 145.7 163.2 146.7 162.4C148.5 161.1 151 161.4 152.3 163.2C153.6 165 153.3 167.5 151.5 168.8C150.4 169.6 149.2 170.5 148.1 171.3C147.5 171.8 146.7 172 145.9 172ZM166.2 152.6C165.4 152.6 164.5 152.3 163.8 151.8C162 150.5 161.7 148 163 146.2C163.8 145.2 164.5 144.1 165.3 143.1C166.6 141.3 169.1 140.8 170.9 142.1C172.7 143.4 173.2 145.9 171.9 147.7C171.1 148.9 170.3 150 169.4 151.1C168.6 152 167.4 152.6 166.2 152.6ZM179.6 127.8C179.2 127.8 178.7 127.7 178.3 127.6C176.2 126.9 175.1 124.6 175.8 122.5C176.2 121.3 176.6 120.1 177 118.8C177.6 116.7 179.9 115.5 182 116.1C184.1 116.7 185.3 119 184.7 121.1C184.3 122.5 183.9 123.8 183.4 125.1C182.8 126.8 181.2 127.8 179.6 127.8Z" fill="#0062FF"/>
</g>
<g opacity="0.2">
<path opacity="0.2" d="M184.6 100.1C184.6 100.1 184.5 100.1 184.6 100.1C182.3 100.1 180.6 98.2001 180.6 96.0001C180.6 95.4001 180.6 94.7001 180.6 94.1001C180.6 91.9001 182.4 90.1001 184.6 90.1001C186.8 90.1001 188.6 91.9001 188.6 94.1001C188.6 94.8001 188.6 95.5001 188.6 96.2001C188.6 98.3001 186.8 100.1 184.6 100.1Z" fill="#0062FF"/>
</g>
</g>
<g opacity="0.6">
<path opacity="0.2" d="M45.2003 75.2999C43.2003 75.2999 41.5003 73.7999 41.2003 71.7999C40.9003 69.5999 42.5003 67.5999 44.6003 67.2999C63.1003 64.8999 89.3003 58.5999 108.7 42.2999C110.4 40.8999 112.9 41.0999 114.3 42.7999C115.7 44.4999 115.5 46.9999 113.8 48.3999C92.9004 65.8999 65.2003 72.5999 45.6003 75.1999C45.6003 75.2999 45.4003 75.2999 45.2003 75.2999Z" fill="#0062FF"/>
</g>
<g opacity="0.6">
<path opacity="0.2" d="M86.8002 78.3999C86.4002 78.3999 86.1002 78.3999 86.0002 78.3999C83.8002 78.3999 82.0002 76.4999 82.1002 74.2999C82.1002 72.0999 83.9002 70.3999 86.1002 70.3999C86.1002 70.3999 86.1002 70.3999 86.6002 70.3999C90.5002 70.3999 122.8 69.9999 151.2 56.0999C153.2 55.0999 155.6 55.9999 156.5 57.8999C157.5 59.8999 156.6 62.2999 154.7 63.1999C125 77.7999 92.5002 78.3999 86.8002 78.3999Z" fill="#0062FF"/>
</g>
<path d="M118.1 151.1H70.5C68.3 151.1 66.5 149.3 66.5 147.1C66.5 146.7 66.5 145.6 80.3 52.7003C80.6 50.7003 82.3 49.3003 84.3 49.3003H105.9C107.9 49.3003 109.6 50.8003 109.9 52.8003L122.1 146.6C122.2 147.7 121.9 148.9 121.1 149.8C120.3 150.6 119.2 151.1 118.1 151.1ZM75.1 143.1H113.5L102.3 57.3003H87.6C83.1 87.9003 77 129.6 75.1 143.1Z" fill="#0062FF"/>
<path d="M130.8 151.1H59C56.8 151.1 55 149.3 55 147.1C55 144.9 56.8 143.1 59 143.1H130.8C133 143.1 134.8 144.9 134.8 147.1C134.8 149.3 133.1 151.1 130.8 151.1Z" fill="#0062FF"/>
<path d="M124.7 79.6001H65.2002C63.0002 79.6001 61.2002 77.8001 61.2002 75.6001C61.2002 73.4001 63.0002 71.6001 65.2002 71.6001H124.7C126.9 71.6001 128.7 73.4001 128.7 75.6001C128.7 77.8001 126.9 79.6001 124.7 79.6001Z" fill="#0062FF"/>
<path d="M109 127.7C108.4 127.7 107.8 127.6 107.2 127.3C107.2 127.3 100.3 123.8 93.4001 120.2C89.4001 118.1 86.2001 116.4 83.9001 115.1C78.8001 112.3 77.2001 111.5 77.6001 108.6C77.9001 106.3 77.9001 106.2 99.0001 92.8999L82.9001 79.8999C81.2001 78.4999 80.9002 75.9999 82.3002 74.2999C83.7002 72.5999 86.2001 72.2999 87.9001 73.6999L108.3 90.2999C109.3 91.0999 109.9 92.3999 109.8 93.6999C109.7 94.9999 109 96.1999 107.9 96.7999C101.9 100.6 94.0001 105.6 88.9001 108.8C94.6001 111.8 103.8 116.6 110.8 120.2C112.8 121.2 113.5 123.6 112.5 125.6C111.8 126.9 110.4 127.7 109 127.7Z" fill="#0062FF"/>
</svg>
