<svg width="189" height="189" viewBox="0 0 189 189" fill="none" xmlns="http://www.w3.org/2000/svg">
<path d="M94.4999 188.1C83.1999 188.1 71.9999 186 61.0999 181.9C58.9999 181.1 57.9999 178.8 58.7999 176.7C59.5999 174.6 61.8999 173.6 63.9999 174.4C85.4999 182.6 108.8 181.9 129.8 172.4C150.8 163 166.8 146 174.9 124.5C183.1 103 182.4 79.7002 172.9 58.7002C163.5 37.7002 146.5 21.7002 125 13.6002C103.5 5.40023 80.2 6.10023 59.2 15.6002C38.2 25.0002 22.1999 42.0002 14.0999 63.5002C7.39994 81.2002 6.69994 100.6 12.0999 118.6L56.0999 82.0002C56.8999 81.3002 57.9999 81.0002 59.0999 81.1002C60.1999 81.2002 61.1999 81.7002 61.7999 82.6002L83.8999 110.3L130.4 75.5002L107.5 74.2002C105.3 74.1002 103.6 72.2002 103.7 70.0002C103.8 67.8002 105.7 66.1002 107.9 66.2002L141.6 68.2002C143.3 68.3002 144.7 69.4002 145.2 71.0002C145.7 72.6002 145.2 74.3002 143.9 75.3002L141.5 77.2002L85.4999 119.1C83.7999 120.4 81.2999 120.1 79.9999 118.4L57.9999 90.8002L12.6999 128.5C11.6999 129.3 10.3999 129.6 9.09994 129.3C7.79994 129 6.79993 128 6.39993 126.8C-1.60007 105.4 -1.50006 81.9002 6.59994 60.6002C15.4999 37.1002 32.9999 18.5002 55.8999 8.20023C78.7999 -1.99977 104.4 -2.69977 127.9 6.20023C151.4 15.1002 170 32.6002 180.3 55.5002C190.6 78.4002 191.4 103.9 182.5 127.4C173.6 150.9 156.1 169.5 133.2 179.8C120.7 185.3 107.7 188.1 94.4999 188.1Z" fill="#0062FF"/>
</svg>
