<?xml version="1.0" standalone="no"?><!DOCTYPE svg PUBLIC "-//W3C//DTD SVG 1.1//EN" "http://www.w3.org/Graphics/SVG/1.1/DTD/svg11.dtd"><svg t="1592984638956" class="icon" viewBox="0 0 1031 1024" version="1.1" xmlns="http://www.w3.org/2000/svg" p-id="2204" xmlns:xlink="http://www.w3.org/1999/xlink" width="48.328125" height="48"><defs><style type="text/css"></style></defs><path d="M771.87682 296.996259A39.181564 39.181564 0 0 0 768.350479 352.63408a348.324108 348.324108 0 0 1 87.766704 235.089387h-3.134525a195.907822 195.907822 0 1 0 83.064917 27.427095 433.739919 433.739919 0 0 0-18.02352-156.726258 421.593634 421.593634 0 0 0-88.942151-158.685336 39.181564 39.181564 0 0 0-57.205084-3.526341z m176.708856 494.863159a112.842906 112.842906 0 1 1-102.263884-122.246481 111.667459 111.667459 0 0 1 102.263884 121.071034zM188.855141 452.155254a317.762488 317.762488 0 0 1 21.158045-43.491537A352.63408 352.63408 0 0 1 333.043298 283.674527a192.773297 192.773297 0 1 0-22.333492-78.363129A424.728159 424.728159 0 0 0 139.878185 368.306706a400.043773 400.043773 0 0 0-26.251648 53.678743 39.181564 39.181564 0 0 0 22.333492 52.503297 39.181564 39.181564 0 0 0 52.895112-22.333492z m325.5988-371.441231a112.842906 112.842906 0 1 1-20.374413 224.510364A112.059274 112.059274 0 0 1 391.815645 182.977906a112.059274 112.059274 0 0 1 120.679218-102.263883zM176.31704 959.948329a192.773297 192.773297 0 0 0 97.953911-16.848072 378.102097 378.102097 0 0 0 34.871593 21.941676A424.336343 424.336343 0 0 0 591.641623 1018.720676a39.181564 39.181564 0 0 0-13.321732-78.363129 344.405952 344.405952 0 0 1-228.42852-41.924274l-7.052682-3.918156A193.948744 193.948744 0 1 0 176.31704 959.948329z m-68.959553-120.679218a112.45109 112.45109 0 1 1 78.363129 39.181564 114.018353 114.018353 0 0 1-78.363129-39.181564z" fill="#92929D" p-id="2205"></path></svg>