<svg xmlns="http://www.w3.org/2000/svg" viewBox="0 0 188 188"><defs><style>.cls-1{fill:#fff;}.cls-2{opacity:0.2;}</style></defs><title>资源 1</title><g id="图层_2" data-name="图层 2"><g id="图层_1-2" data-name="图层 1"><path class="cls-1" d="M94,188a94,94,0,1,1,94-94,4,4,0,0,1-8,0,86,86,0,1,0-86,86,4,4,0,0,1,0,8Z"/><g class="cls-2"><path class="cls-1" d="M94,188a4,4,0,0,1,0-8l1.92,0H96a4,4,0,0,1,.08,8Z"/><path class="cls-1" d="M119.88,184.22a4,4,0,0,1-1.15-7.83c1.22-.36,2.46-.76,3.68-1.19a4,4,0,0,1,2.64,7.55c-1.34.47-2.69.91-4,1.3A3.82,3.82,0,0,1,119.88,184.22ZM145.26,172A4,4,0,0,1,143,164.7c1.05-.73,2.1-1.49,3.12-2.27a4,4,0,0,1,4.85,6.36c-1.11.85-2.26,1.68-3.41,2.48A4,4,0,0,1,145.26,172Zm20.35-19.47a4,4,0,0,1-3.18-6.42c.77-1,1.54-2.06,2.27-3.13a4,4,0,1,1,6.57,4.57c-.8,1.16-1.63,2.3-2.48,3.41A4,4,0,0,1,165.61,152.52ZM179,127.73a4.06,4.06,0,0,1-1.32-.22,4,4,0,0,1-2.45-5.1c.42-1.19.82-2.42,1.19-3.66a4,4,0,0,1,7.66,2.3c-.41,1.35-.84,2.7-1.3,4A4,4,0,0,1,179,127.73Z"/><path class="cls-1" d="M184,100h-.09A4,4,0,0,1,180,95.91c0-.63,0-1.27,0-1.91a4,4,0,0,1,8,0c0,.7,0,1.39,0,2.09A4,4,0,0,1,184,100Z"/></g><g class="cls-2"><path class="cls-1" d="M44.59,75.23a4,4,0,0,1-.52-8c18.53-2.42,44.69-8.72,64.12-25a4,4,0,0,1,5.13,6.14C92.42,65.91,64.69,72.63,45.11,75.2Z"/></g><g class="cls-2"><path class="cls-1" d="M86.13,78.37H85.3a4,4,0,0,1,.07-8h.45c3.88,0,36.25-.44,64.65-14.26a4,4,0,1,1,3.5,7.2C124.37,77.71,91.83,78.37,86.13,78.37Z"/></g><path class="cls-1" d="M117.44,151H69.87a4,4,0,0,1-4-4c0-.4,0-1.46,13.78-94.38a4,4,0,0,1,3.95-3.41h21.63a4,4,0,0,1,4,3.48l12.21,93.79a4,4,0,0,1-4,4.52Zm-43-8h38.44L101.72,57.25H87.06C82.51,87.89,76.37,129.57,74.45,143Z"/><path class="cls-1" d="M130.22,151H58.4a4,4,0,0,1,0-8h71.82a4,4,0,0,1,0,8Z"/><path class="cls-1" d="M124.08,79.52H64.54a4,4,0,0,1,0-8h59.54a4,4,0,1,1,0,8Z"/><path class="cls-1" d="M108.34,127.62a4,4,0,0,1-1.82-.44s-6.91-3.54-13.81-7.15c-4-2.1-7.23-3.8-9.53-5-5.12-2.79-6.67-3.63-6.33-6.52.28-2.29.29-2.45,21.41-15.65l-16.09-13a4,4,0,1,1,5-6.21l20.44,16.56a4,4,0,0,1,1.47,3.36,4,4,0,0,1-1.87,3.14c-6,3.76-13.93,8.77-19,12,5.66,3,14.92,7.85,21.88,11.41a4,4,0,0,1-1.83,7.56Z"/></g></g></svg>