<svg xmlns="http://www.w3.org/2000/svg" viewBox="0 0 188 188"><defs><style>.cls-1{fill:#fff;}.cls-2{opacity:0.2;}</style></defs><title>资源 3</title><g id="图层_2" data-name="图层 2"><g id="图层_1-2" data-name="图层 1"><path class="cls-1" d="M94,188a94,94,0,1,1,94-94,4,4,0,0,1-8,0,86,86,0,1,0-86,86,4,4,0,0,1,0,8Z"/><g class="cls-2"><path class="cls-1" d="M94,188a4,4,0,0,1,0-8l1.92,0a4,4,0,1,1,.16,8Z"/><path class="cls-1" d="M119.88,184.22a4,4,0,0,1-1.15-7.83c1.22-.36,2.46-.76,3.68-1.19a4,4,0,0,1,2.64,7.55c-1.34.47-2.69.91-4,1.3A3.82,3.82,0,0,1,119.88,184.22ZM145.26,172A4,4,0,0,1,143,164.7c1.05-.73,2.1-1.49,3.12-2.27a4,4,0,0,1,4.85,6.36c-1.11.85-2.26,1.68-3.41,2.48A4,4,0,0,1,145.26,172Zm20.35-19.47a4,4,0,0,1-3.18-6.43c.77-1,1.54-2.06,2.27-3.12a4,4,0,1,1,6.57,4.57c-.8,1.15-1.63,2.3-2.48,3.41A4,4,0,0,1,165.61,152.52ZM179,127.73a4.11,4.11,0,0,1-1.32-.22,4,4,0,0,1-2.45-5.1c.42-1.19.82-2.43,1.19-3.66a4,4,0,1,1,7.66,2.3c-.41,1.35-.84,2.7-1.3,4A4,4,0,0,1,179,127.73Z"/><path class="cls-1" d="M184,100h-.09A4,4,0,0,1,180,95.91c0-.63,0-1.27,0-1.91a4,4,0,0,1,8,0c0,.7,0,1.39,0,2.09A4,4,0,0,1,184,100Z"/></g><path class="cls-1" d="M49.52,147.09a4,4,0,0,1-3.09-6.54l80.45-98.17a4,4,0,1,1,6.19,5.07L52.62,145.62A4,4,0,0,1,49.52,147.09Z"/><path class="cls-1" d="M117.71,145.94a17.43,17.43,0,1,1,17.42-17.43A17.44,17.44,0,0,1,117.71,145.94Zm0-26.85a9.43,9.43,0,1,0,9.42,9.42A9.43,9.43,0,0,0,117.71,119.09Z"/><path class="cls-1" d="M62.75,73.82A17.43,17.43,0,1,1,80.17,56.39,17.44,17.44,0,0,1,62.75,73.82Zm0-26.85a9.43,9.43,0,1,0,9.42,9.42A9.43,9.43,0,0,0,62.75,47Z"/></g></g></svg>