<svg xmlns="http://www.w3.org/2000/svg" viewBox="0 0 188.06 188.1"><defs><style>.cls-1{fill:#fff;}</style></defs><title>资源 7</title><g id="图层_2" data-name="图层 2"><g id="图层_1-2" data-name="图层 1"><path class="cls-1" d="M94.05,188.1a93.93,93.93,0,0,1-33.4-6.17,4,4,0,1,1,2.84-7.47,86,86,0,0,0,109-115.69A86,86,0,0,0,11.6,118.68l44-36.62a4,4,0,0,1,5.69.59l22.1,27.74,46.51-34.83L107,74.23a4,4,0,1,1,.46-8l33.7,2a4,4,0,0,1,2.24,7.14L141,77.22l-55.95,41.9a4,4,0,0,1-5.53-.71l-22-27.58L12.23,128.56a4,4,0,0,1-6.3-1.67A93.86,93.86,0,1,1,94.05,188.1Z"/></g></g></svg>