<svg width="188" height="189" viewBox="0 0 188 189" fill="none" xmlns="http://www.w3.org/2000/svg">
<path d="M94 188.1C42.2 188.1 0 145.9 0 94.1001C0 42.3001 42.2 0.100098 94 0.100098C145.8 0.100098 188 42.3001 188 94.1001C188 96.3001 186.2 98.1001 184 98.1001C181.8 98.1001 180 96.3001 180 94.1001C180 46.7001 141.4 8.1001 94 8.1001C46.6 8.1001 8 46.7001 8 94.1001C8 141.5 46.6 180.1 94 180.1C96.2 180.1 98 181.9 98 184.1C98 186.3 96.2 188.1 94 188.1Z" fill="#0062FF"/>
<g opacity="0.2">
<g opacity="0.2">
<path opacity="0.2" d="M94 188.1C91.8 188.1 90 186.3 90 184.1C90 181.9 91.8 180.1 94 180.1C94.6 180.1 95.3 180.1 95.9 180.1C98.1 180.1 99.9 181.8 100 184C100 186.2 98.3 188 96.1 188.1C95.4 188 94.7 188.1 94 188.1Z" fill="#0062FF"/>
</g>
<g opacity="0.2">
<path opacity="0.2" d="M119.9 184.3C118.2 184.3 116.6 183.2 116.1 181.4C115.5 179.3 116.7 177.1 118.8 176.4C120 176 121.3 175.6 122.5 175.2C124.6 174.5 126.9 175.6 127.6 177.7C128.3 179.8 127.2 182.1 125.1 182.8C123.8 183.3 122.4 183.7 121.1 184.1C120.7 184.2 120.3 184.3 119.9 184.3ZM145.3 172C144 172 142.8 171.4 142 170.3C140.7 168.5 141.2 166 143 164.7C144.1 164 145.1 163.2 146.1 162.4C147.9 161.1 150.4 161.4 151.7 163.2C153 165 152.7 167.5 150.9 168.8C149.8 169.6 148.6 170.5 147.5 171.3C146.9 171.8 146.1 172 145.3 172ZM165.6 152.6C164.8 152.6 163.9 152.3 163.2 151.8C161.4 150.5 161.1 148 162.4 146.2C163.2 145.2 163.9 144.1 164.7 143.1C166 141.3 168.4 140.8 170.3 142.1C172.1 143.4 172.6 145.9 171.3 147.7C170.5 148.9 169.7 150 168.8 151.1C168 152 166.8 152.6 165.6 152.6ZM179 127.8C178.6 127.8 178.1 127.7 177.7 127.6C175.6 126.9 174.5 124.6 175.2 122.5C175.6 121.3 176 120.1 176.4 118.8C177 116.7 179.3 115.5 181.4 116.1C183.5 116.7 184.7 119 184.1 121.1C183.7 122.5 183.3 123.8 182.8 125.1C182.2 126.8 180.6 127.8 179 127.8Z" fill="#0062FF"/>
</g>
<g opacity="0.2">
<path opacity="0.2" d="M184 100.1C184 100.1 183.9 100.1 184 100.1C181.7 100.1 180 98.2001 180 96.0001C180 95.4001 180 94.7001 180 94.1001C180 91.9001 181.8 90.1001 184 90.1001C186.2 90.1001 188 91.9001 188 94.1001C188 94.8001 188 95.5001 188 96.2001C188 98.3001 186.2 100.1 184 100.1Z" fill="#0062FF"/>
</g>
</g>
<path d="M49.5001 147.1C48.6001 147.1 47.7001 146.8 47.0001 146.2C45.3001 144.8 45.0001 142.3 46.4001 140.6L126.9 42.4C128.3 40.7 130.8 40.4 132.5 41.8C134.2 43.2 134.5 45.7 133.1 47.4L52.6 145.6C51.8 146.6 50.7001 147.1 49.5001 147.1Z" fill="#0062FF"/>
<path d="M117.7 146C108.1 146 100.3 138.2 100.3 128.6C100.3 119 108.1 111.2 117.7 111.2C127.3 111.2 135.1 119 135.1 128.6C135.1 138.2 127.3 146 117.7 146ZM117.7 119.1C112.5 119.1 108.3 123.3 108.3 128.5C108.3 133.7 112.5 137.9 117.7 137.9C122.9 137.9 127.1 133.7 127.1 128.5C127.2 123.4 122.9 119.1 117.7 119.1Z" fill="#0062FF"/>
<path d="M62.7999 73.9C53.1999 73.9 45.3999 66.1 45.3999 56.5C45.3999 46.9 53.1999 39 62.7999 39C72.3999 39 80.1999 46.8 80.1999 56.4C80.1999 66 72.3999 73.9 62.7999 73.9ZM62.7999 47C57.5999 47 53.3999 51.2 53.3999 56.4C53.3999 61.6 57.5999 65.8 62.7999 65.8C67.9999 65.8 72.1999 61.6 72.1999 56.4C72.1999 51.2 67.9999 47 62.7999 47Z" fill="#0062FF"/>
</svg>
