<?xml version="1.0" standalone="no"?><!DOCTYPE svg PUBLIC "-//W3C//DTD SVG 1.1//EN" "http://www.w3.org/Graphics/SVG/1.1/DTD/svg11.dtd"><svg t="1592982792300" class="icon" viewBox="0 0 1024 1024" version="1.1" xmlns="http://www.w3.org/2000/svg" p-id="3919" xmlns:xlink="http://www.w3.org/1999/xlink" width="48" height="48"><defs><style type="text/css"></style></defs><path d="M703.296703 345.084249c-11.252747 11.252747-15.003663 30.007326-3.750915 41.260073 41.260073 48.761905 63.765568 108.776557 63.765567 172.542125h-3.750915c-78.769231-7.501832-146.285714 48.761905-153.787546 127.531135s48.761905 146.285714 127.531135 153.787546c78.769231 7.501832 146.285714-48.761905 153.787546-127.531135 3.750916-52.512821-22.505495-105.025641-67.516483-135.032967 3.750916-37.509158 0-78.769231-11.252748-116.278389-11.252747-41.260073-33.758242-82.520147-63.765567-116.278388-7.501832-11.252747-26.25641-11.252747-41.260074 0z m131.282052 360.087912c-3.750916 45.010989-45.010989 78.769231-90.021978 75.018315-45.010989-3.750916-78.769231-45.010989-75.018315-90.021978s45.010989-78.769231 90.021978-75.018315c45.010989 3.750916 78.769231 45.010989 75.018315 90.021978zM279.443223 457.611722c3.750916-11.252747 11.252747-22.505495 15.003663-30.007326 22.505495-37.509158 52.512821-67.516484 90.021978-90.021978 37.509158 67.516484 120.029304 93.772894 191.296704 60.014652s93.772894-120.029304 60.014652-191.296704c-37.509158-67.516484-120.029304-93.772894-191.296704-60.014652-48.761905 26.25641-78.769231 78.769231-75.018315 131.282052-52.512821 26.25641-93.772894 67.516484-123.780219 120.029304-7.501832 11.252747-15.003663 26.25641-18.754579 37.509157-7.501832 15.003663 0 33.758242 15.003663 37.509158 15.003663 7.501832 30.007326 0 37.509157-15.003663zM515.750916 187.545788c45.010989 3.750916 78.769231 45.010989 75.018315 90.021978-3.750916 45.010989-45.010989 78.769231-90.021978 75.018315s-78.769231-45.010989-75.018315-90.021978c7.501832-45.010989 45.010989-78.769231 90.021978-75.018315zM271.941392 828.952381c22.505495 0 48.761905-3.750916 71.267399-15.003663 7.501832 3.750916 15.003663 11.252747 26.25641 15.003663 63.765568 37.509158 135.032967 48.761905 206.300367 37.509157 15.003663-3.750916 26.25641-18.754579 26.25641-33.758241-3.750916-15.003663-18.754579-26.25641-33.758242-26.256411-56.263736 11.252747-116.278388 0-165.040293-30.007326l-3.750916-3.750915c48.761905-60.014652 41.260073-150.03663-18.754578-198.798535s-150.03663-41.260073-198.798535 18.754579c-48.761905 60.014652-41.260073 150.03663 18.754579 198.798534 15.003663 22.505495 41.260073 33.758242 71.267399 37.509158z m-52.512821-90.021978c-30.007326-33.758242-22.505495-86.271062 11.252748-116.278388s86.271062-22.505495 116.278388 11.252747c30.007326 33.758242 22.505495 86.271062-11.252747 116.278388-15.003663 15.003663-37.509158 22.505495-60.014652 18.754579-22.505495-3.750916-41.260073-11.252747-56.263737-30.007326z" fill="#92929D" p-id="3920"></path></svg>