<?xml version="1.0" standalone="no"?><!DOCTYPE svg PUBLIC "-//W3C//DTD SVG 1.1//EN" "http://www.w3.org/Graphics/SVG/1.1/DTD/svg11.dtd"><svg t="1591773012764" class="icon" viewBox="0 0 1024 1024" version="1.1" xmlns="http://www.w3.org/2000/svg" p-id="5887" xmlns:xlink="http://www.w3.org/1999/xlink" width="200" height="200"><defs><style type="text/css"></style></defs><path d="M653.531509 281.748368a29.560854 29.560854 0 0 0-2.516616 41.918568 253.239234 253.239234 0 0 1 64.15494 171.205047l-2.178563-0.225369a141.531509 141.531509 0 1 0 60.549043 19.907564 316.267332 316.267332 0 0 0-13.03382-114.750202 309.769203 309.769203 0 0 0-65.131539-115.689238 29.598415 29.598415 0 0 0-41.918568-2.516616z m128.835742 361.341061a82.297117 82.297117 0 1 1-74.55946-89.39623 81.808818 81.808818 0 0 1 74.55946 89.39623zM227.58477 395.071235a257.934414 257.934414 0 0 1 15.512875-31.776979 253.164111 253.164111 0 0 1 89.959651-91.199179 141.04321 141.04321 0 1 0-16.301665-58.67097 312.022889 312.022889 0 0 0-125.004476 120.384418 317.243929 317.243929 0 0 0-19.081211 39.063898 29.598415 29.598415 0 1 0 54.877265 22.198812z m237.876605-271.193603a82.297117 82.297117 0 1 1-89.396229 74.521898 81.733695 81.733695 0 0 1 89.396229-74.521898z m-246.928912 641.925024a140.630034 140.630034 0 0 0 71.855036-12.320153c7.54985 5.333725 16.602157 11.080625 25.391534 16.15142a310.633116 310.633116 0 0 0 205.911819 37.749248 29.635977 29.635977 0 0 0-9.615729-58.483164 251.436285 251.436285 0 0 1-166.810359-30.575013l-5.183479-3.004915a141.493948 141.493948 0 1 0-121.623945 50.5577z m-50.445015-88.194263a82.259555 82.259555 0 1 1 55.778739 29.222801 81.771257 81.771257 0 0 1-55.778739-29.222801z" fill="#92929D" p-id="5888"></path></svg>