<?xml version="1.0" standalone="no"?><!DOCTYPE svg PUBLIC "-//W3C//DTD SVG 1.1//EN" "http://www.w3.org/Graphics/SVG/1.1/DTD/svg11.dtd"><svg t="1591773029272" class="icon" viewBox="0 0 1024 1024" version="1.1" xmlns="http://www.w3.org/2000/svg" p-id="6400" xmlns:xlink="http://www.w3.org/1999/xlink" width="200" height="200"><defs><style type="text/css"></style></defs><path d="M512 1024C228.977778 1024 0 795.022222 0 512S228.977778 0 512 0s512 228.977778 512 512-228.977778 512-512 512z m0-967.111111C261.688889 56.888889 56.888889 261.688889 56.888889 512s204.8 455.111111 455.111111 455.111111 455.111111-204.8 455.111111-455.111111S762.311111 56.888889 512 56.888889z" fill="#0062FF" p-id="6401"></path><path d="M315.733333 389.688889h99.555556c55.466667 0 83.911111 24.177778 83.911111 71.111111 0 48.355556-28.444444 72.533333-83.911111 72.533333h-71.111111v99.555556h-28.444445V389.688889z m28.444445 24.177778v95.288889h69.688889c19.911111 0 34.133333-4.266667 44.088889-11.377778 9.955556-8.533333 14.222222-19.911111 14.222222-35.555556 0-17.066667-4.266667-28.444444-14.222222-35.555555-9.955556-8.533333-24.177778-11.377778-42.666667-11.377778h-71.111111zM536.177778 389.688889h105.244444c24.177778 0 44.088889 5.688889 56.888889 17.066667 14.222222 11.377778 21.333333 28.444444 21.333333 51.2 0 12.8-4.266667 25.6-11.377777 35.555555-8.533333 11.377778-18.488889 17.066667-32.711111 21.333333 22.755556 5.688889 35.555556 19.911111 38.4 44.088889l4.266666 36.977778c1.422222 14.222222 5.688889 27.022222 12.8 35.555556h-29.866666c-5.688889-8.533333-8.533333-19.911111-9.955556-32.711111l-2.844444-32.711112c-1.422222-14.222222-7.111111-25.6-15.644445-31.288888-8.533333-5.688889-19.911111-8.533333-35.555555-8.533334h-73.955556v105.244445h-28.444444v-241.777778z m28.444444 24.177778v91.022222h73.955556c17.066667 0 31.288889-4.266667 41.244444-12.8 8.533333-8.533333 12.8-18.488889 12.8-32.711111 0-15.644444-4.266667-25.6-12.8-34.133334-8.533333-7.111111-22.755556-11.377778-41.244444-11.377777h-73.955556z" fill="#0062FF" p-id="6402"></path></svg>