<?xml version="1.0" standalone="no"?><!DOCTYPE svg PUBLIC "-//W3C//DTD SVG 1.1//EN" "http://www.w3.org/Graphics/SVG/1.1/DTD/svg11.dtd"><svg class="icon" width="200px" height="200.00px" viewBox="0 0 1024 1024" version="1.1" xmlns="http://www.w3.org/2000/svg"><path fill="#ffffff" d="M868.745408 732.022595a152.42749 152.42749 0 0 0 37.064435-101.927197 164.010126 164.010126 0 0 0-120.459414-157.523849 272.423599 272.423599 0 0 0-148.257741-208.487448 152.42749 152.42749 0 0 0 37.064435-101.927197 162.156904 162.156904 0 0 0-324.313808 0 161.693599 161.693599 0 0 0 37.064435 101.927197 277.983264 277.983264 0 0 0-148.25774 208.487448 164.010126 164.010126 0 0 0-120.459415 157.523849 161.693599 161.693599 0 0 0 37.064435 101.927197A281.689708 281.689708 0 0 0 2.364235 977.574478a43.550711 43.550711 0 0 0 46.330544 46.330544 43.550711 43.550711 0 0 0 46.330544-46.330544 185.322176 185.322176 0 0 1 370.644352 0 43.550711 43.550711 0 0 0 46.330544 46.330544 43.550711 43.550711 0 0 0 46.330544-46.330544 185.322176 185.322176 0 0 1 370.644352 0 46.330544 46.330544 0 0 0 92.661088 0 273.35021 273.35021 0 0 0-152.890795-245.551883zM507.367165 92.661088a71.349038 71.349038 0 0 1 69.495816 69.495816 69.495816 69.495816 0 0 1-138.991632 0A71.349038 71.349038 0 0 1 507.367165 92.661088z m-231.65272 602.297072a69.495816 69.495816 0 1 1 0-138.991632 69.495816 69.495816 0 0 1 0 138.991632z m338.212971 32.431381a297.442092 297.442092 0 0 0-106.560251 92.661088 342.846026 342.846026 0 0 0-106.560251-92.661088 161.693599 161.693599 0 0 0 37.064435-101.927197A164.473431 164.473431 0 0 0 326.678043 472.571549 188.102009 188.102009 0 0 1 507.367165 324.313808a188.102009 188.102009 0 0 1 180.689121 148.257741 159.840377 159.840377 0 0 0-111.193305 152.890795 152.42749 152.42749 0 0 0 37.064435 101.927197z m125.092469-32.431381a69.495816 69.495816 0 1 1 69.495816-69.495816 71.349038 71.349038 0 0 1-69.495816 69.495816z"  /></svg>