<?xml version="1.0" standalone="no"?><!DOCTYPE svg PUBLIC "-//W3C//DTD SVG 1.1//EN" "http://www.w3.org/Graphics/SVG/1.1/DTD/svg11.dtd"><svg t="1597977798985" class="icon" viewBox="0 0 1024 1024" version="1.1" xmlns="http://www.w3.org/2000/svg" p-id="4409" xmlns:xlink="http://www.w3.org/1999/xlink" width="16" height="16"><defs><style type="text/css"></style></defs><path d="M515.36 1024a628.992 628.992 0 0 1-217.6-44.8 513.92 513.92 0 0 1-6.4-928 63.04 63.04 0 0 1 51.2 115.2 395.264 395.264 0 0 0-217.6 377.6 384 384 0 0 0 224 313.6 393.344 393.344 0 0 0 192 32 336.448 336.448 0 0 0 108.8-25.6 388.8 388.8 0 0 0 243.2-390.4 380.8 380.8 0 0 0-128-256 63.488 63.488 0 1 1 83.2-96 514.816 514.816 0 0 1 172.8 339.2 522.176 522.176 0 0 1-326.4 524.8 502.4 502.4 0 0 1-140.8 32c-6.4 6.4-25.6 6.4-38.4 6.4z" p-id="4410"></path><path d="M496.16 19.2l224-19.2-134.4 358.4h198.4l-384 467.2 134.4-352-166.4 12.8z" p-id="4411"></path></svg>