<?xml version="1.0" standalone="no"?><!DOCTYPE svg PUBLIC "-//W3C//DTD SVG 1.1//EN" "http://www.w3.org/Graphics/SVG/1.1/DTD/svg11.dtd"><svg class="icon" width="200px" height="199.22px" viewBox="0 0 1028 1024" version="1.1" xmlns="http://www.w3.org/2000/svg"><path fill="#ffffff" d="M432.863283 102.398231A418.899951 418.899951 0 0 0 97.743322 511.989295v41.889995a46.544439 46.544439 0 0 1-41.889995 51.198883 46.544439 46.544439 0 0 1-51.198883-41.889995c0-18.617776-4.654444-32.581107-4.654444-51.198883A511.988829 511.988829 0 0 1 511.988829 0.000465a48.871661 48.871661 0 0 1 41.889995 23.27222 42.35544 42.35544 0 0 1 0 46.544439L460.789946 232.722661a51.664327 51.664327 0 0 1-65.162214 18.617775A50.267994 50.267994 0 0 1 377.009956 186.178222z m228.067751-37.235551a46.544439 46.544439 0 0 1 60.507771-23.272219A511.988829 511.988829 0 0 1 1028.632103 511.989295a480.338611 480.338611 0 0 1-69.816659 255.994414 49.337105 49.337105 0 0 1-83.77999 0l-93.088878-162.905536a46.544439 46.544439 0 0 1 83.77999-46.544439l46.544439 83.77999A401.678509 401.678509 0 0 0 930.888781 511.989295a418.899951 418.899951 0 0 0-251.339971-386.318844 48.871661 48.871661 0 0 1-18.617776-60.507771zM516.643273 418.900417a93.088878 93.088878 0 1 0 93.088878 93.088878 93.088878 93.088878 0 0 0-93.088878-93.088878z m-186.177756 93.088878a186.177756 186.177756 0 1 1 186.177756 186.177756 186.177756 186.177756 0 0 1-186.177756-186.177756z m-255.994415 209.449975a48.871661 48.871661 0 0 1 41.889996-23.272219h195.486644a46.544439 46.544439 0 0 1 0 93.088878H209.449976a418.899951 418.899951 0 0 0 311.847741 139.633317 428.674283 428.674283 0 0 0 251.339971-83.77999 46.544439 46.544439 0 0 1 55.853327 74.471102 498.025498 498.025498 0 0 1-307.193298 102.397766 506.868941 506.868941 0 0 1-442.172171-255.994415 35.839218 35.839218 0 0 1-4.654444-46.544439z"  /></svg>