<?xml version="1.0" standalone="no"?><!DOCTYPE svg PUBLIC "-//W3C//DTD SVG 1.1//EN" "http://www.w3.org/Graphics/SVG/1.1/DTD/svg11.dtd"><svg t="1591773154298" class="icon" viewBox="0 0 1024 1024" version="1.1" xmlns="http://www.w3.org/2000/svg" p-id="7866" xmlns:xlink="http://www.w3.org/1999/xlink" width="200" height="200"><defs><style type="text/css"></style></defs><path d="M381.863094 1015.349444a9.211241 9.211241 0 0 0 14.764684 6.754909l161.21006-124.525293 0.266992-0.213594a8.703955 8.703955 0 0 0-0.266992-13.750112l-161.076564-124.525294-0.240293-0.186894a9.157842 9.157842 0 0 0-14.55109 7.208797v84.876909h-169.273233V275.45988l1.682052-0.560684a141.506015 141.506015 0 1 0-92.753188 0.560684v635.228511a20.077835 20.077835 0 0 0 20.211331 19.383654h239.999541v85.277399z m-214.742053-811.657142a59.29903 59.29903 0 1 1 60.633993-59.29903 59.99321 59.99321 0 0 1-60.633993 59.29903z m619.422556 819.800412a137.901616 137.901616 0 0 0 45.388722-269.181819V435.97576h-90.777444v318.335135a137.901616 137.901616 0 0 0 45.388722 269.181819z m0-79.003075a59.272331 59.272331 0 1 1 60.553895-59.245631 59.913113 59.913113 0 0 1-60.527196 59.27233zM487.271725 334.865707V204.733572h83.622045a111.068872 111.068872 0 0 0 77.748211-27.900714 99.428 99.428 0 0 0 2.322834-141.31912A116.702413 116.702413 0 0 0 564.032063 6.518354h-137.073939v328.400752z m71.580684-180.219924h-71.340391v-98.787218h65.947143a66.187436 66.187436 0 0 1 49.046519 14.524391 48.99312 48.99312 0 0 1 13.616616 34.709022 46.51009 46.51009 0 0 1-14.711285 35.963888 60.874286 60.874286 0 0 1-42.531903 13.616616z m230.227617 180.219924V199.927708h85.1973l52.19703 134.937999h64.078196l-58.738346-145.030315a86.879353 86.879353 0 0 0 60.580594-87.066248 90.777444 90.777444 0 0 0-28.568196-69.418045 127.11512 127.11512 0 0 0-89.389082-26.699248h-145.911391v328.400751z m75.318578-181.554887H789.080026V53.322136h80.23124a65.626752 65.626752 0 0 1 44.053759 13.50982 44.37415 44.37415 0 0 1 15.752557 35.403203 46.590188 46.590188 0 0 1-16.019549 37.378947 73.796722 73.796722 0 0 1-48.672729 13.803511z" fill="#0062FF" p-id="7867"></path></svg>