<?xml version="1.0" standalone="no"?><!DOCTYPE svg PUBLIC "-//W3C//DTD SVG 1.1//EN" "http://www.w3.org/Graphics/SVG/1.1/DTD/svg11.dtd"><svg class="icon" width="200px" height="200.00px" viewBox="0 0 1024 1024" version="1.1" xmlns="http://www.w3.org/2000/svg"><path fill="#ffffff" d="M915.321502 0.005306H92.942343A48.812182 48.812182 0 0 0 45.191295 53.062026v917.881254a48.812182 48.812182 0 0 0 47.751048 53.05672h355.480024a53.05672 53.05672 0 0 0 0-106.11344H140.693391V106.118745h721.571391v371.39704a47.751048 47.751048 0 1 0 95.502096 0V53.062026a42.975943 42.975943 0 0 0-42.445376-53.05672z"  /><path fill="#ffffff" d="M787.985374 806.467448h-90.196424V689.742665h42.445376v74.279407h47.751048z"  /><path fill="#ffffff" d="M772.068358 334.262641h-530.567199a49.873317 49.873317 0 0 1-53.05672-53.05672 49.873317 49.873317 0 0 1 53.05672-53.05672h530.567199a49.873317 49.873317 0 0 1 53.05672 53.05672 53.05672 53.05672 0 0 1-53.05672 53.05672zM559.841478 535.878177h-318.340319a49.873317 49.873317 0 0 1-53.05672-53.05672 49.873317 49.873317 0 0 1 53.05672-53.05672h318.340319a49.873317 49.873317 0 0 1 53.05672 53.05672 53.05672 53.05672 0 0 1-53.05672 53.05672zM347.614599 748.105056h-106.11344a53.05672 53.05672 0 0 1 0-106.113439h106.11344a49.873317 49.873317 0 0 1 53.05672 53.05672 53.05672 53.05672 0 0 1-53.05672 53.056719z"  /><path fill="#ffffff" d="M724.31731 594.240569a175.087176 175.087176 0 1 1-175.087175 175.087175 176.678877 176.678877 0 0 1 175.087175-175.087175z m0-63.668064a238.75524 238.75524 0 1 0 238.75524 238.755239 237.694105 237.694105 0 0 0-238.75524-238.755239z"  /><path fill="#ffffff" d="M724.31731 1018.694328a254.672256 254.672256 0 1 1 254.672256-254.672256 258.386226 258.386226 0 0 1-254.672256 254.672256z m0-477.510479a228.143896 228.143896 0 1 0 0 456.287791 226.552194 226.552194 0 0 0 228.143896-228.143896 233.449568 233.449568 0 0 0-228.143896-228.143895z m0 413.842415a184.637385 184.637385 0 0 1-185.698519-185.69852 187.820788 187.820788 0 0 1 185.698519-185.698519 184.637385 184.637385 0 0 1 185.69852 185.698519 187.820788 187.820788 0 0 1-185.69852 185.69852z m0-350.174351a159.17016 159.17016 0 0 0 0 318.340319 163.414697 163.414697 0 0 0 159.17016-159.17016 159.17016 159.17016 0 0 0-159.17016-159.170159z"  /></svg>