<?xml version="1.0" standalone="no"?><!DOCTYPE svg PUBLIC "-//W3C//DTD SVG 1.1//EN" "http://www.w3.org/Graphics/SVG/1.1/DTD/svg11.dtd"><svg class="icon" width="200px" height="200.00px" viewBox="0 0 1024 1024" version="1.1" xmlns="http://www.w3.org/2000/svg"><path fill="#ffffff" d="M51.294441 0.104938a48.118112 48.118112 0 0 1 51.18948 51.189481v870.22117h870.22117a51.189481 51.189481 0 0 1 0 102.378961H51.294441a48.118112 48.118112 0 0 1-51.189481-51.189481V51.294419a55.284639 55.284639 0 0 1 51.189481-51.189481z m614.273766 0a48.118112 48.118112 0 0 1 51.189481 51.189481v716.652728a51.189481 51.189481 0 0 1-102.378961 0V51.294419a55.284639 55.284639 0 0 1 51.18948-51.189481z m204.757923 204.757923a48.118112 48.118112 0 0 1 51.18948 51.18948v511.894806a51.189481 51.189481 0 0 1-102.378961 0V256.052341a55.284639 55.284639 0 0 1 51.189481-51.18948zM460.810285 409.620783a48.118112 48.118112 0 0 1 51.189481 51.18948v307.136884a48.118112 48.118112 0 0 1-51.189481 51.18948 48.118112 48.118112 0 0 1-51.189481-51.18948V460.810263a55.284639 55.284639 0 0 1 51.189481-51.18948z m-204.757922 204.757922a48.118112 48.118112 0 0 1 51.18948 51.189481v102.378961a48.118112 48.118112 0 0 1-51.18948 51.18948 48.118112 48.118112 0 0 1-51.189481-51.18948v-102.378961a55.284639 55.284639 0 0 1 51.189481-51.189481z"  /></svg>