<?xml version="1.0" standalone="no"?><!DOCTYPE svg PUBLIC "-//W3C//DTD SVG 1.1//EN" "http://www.w3.org/Graphics/SVG/1.1/DTD/svg11.dtd"><svg t="1593408499526" class="icon" viewBox="0 0 5561 1024" version="1.1" xmlns="http://www.w3.org/2000/svg" p-id="2817" xmlns:xlink="http://www.w3.org/1999/xlink" width="260.671875" height="48"><defs><style type="text/css"></style></defs><path d="M5103.213115 805.096944h392.10848a41.034608 41.034608 0 0 1 41.034608 41.034608v136.782028a41.08642 41.08642 0 0 1-41.034608 41.034609H4990.989678a41.08642 41.08642 0 0 1-34.558186-18.911152l-358.89739-559.562841a27.356406 27.356406 0 0 1 22.952439-42.122648l611.374216-0.77717c80.67031 0 110.876341-48.288201 110.876341-91.654321s-30.206031-91.757944-110.772718-91.757944h-750.228699a41.034608 41.034608 0 0 1-34.506375-18.807529L4345.523578 42.485327a27.356406 27.356406 0 0 1 22.952439-42.174459h863.488363a310.868245 310.868245 0 1 1 0 621.166566h-211.49403a27.356406 27.356406 0 0 0-22.952439 42.122647l82.431897 128.544019a27.356406 27.356406 0 0 0 23.263307 12.952844z" fill="#E9E9E9" p-id="2818"></path><path d="M1176.273629 713.131755c0 171.236592-159.579033 310.868245-355.633273 310.868245H67.717466a41.034608 41.034608 0 0 1-41.034608-41.034608v-136.782028a41.034608 41.034608 0 0 1 41.034608-41.034609H820.692168c80.566687 0 136.782028-48.391824 136.782028-91.809755S901.258854 621.736491 820.692168 621.736491H355.581461C159.47541 621.736491-0.051811 482.467517-0.051811 311.230925s159.527221-310.868245 355.633272-310.868245h711.370168a41.034608 41.034608 0 0 1 41.034609 41.034608v136.782028a41.034608 41.034608 0 0 1-41.034609 41.034608H355.581461c-80.67031 0-136.782028 48.391824-136.782028 91.757944s56.111718 91.654321 136.782028 91.654321h465.058895c196.05424 0.155434 355.633273 139.528031 355.633273 310.505566z" fill="#E9E9E9" p-id="2819"></path><path d="M4385.521959 1005.192471L3989.527626 395.476219a27.356406 27.356406 0 0 0-45.853066 0l-396.201579 609.923498a41.449099 41.449099 0 0 1-34.972677 18.49666H2612.381299a39.94657 39.94657 0 0 1-41.034608-38.703096V39.273022a39.94657 39.94657 0 0 1 41.034608-38.703097h136.782028a39.94657 39.94657 0 0 1 41.08642 38.703097v752.56021a26.579235 26.579235 0 0 0 27.356406 25.905687h579.8729a27.770897 27.770897 0 0 0 23.36693-12.331107L3931.550698 19.118397a41.759968 41.759968 0 0 1 69.997167 0L4621.470957 981.825541a27.356406 27.356406 0 0 1-23.00425 42.174459h-178.541995a41.08642 41.08642 0 0 1-34.402753-18.807529z" fill="#E9E9E9" p-id="2820"></path><path d="M1976.707549 1024h-260.507589a472.157053 472.157053 0 0 1-471.483506-471.483505v-80.30763a472.105242 472.105242 0 0 1 471.483506-471.483506h260.507589a472.157053 472.157053 0 0 1 471.483505 471.483506v80.30763a472.157053 472.157053 0 0 1-471.483505 471.483505zM1691.123254 219.524793a227.659178 227.659178 0 0 0-227.607367 227.607366v130.357418a227.659178 227.659178 0 0 0 227.607367 227.659178h310.868246a227.659178 227.659178 0 0 0 227.607367-227.659178V447.183971a227.607367 227.607367 0 0 0-227.607367-227.659178z" fill="#E9E9E9" p-id="2821"></path></svg>