<?xml version="1.0" standalone="no"?><!DOCTYPE svg PUBLIC "-//W3C//DTD SVG 1.1//EN" "http://www.w3.org/Graphics/SVG/1.1/DTD/svg11.dtd"><svg t="1591773141802" class="icon" viewBox="0 0 1024 1024" version="1.1" xmlns="http://www.w3.org/2000/svg" p-id="7480" xmlns:xlink="http://www.w3.org/1999/xlink" width="200" height="200"><defs><style type="text/css"></style></defs><path d="M706.536007 983.050187a40.746083 40.746083 0 0 1-40.746083 40.746083H358.615391a40.949813 40.949813 0 0 1 0-81.95056h112.611987v-375.882616a98.401791 98.401791 0 1 1 81.950559 0v376.086346h112.611987a40.746083 40.746083 0 0 1 40.746083 40.746084z m-194.562546-982.999254a476.627307 476.627307 0 0 0-337.02104 813.699278 41.000746 41.000746 0 0 0 57.961303-57.961303 394.676747 394.676747 0 1 1 558.272271 0 41.000746 41.000746 0 1 0 57.961303 57.961303A476.729172 476.729172 0 0 0 512.024393 0z m0 196.803581a279.874658 279.874658 0 0 0-197.873166 477.798756 41.000746 41.000746 0 1 0 57.961303-57.961303 197.924098 197.924098 0 1 1 279.874658 0 41.000746 41.000746 0 1 0 57.961303 57.961303A279.874658 279.874658 0 0 0 512.024393 196.854514z" fill="#FFFFFF" p-id="7481"></path></svg>