<svg width="14" height="16" viewBox="0 0 14 16" fill="none" xmlns="http://www.w3.org/2000/svg">
<path d="M5.21621 1C4.97492 1 4.75358 1.13139 4.64162 1.34109L1.07406 8.02289C0.968733 8.22016 0.976177 8.45708 1.09368 8.6476C1.21119 8.83813 1.42166 8.95453 1.64865 8.95453H5.34775L3.94027 14.2017C3.86447 14.4843 3.9946 14.7812 4.2558 14.9217C4.51701 15.0621 4.84215 15.01 5.04419 14.7952L12.828 6.52253C13.0027 6.3368 13.0489 6.06721 12.9455 5.83567C12.8422 5.60413 12.609 5.45454 12.3513 5.45454H8.82105L11.5641 2.02952C11.7175 1.83796 11.746 1.57729 11.6374 1.35818C11.5289 1.13908 11.3024 1 11.054 1H5.21621Z" fill="#828282"/>
</svg>
