<svg width="189" height="182" viewBox="0 0 189 182" fill="none" xmlns="http://www.w3.org/2000/svg">
<path d="M88.8998 106.6C88.0998 106.6 87.2998 106.4 86.4998 106C84.1998 104.9 83.0998 102.3 83.7998 99.8001L89.1997 80.5001H79.1997C77.1997 80.5001 75.2998 79.3001 74.3998 77.5001C73.4998 75.7001 73.6998 73.7001 74.7998 72.1001C83.6998 59.8001 92.6997 47.5001 101.6 35.3001C103.2 33.2001 106 32.4001 108.4 33.6001C110.7 34.7001 111.8 37.3001 111.1 39.8001L105.7 59.2001C105.9 59.2001 106 59.2001 106.2 59.2001C107 59.1001 107.7 59.1001 108.4 59.1001H115.8C117.8 59.1001 119.7 60.3001 120.6 62.1001C121.5 63.9001 121.3 65.9001 120.2 67.5001L93.3998 104.3C92.2998 105.8 90.5998 106.6 88.8998 106.6ZM92.4998 72.5001C94.2998 72.5001 96.1998 72.9001 97.3998 74.6001C98.9998 76.8001 97.9998 79.3001 97.4998 80.7001C97.4998 80.8001 97.3998 80.9001 97.3998 81.0001L95.4998 87.9001L110.6 67.2001H108.4C108.1 67.2001 107.5 67.3001 107 67.3001C103.6 67.6001 100.8 67.7001 98.6997 66.5001L97.2998 65.7001L96.8998 64.2001C96.2998 62.2001 97.0997 60.1001 97.5997 58.7001C97.6997 58.5001 97.7998 58.3001 97.7998 58.1001L99.4998 52.1001C94.4998 59.0001 89.4998 65.9001 84.4998 72.8001H90.1997C90.2997 72.8001 90.4997 72.8001 90.6997 72.8001C91.0997 72.5001 91.7998 72.5001 92.4998 72.5001Z" fill="#0062FF"/>
<path d="M128.5 181.3C127.3 181.3 126 180.7 125.3 179.7L93.8998 136.8L57.1998 177.4C55.9998 178.7 54.0998 179.1 52.4998 178.3C6.09978 155.3 -13.0002 98.7001 10.0998 52.3001C33.0998 5.90006 89.6998 -13.1999 136.1 9.90006C182.5 32.9001 201.6 89.5001 178.5 135.9C168.4 156.3 151.2 172.4 130.1 181C129.6 181.2 129.1 181.3 128.5 181.3ZM94.2998 126.4C94.3998 126.4 94.3998 126.4 94.4998 126.4C95.6998 126.5 96.7998 127.1 97.4998 128L129.9 172.3C147.9 164.1 162.5 150 171.3 132.2C181.5 111.6 183.1 88.3001 175.8 66.5001C168.5 44.7001 153.1 27.1001 132.5 16.9001C89.9998 -4.19994 38.2998 13.2001 17.1998 55.7001C-3.4002 97.3001 12.7998 147.7 53.2998 169.6L91.1997 127.6C92.0997 126.9 93.0998 126.4 94.2998 126.4Z" fill="#0062FF"/>
<g opacity="0.18">
<path opacity="0.18" d="M151.1 112.8C150.9 112.8 150.6 112.8 150.4 112.7C148.2 112.3 146.8 110.2 147.2 108.1C147.4 106.9 147.6 105.6 147.7 104.4C147.9 102.2 149.9 100.6 152.1 100.9C154.3 101.1 155.9 103.1 155.6 105.3C155.4 106.7 155.2 108.1 155 109.5C154.7 111.5 153 112.8 151.1 112.8ZM37.1 110.7C35.1 110.7 33.4 109.3 33.1 107.3C32.9 105.9 32.7 104.5 32.6 103.1C32.4 100.9 34.1 99.0001 36.3 98.8001C38.5 98.6001 40.4 100.3 40.6 102.5C40.7 103.7 40.8 105 41 106.2C41.3 108.4 39.8 110.4 37.6 110.7C37.5 110.7 37.3 110.7 37.1 110.7ZM149.3 85.1001C147.6 85.1001 146 84.0001 145.5 82.3001C145.1 81.1001 144.7 79.9001 144.3 78.8001C143.5 76.7001 144.5 74.4001 146.6 73.6001C148.7 72.8001 151 73.8001 151.8 75.9001C152.3 77.2001 152.8 78.6001 153.2 79.9001C153.9 82.0001 152.7 84.3001 150.6 84.9001C150.1 85.1001 149.7 85.1001 149.3 85.1001ZM39.9 83.1001C39.5 83.1001 39 83.0001 38.6 82.9001C36.5 82.2001 35.4 79.9001 36.2 77.8001C36.7 76.5001 37.2 75.1001 37.8 73.8001C38.7 71.8001 41 70.9001 43.1 71.7001C45.1 72.6001 46 74.9001 45.2 77.0001C44.7 78.1001 44.2 79.3001 43.8 80.5001C43.1 82.1001 41.5 83.1001 39.9 83.1001ZM134.9 61.5001C133.9 61.5001 132.9 61.1001 132.1 60.3001C131.2 59.4001 130.3 58.6001 129.4 57.8001C127.7 56.4001 127.5 53.8001 129 52.2001C130.5 50.6001 133 50.3001 134.6 51.8001C135.7 52.7001 136.7 53.7001 137.7 54.7001C139.3 56.3001 139.3 58.8001 137.7 60.4001C137 61.1001 135.9 61.5001 134.9 61.5001ZM55.2 60.0001C54.1 60.0001 53 59.6001 52.3 58.7001C50.8 57.1001 50.9 54.5001 52.5 53.0001C53.5 52.0001 54.6 51.1001 55.7 50.2001C57.4 48.8001 59.9001 49.1001 61.3001 50.8001C62.7001 52.5001 62.4 55.0001 60.7 56.4001C59.7 57.2001 58.8 58.0001 57.9 58.8001C57.1 59.6001 56.2 60.0001 55.2 60.0001ZM111.1 47.3001C110.7 47.3001 110.3 47.2001 109.9 47.1001C108.7 46.7001 107.5 46.4001 106.3 46.1001C104.1 45.6001 102.8 43.5001 103.3 41.3001C103.8 39.1001 106 37.8001 108.1 38.3001C109.5 38.6001 110.9 39.0001 112.2 39.4001C114.3 40.0001 115.5 42.3001 114.9 44.4001C114.4 46.1001 112.8 47.3001 111.1 47.3001ZM79.5 46.7001C77.7 46.7001 76.1 45.5001 75.6 43.7001C75 41.6001 76.3 39.4001 78.4 38.8001C79.8 38.4001 81.2 38.1001 82.6 37.9001C84.8 37.5001 86.9001 38.9001 87.3001 41.1001C87.7001 43.3001 86.3 45.4001 84.1 45.8001C82.9 46.0001 81.7 46.3001 80.5 46.6001C80.2 46.6001 79.9 46.7001 79.5 46.7001Z" fill="#0062FF"/>
</g>
</svg>
