<svg xmlns="http://www.w3.org/2000/svg" viewBox="0 0 187.98 181.21"><defs><style>.cls-1{fill:#fff;}.cls-2{opacity:0.18;}</style></defs><title>资源 4</title><g id="图层_2" data-name="图层 2"><g id="图层_1-2" data-name="图层 1"><path class="cls-1" d="M88.63,106.54a5.54,5.54,0,0,1-2.4-.55,5.19,5.19,0,0,1-2.73-6.18l5.4-19.26h-10a5.49,5.49,0,0,1-4.8-3,5.2,5.2,0,0,1,.39-5.4q13.41-18.42,26.79-36.84a5.48,5.48,0,0,1,6.82-1.7,5.21,5.21,0,0,1,2.75,6.17l-5.45,19.45.47,0c.83-.08,1.54-.14,2.16-.14h7.44a5.43,5.43,0,0,1,4.79,3,5.17,5.17,0,0,1-.39,5.41l-26.8,36.83A5.42,5.42,0,0,1,88.63,106.54ZM91.21,102v0Zm-4.63-2.38h0ZM92.26,72.4a5.56,5.56,0,0,1,4.86,2c1.56,2.17.62,4.73.11,6.11,0,.13-.09.25-.12.34l-1.93,6.86,15.07-20.7H108c-.25,0-.89,0-1.44.1-3.4.31-6.17.45-8.27-.82l-1.37-.83L96.51,64c-.56-2,.19-4.06.74-5.54.09-.23.17-.43.22-.6l1.66-6-15,20.68h5.66l.48,0C90.86,72.46,91.55,72.4,92.26,72.4Z"/><path class="cls-1" d="M128.26,181.21a4,4,0,0,1-3.23-1.64l-31.37-42.9L57,177.29a4,4,0,0,1-4.75.9,94,94,0,1,1,77.58,2.72A3.85,3.85,0,0,1,128.26,181.21ZM94,126.34h.21a4,4,0,0,1,3,1.64l32.38,44.29a86,86,0,1,0-76.52-2.63l37.94-42A4,4,0,0,1,94,126.34Z"/><g class="cls-2"><path class="cls-1" d="M150.83,112.75a3.49,3.49,0,0,1-.71-.07,4,4,0,0,1-3.23-4.65c.22-1.21.4-2.45.54-3.68a4,4,0,1,1,7.95.88c-.15,1.41-.36,2.83-.61,4.23A4,4,0,0,1,150.83,112.75Zm-114-2.14a4,4,0,0,1-4-3.43c-.2-1.41-.36-2.84-.46-4.25a4,4,0,1,1,8-.59c.09,1.23.22,2.48.4,3.7a4,4,0,0,1-3.39,4.53A3.86,3.86,0,0,1,36.81,110.61ZM149.06,85.08a4,4,0,0,1-3.81-2.8c-.37-1.18-.79-2.36-1.24-3.51a4,4,0,1,1,7.45-2.92c.51,1.32,1,2.67,1.42,4a4,4,0,0,1-2.61,5A3.92,3.92,0,0,1,149.06,85.08ZM39.6,83a4,4,0,0,1-3.77-5.35c.48-1.34,1-2.67,1.58-4a4,4,0,0,1,7.33,3.22c-.5,1.13-1,2.3-1.38,3.46A4,4,0,0,1,39.6,83Zm95-21.62a4,4,0,0,1-2.81-1.16c-.87-.86-1.79-1.71-2.73-2.52a4,4,0,0,1,5.21-6.07c1.09.93,2.15,1.91,3.15,2.9a4,4,0,0,1-2.82,6.85Zm-79.72-1.5A4,4,0,0,1,52.21,53c1-1,2.14-1.89,3.24-2.78a4,4,0,1,1,5,6.26c-1,.76-1.91,1.58-2.82,2.42A4,4,0,0,1,54.91,59.91ZM110.83,47.2a3.91,3.91,0,0,1-1.17-.18c-1.19-.36-2.39-.69-3.6-1a4,4,0,0,1,1.8-7.8c1.39.32,2.78.69,4.13,1.11a4,4,0,0,1-1.16,7.83Zm-31.59-.59a4,4,0,0,1-1-7.86c1.37-.36,2.77-.68,4.17-1a4,4,0,1,1,1.5,7.86c-1.21.23-2.44.51-3.63.82A4,4,0,0,1,79.24,46.61Z"/></g></g></g></svg>