<?xml version="1.0" standalone="no"?><!DOCTYPE svg PUBLIC "-//W3C//DTD SVG 1.1//EN" "http://www.w3.org/Graphics/SVG/1.1/DTD/svg11.dtd"><svg t="1591773180998" class="icon" viewBox="0 0 1194 1024" version="1.1" xmlns="http://www.w3.org/2000/svg" p-id="8877" xmlns:xlink="http://www.w3.org/1999/xlink" width="233.203125" height="200"><defs><style type="text/css"></style></defs><path d="M1052.501333 1024h-910.222222c-79.644444 0-142.222222-62.577778-142.222222-142.222222v-739.555556c0-79.644444 62.577778-142.222222 142.222222-142.222222h910.222222c79.644444 0 142.222222 62.577778 142.222223 142.222222v739.555556c0 79.644444-62.577778 142.222222-142.222223 142.222222z m-910.222222-938.666667c-34.133333 0-56.888889 22.755556-56.888889 56.888889v739.555556c0 34.133333 22.755556 56.888889 56.888889 56.888889h910.222222c34.133333 0 56.888889-22.755556 56.888889-56.888889v-739.555556c0-34.133333-22.755556-56.888889-56.888889-56.888889h-910.222222zM312.149333 563.2v199.111111" fill="#92929D" p-id="8878"></path><path d="M312.149333 802.133333c-22.755556 0-45.511111-17.066667-45.511111-45.511111V557.511111c0-22.755556 17.066667-45.511111 45.511111-45.511111s45.511111 17.066667 45.511111 45.511111v199.111111c-5.688889 28.444444-22.755556 45.511111-45.511111 45.511111zM482.816 273.066667v489.244444M482.816 802.133333c-22.755556 0-45.511111-17.066667-45.511111-45.511111V267.377778c0-22.755556 17.066667-45.511111 45.511111-45.511111s45.511111 17.066667 45.511111 45.511111v489.244444c-5.688889 28.444444-22.755556 45.511111-45.511111 45.511111z" fill="#92929D" p-id="8879"></path><path d="M653.482667 529.066667v233.244444M653.482667 802.133333c-22.755556 0-45.511111-17.066667-45.511111-45.511111V523.377778c0-22.755556 17.066667-45.511111 45.511111-45.511111s45.511111 17.066667 45.511111 45.511111v233.244444c-5.688889 28.444444-22.755556 45.511111-45.511111 45.511111z" fill="#92929D" p-id="8880"></path><path d="M824.149333 466.488889v295.822222M824.149333 802.133333c-22.755556 0-45.511111-17.066667-45.511111-45.511111V460.8c0-22.755556 17.066667-45.511111 45.511111-45.511111s45.511111 17.066667 45.511111 45.511111v295.822222c-5.688889 28.444444-22.755556 45.511111-45.511111 45.511111z" fill="#92929D" p-id="8881"></path></svg>