<svg width="20" height="20" viewBox="0 0 20 20" fill="none" xmlns="http://www.w3.org/2000/svg">
<path d="M10 18C7.2 18 5 15.8 5 13C5 11.2 6 9.6 7.5 8.7V4.5C7.5 3.1 8.6 2 10 2C11.4 2 12.5 3.1 12.5 4.5V8.7C14 9.6 15 11.2 15 13C15 15.8 12.8 18 10 18ZM10 3C9.2 3 8.5 3.7 8.5 4.5V9.2L8 9.5C6.8 10.2 6 11.5 6 13C6 15.2 7.8 17 10 17C12.2 17 14 15.2 14 13C14 11.6 13.2 10.2 12 9.5L11.5 9.2V4.5C11.5 3.7 10.8 3 10 3Z" fill="#828282"/>
<path fill-rule="evenodd" clip-rule="evenodd" d="M10 7C9.4 7 9 7.4 9 8V10.2C7.8 10.6 7 11.7 7 13C7 14.7 8.3 16 10 16C11.7 16 13 14.7 13 13C13 11.7 12.2 10.6 11 10.2V8C11 7.4 10.6 7 10 7Z" fill="#828282" fill-opacity="0.4"/>
<path d="M8.3 5H9.8C9.9 5 10 5.1 10 5.2C10 5.3 9.9 5.5 9.7 5.5H8.3C8.1 5.5 8 5.4 8 5.2C8 5.1 8.1 5 8.3 5Z" fill="#828282"/>
<path d="M7.8 6H9.3C9.4 6 9.6 6.1 9.6 6.3C9.6 6.4 9.5 6.6 9.3 6.6H7.8C7.7 6.6 7.5 6.5 7.5 6.3C7.5 6.1 7.6 6 7.8 6Z" fill="#828282"/>
<path d="M7.8 7H9.3C9.4 7 9.6 7.1 9.6 7.3C9.6 7.4 9.5 7.6 9.3 7.6H7.8C7.7 7.6 7.5 7.5 7.5 7.3C7.5 7.1 7.6 7 7.8 7Z" fill="#828282"/>
</svg>
