<svg width="20" height="20" viewBox="0 0 20 20" fill="none" xmlns="http://www.w3.org/2000/svg">
<path d="M5.76365 7.80298L5.76362 7.80303L5.76664 7.80461C6.07297 7.96438 6.40607 8.04394 6.76432 8.04394C7.12254 8.04394 7.45183 7.96438 7.75022 7.80403L7.75022 7.80403L7.75101 7.8036C8.05634 7.63597 8.29662 7.41242 8.46919 7.13282C8.65045 6.84506 8.74146 6.53073 8.74146 6.19194C8.74146 5.85357 8.65066 5.54311 8.46918 5.26301C8.29682 4.97579 8.05654 4.75193 7.75063 4.59206C7.45232 4.42366 7.12285 4.33994 6.76432 4.33994C6.40533 4.33994 6.0717 4.42386 5.76515 4.59207C5.46725 4.75224 5.2274 4.97615 5.04686 5.26262L5.04685 5.26262L5.04635 5.26344C4.87344 5.54374 4.78717 5.85401 4.78717 6.19194C4.78717 6.52986 4.87342 6.84364 5.04566 7.13131L5.0456 7.13134L5.04759 7.1344C5.22806 7.41233 5.46727 7.63533 5.76365 7.80298ZM7.44032 5.56764L7.44026 5.5677L7.4433 5.57042C7.6378 5.74469 7.73146 5.95017 7.73146 6.19194C7.73146 6.43391 7.63758 6.64411 7.4418 6.82684C7.25532 7.00088 7.03141 7.08794 6.76432 7.08794C6.49786 7.08794 6.26935 7.00125 6.074 6.82683C5.88745 6.64483 5.79717 6.43469 5.79717 6.19194C5.79717 5.94872 5.88773 5.74287 6.07398 5.56905C6.26986 5.38622 6.49838 5.29594 6.76432 5.29594C7.03017 5.29594 7.2536 5.38611 7.44032 5.56764ZM14.4252 7.45857L14.4252 7.45859L14.4268 7.45678C14.4834 7.39337 14.5165 7.31839 14.5165 7.23418C14.5165 7.14758 14.4867 7.06835 14.4169 7.01374C14.1079 6.72623 13.7506 6.50846 13.3459 6.36055C12.9396 6.20402 12.5033 6.12618 12.0379 6.12618C11.4642 6.12618 10.9331 6.2623 10.4462 6.53493C9.9603 6.80705 9.57472 7.17493 9.29123 7.63796C9.00727 8.10177 8.86509 8.60785 8.86509 9.15418V11.9622C8.86509 12.5085 9.00727 13.0146 9.29123 13.4784C9.57472 13.9414 9.9603 14.3093 10.4462 14.5814C10.9331 14.8541 11.4642 14.9902 12.0379 14.9902C12.503 14.9902 12.939 14.9164 13.3451 14.7681L13.3451 14.7681L13.3468 14.7675C13.7526 14.611 14.1108 14.3883 14.4205 14.0993C14.4825 14.0414 14.5165 13.9673 14.5165 13.8822C14.5165 13.7945 14.4864 13.716 14.4231 13.6556C14.245 13.4656 14.1275 13.3436 14.0733 13.2931L14.0674 13.2875L14.0606 13.283C13.9875 13.2343 13.9085 13.2062 13.8251 13.2062C13.7267 13.2062 13.6393 13.2471 13.5648 13.3163C13.1563 13.682 12.6539 13.8662 12.0508 13.8662C11.6998 13.8662 11.379 13.7788 11.0863 13.6043C10.792 13.4288 10.5599 13.1969 10.3886 12.9077C10.2173 12.6107 10.1322 12.296 10.1322 11.9622V9.15418C10.1322 8.82018 10.2174 8.50976 10.3883 8.22113L10.3889 8.22015C10.5603 7.92291 10.7924 7.68729 11.0863 7.51207C11.379 7.33755 11.6998 7.25018 12.0508 7.25018C12.6539 7.25018 13.1564 7.43437 13.5648 7.80002C13.6393 7.86925 13.7267 7.91018 13.8251 7.91018C13.9085 7.91018 13.9875 7.88209 14.0606 7.83338L14.0674 7.82886L14.0733 7.82329C14.1277 7.77252 14.2459 7.64978 14.4252 7.45857ZM4.64286 3.1H15.3571C15.9003 3.1 16.3286 3.50933 16.3286 4V16C16.3286 16.4907 15.9003 16.9 15.3571 16.9H4.64286C4.09974 16.9 3.67143 16.4907 3.67143 16V4C3.67143 3.50933 4.09974 3.1 4.64286 3.1ZM4.64286 1.9C3.41077 1.9 2.4 2.83382 2.4 4V16C2.4 17.1662 3.41077 18.1 4.64286 18.1H15.3571C16.5892 18.1 17.6 17.1662 17.6 16V4C17.6 2.83382 16.5892 1.9 15.3571 1.9H4.64286Z" fill="#828282" stroke="#505050" stroke-width="0.2"/>
</svg>
