<svg width="20" height="20" viewBox="0 0 20 20" fill="none" xmlns="http://www.w3.org/2000/svg">
<path d="M7.75036 9.10191L8 8.9575V8.66911V4.5C8 3.39543 8.89543 2.5 10 2.5C11.1046 2.5 12 3.39543 12 4.5V8.66911V8.9575L12.2496 9.10191C13.596 9.88074 14.5 11.3352 14.5 13.0002C14.5 15.4855 12.4853 17.5002 10 17.5002C7.51472 17.5002 5.5 15.4855 5.5 13.0002C5.5 11.3352 6.40401 9.88074 7.75036 9.10191Z" stroke="#828282"/>
<path fill-rule="evenodd" clip-rule="evenodd" d="M10 7C9.44772 7 9 7.44772 9 8V10.1707C7.83481 10.5825 7 11.6938 7 13C7 14.6569 8.34315 16 10 16C11.6569 16 13 14.6569 13 13C13 11.6938 12.1652 10.5825 11 10.1707V8C11 7.44772 10.5523 7 10 7Z" fill="#828282" fill-opacity="0.4"/>
<rect x="8" y="5" width="2" height="0.5" rx="0.25" fill="#828282"/>
<rect x="7.5" y="6" width="2" height="0.5" rx="0.25" fill="#828282"/>
<rect x="7.5" y="7" width="2" height="0.5" rx="0.25" fill="#828282"/>
</svg>
