<svg width="20" height="20" viewBox="0 0 20 20" fill="none" xmlns="http://www.w3.org/2000/svg">
<path d="M14.1865 8.31737C14.1865 8.31737 14.3592 9.79789 13.5222 10.573C13.3422 10.7128 13.1621 10.8527 12.9187 10.9167C12.8782 10.9274 12.797 10.9487 12.7565 10.9594C12.6753 10.9807 12.6348 10.9914 12.5536 11.0128C12.3508 11.0661 12.1366 11.0762 11.9111 11.0431C11.124 11.019 10.4018 10.7466 9.76071 10.4528C9.11961 10.1591 8.6927 9.85524 8.48493 9.72493C8.83714 9.90971 10.0496 10.5618 11.6138 10.2427C11.9383 10.1574 12.2628 10.072 12.5759 9.94337C12.7673 9.84677 12.9182 9.76083 13.0983 9.62098L13.1388 9.61031C13.2086 9.54572 13.2897 9.52437 13.3595 9.45978C13.4 9.44911 13.4292 9.39519 13.4292 9.39519C13.5281 9.27668 13.6384 9.20142 13.6968 9.09358C14.1039 8.66279 14.1865 8.31737 14.1865 8.31737Z" fill="#828282"/>
<path d="M13.4698 9.38452C13.4292 9.39519 13.4 9.44911 13.4 9.44911C13.3303 9.5137 13.2605 9.57829 13.1794 9.59963L13.1388 9.61031C12.9588 9.75016 12.7673 9.84677 12.6165 9.9327C12.2741 10.1152 11.9496 10.2006 11.6543 10.2321C11.7354 10.2107 11.8166 10.1894 11.8863 10.1248C11.9739 9.96304 11.9526 9.55247 11.959 9.41206C11.9491 9.04473 11.9506 8.72066 11.819 8.38536C11.5509 7.53108 10.7377 6.91271 9.8972 7.18007C9.42182 7.35138 8.95139 7.70635 8.66597 8.10512C8.69515 8.05121 8.31524 7.59627 8.25192 7.52045C7.65929 6.75155 6.83813 6.59767 6.00263 7.04868C5.63113 7.28514 5.36351 7.58675 5.21116 7.99676C5.10579 8.25569 5.07513 8.63368 5.30417 9.17455C5.53321 9.71542 5.84486 9.91087 5.84486 9.91087C5.84486 9.91087 5.34672 9.99568 5.1439 10.049C4.94109 10.1024 4.72046 10.2529 4.5404 10.3928C4.2906 10.5972 4.06354 10.8882 4.03288 11.2662C3.89537 12.2271 4.84169 12.8568 5.67571 12.7298C5.91909 12.6658 6.16247 12.6017 6.40585 12.5377C6.44641 12.527 6.84066 12.3771 6.84066 12.3771C6.84066 12.3771 6.71106 12.8736 6.65764 13.1651C6.58146 13.3701 6.62055 13.6835 6.68881 13.943C6.75708 14.2025 6.94704 14.4299 7.1548 14.5602C7.50701 14.745 7.90127 14.595 8.18026 14.3367C8.31976 14.2075 8.40732 14.0457 8.49487 13.884C8.55324 13.7761 8.73478 13.3122 8.73478 13.3122C8.73478 13.3122 8.89061 13.4099 8.99449 13.4751C9.1325 13.67 9.31108 13.8542 9.48966 14.0384L9.5416 14.071C9.70881 14.212 9.83544 14.3636 10.0432 14.4939C10.1471 14.5591 10.251 14.6242 10.3143 14.7C10.2218 14.6781 10.1293 14.6562 10.0254 14.5911C9.88096 14.5366 9.70733 14.536 9.56288 14.4816C9.41843 14.4271 9.08898 14.3288 9.08898 14.3288C9.08898 14.3288 8.93662 14.7388 8.89606 14.7495C8.81988 14.9545 8.69176 15.1269 8.52308 15.31C7.73804 16.1177 6.38956 16.1025 5.7806 15.1067C5.49319 14.6737 5.43778 14.1334 5.67127 13.702C4.98664 14.0671 4.50631 14.0548 4.00323 13.9559C3.47738 13.7706 3.10242 13.4993 2.76307 13.0337C2.76307 13.0337 2.75169 12.9904 2.71112 13.0011C2.19319 12.3513 2.08732 11.4543 2.40341 10.6776C2.86543 9.6312 4.16345 9.2897 4.16345 9.2897C4.16345 9.2897 3.93936 8.93249 3.92798 8.88924C3.81915 8.64043 3.4976 8.07766 3.61731 7.21384C3.86957 5.20536 6.37459 4.17638 7.99615 5.22947C8.35973 5.45749 8.67633 5.83661 8.90042 6.19382C9.42922 5.73101 9.95803 5.2682 10.8667 5.26033C12.8172 5.25581 13.9931 7.58217 13.4698 9.38452Z" fill="#828282"/>
<path d="M16.1702 13.7143C15.961 13.908 13.7775 15.4998 12.6319 15.4313C11.5787 15.3847 10.9895 15.1235 10.3143 14.7C10.2104 14.6349 10.1471 14.5591 10.0432 14.4939C9.87601 14.3529 9.70881 14.212 9.5416 14.071C9.53023 14.0277 9.48966 14.0384 9.48966 14.0384C9.31108 13.8542 9.1325 13.67 8.99449 13.4751C8.67789 13.096 8.41324 12.7494 8.27522 12.5545C7.42932 11.4824 6.73082 9.8165 6.73082 9.8165C6.73082 9.8165 7.8577 11.4621 9.46145 12.6124C9.78448 12.8511 10.2 13.1117 10.5928 13.2858C10.6967 13.3509 10.8411 13.4054 10.945 13.4706C11.4822 13.6992 12.0081 13.8845 12.3894 14.0154C14.7654 14.6388 16.0307 13.8435 16.1702 13.7143Z" fill="#828282"/>
<path d="M18.5155 10.924C17.7819 10.6083 16.8944 11.0268 16.4873 11.4575C14.987 13.0083 14.2005 14.14 11.3066 12.8668C11.2027 12.8016 11.0583 12.7472 10.9658 12.7253C10.8619 12.6601 10.7694 12.6382 10.7061 12.5624C8.82974 11.5301 7.66872 9.75471 7.65734 9.71146C7.65734 9.71146 9.64942 12.008 12.7649 11.6508C14.1084 11.4823 14.8252 10.4151 16.047 10.2786C17.6567 10.1326 18.5155 10.924 18.5155 10.924Z" fill="#828282"/>
</svg>
