<svg width="20" height="20" viewBox="0 0 20 20" fill="none" xmlns="http://www.w3.org/2000/svg">
<path d="M5 3.5C5 3.22386 5.22386 3 5.5 3C5.77614 3 6 3.22386 6 3.5V16.5C6 16.7761 5.77614 17 5.5 17C5.22386 17 5 16.7761 5 16.5V3.5Z" fill="#828282"/>
<path d="M4 16.5C4 16.2239 4.22386 16 4.5 16H6.5C6.77614 16 7 16.2239 7 16.5C7 16.7761 6.77614 17 6.5 17H4.5C4.22386 17 4 16.7761 4 16.5Z" fill="#828282"/>
<path d="M13 5.5L10.5 4.875V12.5625L13 12.25V5.5Z" fill="#828282"/>
<path d="M13.5 12.1875L16 11.875V6.25L13.5 5.625V12.1875Z" fill="#828282"/>
<path d="M7 4L10 4.75V12.625L7 13V4Z" fill="#828282"/>
</svg>
