<?xml version="1.0" standalone="no"?><!DOCTYPE svg PUBLIC "-//W3C//DTD SVG 1.1//EN" "http://www.w3.org/Graphics/SVG/1.1/DTD/svg11.dtd"><svg t="1591772965313" class="icon" viewBox="0 0 1024 1024" version="1.1" xmlns="http://www.w3.org/2000/svg" p-id="4967" xmlns:xlink="http://www.w3.org/1999/xlink" width="200" height="200"><defs><style type="text/css"></style></defs><path d="M245.497664 630.020628A277.775946 277.775946 0 1 1 744.386971 404.906982l-67.907291 17.367094a207.697768 207.697768 0 1 0-373.051047 168.30471L245.473272 630.04502z m-196.526238-51.07682a35.051285 35.051285 0 0 1-9.756795-68.687835l96.25078-27.684905a35.026893 35.026893 0 0 1 19.367238 67.321884l-96.25078 27.684905a36.246492 36.246492 0 0 1-9.610443 1.365951z m704.733284-274.312284a35.002501 35.002501 0 0 1-9.756795-68.687835l96.250781-27.660513a35.026893 35.026893 0 0 1 19.367237 67.321883l-96.25078 27.660514a34.514661 34.514661 0 0 1-9.756795 1.365951z m-610.214335 23.855363a34.685405 34.685405 0 0 1-13.171673-2.585551l-92.68955-37.661227a35.051285 35.051285 0 1 1 26.245778-64.980253l92.68955 37.661227a35.002501 35.002501 0 0 1-13.171673 67.51702z m164.109288-146.351921a34.953717 34.953717 0 0 1-26.294562-11.854506L215.056465 95.226317a35.075677 35.075677 0 0 1 52.564731-46.344775l66.248637 75.054143a35.075677 35.075677 0 0 1-26.294562 58.248065z m258.408708-19.51359a35.075677 35.075677 0 0 1-32.929182-46.930182l34.148782-94.177462a35.075677 35.075677 0 0 1 65.858364 23.80658l-34.148781 94.177461a35.197637 35.197637 0 0 1-32.977967 23.123603z" fill="#0062FF" p-id="4968"></path><path d="M238.180068 591.139801A278.336962 278.336962 0 0 1 204.787438 550.771063l57.882185-39.417451a214.161645 214.161645 0 0 0 25.026178 30.246064z" fill="#0062FF" p-id="4969"></path><path d="M833.295763 1024a139.253853 139.253853 0 0 1-28.392272-2.902646l-525.208261-0.536624a112.886115 112.886115 0 0 1-21.806436 0c-81.981468-8.610371-145.766513-93.201782-145.766514-192.696696a203.819442 203.819442 0 0 1 80.493557-168.30471c19.001358-95.787332 89.61616-163.109216 170.573164-162.5482a149.693623 149.693623 0 0 1 77.200638 21.952788c37.905148-95.128749 118.520664-158.547915 207.185536-158.547914 114.032539-0.414664 210.893118 101.543841 227.016222 239.041471 79.664229 22.904076 135.765799 109.763941 135.302351 209.405207-0.12196 118.813368-79.127605 214.96658-176.597985 215.137324z m-26.099426-73.175961l41.466378 1.756223c59.223744-9.537267 103.4952-70.931898 103.568376-143.64441 0-75.298063-46.003287-137.351278-107.007646-144.400562l-25.026179-2.853863-1.000071-30.538767c-3.56123-112.20314-79.469093-200.819228-171.695196-200.47774-76.346919 0.390272-143.522451 61.467807-165.450846 150.498559l-12.195994 50.174317-33.51459-32.782831a105.080679 105.080679 0 0 0-73.322312-31.441271c-58.248065-0.414664-107.934542 51.223172-116.666873 121.398919l-2.439199 18.928182-14.36688 7.732259a126.838332 126.838332 0 0 0-60.077464 112.715372c0.341488 62.784974 39.027179 115.374098 90.250352 122.545342l547.209833 0.536623v-0.146352z" fill="#0062FF" p-id="4970"></path></svg>