<svg width="20" height="20" viewBox="0 0 20 20" fill="none" xmlns="http://www.w3.org/2000/svg">
<path d="M17.9475 6.95944C17.6556 5.52205 16.4513 4.52696 14.9551 4.52696C14.8456 4.52696 14.6997 4.56386 14.5537 4.56386C13.4224 4.71132 12.3641 5.70633 12.1451 6.77519C12.1086 6.99628 12.2911 7.36488 12.4736 7.47537C12.5465 7.51223 12.656 7.54912 12.729 7.54912C12.9115 7.54912 13.0939 7.40166 13.2034 7.1437C13.2399 7.07 13.2399 7.03312 13.2764 6.95942C13.2764 6.88566 13.3129 6.81196 13.3494 6.73828C13.6414 6.07491 14.2982 5.66949 15.0281 5.66949C15.2836 5.66949 15.5025 5.74319 15.7214 5.81686C16.6338 6.18549 17.1082 7.21737 16.8163 8.13877C16.5608 8.98644 15.8309 9.46552 14.8092 9.46552H2.69341C2.58393 9.46552 2.43798 9.46552 2.3285 9.53921C2.18249 9.64979 2.00005 9.90782 2.00005 10.0921C2.00005 10.3132 2.25547 10.4975 2.40148 10.5712C2.51095 10.6081 2.58395 10.6081 2.65691 10.6081C2.72994 10.6081 2.7664 10.6081 2.7664 10.5343H14.6996C15.028 10.5343 15.3565 10.5343 15.685 10.4606C17.2906 10.0921 18.2394 8.58102 17.9475 6.95944ZM12.2546 12.3771H2.69337C2.5839 12.3771 2.47438 12.3771 2.36493 12.4508C2.21897 12.5614 2.0365 12.7825 2.0365 12.9668C2.0365 13.1511 2.25541 13.3722 2.40142 13.4459C2.5109 13.5196 2.62039 13.5196 2.69337 13.5196H11.4517C11.8166 13.5196 12.291 13.5196 12.729 13.5565C13.1304 13.5933 13.4954 13.8144 13.7143 14.1462C13.9698 14.4778 14.0427 14.8832 13.9333 15.2886C13.7508 15.9152 13.3494 16.2837 12.7655 16.3574H12.51C11.9991 16.3574 11.5977 16.0995 11.3057 15.6204C11.1963 15.3992 11.0138 15.1781 10.7583 15.1781C10.6489 15.1781 10.5394 15.215 10.4299 15.2886C9.95549 15.5835 10.211 16.0258 10.3205 16.2101C10.7584 17.0208 11.6342 17.5 12.5465 17.5C12.8749 17.5 13.1669 17.4631 13.4588 17.3894C14.5902 16.984 15.2835 15.7678 15.0646 14.5516C14.8091 13.1879 13.7873 12.3771 12.2546 12.3771Z" fill="#828282"/>
<path d="M2.72989 7.69651H5.83181C6.08722 7.69651 7.25502 7.69651 7.54695 7.6597H8.71472C10.065 7.62281 11.1598 6.55405 11.1963 5.15354C11.2327 3.78991 10.211 2.61056 8.82422 2.5H8.64176C7.65642 2.5 6.70762 3.12656 6.37917 3.97419C6.30618 4.15844 6.37917 4.56388 6.56163 4.71132C6.63459 4.82182 6.74408 4.8587 6.85357 4.8587C6.99957 4.8587 7.18202 4.74812 7.32798 4.56388C7.36451 4.52696 7.40103 4.4533 7.43745 4.41647C7.47397 4.37958 7.51043 4.30589 7.54693 4.26902C7.80234 3.90049 8.24032 3.67935 8.67819 3.67935C8.78767 3.67935 8.89716 3.67935 9.00664 3.71625C9.73654 3.9373 10.1379 4.56388 10.065 5.30102C9.95546 6.03807 9.37156 6.55407 8.64174 6.55407H2.83931C2.51092 6.55407 2 6.55407 2 7.14374C2 7.29112 2.0365 7.43858 2.14601 7.54916C2.29193 7.69651 2.5109 7.69651 2.72989 7.69651Z" fill="#828282"/>
</svg>
