<svg width="20" height="20" viewBox="0 0 20 20" fill="none" xmlns="http://www.w3.org/2000/svg">
<path d="M9.99998 2C10.3842 2 10.6956 2.31145 10.6956 2.69565V3.79131C10.6956 4.1755 10.3842 4.48696 9.99998 4.48696C9.61579 4.48696 9.30433 4.1755 9.30433 3.79131V2.69565C9.30433 2.31145 9.61579 2 9.99998 2Z" fill="#828282"/>
<path d="M15.6568 4.34314C15.9285 4.61481 15.9285 5.05527 15.6568 5.32694L14.8821 6.10167C14.6104 6.37334 14.17 6.37335 13.8983 6.10168C13.6266 5.83001 13.6266 5.38955 13.8983 5.11788L14.673 4.34315C14.9446 4.07148 15.3851 4.07148 15.6568 4.34314Z" fill="#828282"/>
<path d="M16.2087 9.30435C15.8245 9.30435 15.513 9.61581 15.513 10C15.513 10.3842 15.8245 10.6957 16.2087 10.6957H17.3043C17.6885 10.6957 18 10.3842 18 10C18 9.61581 17.6885 9.30435 17.3043 9.30435H16.2087Z" fill="#828282"/>
<path d="M13.8983 13.8983C14.1699 13.6267 14.6104 13.6267 14.8821 13.8983L15.6568 14.6731C15.9285 14.9447 15.9285 15.3852 15.6568 15.6569C15.3851 15.9285 14.9447 15.9285 14.673 15.6569L13.8983 14.8822C13.6266 14.6105 13.6266 14.17 13.8983 13.8983Z" fill="#828282"/>
<path d="M10.6956 16.2087C10.6956 15.8245 10.3842 15.513 9.99998 15.513C9.61579 15.513 9.30433 15.8245 9.30433 16.2087V17.3043C9.30433 17.6885 9.61579 18 9.99998 18C10.3842 18 10.6956 17.6885 10.6956 17.3043V16.2087Z" fill="#828282"/>
<path d="M6.10171 13.8984C6.37338 14.17 6.37337 14.6105 6.1017 14.8822L5.32698 15.6569C5.05531 15.9285 4.61485 15.9285 4.34318 15.6569C4.07151 15.3852 4.07152 14.9447 4.34319 14.6731L5.11791 13.8983C5.38958 13.6267 5.83005 13.6267 6.10171 13.8984Z" fill="#828282"/>
<path d="M2.69565 9.30435C2.31145 9.30435 2 9.61581 2 10C2 10.3842 2.31145 10.6957 2.69565 10.6957H3.7913C4.1755 10.6957 4.48695 10.3842 4.48695 10C4.48695 9.61581 4.1755 9.30435 3.7913 9.30435H2.69565Z" fill="#828282"/>
<path d="M4.34318 4.34315C4.61485 4.07148 5.05531 4.07148 5.32698 4.34315L6.10171 5.11787C6.37338 5.38954 6.37338 5.83001 6.10171 6.10168C5.83004 6.37334 5.38958 6.37334 5.11791 6.10168L4.34318 5.32695C4.07151 5.05528 4.07151 4.61482 4.34318 4.34315Z" fill="#828282"/>
<path d="M5.13043 10C5.13043 7.31062 7.31061 5.13044 9.99998 5.13044C12.6894 5.13044 14.8695 7.31062 14.8695 10C14.8695 12.6894 12.6894 14.8696 9.99998 14.8696C7.31061 14.8696 5.13043 12.6894 5.13043 10Z" fill="#828282"/>
</svg>
