<svg width="189" height="189" viewBox="0 0 189 189" fill="none" xmlns="http://www.w3.org/2000/svg">
<path d="M94.2998 188.1C81.1998 188.1 68.0998 185.3 55.7998 179.8C32.8998 169.5 15.3998 150.9 6.49985 127.4C-1.60015 106.1 -1.70017 82.6001 6.29983 61.2001C6.79983 60.0001 7.79985 59.1001 8.99985 58.7001C10.2998 58.4001 11.5998 58.7001 12.5998 59.5001L32.9998 76.5001C34.6998 77.9001 34.8998 80.4001 33.4998 82.1001C32.0998 83.8001 29.5999 84.0001 27.8999 82.6001L11.9998 69.4001C6.59985 87.4001 7.29985 106.8 13.9998 124.5C22.1998 146 38.1998 163 59.0998 172.4C80.0998 181.8 103.4 182.5 124.9 174.4C169.2 157.6 191.6 107.8 174.8 63.5001C166.6 42.0001 150.6 25.0001 129.7 15.6001C108.8 6.20009 85.3999 5.50009 63.8999 13.6001C61.7999 14.4001 59.4999 13.3001 58.6999 11.3001C57.8999 9.30009 58.9998 7.00009 60.9998 6.20009C84.4998 -2.69991 110 -1.89991 132.9 8.40009C155.8 18.7001 173.3 37.3001 182.2 60.8001C200.6 109.3 176.1 163.6 127.7 182C116.9 186.1 105.6 188.1 94.2998 188.1Z" fill="#0062FF"/>
<g opacity="0.18">
<path opacity="0.18" d="M100.6 155.5C98.5997 155.5 96.8997 154 96.5997 151.9C96.3997 149.7 97.8997 147.7 100.1 147.5C101.3 147.4 102.6 147.2 103.8 147C106 146.6 108.1 148.1 108.4 150.2C108.8 152.4 107.3 154.5 105.2 154.8C103.8 155.1 102.4 155.3 101 155.4C100.9 155.5 100.7 155.5 100.6 155.5ZM76.8997 153.1C76.4997 153.1 76.0997 153 75.6997 152.9C74.2997 152.5 72.9997 152 71.6997 151.5C69.5997 150.7 68.5997 148.4 69.4997 146.3C70.2997 144.2 72.5997 143.2 74.6997 144.1C75.7997 144.6 76.9997 145 78.1997 145.4C80.2997 146.1 81.4997 148.3 80.7997 150.4C80.0997 152 78.5997 153.1 76.8997 153.1ZM126.6 146C125.3 146 124 145.4 123.3 144.2C122.1 142.4 122.6 139.9 124.4 138.6C125.4 137.9 126.4 137.2 127.4 136.4C129.1 135 131.7 135.4 133 137.1C134.4 138.8 134 141.4 132.3 142.7C131.2 143.6 130 144.4 128.8 145.2C128.2 145.8 127.4 146 126.6 146ZM53.1997 138.6C52.1997 138.6 51.0997 138.2 50.3997 137.4C49.3997 136.4 48.3997 135.3 47.4997 134.2C46.0997 132.5 46.2997 130 47.8997 128.6C49.5997 127.2 52.0997 127.4 53.4997 129C54.2997 129.9 55.0997 130.9 55.9997 131.7C57.5997 133.3 57.4997 135.8 55.9997 137.4C55.2997 138.2 54.1997 138.6 53.1997 138.6ZM145.2 125.4C144.6 125.4 143.9 125.2 143.3 124.9C141.4 123.9 140.6 121.4 141.7 119.5C142.3 118.4 142.8 117.3 143.3 116.2C144.2 114.2 146.6 113.3 148.6 114.2C150.6 115.1 151.5 117.5 150.6 119.5C150 120.8 149.4 122.1 148.7 123.3C148 124.7 146.6 125.4 145.2 125.4ZM152.1 98.6C149.8 98.6 148.1 96.8 148.1 94.6V94.1C148.1 93 148.1 92 148 90.9C147.9 88.7 149.5 86.8 151.8 86.7C154 86.5 155.9 88.2 156 90.5C156.1 91.7 156.1 93 156.1 94.2V94.8C156.1 96.8 154.3 98.6 152.1 98.6ZM145.7 71.6C144.2 71.6 142.8 70.8 142.1 69.4C141.5 68.3 140.9 67.2 140.3 66.2C139.2 64.3 139.8 61.9 141.7 60.7C143.6 59.6 146 60.2 147.2 62.1C147.9 63.3 148.6 64.6 149.3 65.8C150.3 67.8 149.5 70.2 147.6 71.2C147 71.5 146.3 71.6 145.7 71.6ZM127.5 50.7C126.7 50.7 125.9 50.5 125.2 50C124.2 49.3 123.1 48.6 122.1 48C120.2 46.9 119.6 44.4 120.7 42.5C121.8 40.6 124.3 40 126.2 41.1C127.4 41.8 128.6 42.6 129.8 43.4C131.6 44.7 132.1 47.2 130.8 49C130 50.1 128.7 50.7 127.5 50.7Z" fill="#0062FF"/>
</g>
<path d="M90.1996 158.6C90.0996 158.6 89.9996 158.6 89.8996 158.6C87.6996 158.4 85.9996 156.5 86.1996 154.3L90.3996 93.4999C90.4996 92.6999 90.7996 91.8999 91.2996 91.1999L110.9 67.2999C112.3 65.5999 114.8 65.2999 116.5 66.6999C118.2 68.0999 118.5 70.5999 117.1 72.2999L98.2996 95.1999L94.1996 154.7C93.9996 157 92.2996 158.6 90.1996 158.6Z" fill="#0062FF"/>
</svg>
