<svg xmlns="http://www.w3.org/2000/svg" viewBox="0 0 188.01 188.1"><defs><style>.cls-1{fill:#fff;}.cls-2{opacity:0.18;}</style></defs><title>资源 5</title><g id="图层_2" data-name="图层 2"><g id="图层_1-2" data-name="图层 1"><path class="cls-1" d="M94,188.1a94,94,0,0,1-88-126.88,4,4,0,0,1,6.3-1.68l20.43,17a4,4,0,1,1-5.12,6.15L11.6,69.43A86,86,0,1,0,63.49,13.65a4,4,0,0,1-2.84-7.48A94,94,0,1,1,94,188.1Z"/><g class="cls-2"><path class="cls-1" d="M100.2,155.48a4,4,0,0,1-.42-8c1.23-.13,2.47-.31,3.68-.53a4,4,0,0,1,1.41,7.87c-1.39.26-2.81.46-4.23.62Zm-23.7-2.39a3.92,3.92,0,0,1-1.21-.19c-1.36-.44-2.72-.92-4-1.44A4,4,0,0,1,74.21,144c1.15.46,2.32.88,3.51,1.25a4,4,0,0,1-1.22,7.82ZM126.26,146a4,4,0,0,1-2.24-7.32c1-.69,2-1.42,3-2.18a4,4,0,0,1,4.91,6.32c-1.12.86-2.28,1.71-3.46,2.5A4,4,0,0,1,126.26,146Zm-73.4-7.37A4,4,0,0,1,50,137.41c-1-1-2-2.08-2.9-3.15a4,4,0,1,1,6.08-5.21c.8.94,1.64,1.86,2.51,2.74a4,4,0,0,1-2.85,6.81Zm92-13.17a4,4,0,0,1-3.52-5.9c.59-1.09,1.14-2.21,1.65-3.34a4,4,0,1,1,7.29,3.3c-.58,1.29-1.22,2.58-1.89,3.83A4,4,0,0,1,144.85,125.43Zm6.92-26.85h-.05a4,4,0,0,1-3.95-4V94c0-1.06,0-2.14-.1-3.22a4,4,0,0,1,8-.48c.07,1.23.11,2.48.11,3.7v.58A4,4,0,0,1,151.77,98.58Zm-6.42-27a4,4,0,0,1-3.56-2.17c-.56-1.1-1.17-2.19-1.81-3.25A4,4,0,0,1,146.82,62c.74,1.22,1.44,2.47,2.09,3.73a4,4,0,0,1-1.74,5.39A3.94,3.94,0,0,1,145.35,71.6ZM127.11,50.72a4,4,0,0,1-2.29-.71c-1-.72-2.07-1.4-3.12-2a4,4,0,1,1,4.11-6.86c1.21.72,2.41,1.51,3.59,2.32a4,4,0,0,1-2.29,7.28Z"/></g><path class="cls-1" d="M89.81,158.62h-.28a4,4,0,0,1-3.71-4.27L90,93.52a4,4,0,0,1,.9-2.26l19.61-23.93a4,4,0,1,1,6.19,5.07L97.88,95.34,93.8,154.89A4,4,0,0,1,89.81,158.62Z"/></g></g></svg>