<?xml version="1.0" standalone="no"?><!DOCTYPE svg PUBLIC "-//W3C//DTD SVG 1.1//EN" "http://www.w3.org/Graphics/SVG/1.1/DTD/svg11.dtd"><svg class="icon" width="200px" height="200.00px" viewBox="0 0 1024 1024" version="1.1" xmlns="http://www.w3.org/2000/svg"><path fill="#ffffff" d="M930.909091 23.272727H93.090909A69.818182 69.818182 0 0 0 23.272727 93.090909v837.818182A69.818182 69.818182 0 0 0 93.090909 1000.727273h837.818182a69.818182 69.818182 0 0 0 69.818182-69.818182V93.090909A69.818182 69.818182 0 0 0 930.909091 23.272727z m0 872.727273a34.909091 34.909091 0 0 1-34.909091 34.909091H129.070545a34.909091 34.909091 0 0 1-34.90909-34.909091V129.070545a34.909091 34.909091 0 0 1 34.90909-34.90909H896a34.909091 34.909091 0 0 1 34.909091 34.90909V896zM791.272727 396.241455h-163.095272v-162.443637a69.818182 69.818182 0 0 0-69.818182-69.818182H234.635636a69.818182 69.818182 0 0 0-69.818181 69.818182v325.213091a69.818182 69.818182 0 0 0 69.818181 69.818182h163.048728V791.272727a69.818182 69.818182 0 0 0 69.818181 69.818182H791.272727a69.818182 69.818182 0 0 0 69.818182-69.818182v-325.213091a69.818182 69.818182 0 0 0-69.818182-69.818181zM270.429091 558.312727a34.909091 34.909091 0 0 1-34.909091-34.909091V270.103273a34.909091 34.909091 0 0 1 34.909091-34.909091h252.276364a34.909091 34.909091 0 0 1 34.862545 34.909091v126.138182h-90.018909a69.818182 69.818182 0 0 0-69.818182 69.818181v92.16H270.429091z m287.138909-90.856727v55.901091a34.909091 34.909091 0 0 1-34.909091 34.909091h-54.225454v-55.854546a34.909091 34.909091 0 0 1 34.90909-34.909091h54.225455z m232.913455 288.162909a34.909091 34.909091 0 0 1-34.909091 34.909091h-252.276364a34.909091 34.909091 0 0 1-34.909091-34.909091V628.829091h90.018909a69.818182 69.818182 0 0 0 69.818182-69.818182v-91.554909h127.348364a34.909091 34.909091 0 0 1 34.909091 34.909091v253.253818z"  /></svg>