<?xml version="1.0" standalone="no"?><!DOCTYPE svg PUBLIC "-//W3C//DTD SVG 1.1//EN" "http://www.w3.org/Graphics/SVG/1.1/DTD/svg11.dtd"><svg class="icon" width="200px" height="200.00px" viewBox="0 0 1024 1024" version="1.1" xmlns="http://www.w3.org/2000/svg"><path fill="#ffffff" d="M832 64H296.004267a8.021333 8.021333 0 0 0-8.021334 7.9872V128c0 4.4032 3.618133 7.9872 8.021334 7.9872h495.991466v688.0256c0 4.4032 3.618133 7.9872 8.021334 7.9872h55.978666a8.021333 8.021333 0 0 0 8.021334-7.9872V96.017067a31.9488 31.9488 0 0 0-32.017067-32.017067z"  /><path fill="#ffffff" d="M704 192h-512a31.9488 31.9488 0 0 0-32.017067 32.017067V754.688c0 8.533333 3.413333 16.622933 9.4208 22.6304l173.294934 173.294933a33.041067 33.041067 0 0 0 7.406933 5.461334v1.911466h4.1984c3.4816 1.3312 7.168 2.013867 10.990933 2.013867h338.705067a31.9488 31.9488 0 0 0 32.017067-32.017067V224.017067a31.9488 31.9488 0 0 0-32.017067-31.982934zM350.0032 856.200533L263.850667 770.013867h86.1184v86.186666z m314.026667 31.812267h-250.026667v-141.994667c0-22.1184-17.885867-40.004267-40.004267-40.004266h-141.994666V263.9872h431.991466v624.0256z"  /></svg>