<?xml version="1.0" standalone="no"?><!DOCTYPE svg PUBLIC "-//W3C//DTD SVG 1.1//EN" "http://www.w3.org/Graphics/SVG/1.1/DTD/svg11.dtd"><svg class="icon" width="200px" height="183.35px" viewBox="0 0 1117 1024" version="1.1" xmlns="http://www.w3.org/2000/svg"><path fill="#ffffff" d="M633.669818 512l434.315637-435.386182c6.842182-6.842182 2.048-18.711273-7.633455-18.711273H936.96a10.519273 10.519273 0 0 0-7.633455 3.165091l-372.689454 373.620364-123.019636-123.438545A207.36 207.36 0 0 0 253.207273 2.001455 207.36 207.36 0 0 0 45.940364 209.314909a207.36 207.36 0 0 0 310.784 179.572364L479.464727 512l-122.88 123.159273a207.36 207.36 0 0 0-310.784 179.572363 207.36 207.36 0 0 0 207.313455 207.266909 207.36 207.36 0 0 0 180.363636-309.294545l123.019637-123.345455 372.689454 373.620364a10.705455 10.705455 0 0 0 7.633455 3.118546h123.531636a10.891636 10.891636 0 0 0 7.633455-18.664728L633.716364 512zM253.067636 318.370909a109.242182 109.242182 0 0 1-109.056-109.102545 109.242182 109.242182 0 0 1 109.102546-109.102546A109.242182 109.242182 0 0 1 362.123636 209.268364 109.242182 109.242182 0 0 1 253.114182 318.370909z m0 605.463273a109.242182 109.242182 0 0 1-109.056-109.102546 109.242182 109.242182 0 0 1 109.102546-109.102545 109.242182 109.242182 0 0 1 109.056 109.102545 109.242182 109.242182 0 0 1-109.056 109.102546z"  /></svg>