<?xml version="1.0" standalone="no"?><!DOCTYPE svg PUBLIC "-//W3C//DTD SVG 1.1//EN" "http://www.w3.org/Graphics/SVG/1.1/DTD/svg11.dtd"><svg class="icon" width="200px" height="200.00px" viewBox="0 0 1024 1024" version="1.1" xmlns="http://www.w3.org/2000/svg"><path fill="#ffffff" d="M896 64H128c-35.293867 0-64 28.672-64 64v768c0 35.293867 28.672 64 64 64h592.008533a32.017067 32.017067 0 0 0 0-64H128V128h768v592.008533a32.017067 32.017067 0 0 0 64 0V128c0-35.293867-28.672-64-64-64z"  /><path fill="#ffffff" d="M791.7568 746.496a206.7456 206.7456 0 0 0 40.2432-122.504533 208.213333 208.213333 0 0 0-208.008533-207.9744 208.213333 208.213333 0 0 0-207.9744 207.9744 208.213333 208.213333 0 0 0 207.9744 208.008533 206.7456 206.7456 0 0 0 122.504533-40.277333l110.865067 110.933333a31.982933 31.982933 0 1 0 45.2608-45.294933l-110.865067-110.865067z m-311.773867-122.504533a144.1792 144.1792 0 0 1 144.042667-143.9744A144.1792 144.1792 0 0 1 768 623.957333a144.1792 144.1792 0 0 1-144.008533 144.008534 144.1792 144.1792 0 0 1-143.9744-144.008534z m320.034134-360.004267a32.017067 32.017067 0 0 0-32.017067-31.982933h-512a32.017067 32.017067 0 1 0 0 64h512a32.017067 32.017067 0 0 0 32.017067-32.017067zM256 422.673067a32.017067 32.017067 0 0 0 0 64h96.017067a32.017067 32.017067 0 0 0 0-64H256z"  /></svg>