<?xml version="1.0" standalone="no"?><!DOCTYPE svg PUBLIC "-//W3C//DTD SVG 1.1//EN" "http://www.w3.org/Graphics/SVG/1.1/DTD/svg11.dtd"><svg t="1619148829769" class="icon" viewBox="0 0 1024 1024" version="1.1" xmlns="http://www.w3.org/2000/svg" p-id="7174" xmlns:xlink="http://www.w3.org/1999/xlink" width="200" height="200"><defs><style type="text/css"></style></defs><path d="M493.909333 4.949333a35.726222 35.726222 0 0 1 36.181334 0l404.878222 238.136889c10.865778 6.371556 17.635556 18.090667 17.635555 30.72v476.330667a35.726222 35.726222 0 0 1-17.635555 30.776889l-404.878222 238.136889a35.726222 35.726222 0 0 1-36.181334 0L89.031111 780.913778a35.726222 35.726222 0 0 1-17.635555-30.776889V273.863111c0-12.686222 6.769778-24.405333 17.635555-30.776889L493.909333 4.949333z m-351.004444 289.336889v435.427556L512 946.858667l369.095111-217.144889V294.286222L512 77.141333 142.904889 294.286222z m404.821333 237.397334l173.624889-108.544-37.888-60.586667L511.829333 469.902222 340.423111 362.609778l-37.888 60.529778L476.273778 531.911111v194.446222h71.452444v-194.56z" p-id="7175"></path></svg>