<svg width="16" height="18" viewBox="0 0 16 18" fill="none" xmlns="http://www.w3.org/2000/svg">
<path opacity="0.45" fill-rule="evenodd" clip-rule="evenodd" d="M7.68169 0.0866883C7.87819 -0.0288961 8.1219 -0.0288961 8.3184 0.0866883L15.4347 4.27261C15.6265 4.38542 15.7442 4.59132 15.7442 4.81383V13.186C15.7442 13.4085 15.6265 13.6144 15.4347 13.7272L8.31841 17.9133C8.12191 18.0289 7.87818 18.0289 7.68168 17.9133L0.5654 13.7272C0.373616 13.6144 0.255859 13.4085 0.255859 13.186V4.81383C0.255859 4.59132 0.373621 4.38542 0.565412 4.27261L7.68169 0.0866883ZM1.51167 5.17296V12.8268L8.00005 16.6436L14.4884 12.8268V5.17296L8.00005 1.35639L1.51167 5.17296ZM8.62774 9.34629L11.6798 7.43823L11.014 6.37339L7.99745 8.25929L4.9844 6.37355L4.31816 7.43807L7.37192 9.34929V12.7674H8.62774V9.34629Z" fill="#0E1016"/>
</svg>
