<?xml version="1.0" standalone="no"?><!DOCTYPE svg PUBLIC "-//W3C//DTD SVG 1.1//EN" "http://www.w3.org/Graphics/SVG/1.1/DTD/svg11.dtd"><svg class="icon" width="200px" height="171.52px" viewBox="0 0 1194 1024" version="1.1" xmlns="http://www.w3.org/2000/svg"><path fill="#ffffff" d="M1117.354667 341.674667h-135.04V130.005333a39.936 39.936 0 0 0-39.978667-40.021333h-393.770667L401.962667 2.730667A10.197333 10.197333 0 0 0 395.093333 0H77.354667a39.936 39.936 0 0 0-40.021334 40.021333v927.317334c0 22.101333 17.877333 39.978667 40.021334 39.978666h872.490666a40.106667 40.106667 0 0 0 37.12-25.002666l167.509334-585.642667a39.936 39.936 0 0 0-37.12-55.04zM127.274667 89.984h235.648l149.504 90.026667h379.861333v161.664H254.848a40.106667 40.106667 0 0 0-37.12 25.002666l-90.410667 394.666667V89.984zM921.472 917.333333H164.906667L293.973333 426.666667h756.693334l-129.28 490.666666z"  /></svg>