<?xml version="1.0" standalone="no"?><!DOCTYPE svg PUBLIC "-//W3C//DTD SVG 1.1//EN" "http://www.w3.org/Graphics/SVG/1.1/DTD/svg11.dtd"><svg class="icon" width="200px" height="200.00px" viewBox="0 0 1024 1024" version="1.1" xmlns="http://www.w3.org/2000/svg"><path fill="#ffffff" d="M128 384h768V1024H128V384zM256 512v384h512V512H256z m0-64H128V384H256V256c0-140.8 115.2-256 256-256s256 115.2 256 256v128h128v64h-256V256c0-70.4-57.6-128-128-128A128.3584 128.3584 0 0 0 384 256v192H256zM512 768c-38.4 0-64-25.6-64-64S473.6 640 512 640s64 25.6 64 64S550.4 768 512 768z"  /></svg>