<?xml version="1.0" standalone="no"?><!DOCTYPE svg PUBLIC "-//W3C//DTD SVG 1.1//EN" "http://www.w3.org/Graphics/SVG/1.1/DTD/svg11.dtd"><svg class="icon" width="200px" height="200.00px" viewBox="0 0 1024 1024" version="1.1" xmlns="http://www.w3.org/2000/svg"><path fill="#ffffff" d="M296.891733 64c4.4032 0 7.9872 3.584 7.9872 7.9872V128a8.021333 8.021333 0 0 1-7.9872 7.9872H229.888V309.248a8.021333 8.021333 0 0 1-8.021333 8.021333H165.888a8.021333 8.021333 0 0 1-8.021333-8.021333V95.982933c0-17.681067 14.336-31.982933 32.017066-31.982933h107.008z m301.806934 0a8.021333 8.021333 0 0 0-8.021334 7.9872V128c0 4.4032 3.618133 7.9872 8.021334 7.9872h63.1808V221.866667c0 4.4032 3.618133 7.9872 7.9872 7.9872h56.0128A8.021333 8.021333 0 0 0 733.866667 221.866667V95.982933a31.982933 31.982933 0 0 0-31.982934-31.982933H598.698667zM500.053333 136.533333h-154.112a8.021333 8.021333 0 0 1-8.021333-7.9872V72.533333c0-4.4032 3.618133-7.9872 8.021333-7.9872h204.151467c4.437333 0 8.021333 3.584 8.021333 7.9872v55.978667a8.021333 8.021333 0 0 1-8.021333 8.021333H500.053333zM157.730133 672.426667v154.146133c0 4.4032 3.618133 7.9872 7.9872 7.9872h56.0128a8.021333 8.021333 0 0 0 7.9872-7.9872v-204.1856A8.021333 8.021333 0 0 0 221.730133 614.4h-55.978666a8.021333 8.021333 0 0 0-8.021334 7.9872V672.426667z m0-152.576v-154.146134c0-4.4032 3.618133-7.9872 7.9872-7.9872h56.0128c4.4032 0 7.9872 3.584 7.9872 7.9872v204.1856a8.021333 8.021333 0 0 1-7.9872 7.9872h-55.978666a8.021333 8.021333 0 0 1-8.021334-7.9872V519.850667z"  /><path fill="#ffffff" d="M319.556267 269.312h512c17.7152 0 32.017067 14.336 32.017066 32.017067V758.442667c0 8.4992-3.413333 16.5888-9.4208 22.596266l-173.294933 173.294934a33.041067 33.041067 0 0 1-7.3728 5.495466v1.911467h-4.232533a31.505067 31.505067 0 0 1-10.990934 1.979733H319.556267a31.9488 31.9488 0 0 1-31.982934-31.982933V301.329067c0-17.681067 14.301867-31.982933 31.982934-31.982934z m353.9968 590.609067l86.1184-86.186667h-86.1184v86.186667z m-313.992534 31.812266h249.992534v-141.994666c0-22.1184 17.92-40.004267 40.004266-40.004267h141.994667V341.333333H359.560533v550.4z"  /></svg>