<?xml version="1.0" standalone="no"?><!DOCTYPE svg PUBLIC "-//W3C//DTD SVG 1.1//EN" "http://www.w3.org/Graphics/SVG/1.1/DTD/svg11.dtd"><svg class="icon" width="200px" height="184.67px" viewBox="0 0 1109 1024" version="1.1" xmlns="http://www.w3.org/2000/svg"><path fill="#ffffff" d="M1071.232 348.757333L748.501333 26.069333a80 80 0 0 0-56.533333-23.466666h-597.333333A80 80 0 0 0 14.72 82.602667v846.72a80 80 0 0 0 80 80H1014.613333a80 80 0 0 0 80-80V405.333333c0-21.205333-8.405333-41.557333-23.466666-56.576zM274.645333 82.602667h240v140.032H274.730667V82.602667z m560 846.72H274.688v-179.968h560v179.968z m180.053334 0h-100.053334v-219.989334a40.021333 40.021333 0 0 0-39.978666-40.021333h-640a40.021333 40.021333 0 0 0-40.021334 40.021333v219.989334H94.72V82.602667h100.010667v180.010666a39.978667 39.978667 0 0 0 39.978666 40.021334H554.666667a39.978667 39.978667 0 0 0 40.021333-40.021334V82.602667h97.28L1014.613333 405.333333v523.989334z"  /></svg>