<?xml version="1.0" standalone="no"?><!DOCTYPE svg PUBLIC "-//W3C//DTD SVG 1.1//EN" "http://www.w3.org/Graphics/SVG/1.1/DTD/svg11.dtd"><svg class="icon" width="200px" height="200.00px" viewBox="0 0 1024 1024" version="1.1" xmlns="http://www.w3.org/2000/svg"><path fill="#ffffff" d="M791.272727 395.636364h-325.818182c-37.236364 0-69.818182 32.581818-69.818181 69.818181v325.818182c0 37.236364 32.581818 69.818182 69.818181 69.818182h325.818182c37.236364 0 69.818182-32.581818 69.818182-69.818182v-325.818182c0-37.236364-32.581818-69.818182-69.818182-69.818181z m0 358.4c0 18.618182-13.963636 37.236364-37.236363 37.236363h-251.345455c-18.618182 0-37.236364-13.963636-37.236364-37.236363v-251.345455c0-4.654545 0-13.963636 4.654546-18.618182 4.654545-4.654545 4.654545-9.309091 9.309091-9.309091 4.654545-4.654545 13.963636-4.654545 18.618182-4.654545h251.345454c18.618182 0 37.236364 13.963636 37.236364 37.236364v246.690909h4.654545z m-558.545454-232.727273V269.963636c0-18.618182 13.963636-37.236364 37.236363-37.236363h251.345455c18.618182 0 37.236364 13.963636 37.236364 37.236363V325.818182h69.818181V232.727273c0-37.236364-32.581818-69.818182-69.818181-69.818182H232.727273c-37.236364 0-69.818182 32.581818-69.818182 69.818182v325.818182c0 37.236364 32.581818 69.818182 69.818182 69.818181h93.090909V558.545455H269.963636c-18.618182 0-37.236364-13.963636-37.236363-37.236364z m558.545454-125.672727h-325.818182c-37.236364 0-69.818182 32.581818-69.818181 69.818181v325.818182c0 37.236364 32.581818 69.818182 69.818181 69.818182h325.818182c37.236364 0 69.818182-32.581818 69.818182-69.818182v-325.818182c0-37.236364-32.581818-69.818182-69.818182-69.818181z m0 358.4c0 18.618182-13.963636 37.236364-37.236363 37.236363h-251.345455c-18.618182 0-37.236364-13.963636-37.236364-37.236363v-251.345455c0-4.654545 0-13.963636 4.654546-18.618182 4.654545-4.654545 4.654545-9.309091 9.309091-9.309091 4.654545-4.654545 13.963636-4.654545 18.618182-4.654545h251.345454c18.618182 0 37.236364 13.963636 37.236364 37.236364v246.690909h4.654545z m-558.545454-232.727273V269.963636c0-18.618182 13.963636-37.236364 37.236363-37.236363h251.345455c18.618182 0 37.236364 13.963636 37.236364 37.236363V325.818182h69.818181V232.727273c0-37.236364-32.581818-69.818182-69.818181-69.818182H232.727273c-37.236364 0-69.818182 32.581818-69.818182 69.818182v325.818182c0 37.236364 32.581818 69.818182 69.818182 69.818181h93.090909V558.545455H269.963636c-18.618182 0-37.236364-13.963636-37.236363-37.236364z m558.545454-125.672727h-325.818182c-37.236364 0-69.818182 32.581818-69.818181 69.818181v325.818182c0 37.236364 32.581818 69.818182 69.818181 69.818182h325.818182c37.236364 0 69.818182-32.581818 69.818182-69.818182v-325.818182c0-37.236364-32.581818-69.818182-69.818182-69.818181z m0 358.4c0 18.618182-13.963636 37.236364-37.236363 37.236363h-251.345455c-18.618182 0-37.236364-13.963636-37.236364-37.236363v-251.345455c0-4.654545 0-13.963636 4.654546-18.618182 4.654545-4.654545 4.654545-9.309091 9.309091-9.309091 4.654545-4.654545 13.963636-4.654545 18.618182-4.654545h251.345454c18.618182 0 37.236364 13.963636 37.236364 37.236364v246.690909h4.654545z m-558.545454-232.727273V269.963636c0-18.618182 13.963636-37.236364 37.236363-37.236363h251.345455c18.618182 0 37.236364 13.963636 37.236364 37.236363V325.818182h69.818181V232.727273c0-37.236364-32.581818-69.818182-69.818181-69.818182H232.727273c-37.236364 0-69.818182 32.581818-69.818182 69.818182v325.818182c0 37.236364 32.581818 69.818182 69.818182 69.818181h93.090909V558.545455H269.963636c-18.618182 0-37.236364-13.963636-37.236363-37.236364z m558.545454-125.672727h-325.818182c-37.236364 0-69.818182 32.581818-69.818181 69.818181v325.818182c0 37.236364 32.581818 69.818182 69.818181 69.818182h325.818182c37.236364 0 69.818182-32.581818 69.818182-69.818182v-325.818182c0-37.236364-32.581818-69.818182-69.818182-69.818181z m0 358.4c0 18.618182-13.963636 37.236364-37.236363 37.236363h-251.345455c-18.618182 0-37.236364-13.963636-37.236364-37.236363v-251.345455c0-4.654545 0-13.963636 4.654546-18.618182 4.654545-4.654545 4.654545-9.309091 9.309091-9.309091 4.654545-4.654545 13.963636-4.654545 18.618182-4.654545h251.345454c18.618182 0 37.236364 13.963636 37.236364 37.236364v246.690909h4.654545z m-558.545454-232.727273V269.963636c0-18.618182 13.963636-37.236364 37.236363-37.236363h251.345455c18.618182 0 37.236364 13.963636 37.236364 37.236363V325.818182h69.818181V232.727273c0-37.236364-32.581818-69.818182-69.818181-69.818182H232.727273c-37.236364 0-69.818182 32.581818-69.818182 69.818182v325.818182c0 37.236364 32.581818 69.818182 69.818182 69.818181h93.090909V558.545455H269.963636c-18.618182 0-37.236364-13.963636-37.236363-37.236364zM930.909091 23.272727H93.090909C55.854545 23.272727 23.272727 55.854545 23.272727 93.090909v837.818182c0 37.236364 32.581818 69.818182 69.818182 69.818182h837.818182c37.236364 0 69.818182-32.581818 69.818182-69.818182V93.090909c0-37.236364-32.581818-69.818182-69.818182-69.818182z m0 875.054546c0 18.618182-13.963636 37.236364-37.236364 37.236363H130.327273c-18.618182 0-37.236364-13.963636-37.236364-37.236363V130.327273c0-18.618182 13.963636-37.236364 37.236364-37.236364h768c18.618182 0 37.236364 13.963636 37.236363 37.236364v768H930.909091zM791.272727 395.636364h-325.818182c-37.236364 0-69.818182 32.581818-69.818181 69.818181v325.818182c0 37.236364 32.581818 69.818182 69.818181 69.818182h325.818182c37.236364 0 69.818182-32.581818 69.818182-69.818182v-325.818182c0-37.236364-32.581818-69.818182-69.818182-69.818181z m0 358.4c0 18.618182-13.963636 37.236364-37.236363 37.236363h-251.345455c-18.618182 0-37.236364-13.963636-37.236364-37.236363v-251.345455c0-4.654545 0-13.963636 4.654546-18.618182 4.654545-4.654545 4.654545-9.309091 9.309091-9.309091 4.654545-4.654545 13.963636-4.654545 18.618182-4.654545h251.345454c18.618182 0 37.236364 13.963636 37.236364 37.236364v246.690909h4.654545z m-558.545454-232.727273V269.963636c0-18.618182 13.963636-37.236364 37.236363-37.236363h251.345455c18.618182 0 37.236364 13.963636 37.236364 37.236363V325.818182h69.818181V232.727273c0-37.236364-32.581818-69.818182-69.818181-69.818182H232.727273c-37.236364 0-69.818182 32.581818-69.818182 69.818182v325.818182c0 37.236364 32.581818 69.818182 69.818182 69.818181h93.090909V558.545455H269.963636c-18.618182 0-37.236364-13.963636-37.236363-37.236364z m558.545454-125.672727h-325.818182c-37.236364 0-69.818182 32.581818-69.818181 69.818181v325.818182c0 37.236364 32.581818 69.818182 69.818181 69.818182h325.818182c37.236364 0 69.818182-32.581818 69.818182-69.818182v-325.818182c0-37.236364-32.581818-69.818182-69.818182-69.818181z m0 358.4c0 18.618182-13.963636 37.236364-37.236363 37.236363h-251.345455c-18.618182 0-37.236364-13.963636-37.236364-37.236363v-251.345455c0-4.654545 0-13.963636 4.654546-18.618182 4.654545-4.654545 4.654545-9.309091 9.309091-9.309091 4.654545-4.654545 13.963636-4.654545 18.618182-4.654545h251.345454c18.618182 0 37.236364 13.963636 37.236364 37.236364v246.690909h4.654545z m-558.545454-232.727273V269.963636c0-18.618182 13.963636-37.236364 37.236363-37.236363h251.345455c18.618182 0 37.236364 13.963636 37.236364 37.236363V325.818182h69.818181V232.727273c0-37.236364-32.581818-69.818182-69.818181-69.818182H232.727273c-37.236364 0-69.818182 32.581818-69.818182 69.818182v325.818182c0 37.236364 32.581818 69.818182 69.818182 69.818181h93.090909V558.545455H269.963636c-18.618182 0-37.236364-13.963636-37.236363-37.236364z m558.545454-125.672727h-325.818182c-37.236364 0-69.818182 32.581818-69.818181 69.818181v325.818182c0 37.236364 32.581818 69.818182 69.818181 69.818182h325.818182c37.236364 0 69.818182-32.581818 69.818182-69.818182v-325.818182c0-37.236364-32.581818-69.818182-69.818182-69.818181z m0 358.4c0 18.618182-13.963636 37.236364-37.236363 37.236363h-251.345455c-18.618182 0-37.236364-13.963636-37.236364-37.236363v-251.345455c0-4.654545 0-13.963636 4.654546-18.618182 4.654545-4.654545 4.654545-9.309091 9.309091-9.309091 4.654545-4.654545 13.963636-4.654545 18.618182-4.654545h251.345454c18.618182 0 37.236364 13.963636 37.236364 37.236364v246.690909h4.654545z m-558.545454-232.727273V269.963636c0-18.618182 13.963636-37.236364 37.236363-37.236363h251.345455c18.618182 0 37.236364 13.963636 37.236364 37.236363V325.818182h69.818181V232.727273c0-37.236364-32.581818-69.818182-69.818181-69.818182H232.727273c-37.236364 0-69.818182 32.581818-69.818182 69.818182v325.818182c0 37.236364 32.581818 69.818182 69.818182 69.818181h93.090909V558.545455H269.963636c-18.618182 0-37.236364-13.963636-37.236363-37.236364z"  /></svg>