<?xml version="1.0" standalone="no"?><!DOCTYPE svg PUBLIC "-//W3C//DTD SVG 1.1//EN" "http://www.w3.org/Graphics/SVG/1.1/DTD/svg11.dtd"><svg t="1590377386787" class="icon" viewBox="0 0 1024 1024" version="1.1" xmlns="http://www.w3.org/2000/svg" p-id="2823" xmlns:xlink="http://www.w3.org/1999/xlink" width="200" height="200"><defs><style type="text/css"></style></defs><path d="M899.21536 97.02912c-0.03584-39.31136-25.9072-72.14592-63.8976-81.46944-3.4048-0.82944-6.8352-1.55136-10.25536-2.31936H194.58048c-0.68608 0.2816-1.35168 0.70656-2.06848 0.81408-42.07104 6.16448-72.09472 40.61696-72.09472 82.97984-0.02048 276.45952-0.0256 552.91904 0 829.37344 0.00512 46.7456 36.80256 83.70688 83.67104 83.72224 203.82208 0.08704 407.64416 0.06144 611.46112-0.06144a85.76 85.76 0 0 0 19.71712-2.304c38.38464-9.20064 63.95392-42.20416 63.95904-82.2784 0.02048-179.07712 0.01024-358.144 0.01024-537.22112 0-97.08032 0.0512-194.15552-0.02048-291.23584z m-55.63392 773.7856c-0.01024 47.31904-36.82304 83.92704-84.36224 83.94752-166.25152 0.0512-332.49792 0.0512-498.74944 0-47.744-0.01536-84.42368-36.736-84.4288-84.352-0.02048-119.66976-0.00512-239.34976-0.00512-359.02464 0-119.52128-0.01536-239.03744 0.00512-358.55872 0.00512-41.3184 27.71968-74.89024 68.48512-82.7904 5.26848-1.01888 10.74688-1.34656 16.11776-1.34656 166.09792-0.06656 332.19584-0.08192 498.28864-0.04096 41.68192 0.01536 75.28448 27.50976 83.24096 68.08064 1.024 5.24288 1.37216 10.69568 1.37216 16.04608 0.07168 239.34464 0.08704 478.68928 0.03584 718.03904z m0 0" p-id="2824"></path><path d="M787.94752 207.80544c-0.05632-47.06304-36.80256-83.72736-84.06016-83.7632-129.31584-0.09728-258.63168-0.08704-387.94752 0-47.5136 0.0256-84.25984 36.78208-84.26496 84.03968-0.02048 165.50912-0.0256 331.01312 0 496.51712 0.00512 47.24736 36.80768 83.97312 84.31104 83.99872 129.16224 0.07168 258.32448 0.04608 387.48672-0.03072 5.38112-0.00512 10.84928-0.36864 16.11264-1.38752 40.78592-7.94624 68.34688-41.35936 68.37248-82.85696 0.05632-82.60096 0.01536-165.1968 0.01536-247.79264-0.00512-82.90304 0.06656-165.81632-0.0256-248.72448z m-55.6032 494.72c-0.00512 19.47136-11.22816 30.71488-30.65344 30.71488H317.91104c-19.23072 0-30.61248-11.26912-30.61248-30.29504V209.65376c0-18.99008 11.41248-30.2592 30.65344-30.2592h383.77984c19.2256 0 30.61248 11.27424 30.61248 30.30016v492.83072z m0 0M509.79328 816.32256c-30.72512 0.01024-55.6544 24.89344-55.6032 55.5264 0.04608 30.37696 24.91392 55.15264 55.41888 55.23456 30.76608 0.08704 55.79776-24.70912 55.83872-55.28576 0.03072-30.61248-24.91904-55.48544-55.6544-55.4752z m0 0" p-id="2825"></path></svg>