<?xml version="1.0" standalone="no"?><!DOCTYPE svg PUBLIC "-//W3C//DTD SVG 1.1//EN" "http://www.w3.org/Graphics/SVG/1.1/DTD/svg11.dtd"><svg class="icon" width="200px" height="200.00px" viewBox="0 0 1024 1024" version="1.1" xmlns="http://www.w3.org/2000/svg"><path d="M921.6 870.4H563.2A102.4 102.4 0 0 1 460.8 768V563.2a102.4 102.4 0 0 1 102.4-102.4h358.4A102.4 102.4 0 0 1 1024 563.2V768a102.4 102.4 0 0 1-102.4 102.4z m-51.2-512a51.2 51.2 0 0 1-51.2-51.2V256a51.2 51.2 0 0 0-51.2-51.2h-51.2a51.2 51.2 0 0 1 0-102.4h102.4a102.4 102.4 0 0 1 102.4 102.4v102.4a51.2 51.2 0 0 1-51.2 51.2z m-409.6 51.2H102.4A102.4 102.4 0 0 1 0 307.2V102.4A102.4 102.4 0 0 1 102.4 0h358.4a102.4 102.4 0 0 1 102.4 102.4v204.8a102.4 102.4 0 0 1-102.4 102.4z m-307.2 256a51.2 51.2 0 0 1 51.2 51.2v51.2a51.2 51.2 0 0 0 51.2 51.2h51.2a51.2 51.2 0 0 1 0 102.4H204.8a102.4 102.4 0 0 1-102.4-102.4v-102.4a51.2 51.2 0 0 1 51.2-51.2z m0-102.4a51.2 51.2 0 0 1 0-102.4h204.8a51.2 51.2 0 1 1 0 102.4H153.6z m460.8 358.4h256a51.2 51.2 0 1 1 0 102.4h-256a51.2 51.2 0 0 1 0-102.4z" /></svg>