<?xml version="1.0" standalone="no"?><!DOCTYPE svg PUBLIC "-//W3C//DTD SVG 1.1//EN" "http://www.w3.org/Graphics/SVG/1.1/DTD/svg11.dtd"><svg t="1577777649340" class="icon" viewBox="0 0 1024 1024" version="1.1" xmlns="http://www.w3.org/2000/svg" p-id="2102" xmlns:xlink="http://www.w3.org/1999/xlink" width="200" height="200"><defs><style type="text/css"></style></defs><path d="M511.27808 44.64128c-258.06848 0-467.28192 209.21344-467.28192 467.28192 0 258.0736 209.21344 467.28192 467.28192 467.28192 258.0736 0 467.28704-209.20832 467.28704-467.28192 0-258.06848-209.20832-467.28192-467.28704-467.28192z m0 883.3536c-229.7856 0-416.07168-186.28096-416.07168-416.07168 0-229.7856 186.28096-416.07168 416.07168-416.07168 229.79072 0 416.0768 186.28096 416.0768 416.07168 0 229.79072-186.28608 416.07168-416.0768 416.07168z m0 0" p-id="2103"></path><path d="M758.67136 257.87904H270.53568a40.66816 40.66816 0 0 0-40.6784 40.6784v325.4016a40.67328 40.67328 0 0 0 40.6784 40.6784h203.392v61.01504H372.22912a20.35712 20.35712 0 0 0-20.33664 20.34688v20.33664h325.42208v-20.33664a20.352 20.352 0 0 0-20.34176-20.34688h-101.69344v-61.01504h203.392a40.68352 40.68352 0 0 0 40.6784-40.6784V298.55744a40.66816 40.66816 0 0 0-40.6784-40.6784z m-264.40192 366.08a20.352 20.352 0 0 1 20.33664-20.33664 20.352 20.352 0 0 1 0 40.69888 20.35712 20.35712 0 0 1-20.33664-20.36224z m-223.73376-40.6784v-284.7232h488.13568v284.7232H270.53568z m0 0" p-id="2104"></path></svg>
