<?xml version="1.0" standalone="no"?><!DOCTYPE svg PUBLIC "-//W3C//DTD SVG 1.1//EN" "http://www.w3.org/Graphics/SVG/1.1/DTD/svg11.dtd"><svg class="icon" width="200px" height="177.78px" viewBox="0 0 1152 1024" version="1.1" xmlns="http://www.w3.org/2000/svg"><path fill="#ffffff" d="M511.68 0a89.952 89.952 0 0 1 89.856 89.856 25.536 25.536 0 0 1-0.576 5.44c0.704 2.336 1.088 4.8 1.088 7.392v13.344c0 21.312 17.216 38.528 38.528 38.528h228.736c1.152 0 2.272 0.064 3.392 0.224l40.256 0.032a89.952 89.952 0 0 1 89.888 89.856l-0.032 42.336h59.328A89.952 89.952 0 0 1 1152 376.928v528.128a89.952 89.952 0 0 1-89.856 89.856H89.856A89.952 89.952 0 0 1 0 905.024V89.856A89.952 89.952 0 0 1 89.856 0H511.68z m0 51.36H89.856c-21.312 0-38.496 17.184-38.496 38.496v815.168c0 21.312 17.184 38.496 38.496 38.496h84.736c21.312 0 38.496-17.184 38.496-38.496v-179.744a25.6 25.6 0 0 1-0.256-3.584V376.896A89.952 89.952 0 0 1 302.72 287.04l648.768-0.032V244.672c0-21.312-17.184-38.496-38.496-38.496h-116.032a25.6 25.6 0 0 1-3.52-0.256h-152.832a89.952 89.952 0 0 1-89.856-89.888V102.72c0-1.856 0.192-3.68 0.576-5.44a25.184 25.184 0 0 1-1.088-7.36c0-21.344-17.216-38.528-38.528-38.528z m461.952 287.04H302.688c-21.312 0-38.496 17.184-38.496 38.496v308.128a25.6 25.6 0 0 1 0.256 3.552v216.448c-0.064 13.76-3.2 26.88-8.8 38.528h806.496c21.312 0 38.496-17.216 38.496-38.528V376.896c0-21.312-17.184-38.496-38.496-38.496h-81.44a25.6 25.6 0 0 1-7.072 0zM700.16 485.44l0.864 0.224a25.248 25.248 0 0 1 8.864 4.096l0.576 0.448c1.728 1.28 3.296 2.848 4.64 4.544l107.968 107.776a25.568 25.568 0 0 1-18.24 43.648 26.304 26.304 0 0 1-18.208-7.424l-65.984-66.016v210.304a25.76 25.76 0 0 1-25.664 25.664 25.76 25.76 0 0 1-25.696-25.664v-210.816l-66.496 66.528a24.224 24.224 0 0 1-17.952 7.424 25.568 25.568 0 0 1-18.24-43.648l110.144-110.144c6.4-6.368 15.232-8.672 23.424-6.944z"  /></svg>