<?xml version="1.0" standalone="no"?><!DOCTYPE svg PUBLIC "-//W3C//DTD SVG 1.1//EN" "http://www.w3.org/Graphics/SVG/1.1/DTD/svg11.dtd"><svg class="icon" width="200px" height="200.00px" viewBox="0 0 1024 1024" version="1.1" xmlns="http://www.w3.org/2000/svg"><path fill="#ffffff" d="M512.240941 181.910588a301.176471 301.176471 0 0 1 301.176471 301.176471v235.64047l53.007059 83.486118a60.235294 60.235294 0 0 1-51.922824 90.834824H210.823529a60.235294 60.235294 0 0 1-52.103529-90.473412l52.344471-83.84753V483.087059a301.176471 301.176471 0 0 1 301.17647-301.176471z m0 60.235294a240.941176 240.941176 0 0 0-240.700235 228.894118l-0.240941 12.047059v245.398588l-49.995294 86.196706a12.047059 12.047059 0 0 0 10.420705 18.070588h561.694118a12.047059 12.047059 0 0 0 10.360471-18.130823l-50.597647-85.89553V483.087059a240.941176 240.941176 0 0 0-240.941177-240.941177z m30.117647-181.910588a30.117647 30.117647 0 0 1 0 60.235294h-60.235294a30.117647 30.117647 0 0 1 0-60.235294h60.235294z m60.235294 891.542588a30.117647 30.117647 0 0 1 0 60.235294h-180.705882a30.117647 30.117647 0 0 1 0-60.235294h180.705882z" /></svg>