<?xml version="1.0" standalone="no"?><!DOCTYPE svg PUBLIC "-//W3C//DTD SVG 1.1//EN" "http://www.w3.org/Graphics/SVG/1.1/DTD/svg11.dtd"><svg t="1590377452204" class="icon" viewBox="0 0 1024 1024" version="1.1" xmlns="http://www.w3.org/2000/svg" p-id="3750" xmlns:xlink="http://www.w3.org/1999/xlink" width="200" height="200"><defs><style type="text/css"></style></defs><path d="M738.71872 540.96896V122.28096c0-54.35392-44.04224-98.39104-98.39104-98.39104-54.35904 0-98.39104 44.03712-98.39104 98.39104v418.78528a240.4352 240.4352 0 0 0-142.0544 219.42272c0 132.77696 107.65824 240.4352 240.44032 240.4352 132.77696 0 240.4352-107.65824 240.4352-240.4352 0.1024-94.85312-55.58784-180.74112-142.03904-219.52z m-98.29888 394.23488c-90.17344 0-165.54496-68.58752-174.04416-158.38208-8.50432-89.79456 52.72576-171.27424 141.27616-188.1856V122.28096a32.75776 32.75776 0 0 1 32.76288-32.76288c18.15552 0 32.768 14.70976 32.768 32.76288v466.44736c88.5504 16.91136 149.78048 98.39616 141.2864 188.19072-8.50432 89.7024-83.87072 158.2848-174.04928 158.2848z m0 0" fill="#8A8A8A" p-id="3751"></path><path d="M640.41984 906.83392c-75.17184 0-137.36448-58.6496-141.85472-133.7344-4.39296-75.0848 50.5344-140.61568 125.23008-149.40672a32.6656 32.6656 0 0 1 33.24416 11.0848 32.6912 32.6912 0 0 1 4.20352 34.76992 32.79872 32.79872 0 0 1-29.60896 18.71872v0.48128c-39.2704 4.49024-68.58752 38.1184-67.73248 77.66016 0.85504 39.45472 31.616 71.83872 70.96832 74.70592 39.36256 2.8672 74.41408-24.84224 80.91648-63.7184a32.70656 32.70656 0 0 1 31.42656-32.19456c17.38752-0.75264 32.19456 12.2368 34.00704 29.52704h0.96256c-5.25312 74.3168-67.15904 132.10624-141.76256 132.10624z m0.57856-356.20864a11.50464 11.50464 0 0 1-11.4688-11.4688V144.63488a11.49952 11.49952 0 0 1 11.4688-11.45856 11.49952 11.49952 0 0 1 11.45856 11.45856v394.5216a11.4944 11.4944 0 0 1-11.45856 11.4688zM443.73504 287.2576H247.04512a32.76288 32.76288 0 0 1-32.76288-32.768 32.75776 32.75776 0 0 1 32.76288-32.76288h196.68992a32.75776 32.75776 0 0 1 32.76288 32.76288c0 18.05312-14.70976 32.768-32.76288 32.768z m0-131.15392H181.42208a32.75776 32.75776 0 0 1-32.76288-32.768 32.75776 32.75776 0 0 1 32.76288-32.76288h262.31296a32.75776 32.75776 0 0 1 32.76288 32.76288c0 18.14528-14.70976 32.768-32.76288 32.768z m0 393.3696H301.69088a32.75776 32.75776 0 0 1-32.76288-32.76288c0-18.1504 14.70976-32.768 32.76288-32.768h142.04928a32.76288 32.76288 0 0 1 32.76288 32.768 32.76288 32.76288 0 0 1-32.768 32.76288z m0-131.06176H192.4096a32.75776 32.75776 0 0 1-32.768-32.76288 32.75776 32.75776 0 0 1 32.768-32.76288h251.32544a32.75776 32.75776 0 0 1 32.76288 32.76288 32.8192 32.8192 0 0 1-32.76288 32.76288z m0 0" fill="#8A8A8A" p-id="3752"></path></svg>