<?xml version="1.0" standalone="no"?><!DOCTYPE svg PUBLIC "-//W3C//DTD SVG 1.1//EN" "http://www.w3.org/Graphics/SVG/1.1/DTD/svg11.dtd"><svg t="1572858802444" class="icon" viewBox="0 0 1024 1024" version="1.1" xmlns="http://www.w3.org/2000/svg" p-id="6782" xmlns:xlink="http://www.w3.org/1999/xlink" width="200" height="200"><defs><style type="text/css"></style></defs><path d="M722.96448 246.25152c0-22.78912-9.0624-44.6464-25.16992-60.75904l-121.75872-121.77408c-33.56672-33.55648-87.97184-33.55648-121.51808 0L332.73856 185.49248c-33.55648 33.55648-33.55648 87.95648 0 121.51808L454.5024 428.77952c33.56672 33.55648 87.96672 33.55648 121.51808 0l121.77408-121.76896a85.94944 85.94944 0 0 0 25.16992-60.75904z m-174.14144 123.23328a47.4368 47.4368 0 0 1-67.1232 0L392.0128 279.79776a47.44192 47.44192 0 0 1 0-67.11296l89.63584-89.68192a47.44704 47.44704 0 0 1 67.1232 0L638.464 212.69504a47.45216 47.45216 0 0 1 0 67.11808l-89.64096 89.67168z m448.48128 151.10656c0-22.78912-9.05216-44.64128-25.16992-60.75904l-121.75872-121.77408c-33.55648-33.55136-87.9616-33.55136-121.51808 0l-121.76896 121.77408c-33.55648 33.55648-33.55648 87.95648 0 121.51808l121.75872 121.76896c33.5616 33.55648 87.9616 33.55648 121.51808 0l121.76896-121.76896a85.89824 85.89824 0 0 0 25.16992-60.75904z m-174.13632 123.2384a47.47264 47.47264 0 0 1-67.1232 0l-89.69728-89.7024a47.45728 47.45728 0 0 1 0-67.11296l89.67168-89.6768a47.47776 47.47776 0 0 1 67.1232 0l89.7024 89.69728a47.48288 47.48288 0 0 1 0 67.12832l-89.6768 89.66656z m-376.69888-121.09824c0-22.784-9.05216-44.63616-25.1648-60.74368L299.53536 340.20864c-33.5616-33.55648-87.9616-33.55648-121.51808 0L56.24832 461.98272c-33.55648 33.55648-33.55648 87.95648 0 121.51808l121.77408 121.75872c33.55648 33.55136 87.95648 33.55136 121.51808 0l121.76896-121.75872a85.92384 85.92384 0 0 0 25.15968-60.76928zM272.37888 645.9904a47.4624 47.4624 0 0 1-67.1232 0L115.5584 556.29312a47.45216 47.45216 0 0 1 0-67.1232l89.7024-89.68704a47.44704 47.44704 0 0 1 67.1232 0l89.69728 89.69216a47.46752 47.46752 0 0 1 0 67.1232l-89.7024 89.69216z m448.44544 151.10144a85.92896 85.92896 0 0 0-25.16992-60.7232l-121.77408-121.80992c-33.55648-33.55648-87.9616-33.55648-121.51296 0l-121.7792 121.80992c-33.55136 33.55136-33.55136 87.9616 0 121.50784l121.7792 121.728c33.55648 33.55648 87.9616 33.55648 121.51296 0l121.77408-121.75872a85.9392 85.9392 0 0 0 25.16992-60.75392z m-174.13632 123.23328a47.488 47.488 0 0 1-67.12832 0l-89.69216-89.7024a47.45216 47.45216 0 0 1 0-67.11808l89.69216-89.69728a47.488 47.488 0 0 1 33.5616-13.90592c12.59008 0 24.65792 5.00736 33.56672 13.90592l89.69216 89.69728a47.44704 47.44704 0 0 1 0 67.11808l-89.69216 89.7024z m0 0" p-id="6783"></path></svg>
