<?xml version="1.0" standalone="no"?><!DOCTYPE svg PUBLIC "-//W3C//DTD SVG 1.1//EN" "http://www.w3.org/Graphics/SVG/1.1/DTD/svg11.dtd"><svg t="1632902257125" class="icon" viewBox="0 0 1024 1024" version="1.1" xmlns="http://www.w3.org/2000/svg" p-id="4058" xmlns:xlink="http://www.w3.org/1999/xlink" width="200" height="200"><defs><style type="text/css"></style></defs><path d="M512 0c282.773333 0 512 229.226667 512 512S794.773333 1024 512 1024 0 794.773333 0 512 229.226667 0 512 0z m0 34.133333C248.085333 34.133333 34.133333 248.085333 34.133333 512c0 263.914667 213.952 477.866667 477.866667 477.866667 263.914667 0 477.866667-213.952 477.866667-477.866667C989.866667 248.085333 775.914667 34.133333 512 34.133333z m209.536 403.946667c30.336 0 56.896 26.56 56.896 56.896V718.72c0 30.336-26.56 56.874667-56.896 56.874667h-37.930667c-30.336 0-56.874667-26.538667-56.874666-56.874667V494.933333c0-30.314667 26.538667-56.874667 56.874666-56.874666z m-189.632 75.861333c30.357333 0 56.896 26.538667 56.896 56.874667v147.925333c0 30.336-26.538667 56.874667-56.896 56.874667h-37.909333c-30.357333 0-56.896-26.538667-56.896-56.874667v-147.925333c0-30.336 26.538667-56.874667 56.896-56.874667z m-189.632 75.84c30.357333 0 56.896 26.56 56.896 56.896v72.064c0 30.336-26.538667 56.874667-56.896 56.874667h-37.909333c-30.357333 0-56.896-26.538667-56.896-56.874667v-72.064c0-30.336 26.538667-56.896 56.896-56.896z m379.264-113.770666h-37.930667c-11.370667 0-18.944 7.573333-18.944 18.965333V718.72c0 11.370667 7.573333 18.965333 18.944 18.965333h37.930667c11.392 0 18.986667-7.594667 18.986667-18.986666V494.997333c0-11.392-7.594667-18.986667-18.986667-18.986666z m-189.632 75.84h-37.909333c-11.392 0-18.986667 7.594667-18.986667 18.986666v147.904c0 11.370667 7.594667 18.965333 18.986667 18.965334h37.909333c11.392 0 18.986667-7.594667 18.986667-18.986667v-147.904c0-11.370667-7.594667-18.965333-18.986667-18.965333z m-189.632 75.861333h-37.909333c-11.392 0-18.986667 7.594667-18.986667 18.965333v72.064c0 11.370667 7.594667 18.965333 18.986667 18.965334h37.909333c11.392 0 18.986667-7.594667 18.986667-18.986667v-72.042667c0-11.370667-7.594667-18.965333-18.986667-18.965333z m322.389333-364.096c0-11.370667 7.573333-18.965333 22.741334-15.146667h83.434666l3.797334 3.776c3.797333 0 3.797333 3.797333 3.797333 3.797334v83.413333c0 11.392-7.594667 18.986667-18.965333 18.986667s-18.965333-7.594667-18.965334-18.986667v-30.314667l-128.938666 128.938667a18.346667 18.346667 0 0 1-26.56 0l-79.637334-79.637333-189.632 185.813333a18.346667 18.346667 0 0 1-26.538666 0 18.346667 18.346667 0 0 1 0-26.538667l201.002666-201.002666a18.346667 18.346667 0 0 1 26.538667 0l83.434667 79.658666 113.792-113.792h-30.357334c-11.370667 0-18.944-7.573333-18.944-18.965333z" p-id="4059"></path></svg>