<?xml version="1.0" standalone="no"?><!DOCTYPE svg PUBLIC "-//W3C//DTD SVG 1.1//EN" "http://www.w3.org/Graphics/SVG/1.1/DTD/svg11.dtd"><svg class="icon" width="200px" height="200.00px" viewBox="0 0 1024 1024" version="1.1" xmlns="http://www.w3.org/2000/svg"><path fill="#ffffff" d="M757.184 840H498.688v115.84h258.56v-115.84z m-87.296-771.84H586.24V771.84h83.584V68.16zM208.96 781.44h0.384c17.92 0 35.328-7.616 46.528-22.4a54.208 54.208 0 0 0 9.792-46.528c-11.712-42.496-58.048-44.992-58.496-44.992a28.416 28.416 0 0 1-27.136-28.352l-0.064-68.864h-12.544a47.68 47.68 0 0 1-47.744-47.68V391.552H47.68a47.68 47.68 0 0 1-47.232-41.152L0 343.936V260.864c0-26.304 21.376-47.68 47.68-47.68l95.488-0.064L518.08 61.568V47.68c0-26.304 21.376-47.68 47.744-47.68h124.48c26.368 0 47.68 21.376 47.68 47.68v20.416l178.688 145.024 20.352 0.064a48 48 0 0 1 47.36 41.28l0.448 6.4v83.072a47.68 47.68 0 0 1-47.744 47.68l-199.104-0.064v380.288h39.68c26.368 0 47.68 21.376 47.68 47.744v156.608a47.68 47.68 0 0 1-47.552 47.808h-299.52a47.68 47.68 0 0 1-47.68-47.68v-156.8c0-26.304 21.312-47.68 47.68-47.68h39.808V391.552H298.112v131.008a47.872 47.872 0 0 1-47.68 47.808H236.8v45.248l0.128 0.064c5.888 1.728 12.352 3.968 19.072 6.912 32.832 14.912 55.04 40.832 64.384 74.88 8.96 32.64 1.856 68.288-19.52 96.192-21.76 28.8-56.128 44.8-91.52 44.8h-0.64c-69.888-0.384-103.68-55.36-105.92-60.672-2.048-4.8-11.328-28.096 9.408-40.576 17.984-11.136 32.832 3.84 38.336 10.56l1.216 1.472 0.064 0.192 0.832 1.024-0.704-0.832c3.84 5.888 22.656 31.808 57.024 31.872z m21.056-389.888h-42.176v110.592h42.176V391.68z m686.656-110.272l-178.688-0.064v42.176h178.688v-42.112z m-398.592-0.064h-449.92v42.24l449.92-0.064v-42.176z m219.904-140.032V213.12h88.512l-88.512-71.872z m-219.904-18.432L294.656 213.12h223.424V122.816z"  fill-opacity=".45" /></svg>