<?xml version="1.0" standalone="no"?><!DOCTYPE svg PUBLIC "-//W3C//DTD SVG 1.1//EN" "http://www.w3.org/Graphics/SVG/1.1/DTD/svg11.dtd"><svg t="1598499153675" class="icon" viewBox="0 0 1024 1024" version="1.1" xmlns="http://www.w3.org/2000/svg" p-id="6662" xmlns:xlink="http://www.w3.org/1999/xlink" width="128" height="128"><defs><style type="text/css"></style></defs><path d="M844.371042 0.011518H179.302345A174.925123 174.925123 0 0 0 2.687866 173.093708v677.892445a174.925123 174.925123 0 0 0 176.614479 173.0054h665.299064a174.925123 174.925123 0 0 0 176.614479-173.0054V173.016919A174.925123 174.925123 0 0 0 844.371042 0.011518z m119.713902 865.257371a104.048965 104.048965 0 0 1-105.584743 102.052453H164.94282a103.972176 103.972176 0 0 1-105.661532-102.052453v-706.457917A104.048965 104.048965 0 0 1 164.94282 56.681729h693.480592a104.048965 104.048965 0 0 1 105.584743 102.129243z m0 0" p-id="6663"></path><path d="M451.135065 697.561922a34.017484 34.017484 0 0 1-23.650982-9.445035l-0.691101-0.767889L220.921931 481.477946a34.171062 34.171062 0 0 1 48.30022-48.30022l181.759336 181.759336 330.192287-330.192288a34.247851 34.247851 0 1 1 48.453799 48.453799l-353.996848 353.920058-0.6911 0.767889a34.017484 34.017484 0 0 1-23.574193 9.368247z m0 0" p-id="6664"></path></svg>