<?xml version="1.0" standalone="no"?><!DOCTYPE svg PUBLIC "-//W3C//DTD SVG 1.1//EN" "http://www.w3.org/Graphics/SVG/1.1/DTD/svg11.dtd"><svg t="1592982802880" class="icon" viewBox="0 0 1024 1024" version="1.1" xmlns="http://www.w3.org/2000/svg" p-id="4053" xmlns:xlink="http://www.w3.org/1999/xlink" width="48" height="48"><defs><style type="text/css"></style></defs><path d="M419.04 805.12l-1.824-8.32a286.272 286.272 0 0 1-92.416-53.024l-8.224 2.688A95.488 95.488 0 0 1 204.8 704a94.112 94.112 0 0 1 18.88-117.312l6.4-5.76a280.608 280.608 0 0 1 0-105.824l-6.4-5.792A94.208 94.208 0 0 1 204.8 352a95.36 95.36 0 0 1 111.776-42.464l8.256 2.688A289.952 289.952 0 0 1 417.216 259.2l1.824-8.448a95.168 95.168 0 0 1 185.952 0l1.792 8.48a285.824 285.824 0 0 1 92.416 52.992l8.224-2.688A95.36 95.36 0 0 1 819.2 352a94.24 94.24 0 0 1-18.848 117.344l-6.4 5.728a281.344 281.344 0 0 1 0 105.824l6.4 5.792A94.112 94.112 0 0 1 819.2 704a95.488 95.488 0 0 1-111.84 42.464l-8.256-2.688a290.592 290.592 0 0 1-92.32 53.024l-1.792 8.448a95.168 95.168 0 0 1-185.952 0z m-63.584-120.32a222.976 222.976 0 0 0 97.92 56.032 32 32 0 0 1 23.04 24.288l5.696 26.88a30.592 30.592 0 0 0 59.744 0l5.664-26.816a32 32 0 0 1 23.04-24.256 226.08 226.08 0 0 0 52.608-21.824 223.424 223.424 0 0 0 45.376-34.304 32 32 0 0 1 22.688-9.248 32.992 32.992 0 0 1 10.016 1.6l26.208 8.512a30.304 30.304 0 0 0 29.856-51.2l-20.576-18.304a31.68 31.68 0 0 1-9.6-32 219.2 219.2 0 0 0 0-112 31.68 31.68 0 0 1 9.6-32l20.544-18.272A30.24 30.24 0 0 0 763.392 384a30.688 30.688 0 0 0-35.904-13.632l-26.208 8.512a32.48 32.48 0 0 1-32.736-7.68 223.136 223.136 0 0 0-97.92-56.032 32 32 0 0 1-23.04-24.288l-5.696-26.848a30.56 30.56 0 0 0-59.744 0l-5.664 26.784a32 32 0 0 1-23.04 24.288 224.864 224.864 0 0 0-97.984 56.096 32.448 32.448 0 0 1-32.704 7.648l-26.24-8.512a30.304 30.304 0 0 0-29.856 51.2l20.576 18.336a31.712 31.712 0 0 1 9.6 32 218.56 218.56 0 0 0 0 112 31.776 31.776 0 0 1-9.6 32l-20.544 18.272A30.208 30.208 0 0 0 260.608 672a30.656 30.656 0 0 0 26.432 15.136 30.304 30.304 0 0 0 9.6-1.504l26.24-8.512a32.672 32.672 0 0 1 9.984-1.6 32.256 32.256 0 0 1 22.592 9.28z m39.424-156.8A117.12 117.12 0 1 1 512 644.192a116.8 116.8 0 0 1-117.12-116.192z m64.512 0A52.608 52.608 0 1 0 512 475.776a52.48 52.48 0 0 0-52.608 52.224z" fill="#92929D" p-id="4054"></path></svg>