<?xml version="1.0" standalone="no"?><!DOCTYPE svg PUBLIC "-//W3C//DTD SVG 1.1//EN" "http://www.w3.org/Graphics/SVG/1.1/DTD/svg11.dtd"><svg class="icon" width="200px" height="200.00px" viewBox="0 0 1024 1024" version="1.1" xmlns="http://www.w3.org/2000/svg"><path fill="#ffffff" d="M373.704649 193.72973a110.702703 110.702703 0 0 1 110.702702 110.702702l-0.027675 249.606919h274.542702a110.702703 110.702703 0 0 1 110.702703 110.702703V913.297297a110.702703 110.702703 0 0 1-110.702703 110.702703H124.540541a110.702703 110.702703 0 0 1-110.702703-110.702703V304.432432a110.702703 110.702703 0 0 1 110.702703-110.702702h249.164108z m55.323675 415.660973H69.327568L69.189189 913.297297a55.351351 55.351351 0 0 0 51.2 55.212973L124.540541 968.648649l50.729513-0.027676 253.785946-0.110703-0.027676-359.119567z m329.894054 0h-274.542702v359.23027l274.542702 0.027676a55.351351 55.351351 0 0 0 55.185298-51.2l0.138378-4.151352v-248.527567a55.351351 55.351351 0 0 0-51.2-55.212973l-4.151351-0.138379zM373.649297 249.081081H124.540541a55.351351 55.351351 0 0 0-55.212973 51.2L69.189189 304.432432l-0.027675 249.606919h359.86681V304.432432a55.351351 55.351351 0 0 0-51.2-55.212973L373.676973 249.081081zM899.459459 0a110.702703 110.702703 0 0 1 110.702703 110.702703v276.756756a110.702703 110.702703 0 0 1-110.702703 110.702703h-249.081081a110.702703 110.702703 0 0 1-110.702702-110.702703V110.702703a110.702703 110.702703 0 0 1 110.702702-110.702703h249.081081z m0 55.351351h-249.081081a55.351351 55.351351 0 0 0-55.212973 51.2L595.027027 110.702703v276.756756a55.351351 55.351351 0 0 0 51.2 55.212973L650.378378 442.810811h249.081081a55.351351 55.351351 0 0 0 55.212973-51.2L954.810811 387.459459V110.702703a55.351351 55.351351 0 0 0-51.2-55.212973L899.459459 55.351351z m-111.256216 58.174271a27.675676 27.675676 0 0 1 13.920865 34.041081l-1.245405 2.988973-35.563244 73.783351 65.591352-1.356108a27.675676 27.675676 0 0 1 26.291892 37.445189l-1.300757 2.961297-57.482378 109.12519a27.675676 27.675676 0 0 1-50.480433-22.500325l1.328433-2.961297 36.199783-68.054487-64.456648 1.356109a27.675676 27.675676 0 0 1-26.485622-36.919352l1.245405-2.933621 55.406703-114.300541a27.675676 27.675676 0 0 1 37.030054-12.675459z" /></svg>