<?xml version="1.0" standalone="no"?><!DOCTYPE svg PUBLIC "-//W3C//DTD SVG 1.1//EN" "http://www.w3.org/Graphics/SVG/1.1/DTD/svg11.dtd"><svg class="icon" width="200px" height="200.00px" viewBox="0 0 1024 1024" version="1.1" xmlns="http://www.w3.org/2000/svg"><path fill="#ffffff" d="M512 0c206.933333 0 391.104 123.925333 471.04 310.976a21.333333 21.333333 0 0 1-39.253333 16.768A469.418667 469.418667 0 0 0 512 42.666667C252.8 42.666667 42.666667 252.8 42.666667 512s210.133333 469.333333 469.333333 469.333333a21.333333 21.333333 0 1 1 0 42.666667C229.226667 1024 0 794.773333 0 512S229.226667 0 512 0z m128 981.333333a21.333333 21.333333 0 1 1 0 42.666667 21.333333 21.333333 0 0 1 0-42.666667z m149.333333-85.333333a21.333333 21.333333 0 1 1 0 42.666667 21.333333 21.333333 0 0 1 0-42.666667zM611.712 195.477333l-0.448 2.112-33.941333 121.216-23.253334 83.285334-0.810666 2.602666-4.864 13.376c-3.050667 8.704-5.738667 18.197333-3.989334 24.618667 8.405333 5.077333 25.002667 5.184 41.194667 4.16l10.624-0.810667 14.506667-1.28 7.829333-0.533333 3.157333-0.085333h75.349334c8.896 0 16.981333 10.56 12.714666 19.114666l-1.024 1.706667-271.061333 373.12c-8.234667 11.392-27.541333 5.76-25.386667-8.448l0.426667-2.090667 60.224-215.125333 2.986667-8.362667c2.773333-7.701333 5.546667-16.896 2.624-20.949333-2.56-3.626667-12.010667-4.053333-21.44-3.626667l-6.954667 0.426667-11.306667 0.853333-1.834666 0.064h-109.930667c-9.664 0-18.133333-11.946667-11.861333-20.650666 90.410667-124.373333 180.821333-248.746667 270.997333-373.205334 8.32-11.392 27.541333-5.76 25.472 8.533334zM917.333333 768a21.333333 21.333333 0 1 1 0 42.666667 21.333333 21.333333 0 0 1 0-42.666667zM526.592 341.866667l-142.613333 196.288h53.269333l11.093333-0.896 6.997334-0.426667a117.76 117.76 0 0 1 20.650666 0.64c15.018667 1.962667 27.349333 6.762667 37.184 20.650667 9.92 13.738667 10.837333 27.072 8.213334 41.621333-0.874667 4.928-2.133333 9.472-3.904 14.784l-1.450667 4.138667-2.346667 6.464-16.298666 58.154666 142.741333-196.48-20.373333 0.064-24.106667 2.026667-10.026667 0.704c-25.664 1.408-43.477333 0.149333-59.605333-8.32l-3.690667-2.090667-14.592-8.832-4.48-16.426666c-3.989333-14.592-2.24-27.413333 2.56-42.965334l2.133334-6.442666 5.013333-13.909334 13.632-48.746666zM981.333333 618.666667a21.333333 21.333333 0 1 1 0 42.666666 21.333333 21.333333 0 0 1 0-42.666666z m21.333334-213.333334a21.333333 21.333333 0 1 1 0 42.666667 21.333333 21.333333 0 0 1 0-42.666667z"  /></svg>