<?xml version="1.0" standalone="no"?><!DOCTYPE svg PUBLIC "-//W3C//DTD SVG 1.1//EN" "http://www.w3.org/Graphics/SVG/1.1/DTD/svg11.dtd"><svg class="icon" width="200px" height="200.00px" viewBox="0 0 1024 1024" version="1.1" xmlns="http://www.w3.org/2000/svg"><path fill="#ffffff" d="M811.57551 643.844277a37.503578 37.503578 0 0 0-40.767542-1.919979c-43.58351 25.599712-93.822944 39.807552-145.022368 39.807553-156.47824 0-284.4768-127.99856-284.4768-284.4768 0-51.199424 13.31185-101.438859 39.871552-145.022369a37.503578 37.503578 0 0 0-1.919979-40.767541 39.807552 39.807552 0 0 0-37.951573-16.127819A416.123319 416.123319 0 0 0 0.00064 605.892704c0 230.397408 186.813898 417.147307 417.211306 417.147307a417.019309 417.019309 0 0 0 410.491382-341.30816 37.31158 37.31158 0 0 0-16.127818-37.951574zM417.275946 947.200864a341.116162 341.116162 0 0 1-341.37216-341.30816 340.604168 340.604168 0 0 1 204.797696-312.95648 356.027995 356.027995 0 0 0-15.167829 104.318827 360.123949 360.123949 0 0 0 360.315946 360.315946c36.031595 0 71.039201-5.695936 104.318827-15.167829a340.604168 340.604168 0 0 1-312.95648 204.797696zM482.555211 183.049461l62.591296 37.887573 37.887574 62.591296a36.991584 36.991584 0 0 0 32.255637 17.983798c13.247851 0 25.599712-6.655925 32.255637-17.983798l37.887574-62.591296 62.591296-37.951573a36.991584 36.991584 0 0 0 17.983797-32.191637c0-13.31185-6.591926-25.599712-17.983797-32.255638l-62.591296-37.951573-37.887574-62.591295A36.991584 36.991584 0 0 0 615.353717 0.01152c-13.31185 0-25.599712 6.655925-32.255637 17.983798l-37.887574 62.591295-62.591295 37.951573a36.991584 36.991584 0 0 0-18.047797 32.255638c0 13.247851 6.655925 25.599712 18.047797 32.191637z m110.910753-42.68752a35.647599 35.647599 0 0 0 13.24785-13.31185l10.431883-17.023809 10.431883 17.023809a35.647599 35.647599 0 0 0 13.31185 13.31185l17.023808 10.431883-17.023808 10.431882a35.647599 35.647599 0 0 0-13.31185 13.247851l-10.431883 17.087808-10.431883-17.087808a35.647599 35.647599 0 0 0-13.24785-13.247851l-17.087808-10.431882 17.087808-10.431883z m412.475359 205.693686l-86.335029-52.095414-52.095413-86.335029a36.991584 36.991584 0 0 0-32.255638-17.983797c-13.31185 0-25.599712 6.655925-32.255637 17.983797l-52.159413 86.335029-86.271029 52.095414a36.991584 36.991584 0 0 0-17.983798 32.255637c0 13.31185 6.591926 25.599712 17.983798 32.255637l86.271029 52.159413 52.159413 86.27103a36.991584 36.991584 0 0 0 32.255637 17.983797c13.247851 0 25.599712-6.591926 32.255638-17.983797l52.095413-86.27103 86.335029-52.159413A36.991584 36.991584 0 0 0 1023.98912 378.247265c0-13.247851-6.655925-25.599712-17.983798-32.255637z m-134.654485 56.959359a35.647599 35.647599 0 0 0-13.31185 13.247851l-24.639723 40.767541-24.639723-40.767541a35.647599 35.647599 0 0 0-13.247851-13.31185l-40.767541-24.639723 40.767541-24.639723a35.647599 35.647599 0 0 0 13.247851-13.247851l24.639723-40.83154 24.639723 40.83154a35.647599 35.647599 0 0 0 13.31185 13.247851l40.767541 24.639723-40.767541 24.639723z" /></svg>