<?xml version="1.0" standalone="no"?><!DOCTYPE svg PUBLIC "-//W3C//DTD SVG 1.1//EN" "http://www.w3.org/Graphics/SVG/1.1/DTD/svg11.dtd"><svg class="icon" width="200px" height="183.35px" viewBox="0 0 1117 1024" version="1.1" xmlns="http://www.w3.org/2000/svg"><path fill="#ffffff" d="M903.284364 0a65.559273 65.559273 0 0 1 65.163636 59.159273l0.279273 6.283636v52.363636h39.284363a109.242182 109.242182 0 0 1 108.823273 101.655273l0.256 7.447273v688.011636a109.218909 109.218909 0 0 1-101.632 108.823273l-7.447273 0.256h-436.363636a109.242182 109.242182 0 0 1-108.846545-101.632l-0.256-7.447273v-101.841454c0-11.170909 8.401455-20.410182 19.246545-21.643637l2.56-0.162909c12.032 0 21.806545 9.774545 21.806545 21.806546l0.023273 101.841454a65.536 65.536 0 0 0 59.159273 65.163637l6.283636 0.279272h436.363637a65.536 65.536 0 0 0 65.163636-59.159272l0.302545-6.283637V226.909091a65.536 65.536 0 0 0-59.159272-65.163636l-6.283637-0.302546h-436.363636a65.536 65.536 0 0 0-65.163636 59.159273l-0.302546 6.306909-0.023273 170.193454a21.806545 21.806545 0 0 1-43.473454 2.56l-0.139636-2.56V226.909091a109.242182 109.242182 0 0 1 101.632-108.846546l7.447272-0.232727h39.284364v-52.363636a65.536 65.536 0 0 1 59.159273-65.163637l6.283636-0.302545h226.909091z m81.687272 884.363636a23.272727 23.272727 0 1 1 0 46.545455h-372.363636a23.272727 23.272727 0 1 1 0-46.545455h372.363636zM235.496727 279.272727l1.629091 0.069818c10.496 0.721455 21.573818 8.727273 23.458909 38.237091v78.941091l1.000728 0.046546c20.898909 0.721455 360.634182 17.454545 286.370909 388.235636 0 0-2.397091 6.469818-6.213819 6.469818-1.908364 0-4.142545-1.629091-6.562909-6.469818 0 0-60.043636-201.216-211.316363-201.216a197.189818 197.189818 0 0 0-63.301818 10.356364v78.987636s-4.887273 26.903273-24.22691 26.903273c-6.213818 0-13.917091-2.792727-23.458909-10.123637L17.640727 515.328l-0.861091-0.535273-1.396363-0.930909c-8.052364-5.585455-32.628364-26.507636 4.794182-53.713454l197.329454-175.429819S225.978182 279.272727 235.496727 279.272727z m600.413091-14.103272c7.912727 2.350545 13.707636 8.936727 15.173818 16.849454l0.395637 4.049455v177.245091h80.151272a21.806545 21.806545 0 0 1 20.13091 30.254545l-1.861819 3.514182-181.666909 277.527273a21.806545 21.806545 0 0 1-12.637091 9.122909l-3.863272 0.674909a21.783273 21.783273 0 0 1-23.202909-17.687273l-0.372364-4.049455v-177.477818h-80.151273a21.829818 21.829818 0 0 1-20.107636-30.301091l1.861818-3.490909 181.643636-277.294545a21.783273 21.783273 0 0 1 12.637091-9.122909l3.886546-0.674909a21.76 21.76 0 0 1 7.982545 0.861091z m-28.066909 94.021818l-119.458909 182.365091h61.602909a21.829818 21.829818 0 0 1 21.410909 17.524363l0.395637 4.282182v126.138182l119.482181-182.551273H829.672727a21.829818 21.829818 0 0 1-21.457454-17.896727l-0.349091-3.909818v-125.952zM223.511273 330.752L45.614545 488.866909l177.850182 158.859636v-82.338909l25.623273-8.843636a233.053091 233.053091 0 0 1 74.728727-12.288c74.402909 0 140.986182 40.494545 192.605091 117.061818 1.582545 2.327273 3.118545 4.654545 4.608 6.981818a295.424 295.424 0 0 0-4.189091-37.585454 236.055273 236.055273 0 0 0-15.127272-51.479273 203.52 203.52 0 0 0-23.272728-40.657454c-15.709091-21.294545-36.049455-39.842909-60.416-55.086546a300.893091 300.893091 0 0 0-69.259636-31.394909c-45.451636-14.312727-83.781818-16.058182-88.32-16.221091l-0.930909-0.023273-36.002909-1.117091v-103.982545zM903.284364 43.636364h-226.909091a21.853091 21.853091 0 0 0-21.480728 17.92l-0.34909 3.886545v52.363636H925.090909v-52.363636a21.829818 21.829818 0 0 0-21.829818-21.806545z"  /></svg>