<?xml version="1.0" standalone="no"?><!DOCTYPE svg PUBLIC "-//W3C//DTD SVG 1.1//EN" "http://www.w3.org/Graphics/SVG/1.1/DTD/svg11.dtd"><svg class="icon" width="200px" height="200.00px" viewBox="0 0 1024 1024" version="1.1" xmlns="http://www.w3.org/2000/svg"><path d="M654.398101 860.272563c0-29.611642 6.779339-57.688339 18.867029-82.82306l-399.725189 97.341078H202.292924l57.304603-169.611392 435.924302-106.230966 36.135157 106.934483c17.843732-13.558678 38.117794-24.175379 59.990756-31.274499l-30.826806-91.457123-51.036913-151.064144-54.042845-159.890075-62.67691-185.664356A33.449004 33.449004 0 0 0 561.406033 63.95603h-131.749422a33.257136 33.257136 0 0 0-31.722191 22.576479L306.605209 357.386297l-63.700206 188.670289-60.118669 178.053588-51.804384 152.854913-4.476922 13.622634H33.321092c-18.547249 0-33.385048 14.709887-33.385048 32.937356v44.12966a33.257136 33.257136 0 0 0 33.385048 32.8734H715.028418a193.019299 193.019299 0 0 1-60.566361-140.255574zM453.576166 130.470302h83.910312l0.383736 1.151208a43.106364 43.106364 0 0 1-42.274936 42.914496 43.106364 43.106364 0 0 1-42.274936-43.17032l0.191868-0.895384zM383.288489 338.3274l207.217538-50.461308 53.914934 159.82612-324.832678 79.305477 63.700206-188.670289z m623.187559 485.426269h-29.419774c-2.814065-5.883955-6.715383-18.099557-11.76791-26.861532l20.78571-19.82637a15.925052 15.925052 0 0 0 0-23.024171l-23.663731-23.088127a16.948348 16.948348 0 0 0-23.791643 0l-19.570546 20.46593c-8.889888-4.924614-21.361314-8.761976-27.309225-11.448129v-28.908126c0-9.081756-9.849229-16.4367-19.058897-16.4367h-33.576915c-9.209668 0-19.058897 7.354943-19.058897 16.4367v28.908126c-6.011867 2.686153-18.419337 6.587471-27.309225 11.512085l-20.14615-20.465929a16.628568 16.628568 0 0 0-23.471863 0l-23.599775 23.343951a16.244832 16.244832 0 0 0 0.063956 23.279995l20.849666 19.314721c-5.052526 8.69802-8.953844 20.913622-11.703954 26.73362h-29.419774c-9.273624 0-16.820436 9.657361-16.820436 18.739117v32.937356c0 9.081756 7.546812 18.739117 16.820436 18.739117h29.419774c2.814065 5.883955 6.715383 18.099557 11.703954 26.797576l-20.721754 19.82637a15.925052 15.925052 0 0 0 0 23.024171l23.663731 23.152082c6.587471 6.395603 17.268128 6.395603 23.791643-0.063956l19.570546-20.465929c8.889888 4.924614 21.297358 8.761976 27.309225 11.512085v28.84417c0 9.081756 9.849229 16.500656 19.058897 16.500656h33.512959c9.273624 0 19.186809-7.4189 19.18681-16.500656v-28.908126c5.883955-2.686153 18.355381-6.523515 27.245268-11.512085l20.210106 20.401973a16.628568 16.628568 0 0 0 23.407907 0l23.599775-23.279995a16.244832 16.244832 0 0 0-0.127912-23.279995l-20.849666-19.250765c5.116482-8.69802 8.953844-20.913622 11.76791-26.797576h29.419774c9.273624 0 16.75648-9.593405 16.75648-18.739117v-32.8734c0-9.145712-7.482856-18.803073-16.75648-18.803073z m-150.616451 109.2369a74.828555 74.828555 0 0 1-75.468116-74.125039c0-40.931859 33.83274-74.061083 75.468116-74.061083 41.699332 0 75.468116 33.19318 75.468115 74.061083a74.828555 74.828555 0 0 1-75.468115 74.188995z" /></svg>