<?xml version="1.0" standalone="no"?><!DOCTYPE svg PUBLIC "-//W3C//DTD SVG 1.1//EN" "http://www.w3.org/Graphics/SVG/1.1/DTD/svg11.dtd"><svg t="1578968344901" class="icon" viewBox="0 0 1024 1024" version="1.1" xmlns="http://www.w3.org/2000/svg" p-id="2098" xmlns:xlink="http://www.w3.org/1999/xlink" width="200" height="200"><defs><style type="text/css"></style></defs><path d="M686.85824 838.53824l240.2304-244.39296a50.55488 50.55488 0 0 1 72.06912 0c19.87072 20.43392 19.87072 52.98688 0 73.4208l-263.23456 267.8272a50.55488 50.55488 0 0 1-49.97632 13.20448 45.85472 45.85472 0 0 1-32.75264-13.48608l-108.49792-108.50304a46.0288 46.0288 0 0 1-0.04096-65.11616 46.03392 46.03392 0 0 1 65.12128-0.03584l77.0816 77.0816z m-246.3232 125.64992H111.79008c-54.46144 0-98.62656-44.96896-98.62656-100.352V225.09568c0-55.38816 44.16512-100.35712 98.62656-100.35712h572.25216c54.42048 0 98.59072 44.96896 98.59072 100.35712v416.07168a28.9792 28.9792 0 0 1-28.76416 29.28128 29.02528 29.02528 0 0 1-20.45952-8.67328 28.92288 28.92288 0 0 1-8.29952-20.608V225.09568c0-23.00928-18.49856-41.83552-41.06752-41.83552H111.79008c-22.60992 0-41.10848 18.82624-41.10848 41.83552v638.7456c0 22.95808 18.49856 41.8304 41.10848 41.8304h328.74496a28.9536 28.9536 0 0 1 28.75904 29.2352c0 15.68768-13.35296 29.28128-28.75904 29.28128z m-20.51584-201.7536h-212.736a29.64992 29.64992 0 0 1-28.76416-29.2864 28.95872 28.95872 0 0 1 28.76416-29.27616h211.65056a29.0048 29.0048 0 0 1 20.46976 8.66304 28.99968 28.99968 0 0 1 8.2944 20.61312 28.17536 28.17536 0 0 1-7.69536 20.50048 28.1856 28.1856 0 0 1-20.05504 8.78592h0.07168z m165.39648-165.1968H207.32416a29.6448 29.6448 0 0 1-28.76416-29.24032c0-15.6928 13.35296-29.29152 28.76416-29.29152h377.04192a28.98432 28.98432 0 0 1 28.76416 29.2864 27.53536 27.53536 0 0 1-7.5008 20.66944 27.56096 27.56096 0 0 1-20.2496 8.57088h0.03584z m0-166.1952H207.32416a29.64992 29.64992 0 0 1-28.76416-29.2864c0-15.68768 13.35296-29.24544 28.76416-29.24544h377.04192a28.94336 28.94336 0 0 1 20.44928 8.65792 28.92288 28.92288 0 0 1 8.31488 20.58752 27.4944 27.4944 0 0 1-27.7504 29.28128h0.03584z m0 0" fill="#333333" p-id="2099"></path></svg>
