<?xml version="1.0" standalone="no"?><!DOCTYPE svg PUBLIC "-//W3C//DTD SVG 1.1//EN" "http://www.w3.org/Graphics/SVG/1.1/DTD/svg11.dtd"><svg t="1603170784811" class="icon" viewBox="0 0 1024 1024" version="1.1" xmlns="http://www.w3.org/2000/svg" p-id="2365" xmlns:xlink="http://www.w3.org/1999/xlink" width="200" height="200"><defs><style type="text/css"></style></defs><path d="M734.591258 681.728a25.856 25.856 0 0 0 3.9424 2.3552 24.2688 24.2688 0 0 1-3.9424-2.3552z" fill="#4BB9A9" p-id="2366"></path><path d="M1023.308058 577.8432a26.1632 26.1632 0 0 1-27.5456 27.7504l-176.1792 0.512h-9.0112l-35.84 66.56a29.0304 29.0304 0 0 1-24.832 13.9264h-2.5088a18.5344 18.5344 0 0 1-2.3552-0.3072 16.6912 16.6912 0 0 1-2.304-0.4608l-2.4064-0.7168-1.8944-0.8192a25.856 25.856 0 0 1-3.9424-2.3552 15.7184 15.7184 0 0 1-1.792-1.4336l-0.3072-0.256-1.8944-1.8432-1.8432-2.2528-0.3072-0.4096c-0.512-0.7168-1.024-1.4336-1.4848-2.2016s-1.28-2.2016-1.8944-3.3792l-66.56-143.36-35.84 63.6928a28.9792 28.9792 0 0 1-24.832 13.8752L509.260058 604.16l-93.5424 133.12a20.48 20.48 0 0 1-19.3024 13.8752h-5.5296c-11.1104-2.7648-19.4048-8.2432-22.1696-19.3024L301.644058 491.52l-11.4176 27.5968-29.7472 71.9872a26.624 26.624 0 0 1-24.832 16.6912h-32.2048l-175.104 0.512a27.648 27.648 0 0 1 0-55.2448l175.104-0.1024h12.6976L282.239258 397.6704a18.432 18.432 0 0 1 1.5872-2.7648 1.792 1.792 0 0 1 0.256-0.4096 30.3104 30.3104 0 0 1 1.792-2.4576l1.9968-2.2016a3.072 3.072 0 0 0 0.4096-0.4096c0.7168-0.6144 1.4336-1.28 2.2016-1.8432a31.6928 31.6928 0 0 1 9.1648-5.12l2.5088-0.7168 2.5088-0.512 2.4064-0.3072h2.56a26.5216 26.5216 0 0 1 24.9344 19.2512l72.6528 259.584L473.215258 563.2a25.0368 25.0368 0 0 1 22.0672-11.1104l88.4736-0.3072 54.9888-97.1264a28.9792 28.9792 0 0 1 24.832-13.9264 26.5216 26.5216 0 0 1 24.8832 16.5376l44.3392 97.28 19.6608 43.2128 16.4864-33.2288a29.0816 29.0816 0 0 1 24.832-13.8752h25.6l175.9744-0.512a26.112 26.112 0 0 1 27.9552 27.6992z" p-id="2367"></path><path d="M813.234458 698.0096a75.1104 75.1104 0 0 1-63.1296 34.56 74.3936 74.3936 0 0 1-17.0496-1.9456v206.592H290.226458v-308.0704a70.7584 70.7584 0 0 1-54.4256 24.832h-32.3584v343.04a27.0848 27.0848 0 0 0 27.0336 26.9824h562.0736a27.0848 27.0848 0 0 0 27.0336-27.0336V686.08zM203.442458 105.1136v359.68l37.2736-87.6032a75.7248 75.7248 0 0 1 49.5104-39.7824V164.864H732.799258v278.4768l30.72 67.7888a74.8544 74.8544 0 0 1 30.0544-6.2976h25.9072v-399.36a27.0848 27.0848 0 0 0-27.0336-27.0336H230.476058a27.0848 27.0848 0 0 0-27.0336 26.6752z" p-id="2368"></path><path d="M400.869658 0m10.4448 0l200.3968 0q10.4448 0 10.4448 10.4448l0 91.904q0 10.4448-10.4448 10.4448l-200.3968 0q-10.4448 0-10.4448-10.4448l0-91.904q0-10.4448 10.4448-10.4448Z" p-id="2369"></path></svg>