<?xml version="1.0" standalone="no"?><!DOCTYPE svg PUBLIC "-//W3C//DTD SVG 1.1//EN" "http://www.w3.org/Graphics/SVG/1.1/DTD/svg11.dtd"><svg t="1592187568589" class="icon" viewBox="0 0 1192 1024" version="1.1" xmlns="http://www.w3.org/2000/svg" p-id="3721" xmlns:xlink="http://www.w3.org/1999/xlink" width="232.8125" height="200"><defs><style type="text/css"></style></defs><path d="M63.988818 0h1064.790636a63.988818 63.988818 0 0 1 0 127.977637H64.048454a63.988818 63.988818 0 0 1 0-127.977637z m391.864423 443.747248h349.403995a63.988818 63.988818 0 1 1 0 127.977637H455.972512a64.048454 64.048454 0 0 1 0-127.977637z m-340.697222 0h117.004717a63.988818 63.988818 0 0 1 0 127.977637H115.156019a64.048454 64.048454 0 0 1 0-127.977637z m839.786151-140.262535l219.756566 192.503174a21.349485 21.349485 0 0 1 0 32.083862l-219.816201 191.90682a10.615107 10.615107 0 0 1-17.89063-7.931513V311.535496a10.615107 10.615107 0 0 1 17.89063-8.050783zM64.108089 896.022363h1064.731a63.988818 63.988818 0 0 1 0 127.977637H64.048454a63.988818 63.988818 0 0 1 0-127.977637z m0 0" fill="#92929D" p-id="3722"></path></svg>