<?xml version="1.0" standalone="no"?><!DOCTYPE svg PUBLIC "-//W3C//DTD SVG 1.1//EN" "http://www.w3.org/Graphics/SVG/1.1/DTD/svg11.dtd"><svg t="1577416915180" class="icon" viewBox="0 0 1024 1024" version="1.1" xmlns="http://www.w3.org/2000/svg" p-id="5452" xmlns:xlink="http://www.w3.org/1999/xlink" width="200" height="200"><defs><style type="text/css"></style></defs><path d="M94.61248 345.50784H647.2192c26.78784 0 48.47104 13.10208 48.47104 29.2352 0 16.14336-21.67808 29.30688-48.47104 29.30688H94.61248C67.75808 404.05504 46.08 390.89152 46.08 374.74816c0-16.08192 21.67808-29.24032 48.53248-29.24032z m0 244.3264H647.2192c26.78784 0 48.47104 13.1584 48.47104 29.29664 0 16.0768-21.67808 29.2352-48.47104 29.2352H94.61248c-26.8544 0-48.53248-13.08672-48.53248-29.2352 0-16.13824 21.67808-29.30176 48.53248-29.29664z m3.45088 235.5712h848.7936c28.57984 0 51.97824 13.1584 51.97824 29.29152 0 16.09216-23.3984 29.30176-51.97824 29.30176H98.06336C69.4784 883.9936 46.08 870.84032 46.08 854.69696c0-16.06656 23.3984-29.29152 51.98336-29.29152zM756.30592 296.86272l242.5344 175.78496-242.5344 219.61216V296.86272z m190.56128-128.39424H98.06336C69.4784 168.46848 46.08 155.31008 46.08 139.17696c0-16.08704 23.3984-29.30176 51.98336-29.30176h848.79872c28.57984 0 51.97312 13.15328 51.97312 29.30176 0 16.08192-23.3984 29.30176-51.97312 29.30176v-0.01024z m0 0" p-id="5453"></path></svg>
