<?xml version="1.0" standalone="no"?><!DOCTYPE svg PUBLIC "-//W3C//DTD SVG 1.1//EN" "http://www.w3.org/Graphics/SVG/1.1/DTD/svg11.dtd"><svg class="icon" width="200px" height="200.00px" viewBox="0 0 1024 1024" version="1.1" xmlns="http://www.w3.org/2000/svg"><path fill="#ffffff" d="M512 1024c-281.6 0-512-230.4-512-512s230.4-512 512-512 512 230.4 512 512-230.4 512-512 512zM512 64C262.4 64 64 262.4 64 512s198.4 448 448 448 448-198.4 448-448-198.4-448-448-448z"  /><path fill="#ffffff" d="M793.6 531.2c6.4 0 6.4 0 0 0 6.4 0 6.4 0 0 0l6.4-6.4v-19.2c0-12.8-6.4-19.2-12.8-25.6L569.6 268.8c-12.8-19.2-38.4-19.2-57.6 0-12.8 12.8-12.8 38.4 0 51.2l153.6 147.2H275.2c-25.6 6.4-38.4 19.2-38.4 44.8 0 19.2 19.2 38.4 38.4 38.4h390.4L512 704c-12.8 12.8-12.8 38.4 0 57.6 12.8 0 19.2 6.4 32 6.4s19.2-6.4 32-12.8l217.6-224c0 6.4 0 6.4 0 0 0 6.4 0 6.4 0 0 0 6.4 0 6.4 0 0z"  /></svg>