<?xml version="1.0" standalone="no"?><!DOCTYPE svg PUBLIC "-//W3C//DTD SVG 1.1//EN" "http://www.w3.org/Graphics/SVG/1.1/DTD/svg11.dtd"><svg t="1625812281748" class="icon" viewBox="0 0 1024 1024" version="1.1" xmlns="http://www.w3.org/2000/svg" p-id="2520" xmlns:xlink="http://www.w3.org/1999/xlink" width="200" height="200"><defs><style type="text/css"></style></defs><path d="M672 64a160 160 0 0 1 159.68 149.504L832 224v192a32 32 0 0 1-63.488 5.76L768 416V224a96 96 0 0 0-86.784-95.552L672 128H224a96 96 0 0 0-95.552 86.784L128 224v576a96 96 0 0 0 86.784 95.552L224 896h64a32 32 0 0 1 5.76 63.488L288 960h-64A160 160 0 0 1 64.32 810.496L64 800V224A160 160 0 0 1 213.504 64.32L224 64h448z m-38.784 394.752a96 96 0 0 1 122.432 40.704l178.56 317.44A96 96 0 0 1 850.56 960H493.44a96 96 0 0 1-83.712-143.04l178.56-317.44a96 96 0 0 1 36.672-36.672z m66.688 72.128a32 32 0 0 0-55.808 0l-178.56 317.44A32 32 0 0 0 493.44 896h357.12a32 32 0 0 0 27.904-47.68zM672 768a32 32 0 1 1 0 64 32 32 0 0 1 0-64z m0-160a32 32 0 0 1 32 32v64a32 32 0 1 1-64 0v-64a32 32 0 0 1 32-32z m-320-96a32 32 0 0 1 0 64h-64a32 32 0 0 1 0-64h64z m128-192a32 32 0 0 1 0 64H288a32 32 0 0 1 0-64h192z" p-id="2521"></path></svg>