<?xml version="1.0" encoding="UTF-8"?>
<svg width="36px" height="36px" viewBox="0 0 36 36" version="1.1" xmlns="http://www.w3.org/2000/svg" xmlns:xlink="http://www.w3.org/1999/xlink">
    <title>guanbi</title>
    <g id="页面-1" stroke="none" stroke-width="1" fill="none" fill-rule="evenodd">
        <g id="我的单位2.1功能主页" transform="translate(-1252.000000, -1425.000000)" fill-rule="nonzero">
            <g id="编组-11" transform="translate(632.000000, 1425.000000)">
                <g id="guanbi" transform="translate(620.000000, 0.000000)">
                    <path d="M0,18 C0,8.064 8.064,0 18,0 C27.936,0 36,8.064 36,18 C36,27.936 27.936,36 18,36 C8.064,36 0,27.936 0,18 Z" id="路径" fill-opacity="0.85" fill="#050A19"></path>
                    <path d="M24.7726956,11.2273044 C25.1348355,11.608987 25.1348355,12.2073608 24.7726956,12.5890435 L12.5890435,24.7726956 C12.2073608,25.1348355 11.608987,25.1348355 11.2273044,24.7726956 C10.8651645,24.391013 10.8651645,23.7926392 11.2273044,23.4109565 L23.4109565,11.2273044 C23.7926392,10.8651645 24.391013,10.8651645 24.7726956,11.2273044 Z" id="路径" fill="#FFFFFF"></path>
                    <path d="M11.2273044,11.2273044 C11.608987,10.8651645 12.2073608,10.8651645 12.5890435,11.2273044 L24.7726956,23.4109565 C25.1348355,23.7926392 25.1348355,24.391013 24.7726956,24.7726956 C24.391013,25.1348355 23.7926392,25.1348355 23.4109565,24.7726956 L11.2273044,12.5890435 C10.8651645,12.2073608 10.8651645,11.608987 11.2273044,11.2273044 Z" id="路径" fill="#FFFFFF"></path>
                </g>
            </g>
        </g>
    </g>
</svg>