<?xml version="1.0" standalone="no"?><!DOCTYPE svg PUBLIC "-//W3C//DTD SVG 1.1//EN" "http://www.w3.org/Graphics/SVG/1.1/DTD/svg11.dtd"><svg class="icon" width="200px" height="200.00px" viewBox="0 0 1024 1024" version="1.1" xmlns="http://www.w3.org/2000/svg"><path fill="#ffffff" d="M972.8 601.6c-12.8-12.8-25.6-12.8-38.4-12.8-12.8 6.4-25.6 12.8-25.6 32-51.2 192-224 326.4-422.4 326.4-160 0-307.2-89.6-377.6-224 0 0-6.4-6.4-12.8-19.2-12.8-19.2-32-25.6-51.2-12.8-19.2 6.4-25.6 32-19.2 51.2 0 6.4 6.4 12.8 6.4 12.8 83.2 153.6 236.8 256 416 268.8h38.4c230.4 0 435.2-160 499.2-384 0-12.8-6.4-25.6-12.8-38.4zM569.6 307.2c-6.4-12.8-19.2-12.8-38.4-12.8-12.8 6.4-19.2 19.2-25.6 32 0 12.8 0 25.6 6.4 32l6.4 6.4 108.8 108.8H486.4c-25.6 0-38.4 19.2-38.4 38.4s12.8 38.4 32 38.4H627.2l-108.8 108.8c-12.8 12.8-12.8 38.4 0 51.2 12.8 12.8 32 12.8 44.8 6.4l6.4-6.4 179.2-179.2c12.8-12.8 12.8-32 6.4-51.2l-6.4-6.4-179.2-166.4z m-320 166.4c-25.6 0-38.4 19.2-38.4 38.4s12.8 38.4 32 38.4h6.4c19.2 0 32-12.8 38.4-25.6V512c0-19.2-19.2-38.4-38.4-38.4zM486.4 0C275.2 0 89.6 128 12.8 313.6c-6.4 19.2 0 38.4 19.2 44.8h6.4c19.2 6.4 38.4-6.4 44.8-19.2C147.2 192 288 89.6 448 76.8h38.4c198.4 0 371.2 134.4 422.4 326.4 6.4 19.2 25.6 32 44.8 25.6s32-25.6 25.6-44.8c-57.6-224-262.4-384-492.8-384z"  fill-opacity=".45" /></svg>