<?xml version="1.0" standalone="no"?><!DOCTYPE svg PUBLIC "-//W3C//DTD SVG 1.1//EN" "http://www.w3.org/Graphics/SVG/1.1/DTD/svg11.dtd"><svg t="1572859329549" class="icon" viewBox="0 0 1024 1024" version="1.1" xmlns="http://www.w3.org/2000/svg" p-id="10020" xmlns:xlink="http://www.w3.org/1999/xlink" width="200" height="200"><defs><style type="text/css"></style></defs><path d="M144.0256 94.89408h759.44448a94.94528 94.94528 0 0 1 94.93504 94.92992v522.12224c0 25.17504-10.00448 49.32096-27.80672 67.11808a94.91456 94.91456 0 0 1-67.12832 27.81184H144.0256a94.8736 94.8736 0 0 1-67.1232-27.81184 94.8992 94.8992 0 0 1-27.80672-67.11808V189.824c0-25.18016 9.99936-49.32608 27.80672-67.1232a94.8992 94.8992 0 0 1 67.1232-27.80672z m0 47.4624a47.4624 47.4624 0 0 0-47.46752 47.46752v522.12224a47.46752 47.46752 0 0 0 47.46752 47.46752h759.44448a47.47264 47.47264 0 0 0 47.46752-47.46752V189.824a47.46752 47.46752 0 0 0-47.46752-47.46752H144.0256z m118.66624 711.97696h522.112a23.73632 23.73632 0 1 1 0 47.46752H262.69184a23.7312 23.7312 0 0 1 0-47.46752z m47.46752-569.5744a23.7056 23.7056 0 0 1 16.77824 6.94784 23.7568 23.7568 0 0 1 6.95296 16.78336v332.25728a23.7312 23.7312 0 1 1-47.4624 0V308.48512c0-6.29248 2.49856-12.32896 6.94272-16.78336a23.74656 23.74656 0 0 1 16.78848-6.94272z m142.39232 189.85472a23.74144 23.74144 0 0 1 23.7312 23.72608v142.40256a23.7312 23.7312 0 1 1-47.46752 0V498.34496a23.73632 23.73632 0 0 1 23.73632-23.7312z m142.39744-237.32736a23.73632 23.73632 0 0 1 23.72608 23.72608v379.72992a23.74656 23.74656 0 0 1-11.86816 20.5568 23.74144 23.74144 0 0 1-35.59936-20.5568V261.0176a23.7312 23.7312 0 0 1 23.74144-23.7312z m142.39744 189.86496a23.71072 23.71072 0 0 1 23.72608 23.7312v189.86496a23.76704 23.76704 0 0 1-11.86304 20.5568 23.76704 23.76704 0 0 1-23.73632 0 23.74656 23.74656 0 0 1-11.86304-20.5568V450.88256c0-6.2976 2.49344-12.32896 6.95296-16.77824a23.7056 23.7056 0 0 1 16.78336-6.95296z m0 0" p-id="10021"></path></svg>
