<?xml version="1.0" standalone="no"?><!DOCTYPE svg PUBLIC "-//W3C//DTD SVG 1.1//EN" "http://www.w3.org/Graphics/SVG/1.1/DTD/svg11.dtd"><svg t="1572859010765" class="icon" viewBox="0 0 1024 1024" version="1.1" xmlns="http://www.w3.org/2000/svg" p-id="8274" xmlns:xlink="http://www.w3.org/1999/xlink" width="200" height="200"><defs><style type="text/css"></style></defs><path d="M575.48288 733.12768l242.69824 224.67584a101.28384 101.28384 0 0 0 69.20192 27.1616h3.968a102.00576 102.00576 0 0 0 91.904-66.52416 101.99552 101.99552 0 0 0-26.42432-110.34112l-237.06624-219.50976c91.07456-163.03616 47.98464-368.26624-100.98176-480.896C469.82656-4.93568 260.63872 9.51808 128.58368 141.57312-3.47136 273.62304-17.92512 482.82624 94.70976 631.79264c112.62464 148.95616 317.8496 192.0512 480.89088 100.98176l-0.11776 0.35328z m348.43136 110.29504a53.92896 53.92896 0 0 1 18.49344 52.49536 53.94944 53.94944 0 0 1-91.55072 26.69056l-233.79968-216.27392a377.5232 377.5232 0 0 0 76.17024-76.52864l230.68672 213.61664zM67.73248 407.16288c0-179.82976 145.77664-325.60128 325.59616-325.60128 179.83488 0 325.6064 145.77664 325.6064 325.60128s-145.77664 325.6064-325.6064 325.6064c-179.73248-0.19456-325.39136-145.85856-325.59616-325.6064z m0 0" fill="#666666" p-id="8275"></path><path d="M390.21056 135.99232c-64.52736-3.48672-116.90496 12.61568-156.1856 48.06144a211.94752 211.94752 0 0 0-64.41472 135.16288 24.03328 24.03328 0 0 0 22.72256 25.23136h1.31072a24.03328 24.03328 0 0 0 24.03328-22.7072c0.83456-14.8992 13.33248-145.74592 169.64608-137.45152a24.05376 24.05376 0 0 0 25.28768-22.76352 24.064 24.064 0 0 0-22.76352-25.29792l0.36352-0.23552z m0 0" fill="#666666" p-id="8276"></path></svg>
