<?xml version="1.0" standalone="no"?><!DOCTYPE svg PUBLIC "-//W3C//DTD SVG 1.1//EN" "http://www.w3.org/Graphics/SVG/1.1/DTD/svg11.dtd"><svg class="icon" width="200px" height="200.00px" viewBox="0 0 1024 1024" version="1.1" xmlns="http://www.w3.org/2000/svg"><path fill="#ffffff" d="M550.4 318.784H472.256a12.8 12.8 0 0 0-12.416 12.48v361.088a12.8 12.8 0 0 0 12.416 12.48H550.4a12.416 12.416 0 0 0 12.416-12.48V331.264a12.416 12.416 0 0 0-12.416-12.48z m180.224 77.248h-78.08a12.8 12.8 0 0 0-12.544 12.48v283.84a12.8 12.8 0 0 0 12.48 12.48h78.08a12.8 12.8 0 0 0 12.48-12.48V408.512a12.8 12.8 0 0 0-12.48-12.48h0.064zM370.176 524.8H292.16a12.8 12.8 0 0 0-12.416 12.48v155.2a12.8 12.8 0 0 0 12.416 12.48h78.016a12.8 12.8 0 0 0 12.8-12.48V537.152a12.8 12.8 0 0 0-12.8-12.48V524.8zM512 0a512 512 0 1 0 512 512 512.576 512.576 0 0 0-512-512z m0 930.752A418.816 418.816 0 1 1 930.944 512 419.264 419.264 0 0 1 512 930.752z"  /></svg>