<?xml version="1.0" encoding="UTF-8"?>
<svg width="16px" height="14px" viewBox="0 0 16 14" version="1.1" xmlns="http://www.w3.org/2000/svg" xmlns:xlink="http://www.w3.org/1999/xlink">
    <title>形状</title>
    <g id="页面-1" stroke="none" stroke-width="1" fill="none" fill-rule="evenodd" fill-opacity="0.85">
        <g id="编组-15" transform="translate(-8.000000, -9.000000)" fill="#050A19">
            <path d="M23.1631345,14.8624203 C22.915982,14.7829133 22.7083032,14.8122517 22.5020972,14.9516089 C21.8678668,15.3805357 21.2295123,15.8033013 20.5911577,16.2260671 L20.0703405,16.5707927 C20.0249752,16.3971097 19.9751912,16.2190259 19.8953601,16.0517972 C19.8075753,15.8681391 19.6888596,15.7079517 19.5739734,15.5527518 C19.5719114,15.5504047 19.5698493,15.5477643 19.5680819,15.5451238 C21.10137,14.4276259 21.3249561,12.6209699 20.8636441,11.3682221 C20.3136635,9.87489983 18.8858349,8.92932462 17.2671186,9.00413743 C16.5000326,9.04022361 15.80777,9.3010416 15.2088891,9.77925678 C14.5625809,10.2959052 14.1372076,10.9486836 13.9383662,11.7267368 C13.4101845,10.6993076 12.5482438,10.0767477 11.4889347,9.98491865 C10.1306269,9.8663917 8.93404353,10.5218106 8.34193802,11.6818491 C7.87620726,12.594272 7.757197,14.0476941 8.87394924,15.24998 C8.28714616,15.6956296 7.99345004,16.3184829 8.00011079,17.104164 C8.0072953,17.939427 8.00582241,18.7743966 8.0043495,19.6096596 L8.0028766,20.7248105 C8.00346576,22.0852301 8.92137661,22.9994132 10.2873434,22.9997066 L14.0532523,23 L17.8191613,22.9997066 C19.1506622,22.9997066 20.0594411,22.1365722 20.1151167,20.8389367 L20.6270965,21.2637561 C21.2574974,21.7865656 21.8878983,22.3090817 22.5147642,22.8357052 C22.6867989,22.9803433 22.8641359,23.0228839 23.0777063,22.9668476 C23.6259195,22.8251434 23.995028,22.3657047 23.9965009,21.8238253 C24.0012142,19.874585 24.0009196,17.9250512 23.9970901,15.9758109 C23.9956171,15.4720713 23.6606798,15.024368 23.1631345,14.8624203 Z M22.5554162,16.4367164 L22.5554162,21.3062967 L21.2707534,20.2401409 C20.9042961,19.935022 20.5378388,19.6296097 20.1684356,19.3283048 C20.1157058,19.2851774 20.1133492,19.2708016 20.1145275,19.228261 C20.1189462,19.0384418 20.1186516,18.8480359 20.1180625,18.6582167 C20.1177679,18.4678108 20.1174733,18.2774049 20.1221866,18.086999 C20.1224812,18.0776107 20.1277836,18.0600077 20.133086,18.0485657 C20.9098931,17.5257562 21.6905297,17.008521 22.4708718,16.4915792 L22.5554162,16.4367164 Z M17.4529985,10.1891136 L17.4703787,10.4153123 C18.6802182,10.4247006 19.6649986,11.4098826 19.6649986,12.611875 C19.6649986,13.1971752 19.4352263,13.7487363 19.0178067,14.1647542 C18.6006816,14.5807721 18.0477552,14.8099046 17.4544714,14.8099046 L17.4541768,14.8099046 C16.2390349,14.806384 15.2524869,13.8168013 15.2554261,12.6039537 C15.2583785,11.3969737 16.2440427,10.4150189 17.4527039,10.4150189 L17.4529985,10.1891136 C17.4529985,10.1891136 17.4529985,10.1891136 17.4529985,10.1891136 Z M9.43394555,17.0671977 C9.4345347,16.5094756 9.7214555,16.2266538 10.287638,16.2266538 L14.063268,16.2263604 L17.8388981,16.2266538 C18.3909408,16.2266538 18.6828694,16.5135829 18.6834586,17.0566359 C18.6843423,18.2900204 18.6846369,19.5239916 18.6834586,20.7573761 C18.6828694,21.2834128 18.3938866,21.5735692 17.8692398,21.5744493 L16.3000129,21.5753295 L14.0544306,21.5747427 L12.9217711,21.5750361 L10.2788006,21.5744493 C9.71055605,21.5738626 9.43424015,21.2974952 9.43394557,20.7283311 C9.43276722,19.5081489 9.43276722,18.2873799 9.43394555,17.0671977 Z M11.1442762,11.3861185 L11.1442762,11.159333 L11.1442762,11.159333 L11.1466328,11.3861185 C11.6035262,11.3867053 12.0350857,11.5671362 12.3611856,11.8948456 C12.6872855,12.2216749 12.8649172,12.6523619 12.8622952,13.1068131 C12.8563743,14.0409463 12.0854588,14.8011031 11.1433925,14.8011031 C10.1892483,14.8008097 9.43836423,14.0550287 9.43392778,13.1029991 C9.43188347,12.6441472 9.60951512,12.21258 9.93414213,11.8878044 C10.2570017,11.5642023 10.6867937,11.3861185 11.1442762,11.3861185 Z M14.566705,14.7864339 L13.7766418,14.7864339 C13.9307071,14.54938 14.0494228,14.3061651 14.1339672,14.0556155 C14.2497371,14.3155533 14.3934921,14.5584749 14.566705,14.7864339 Z" id="形状"></path>
        </g>
    </g>
</svg>