<?xml version="1.0" standalone="no"?><!DOCTYPE svg PUBLIC "-//W3C//DTD SVG 1.1//EN" "http://www.w3.org/Graphics/SVG/1.1/DTD/svg11.dtd"><svg class="icon" width="200px" height="200.00px" viewBox="0 0 1024 1024" version="1.1" xmlns="http://www.w3.org/2000/svg"><path d="M854.724923 922.230154a31.507692 31.507692 0 0 1 27.214769 15.596308 30.995692 30.995692 0 0 1 0 31.192615 31.468308 31.468308 0 0 1-27.175384 15.596308H169.078154a31.310769 31.310769 0 0 1-31.113846-27.21477L137.846154 956.219077v-5.947077l0.118154-0.787692a31.310769 31.310769 0 0 1 31.113846-27.254154z m-84.676923-690.924308c63.212308 0 114.609231 51.790769 114.609231 115.475692l-0.078769 180.342154a34.973538 34.973538 0 0 1-35.052308 34.461539 34.934154 34.934154 0 0 1-35.052308-34.225231v-0.393846l-0.157538-180.145231c0-24.812308-19.849846-45.016615-44.228923-45.016615H209.526154V767.212308c0 24.812308 19.849846 44.898462 44.228923 44.898461h560.521846V667.175385c0-19.298462 15.753846-34.934154 35.170462-34.934154a35.052308 35.052308 0 0 1 35.170461 34.934154v215.512615H253.794462c-63.212308 0-114.609231-51.751385-114.609231-115.396923V231.305846z m-219.844923 160.689231l-58.604308 131.938461 126.424616 0.157539-157.065847 207.635692 36.706462-134.144-110.473846 0.157539 79.005538-205.745231h84.007385zM318.306462 134.734769c17.329231 0 31.428923 13.981538 31.428923 31.192616a31.310769 31.310769 0 0 1-31.428923 31.192615h-92.947693a31.310769 31.310769 0 0 1-31.389538-31.192615c0-17.211077 14.060308-31.192615 31.428923-31.192616z m240.364307-0.905846c17.329231 0 31.389538 13.981538 31.389539 31.192615a31.310769 31.310769 0 0 1-31.389539 31.192616H465.486769a31.468308 31.468308 0 0 1-27.175384-15.596308 30.995692 30.995692 0 0 1 0-31.192615 31.468308 31.468308 0 0 1 27.175384-15.596308z m232.172308-0.905846c17.329231 0 31.428923 13.981538 31.428923 31.192615a31.310769 31.310769 0 0 1-31.428923 31.192616h-92.868923a31.310769 31.310769 0 0 1-31.428923-31.192616c0-17.211077 14.060308-31.192615 31.428923-31.192615zM318.306462 41.156923c17.329231 0 31.428923 13.981538 31.428923 31.192615a31.310769 31.310769 0 0 1-31.428923 31.192616h-92.947693a31.310769 31.310769 0 0 1-31.389538-31.192616c0-17.211077 14.060308-31.192615 31.428923-31.192615z m240.364307-0.866461a31.468308 31.468308 0 0 1 27.648 15.438769 30.995692 30.995692 0 0 1 0 31.507692 31.468308 31.468308 0 0 1-27.648 15.399385H465.486769a31.310769 31.310769 0 0 1-31.428923-31.153231c0-17.250462 14.099692-31.192615 31.428923-31.192615zM790.843077 39.384615a31.507692 31.507692 0 0 1 22.252308 9.137231 31.074462 31.074462 0 0 1 0 44.110769 31.507692 31.507692 0 0 1-22.212923 9.137231h-92.947693a31.310769 31.310769 0 0 1-31.389538-31.192615c0-17.211077 14.060308-31.192615 31.428923-31.192616z" /></svg>