<?xml version="1.0" standalone="no"?><!DOCTYPE svg PUBLIC "-//W3C//DTD SVG 1.1//EN" "http://www.w3.org/Graphics/SVG/1.1/DTD/svg11.dtd"><svg t="1618205344616" class="icon" viewBox="0 0 1024 1024" version="1.1" xmlns="http://www.w3.org/2000/svg" p-id="633" xmlns:xlink="http://www.w3.org/1999/xlink" width="200" height="200"><defs><style type="text/css"></style></defs><path d="M691.584 0L960 263.936V896a128 128 0 0 1-128 128H192a128 128 0 0 1-128-128V128a128 128 0 0 1 128-128h499.584zM612.48 76.736L192 76.8a51.2 51.2 0 0 0-50.816 44.8L140.8 128v768a51.2 51.2 0 0 0 44.8 50.816l6.4 0.384h640a51.2 51.2 0 0 0 50.816-44.8l0.384-6.4V346.048H650.944a38.4 38.4 0 0 1-37.888-32.192l-0.512-6.208V76.736z m76.8 28.736v163.776h166.592L689.344 105.472z" p-id="634"></path></svg>