<?xml version="1.0" standalone="no"?><!DOCTYPE svg PUBLIC "-//W3C//DTD SVG 1.1//EN" "http://www.w3.org/Graphics/SVG/1.1/DTD/svg11.dtd"><svg t="1586504799880" class="icon" viewBox="0 0 1024 1024" version="1.1" xmlns="http://www.w3.org/2000/svg" p-id="2317" xmlns:xlink="http://www.w3.org/1999/xlink" width="200" height="200"><defs><style type="text/css"></style></defs><path d="M644.66944 1008.67584H399.24224c-40.064 0-75.12064-35.05664-75.12064-75.13088V602.9824H218.93632c-30.0544 0-60.10368-20.03968-70.1184-45.07648-10.01472-30.05952-5.01248-60.11392 15.02208-85.16096l305.52064-305.52064c30.05952-30.05952 80.13312-30.05952 105.18016 0l305.54112 305.52064c20.03456 20.0448 30.04416 55.09632 15.0272 85.15584-10.01984 30.04416-40.064 45.07648-70.12864 45.07648h-105.16992v330.56256c4.99712 40.07936-30.06464 75.136-75.14112 75.136zM524.46208 217.30816c-5.01248 0-5.01248 0 0 0l-310.528 305.52576s-5.00736 5.01248 0 5.01248 5.00736 5.00736 5.00736 5.00736h140.24192c20.03456 0 35.072 15.03232 35.072 35.06176v365.63456c0 5.01248 4.99712 5.01248 4.99712 5.01248h245.43232c5.00224 0 5.00224-5.01248 5.00224-5.01248V567.9104c0-20.02944 15.03232-35.06176 35.06688-35.06176h140.24192s5.00736 0 5.00736-5.00736v-5.01248l-305.54112-305.52064z m440.7552-120.20224H83.70688c-20.03456 0-35.06688-15.03232-35.06688-35.06688s15.03232-35.05664 35.06688-35.05664h881.5104c20.0448 0 35.07712 15.02208 35.07712 35.05664s-15.03232 35.06688-35.07712 35.06688z m0 0" p-id="2318"></path></svg>