<?xml version="1.0" standalone="no"?><!DOCTYPE svg PUBLIC "-//W3C//DTD SVG 1.1//EN" "http://www.w3.org/Graphics/SVG/1.1/DTD/svg11.dtd"><svg t="1590377447171" class="icon" viewBox="0 0 1024 1024" version="1.1" xmlns="http://www.w3.org/2000/svg" p-id="3617" xmlns:xlink="http://www.w3.org/1999/xlink" width="200" height="200"><defs><style type="text/css"></style></defs><path d="M784.64 545.01888h-95.85152L634.88 329.3696c-5.99552-11.9808-17.9712-23.9616-29.95712-23.9616-11.9808 0-23.95648 5.99552-29.952 17.97632L491.1104 586.9568l-35.94752-137.7792c-5.98528-11.98592-17.9712-23.96672-29.952-23.96672s-23.9616 5.9904-29.952 17.9712l-47.9232 101.83168H245.504c-17.9712 0-29.952 17.9712-29.952 29.95712 0 17.9712 11.9808 29.952 29.952 29.952h119.808c11.97568 0 23.95648-5.9904 23.95648-17.9712l23.9616-47.9232 41.9328 161.74592c5.9904 11.97568 11.9808 23.9616 29.952 23.9616 11.9808 0 23.9616-5.9904 29.952-17.9712l83.8656-263.5776L634.88 580.97152c5.9904 11.97568 17.96608 23.95648 29.952 23.95648h119.808c17.96608 0 29.952-17.9712 29.952-29.952 0-17.9712-11.98592-29.95712-29.952-29.95712z m0 0" p-id="3618"></path><path d="M515.072 994.29888c-263.57248 0-479.232-215.6544-479.232-479.232S251.4944 35.84 515.072 35.84c101.84192 0 197.67808 29.95712 281.5488 89.856 11.9808 11.97568 17.9712 29.94688 5.98528 41.9328-11.97568 11.97568-29.952 17.9712-41.92768 5.9904-71.88992-53.9136-155.75552-77.8752-245.6064-77.8752-233.62048 0-419.328 185.70752-419.328 419.328 0 233.6256 185.70752 419.32288 419.328 419.32288 233.6256 0 419.32288-185.7024 419.32288-419.32288 0-71.8848-17.96608-143.7696-53.90848-209.664-5.9904-11.97568-5.9904-29.94688 11.9808-41.92768 11.9808-5.9904 29.952-5.9904 41.92768 11.9808 35.94752 71.87968 59.904 155.7504 59.904 239.61088 0 263.57248-215.6544 479.22688-479.22688 479.22688z m0 0" p-id="3619"></path></svg>