<?xml version="1.0" standalone="no"?><!DOCTYPE svg PUBLIC "-//W3C//DTD SVG 1.1//EN" "http://www.w3.org/Graphics/SVG/1.1/DTD/svg11.dtd"><svg class="icon" width="200px" height="200.00px" viewBox="0 0 1024 1024" version="1.1" xmlns="http://www.w3.org/2000/svg"><path fill="#ffffff" d="M928 960c17.6896 0 32 14.3104 32 32S945.6896 1024 928 1024H96C78.3104 1024 64 1009.6896 64 992s14.3104-32 32-32z m0-960C945.6896 0 960 14.3104 960 32s-14.3104 32-32 32h-96.1024c0 1.408 0.1024 2.816 0.1024 3.3024V180.48c0 120.8064-106.3936 228.992-163.584 287.104-11.8272 11.9808-12.6208 35.3792-1.7152 46.2848 10.2912 10.3168 21.504 19.6096 32.896 29.0048C758.6048 591.7952 832 652.7232 832 864c0 17.6896-14.3104 32-32 32s-32-14.3104-32-32c0-181.1968-55.6032-227.3024-109.312-271.8976-12.9792-10.8032-25.6768-21.2992-37.376-33.1008-35.6096-35.584-35.0208-99.3024 1.3824-136.2944C673.536 371.0976 768 275.0976 768 180.48V67.3024L253.3888 64l2.816 127.104c2.304 88.3968 92.4928 178.8928 146.4064 232.9088 35.584 35.6864 34.8928 99.4816-1.408 136.3968-12.4928 12.8-26.0096 23.9872-39.68 35.3024-3.0464 2.4832-6.0416 4.9664-9.0112 7.4496l-5.9648 5.0432C298.24 649.5232 256 699.5968 256 864c0 17.6896-14.3104 32-32 32S192 881.6896 192 864c0-211.4048 68.4032-267.776 128.896-317.696 12.0064-9.9072 23.808-19.6096 34.816-30.7968 11.9808-12.2112 12.8-35.0976 1.6896-46.3104-60.6976-60.8-162.2016-162.5856-165.1968-276.8896L192 67.3024c0-1.1008 0.512-2.0992 0.5888-3.3024H96C78.3104 64 64 49.6896 64 32S78.3104 0 96 0zM512 704c17.6896 0 32 14.3104 32 32v128c0 17.6896-14.3104 32-32 32s-32-14.3104-32-32v-128c0-17.6896 14.3104-32 32-32z"  /></svg>