<?xml version="1.0" standalone="no"?><!DOCTYPE svg PUBLIC "-//W3C//DTD SVG 1.1//EN" "http://www.w3.org/Graphics/SVG/1.1/DTD/svg11.dtd"><svg t="1576825558504" class="icon" viewBox="0 0 1024 1024" version="1.1" xmlns="http://www.w3.org/2000/svg" p-id="2272" xmlns:xlink="http://www.w3.org/1999/xlink" width="200" height="200"><defs><style type="text/css"></style></defs><path d="M523.16672 16.40448c-168.51968 0-305.56672 137.1136-305.56672 305.5616 0 23.79776 3.40992 48.09216 10.7264 76.43648l294.8352 612.61824 292.98688-607.57504 1.8432-5.03808c7.3216-28.35456 10.73152-52.64384 10.73152-76.44672 0-168.44288-137.04192-305.55648-305.55648-305.55648z m242.2528 365.66528l-242.2528 502.28224-242.26816-502.28224c-5.68832-22.52288-8.31488-41.70752-8.31488-60.10368 0-138.17856 112.39424-250.5728 250.56768-250.5728 138.17856 0 250.5728 112.39424 250.5728 250.5728 0.00512 18.32448-2.62656 37.50912-8.30464 60.10368z m-242.2528-226.63168c-91.86816 0-166.528 74.73664-166.528 166.52288 0 91.85792 74.73152 166.528 166.528 166.528 91.78112 0 166.52288-74.74176 166.52288-166.528s-74.67008-166.52288-166.52288-166.52288z m0 278.0672c-61.52704 0-111.54432-50.01728-111.54432-111.5392s50.01728-111.5392 111.54432-111.5392c61.5168 0 111.53408 50.01728 111.53408 111.5392s-50.0224 111.5392-111.53408 111.5392z m0 0" p-id="2273"></path></svg>
