<?xml version="1.0" standalone="no"?><!DOCTYPE svg PUBLIC "-//W3C//DTD SVG 1.1//EN" "http://www.w3.org/Graphics/SVG/1.1/DTD/svg11.dtd"><svg t="1572858769226" class="icon" viewBox="0 0 1024 1024" version="1.1" xmlns="http://www.w3.org/2000/svg" p-id="5909" xmlns:xlink="http://www.w3.org/1999/xlink" width="200" height="200"><defs><style type="text/css"></style></defs><path d="M941.47072 1006.1312H87.0912c-17.664 0-35.32288-8.832-46.3616-22.07744-11.04384-15.4624-15.45728-33.11616-11.04384-50.77504 44.15488-225.19296 227.39456-392.97536 448.16896-410.63936 8.832-2.20672 15.44704-2.20672 26.49088-2.20672v22.08256c-8.84224 0-15.45728 0-24.28416 2.2016-211.9424 15.4624-388.5568 176.62464-430.50496 392.97024-2.21184 11.03872 0 24.2944 8.832 33.12128 6.62016 8.832 17.65376 13.25056 28.6976 13.25056H941.4656c11.03872 0 22.08256-4.41856 28.70784-13.25056 6.62016-8.82688 11.02848-19.8656 8.832-33.12128-26.50112-141.29152-112.59392-262.7072-234.01984-331.15648-13.25056-8.82176-28.6976-15.45728-41.94304-22.07744l8.82688-19.8656c15.45728 6.62528 30.90944 15.45216 44.16 22.08256 128.04608 72.85248 216.35584 198.68672 245.05344 346.60864 4.41344 17.65888 0 35.31264-13.25056 50.77504-11.0336 13.24544-28.69248 22.07744-46.3616 22.07744z m-430.49984-463.616h-4.41856v-22.08256h6.6304l-2.21184 22.08256z m0 0" p-id="5910"></path><path d="M519.80288 542.5152c-139.0848 0-253.88544-114.80576-253.88544-253.89568 0-139.0848 114.80064-253.88544 253.88544-253.88544s253.88544 114.80064 253.88544 253.88544c0 139.08992-114.80064 253.89568-253.88544 253.89568z m0-485.70368c-128.0512 0-231.808 103.77216-231.808 231.808 0 128.04608 103.7568 231.81312 231.808 231.81312 128.04608 0 231.79776-103.76704 231.79776-231.81312 0.00512-128.04096-103.75168-231.808-231.79776-231.808z m0 0" p-id="5911"></path></svg>
