<?xml version="1.0" standalone="no"?><!DOCTYPE svg PUBLIC "-//W3C//DTD SVG 1.1//EN" "http://www.w3.org/Graphics/SVG/1.1/DTD/svg11.dtd"><svg class="icon" width="200px" height="200.00px" viewBox="0 0 1024 1024" version="1.1" xmlns="http://www.w3.org/2000/svg"><path fill="#ffffff" d="M739.555556 113.777778a113.777778 113.777778 0 0 1 113.777777 113.777778v682.666666a113.777778 113.777778 0 0 1-113.777777 113.777778H284.444444a113.777778 113.777778 0 0 1-113.777777-113.777778V227.555556a113.777778 113.777778 0 0 1 113.777777-113.777778h455.111112z m0 56.888889H284.444444a56.888889 56.888889 0 0 0-56.746666 52.622222L227.555556 227.555556v682.666666a56.888889 56.888889 0 0 0 52.622222 56.746667L284.444444 967.111111h455.111112a56.888889 56.888889 0 0 0 56.746666-52.622222L796.444444 910.222222V227.555556a56.888889 56.888889 0 0 0-52.622222-56.746667L739.555556 170.666667z m-56.888889 654.222222a28.444444 28.444444 0 1 1 0 56.888889H341.333333a28.444444 28.444444 0 0 1 0-56.888889h341.333334z m-141.624889-509.098667a28.444444 28.444444 0 0 1 14.336 34.986667l-1.308445 3.072-64.995555 132.721778 95.857778-1.393778a28.444444 28.444444 0 0 1 27.050666 38.485333l-1.365333 3.043556-87.495111 169.045333a28.444444 28.444444 0 0 1-51.882667-23.125333l1.336889-3.043556 65.649778-126.833778-94.663111 1.365334a28.444444 28.444444 0 0 1-27.249778-37.916445l1.28-3.015111 85.390222-174.364444a28.444444 28.444444 0 0 1 38.058667-13.027556zM426.666667 0h170.666666a56.888889 56.888889 0 0 1 56.888889 56.888889v28.444444H369.777778V56.888889a56.888889 56.888889 0 0 1 56.888889-56.888889z" /></svg>