<?xml version="1.0" standalone="no"?><!DOCTYPE svg PUBLIC "-//W3C//DTD SVG 1.1//EN" "http://www.w3.org/Graphics/SVG/1.1/DTD/svg11.dtd"><svg t="1572858779970" class="icon" viewBox="0 0 1024 1024" version="1.1" xmlns="http://www.w3.org/2000/svg" p-id="6158" xmlns:xlink="http://www.w3.org/1999/xlink" width="200" height="200"><defs><style type="text/css"></style></defs><path d="M762.65984 495.18592H131.11296c-37.80096 0-68.41856 10.79808-68.41856 24.02816 0 13.2352 30.62784 24.05888 68.41856 24.05888h631.5264c37.85216 0 68.44928-10.79808 68.44928-24.05888 0-13.24544-30.5664-24.02816-68.4288-24.02816z m0 0" p-id="6159"></path><path d="M542.06976 914.13504V275.69152c0-38.21056-10.79808-69.12-24.04864-69.12s-24.09984 30.90944-24.09984 69.12v638.44352c0 38.25664 10.79808 69.18656 24.05376 69.18656 13.25056 0 24.05376-30.9504 24.05376-69.18656h0.04096z m343.33696-418.94912h-15.03744a24.04352 24.04352 0 0 0 0 48.08704h15.03744a24.04352 24.04352 0 0 0 0-48.08704z m0 0" p-id="6160"></path><path d="M493.99808 152.21248v15.03744a24.0384 24.0384 0 1 0 48.0768 0v-15.03744a24.0384 24.0384 0 1 0-48.0768 0z m0 0" p-id="6161"></path><path d="M559.37024 30.73024C291.18464 7.808 55.424 204.48256 32.51712 470.41024 9.59488 736.1024 208.5632 970.3424 476.79488 993.50528a489.9328 489.9328 0 0 0 107.02336-2.52416 443.76064 443.76064 0 0 0 63.22176-12.86656 28.8768 28.8768 0 0 0 21.67808-26.65984 28.84608 28.84608 0 0 0-19.18464-28.49792c22.43584-36.03456 44.9536-76.85632 60.544-112.11264a468.13184 468.13184 0 0 1 68.85888 40.92928c-4.3264 9.56928-6.99904 25.856 0 34.67776a29.5424 29.5424 0 0 0 41.29792 5.02784c104.76032-82.07872 171.49952-203.04384 183.0912-337.7152 22.9632-265.66144-175.6672-499.87072-443.9552-523.0336z m-5.02784 58.1888c14.12608 1.2544 36.33152 1.8944 50.21184 4.65408a1056.22016 1056.22016 0 0 1 72.07936 141.35808c-78.10048 30.23872-206.63296 48.42496-326.51776-1.20832 17.36192-42.81344 38.78912-90.67008 65.98144-136.00256 41.8304-9.56928 93.44-12.59008 138.24512-8.81152v0.01024z m-190.62784 26.68032c-12.84608 21.90336-33.92512 55.7312-50.7648 96.78336a441.16992 441.16992 0 0 1-58.18368-37.2736c31.99488-24.1664 71.1936-44.90752 108.97408-59.50976h-0.0256zM91.21792 475.47392A420.72576 420.72576 0 0 1 221.42976 205.4656a452.84864 452.84864 0 0 0 78.57152 49.83296c-44.57472 127.44704-75.29984 313.5488 2.77504 518.04672a493.56288 493.56288 0 0 0-77.32224 48.34816c-92.67712-85.86752-145.80736-211.26656-134.23616-346.26048v0.04096z m167.936 374.56896a492.3904 492.3904 0 0 1 57.41056-36.00384c13.8496 30.95552 34.77504 65.39264 54.4256 96.88576-39.00928-14.11072-79.32928-36.72576-111.83616-60.88192z m333.55776 80.64c-2.7392 0.53248-13.93152 1.88928-16.6912 2.39616-31.29856 4.29056-62.976 5.0432-94.4384 2.25792-13.35296-1.26464-34.21184-2.9952-47.32928-5.27872-18.13504-22.90176-46.59712-71.28576-75.60704-135.29088 116.15744-46.592 238.60736-27.81696 315.64288 1.17248-28.70272 63.72864-63.19104 110.8224-81.57696 134.74304z m96.90624-172.53376c-135.9616-51.9168-268.27776-33.28-351.3856-0.7936-45.0816-118.08256-71.95136-289.81248-4.21376-486.25664 83.86048 33.24416 217.63584 54.912 356.41856 1.26464 69.02784 196.44416 43.56608 366.91456-0.77824 485.79072h-0.04096z m255.34976-209.39264a420.352 420.352 0 0 1-135.23968 274.51392 637.19936 637.19936 0 0 0-85.632-49.85856c76.55424-204.94848 44.61056-391.36768-0.25088-517.7856a747.1104 747.1104 0 0 0-17.1264-43.81696 744.96 744.96 0 0 0-50.8928-101.74976c182.36928 61.45024 306.01216 240 289.14176 438.69696z m0 0" p-id="6162"></path><path d="M705.01888 884.01408a449.09568 449.09568 0 0 1-18.6368 8.83712 29.05088 29.05088 0 0 0-14.83776 38.5024 29.62432 29.62432 0 0 0 38.87616 14.73024 473.22112 473.22112 0 0 0 21.02784-9.91744 28.99968 28.99968 0 0 0 13.12768-39.15776 29.74208 29.74208 0 0 0-39.57248-13.0304M824.4224 204.0832c-33.74592 24.42752-67.63008 41.32864-99.85024 56.91392-5.55008-15.58528-7.47008-24.5248-13.21984-38.15424 46.592-22.42048 77.58848-44.60544 77.58848-44.60544l35.4816 25.84576z m0 0" p-id="6163"></path></svg>
