<?xml version="1.0" standalone="no"?><!DOCTYPE svg PUBLIC "-//W3C//DTD SVG 1.1//EN" "http://www.w3.org/Graphics/SVG/1.1/DTD/svg11.dtd"><svg t="1586504818170" class="icon" viewBox="0 0 1024 1024" version="1.1" xmlns="http://www.w3.org/2000/svg" p-id="2714" xmlns:xlink="http://www.w3.org/1999/xlink" width="200" height="200"><defs><style type="text/css"></style></defs><path d="M886.3744 462.00832l-17.79712 8.42752c-12.17536 5.62176-12.17536 23.41888 0 29.04064l29.04064 14.0544-372.84864 184.54528a18.24768 18.24768 0 0 1-14.04416 0l-373.79072-183.60832 29.04064-14.05952c12.18048-5.62176 12.18048-23.40864 0-29.0304l-17.80224-8.43776a18.25792 18.25792 0 0 0-14.04928 0l-76.81536 37.46816c-12.18048 5.62176-12.18048 23.424 0 29.05088l452.47488 222.01856c4.6848 1.87392 9.3696 1.87392 14.05952 0l452.46464-222.96576c12.17536-5.62176 12.17536-23.41376 0-29.03552l-76.82048-37.46816c-3.73248-1.87904-9.35936-1.87904-13.11232 0z m0 0" p-id="2715"></path><path d="M966.016 316.8L526.64832 100.4032c-5.62176-2.81088-13.11744-2.81088-19.67616 0L68.55168 316.8c-15.9232 8.43264-15.9232 30.91968 0 39.35232l439.36256 215.46496c5.61152 2.80576 13.11744 2.80576 19.66592 0l439.36256-216.40704c15.92832-7.49056 15.92832-30.91968-0.92672-38.41024z m-448.7424 206.09536L136.9344 335.53408 517.2736 148.1728l380.34432 187.36128-380.34432 187.36128z m369.1008 120.85248l-17.79712 8.42752c-12.17536 5.62176-12.17536 23.424 0 29.04576l29.04064 14.0544-372.84864 184.54528a18.24768 18.24768 0 0 1-14.04416 0l-373.79072-183.60832 29.04064-14.04928c12.18048-5.632 12.18048-23.42912 0-29.04064l-17.80224-8.43776a18.304 18.304 0 0 0-14.04928 0l-76.81536 37.4784c-12.17536 5.61664-12.17536 23.41376 0 29.03552l452.47488 222.02368a18.3808 18.3808 0 0 0 14.05952 0l452.46464-222.96576c12.17536-5.62176 12.17536-23.41376 0-29.03552l-76.80512-37.46816c-3.74784-1.87904-9.37472-1.87904-13.12768-0.00512z m0 0" p-id="2716"></path></svg>