<?xml version="1.0" standalone="no"?><!DOCTYPE svg PUBLIC "-//W3C//DTD SVG 1.1//EN" "http://www.w3.org/Graphics/SVG/1.1/DTD/svg11.dtd"><svg t="1572859331733" class="icon" viewBox="0 0 1024 1024" version="1.1" xmlns="http://www.w3.org/2000/svg" p-id="10144" xmlns:xlink="http://www.w3.org/1999/xlink" width="200" height="200"><defs><style type="text/css"></style></defs><path d="M926.23872 593.65888c-2.3296 0-262.46144-428.09344-262.46144-428.09344 15.16544-12.83584 19.82976-26.83392 19.82976-47.82592 0-39.65952-31.488-72.32-71.15264-73.48736-76.98432-1.16736-79.31904 79.31904-76.98432 82.816L243.85024 235.55072c-12.83584-18.6624-31.49312-25.66144-54.82496-25.66144a73.1904 73.1904 0 0 0-73.48736 73.48736c0 32.66048 17.49504 60.65664 46.66368 69.98016l-66.48832 279.95648c-32.66048 6.99392-53.6576 36.15744-53.6576 71.14752a73.18528 73.18528 0 0 0 73.48736 73.49248c22.1696 0 41.99424-9.33376 57.15456-25.66144l272.96256 151.63904v2.3296a73.16992 73.16992 0 0 0 73.48224 73.48736c44.32384 0 73.49248-39.6544 68.81792-78.15168l290.45248-170.30656c12.83584 9.32864 29.1584 10.50112 45.4912 10.50112a73.18528 73.18528 0 0 0 73.49248-73.49248c-1.17248-37.31968-34.9952-75.80672-71.15776-74.63936zM607.7952 79.24736c19.82464 0 36.16256 16.32768 36.16256 36.15744 0 19.83488-16.3328 36.16256-36.16256 36.16256-19.83488 0-36.16256-16.32768-36.16256-36.16256-0.00512-18.6624 16.32768-36.15744 36.16256-36.15744z m-57.15968 380.26752L417.65888 382.52544l170.30144-195.968c2.33472 0-3.49696 0 0 0l-37.3248 272.95744z m31.49312 58.32704l226.29376 127.13984-242.62656 9.32864 16.3328-136.46848z m-39.65952-19.83488l-16.3328 162.14528-117.8112 5.8368L326.67136 496.8448l68.82816-83.98848 146.9696 85.15072z m6.99392-337.11104c2.33984 3.49184 5.8368 5.83168 7.00416 9.33376L388.49536 365.0304 257.84832 290.37568v-9.33376c0-3.49696 0-9.33376-2.33472-12.83072l293.94944-107.3152z m-302.1056 160.9728l120.14592 67.65568-60.66176 69.9904-61.81888-135.31136 2.33472-2.33472z m-97.98656-40.82688c0-19.82976 16.32768-36.15744 36.16256-36.15744 19.82464 0 36.15744 16.32768 36.15744 36.15744s-16.32768 36.16256-36.15744 36.16256c-19.83488 0-36.16256-15.16544-36.16256-36.16256z m-36.15744 458.42432c-19.83488 0-36.16256-16.3328-36.16256-36.16256s16.32768-36.16256 36.16256-36.16256c19.82464 0 36.15744 16.3328 36.15744 36.16256s-16.3328 36.16256-36.15744 36.16256z m40.82688-99.15392c-5.8368-3.49696-10.496-5.82656-18.6624-9.32864l66.4832-279.95136c5.83168-2.33472 9.33376 0 15.16032-2.33472l66.48832 141.14304-129.46944 150.47168z m23.32672 25.66144l120.1408-143.47264 66.49344 148.1472-183.13728 8.16128c-3.49696-7.00416 0-7.00416-3.49696-12.83584z m275.28704 197.13536l-261.29408-144.64 190.13632-10.50112 69.98528 150.48192c-1.16224 3.49184 2.33984 0 1.17248 4.6592z m-30.33088-156.30336l96.81408-5.8368-16.32768 130.64704c-6.99904 2.3296-12.83584 3.49696-18.6624 5.83168l-61.824-130.64192z m94.47936 234.46528c-19.82976 0-36.16256-16.3328-36.16256-36.16256s16.3328-36.16256 36.16256-36.16256c19.82464 0 36.16256 16.32768 36.16256 36.16256s-16.32256 36.16256-36.16256 36.16256z m59.49952-76.99456c-9.32864-12.83584-22.16448-23.32672-38.49728-29.16352l18.66752-134.13888 291.6096-15.16544c2.33984 5.83168 3.5072 10.49088 5.8368 16.32256l-277.61664 162.14528z m278.784-233.29792l-269.45536-153.96864 38.5024-289.29024c2.3296 0 3.49696 0 3.49696-2.3296l254.29504 416.42496c-10.51648 5.8368-21.00736 16.33792-26.83904 29.16352z m64.1536 72.32512c-19.82464 0-36.15744-16.3328-36.15744-36.16256s16.32768-36.16256 36.15744-36.16256 36.16256 16.3328 36.16256 36.16256c1.16224 18.6624-15.16544 36.16256-36.16256 36.16256z m0 0" p-id="10145"></path></svg>
