<?xml version="1.0" standalone="no"?><!DOCTYPE svg PUBLIC "-//W3C//DTD SVG 1.1//EN" "http://www.w3.org/Graphics/SVG/1.1/DTD/svg11.dtd"><svg t="1622600471866" class="icon" viewBox="0 0 1024 1024" version="1.1" xmlns="http://www.w3.org/2000/svg" p-id="4168" xmlns:xlink="http://www.w3.org/1999/xlink" width="200" height="200"><defs><style type="text/css"></style></defs><path d="M186.57024 117.76l147.008-0.64c21.76 0.64 41.92-15.68 45.248-43.456v-30.08C378.25024 20.032 360.33024 0.512 338.50624 0L57.80224 1.792C57.41824 1.792 57.09824 1.536 56.71424 1.536L37.13024 1.088a35.84 35.84 0 0 0-27.584 11.968c-7.04 7.552-9.6 18.176-9.408 30.08l2.24 21.312c0 0.448-1.472 0.768-1.472 1.216L1.86624 371.2c0.512 23.552 18.432 37.632 40.32 38.144h29.184c21.76 0.512 39.04-19.84 38.528-43.52l-1.28-166.144 193.728 206.272a50.944 50.944 0 0 0 76.16 0 62.08 62.08 0 0 0 0-82.56l-192-205.696z m835.2 841.856c0-0.512 1.472-0.832 1.472-1.28l-1.28-300.864c-0.512-23.552-18.496-37.568-40.256-38.08l-27.584-0.064c-21.76-0.512-39.04 20.032-38.464 43.52l1.152 162.56L723.21024 617.92a50.88 50.88 0 0 0-76.16 0 61.952 61.952 0 0 0 0 82.56l193.664 207.488-146.944 0.64c-21.696-0.512-41.792 14.016-45.184 41.792v29.952c0.64 23.616 18.56 43.136 40.32 43.712l277.184-1.792 1.152 0.192 19.584 0.512a35.84 35.84 0 0 0 27.648-12.032c7.104-7.488 9.6-18.112 9.408-29.952l-2.176-21.376h0.064zM378.37824 617.856a50.944 50.944 0 0 0-76.16 0l-193.6 206.272 1.152-163.584c0.512-23.552-16.768-44.16-38.4-43.584H41.93024c-21.76 0.576-39.68 14.592-40.192 38.208L0.65024 958.272c0 0.448 1.408 0.768 1.408 1.216L0.01024 980.8c-0.192 11.84 2.304 22.528 9.408 30.016a35.84 35.84 0 0 0 27.52 11.904l19.712-0.512 1.088-0.128L338.57024 1024c21.76-0.64 39.808-20.096 40.32-43.776v-29.952c-3.328-27.776-23.488-42.304-45.12-41.792l-148.736-0.512 193.408-207.488a62.016 62.016 0 0 0 0-82.56z m636.224-604.8a35.648 35.648 0 0 0-27.584-11.904l-19.648 0.448c-0.448 0-0.768 0.192-1.152 0.256L685.00224 0c-21.76 0.64-39.808 20.096-40.32 43.712v29.952c3.328 27.84 23.488 44.16 45.12 43.648l149.248 0.576-191.744 205.696a61.76 61.76 0 0 0 0 82.56 50.752 50.752 0 0 0 76.096 0L917.00224 198.4l-1.28 167.488c-0.448 23.552 16.896 44.032 38.528 43.52h27.712c21.696-0.64 39.68-14.656 40.32-38.144l1.024-305.664c0-0.448-1.408-0.768-1.408-1.216L1024.01024 43.072c0.192-11.776-2.368-22.4-9.408-30.08z" p-id="4169"></path></svg>