<?xml version="1.0" standalone="no"?><!DOCTYPE svg PUBLIC "-//W3C//DTD SVG 1.1//EN" "http://www.w3.org/Graphics/SVG/1.1/DTD/svg11.dtd"><svg t="1572859340233" class="icon" viewBox="0 0 1024 1024" version="1.1" xmlns="http://www.w3.org/2000/svg" p-id="10643" xmlns:xlink="http://www.w3.org/1999/xlink" width="200" height="200"><defs><style type="text/css"></style></defs><path d="M659.63008 792.65792h-283.7504v141.8752H120.50432v56.75008h794.50112v-56.75008h-255.37536v-141.8752zM920.6784 26.53696H114.83136c-42.56256 0-79.45216 34.048-79.45216 79.44704v524.93824c0 42.56256 36.8896 79.45728 79.45216 79.45728h803.01568c45.39392 0 79.45216-34.05312 79.45216-79.45728V105.984c2.83136-45.39904-34.05824-79.44704-76.6208-79.44704z m25.54368 601.5488a25.43104 25.43104 0 0 1-25.53856 25.53856H114.83136a25.43104 25.43104 0 0 1-25.53856-25.53856V105.984a25.43104 25.43104 0 0 1 25.53856-25.53856h803.01568a25.43104 25.43104 0 0 1 25.53856 25.53856v522.10176h2.83648z m0 0" p-id="10644"></path><path d="M622.74048 446.48448c22.7072-25.53856 36.8896-56.75008 36.8896-93.63968H602.88c0 48.24064-36.8896 85.12512-85.12512 85.12512-48.23552 0-85.12512-36.8896-85.12512-85.12512 0-48.23552 36.8896-85.12512 85.12512-85.12512V210.9696c-36.8896 0-70.93248 14.18752-96.47104 39.72608L310.61504 140.03712H157.39392v56.75008h130.52416l102.15424 102.14912c-8.51456 17.024-11.34592 36.88448-11.34592 53.90848 0 79.45728 62.42304 141.8752 141.8752 141.8752 22.70208 0 42.56256-5.67296 59.58656-14.18752l113.50016 113.49504h175.9232v-56.74496h-150.38464l-96.4864-90.79808z m0 0" p-id="10645"></path><path d="M157.39392 338.6624H299.264v56.74496H157.39392V338.6624z m0 198.62016h170.25024v56.74496H157.39392v-56.74496z m454.00064-337.664c-5.67296-2.83648-11.35104-2.83648-14.18752-2.83648-31.21664 0-56.74496 25.53344-56.74496 56.74496s25.52832 56.75008 56.74496 56.75008c31.21152 0 56.75008-25.53856 56.75008-56.75008 0-5.67296 0-8.50944-2.83648-14.18752l42.56256-42.56256h173.09184V140.03712h-195.7888l-59.59168 59.58144z m0 0" p-id="10646"></path></svg>
