<?xml version="1.0" standalone="no"?><!DOCTYPE svg PUBLIC "-//W3C//DTD SVG 1.1//EN" "http://www.w3.org/Graphics/SVG/1.1/DTD/svg11.dtd"><svg t="1578968415861" class="icon" viewBox="0 0 1024 1024" version="1.1" xmlns="http://www.w3.org/2000/svg" p-id="2098" xmlns:xlink="http://www.w3.org/1999/xlink" width="200" height="200"><defs><style type="text/css"></style></defs><path d="M607.56992 365.86496H220.33408c-10.13248 0-20.27008-8.11008-20.27008-20.2752v-4.05504c0-12.16 8.10496-20.27008 20.27008-20.27008h387.23584c10.13248 0 20.27008 8.11008 20.27008 20.27008v4.05504c0 12.16512-10.1376 20.2752-20.27008 20.2752z m0 150.02624H220.33408c-10.13248 0-20.27008-10.1376-20.27008-20.2752v-4.05504c0-10.13248 8.10496-20.27008 20.27008-20.27008h387.23584c10.13248 0 20.27008 8.10496 20.27008 20.27008v4.05504c0 12.16512-10.1376 20.2752-20.27008 20.2752z m-214.90688 150.02624H220.33408c-10.13248 0-20.27008-8.11008-20.27008-20.27008v-4.06016c0-10.13248 8.10496-20.27008 20.27008-20.27008h172.33408c10.13248 0 20.27008 10.13248 20.27008 20.27008v4.06016c-0.00512 10.13248-10.1376 20.27008-20.2752 20.27008z m44.60032 200.71424c0 4.05504 0 6.08256-2.02752 10.13248-4.05504 6.08256-10.13248 12.16-16.21504 12.16h-4.06016c-12.16 0-22.29248-10.13248-22.29248-22.29248 0-12.17024 10.13248-22.2976 22.29248-22.2976 8.11008 0 16.22016 6.07744 20.2752 12.16 2.02752 2.0224 2.02752 6.08256 2.02752 10.1376z m356.82304-656.88064v381.15328c0 12.16512-10.13248 22.2976-22.2976 22.2976s-22.30272-10.13248-22.30272-22.2976V209.75104c0-36.49024-28.38016-64.87552-64.87552-64.87552H145.31584c-34.46272 0-64.87552 28.38528-64.87552 64.87552v589.96736a102.09792 102.09792 0 0 0 10.1376 32.44544c4.05504 6.07744 12.16 12.16512 30.4128 12.16512h8.10496c16.21504-2.02752 26.35776-6.08768 38.52288-10.1376 10.13248-4.05504 20.27008-8.1152 32.4352-10.13248 16.21504 0 30.40768 6.08256 42.5728 12.16512 10.13248 6.08256 20.27008 10.13248 30.40768 10.13248 12.16 0 20.2752-4.05504 30.40768-10.13248 10.1376-6.08256 22.2976-12.16512 36.49536-12.16512 16.21504 0 30.40768 6.08256 40.54528 12.16512 12.17024 6.08256 20.2752 10.13248 34.46272 10.13248 8.11008 0 16.22016 6.08256 20.2752 12.16v16.22528c-4.05504 6.07744-10.13248 12.16512-16.21504 12.16512h-4.06016c-24.32512 0-40.54528-8.1152-54.73792-16.22016-8.11008-4.05504-14.18752-8.11008-20.27008-8.11008-4.05504 0-8.11008 2.02752-16.21504 6.08256-12.16512 6.08256-28.38528 14.18752-50.688 16.22016s-36.49536-6.08256-50.68288-14.18752c-8.11008-4.05504-14.19264-8.11008-20.2752-8.11008-4.05504 0-10.1376 2.02752-16.22016 6.08256-12.16 6.08256-28.38016 12.16-52.7104 14.18752H120.9856c-26.35776 0-48.66048-10.13248-62.848-28.38528C45.9776 840.2688 37.86752 822.02624 35.84 797.696V209.75104a109.02016 109.02016 0 0 1 109.47584-109.48096h537.25696c62.85312 0 111.5136 48.65536 111.5136 109.48096z m186.78272 396.9536l-371.87584 371.8656c-14.0288 14.03904-35.08224 14.03904-49.11104 0l-3.51232-3.50208c-14.03392-14.03392-14.03392-35.08224 0-49.12128l368.36352-368.3584c14.03392-14.03392 35.08224-14.03392 49.11104 0l3.51744 3.5072c14.03392 10.52672 14.03392 31.57504 3.5072 45.60896z m-424.49408 0l368.36352 368.36352c14.03392 14.03392 35.08224 14.03392 49.11104 0l3.51744-3.51744c14.0288-14.0288 14.0288-35.08224 0-49.11104l-368.36864-368.36864c-14.0288-14.0288-35.08224-14.0288-49.11104 0l-3.51232 3.51744c-14.03392 14.03392-14.03392 35.08224 0 49.11616z m-48.1536 67.32288" p-id="2099"></path></svg>
