<?xml version="1.0" standalone="no"?><!DOCTYPE svg PUBLIC "-//W3C//DTD SVG 1.1//EN" "http://www.w3.org/Graphics/SVG/1.1/DTD/svg11.dtd"><svg t="1572859016107" class="icon" viewBox="0 0 1024 1024" version="1.1" xmlns="http://www.w3.org/2000/svg" p-id="8523" xmlns:xlink="http://www.w3.org/1999/xlink" width="200" height="200"><defs><style type="text/css"></style></defs><path d="M31.49824 565.90336V214.28224C31.49824 150.3488 84.78208 102.4 154.0352 102.4H867.9424c69.25824 0 122.53696 53.27872 122.53696 111.88224v420.88448c0 69.25824-53.2736 127.86688-122.53696 127.86688H154.0352c-69.25824 0-122.53696-58.60352-122.53696-127.86688v-69.26336z m101.22752-314.33216v351.62624c0 26.63424 21.30944 47.95392 53.26848 47.95392h655.3088c26.63424 0 53.27872-21.31968 53.27872-47.95392V251.5712c0-26.63424-21.31968-47.94368-53.27872-47.94368H185.99936c-31.96416-5.3248-53.2736 21.30944-53.2736 47.94368z m404.89984 149.17632h351.63136v47.94368h-351.63136v202.46016H489.6768V448.69632H138.05056v-47.94368H489.6768V198.30272h47.9488v202.4448z m-223.76448 490.14784h69.26336v-63.93344h277.03296v63.93344h69.26336c21.30432 0 31.96416 15.97952 31.96416 31.96416 0 15.97952-15.98976 31.96416-31.96416 31.96416H313.86112c-21.30944 0-31.96416-15.98464-31.96416-31.96416-5.3248-15.98464 10.65984-31.96416 31.96416-31.96416z m0 0" p-id="8524"></path></svg>
