<?xml version="1.0" standalone="no"?><!DOCTYPE svg PUBLIC "-//W3C//DTD SVG 1.1//EN" "http://www.w3.org/Graphics/SVG/1.1/DTD/svg11.dtd"><svg t="1577417121563" class="icon" viewBox="0 0 1024 1024" version="1.1" xmlns="http://www.w3.org/2000/svg" p-id="5949" xmlns:xlink="http://www.w3.org/1999/xlink" width="200" height="200"><defs><style type="text/css"></style></defs><path d="M955.7504 916.13696H61.82912a20.12672 20.12672 0 1 0 0 40.26368H955.7504a20.13696 20.13696 0 1 0 0-40.26368zM287.90784 327.90528c-28.47744 31.84128-50.82624 68.82304-66.44224 109.91616-16.13312 42.46016-24.30976 87.45472-24.30976 133.72416v268.35456a20.12672 20.12672 0 0 0 20.12672 20.12672h582.99904a20.13184 20.13184 0 0 0 20.13184-20.12672V571.5456c0-46.26432-8.18688-91.25376-24.31488-133.72416-15.61088-41.09824-37.9648-78.07488-66.43712-109.91616-28.6208-32.00512-61.94688-57.16992-99.05664-74.8032-38.64576-18.36544-79.63136-27.66848-121.82016-27.66848-42.1888 0-83.17952 9.30304-121.81504 27.66848-37.11488 17.6384-70.44096 42.80832-99.06176 74.8032z m220.88192-62.208c71.73632 0 139.51488 31.62112 190.86336 89.05216 25.16992 28.14464 44.95872 60.9024 58.81344 97.37216 14.39232 37.88288 21.6832 78.06976 21.6832 119.42912v248.2176H237.41952v-248.2176c0-41.35936 7.30112-81.54624 21.68832-119.42912 13.85472-36.46976 33.64352-69.23264 58.81344-97.37216 51.33824-57.43616 119.13728-89.05216 190.86848-89.05216z m-381.31712-12.928L205.2096 311.07072c3.62496 2.7136 7.8592 4.02432 12.0576 4.02432a20.13184 20.13184 0 0 0 12.09856-36.23424L151.6288 220.56448a20.13184 20.13184 0 0 0-24.15616 32.2048z m193.83808-51.41504a20.11136 20.11136 0 0 0 27.48928 7.36256 20.1216 20.1216 0 0 0 7.3728-27.4944L307.58912 97.0752a20.1216 20.1216 0 0 0-27.49952-7.36768 20.11136 20.11136 0 0 0-7.36256 27.48928l48.58368 84.15744z m187.47904-41.73312a20.12672 20.12672 0 0 0 20.12672-20.13184V42.33728a20.12672 20.12672 0 1 0-40.25344 0v97.16736a20.1216 20.1216 0 0 0 20.12672 20.11648z m276.93568 155.47392a20.0192 20.0192 0 0 0 12.05248-4.02432l77.73696-58.30144a20.11136 20.11136 0 0 0 4.02432-28.17536 20.1216 20.1216 0 0 0-28.17536-4.02432L773.632 278.8608a20.1216 20.1216 0 0 0 12.09344 36.23424z m-131.53792-106.37824a20.1216 20.1216 0 0 0 27.48928-7.36256l48.58368-84.15232a20.13184 20.13184 0 0 0-34.86208-20.1216l-48.57856 84.1472a20.1216 20.1216 0 0 0 7.36768 27.48928z m0 0" fill="#888888" p-id="5950"></path></svg>
