<?xml version="1.0" standalone="no"?><!DOCTYPE svg PUBLIC "-//W3C//DTD SVG 1.1//EN" "http://www.w3.org/Graphics/SVG/1.1/DTD/svg11.dtd"><svg t="1652664135184" class="icon" viewBox="0 0 1024 1024" version="1.1" xmlns="http://www.w3.org/2000/svg" p-id="7730" xmlns:xlink="http://www.w3.org/1999/xlink" width="200" height="200"><defs><style type="text/css">@font-face { font-family: feedback-iconfont; src: url("//at.alicdn.com/t/font_1031158_u69w8yhxdu.woff2?t=1630033759944") format("woff2"), url("//at.alicdn.com/t/font_1031158_u69w8yhxdu.woff?t=1630033759944") format("woff"), url("//at.alicdn.com/t/font_1031158_u69w8yhxdu.ttf?t=1630033759944") format("truetype"); }
</style></defs><path d="M693.79424 13.824c40.064 19.072 69.056 55.168 81.856 101.568a204.16 204.16 0 0 1-12.544 138.176L579.36224 656.64a264.32 264.32 0 0 1 23.104 108.288C602.59424 907.776 488.93024 1024 349.28224 1024S95.84224 907.776 95.84224 764.928c-0.256-119.616 79.552-222.784 191.488-251.328l182.4-399.872C512.41824 20.096 612.89824-24.704 693.79424 13.888zM527.84224 141.44L343.01024 546.752a32.448 32.448 0 0 1-26.24 27.52c-90.752 15.872-157.056 96.512-156.8 190.656 0 106.688 84.864 193.472 189.248 193.472 104.384 0 189.248-86.848 189.248-193.472 0-32.256-7.872-64-22.912-92.416l-0.64-1.536-1.216-2.496a33.472 33.472 0 0 1 0.96-25.472l190.272-417.152c13.824-30.336 17.024-63.296 8.96-92.8-7.616-27.712-24.32-48.96-47.168-59.84-48.832-23.296-111.168 7.296-138.88 68.16z m-72.384 598.656a32.832 32.832 0 0 1-23.424 39.68 32 32 0 0 1-38.784-23.872 45.248 45.248 0 0 0-54.848-33.792 46.336 46.336 0 0 0-33.088 56.064 45.248 45.248 0 0 0 54.848 33.792 32 32 0 0 1 38.4 24.064 32.832 32.832 0 0 1-22.976 39.552 107.776 107.776 0 0 1-26.56 3.392c-56.96-0.128-104.32-44.928-108.864-102.976-4.544-58.048 35.2-109.952 91.52-119.36 56.192-9.344 110.08 26.88 123.776 83.456z m257.792-170.048l82.688 39.488a32.96 32.96 0 0 1-13.568 62.464 31.36 31.36 0 0 1-13.504-3.072l-82.752-39.424a33.088 33.088 0 0 1-4.8-56.576 31.488 31.488 0 0 1 31.936-2.88zM638.05024 137.088c16 7.68 23.04 27.136 15.488 43.52l-187.52 411.072a32 32 0 0 1-28.992 18.944 31.936 31.936 0 0 1-27.008-15.168 33.408 33.408 0 0 1-2.048-31.424l187.52-411.072a31.744 31.744 0 0 1 42.56-15.872z m130.88 314.496l82.752 39.424a32.96 32.96 0 0 1-8.064 62.016l-5.568 0.448-4.544-0.32a31.424 31.424 0 0 1-8.96-2.752l-82.688-39.424a33.088 33.088 0 0 1-4.8-56.576 31.488 31.488 0 0 1 31.872-2.816z m57.664-118.4l82.752 39.36a32.96 32.96 0 0 1-13.568 62.528 31.36 31.36 0 0 1-13.504-3.072l-82.752-39.424a33.088 33.088 0 0 1-15.488-43.52 31.744 31.744 0 0 1 42.56-15.872z" p-id="7731"></path></svg>