<?xml version="1.0" standalone="no"?><!DOCTYPE svg PUBLIC "-//W3C//DTD SVG 1.1//EN" "http://www.w3.org/Graphics/SVG/1.1/DTD/svg11.dtd"><svg t="1594178131485" class="icon" viewBox="0 0 1024 1024" version="1.1" xmlns="http://www.w3.org/2000/svg" p-id="4720" xmlns:xlink="http://www.w3.org/1999/xlink" width="16" height="16"><defs><style type="text/css"></style></defs><path d="M867.45 583.43c-45.086-79.463-16.905-175.955 56.352-221.354l-78.89-147.568c-22.543 11.345-50.718 22.702-78.899 22.702-84.536 0-157.788-73.785-157.788-164.593h-163.43c0 28.38-5.637 56.76-22.543 79.462-45.082 79.458-140.888 102.165-214.144 56.756l-78.9 147.568c22.544 11.351 45.082 34.058 56.356 56.755 45.087 79.458 16.901 175.944-56.356 221.343l78.9 147.569c22.543-11.351 50.713-22.707 78.894-22.707 84.536 0 157.793 73.784 157.793 164.597H608.22c0-28.38 5.642-56.76 22.544-79.462 45.086-79.462 135.244-102.165 214.144-56.76l78.894-147.564c-22.539-11.351-45.082-34.053-56.351-56.745zM529.327 742.338c-129.613 0-236.687-107.843-236.687-244.05 0-136.218 107.074-244.055 236.687-244.055 129.618 0 236.687 107.837 236.687 244.055-0.005 136.212-107.069 244.05-236.687 244.05zM377.175 390.456l-50.724 107.838 50.724 107.832h50.714l-50.714-107.832 50.714-107.838h-50.714z m253.589 0l50.708 107.838-50.708 107.832h50.708l50.729-107.832-50.729-107.843-50.708 0.005zM450.427 606.121h50.724l101.437-209.992H551.87L450.427 606.121z m0 0" p-id="4721"></path></svg>