<?xml version="1.0" standalone="no"?><!DOCTYPE svg PUBLIC "-//W3C//DTD SVG 1.1//EN" "http://www.w3.org/Graphics/SVG/1.1/DTD/svg11.dtd"><svg class="icon" width="200px" height="200.00px" viewBox="0 0 1024 1024" version="1.1" xmlns="http://www.w3.org/2000/svg"><path fill="#ffffff" d="M266.016052 202.569695a146.003063 146.003063 0 0 1 68.733554 161.291342L509.609295 466.802115l207.856892-120.204093a109.565999 109.565999 0 0 1 107.272756-129.185956c39.048812 0 75.10367 20.893981 94.659927 54.719298a109.056389 109.056389 0 0 1-40.00433 149.379224 108.801585 108.801585 0 0 1-125.618691-11.52991L545.982659 529.993667v202.251189l2.356943 0.637012A145.875661 145.875661 0 0 1 509.672997 1019.218591a145.81196 145.81196 0 1 1-36.437065-286.973735l-0.063701-202.378591L300.032473 428.135509a145.684557 145.684557 0 0 1-94.659927 46.183343l-11.211404 0.509609a145.684557 145.684557 0 0 1-127.466025-73.638543c-26.117476-45.864837-25.480465-102.112963 1.592529-147.340788a145.620856 145.620856 0 0 1 197.728406-51.343136z m716.765474 269.901823c20.129567 0 36.437065 16.307497 36.437065 36.437065a512.02994 512.02994 0 0 1-254.804648 441.958661 36.373363 36.373363 0 0 1-36.437065-63.191553 438.837304 438.837304 0 0 0 218.431285-378.767108c0-20.129567 16.307497-36.437065 36.373363-36.437065z m-946.344461 0c20.129567 0 36.437065 16.371199 36.437064 36.500766a439.092109 439.092109 0 0 0 218.17648 378.83081 36.437065 36.437065 0 0 1-36.437065 63.06415A512.221043 512.221043 0 0 1 0 508.972284c0-20.129567 16.307497-36.500766 36.437065-36.500766z m473.554437 328.060984l-7.516737 0.318506a72.93783 72.93783 0 0 0-1.465126 144.983844l8.599656 0.50961 8.599657-0.50961a72.810428 72.810428 0 0 0 54.464494-108.865285 72.746727 72.746727 0 0 0-62.681944-36.437065z m-315.320751-546.683372c-26.117476 0-50.323918 14.014256-63.318955 36.437065a73.128934 73.128934 0 0 0 62.936748 109.374895 73.065233 73.065233 0 0 0 43.507893-131.415497l-6.943426-4.522783a71.154198 71.154198 0 0 0-36.18226-9.87368z m569.934296-186.771806a36.500766 36.500766 0 0 1-36.500766 63.06415C596.242876 53.70008 423.485324 53.508976 291.241712 130.205175A36.373363 36.373363 0 1 1 254.804648 67.141025c154.411617-89.500133 355.707288-89.37273 509.8641 0z" /></svg>