<?xml version="1.0" standalone="no"?><!DOCTYPE svg PUBLIC "-//W3C//DTD SVG 1.1//EN" "http://www.w3.org/Graphics/SVG/1.1/DTD/svg11.dtd"><svg t="1577417129713" class="icon" viewBox="0 0 1024 1024" version="1.1" xmlns="http://www.w3.org/2000/svg" p-id="6324" xmlns:xlink="http://www.w3.org/1999/xlink" width="200" height="200"><defs><style type="text/css"></style></defs><path d="M1007.31904 169.68704c0-39.168-34.75968-73.9328-98.21184-97.65376-55.73632-20.97152-129.66912-32.55808-207.4624-32.55808-77.79328 0-151.7312 11.58656-207.45728 32.55808-64 23.71584-98.7648 58.48576-98.7648 97.65376v187.04896c-24.27904-2.20672-49.65888-3.8656-75.59168-3.8656-77.79328 0-151.7312 11.58656-207.45728 32.55808C48.93184 409.7024 14.17216 444.46208 14.17216 483.6352v402.22208c0 39.17312 34.75968 73.9328 98.21184 97.65888 55.72608 20.9664 129.65888 32.55296 207.45728 32.55296 77.7984 0 151.7312-11.59168 207.45728-32.55296 55.17312-20.9664 88.84224-49.65376 96.55808-82.75968 25.37984 2.75456 51.30752 3.86048 77.24032 3.86048 77.80352 0 151.73632-11.58144 207.46752-32.54784 63.45216-23.7312 98.21184-58.49088 98.21184-97.664v-3.30752l0.54272-601.41056z m-49.10592 455.19872c0 33.65376-100.41856 81.65888-257.12128 81.65888-25.92768 0-51.30752-1.10592-75.59168-3.8656v-100.41856c24.83712 2.7648 49.65888 3.8656 75.59168 3.8656 77.80352 0 151.73632-11.58656 207.46752-32.55296 19.30752-7.168 35.8656-15.44704 49.65376-24.27904v75.59168z m-381.25568-1.11104c0 33.65888-100.41344 81.664-257.11616 81.664-156.69248 0-257.11616-48.55296-257.11616-81.664v-66.7648c13.79328 8.83712 30.35136 17.11104 49.664 24.28416 55.72608 20.9664 129.65888 32.55296 207.45728 32.55296 77.7984 0 151.7312-11.59168 207.45728-32.55296 19.31264-7.17312 35.8656-15.45216 49.65888-24.28416v66.7648zM62.72 697.15968c13.79328 8.83712 30.35136 17.11104 49.664 24.27904 55.72608 20.97152 129.65888 32.55296 207.45728 32.55296 77.7984 0 151.7312-11.58656 207.45728-32.55296 19.31264-7.168 35.8656-15.44704 49.65888-24.27904v57.9328c0 33.65888-100.41344 81.65376-257.11616 81.65376-156.69248 0-257.11616-48.54272-257.11616-81.65376v-57.9328zM958.21312 475.904c0 33.664-100.41856 81.664-257.12128 81.664-25.92768 0-51.30752-1.10592-75.59168-3.8656V483.6352c0-10.48576-2.75456-20.97152-7.72096-30.90432 27.0336 2.7648 54.62016 4.40832 83.30752 4.40832 77.80352 0 151.73632-11.58144 207.46752-32.54784 19.30752-7.168 35.8656-15.44704 49.65376-24.27392V475.904z m0-149.51424c0 33.65376-100.41856 81.65888-257.12128 81.65888-156.69248 0-257.11104-48.55296-257.11104-81.65888V243.06688c13.7984 8.832 30.34624 17.10592 49.65376 24.27904 55.73632 20.9664 129.66912 32.55296 207.4624 32.55296 77.80352 0 151.73632-11.58656 207.46752-32.55296 19.30752-7.17312 35.8656-15.44704 49.65376-24.27904v83.32288z m-257.11616-238.90944c156.6976 0 257.12128 48.55296 257.12128 81.65888 0 33.1008-99.87072 82.20672-257.12128 82.20672-156.69248 0-257.11104-48.55296-257.11104-81.664-0.00512-33.1008 100.41344-82.2016 257.11104-82.2016zM319.83616 401.42336c34.7648 0 66.21184 2.21184 94.90432 6.62016 1.1008 0 1.65376 0.55296 2.75968 0.55296 99.30752 14.34112 159.45728 49.10592 159.45728 75.03872 0 33.664-100.41344 81.65888-257.11616 81.65888-156.69248 0-257.11616-48.55296-257.11616-81.65888-0.00512-33.10592 99.8656-82.21184 257.11104-82.21184z m0 566.64576c-156.69248 0-257.11616-48.54784-257.11616-81.65376v-57.93792c13.79328 8.832 30.35136 17.11104 49.664 24.28416 55.72608 20.9664 129.65888 32.54784 207.45728 32.54784 77.7984 0 151.7312-11.58656 207.45728-32.54784 19.31264-7.17312 35.8656-15.45728 49.65888-24.28416v57.93792c0 33.10592-100.41856 81.65376-257.12128 81.65376z m381.2608-112.00512c-25.92768 0-51.30752-1.1008-75.59168-3.86048v-100.41344c24.83712 2.74944 49.65888 3.85536 75.59168 3.85536 77.80352 0 151.73632-11.58656 207.46752-32.54784 19.30752-7.17312 35.8656-15.44704 49.65376-24.27392v76.13952c-0.00512 32.55296-99.87072 81.1008-257.12128 81.1008z m0 0" p-id="6325"></path></svg>
