<?xml version="1.0" standalone="no"?><!DOCTYPE svg PUBLIC "-//W3C//DTD SVG 1.1//EN" "http://www.w3.org/Graphics/SVG/1.1/DTD/svg11.dtd"><svg class="icon" width="200px" height="187.55px" viewBox="0 0 1092 1024" version="1.1" xmlns="http://www.w3.org/2000/svg"><path fill="#ffffff" d="M79.6672 638.976L138.513067 457.386667c9.693867-30.3104 37.819733-51.2 70.0416-51.2h810.325333A73.659733 73.659733 0 0 1 1092.266667 479.8464l-139.810134 432.9472c-11.0592 27.989333-38.0928 46.967467-68.744533 46.967467H73.591467A73.728 73.728 0 0 1 0 886.101333V73.728C0 33.041067 32.9728 0 73.591467 0h337.578666C451.7888 0 484.693333 33.041067 484.693333 73.728c0 33.9968 27.579733 61.6448 61.44 61.6448h337.646934a73.728 73.728 0 0 1 73.591466 73.728v141.448533h-79.6672V215.2448H546.133333A141.243733 141.243733 0 0 1 405.230933 79.872h-325.632v559.104z m803.089067 240.981333L1010.346667 485.922133H209.5104L81.92 879.889067h800.836267z" /></svg>