<?xml version="1.0" standalone="no"?><!DOCTYPE svg PUBLIC "-//W3C//DTD SVG 1.1//EN" "http://www.w3.org/Graphics/SVG/1.1/DTD/svg11.dtd"><svg class="icon" width="200px" height="170.95px" viewBox="0 0 1198 1024" version="1.1" xmlns="http://www.w3.org/2000/svg"><path fill="#ffffff" d="M599.489415 0c1.173853 0 2.322731 0.049951 3.446633 0.174829h-3.446633c160.043668 0 310.546656 61.764668 423.711116 173.980055C1136.389967 286.370272 1198.828976 435.649455 1198.828976 594.494294c0 154.848743-59.292083 300.706268-167.411471 412.09746l-8.216974 8.266925a31.64409 31.64409 0 0 1-22.403117 9.141071c-8.117071 0-16.234142-2.997072-22.403116-9.141071l-115.237435-114.263386a31.219505 31.219505 0 0 1 0-44.456575 31.843895 31.843895 0 0 1 44.831208 0l92.159978 91.410709a524.862311 524.862311 0 0 0 134.343772-321.510946h-130.372651c-17.482923 0-31.768968-14.036289-31.619115-31.519211 0-17.358045 14.161167-31.369358 31.793944-31.369359h130.197822a524.837335 524.837335 0 0 0-134.193919-321.510946l-92.159977 91.41071c-6.19395 5.994145-14.311021 9.116095-22.403117 9.116095-8.117071 0-16.234142-2.997072-22.403116-9.141071a31.219505 31.219505 0 0 1 0-44.456574l92.159977-91.41071a533.803577 533.803577 0 0 0-324.233286-133.369723V193.061416a31.843895 31.843895 0 0 1-31.768968 31.544188c-17.482923 0-31.793943-14.036289-31.793944-31.544188V63.787692A533.453919 533.453919 0 0 0 243.512136 197.157415l92.159977 91.41071a31.219505 31.219505 0 0 1 0 44.456574c-6.168974 5.994145-14.286045 9.141071-22.403116 9.141071-8.092096 0-16.209167-2.997072-22.403117-9.141071l-92.159977-91.385734a527.060164 527.060164 0 0 0-133.894211 321.361093h129.898114c17.482923 0 31.793943 14.011314 31.793944 31.519212a31.843895 31.843895 0 0 1-31.793944 31.519211h-129.873139A527.060164 527.060164 0 0 0 198.805805 947.374598l92.010124-91.23588a31.843895 31.843895 0 0 1 44.831209 0 31.219505 31.219505 0 0 1 0 44.456575l-115.237436 114.263386A31.64409 31.64409 0 0 1 198.056537 1023.99975c-8.117071 0-16.234142-2.997072-22.403116-9.141071A589.948734 589.948734 0 0 1 0.424585 599.389512a31.469261 31.469261 0 0 1-0.024975-9.790436A590.123563 590.123563 0 0 1 175.603469 174.329714C287.96871 62.913546 437.123015 1.048975 596.017806 0.174829c1.148878-0.099902 2.297756-0.174829 3.496584-0.174829z m222.033116 374.334348a31.219505 31.219505 0 0 1 0 44.456574l-122.130702 121.081727c9.066144 16.209167 14.236094 34.840967 14.236095 54.646621 0 62.414034-51.199988 113.139485-114.138509 113.139484-62.938521 0-114.113533-50.725451-114.113533-113.139484 0-62.439009 51.199988-113.16446 114.138508-113.164461 19.955507 0 38.712186 5.095023 55.071206 14.061265l122.130702-121.081726a31.843895 31.843895 0 0 1 44.806233 0z m-222.033116 169.909031c-27.972676 0-50.700475 22.527995-50.700476 50.275891 0 27.72292 22.727799 50.27589 50.700476 50.27589 27.972676 0 50.700475-22.55297 50.700475-50.27589 0-13.436875-5.319804-25.624969-13.986338-34.641163a6.119023 6.119023 0 0 1-0.949073-0.824195l-0.899122-1.023999a50.750427 50.750427 0 0 0-34.865942-13.786534z"  /></svg>