<?xml version="1.0" encoding="UTF-8"?>
<svg width="34px" height="36px" viewBox="0 0 34 36" version="1.1" xmlns="http://www.w3.org/2000/svg" xmlns:xlink="http://www.w3.org/1999/xlink">
    <title>编组 9</title>
    <g id="45.加载中" stroke="none" stroke-width="1" fill="none" fill-rule="evenodd">
        <g transform="translate(-440.000000, -1011.000000)" fill="#FFFFFF" fill-rule="nonzero" id="编组-9">
            <g transform="translate(440.000000, 1011.000000)">
                <path d="M17.9280786,9.3619007 C15.3534286,9.3619007 13.2580167,7.26223954 13.2580167,4.68095035 C13.2580167,2.10075679 15.353469,-1.67865721e-13 17.9280786,-1.67865721e-13 C20.5026881,-1.67865721e-13 22.5972095,2.09970175 22.5972095,4.68095035 C22.5972095,7.26219896 20.5028095,9.3619007 17.9280786,9.3619007 Z" id="路径" fill-opacity="0.85"></path>
                <path d="M7.98607381,13.0789052 C5.63456905,13.0789052 3.72053095,11.1609552 3.72053095,8.80252399 C3.72053095,6.44409276 5.63456905,4.5261428 7.98607381,4.5261428 C10.3375786,4.5261428 12.2516571,6.44409276 12.2516571,8.80252399 C12.2516571,11.1599002 10.3375786,13.0789052 7.98607381,13.0789052 Z" id="路径" fill-opacity="0.75"></path>
                <path d="M3.7614119,22.7523282 C1.68692619,22.7523282 1.90247817e-13,21.0611723 1.90247817e-13,18.9814353 C1.90247817e-13,16.9026721 1.68692619,15.2115162 3.7614119,15.2115162 C5.83492619,15.2115162 7.52177143,16.9027533 7.52177143,18.9814353 C7.52177143,21.0611723 5.83484524,22.7523282 3.7614119,22.7523282 Z" id="路径" fill-opacity="0.65"></path>
                <path d="M7.98607381,32.3359507 C6.22746429,32.3359507 4.79659048,30.9015359 4.79659048,29.1383529 C4.79659048,27.3752917 6.22839524,25.9408363 7.98607381,25.9408363 C9.74375238,25.9408363 11.1755571,27.3752511 11.1755571,29.1383529 C11.1755571,30.9014953 9.74472381,32.3359507 7.98607381,32.3359507 Z" id="路径" fill-opacity="0.55"></path>
                <path d="M17.9280786,36 C16.3916833,36 15.1421429,34.747337 15.1421429,33.207012 C15.1421429,31.6666464 16.3916429,30.4140646 17.9280786,30.4140646 C19.4645143,30.4140646 20.7139738,31.6666464 20.7139738,33.207012 C20.7139738,34.747337 19.4645143,36 17.9280786,36 Z" id="路径" fill-opacity="0.45"></path>
                <path d="M28.0206143,31.2791608 C26.7811119,31.2791608 25.7717167,30.2682655 25.7717167,29.024611 C25.7717167,27.7809564 26.7811119,26.7700611 28.0206143,26.7700611 C29.2601167,26.7700611 30.269431,27.7809159 30.269431,29.024611 C30.269431,30.2682249 29.2600762,31.2791608 28.0206143,31.2791608 L28.0206143,31.2791608 Z" id="路径" fill-opacity="0.35"></path>
                <path d="M32.1536381,20.8483779 C31.1363095,20.8483779 30.3083286,20.018301 30.3083286,18.9983971 C30.3083286,17.9784933 31.1363095,17.1483758 32.1536381,17.1483758 C33.1709667,17.1483758 34,17.9784527 34,18.9983971 C34,20.0182604 33.1709262,20.8483779 32.1536381,20.8483779 Z" id="路径" fill-opacity="0.25"></path>
                <path d="M26.5888095,8.94130298 C26.5888095,9.7340881 27.229831,10.3767322 28.0205738,10.3767322 C28.8113167,10.3767322 29.4523786,9.73404752 29.4523786,8.94130298 C29.4523786,8.14851786 28.8113167,7.50587376 28.0205738,7.50587376 C27.229831,7.50587376 26.5888095,8.14847729 26.5888095,8.94130298 Z" id="路径" fill-opacity="0.15"></path>
            </g>
        </g>
    </g>
</svg>