<?xml version="1.0" standalone="no"?><!DOCTYPE svg PUBLIC "-//W3C//DTD SVG 1.1//EN" "http://www.w3.org/Graphics/SVG/1.1/DTD/svg11.dtd"><svg t="1573701905406" class="icon" viewBox="0 0 1024 1024" version="1.1" xmlns="http://www.w3.org/2000/svg" p-id="1999" xmlns:xlink="http://www.w3.org/1999/xlink" width="200" height="200"><defs><style type="text/css"></style></defs><path d="M867.10272 292.95104a35.072 35.072 0 0 0-24.66816 10.65472 35.05664 35.05664 0 0 0-9.92256 24.99072v569.8304c0 19.63008-15.54944 35.64032-34.60608 35.64032H174.61248a35.18464 35.18464 0 0 1-34.60096-35.64032V186.10688c0-19.63008 15.54944-35.64544 34.60096-35.64544h484.75136a35.11296 35.11296 0 0 0 34.60096-35.56864 35.1232 35.1232 0 0 0-34.60096-35.6352H174.67904c-57.41056 0-103.94112 47.94368-103.94112 106.91072v712.26368c0 58.90048 46.65856 106.8544 103.87456 106.8544h623.29344c57.216 0 103.86432-47.95392 103.86432-106.92096V328.65792a35.09248 35.09248 0 0 0-34.6624-35.64032v-0.06656z m95.90784-272.27136a33.86368 33.86368 0 0 0-48.9216 0L570.0096 374.59968a36.29568 36.29568 0 0 0 0 50.41152 34.03264 34.03264 0 0 0 48.9216 0l344.07424-353.99168a36.3008 36.3008 0 0 0 0-50.35008v0.01024z m-511.3856 343.48544H243.88096a35.15392 35.15392 0 0 0-24.72448 10.62912 35.08224 35.08224 0 0 0-9.94304 25.00608c0 19.6352 15.55456 35.64544 34.66752 35.64544h207.744a35.11808 35.11808 0 0 0 34.60096-35.64544c-0.00512-19.62496-15.54432-35.6352-34.60096-35.6352z m-242.34496 249.34912c0 19.69664 15.48288 35.64032 34.60096 35.64032h415.48288a35.11296 35.11296 0 0 0 34.6624-35.64032 35.11296 35.11296 0 0 0-34.6624-35.64032H243.88096a35.10784 35.10784 0 0 0-34.66752 35.64032h0.06656z m0 0" p-id="2000"></path></svg>
