<?xml version="1.0" standalone="no"?><!DOCTYPE svg PUBLIC "-//W3C//DTD SVG 1.1//EN" "http://www.w3.org/Graphics/SVG/1.1/DTD/svg11.dtd"><svg t="1572859025994" class="icon" viewBox="0 0 1024 1024" version="1.1" xmlns="http://www.w3.org/2000/svg" p-id="8771" xmlns:xlink="http://www.w3.org/1999/xlink" width="200" height="200"><defs><style type="text/css"></style></defs><path d="M510.51008 775.72096c190.208 0 344.40192-154.1888 344.40192-344.40192S700.7232 86.91712 510.51008 86.91712c-190.20288 0-344.3968 154.19392-344.3968 344.40192s154.19392 344.40192 344.3968 344.40192z m0 57.40032a401.8176 401.8176 0 0 1-347.99104-200.89344 401.8176 401.8176 0 0 1 0-401.8176A401.83296 401.83296 0 0 1 510.51008 29.5168c221.90592 0.01536 401.78688 179.90144 401.78688 401.80736 0 221.89056-179.88096 401.78688-401.78688 401.79712z m0 0" p-id="8772"></path><path d="M510.51008 603.51488c63.40608 0 114.80064-51.38944 114.80064-114.79552s-51.39456-114.80064-114.80064-114.80064c-63.40096 0-114.79552 51.39456-114.79552 114.80064s51.39456 114.79552 114.79552 114.79552z m0 57.40544c-95.09888 0-172.20096-77.10208-172.20096-172.20096 0-95.104 77.10208-172.20096 172.20096-172.20096 95.09888 0 172.20608 77.09696 172.20608 172.20096 0 95.09888-77.1072 172.20096-172.20608 172.20096z m0 0M510.51008 259.11808A57.41056 57.41056 0 0 1 460.8 173.01504a57.41568 57.41568 0 0 1 49.71008-28.6976c31.69792 0 57.40544 25.7024 57.40544 57.40032 0 31.69792-25.70752 57.40032-57.40544 57.40032z m0 0M194.816 947.92192h631.3984c19.12832 0 28.69248 9.55904 28.69248 28.6976 0 19.13344-9.56416 28.6976-28.69248 28.6976H194.816c-19.13856 0-28.70272-9.56416-28.70272-28.6976 0-19.13856 9.56416-28.6976 28.70272-28.6976z m0 0" p-id="8773"></path><path d="M622.82752 794.05568l58.89536 161.8176c6.54336 17.98144 0.82944 30.23872-17.14688 36.7872-17.98656 6.53824-30.24384 0.8192-36.79232-17.16224l-58.90048-161.81248c-6.53824-17.98144-0.8192-30.24384 17.16224-36.7872s30.24384-0.82432 36.78208 17.15712z m0 0M398.14656 794.08128l-58.89024 161.81248c-6.54336 17.98656-0.82944 30.24896 17.15712 36.79232 17.98144 6.54336 30.24384 0.82944 36.7872-17.16224L452.096 813.71136c6.54336-17.97632 0.82432-30.23872-17.16224-36.7872-17.97632-6.53824-30.23872-0.82432-36.7872 17.15712z m0 0" p-id="8774"></path></svg>
