<?xml version="1.0" standalone="no"?><!DOCTYPE svg PUBLIC "-//W3C//DTD SVG 1.1//EN" "http://www.w3.org/Graphics/SVG/1.1/DTD/svg11.dtd"><svg t="1576057015323" class="icon" viewBox="0 0 1024 1024" version="1.1" xmlns="http://www.w3.org/2000/svg" p-id="5094" xmlns:xlink="http://www.w3.org/1999/xlink" width="200" height="200"><defs><style type="text/css"></style></defs><path d="M390.8096 572.53376h110.57152l-25.72288 155.39712a12.032 12.032 0 0 0 7.37792 13.15328c1.51552 0.56832 3.03104 0.9472 4.54144 0.9472 3.88096 0 7.56736-1.8944 9.9328-5.20704l169.49248-242.14016a11.89888 11.89888 0 0 0 0.84992-12.48256 12.16512 12.16512 0 0 0-10.68544-6.52288h-117.66272l32.53248-130.24256a12.0576 12.0576 0 0 0-6.43072-13.80864 12.2368 12.2368 0 0 0-14.848 3.4048l-169.4976 218.02496a12.24704 12.24704 0 0 0-1.32608 12.76416 12.1856 12.1856 0 0 0 10.87488 6.71232z m0 0" p-id="5095"></path><path d="M935.61856 160.90624H862.976V100.36736c0-19.95264-16.36352-36.32128-36.32128-36.32128s-36.3264 16.36352-36.3264 36.32128v60.53888h-129.10592V100.36736c0-19.95264-16.36352-36.32128-36.32128-36.32128s-36.32128 16.36352-36.32128 36.32128v60.53888H459.48416V100.36736c0-19.95264-16.36352-36.32128-36.3264-36.32128-19.95776 0-36.32128 16.36352-36.32128 36.32128v60.53888H257.63328V100.36736c0-19.95264-16.36352-36.32128-36.32128-36.32128-19.95264 0-36.31616 16.36352-36.31616 36.32128v60.53888H88.1408c-33.38752 0-60.53376 27.14112-60.53376 60.52864V826.7776c0 33.38752 27.14624 60.52864 60.53376 60.52864h84.74624v48.4352a24.25856 24.25856 0 0 0 24.21248 24.21248h145.28a24.25856 24.25856 0 0 0 24.21248-24.21248v-48.4352h290.56512v48.4352a24.25856 24.25856 0 0 0 24.21248 24.21248h145.28512a24.26368 24.26368 0 0 0 24.21248-24.21248v-48.4352h84.75136c33.38752 0 60.53376-27.14112 60.53376-60.52864V221.43488c0.00512-33.29536-27.14624-60.52864-60.53376-60.52864z m-12.1088 653.76768H100.2496V233.53856h823.26016v581.13536z m0 0" p-id="5096"></path></svg>
