<?xml version="1.0" standalone="no"?><!DOCTYPE svg PUBLIC "-//W3C//DTD SVG 1.1//EN" "http://www.w3.org/Graphics/SVG/1.1/DTD/svg11.dtd"><svg class="icon" width="200px" height="200.00px" viewBox="0 0 1024 1024" version="1.1" xmlns="http://www.w3.org/2000/svg"><path fill="#ffffff" d="M625.720889 56.888889c17.066667 0 28.444444 11.377778 28.444444 28.444444v108.088889c22.755556 11.377778 45.511111 22.755556 62.577778 34.133334l90.908445-56.888889c11.377778-5.688889 28.444444-5.688889 39.822222 11.377777l113.720889 199.111112c11.377778 17.066667 5.688889 34.133333-11.377778 39.822222l-91.022222 56.888889v68.266666l91.022222 56.888889c11.377778 5.688889 17.066667 22.755556 11.377778 39.822222l-113.720889 199.111112c-5.688889 11.377778-22.755556 17.066667-39.822222 11.377777l-90.965334-56.888889c-17.066667 11.377778-39.822222 28.444444-62.577778 34.133334v108.088889c0 17.066667-11.377778 28.444444-28.387555 28.444444H398.279111c-17.066667 0-28.444444-11.377778-28.444444-28.444444v-108.088889c-22.755556-11.377778-45.511111-22.755556-62.577778-34.133334l-90.908445 56.888889c-11.377778 5.688889-28.444444 5.688889-39.822222-11.377777l-113.720889-199.111112c-11.377778-17.066667-5.688889-34.133333 11.377778-39.822222l91.022222-56.888889V477.866667l-91.022222-56.888889c-17.066667-5.688889-22.755556-22.755556-11.377778-39.822222l113.720889-199.111112c5.688889-11.377778 22.755556-17.066667 39.822222-5.688888l90.965334 56.888888c17.066667-11.377778 39.822222-28.444444 62.577778-34.133333v-113.777778c0-17.066667 11.377778-28.444444 28.387555-28.444444h227.441778z m-28.444445 56.888889H426.723556v96.711111c0 11.377778-5.688889 22.755556-17.066667 28.444444-28.444444 11.377778-56.888889 28.444444-79.644445 45.511111-11.377778 5.688889-22.755556 5.688889-34.133333 0l-85.219555-45.511111-85.333334 147.911111 85.333334 51.2c11.377778 5.688889 17.066667 17.066667 11.377777 28.444445 0 17.066667-5.688889 28.444444-5.688889 45.511111 0 17.066667 0 28.444444 5.688889 45.511111 5.688889 11.377778 0 22.755556-11.377777 28.444445l-85.333334 51.2 85.333334 147.911111 85.276444-51.2c11.377778-5.688889 22.755556-5.688889 34.133333 0 22.755556 17.066667 51.2 34.133333 79.587556 45.511111 11.377778 5.688889 17.066667 17.066667 17.066667 28.444444V910.222222h170.552888v-96.711111c0-11.377778 5.688889-22.755556 17.066667-28.444444 28.444444-11.377778 56.888889-28.444444 79.644445-45.511111 11.377778-5.688889 22.755556-5.688889 34.133333 0l85.219555 51.2 85.333334-147.911112-85.333334-51.2c-11.377778-11.377778-17.066667-22.755556-11.377777-34.133333 0-17.066667 5.688889-28.444444 5.688889-45.511111 0-17.066667 0-28.444444-5.688889-45.511111 0-11.377778 5.688889-22.755556 11.377777-28.444445l85.333334-51.2-85.333334-147.911111-85.276444 51.2c-11.377778 5.688889-22.755556 5.688889-34.133333 0-22.755556-17.066667-51.2-34.133333-79.587556-45.511111-11.377778-11.377778-17.066667-22.755556-17.066667-34.133333V113.777778zM512 341.333333c96.711111 0 170.552889 73.955556 170.552889 170.666667S608.711111 682.666667 512 682.666667c-96.711111 0-170.552889-73.955556-170.552889-170.666667S415.288889 341.333333 512 341.333333z m0 56.888889c-62.577778 0-113.720889 51.2-113.720889 113.777778s51.2 113.777778 113.720889 113.777778c62.577778 0 113.720889-51.2 113.720889-113.777778S574.520889 398.222222 512 398.222222z" /></svg>