<?xml version="1.0" standalone="no"?><!DOCTYPE svg PUBLIC "-//W3C//DTD SVG 1.1//EN" "http://www.w3.org/Graphics/SVG/1.1/DTD/svg11.dtd"><svg class="icon" width="200px" height="137.54px" viewBox="0 0 1489 1024" version="1.1" xmlns="http://www.w3.org/2000/svg"><path fill="#ffffff" d="M710.490731 0c97.1826 0 189.867442 38.339513 261.180177 107.636011 59.990791 57.881498 100.439598 133.847086 116.414394 217.319278 23.357325-5.366291 47.241973-8.592269 71.126621-7.878832 5.211196 0.186114 9.708954 0.372228 13.307161 0.558342l-28.940749 71.653944c-25.838846 1.054647-47.241973 6.607052-72.584515 16.129893l-44.698412 17.370653-4.342664-47.831334c-14.516903-172.341694-148.705198-302.218345-311.120804-302.218345-155.033079 0-288.166727 123.052466-309.69393 286.988004l-4.497758 34.927421-35.051496-3.753302a218.435963 218.435963 0 0 0-26.211075-1.457894c-145.13801 0-262.97928 126.309463-262.97928 280.908275 0 148.146856 105.992003 269.958561 240.180298 280.722162l36.106143-0.186114h4.652853c1.085666 0 2.54356 0.186114 3.784321 0.186114l737.787471 0.899552c10.236278 0 20.286441-0.186114 30.18151-0.527324 10.949715-0.186114 21.899431-0.558342 34.493154-0.558342 124.293227 0 232.456561-94.390888 257.612989-223.740216a36.819581 36.819581 0 0 1 42.744215-28.847692c19.38689 3.939416 32.321822 22.767963 28.227311 42.092815-32.011632 163.749424-170.139343 282.335151-329.297952 282.335151-11.477039 0-22.116564 0-32.538956 0.372228-10.391373 0.527323-20.999879 0.527323-31.949594 0.527324l-742.998667-0.899552c-1.985217 0-3.970435 0-6.824185 0.186114-5.211196 0.186114-11.321944 0.713438-13.307161 0.713438-89.800073 0-173.520417-37.253847-236.209863-104.968375C36.478372 855.411608 2.884769 772.063492 0 683.038895v-26.335151c6.638071-188.440567 154.133527-339.658306 335.005453-339.84442C373.686175 133.816067 529.960015 0 710.52175 0z m109.404095 486.378287c24.070762 0 45.070641 6.265843 62.503332 18.797528 17.587786 12.562704 30.708833 30.274567 39.70435 53.383739 9.150612 23.295287 13.462256 50.343875 13.462256 81.517994 0 22.581849-2.698655 43.736823-7.537622 62.689446a142.036108 142.036108 0 0 1-22.085545 48.917c-9.708954 13.803465-21.744335 24.380952-36.106143 31.701442-14.578941 7.351509-30.708833 10.949715-49.22719 10.949715s-34.865382-3.784321-49.413305-11.290925a101.370168 101.370168 0 0 1-36.106143-31.329213c-9.864049-13.98958-17.060463-30.646795-22.085544-49.816552a245.484551 245.484551 0 0 1-7.568642-62.534351c0-22.736944 2.54356-43.736823 7.754756-62.87556 5.180177-18.983642 12.562704-35.299649 22.643887-48.730886 9.864049-13.431237 21.713316-23.636496 35.733915-30.80189a107.636011 107.636011 0 0 1 48.327638-10.577487z m-244.119714-0.372229c18.828547 0 35.88901 4.838968 50.80916 14.330789 14.734036 9.677935 26.05598 21.713316 33.779717 35.826972 8.25106 14.175694 12.221495 27.606931 12.221495 40.138616 0 6.824185-1.985217 13.245123-5.583424 18.456319a16.936387 16.936387 0 0 1-14.020599 7.692718c-6.110748 0-10.763601-1.954198-13.64837-5.738519-3.225978-3.412093-6.265843-9.83303-10.236278-18.4253-6.296862-15.044226-13.462256-26.180056-21.89943-33.34545-8.623289-7.32049-18.704471-10.918696-31.081062-10.918696-19.604023 0-35.206592 9.305707-46.528535 28.320368-11.477039 18.797528-17.618805 45.660002-17.618805 80.060099 0 23.295287 2.512541 42.651157 7.754756 57.881498 5.366291 15.199321 12.562704 26.862474 22.085544 34.369078 8.995517 7.537623 20.100327 11.477039 33.03526 11.477039 13.64837 0 25.156428-4.311644 34.493154-12.7178 9.150612-8.778384 16.533139-21.310069 21.403127-37.81219 1.954198-8.064946 4.652854-14.330789 7.692717-19.324851 3.070883-5.211196 8.064946-7.351509 14.206713-7.351509a19.231794 19.231794 0 0 1 14.889131 7.134376c4.342663 4.683873 6.110748 10.763601 6.110748 18.301223 0 9.491821-1.799103 19.883194-5.366291 30.646796a127.798376 127.798376 0 0 1-17.432691 32.569974c-7.909851 10.763601-18.301224 19.355871-30.18151 26.180056-12.407609 6.451957-26.769417 9.864049-43.488671 9.864049-12.407609 0-23.51242-1.085666-33.593602-4.497758a86.139828 86.139828 0 0 1-27.824064-13.803465 104.534109 104.534109 0 0 1-22.643887-24.722162 156.956258 156.956258 0 0 1-15.819702-31.515328 182.2988 182.2988 0 0 1-9.677935-36.912638 239.715013 239.715013 0 0 1-3.598207-41.9067c0-24.194838 3.039864-45.318793 8.437174-64.519569 5.39731-18.797528 13.121047-35.082515 23.357325-48.513753 10.236278-13.803465 22.271659-23.667515 36.106143-30.832909 13.64837-6.97928 28.382406-10.391373 43.82988-10.391373z m433.801042 125.409912c9.708954 0 17.618805 2.326427 24.629105 6.079729 4.652854 2.512541 8.437174 6.296862 11.663152 10.577487 3.598207 4.497758 6.110748 9.491821 8.064947 15.602568 1.644008 5.7075 2.884769 11.787229 2.884769 18.270205 0 9.677935-2.171332 18.611414-6.110748 27.048588a81.269841 81.269841 0 0 1-11.663153 19.169757c-4.342663 4.652854-10.949715 11.787229-20.658669 21.496183-9.52284 9.83303-15.819702 17.742881-19.573004 23.109173-1.240761 2.326427-2.884769 4.652854-4.652853 7.878831h49.723494c5.025082 0 8.437174 1.612989 11.321944 4.280626 2.512541 2.357446 3.784321 5.738519 3.78432 10.391373a17.308615 17.308615 0 0 1-2.884769 10.050163 11.787229 11.787229 0 0 1-9.336726 4.12553h-70.071974a14.29977 14.29977 0 0 1-10.949715-4.838967 18.301224 18.301224 0 0 1-3.939416-11.663153c0-3.039864 0.527323-6.824185 2.326427-11.632134 1.985217-4.838968 3.784321-8.406155 5.738519-11.290925 8.282079-10.732582 16.005816-20.596632 22.643887-28.475463 6.638071-7.878832 11.321944-13.090028 14.578941-15.416455 5.180177-4.838968 9.491821-9.677935 12.903914-14.144674 3.412093-4.652854 5.924633-9.305707 7.754756-14.330789 1.768084-5.211196 2.481522-9.864049 2.481522-15.044226 0-5.025082-0.899552-9.491821-2.698655-13.431238a22.395735 22.395735 0 0 0-7.723737-9.864049 20.999879 20.999879 0 0 0-10.949715-3.039864c-8.25106 0-14.734036 4.466739-19.573004 13.803465-0.713438 1.054647-1.612989 4.466739-3.070883 9.646916-1.612989 5.583424-3.225978 9.677935-5.366292 12.376591a8.778384 8.778384 0 0 1-7.90985 4.280625 10.081183 10.081183 0 0 1-7.754756-3.722283 19.355871 19.355871 0 0 1-3.225979-11.135829c0-5.366291 0.744457-11.290925 3.070884-17.370653 1.799103-6.079729 4.838968-11.818248 8.809402-16.316007 3.567188-4.838968 8.623289-8.933479 14.361808-12.004362 6.296862-2.85375 13.121047-4.466739 21.403126-4.466739z m-189.681328-77.020235c-9.708954 0-18.332243 2.481522-26.428208 6.97928a55.58609 55.58609 0 0 0-20.844784 20.069308c-5.738519 8.220041-10.391373 19.324852-13.462256 32.942203a175.164425 175.164425 0 0 0-5.211196 45.163698c0 16.998425 1.612989 32.259784 5.211196 46.032231 3.070883 13.431237 7.909851 25.09439 14.020599 34.027869 6.110748 9.150612 13.276142 15.602569 20.999879 20.069308a54.655519 54.655519 0 0 0 59.990791-4.838968c10.236278-7.692718 18.518357-19.69708 24.629105-35.826972 5.738519-16.129892 8.623289-36.168181 8.623288-59.463468 0-21.496183-2.698655-40.66594-8.064946-56.609718-5.769538-15.757664-13.64837-27.94814-24.101781-36.385314a56.144432 56.144432 0 0 0-35.361687-12.159457z m473.691506-185.80395c10.608506 5.211196 12.934933 6.110748 25.683752 13.64837 17.432691 9.646916 23.357325 31.701442 13.121046 48.885981-9.52284 17.370653-31.639404 22.767963-49.010056 13.431237-13.33818-7.134375-10.639525-5.7075-20.875803-10.546468z m-89.272749-26.118018c18.146129 1.768084 24.070762 3.412093 49.568399 10.918696 6.04871 2.016237 9.150612 2.791712 17.432691 6.265843l-29.623167 63.402884a150.56634 150.56634 0 0 0-22.643887-5.893615c-19.231794-3.939416-19.573004-3.970435-33.407488-4.652853-3.598207-0.186114-5.924633-0.186114-9.181631-0.186114z"  /></svg>