<?xml version="1.0" standalone="no"?><!DOCTYPE svg PUBLIC "-//W3C//DTD SVG 1.1//EN" "http://www.w3.org/Graphics/SVG/1.1/DTD/svg11.dtd"><svg t="1576057025352" class="icon" viewBox="0 0 1024 1024" version="1.1" xmlns="http://www.w3.org/2000/svg" p-id="5343" xmlns:xlink="http://www.w3.org/1999/xlink" width="200" height="200"><defs><style type="text/css"></style></defs><path d="M271.78496 996.10112a30.72 30.72 0 0 1-10.94656-2.03264c-8.0384-3.02592-14.4896-9.1392-18.13504-17.23392-7.38304-16.36864-3.34848-39.65952 15.42656-88.97024l0.93184-2.44224 120.76544-322.06336H307.70176c-6.6816 0-13.19424-1.2544-19.3536-3.7376-26.5472-10.61376-39.54176-40.92416-28.92288-67.53792L435.98848 50.65216a51.7632 51.7632 0 0 1 48.27136-32.68096h235.41248c9.41568 0 18.65728 2.56 26.75712 7.41376 24.58112 14.79168 32.54784 46.77632 17.81248 71.33184l-129.32096 215.5264h114.24768c19.9424 0 38.36416 11.66336 46.91456 29.7216a52.15744 52.15744 0 0 1-6.74816 55.18336L347.95008 936.62208c-3.81952 4.69504-15.99488 18.59584-28.93312 31.26272-14.77632 14.464-30.46912 28.21632-47.232 28.21632z m40.2432-487.66464h147.04128l-142.37184 379.66336 426.20928-520.9344h-204.97408l176.54272-294.272H486.24128L312.02816 508.43648z m437.10464-141.27104c0.01024 0 0.01024 0 0 0z m0 0" fill="#070002" p-id="5344"></path></svg>
