<?xml version="1.0" standalone="no"?><!DOCTYPE svg PUBLIC "-//W3C//DTD SVG 1.1//EN" "http://www.w3.org/Graphics/SVG/1.1/DTD/svg11.dtd"><svg t="1603775789137" class="icon" viewBox="0 0 1024 1024" version="1.1" xmlns="http://www.w3.org/2000/svg" p-id="2611" xmlns:xlink="http://www.w3.org/1999/xlink" width="200" height="200"><defs><style type="text/css"></style></defs><path d="M512 0a512 512 0 1 0 512 512 512 512 0 0 0-512-512z m0 69.12a443.072 443.072 0 0 1 378.816 213.952l-125.184 71.744a298.24 298.24 0 0 0-495.04-16.64L155.52 249.6A442.048 442.048 0 0 1 512 69.12zM739.968 512a228.416 228.416 0 0 1-193.28 225.28 227.52 227.52 0 1 1 185.6-284.032 235.968 235.968 0 0 1 7.68 58.752z m-262.4 441.088a442.048 442.048 0 0 1-358.4-644.224l116.544 88.896a298.56 298.56 0 0 0 242.112 410.624v144.704z m69.248 0v-144.704a298.24 298.24 0 0 0 248.448-391.104l126.72-72.768A437.888 437.888 0 0 1 955.072 512a443.072 443.072 0 0 1-408.448 441.088z" p-id="2612"></path><path d="M632.256 443.264a32 32 0 0 0-29.952 8.256l-55.04 54.912-55.36-54.912a30.784 30.784 0 0 0-43.968 0l-76.8 76.8a32 32 0 1 0 43.968 44.096l55.04-55.04 55.04 55.04a32 32 0 0 0 22.016 9.216 30.592 30.592 0 0 0 21.888-9.216l76.8-77.248a31.232 31.232 0 0 0-13.952-52.16z" p-id="2613"></path></svg>