<?xml version="1.0" standalone="no"?><!DOCTYPE svg PUBLIC "-//W3C//DTD SVG 1.1//EN" "http://www.w3.org/Graphics/SVG/1.1/DTD/svg11.dtd"><svg t="1572858873276" class="icon" viewBox="0 0 1024 1024" version="1.1" xmlns="http://www.w3.org/2000/svg" p-id="7156" xmlns:xlink="http://www.w3.org/1999/xlink" width="200" height="200"><defs><style type="text/css"></style></defs><path d="M902.8096 693.39648v-176.3328a35.2512 35.2512 0 0 0-35.27168-35.26656h-317.48608V340.7104h65.51552a40.32 40.32 0 0 0 40.30976-40.32V98.85696a40.32512 40.32512 0 0 0-40.30976-40.31488H414.00832a40.32512 40.32512 0 0 0-40.33024 40.31488v201.52832a40.33024 40.33024 0 0 0 40.33024 40.32512h65.5104V481.792H162.0224a35.26656 35.26656 0 0 0-35.2768 35.26656v177.59232H61.2352a40.31488 40.31488 0 0 0-40.31488 40.31488v201.52832a40.31488 40.31488 0 0 0 40.31488 40.31488h201.5744a40.32 40.32 0 0 0 40.32-40.31488v-201.52832a40.31488 40.31488 0 0 0-40.32-40.31488H197.2992v-142.34112h282.21952v141.08672H414.00832a40.32 40.32 0 0 0-40.33024 40.31488v201.52832a40.32512 40.32512 0 0 0 40.33024 40.31488h201.5488a40.32 40.32 0 0 0 40.32512-40.31488v-201.52832a40.32 40.32 0 0 0-40.32512-40.31488H550.0416v-141.08672h282.22464v141.08672h-65.51552a40.32 40.32 0 0 0-40.31488 40.31488v201.52832a40.32512 40.32512 0 0 0 40.31488 40.31488h201.5744a40.31488 40.31488 0 0 0 40.31488-40.31488v-201.52832a40.30464 40.30464 0 0 0-40.31488-40.31488H902.8096M444.22656 129.08544h141.1072v141.0816h-141.1072V129.08544M232.58112 906.27584H91.4688V765.184h141.11232v141.09184m352.75264-1.2544H444.24704v-141.09184h141.09184v141.09184m352.74752 0h-141.10208v-141.09184h141.10208v141.09184" p-id="7157"></path></svg>
