<?xml version="1.0" standalone="no"?><!DOCTYPE svg PUBLIC "-//W3C//DTD SVG 1.1//EN" "http://www.w3.org/Graphics/SVG/1.1/DTD/svg11.dtd"><svg t="1619148825513" class="icon" viewBox="0 0 1024 1024" version="1.1" xmlns="http://www.w3.org/2000/svg" p-id="6905" xmlns:xlink="http://www.w3.org/1999/xlink" width="200" height="200"><defs><style type="text/css"></style></defs><path d="M511.983059 226.89673c21.200916 0 38.392002-17.233743 38.392002-38.477317V38.477317a38.306686 38.306686 0 1 0-76.784003 0v149.942096c0 21.243574 17.191085 38.434659 38.392001 38.477317z m246.817913 142.903562a38.264028 38.264028 0 0 0 52.383754 13.906436l129.466361-74.992377a38.519975 38.519975 0 0 0 14.205041-52.341095 38.434659 38.434659 0 0 0-52.469069-14.077068l-129.466362 74.992377a38.605291 38.605291 0 0 0-14.119725 52.469069zM654.460043 265.075443a38.392002 38.392002 0 0 0 52.426412-14.077068l74.779087-129.764965a38.562633 38.562633 0 0 0-33.273068-57.758634 38.392002 38.392002 0 0 0-33.23041 19.238659L640.382976 212.649031a38.519975 38.519975 0 0 0 14.077067 52.554385v-0.085316z m173.361217 513.514351h-44.065487v-218.322516c-0.127973-150.283358-121.404041-272.156634-271.303478-272.711186h-0.341262c-149.85678 0.554551-271.175505 122.214539-271.644741 272.455239v218.663778H196.187517a122.427828 122.427828 0 0 0-119.484441 122.513143A122.427828 122.427828 0 0 0 196.144859 1023.786711h631.676401a122.427828 122.427828 0 0 0 119.484441-122.555801 122.427828 122.427828 0 0 0-119.484441-122.513143v-0.085315z m-315.795543-413.865778a195.799208 195.799208 0 0 1 194.775422 195.500604v218.62112h-389.892106v-218.62112a196.225786 196.225786 0 0 1 195.116684-195.500604z m315.795543 581.980087H196.187517a45.473193 45.473193 0 0 1-40.780837-22.267361c-8.531556-14.375672-8.531556-32.206624 0-46.582295 8.488898-14.333014 24.144303-22.907228 40.780837-22.267361h631.633743a45.558509 45.558509 0 0 1 43.809539 45.558509c0 24.528223-19.366632 44.662695-43.809539 45.558508zM317.079664 251.083691a38.392002 38.392002 0 1 0 66.460821-38.392002L308.761397 82.79875a38.392002 38.392002 0 1 0-66.46082 38.477317L317.037007 251.083691zM83.272374 308.799667l129.423704 74.949719a38.477317 38.477317 0 0 0 29.177921 3.8392 38.434659 38.434659 0 0 0 9.21408-70.470652L121.664376 242.125557a38.349344 38.349344 0 0 0-52.469069 14.077067 38.519975 38.519975 0 0 0 14.077067 52.597043z" p-id="6906"></path></svg>