<?xml version="1.0" standalone="no"?><!DOCTYPE svg PUBLIC "-//W3C//DTD SVG 1.1//EN" "http://www.w3.org/Graphics/SVG/1.1/DTD/svg11.dtd"><svg class="icon" width="200px" height="200.00px" viewBox="0 0 1024 1024" version="1.1" xmlns="http://www.w3.org/2000/svg"><path fill="#ffffff" d="M320 204.8a128 128 0 0 1 128 128v243.136L691.2 576a128 128 0 0 1 128 128v192a128 128 0 0 1-128 128H128a128 128 0 0 1-128-128V332.8a128 128 0 0 1 128-128h192z m0.832 448H127.04l-6.016 0.448a51.2 51.2 0 0 0-43.84 44.352L76.8 704v192a51.2 51.2 0 0 0 44.8 50.816l6.4 0.384h192a51.2 51.2 0 0 0 50.816-44.8L371.2 896v-192a51.2 51.2 0 0 0-44.8-50.816l-5.568-0.384z m370.368 0h-192a51.2 51.2 0 0 0-50.816 44.8L448 703.104v193.792l0.448 6.08a51.2 51.2 0 0 0 44.352 43.84l6.4 0.384h192a51.2 51.2 0 0 0 50.816-44.8l0.384-6.4v-192a51.2 51.2 0 0 0-44.8-50.816l-6.4-0.384zM320 281.6H128a51.2 51.2 0 0 0-50.816 44.8l-0.384 6.4v192a51.2 51.2 0 0 0 44.8 50.816L128 576h192a51.2 51.2 0 0 0 50.816-44.8l0.384-6.4v-192a51.2 51.2 0 0 0-44.8-50.816L320 281.6zM896 0a128 128 0 0 1 128 128v192a128 128 0 0 1-128 128h-192a128 128 0 0 1-128-128V128a128 128 0 0 1 128-128h192z m0 76.8h-192a51.2 51.2 0 0 0-50.816 44.8L652.8 128v192a51.2 51.2 0 0 0 44.8 50.816l6.4 0.384h192a51.2 51.2 0 0 0 50.816-44.8L947.2 320V128a51.2 51.2 0 0 0-44.8-50.816L896 76.8zM844.8 192v76.8H768V192h76.8z" /></svg>