<?xml version="1.0" standalone="no"?><!DOCTYPE svg PUBLIC "-//W3C//DTD SVG 1.1//EN" "http://www.w3.org/Graphics/SVG/1.1/DTD/svg11.dtd"><svg class="icon" width="200px" height="183.35px" viewBox="0 0 1117 1024" version="1.1" xmlns="http://www.w3.org/2000/svg"><path d="M632.227085 208.014626c15.818178 0 27.914432 12.28235 27.914432 28.379673v156.506916c0 203.030969 46.989294 406.061939 135.571092 587.598795a30.333683 30.333683 0 0 1 2.558823 23.773791 27.588764 27.588764 0 0 1-13.491976 16.469515 34.334751 34.334751 0 0 1-13.026735 2.837968H250.869418c-15.818178 0-27.914432-12.328874-27.914432-28.472721 0-16.097323 12.096254-28.426197 27.914432-28.426197h476.54588a1409.864917 1409.864917 0 0 1-122.823501-545.308431H353.222336c-15.818178 0-27.914432-12.328874-27.914432-28.47272 0-16.097323 12.096254-28.426197 27.914432-28.426197l251.090317-0.046524v-99.561475H167.21917c-15.818178 0-27.914432-12.328874-27.914432-28.426196 0-16.143847 12.096254-28.472721 27.914432-28.472721h465.054439z m313.432548 189.632042c15.818178 0 27.914432 12.328874 27.914432 28.472721l0.046524 109.471098a30.705875 30.705875 0 0 1 0.093048 13.771119l-0.186096-6.606415c0 146.085528 32.799458 292.171056 94.164684 423.927175h20.237964c15.818178 0 27.914432 12.328874 27.914432 28.426197 0 16.143847-12.096254 28.472721-27.914432 28.472721h-195.307977c-15.818178 0-27.914432-12.328874-27.914432-28.472721 0-16.097323 12.096254-28.426197 27.914432-28.426197h113.983931a1059.585318 1059.585318 0 0 1-88.48875-395.454454h-157.530445c-15.818178 0-27.914432-12.328874-27.914432-28.472721 0-16.097323 12.096254-28.426197 27.914432-28.426197l157.111729-0.046524 0.046524-59.736885h-192.516533c-15.818178 0-27.914432-12.328874-27.914432-28.426196 0-16.143847 12.096254-28.472721 27.914432-28.472721h220.430965zM167.172646 364.475018c15.818178 0 27.914432 12.328874 27.914432 28.426197 0 212.428828-49.315497 424.90418-142.270555 615.513227a28.147052 28.147052 0 0 1-37.219243 12.328874 27.54224 27.54224 0 0 1-12.096254-37.963627c88.395702-183.025626 135.803712-386.894029 135.803712-589.878474 0-16.097323 12.096254-28.426197 27.914432-28.426197z m763.59929-147.016009a37.684483 37.684483 0 0 0 53.967902 0 26.611759 26.611759 0 0 1 39.033681 0 27.914432 27.914432 0 0 1 0 39.82459c-17.67914 18.051333-41.871648 27.495716-66.064156 27.495715-24.192508 0-48.338492-9.444383-66.017632-27.449191a37.684483 37.684483 0 0 0-53.967902 0 26.611759 26.611759 0 0 1-39.033681 0 27.914432 27.914432 0 0 1 0-39.871114 92.443294 92.443294 0 0 1 132.081788 0zM529.920691 18.33606c15.818178 0 27.914432 12.28235 27.914432 28.379673 0 16.143847-12.096254 28.472721-27.914432 28.47272h-83.743296c-55.78234 0-108.773237 31.310688-136.687669 80.626185a27.914432 27.914432 0 0 1-24.192508 14.23636c-4.652405 0-9.304811-0.930481-13.957216-3.814972a29.356678 29.356678 0 0 1-10.235292-38.847585A213.312785 213.312785 0 0 1 446.270443 18.289536h83.696772z m205.543268 9.444383a37.684483 37.684483 0 0 0 53.967902 0 92.443294 92.443294 0 0 1 132.035264 0 37.684483 37.684483 0 0 0 53.967902 0 26.611759 26.611759 0 0 1 39.033681 0 27.914432 27.914432 0 0 1 0 39.82459c-17.67914 18.051333-41.871648 27.54224-66.064156 27.542239-24.192508 0-48.338492-9.490907-66.017632-27.542239a37.684483 37.684483 0 0 0-53.967902 0 92.443294 92.443294 0 0 1-132.035264 0 37.684483 37.684483 0 0 0-53.967902 0 26.611759 26.611759 0 0 1-39.03368 0 27.914432 27.914432 0 0 1 0-39.82459 92.443294 92.443294 0 0 1 132.081787 0zM1107.470291 24.989l3.721924 3.721924 2.791444 4.791977 1.860962 5.675935c0 1.860962 0.930481 3.768448 0.930481 5.675934a26.05347 26.05347 0 0 1-8.37433 19.912295 24.471652 24.471652 0 0 1-20.470583 10.421388c-1.860962 0-3.721924 0-5.582887-0.930481a13.026735 13.026735 0 0 1-5.582886-1.860962l-2.326203-1.442246-2.326203-1.395721c-1.860962-0.977005-2.791443-1.95401-4.652405-3.814973l-3.721924-3.814972-2.791443-4.745453c-0.930481-1.860962-0.930481-3.768448-1.860963-5.675935l-0.930481-5.675934c0-1.907486 0-3.814972 0.930481-5.722459 0-1.860962 0.930481-3.768448 1.860963-5.675935l1.395721-2.372726 1.395722-2.372727c0.930481-1.860962 1.860962-2.837967 3.721924-3.814972l4.652405-3.768449c1.860962-0.930481 2.791443-1.860962 4.652406-2.837967l5.582886-1.907486c9.304811-1.860962 18.609621 0.930481 25.122989 7.583421z" /></svg>