<?xml version="1.0" standalone="no"?><!DOCTYPE svg PUBLIC "-//W3C//DTD SVG 1.1//EN" "http://www.w3.org/Graphics/SVG/1.1/DTD/svg11.dtd"><svg class="icon" width="200px" height="200.00px" viewBox="0 0 1024 1024" version="1.1" xmlns="http://www.w3.org/2000/svg"><path fill="#ffffff" d="M801.623919 353.620719h-20.222989V274.162292C781.40093 122.976251 660.574971 0 512 0 363.476226 0 242.547873 122.976251 242.547873 274.162292v79.458427h-20.171792c-75.669817 0.102395-136.953152 62.460877-137.00435 139.461827v391.506825c0 76.79616 61.436928 139.359432 137.00435 139.359432h579.247838c75.618619-0.102395 136.901955-62.460877 137.00435-139.41063V493.031348c-0.051197-76.949753-61.385731-139.308235-137.00435-139.410629zM318.012899 274.162292C318.012899 165.316534 405.048548 76.79616 512 76.79616c107.00265 0 193.935903 88.520374 193.935903 197.366132v79.458427H317.961702V274.162292zM863.214439 884.538173c0 34.507075-27.646618 62.614469-61.539323 62.614469H222.376081a62.20489 62.20489 0 0 1-61.539323-62.614469V493.031348c0-34.558272 27.646618-62.665667 61.539323-62.665666h579.247838c33.943903 0 61.539323 28.107395 61.539323 62.665666v391.506825z m-288.087995-236.788161c0 18.687066-8.140393 35.172641-20.632569 46.896856v54.166891c0 23.858007-18.99425 43.159442-42.442678 43.159442a42.80106 42.80106 0 0 1-42.442677-43.159442v-54.166891a63.843208 63.843208 0 0 1-20.632569-46.896856c0-22.936453 11.980201-44.132193 31.537623-55.600419a62.153692 62.153692 0 0 1 63.075247 0c19.557422 11.468227 31.537623 32.663967 31.537623 55.600419z"  /></svg>