<?xml version="1.0" standalone="no"?><!DOCTYPE svg PUBLIC "-//W3C//DTD SVG 1.1//EN" "http://www.w3.org/Graphics/SVG/1.1/DTD/svg11.dtd"><svg class="icon" width="200px" height="200.00px" viewBox="0 0 1024 1024" version="1.1" xmlns="http://www.w3.org/2000/svg"><path fill="#ffffff" d="M580.74144 37.632c5.376 13.824 6.208 28.928 2.688 43.2l-2.688 8.448V405.12c12.8-7.36 27.52-10.24 41.984-8.32l8.576 1.792 309.696 64.448c34.112 12.352 55.104 47.232 50.432 83.84a93.824 93.824 0 0 1-23.68 32.448l-7.936 6.272v341.632a98.432 98.432 0 0 1-85.76 96l-8.96 0.704H169.98944a98.112 98.112 0 0 1-94.272-87.488l-0.64-9.216V314.88a64.192 64.192 0 0 1-37.824-32.192C24.58144 252.8 35.84544 218.56 62.46944 202.24l6.4-3.456L498.30944 5.44a62.272 62.272 0 0 1 82.432 32.192zM517.57344 134.4L138.43744 302.08v625.28a30.72 30.72 0 0 0 8.64 23.424 29.504 29.504 0 0 0 17.92 8.704l5.056 0.128h94.72v-193.792h126.4v193.792h94.72a29.44 29.44 0 0 0 23.04-8.832 30.592 30.592 0 0 0 8.512-18.24l0.128-5.12V134.4z m63.168 380.352v444.8h126.336V830.72h63.232v128.896h94.72a29.44 29.44 0 0 0 22.976-8.832 30.592 30.592 0 0 0 8.512-18.24l0.128-5.12 0.448-322.304-0.448-24.576-315.904-65.792z m189.568 207.68v42.432h-63.232v-42.432h63.232zM362.11744 349.76c4.48 0 8.96 2.368 11.136 7.36 2.176 2.56 4.352 7.36 2.176 12.288l-40.192 118.08H410.94944c4.48 0 8.96 2.56 13.504 9.92 2.304 4.992 2.304 9.792-2.176 14.72l-158.208 221.632H257.34944c-2.176 0-2.176-2.56-2.176-4.992l57.92-169.792H248.38944a12.032 12.032 0 0 1-11.2-7.36c-2.176-2.56-4.352-7.424-2.176-12.352l62.4-179.776c0-4.8 6.656-9.728 11.136-9.728z m408.192 287.04v42.752h-63.232V636.8h63.232z" /></svg>