<?xml version="1.0" encoding="UTF-8"?>
<svg width="21px" height="24px" viewBox="0 0 21 24" version="1.1" xmlns="http://www.w3.org/2000/svg" xmlns:xlink="http://www.w3.org/1999/xlink">
    <title>形状</title>
    <g id="页面-1" stroke="none" stroke-width="1" fill="none" fill-rule="evenodd">
        <g id="组件" transform="translate(-1577.000000, -2064.000000)" fill="#F5222D" fill-rule="nonzero">
            <g id="编组-11" transform="translate(1511.000000, 1984.000000)">
                <g id="编组-20" transform="translate(24.000000, 56.000000)">
                    <g id="编组-10" transform="translate(8.000000, 16.000000)">
                        <path d="M44.4997213,13.3190139 C44.9966633,13.3190139 45.3995145,12.9151195 45.3995145,12.4168904 L45.3995145,8.90212354 C45.3995145,8.57982585 45.2280149,8.28201049 44.9496179,8.12086164 C44.6712209,7.95971279 44.3282216,7.95971279 44.0498246,8.12086164 C43.7714276,8.28201049 43.599928,8.57982585 43.599928,8.90212354 L43.599928,12.4168904 C43.6007323,12.9147851 44.0031127,13.3182076 44.4997213,13.3190139 L44.4997213,13.3190139 Z M50.2855669,16.6682939 C50.4052134,16.8745868 50.6017429,17.0247365 50.83187,17.0856725 C50.9081308,17.1059581 50.9866833,17.1162948 51.0655825,17.1164267 C51.2231516,17.1163752 51.377889,17.0744323 51.5140184,16.9948743 L54.5493598,15.2374909 C54.9780353,14.9897897 55.126811,14.4415577 54.8824001,14.0102514 C54.6326149,13.579943 54.0830709,13.4327131 53.652488,13.680742 L50.6171466,15.4381255 C50.1879462,15.6869427 50.0397915,16.2366002 50.2855669,16.6682939 L50.2855669,16.6682939 Z M47.8403496,14.2152795 C48.2704932,14.4631766 48.8195854,14.3158928 49.0688011,13.8857701 L50.821645,10.8425678 C50.9823776,10.5634349 50.9823697,10.2195337 50.8216243,9.94040829 C50.660879,9.66128288 50.3638171,9.48934652 50.0423391,9.48934652 C49.7208612,9.48934652 49.4238072,9.66131143 49.2630746,9.94044426 L47.5102307,12.9851111 C47.262358,13.4166386 47.4101182,13.9679138 47.8403496,14.216744 L47.8403496,14.2152795 Z M51.9040262,26.2533561 L50.8713089,26.2533561 L50.8713089,21.1349768 C50.8681127,17.6121184 48.0251462,14.754588 44.5114069,14.7424945 L44.5026427,14.7424945 C40.9899881,14.7545565 38.1458565,17.6073621 38.1354371,21.1291189 L38.1354371,26.2548206 L37.0968771,26.2548206 C35.5396904,26.2900737 34.2956742,27.5657929 34.2956742,29.1274103 C34.2956742,30.6890277 35.5396904,31.9647469 37.0968771,32 L51.9040262,32 C53.4612128,31.9647469 54.705229,30.6890277 54.705229,29.1274103 C54.705229,27.5657929 53.4612128,26.2900737 51.9040262,26.2548206 L51.9040262,26.2533561 Z M44.501182,16.551135 C47.0207133,16.5607846 49.0601325,18.6074478 49.0673404,21.1335123 L49.0673404,26.2592141 L39.92772,26.2592141 L39.92772,21.1335123 C39.940516,18.6069266 41.981115,16.5623497 44.501182,16.551135 L44.501182,16.551135 Z M51.9040262,30.1942885 L37.0968771,30.1942885 C36.7067712,30.2087718 36.3399542,30.0083738 36.1406115,29.6718653 C35.9412687,29.3353568 35.9412687,28.9165348 36.1406115,28.5800263 C36.3399542,28.2435178 36.7067712,28.0431198 37.0968771,28.0576031 L51.9040262,28.0576031 C52.477187,28.0788826 52.9308803,28.5509067 52.9308803,29.1259458 C52.9308803,29.7009849 52.477187,30.173009 51.9040262,30.1942885 L51.9040262,30.1942885 Z M39.9306414,13.8857701 C40.0863422,14.174373 40.3860596,14.3554613 40.7133125,14.3587006 C41.0405654,14.3618539 41.3437447,14.1866542 41.505024,13.9011473 C41.6663033,13.6156404 41.6602481,13.264852 41.4892118,12.9851111 L39.7363679,9.94190875 C39.5756353,9.66277593 39.2785814,9.49081104 38.9571034,9.49081104 C38.6356254,9.49081104 38.3385636,9.66274739 38.1778182,9.94187279 C38.0170728,10.2209982 38.0170649,10.5648994 38.1777975,10.8440323 L39.9306414,13.8857701 Z M34.4500827,15.2389554 L37.4854241,16.9963388 C37.6219337,17.0748081 37.7765054,17.1162013 37.93386,17.1164267 C38.0132397,17.1162907 38.0922746,17.1059551 38.1690333,17.0856725 C38.5200435,16.9907692 38.7796048,16.6934163 38.8268993,16.3320225 C38.8741937,15.9706288 38.6999279,15.6162078 38.3852173,15.433732 L35.3498759,13.6763486 C34.9194886,13.4272341 34.3691652,13.5750883 34.1206942,14.0065902 C33.8722231,14.4380922 34.0196954,14.9898408 34.4500827,15.2389554 L34.4500827,15.2389554 Z" id="形状"></path>
                    </g>
                </g>
            </g>
        </g>
    </g>
</svg>