<?xml version="1.0" standalone="no"?><!DOCTYPE svg PUBLIC "-//W3C//DTD SVG 1.1//EN" "http://www.w3.org/Graphics/SVG/1.1/DTD/svg11.dtd"><svg class="icon" width="200px" height="200.00px" viewBox="0 0 1024 1024" version="1.1" xmlns="http://www.w3.org/2000/svg"><path fill="#ffffff" d="M75.093333 704.785067a40.96 40.96 0 0 1 40.891734 40.96v101.034666l0.546133 5.5296a27.306667 27.306667 0 0 0 26.692267 21.845334h102.741333l6.621867 0.477866a40.96 40.96 0 0 1-6.621867 81.442134H143.223467l-9.898667-0.477867A109.226667 109.226667 0 0 1 34.133333 846.848v-101.034667l0.546134-6.690133a40.96 40.96 0 0 1 40.3456-34.338133z m873.813334 0a40.96 40.96 0 0 1 40.413866 34.338133l0.546134 6.621867v101.034666a109.226667 109.226667 0 0 1-99.191467 108.817067l-9.898667 0.477867h-102.741333a40.96 40.96 0 0 1-6.621867-81.442134l6.621867-0.477866h102.741333a27.306667 27.306667 0 0 0 26.692267-21.845334l0.546133-5.461333v-101.034667a40.96 40.96 0 0 1 40.96-40.96zM785.066667 136.533333a68.266667 68.266667 0 0 1 68.266666 68.266667v546.133333a68.266667 68.266667 0 0 1-68.266666 68.266667H238.933333a68.266667 68.266667 0 0 1-68.266666-68.266667V204.8a68.266667 68.266667 0 0 1 68.266666-68.266667h546.133334zM703.146667 218.453333H320.853333a68.266667 68.266667 0 0 0-68.266666 68.266667v382.293333a68.266667 68.266667 0 0 0 68.266666 68.266667h382.293334a68.266667 68.266667 0 0 0 68.266666-68.266667V286.72a68.266667 68.266667 0 0 0-68.266666-68.266667zM245.9648 0A40.96 40.96 0 0 1 252.586667 81.373867l-6.621867 0.546133H143.223467a27.306667 27.306667 0 0 0-26.692267 21.845333l-0.546133 5.461334v101.034666a40.96 40.96 0 0 1-81.3056 6.690134L34.133333 210.261333V109.226667A109.226667 109.226667 0 0 1 133.3248 0.477867L143.223467 0h102.741333z m634.811733 0l9.898667 0.477867A109.226667 109.226667 0 0 1 989.866667 109.226667v101.034666l-0.546134 6.690134a40.96 40.96 0 0 1-81.237333-6.690134V109.226667l-0.6144-5.461334a27.306667 27.306667 0 0 0-26.692267-21.845333h-102.741333l-6.621867-0.546133A40.96 40.96 0 0 1 778.0352 0h102.741333z" /></svg>