<?xml version="1.0" standalone="no"?><!DOCTYPE svg PUBLIC "-//W3C//DTD SVG 1.1//EN" "http://www.w3.org/Graphics/SVG/1.1/DTD/svg11.dtd"><svg class="icon" width="200px" height="200.00px" viewBox="0 0 1024 1024" version="1.1" xmlns="http://www.w3.org/2000/svg"><path fill="#ffffff" d="M245.9648 0A40.96 40.96 0 0 1 252.586667 81.373867l-6.621867 0.546133H143.223467a27.306667 27.306667 0 0 0-26.692267 21.845333l-0.546133 5.461334v101.034666a40.96 40.96 0 0 1-81.3056 6.690134L34.133333 210.261333V109.226667A109.226667 109.226667 0 0 1 133.3248 0.477867L143.223467 0h102.741333z m532.0704 0a40.96 40.96 0 0 0-6.621867 81.373867l6.621867 0.546133h102.741333a27.306667 27.306667 0 0 1 26.692267 21.845333l0.546133 5.461334v101.034666a40.96 40.96 0 0 0 81.3056 6.690134L989.866667 210.261333V109.226667A109.226667 109.226667 0 0 0 890.6752 0.477867L880.776533 0h-102.741333zM245.9648 956.074667a40.96 40.96 0 0 0 6.621867-81.442134l-6.621867-0.477866H143.223467a27.306667 27.306667 0 0 1-26.692267-21.845334l-0.546133-5.461333v-101.034667a40.96 40.96 0 0 0-81.3056-6.690133L34.133333 745.745067v101.034666a109.226667 109.226667 0 0 0 99.191467 108.817067l9.898667 0.477867h102.741333z m532.0704 0a40.96 40.96 0 0 1-6.621867-81.442134l6.621867-0.477866h102.741333a27.306667 27.306667 0 0 0 26.692267-21.845334l0.546133-5.461333v-101.034667a40.96 40.96 0 0 1 81.3056-6.690133l0.546134 6.621867v101.034666a109.226667 109.226667 0 0 1-99.191467 108.817067l-9.898667 0.477867h-102.741333z" /></svg>