<?xml version="1.0" standalone="no"?><!DOCTYPE svg PUBLIC "-//W3C//DTD SVG 1.1//EN" "http://www.w3.org/Graphics/SVG/1.1/DTD/svg11.dtd"><svg class="icon" width="200px" height="200.00px" viewBox="0 0 1024 1024" version="1.1" xmlns="http://www.w3.org/2000/svg"><path fill="#ffffff" d="M511.573138 0c55.773319 6.282351 91.070826 60.240769 138.537481 85.160763 53.190575 8.097253 112.686769-14.798428 162.014861 12.983526 41.277375 38.392147 38.461951 101.913699 62.334886 150.171465 34.715808 31.179077 79.041287 49.956327 111.313958 84.136972 33.785089 41.114499 0.791111 93.816447-12.47163 136.536435-20.196596 31.690972-9.679475 63.591356 2.792156 95.072917l3.792679 9.423527c4.397646 11.005749 8.678952 21.941694 11.633984 32.807835 17.311368 36.879729 10.30771 83.671613-26.921039 104.845463-30.760254 30.294894-84.835011 40.974891-97.841805 85.626122-3.164444 21.080779-15.496467 52.259856-42.417506 44.627963-27.59581-7.050194-22.383785-41.207571-12.913722-60.7992 14.263264-63.89384 85.30037-80.832921 126.926765-121.83108 16.287578-25.362085-18.218819-68.756845-23.966007-99.935923-19.00993-37.624304-7.957645-74.08521 5.863528-110.336703l4.420914-11.447841c7.422482-19.056466 14.821696-38.089663 18.218819-57.239201-1.60549-30.248358-55.098548-44.837374-78.040765-66.802336-37.368356-19.12627-49.839987-55.145084-60.008089-92.653048l-3.141176-11.866663c-5.235293-19.801041-10.470586-39.555545-18.986662-57.053058-19.00993-23.454112-70.920766-3.862483-102.379058-8.097253-67.756323 10.470586-108.242587-54.167829-161.409894-82.55475-29.2013-7.701697-59.728874 38.508487-87.673703 53.632666-31.458293 31.225613-71.944557 30.411234-112.756572 28.154241l-12.238952-0.698039c-18.381695-1.023791-36.600514-1.72183-53.958417 0.698039-16.357381 6.282351-22.337249 27.781954-27.223523 50.305347l-2.024313 9.656207c-2.722352 12.867186-5.49124 25.408621-10.098298 34.971756-11.098821 67.989002-84.951351 86.207821-128.276307 128.090163-16.287578 25.385353 18.218819 68.756845 23.966007 99.95919 21.010975 41.510055 5.235293 81.647299-10.354246 121.691472l-4.420914 11.44784c-5.770456 15.263787-11.052285 30.527574-13.728101 45.837897 1.698562 30.178554 55.098548 44.860642 78.040765 66.732532 60.962076 31.318685 55.796587 107.498012 82.135926 161.689109 19.00993 23.454112 70.920766 3.862483 102.379059 8.073985 67.756323-10.586925 108.242587 54.098025 161.409894 82.415143 18.149015 4.863005 36.949533-11.424572 55.307959-28.014634l7.32941-6.608103c8.492808-7.608626 16.869277-14.65882 25.013066-19.079733 35.413847-33.505874 80.902724-32.016724 126.414869-30.713718l13.006795 0.302484c19.452021 0.395555 38.764435 0.139608 57.076325-3.56 28.619601-10.330978 50.351883 33.040514 24.896725 49.886524-51.236065 20.941171-109.289645 3.536731-162.875775 13.332545-47.769138 24.826922-82.717626 78.31998-138.700357 84.811743-56.075803-6.515031-90.977755-59.984821-138.677088-84.811743-53.167307-8.073985-112.663501 14.798428-161.991593-12.983526-41.277375-38.392147-38.461951-101.913699-62.311618-150.171465-13.332546-13.146402-29.457247-23.710059-45.837897-34.064305l-12.262219-7.748233C63.96724 717.118771 38.535351 699.202436 25.179537 670.024404c-6.212547-31.388489 3.792679-60.822468 15.287055-90.070304l5.351633-13.495421c7.143266-18.009407 13.984049-36.06535 17.125224-54.563385-9.05124-53.167307-48.746393-102.611739-37.763912-158.152378 23.640255-51.561817 85.044423-67.965734 123.390034-105.776182 23.872935-48.257765 20.941171-111.802586 62.334886-150.171465 49.328092-27.898294 108.707946-4.979345 161.991593-12.983526C420.64192 59.868481 455.4508 6.515031 511.573138 0z m113.01252 549.705742c51.561817 0 94.072394 42.813061 94.072395 94.700629 0 51.934104-42.510577 94.747165-94.072395 94.747166-51.585085 0-94.095662-42.813061-94.095662-94.723898s42.394238-94.723897 94.095662-94.723897z m-253.015883 74.038674c7.492286-0.11634 14.728624 2.792156 20.103525 8.027449 0.23268 0.23268 0.395555 0.465359 0.558431 0.698039a28.549797 28.549797 0 0 1-0.535163 40.207048l-39.951101 40.183781-0.558432 0.558431a28.107705 28.107705 0 0 1-39.9511-0.558431 28.549797 28.549797 0 0 1 0.581699-40.207049l39.904565-40.30012c5.212025-5.398169 12.332023-8.492808 19.847576-8.609148z m253.015883-17.241564a37.414892 37.414892 0 0 0-37.694108 37.926787c0 21.290191 16.520257 37.90352 37.694108 37.90352 21.127315 0 37.67084-16.636597 37.670841-37.926788 0-21.266923-16.520257-37.926788-37.694108-37.926787z m66.546389-304.414825c7.492286-0.093072 14.728624 2.792156 20.080256 8.050717l0.698039 0.558432a28.549797 28.549797 0 0 1-0.558431 40.207048L458.31276 605.595401l-0.558431 0.558431a28.130973 28.130973 0 0 1-39.927833-0.558431 28.549797 28.549797 0 0 1 0.558431-40.183781L671.28447 310.697176a28.154241 28.154241 0 0 1 19.847577-8.609149zM398.583886 284.334568c51.678157 0 94.095662 42.813061 94.095662 94.747165 0 51.887568-42.510577 94.700629-94.095662 94.70063-51.585085 0-94.095662-42.813061-94.095662-94.70063 0-51.934104 42.417506-94.747165 94.095662-94.747165z m0 56.936717c-21.127315 0-37.694108 16.636597-37.694108 37.926788 0 21.290191 16.566793 37.926788 37.694108 37.926788 21.150583 0 37.694108-16.636597 37.694108-37.926788 0-21.313459-16.543525-37.926788-37.694108-37.926788z"  /></svg>