<?xml version="1.0" standalone="no"?><!DOCTYPE svg PUBLIC "-//W3C//DTD SVG 1.1//EN" "http://www.w3.org/Graphics/SVG/1.1/DTD/svg11.dtd"><svg t="1590377404173" class="icon" viewBox="0 0 1024 1024" version="1.1" xmlns="http://www.w3.org/2000/svg" p-id="3221" xmlns:xlink="http://www.w3.org/1999/xlink" width="200" height="200"><defs><style type="text/css"></style></defs><path d="M939.29472 91.76064v510.28992c0 30.61248-7.2704 61.04064-21.76512 91.29984-14.5408 30.34624-33.52064 59.648-57.04192 88.12032-23.50592 28.42624-50.36544 55.36768-80.5376 80.75264-30.208 25.42592-60.82048 48.06656-91.8528 67.9168-31.08352 19.90144-61.2608 36.44416-90.56256 49.59744-29.29664 13.14304-54.98368 22.15424-77.056 27.07456l-10.45504 1.82784-9.5744-1.82784c-22.64576-4.92032-48.89088-13.93152-78.80704-27.07456-29.90592-13.14816-60.94848-29.696-93.16352-49.59744-32.22528-19.85024-63.82592-42.49088-94.91456-67.9168-31.04256-25.38496-58.77248-52.33152-83.15392-80.75264-24.38144-28.47232-44.10368-57.77408-59.1616-88.12032-15.1552-30.2592-22.68672-60.69248-22.68672-91.29984V91.76064l35.70176-5.5296 400.5376-78.92992 408.37632 78.93504 26.11712 5.52448z m-434.36544-10.58304l-4.82816-0.9984-343.76704 61.60896v321.95072h348.5952V81.1776z m346.59328 382.56128H504.92928v458.2656c22.29248-5.39648 46.5408-13.63456 72.75008-24.73472a645.67296 645.67296 0 0 0 77.54752-39.35232 693.4272 693.4272 0 0 0 73.74336-50.4576c23.64416-18.49856 44.4928-38.4 62.73536-59.60704 18.2016-21.15584 32.70144-43.1872 43.53536-66.08384 10.88512-22.8608 16.28672-46.1056 16.28672-69.66272V463.73888z m0 0" p-id="3222"></path></svg>