<?xml version="1.0" standalone="no"?><!DOCTYPE svg PUBLIC "-//W3C//DTD SVG 1.1//EN" "http://www.w3.org/Graphics/SVG/1.1/DTD/svg11.dtd"><svg t="1586762900914" class="icon" viewBox="0 0 1024 1024" version="1.1" xmlns="http://www.w3.org/2000/svg" p-id="2740" xmlns:xlink="http://www.w3.org/1999/xlink" width="200" height="200"><defs><style type="text/css"></style></defs><path d="M645.88288 866.41152c14.37184 0 23.95648-9.57952 23.95648-19.16416l33.536-527.02208c0-14.37696-9.57952-23.9616-19.15904-23.9616-14.37696 0-23.9616 9.58976-23.9616 19.1744l-33.536 527.02208c0 14.37184 9.57952 23.95136 19.16416 23.95136z m0 0M387.16416 866.41152c14.37184 0 23.95648-9.57952 19.16928-23.95136l-33.536-527.02208c0-14.38208-9.58464-23.9616-23.9616-19.1744-9.57952 0-19.15904 9.58976-19.15904 19.1744l33.536 527.02208c-0.00512 14.37184 9.57952 23.95136 23.95136 23.95136z m0 0" p-id="2741"></path><path d="M516.52096 866.41152c14.37696 0 23.9616-9.57952 23.9616-23.95136V315.43808c0-14.38208-9.58464-23.9616-23.9616-23.9616-14.37184 0-23.95648 9.57952-23.95648 23.9616v527.02208c0 14.37184 9.58464 23.95136 23.95648 23.95136z m0 0" p-id="2742"></path><path d="M890.23488 162.11456h-220.39552V71.08608a42.94144 42.94144 0 0 0-43.12064-43.12064H406.32832a42.94144 42.94144 0 0 0-43.12064 43.12064v86.24128H142.81216c-14.37184 4.7872-23.95136 14.37184-23.95136 23.95136 0 14.37696 9.58464 23.9616 23.95136 23.9616h43.12064l43.12064 704.29184c4.79232 47.91296 38.32832 86.24128 86.23616 86.24128h397.66528c47.90784 0 81.44384-38.3232 86.24128-86.24128l43.12064-704.29184h43.12064c19.15904 0 28.7488-9.58976 28.7488-23.9616 0.00512-9.57952-9.58464-19.16416-23.95136-19.16416zM406.32832 71.08608h220.3904v86.24128H406.32832V71.08608z m354.53952 838.4512c-4.79232 23.9616-19.15904 43.12064-43.12064 43.12064H320.08192c-23.95136 0-38.32832-19.15904-43.12064-43.12064L229.05344 205.24032H803.9936l-43.12576 704.29696z m0 0" p-id="2743"></path></svg>