<?xml version="1.0" standalone="no"?><!DOCTYPE svg PUBLIC "-//W3C//DTD SVG 1.1//EN" "http://www.w3.org/Graphics/SVG/1.1/DTD/svg11.dtd"><svg class="icon" width="200px" height="200.00px" viewBox="0 0 1024 1024" version="1.1" xmlns="http://www.w3.org/2000/svg"><path fill="#ffffff" d="M512 0a512 512 0 1 1 0 1024A512 512 0 0 1 512 0z m0 76.8a435.2 435.2 0 1 0 0 870.4A435.2 435.2 0 0 0 512 76.8z m0 115.52a38.4 38.4 0 0 1 37.888 32.128l0.512 6.272v261.76l175.104 118.272a38.4 38.4 0 0 1 13.44 47.872l-3.136 5.44a38.4 38.4 0 0 1-47.872 13.44l-5.44-3.072-192-129.728a38.4 38.4 0 0 1-16.384-25.536L473.6 512.896v-282.24a38.4 38.4 0 0 1 38.4-38.4z" /></svg>