<?xml version="1.0" standalone="no"?><!DOCTYPE svg PUBLIC "-//W3C//DTD SVG 1.1//EN" "http://www.w3.org/Graphics/SVG/1.1/DTD/svg11.dtd"><svg t="1577417126460" class="icon" viewBox="0 0 1024 1024" version="1.1" xmlns="http://www.w3.org/2000/svg" p-id="6199" xmlns:xlink="http://www.w3.org/1999/xlink" width="200" height="200"><defs><style type="text/css"></style></defs><path d="M639.55968 717.33248H393.0368c-39.7312 0-71.80288-32.5376-71.80288-71.79264v-99.56352c0-39.7312 32.55296-71.80288 71.80288-71.80288h246.52288c39.7312 0 71.79776 32.55808 71.79776 71.80288v99.56352a71.68512 71.68512 0 0 1-71.79776 71.79264z m0 0" fill="#333333" p-id="6200"></path><path d="M515.0976 35.21536c-264.22784 0-478.67904 216.36608-478.67904 483.46624-0.96256 205.35296 128.28672 388.68992 321.67424 457.62048l16.27648-47.39072c-173.2864-61.75232-289.12128-225.9456-288.64512-409.74848 0-237.42464 192.43008-429.37856 429.37856-429.37856 236.94336 0 429.38368 192.43008 429.38368 429.37856 0.47616 185.72288-117.27872 351.34976-292.96128 411.6736-24.41728 9.088-50.73408 13.39392-76.58496 11.96032-28.24704-2.87232-41.6512-16.2816-41.6512-51.22048v-136.9088h64.14336c83.76832-0.48128 151.26528-68.44416 150.784-152.21248v-152.2176h-98.1248V320.512h-48.82944v129.72544H428.93824V320.512h-48.82432v129.72544H293.47328v152.2176c-0.48128 83.76832 67.01568 151.73632 150.77888 152.21248h39.73632v136.9088c0 61.26592 33.5104 95.25248 86.15424 100.52096a240.22016 240.22016 0 0 0 97.17248-14.35648c195.78368-67.50208 326.46656-251.79136 326.46656-458.57792 0.00512-267.58144-214.44608-483.94752-478.68416-483.94752z m-70.84032 670.1568c-56.96-0.48128-101.95968-46.42816-101.4784-103.39328V499.53792H699.392v103.3984c0 56.48384-45.47072 102.43584-101.4784 102.43584H444.25728z m0 0" fill="#333333" p-id="6201"></path></svg>
