<?xml version="1.0" standalone="no"?><!DOCTYPE svg PUBLIC "-//W3C//DTD SVG 1.1//EN" "http://www.w3.org/Graphics/SVG/1.1/DTD/svg11.dtd"><svg t="1572859018815" class="icon" viewBox="0 0 1024 1024" version="1.1" xmlns="http://www.w3.org/2000/svg" p-id="8647" xmlns:xlink="http://www.w3.org/1999/xlink" width="200" height="200"><defs><style type="text/css"></style></defs><path d="M31.95904 37.36576l-0.4608 960.82432h960.9984V37.36576H31.95904z m353.21344 608.42496V391.90528h253.88544v253.88032H385.17248z m253.88544 67.53792v217.07776l-253.88544-0.01024v-217.06752h253.88544zM385.17248 324.37248V106.7264l253.88544-0.0256v217.66656l-253.88544 0.00512z m321.42336 67.5328h217.1904l0.01024 253.88032h-217.20064V391.90528z m217.1904-67.5328h-217.1904V106.69568l217.17504-0.02048 0.01536 217.69728zM100.13696 106.74688l217.50272-0.01536v217.64096H100.13696V106.74688z m0 285.1584h217.50272v253.88032H100.13696V391.90528z m0 321.42336h217.50272v217.06752l-217.50272-0.01024v-217.05728z m606.45888 217.08288v-217.07776h217.20576l0.01024 217.088-217.216-0.01024z m0 0" p-id="8648"></path></svg>
