<?xml version="1.0" standalone="no"?><!DOCTYPE svg PUBLIC "-//W3C//DTD SVG 1.1//EN" "http://www.w3.org/Graphics/SVG/1.1/DTD/svg11.dtd"><svg t="1622600475972" class="icon" viewBox="0 0 1024 1024" version="1.1" xmlns="http://www.w3.org/2000/svg" p-id="4302" xmlns:xlink="http://www.w3.org/1999/xlink" width="200" height="200"><defs><style type="text/css"></style></defs><path d="M207.721151 305.423043l-147.055824 0.63993c-21.757607-0.575937-41.915389 15.742268-45.17903 43.515213v30.076692c0.511944 23.54941 18.429973 43.067263 40.315565 43.515213l280.609133-1.72781c0.447951 0 0.767916 0.255972 1.08788 0.255972l19.645839 0.383958a35.836058 35.836058 0 0 0 27.644959-11.902691c7.039226-7.615162 9.598944-18.174001 9.342972-30.076691l-2.17576-21.373649c0-0.383958 1.471838-0.703923 1.471838-1.151874L392.404835 52.010919c-0.511944-23.54941-18.493966-37.627861-40.315565-38.139805h-29.244783c-21.757607-0.511944-39.035706 19.837818-38.523762 43.451221l1.279859 166.189719L91.957885 17.262741a50.938397 50.938397 0 0 0-76.151624 0 62.073172 62.073172 0 0 0 0 82.486927l191.91489 205.737368v-0.063993z m425.553189 359.64044c0 0.511944-1.471838 0.831908-1.471838 1.279859l1.279859 300.830909c0.511944 23.54941 18.493966 37.563868 40.251572 38.075811l27.580966 0.063993c21.757607 0.511944 39.035706-20.029797 38.45977-43.515213l-1.151874-162.54212 193.578707 207.529172a50.874404 50.874404 0 0 0 76.151623 0 61.945186 61.945186 0 0 0 0-82.55092l-193.642699-207.465179 146.927838-0.639929c21.693614 0.511944 41.787403-14.014458 45.17903-41.787404v-29.948705c-0.63993-23.613403-18.557959-43.131256-40.315565-43.707193l-277.153513 1.791803-1.151874-0.191979-19.581846-0.511943a35.836058 35.836058 0 0 0-27.644959 12.030676c-7.103219 7.487176-9.598944 18.110008-9.406965 29.948706l2.175761 21.373649h-0.063993z m-617.532072 341.722411a50.938397 50.938397 0 0 0 76.151624 0l193.578706-206.249313-1.151873 163.502015c-0.511944 23.54941 16.766156 44.155143 38.459769 43.643199h29.308776c21.757607-0.63993 39.675636-14.590395 40.18758-38.267791l1.151873-303.070662c0-0.447951-1.471838-0.703923-1.471838-1.151873l2.111767-21.373649c0.191979-11.774705-2.303747-22.461529-9.406965-30.012699a35.836058 35.836058 0 0 0-27.516973-11.90269l-19.709832 0.511943-1.08788 0.127986-280.737119-1.791803c-21.757607 0.63993-39.803622 20.09379-40.315565 43.707193v30.012698c3.327634 27.772945 23.485417 42.235354 45.115037 41.787404l148.719641 0.511943L15.742268 924.170981a62.009179 62.009179 0 0 0 0 82.55092z m625.083241-596.542381c7.039226 7.871134 17.150113 12.158663 27.644959 11.838698l19.645839-0.383958c0.447951 0 0.703923-0.191979 1.151874-0.255972l281.185069 1.855796c21.757607-0.63993 39.739629-20.09379 40.315565-43.707192v-29.948706c-3.327634-27.836938-23.485417-44.155143-45.17903-43.643199l-149.231584-0.575937 191.72291-205.673375a61.753207 61.753207 0 0 0 0-82.55092 50.746418 50.746418 0 0 0-76.023637 0l-193.6427 207.657158 1.27986-167.469578c0.511944-23.54941-16.894142-44.027157-38.45977-43.515214h-27.708952c-21.693614 0.575937-39.675636 14.654388-40.315565 38.139805l-1.08788 305.63038c0 0.447951 1.471838 0.767916 1.471838 1.215867l-2.111768 21.309656c-0.255972 11.838698 2.303747 22.525522 9.342972 30.076691z" p-id="4303"></path></svg>