<?xml version="1.0" standalone="no"?><!DOCTYPE svg PUBLIC "-//W3C//DTD SVG 1.1//EN" "http://www.w3.org/Graphics/SVG/1.1/DTD/svg11.dtd"><svg t="1572859050090" class="icon" viewBox="0 0 1024 1024" version="1.1" xmlns="http://www.w3.org/2000/svg" p-id="9270" xmlns:xlink="http://www.w3.org/1999/xlink" width="200" height="200"><defs><style type="text/css"></style></defs><path d="M901.53472 881.46432h-94.1824v94.1824a28.2624 28.2624 0 0 1-56.51456 0v-94.1824h-94.18752a28.2624 28.2624 0 0 1-28.25728-28.26752 28.25216 28.25216 0 0 1 28.25728-28.25728h94.18752v-94.18752a28.2624 28.2624 0 0 1 56.51456 0v94.18752h94.18752a28.25216 28.25216 0 0 1 28.25216 28.25728 28.2624 28.2624 0 0 1-28.25216 28.26752h-0.00512z m-122.43456-240.1792a28.2624 28.2624 0 0 1-28.25728-28.25728V90.28608H443.27936l0.00512 0.36352V309.4528a28.2624 28.2624 0 0 1-28.25728 28.25728H197.31456v488.68352h340.88448a28.2624 28.2624 0 0 1 0 56.51456H169.05728a28.2624 28.2624 0 0 1-28.25728-28.25728V262.72256c0-4.41344 1.01376-8.59136 2.816-12.30848 0.68608-2.1504 1.79712-4.07552 3.37408-5.69344l196.5056-201.37984c0.62976-0.71168 1.29024-1.38752 1.98144-2.03264l2.24256-2.28864c2.64704-2.71872 6.23616-4.16256 10.26048-4.43392a28.53888 28.53888 0 0 1 6.68672-0.79872h414.42816a28.2624 28.2624 0 0 1 28.25728 28.25728v550.99904a28.25216 28.25216 0 0 1-28.25216 28.24192zM376.64256 90.28608L197.31456 274.05824v7.13728h189.45536V90.65472l0.01024-0.36352h-10.1376v-0.00512z m0 0" fill="#2C2C2C" p-id="9271"></path></svg>
