<?xml version="1.0" standalone="no"?><!DOCTYPE svg PUBLIC "-//W3C//DTD SVG 1.1//EN" "http://www.w3.org/Graphics/SVG/1.1/DTD/svg11.dtd"><svg class="icon" width="200px" height="200.00px" viewBox="0 0 1024 1024" version="1.1" xmlns="http://www.w3.org/2000/svg"><path fill="#ffffff" d="M512.15424 64l4.48 0.256a511.04 511.04 0 0 1 357.568 149.76 512.384 512.384 0 0 1 20.48 702.464 68.48 68.48 0 0 1-48.96 22.656l-1.664-0.128c-18.24 0-35.648-7.168-48.512-20.032l-76.032-76.224a41.984 41.984 0 0 1 59.392-59.392l64.192 64.32a426.816 426.816 0 0 0 95.04-229.632h-90.88a41.984 41.984 0 0 1 0-84.032h90.88a427.008 427.008 0 0 0-95.04-229.44L778.90624 368.64a41.984 41.984 0 0 1-29.76 12.352 42.176 42.176 0 0 1-29.696-71.68l64.128-64.256a426.688 426.688 0 0 0-229.44-94.72v90.432a41.984 41.984 0 0 1-83.968 0V150.4A426.688 426.688 0 0 0 240.73024 245.248L304.73024 309.312a41.984 41.984 0 1 1-59.52 59.52l-64-64.192a426.88 426.88 0 0 0-95.04 229.376h90.688a41.984 41.984 0 0 1 0 83.968H86.23424a426.624 426.624 0 0 0 94.976 229.632l64.32-64.256a41.984 41.984 0 0 1 59.392 59.392L228.57024 919.04a71.808 71.808 0 0 1-50.432 19.968 67.84 67.84 0 0 1-48.64-22.656 512.064 512.064 0 0 1 20.48-702.4 511.04 511.04 0 0 1 357.76-149.696A32.256 32.256 0 0 1 512.09024 64z m195.2 316.928a42.048 42.048 0 0 1 0 59.52L611.03424 536.512a110.4 110.4 0 0 1-98.816 149.76c-60.864 0-110.336-49.536-110.336-110.336S451.29024 465.664 512.09024 465.664c14.656 0.64 28.48 3.968 41.088 9.664l94.72-94.4a42.048 42.048 0 0 1 59.392 0zM512.15424 549.76a26.24 26.24 0 1 0-2.944 52.48A26.24 26.24 0 0 0 512.09024 549.76z"  /></svg>