<?xml version="1.0" standalone="no"?><!DOCTYPE svg PUBLIC "-//W3C//DTD SVG 1.1//EN" "http://www.w3.org/Graphics/SVG/1.1/DTD/svg11.dtd"><svg t="1577777643852" class="icon" viewBox="0 0 1024 1024" version="1.1" xmlns="http://www.w3.org/2000/svg" p-id="1852" xmlns:xlink="http://www.w3.org/1999/xlink" width="200" height="200"><defs><style type="text/css"></style></defs><path d="M510.86336 25.3696c-270.52032 0-489.76384 219.24352-489.76384 489.76384s219.24352 489.7536 489.76384 489.7536c270.51008 0 489.7536-219.23328 489.7536-489.7536 0.00512-270.52032-219.24352-489.76384-489.7536-489.76384z m0 949.85728c-254.16192 0-460.1088-206.03904-460.1088-460.09344 0-254.16192 206.04416-460.1088 460.1088-460.1088 254.1568 0 460.09856 205.94688 460.09856 460.1088s-205.94176 460.09344-460.09856 460.09344z m0 0" fill="#333333" p-id="1853"></path><path d="M704.56832 603.61216c-1.152-5.54496-4.31104-12.24704-7.84384-20.08576-4.31104-7.84896-9.09312-15.40096-15.40608-24.3968a403.03104 403.03104 0 0 0-24.39168-29.94176c-7.84896-9.08288-14.5408-16.54784-22.09792-25.63584-7.84384-9.088-14.5408-16.55296-20.08576-23.2448-6.70208-6.69696-13.3888-14.63808-20.18304-22.09792v-1.14688H431.46752c-6.69696 7.84384-14.5408 15.40608-22.09792 23.2448-6.69184 6.69184-14.5408 14.5408-22.0928 23.2448-9.08288 9.088-16.54784 16.54784-24.39168 25.63584-9.088 9.856-16.54784 18.93376-23.2448 26.78272-6.69184 9.07776-10.99776 15.40096-14.5408 24.39168a53.32992 53.32992 0 0 0-7.84384 20.09088c-1.152 5.54496-2.39104 13.3888-2.39104 20.08576v34.24256c0 9.088 2.39104 16.5376 5.54496 23.2448 3.15904 6.70208 7.84384 13.3888 13.3888 17.69984 5.55008 4.29568 10.99776 9.07776 18.93888 10.99264 7.84896 3.15392 15.40096 4.31104 23.24992 4.31104h275.01056c7.83872 0 14.53568-1.15712 21.22752-4.31104 6.70208-3.1488 12.24704-6.70208 17.69984-12.24704 5.54496-5.54496 9.08288-12.24704 12.24704-18.93376 3.5328-7.84896 4.3008-15.40608 4.3008-24.39168v-28.79488c0-6.49728-0.76288-11.94496-1.90464-18.7392z m-141.09696-11.008c-3.15392 6.70208-6.69696 12.24704-12.24704 17.69984-4.3008 5.55008-10.99776 9.08288-17.69472 12.24704-6.69696 3.15392-14.5408 4.30592-22.09792 4.30592-7.552 0-15.40096-1.152-22.0928-4.30592-6.69696-3.15904-12.24704-6.69696-17.69984-12.24704-5.54496-4.30592-9.088-10.99776-12.24704-17.69984-3.5328-6.69184-4.30592-14.5408-4.30592-22.08768 0-7.84896 1.152-15.78496 4.30592-22.0928 3.15392-6.70208 6.69696-12.24704 12.24704-17.69984 4.3008-5.54496 10.99776-9.08288 17.69984-12.24704 6.69184-3.1488 14.5408-4.3008 22.0928-4.3008 7.55712 0 15.40096 1.152 22.09792 4.3008 6.69696 3.15904 12.24704 6.70208 17.69472 12.24704 5.55008 4.30592 9.088 10.99776 12.24704 17.69984 3.53792 6.69184 4.30592 14.5408 4.30592 22.0928 0.37888 7.54688-0.768 15.40096-4.30592 22.08768z m0 0" p-id="1854"></path><path d="M734.49984 403.88096v27.55072c0 7.84384-2.39104 14.5408-7.84384 20.08064-5.54496 5.55008-12.24192 7.84896-20.07552 7.84896h-55.5776c-7.84384 0-14.5408-2.39104-20.09088-7.84896-5.55008-5.54496-7.83872-12.24192-7.83872-20.08064v-27.55072H398.75072v27.55072c0 7.84384-2.39104 14.5408-7.83872 20.08064-5.55008 5.55008-12.24704 7.84896-20.09088 7.84896H315.24352c-7.84384 0-14.5408-2.39104-20.08576-7.84896-5.55008-5.44256-7.84384-12.14464-7.84384-20.08064V402.6368c0-3.15904 1.152-6.69696 2.39104-9.08288l6.69184-6.70208c2.39104-2.38592 5.55008-4.3008 9.088-5.54496 3.15904-1.152 6.70208-3.15904 9.85088-5.55008 3.15904-2.39104 11.00288-5.54496 22.0928-12.24192a515.36384 515.36384 0 0 1 43.14624-18.65728c17.69984-6.69184 36.63872-12.24192 58.73664-17.69472 22.0928-5.64224 45.3376-7.936 70.97856-7.936 28.78464 0 54.4256 2.39104 76.42624 7.84384 22.09792 5.54496 42.18368 10.99776 58.73664 17.69984 16.54272 6.69184 29.94176 13.3888 39.79264 18.93888 9.85088 5.55008 16.54784 9.85088 20.08576 12.24704a42.48576 42.48576 0 0 0 9.856 5.54496c3.15392 1.152 6.69184 3.15904 9.07776 5.54496l6.70208 6.69184c2.29888 2.29888 3.5328 5.84192 3.5328 10.14272z m0 0" p-id="1855"></path></svg>
