<?xml version="1.0" standalone="no"?><!DOCTYPE svg PUBLIC "-//W3C//DTD SVG 1.1//EN" "http://www.w3.org/Graphics/SVG/1.1/DTD/svg11.dtd"><svg class="icon" width="200px" height="200.00px" viewBox="0 0 1024 1024" version="1.1" xmlns="http://www.w3.org/2000/svg"><path fill="#ffffff" d="M900.608 298.56v597.056c0 70.656-56.256 128-125.44 128H189.44c-69.248 0-125.504-57.344-125.504-128V127.936C64 57.28 120.256 0 189.44 0h418.368l292.8 298.56z m-292.8 0h174.528l-174.528-177.92v177.92z m209.088 597.056V383.808H524.16V85.312H189.44c-11.072 0-21.76 4.48-29.504 12.48a43.008 43.008 0 0 0-12.224 30.144v767.68c0 15.36 7.616 25.472 12.16 30.144a41.28 41.28 0 0 0 29.632 12.544h585.6c15.104 0 24.96-7.872 29.44-12.544a42.88 42.88 0 0 0 12.352-30.144z" /></svg>