<?xml version="1.0" standalone="no"?><!DOCTYPE svg PUBLIC "-//W3C//DTD SVG 1.1//EN" "http://www.w3.org/Graphics/SVG/1.1/DTD/svg11.dtd"><svg t="1691560283537" class="icon" viewBox="0 0 1024 1024" version="1.1" xmlns="http://www.w3.org/2000/svg" p-id="992" xmlns:xlink="http://www.w3.org/1999/xlink" width="200" height="200"><path d="M752.09472 1024c-59.904 0-139.456-35.392-243.008-107.648-149.888 101.76-249.216 128.32-311.488 83.84-63.808-45.568-70.08-153.152-19.584-337.6C35.42272 543.04-19.16928 452.032 6.49472 377.152c25.152-73.6 120.96-111.616 300.608-118.72C372.51072 79.488 435.29472 0.064 515.10272 0c77.952 0.512 141.44 81.28 204.544 261.12 179.52 9.472 274.816 48.64 299.072 122.624 24.64 75.136-31.104 165.504-175.36 283.136 48.192 185.088 40.448 292.544-23.936 337.28-19.008 13.184-41.344 19.84-67.328 19.84zM509.79072 811.712l24.704 17.92c179.968 130.752 228.48 109.952 236.288 104.32 8.192-5.632 45.952-45.44-16.896-271.488l-7.616-27.392 22.336-17.6c179.264-141.184 172.288-197.312 169.088-207.168-3.136-9.6-30.016-57.856-250.368-65.152l-29.696-0.96-9.408-28.288C573.91872 92.16 520.35072 85.376 514.52672 85.312c-6.208 0-59.648 6.784-136.704 228.928l-9.728 28.032-29.76 0.64c-220.416 4.416-247.936 52.352-251.136 61.952-3.392 9.728-11.136 65.792 166.4 209.344l22.016 17.92-7.936 27.2c-65.856 225.28-28.608 265.6-20.48 271.36 7.872 5.696 56.064 27.008 237.632-101.312l24.896-17.664z" p-id="993"></path></svg>