<?xml version="1.0" standalone="no"?><!DOCTYPE svg PUBLIC "-//W3C//DTD SVG 1.1//EN" "http://www.w3.org/Graphics/SVG/1.1/DTD/svg11.dtd"><svg t="1603775796803" class="icon" viewBox="0 0 1034 1024" version="1.1" xmlns="http://www.w3.org/2000/svg" p-id="2737" xmlns:xlink="http://www.w3.org/1999/xlink" width="201.953125" height="200"><defs><style type="text/css"></style></defs><path d="M937.625707 0H96.885451A96.961619 96.961619 0 0 0 0 96.885451v700.286819a96.961619 96.961619 0 0 0 96.885451 96.885451H937.625707a96.961619 96.961619 0 0 0 96.88545-96.885451V96.885451A96.961619 96.961619 0 0 0 937.625707 0zM82.642071 96.885451a14.24338 14.24338 0 0 1 14.24338-14.24338H937.625707a14.24338 14.24338 0 0 1 14.24338 14.24338v700.286819a14.24338 14.24338 0 0 1-14.24338 14.24338H96.885451a14.24338 14.24338 0 0 1-14.24338-14.24338V96.885451z m910.433799 844.472478H41.359119a41.359119 41.359119 0 0 0 0 82.642071h952.09759a41.359119 41.359119 0 0 0 0-82.642071z" p-id="2738"></path><path d="M234.444511 486.63612h90.868194a194.304076 194.304076 0 0 0 26.354061 64.97114l-64.818804 64.818804a41.359119 41.359119 0 0 0 29.248438 70.531389 40.902112 40.902112 0 0 0 29.248438-12.110681l64.361797-64.361797a195.751265 195.751265 0 0 0 64.514133 27.496578v91.401369a41.359119 41.359119 0 1 0 82.64207 0V638.895567a195.446593 195.446593 0 0 0 64.97114-26.277894l64.894972 64.894972a41.359119 41.359119 0 1 0 58.496876-58.496876l-64.361797-64.361797a195.751265 195.751265 0 0 0 27.496578-64.514133h91.401369a41.359119 41.359119 0 0 0 0-82.64207H708.969949a193.313895 193.313895 0 0 0-26.354061-65.047308l64.894972-64.894972a41.206784 41.206784 0 0 0 0-58.496875 41.435287 41.435287 0 0 0-58.496876 0l-64.361797 64.361797a195.751265 195.751265 0 0 0-64.514133-27.496579v-91.401368a41.359119 41.359119 0 1 0-82.642071 0v90.792026a194.989586 194.989586 0 0 0-65.047307 26.354061l-64.818804-64.818804a41.359119 41.359119 0 0 0-58.496876 58.496876l64.361797 64.361797a195.751265 195.751265 0 0 0-27.496578 64.514133h-91.401369a41.359119 41.359119 0 1 0 0 82.642071z m396.072597-39.683427a113.109194 113.109194 0 1 1-113.109194-113.109194 113.261529 113.261529 0 0 1 112.956858 113.109194z" p-id="2739"></path></svg>