<?xml version="1.0" standalone="no"?><!DOCTYPE svg PUBLIC "-//W3C//DTD SVG 1.1//EN" "http://www.w3.org/Graphics/SVG/1.1/DTD/svg11.dtd"><svg t="1618205377950" class="icon" viewBox="0 0 1170 1024" version="1.1" xmlns="http://www.w3.org/2000/svg" p-id="772" xmlns:xlink="http://www.w3.org/1999/xlink" width="228.515625" height="200"><defs><style type="text/css"></style></defs><path d="M85.357714 681.764571l63.049143-193.828571a78.848 78.848 0 0 1 75.044572-54.637714h868.205714A78.701714 78.701714 0 0 1 1170.285714 512l-149.796571 461.897143a79.36 79.36 0 0 1-73.654857 50.102857H78.848A78.774857 78.774857 0 0 1 0 945.298286V78.701714C0 35.254857 35.328 0 78.848 0h361.691429C484.059429 0 519.314286 35.254857 519.314286 78.701714a65.828571 65.828571 0 0 0 65.828571 65.682286h361.764572c43.52 0 78.848 35.254857 78.848 78.701714v150.966857h-85.357715V229.595429H585.142857a151.04 151.04 0 0 1-151.04-144.384h-348.891428v596.553142z m860.452572 257.024L1082.514286 518.509714H224.475429L87.771429 938.788571h858.038857z" p-id="773"></path></svg>