<?xml version="1.0" standalone="no"?><!DOCTYPE svg PUBLIC "-//W3C//DTD SVG 1.1//EN" "http://www.w3.org/Graphics/SVG/1.1/DTD/svg11.dtd"><svg t="1590377418987" class="icon" viewBox="0 0 1024 1024" version="1.1" xmlns="http://www.w3.org/2000/svg" p-id="3485" xmlns:xlink="http://www.w3.org/1999/xlink" width="200" height="200"><defs><style type="text/css"></style></defs><path d="M954.50624 911.9488h-24.96c0-37.44256-6.23616-81.12128-12.47744-124.8-6.2464-56.15104-37.44256-174.70464-93.59872-361.89184l-12.47744-62.40256c-12.48256-49.91488-18.72384-99.82976-18.72384-149.74976v-137.2672c0-18.71872-18.7136-37.43744-37.43744-37.43744H261.90336c-18.71872 0-37.43744 12.47744-37.43744 37.43744v143.5136c0 49.92-6.24128 99.82976-18.71872 149.74976l-81.11616 349.4144c-12.48256 56.16128-18.71872 112.31744-18.71872 168.4736v24.96h-24.96c-18.71872 0-37.43744 18.7136-37.43744 37.43744 0 18.7136 18.71872 37.43744 37.43744 37.43744h873.5488c18.7136 0 37.43744-18.71872 37.43744-37.43744s-12.47232-37.43744-37.43232-37.43744z m-754.9952-174.70976L280.6272 387.81952c6.24128-18.71872 6.24128-31.19616 12.48256-49.91488h237.1072c18.71872 0 37.43744-18.72384 37.43744-37.44256 0-24.96-18.7136-37.43744-37.43744-37.43744h-230.8608V225.5872h230.8608c18.71872 0 37.43744-18.72384 37.43744-37.44256s-18.7136-37.43744-37.43744-37.43744h-230.8608v-37.43744h405.57056v37.43744h-49.91488c-18.72384 0-37.44256 18.71872-37.44256 37.43744s18.7136 37.44256 37.44256 37.44256h49.91488v37.43744h-49.91488c-12.48256 0-31.20128 12.47744-31.20128 37.43744 0 18.71872 18.71872 37.44256 37.43744 37.44256h56.16128c0 18.71872 6.23616 37.43744 12.47744 56.15616 49.92 212.15232 81.12128 330.69568 81.12128 349.4144 6.23616 24.96 6.23616 49.92 12.47744 62.40256H187.0336c0-24.96512 6.23616-43.67872 12.47744-68.63872z m636.43648 174.70976H180.79232v-37.44256h655.1552v37.44256z m0 0" p-id="3486"></path></svg>