<?xml version="1.0" standalone="no"?><!DOCTYPE svg PUBLIC "-//W3C//DTD SVG 1.1//EN" "http://www.w3.org/Graphics/SVG/1.1/DTD/svg11.dtd"><svg class="icon" width="200px" height="200.00px" viewBox="0 0 1024 1024" version="1.1" xmlns="http://www.w3.org/2000/svg"><path fill="#ffffff" d="M526.336 0C306.432 0 128 181.76 128 406.4c0 85.76 26.24 165.632 70.976 231.232 2.176 3.776 4.096 7.488 6.784 10.88l271.296 348.48c13.568 18.304 31.424 27.008 49.28 27.008 17.92 0 35.84-8.704 49.28-27.008l271.36-348.544c2.56-3.328 4.608-6.976 6.528-10.368a409.856 409.856 0 0 0 71.168-231.68C924.544 181.76 746.368 0 526.336 0z m261.76 591.488l-2.048 3.072-1.728 3.2-1.28 2.176-256.704 329.856-256.64-329.856-1.664-2.752-1.728-3.2-1.92-2.56a327.36 327.36 0 0 1-56.768-185.024c0-179.52 142.848-325.12 318.656-325.12 175.744 0 318.592 145.6 318.592 325.12 0 66.24-19.584 130.56-56.768 185.088z m-261.76-347.712c-88 0-159.36 72.896-159.36 162.624 0 89.6 71.36 162.56 159.36 162.56 88 0 159.36-72.896 159.36-162.56 0-89.728-71.424-162.56-159.36-162.56z m0 243.968a80.64 80.64 0 0 1-79.68-81.28c0-44.992 35.712-81.28 79.68-81.28s79.68 36.288 79.68 81.28c-0.064 44.8-35.776 81.28-79.68 81.28z" /></svg>