<?xml version="1.0" standalone="no"?><!DOCTYPE svg PUBLIC "-//W3C//DTD SVG 1.1//EN" "http://www.w3.org/Graphics/SVG/1.1/DTD/svg11.dtd"><svg t="1572858794554" class="icon" viewBox="0 0 1024 1024" version="1.1" xmlns="http://www.w3.org/2000/svg" p-id="6534" xmlns:xlink="http://www.w3.org/1999/xlink" width="200" height="200"><defs><style type="text/css"></style></defs><path d="M941.04576 326.63552c0 10.86464 6.1696 20.89984 16.18944 26.32704a34.13504 34.13504 0 0 0 32.3584 0c10.01472-5.4272 16.1792-15.46752 16.1792-26.32704 0-16.78848-14.48448-30.40256-32.3584-30.40256s-32.36864 13.61408-32.36864 30.40256z m0 0M907.20768 465.90464c6.86592-6.3744 13.73184-15.20128 20.59264-21.57568 9.3184-8.82688 6.86592-24.02816-2.45248-30.40256-9.3184-8.832-25.4976-6.3744-32.36352 1.96096-91.6992 102.48704-225.08544 161.33632-367.29856 161.33632-178.99008 0-342.29248-93.66016-425.16992-244.21376-6.86592-10.78784-20.59264-15.19616-29.91104-8.82688-11.27936 6.3744-16.1792 19.61472-9.31328 28.44672 16.18432 28.4416 34.3296 54.43072 52.95616 78.45888L31.872 511.50848c-9.31328 8.832-9.31328 24.03328 0 32.85504 4.41344 4.41344 9.3184 6.3744 16.18432 6.3744s13.73184-1.96096 18.14016-8.82688l77.97248-78.464c39.22944 41.1904 87.28576 74.05056 137.79968 100.03968l-59.83232 104.448c-6.86592 10.78784-2.45248 25.99424 9.3184 32.86016 2.45248 1.96096 6.8608 1.96096 9.3184 1.96096 9.31328 0 18.14016-4.41344 23.04512-13.24032l59.82208-105.92256c54.92736 21.57056 114.75456 34.81088 174.58176 37.26848v108.86144c0 13.24032 11.27936 24.02816 23.04512 24.02816 13.73696 0 23.04512-10.78784 23.04512-24.02816v-108.86144c57.37984-1.9712 112.7936-13.24032 163.3024-30.40256l59.83232 104.44288c4.41344 8.832 13.73696 13.24032 23.05024 13.24032 2.45248 0 6.86592 0 9.31328-1.96096 11.27936-6.36928 13.73184-19.6096 9.3184-32.85504l-58.35776-100.52608c43.648-19.61984 84.8384-45.60896 121.62048-76.50304l80.42496 80.42496c4.41344 4.40832 11.27936 8.832 18.14528 8.832 4.40832 0 11.27424-1.96096 16.1792-6.3744 9.31328-8.832 9.31328-24.02816 0-32.86016l-79.93344-80.41472z m0 0" p-id="6535"></path></svg>
