<?xml version="1.0" standalone="no"?><!DOCTYPE svg PUBLIC "-//W3C//DTD SVG 1.1//EN" "http://www.w3.org/Graphics/SVG/1.1/DTD/svg11.dtd"><svg class="icon" width="200px" height="158.39px" viewBox="0 0 1293 1024" version="1.1" xmlns="http://www.w3.org/2000/svg"><path fill="#ffffff" d="M1292.667625 835.509613l-0.080827-121.429229c0.323308-2.96366 0.484963-5.92732 0.484963-8.89098a30.175446 30.175446 0 0 0-0.484963-5.442357l-0.161654-119.947399c0.404135-3.367795 0.646617-6.681706 0.646617-9.91479 0-109.46682-233.18615-172.8622-475.101626-182.238142 56.417308-111.191131 82.44363-208.533888 54.881593-261.933651a28.154769 28.154769 0 0 0-10.103386-18.428576L757.753954 19.964291a30.606524 30.606524 0 0 0-9.456769-5.199876c-12.124063-8.675441-31.684219-17.081458-60.943625-14.171683-99.821454 9.699251-275.216236 151.820214-436.304623 353.753224C72.340244 578.45253-61.34776 844.804728 29.016925 920.324171c1.454888 1.266291 2.96366 2.424813 4.580201 3.475565l93.463057 77.405409c1.293233 1.670426 2.775063 3.233084 4.364663 4.661028 14.872184 12.582083 32.815798 17.943614 52.537607 17.862787 47.849636 0 106.368448-31.333968 157.69365-67.409792C439.052744 998.618678 596.423086 1023.809787 763.088542 1023.809787c225.669231 0 453.682447-45.990613 514.464418-134.496275 9.322058-5.011279 15.087723-14.548876 15.114665-24.894743v-13.713663c0.323308-3.071429 0.56579-6.142859 0.56579-9.375942 0-1.93985-0.188597-3.906643-0.56579-5.819551z m-1118.916327 129.404169l-42.973069-35.617804c102.812056-34.405397 256.868487-166.47686 399.528298-345.481918a1871.254867 1871.254867 0 0 0 122.857175-172.161699c7.570804-13.444239 2.936718-30.337101-10.534464-38.285097a29.906023 29.906023 0 0 0-39.739985 8.621556 1836.84947 1836.84947 0 0 1-119.139129 166.93488c-166.422975 208.803312-324.924896 325.032665-395.567771 331.92991-8.406017 0.889098-14.872184 0-19.156019-2.50564l-1.374061-0.942983-0.484963-0.296366c-38.797002-32.546374 31.522564-238.709335 230.195548-487.710651C464.028315 180.513831 622.530235 64.365305 693.092283 57.46806c9.699251-0.889098 16.731207 0.269424 20.934216 3.825815 11.154138 9.295115 19.964291 55.447383-26.753766 163.728739a27.750634 27.750634 0 0 0-0.107769 21.877199c2.96366 7.005014 8.675441 12.582083 15.869051 15.464916 7.166669 2.96366 15.27632 3.044487 22.496873 0.161654 7.220553-2.85589 12.986219-8.43296 15.976821-15.437974 22.550758-52.133472 35.644746-96.399774 39.362792-132.556425l29.097752 24.194242c1.670426 2.96366 3.906643 5.604011 6.546994 7.813285 38.797002 32.49249-31.522564 238.682392-230.11472 488.007018-68.783852 86.080849-141.770713 163.001295-211.362837 222.382263-111.298901 95.618446-179.597791 116.660431-201.25945 107.98499z m912.645598-276.832778a29.636599 29.636599 0 0 0 36.937979 18.671057c49.304524-14.953011 84.868443-31.522564 110.328976-48.361541v51.459913c-9.214288 42.353394-140.800788 104.482483-380.372278 118.115319a28.882213 28.882213 0 0 0-27.211787 29.340233c0.45802 15.27632 13.201758 27.508152 28.909156 27.750633l1.778195-0.080827c148.156053-8.43296 297.201204-39.22808 376.977541-91.900399l0.080827 53.453648c-11.639101 50.813296-192.449298 120.270708-470.736963 120.270707-142.578984 0-276.913605-18.913539-368.086561-51.109662a1414.581817 1414.581817 0 0 0 81.797014-73.337112c66.763175 13.875317 144.114699 22.766297 224.699306 25.918553h1.212406c16.165418 0.296366 29.501887-12.20489 29.825196-27.966172 0.323308-15.73434-12.528199-28.747501-28.693617-29.043867a1390.225921 1390.225921 0 0 1-178.627865-17.970556 1730.103828 1730.103828 0 0 0 47.607155-52.187357l2.50564 0.377193c60.135354 7.328323 123.099656 10.938599 187.438018 10.938599 79.453028 0 155.592145-5.415415 226.23502-16.219302 16.003764-2.424813 26.996248-16.973689 24.571435-32.600259-2.694236-15.518801-17.647248-26.10715-33.624069-23.790106-111.622209 17.027573-242.642919 20.099003-362.590318 8.67544a1832.323153 1832.323153 0 0 0 170.141021-244.609712c272.872251 5.523184 446.650491 77.890371 446.65049 126.009431 0 19.991233-33.704896 53.696129-128.51507 82.44363a29.097752 29.097752 0 0 0-17.243112 14.010029c-3.610277 6.681706-4.310778 14.548876-1.993735 21.742487z"  /></svg>