<?xml version="1.0" standalone="no"?><!DOCTYPE svg PUBLIC "-//W3C//DTD SVG 1.1//EN" "http://www.w3.org/Graphics/SVG/1.1/DTD/svg11.dtd"><svg class="icon" width="200px" height="200.00px" viewBox="0 0 1024 1024" version="1.1" xmlns="http://www.w3.org/2000/svg"><path fill="#ffffff" d="M985.415235 191.964007a38.392801 38.392801 0 1 1 0 76.785602h-51.190402v588.881585a166.368806 166.368806 0 0 1-155.874774 166.048866l-10.494032 0.31994H255.952009a166.368806 166.368806 0 0 1-166.048866-155.810785l-0.31994-10.558021L89.519215 268.749609H38.392801A38.392801 38.392801 0 1 1 38.392801 191.964007h947.022434z m-128.039993 76.785602H166.368806v588.881585a89.583203 89.583203 0 0 0 80.944823 89.199275l8.63838 0.383928h511.904018a89.583203 89.583203 0 0 0 89.199275-80.944823l0.383928-8.63838-0.063988-588.881585zM422.320815 447.916016a38.392801 38.392801 0 0 1 38.392801 38.392801v243.154409a38.392801 38.392801 0 1 1-76.785603 0V486.308817a38.392801 38.392801 0 0 1 38.392802-38.392801z m191.964007 0a38.392801 38.392801 0 0 1 38.392801 38.392801v243.154409a38.392801 38.392801 0 1 1-76.785603 0V486.308817a38.392801 38.392801 0 0 1 38.392802-38.392801z m179.166406-447.916016a38.392801 38.392801 0 1 1 0 76.785603H230.356808a38.392801 38.392801 0 1 1 0-76.785603h563.09442z" /></svg>