<?xml version="1.0" standalone="no"?><!DOCTYPE svg PUBLIC "-//W3C//DTD SVG 1.1//EN" "http://www.w3.org/Graphics/SVG/1.1/DTD/svg11.dtd"><svg class="icon" width="200px" height="200.00px" viewBox="0 0 1024 1024" version="1.1" xmlns="http://www.w3.org/2000/svg"><path fill="#ffffff" d="M846.489861 436.361364l133.083817-131.548235-1.4716-3.583026a511.41296 511.41296 0 0 1-865.364728 530.415793l73.196099-72.492291 10.55713 13.436347a409.168757 409.168757 0 0 0 720.316164-317.993545l-60.527544 34.806537-9.853321-52.977597h0.063983zM633.939648 292.336521l-65.902083 154.00613h122.206775l-195.786771 310.891476h-65.902083l74.219822-196.74651H365.596603l113.249211-268.151096h155.157816zM511.66889 0a510.517203 510.517203 0 0 1 397.459941 189.580458l-73.1961 72.428308-9.213495-11.708816A409.168757 409.168757 0 0 0 106.403072 568.42146l60.527544-34.806537 9.34146 50.226345L42.868345 715.965347l-6.718173-15.867686A511.41296 511.41296 0 0 1 511.66889 0z" /></svg>