<?xml version="1.0" standalone="no"?><!DOCTYPE svg PUBLIC "-//W3C//DTD SVG 1.1//EN" "http://www.w3.org/Graphics/SVG/1.1/DTD/svg11.dtd"><svg t="1572859319504" class="icon" viewBox="0 0 1024 1024" version="1.1" xmlns="http://www.w3.org/2000/svg" p-id="9520" xmlns:xlink="http://www.w3.org/1999/xlink" width="200" height="200"><defs><style type="text/css"></style></defs><path d="M518.5024 34.38592c-264.78592 0-481.42336 216.63744-481.42336 481.42336 0 264.77568 216.63744 481.41312 481.42336 481.41312 264.77568 0 481.41824-216.64256 481.41824-481.41312 0-264.78592-216.64768-481.42336-481.41824-481.42336z m0 902.66112c-234.69056 0-421.24288-186.5472-421.24288-421.23264 0-234.69568 186.55232-421.248 421.24288-421.248 234.69568 0 421.23776 186.55744 421.23776 421.248 0 234.68544-186.5472 421.23264-421.23776 421.23264z m0 0" p-id="9521"></path><path d="M789.29408 515.80928h-270.7968V245.00736c0-18.048-12.04224-30.08-30.09536-30.08-18.048 0-30.08512 12.032-30.08512 30.08v300.89216c0 18.05312 12.03712 30.09024 30.08512 30.09024h300.89216c18.05312 0 30.09024-12.03712 30.09024-30.09024s-12.032-30.09024-30.09024-30.09024z m0 0" p-id="9522"></path></svg>
