<?xml version="1.0" standalone="no"?><!DOCTYPE svg PUBLIC "-//W3C//DTD SVG 1.1//EN" "http://www.w3.org/Graphics/SVG/1.1/DTD/svg11.dtd"><svg class="icon" width="200px" height="200.00px" viewBox="0 0 1024 1024" version="1.1" xmlns="http://www.w3.org/2000/svg"><path fill="#ffffff" d="M512.018432 153.6a557.568 557.568 0 0 1 285.9008 79.3088 602.2144 602.2144 0 0 1 208.4864 211.3536c23.5008 40.0896 23.5008 95.3344 0 135.4752a602.2144 602.2144 0 0 1-208.4864 211.3536A557.7216 557.7216 0 0 1 512.018432 870.4a557.568 557.568 0 0 1-285.952-79.3088 602.6752 602.6752 0 0 1-208.4864-211.3536c-23.4496-40.0384-23.4496-95.3856 0.0512-135.4752a602.6752 602.6752 0 0 1 208.5376-211.3536A557.6192 557.6192 0 0 1 512.018432 153.6z m0 79.9744c-183.0912 0-349.3376 96.8192-444.8768 258.9696a39.936 39.936 0 0 0 0 38.912c95.488 162.1504 261.7856 258.9696 444.8768 258.9696 183.04 0 349.3376-96.8192 444.8768-258.9696a39.8848 39.8848 0 0 0 0-38.912c-95.5392-162.2016-261.8368-258.9696-444.928-258.9696z m72.96 106.1376c71.2704 28.7232 117.8112 96.768 117.8624 172.3392-0.3072 103.0656-85.6576 186.4704-190.8224 186.368-77.1584 0.1536-146.7392-45.2096-176.4864-114.944a183.3472 183.3472 0 0 1 41.3696-203.264 194.304 194.304 0 0 1 208.0768-40.3968v-0.1024zM512.018432 399.7696c-46.5408 0-88.4736 27.3408-106.24 69.2224a110.336 110.336 0 0 0 24.832 122.368 117.0432 117.0432 0 0 0 125.2864 24.32 112.2304 112.2304 0 0 0 70.9632-103.6288C626.706432 449.9968 575.301632 399.7696 512.018432 399.7696z"  fill-opacity=".45" /></svg>