<?xml version="1.0" standalone="no"?><!DOCTYPE svg PUBLIC "-//W3C//DTD SVG 1.1//EN" "http://www.w3.org/Graphics/SVG/1.1/DTD/svg11.dtd"><svg class="icon" width="200px" height="200.00px" viewBox="0 0 1024 1024" version="1.1" xmlns="http://www.w3.org/2000/svg"><path fill="#ffffff" d="M63.01184 369.2544c231.0144 230.0416 668.16 230.0416 898.2528 0a34.6112 34.6112 0 0 1 27.648-10.752c10.24 0.768 19.6096 6.144 25.8048 14.7456 13.824 18.5344 12.288 44.9536-3.5328 61.5936a639.6416 639.6416 0 0 1-149.3504 109.056l49.92 64.256c14.6432 17.408 14.6432 43.52 0 60.9792a36.4544 36.4544 0 0 1-26.624 12.288 34.304 34.304 0 0 1-26.5216-12.9024l-70.6048-90.8288c-39.68 15.4112-80.8448 27.392-122.7776 35.84l21.504 102.1952a48.0256 48.0256 0 0 1-5.9904 32.256 37.12 37.12 0 0 1-24.2688 17.7152 27.7504 27.7504 0 0 1-5.888 2.048c-18.0736 0-33.5872-15.0528-36.7616-35.6864l-22.5792-107.4176c-26.2656 2.6624-52.736 3.9936-79.1552 3.9936h-0.0512c-25.9072 0-51.712-1.28-77.4656-3.84l-22.3744 105.8816c-2.56 21.248-18.3808 37.0176-36.864 37.12a26.624 26.624 0 0 1-6.7584 0 36.9664 36.9664 0 0 1-25.5488-18.1248 48.3328 48.3328 0 0 1-5.632-33.9456l21.504-102.2464a739.328 739.328 0 0 1-122.624-35.7888l-70.5536 90.8288a34.7136 34.7136 0 0 1-26.6752 12.9536 36.1984 36.1984 0 0 1-24.9856-12.3392 46.6944 46.6944 0 0 1-10.9056-30.5152 46.6944 46.6944 0 0 1 10.9568-30.464l49.408-63.6928A640.3072 640.3072 0 0 1 12.93824 434.7904 46.2848 46.2848 0 0 1 0.13824 404.8384a47.9744 47.9744 0 0 1 9.3696-31.5904 35.1232 35.1232 0 0 1 25.856-14.7456c10.24-0.768 20.3264 3.1232 27.5968 10.752z"  fill-opacity=".45" /></svg>