<?xml version="1.0" standalone="no"?><!DOCTYPE svg PUBLIC "-//W3C//DTD SVG 1.1//EN" "http://www.w3.org/Graphics/SVG/1.1/DTD/svg11.dtd"><svg t="1590377390572" class="icon" viewBox="0 0 1024 1024" version="1.1" xmlns="http://www.w3.org/2000/svg" p-id="2956" xmlns:xlink="http://www.w3.org/1999/xlink" width="200" height="200"><defs><style type="text/css"></style></defs><path d="M858.05056 10.24H163.90656c-34.70848 0-63.104 28.39552-63.104 63.104v883.45088c0 34.70848 28.39552 63.104 63.104 63.104h694.144c34.70336 0 63.104-28.39552 63.104-63.104V73.344C921.15456 38.63552 892.75392 10.24 858.05056 10.24z m0 63.104v458.48576c-19.72224 14.88896-71.58272 46.34624-157.76256 46.34624-45.45536 0-69.31456-19.52256-102.34368-46.4384-43.58144-35.49696-97.7152-79.7696-213.17632-79.7696-109.34272 0-178.6624 20.0192-220.86144 39.14752V73.344h694.144zM163.90656 956.79488v-394.3936c22.08768-14.39744 86.86592-47.32928 220.86144-47.32928 92.9792 0 131.93216 31.85152 173.24032 65.46944 36.5824 29.88032 74.34752 60.73856 142.27968 60.73856 69.90848 0 122.46528-17.84832 157.76256-35.89632v351.4112H163.90656z m0 0" p-id="2957"></path></svg>