<?xml version="1.0" standalone="no"?><!DOCTYPE svg PUBLIC "-//W3C//DTD SVG 1.1//EN" "http://www.w3.org/Graphics/SVG/1.1/DTD/svg11.dtd"><svg t="1603775769096" class="icon" viewBox="0 0 1562 1024" version="1.1" xmlns="http://www.w3.org/2000/svg" p-id="2485" xmlns:xlink="http://www.w3.org/1999/xlink" width="305.078125" height="200"><defs><style type="text/css"></style></defs><path d="M1492.922672 328.760629a104.530086 104.530086 0 0 1 68.682293 101.93242v162.406088a104.530086 104.530086 0 0 1-68.682293 101.932421v141.728665a176.017859 176.017859 0 0 1-161.886555 187.031964H162.190252A175.913952 175.913952 0 0 1 0.407604 836.760223V187.031963a175.913952 175.913952 0 0 1 161.782648-187.031963h1168.741958a175.913952 175.913952 0 0 1 161.782649 187.031963v141.728666z m-93.515982 101.93242V187.031963a75.955758 75.955758 0 0 0-68.682293-81.254997H162.190252a75.955758 75.955758 0 0 0-68.682293 81.254997v649.72826a75.955758 75.955758 0 0 0 68.682293 81.254998h1168.741958a75.955758 75.955758 0 0 0 68.682294-81.254998V430.693049z" p-id="2486"></path><path d="M502.588425 617.932826a60.889295 60.889295 0 0 1-51.953323 28.989954H270.564884a60.889295 60.889295 0 1 1 0-121.778589h146.092745l77.826078-126.038762a60.889295 60.889295 0 0 1 102.348047-2.078133l132.065347 195.864028 92.580822-293.847996a60.889295 60.889295 0 0 1 112.738712-8.728158l103.906646 210.514866h202.202334a60.889295 60.889295 0 1 1 0 121.778589H999.677822a60.889295 60.889295 0 0 1-54.55099-33.873567l-53.719736-108.686352-85.099543 270.157281a60.889295 60.889295 0 0 1-108.582446 15.689903l-149.93729-222.360223-46.030645 74.604972z" p-id="2487"></path></svg>