<?xml version="1.0" standalone="no"?><!DOCTYPE svg PUBLIC "-//W3C//DTD SVG 1.1//EN" "http://www.w3.org/Graphics/SVG/1.1/DTD/svg11.dtd"><svg t="1577417124589" class="icon" viewBox="0 0 1024 1024" version="1.1" xmlns="http://www.w3.org/2000/svg" p-id="6073" xmlns:xlink="http://www.w3.org/1999/xlink" width="200" height="200"><defs><style type="text/css"></style></defs><path d="M382.94016 22.20032h272.6144v70.03136H382.94016V22.20032zM503.07072 809.8816c0-10.8544 0.78848-21.70368 2.36544-32.15872H362.03008v70.03136h144.19968c-1.97632-12.43648-3.15904-25.05216-3.15904-37.87264z m0 0" fill="#333333" p-id="6074"></path><path d="M512.73728 875.17184h-210.2784V199.3472h433.5872v385.64352a222.93504 222.93504 0 0 1 70.02624 13.6192V129.11616H232.42752v816.27648h316.02176a222.6688 222.6688 0 0 1-35.712-70.2208z m0 0" fill="#333333" p-id="6075"></path><path d="M722.432 613.00736c-109.2864 0-197.6576 88.576-197.6576 197.6576s88.37632 197.85728 197.6576 197.85728 197.65248-88.57088 197.65248-197.6576c0-109.09184-88.3712-197.85728-197.65248-197.85728z m136.30464 232.76544h-272.6144v-70.03136h272.6144v70.03136z m0 0" fill="#333333" p-id="6076"></path></svg>
