<?xml version="1.0" standalone="no"?><!DOCTYPE svg PUBLIC "-//W3C//DTD SVG 1.1//EN" "http://www.w3.org/Graphics/SVG/1.1/DTD/svg11.dtd"><svg class="icon" width="200px" height="200.00px" viewBox="0 0 1024 1024" version="1.1" xmlns="http://www.w3.org/2000/svg"><path fill="#ffffff" d="M512 842.979556c17.123556 0 31.004444 13.880889 31.004444 31.061333v62.008889a31.004444 31.004444 0 1 1-62.008888 0v-62.008889c0-17.180444 13.880889-31.061333 31.004444-31.061333z m277.959111-96.938667l43.804445 43.861333a31.004444 31.004444 0 0 1-43.804445 43.918222l-43.918222-43.861333a31.004444 31.004444 0 0 1 43.861333-43.918222z m-512 0a31.004444 31.004444 0 0 1 0 43.861333l-43.861333 43.918222a31.004444 31.004444 0 0 1-43.918222-43.861333l43.861333-43.918222a31.004444 31.004444 0 0 1 43.918222 0z m658.147556-265.102222a31.004444 31.004444 0 1 1 0 62.065777h-62.065778a31.004444 31.004444 0 0 1 0-62.008888h62.008889z m-786.147556 0a31.004444 31.004444 0 1 1 0 62.065777h-62.008889a31.004444 31.004444 0 0 1 0-62.008888h62.008889z m683.804445-290.702223a31.004444 31.004444 0 0 1 0 43.804445l-43.804445 43.918222a31.004444 31.004444 0 0 1-43.918222-43.861333l43.861333-43.918222a31.004444 31.004444 0 0 1 43.918222 0z m-599.722667 0l43.918222 43.804445a31.004444 31.004444 0 1 1-43.861333 43.918222l-43.918222-43.861333a31.004444 31.004444 0 1 1 43.861333-43.918222zM512 56.888889c17.123556 0 31.004444 13.880889 31.004444 31.004444v62.065778a31.004444 31.004444 0 1 1-62.008888 0v-62.008889C480.995556 70.712889 494.876444 56.888889 512 56.888889z m-0.227556 162.702222A292.920889 292.920889 0 0 0 219.136 512a292.920889 292.920889 0 0 0 292.636444 292.408889A292.920889 292.920889 0 0 0 804.295111 512a292.807111 292.807111 0 0 0-292.522667-292.408889z m0 62.008889A230.741333 230.741333 0 0 1 742.229333 512c0 126.862222-103.537778 230.4-230.456889 230.4A230.855111 230.855111 0 0 1 281.201778 512c0-126.862222 103.537778-230.4 230.570666-230.4z" /></svg>