<?xml version="1.0" standalone="no"?><!DOCTYPE svg PUBLIC "-//W3C//DTD SVG 1.1//EN" "http://www.w3.org/Graphics/SVG/1.1/DTD/svg11.dtd"><svg t="1572859335721" class="icon" viewBox="0 0 1024 1024" version="1.1" xmlns="http://www.w3.org/2000/svg" p-id="10394" xmlns:xlink="http://www.w3.org/1999/xlink" width="200" height="200"><defs><style type="text/css"></style></defs><path d="M600.68864 591.59552c-26.6496 26.6496-55.35232 51.25632-81.9968 71.7568-28.6976-20.50048-55.35232-45.1072-82.00192-71.7568-26.64448-26.64448-51.24096-55.3472-71.74144-81.99168 20.49536-28.6976 45.09696-55.35232 71.74144-81.9968 26.6496-26.6496 55.35232-51.2512 82.00192-71.74656 28.69248 20.49536 55.3472 45.09696 81.9968 71.74656 26.64448 26.64448 51.2512 55.3472 71.75168 81.9968-20.50048 28.6976-45.1072 55.3472-71.75168 81.99168m-311.58784 147.59424c-20.50048-20.49536-16.39936-63.54432 8.19712-118.8864 12.29824-26.65472 26.6496-53.30432 45.10208-82.00704 20.49536 26.6496 43.04896 53.29408 69.69344 77.9008 24.6016 24.6016 51.2512 47.15008 77.90592 69.69344-92.25216 63.54944-172.19584 82.00192-200.89856 53.2992m483.77856-133.23776c-14.34624-30.75072-32.78848-63.54944-55.3472-96.34816 16.39936-22.54848 28.6976-43.04384 41.00096-65.59744 4.096-8.20224 2.048-18.44736-6.14912-22.54336-8.20736-4.10112-18.45248-2.05312-22.54336 6.14912-8.20736 16.39936-20.50048 34.84672-30.75072 51.24608-20.5056-26.64448-43.05408-53.29408-69.69856-77.89568-24.6016-24.6016-51.2512-49.19808-77.9008-69.69856 28.6976-18.44736 55.35232-34.84672 82.00192-45.10208 55.3472-24.59648 98.39616-26.6496 118.89664-8.20224 8.20224 8.20224 12.29824 20.5056 12.29824 34.85696 0 10.24512 8.19712 16.39424 18.45248 16.39424 10.25024 0 16.39424-8.192 16.39424-18.44736 0-24.6016-8.20224-43.04896-22.54336-57.3952-30.75072-30.75072-86.0928-30.75072-155.79136 0-30.75584 14.35136-63.55456 32.79872-96.35328 55.3472-69.69856-49.19808-137.344-77.89056-188.58496-79.94368-10.25536 0-16.39936 8.19712-16.39936 16.39936 0 10.25024 8.19712 16.39936 16.39936 18.44736 40.99584 0 98.39104 24.6016 159.89248 65.59744-26.65472 20.49536-53.2992 43.04896-77.9008 69.69856-24.6016 24.6016-49.19808 51.2512-69.69344 77.89568-34.85696-51.2512-59.45856-102.5024-65.6128-143.49824-2.048-10.25024-10.24-16.39936-20.49536-14.34624-10.24512 2.048-16.39936 10.24-14.34624 20.49536 6.14912 47.14496 34.8416 106.59328 77.89056 166.03648-22.54848 32.79872-43.04896 65.60256-55.3472 96.35328-30.75072 69.69856-30.75072 127.08864 0 155.79136 14.35136 14.35136 36.89472 22.54336 63.54944 22.54336 26.6496 0 57.3952-8.19712 94.29504-22.54336 65.59744-28.6976 137.344-79.95392 202.94144-147.59424 24.59648-24.6016 49.19808-51.2512 69.69344-77.89568 63.54944 92.24704 82.00192 172.19072 53.29408 200.88832-20.49536 20.50048-63.5392 16.39424-118.89664-8.20736-8.20224-4.096-18.45248 0-22.54336 8.20736-4.10112 8.20224 0 18.45248 8.20736 22.54848 34.8416 16.39936 67.64032 22.54336 94.28992 22.54336s47.14496-8.20224 63.54432-22.54336c24.61184-22.54336 24.61184-77.9008-6.144-149.63712m-252.13952-166.05184c38.95296 0 69.69856 30.75584 69.69856 69.69856 0 38.94784-30.7456 69.69856-69.69856 69.69856-38.94784 0-69.69344-30.75072-69.69344-69.69856 0-38.94272 30.7456-69.69856 69.69344-69.69856z m0 104.5504c18.45248 0 34.85184-16.39936 34.85184-34.84672s-16.39424-34.84672-34.85184-34.84672c-18.44736 0-34.84672 16.39936-34.84672 34.84672s14.34624 34.84672 34.84672 34.84672zM264.50432 296.41216c-12.29824 0-22.54848-10.25024-22.54848-22.54848 0-12.30336 10.25024-22.54848 22.54848-22.54848s22.54848 10.24512 22.54848 22.54848c-0.00512 12.29824-10.25024 22.54848-22.54848 22.54848z m479.67744 84.04992c0-12.30336 10.25024-22.54848 22.54848-22.54848s22.54848 10.24512 22.54848 22.54848c0 12.29312-10.25024 22.54848-22.54848 22.54848-14.34624 0-22.54848-8.20736-22.54848-22.54848z m-176.29696 317.73184c12.30336 0 22.5536 10.25024 22.5536 22.54848s-10.25024 22.54336-22.5536 22.54336c-12.29312 0-22.54336-10.24512-22.54336-22.54336s10.25024-22.54848 22.54336-22.54848z m0 0" p-id="10395"></path><path d="M522.78784 979.04128c-26.64448 0-55.3472-2.048-81.9968-8.20736-14.34624-2.048-24.6016-14.34624-22.54848-28.70272 2.05312-14.34112 14.35136-24.59136 28.70272-22.53824h2.048c94.29504 18.44736 192.69632 0 276.736-49.19296 198.84544-114.80064 268.54912-368.99328 153.74848-567.8336-24.6016-45.10208-59.44832-84.0448-98.39616-116.84352-12.30336-8.20736-14.35648-24.6016-4.10112-36.90496 8.19712-12.29824 24.6016-14.34624 36.89984-4.096 200.88832 163.98848 231.63904 459.18208 67.64544 660.07552-36.89984 45.09696-79.94368 81.99168-129.14688 110.68928-69.69344 41.00096-149.632 63.55456-229.59104 63.55456z m-307.48672-125.05088c-6.14912 0-12.29824-2.048-18.45248-6.14912-32.7936-30.75072-59.4432-65.59744-81.9968-104.5504C-14.2848 519.84896 63.60576 232.86272 287.04768 103.71584 364.9536 58.61888 455.1424 38.1184 545.34144 42.21952c14.35648 0 26.6496 12.30336 24.6016 26.6496 0 14.35136-12.29824 26.6496-26.6496 24.6016-229.58592-12.30336-424.33024 163.98848-436.6336 393.58464-2.048 24.6016 0 49.19296 2.048 73.79456 6.14912 55.35232 24.6016 108.65152 53.2992 155.8016 18.44736 34.84672 40.99584 65.59744 69.69856 92.2368 10.24512 10.25536 12.29824 26.65472 2.048 36.90496-4.10112 6.14912-10.25024 8.19712-18.45248 8.19712z m0 0" p-id="10396"></path></svg>
