<?xml version="1.0" standalone="no"?><!DOCTYPE svg PUBLIC "-//W3C//DTD SVG 1.1//EN" "http://www.w3.org/Graphics/SVG/1.1/DTD/svg11.dtd"><svg t="1651218926150" class="icon" viewBox="0 0 1024 1024" version="1.1" xmlns="http://www.w3.org/2000/svg" p-id="5021" xmlns:xlink="http://www.w3.org/1999/xlink" width="200" height="200"><defs><style type="text/css">@font-face { font-family: feedback-iconfont; src: url("//at.alicdn.com/t/font_1031158_u69w8yhxdu.woff2?t=1630033759944") format("woff2"), url("//at.alicdn.com/t/font_1031158_u69w8yhxdu.woff?t=1630033759944") format("woff"), url("//at.alicdn.com/t/font_1031158_u69w8yhxdu.ttf?t=1630033759944") format("truetype"); }
</style></defs><path d="M511.8704 0.00192c107.583664 0 208.767348 41.855869 284.79911 117.951631l109.375659 109.375659A399.93475 399.93475 0 0 1 1023.9968 512.00032c0 107.519664-41.919869 208.639348-117.951631 284.73511l-109.375659 109.311659A400.12675 400.12675 0 0 1 511.8704 1023.99872a399.99875 399.99875 0 0 1-284.67111-117.951631l-109.439658-109.375659a403.006741 403.006741 0 0 1 0-569.34222l109.439658-109.439658A399.99875 399.99875 0 0 1 511.806401 0.00192z m0 85.311733a315.327015 315.327015 0 0 0-224.383298 92.92771l-109.375659 109.439658a317.631007 317.631007 0 0 0 0 448.638598l109.439658 109.439658a315.327015 315.327015 0 0 0 224.383299 92.92771c84.735735 0 164.479486-33.023897 224.383299-92.92771l109.439658-109.439658A315.263015 315.263015 0 0 0 938.557067 512.00032c0-84.735735-32.959897-164.479486-92.92771-224.383299l-109.375658-109.375658A315.391014 315.391014 0 0 0 511.9984 85.313653z m99.775689 540.478311a42.687867 42.687867 0 1 1 0 85.311734H440.958622a42.687867 42.687867 0 1 1 0-85.311734h170.687467z m85.247733-170.687466a42.687867 42.687867 0 1 1 0 85.311733H355.582889a42.687867 42.687867 0 1 1 0-85.311733h341.310933zM611.582089 284.417031a42.687867 42.687867 0 1 1 0 85.375733H440.894622a42.687867 42.687867 0 1 1 0-85.375733h170.687467z" p-id="5022"></path></svg>