<?xml version="1.0" standalone="no"?><!DOCTYPE svg PUBLIC "-//W3C//DTD SVG 1.1//EN" "http://www.w3.org/Graphics/SVG/1.1/DTD/svg11.dtd"><svg class="icon" width="200px" height="200.00px" viewBox="0 0 1024 1024" version="1.1" xmlns="http://www.w3.org/2000/svg"><path fill="#ffffff" d="M534.007549 459.599514c-124.00998 0-224.937624-103.077218-224.937624-229.799757C309.069925 103.077218 409.997569 0 534.007549 0c124.061161 0 224.988804 103.077218 224.988804 229.799757 0 126.722539-100.927644 229.799757-224.988804 229.799757z m0-367.679611c-74.416224 0-134.962574 61.877039-134.962574 137.879854 0 76.053995 60.54635 137.879854 134.962574 137.879854 74.467405 0 135.013755-61.825859 135.013755-137.879854 0-76.002815-60.54635-137.879854-135.013755-137.879854zM453.756765 1023.606935c-135.83264 0-259.996161-5.476297-325.199923-71.754846-28.558633-29.070437-43.042672-66.739172-43.042671-111.931419 0-45.448148 14.381677-90.230951 42.786769-133.120081 25.283091-38.180539 60.392809-72.880814 104.203186-103.179579C319.254814 543.688823 429.139019 509.24445 534.007549 509.24445c104.81735 0 214.496833 34.393193 300.940439 94.37656 43.656836 30.298765 78.510652 64.99904 103.691382 103.230759 28.200371 42.83795 42.479688 87.620754 42.479688 133.017721 0 45.294607-14.484038 83.065703-43.093852 112.18732-71.294223 72.522551-213.422046 71.959568-363.994626 71.396584-26.664961-0.102361-53.329921-0.102361-79.994882 0L453.756765 1023.606935z m80.250784-92.124624c13.460431 0 26.920862 0 40.381294 0.10236 69.605272 0.255902 135.372017 0.511803 190.902693-6.346363 54.046446-6.653445 90.793935-19.499712 109.21886-38.282899 7.165249-7.267609 16.633613-20.062696 16.633613-47.085919 0-54.66061-38.897064-113.108566-106.762204-160.194485a449.363444 449.363444 0 0 0-250.374256-78.459472c-177.595803 0-358.518329 120.478536-358.518329 238.705137 0 26.818502 9.468364 39.562408 16.582432 46.830018 45.038705 45.80641 181.383149 45.294607 301.605784 44.833983l40.330113-0.10236z"  /></svg>