<?xml version="1.0" standalone="no"?><!DOCTYPE svg PUBLIC "-//W3C//DTD SVG 1.1//EN" "http://www.w3.org/Graphics/SVG/1.1/DTD/svg11.dtd"><svg t="1653962836183" class="icon" viewBox="0 0 1024 1024" version="1.1" xmlns="http://www.w3.org/2000/svg" p-id="7906" xmlns:xlink="http://www.w3.org/1999/xlink" width="200" height="200"><defs><style type="text/css">@font-face { font-family: feedback-iconfont; src: url("//at.alicdn.com/t/font_1031158_u69w8yhxdu.woff2?t=1630033759944") format("woff2"), url("//at.alicdn.com/t/font_1031158_u69w8yhxdu.woff?t=1630033759944") format("woff"), url("//at.alicdn.com/t/font_1031158_u69w8yhxdu.ttf?t=1630033759944") format("truetype"); }
</style></defs><path d="M341.312 853.312a85.312 85.312 0 1 0 0 170.688 85.312 85.312 0 0 0 0-170.688z m0-426.624a85.312 85.312 0 1 0 0 170.624 85.312 85.312 0 0 0 0-170.624z m0-426.688a85.312 85.312 0 1 0 0 170.688 85.312 85.312 0 0 0 0-170.688z m341.376 853.312a85.312 85.312 0 1 0 0 170.688 85.312 85.312 0 0 0 0-170.688z m0-426.624a85.312 85.312 0 1 0 0 170.624 85.312 85.312 0 0 0 0-170.624z m0-426.688a85.312 85.312 0 1 0 0 170.688 85.312 85.312 0 0 0 0-170.688z" p-id="7907"></path></svg>