<?xml version="1.0" standalone="no"?><!DOCTYPE svg PUBLIC "-//W3C//DTD SVG 1.1//EN" "http://www.w3.org/Graphics/SVG/1.1/DTD/svg11.dtd"><svg t="1604719930655" class="icon" viewBox="0 0 1024 1024" version="1.1" xmlns="http://www.w3.org/2000/svg" p-id="7575" xmlns:xlink="http://www.w3.org/1999/xlink" width="200" height="200"><defs><style type="text/css"></style></defs><path d="M427.712 423.424l-174.848-46.848 212.608-205.44z" fill="#FFFFFF" p-id="7576"></path><path d="M427.712 312.576l174.848 46.848L382.08 556.8z" fill="#FFFFFF" p-id="7577"></path><path d="M224 640m19.2 0l57.6 0q19.2 0 19.2 19.2l0 153.6q0 19.2-19.2 19.2l-57.6 0q-19.2 0-19.2-19.2l0-153.6q0-19.2 19.2-19.2Z" fill="#FFFFFF" opacity=".5" p-id="7578"></path><path d="M384 640m19.2 0l57.6 0q19.2 0 19.2 19.2l0 153.6q0 19.2-19.2 19.2l-57.6 0q-19.2 0-19.2-19.2l0-153.6q0-19.2 19.2-19.2Z" fill="#FFFFFF" opacity=".5" p-id="7579"></path><path d="M544 640m19.2 0l57.6 0q19.2 0 19.2 19.2l0 153.6q0 19.2-19.2 19.2l-57.6 0q-19.2 0-19.2-19.2l0-153.6q0-19.2 19.2-19.2Z" fill="#FFFFFF" opacity=".5" p-id="7580"></path><path d="M848 192m48 0l0 0q48 0 48 48l0 544q0 48-48 48l0 0q-48 0-48-48l0-544q0-48 48-48Z" fill="#FFFFFF" p-id="7581"></path></svg>