<?xml version="1.0" standalone="no"?><!DOCTYPE svg PUBLIC "-//W3C//DTD SVG 1.1//EN" "http://www.w3.org/Graphics/SVG/1.1/DTD/svg11.dtd"><svg class="icon" width="200px" height="187.55px" viewBox="0 0 1092 1024" version="1.1" xmlns="http://www.w3.org/2000/svg"><path fill="#ffffff" d="M543.1296 181.179733c10.103467 33.450667 42.325333 55.159467 76.663467 55.159467h327.133866c0-43.349333-36.386133-78.779733-80.759466-78.779733h-331.093334l8.055467 23.620266z m-32.3584-102.4h355.396267c88.746667 0 161.518933 70.8608 161.518933 157.559467v31.470933c38.365867 29.559467 64.580267 74.820267 64.580267 126.020267v472.610133C1092.266667 953.1392 1019.562667 1024 930.747733 1024H161.518933C72.704 1024 0 953.1392 0 866.440533V157.559467C0 70.8608 72.704 0 161.518933 0h207.940267c58.5728 0 113.0496 31.5392 141.312 78.779733z m-141.312 0H161.518933c-44.373333 0-80.759467 35.498667-80.759466 78.779734v708.881066c0 43.349333 36.317867 78.779733 80.759466 78.779734h767.1808c44.4416 0 80.759467-35.498667 80.759467-78.779734V393.898667c0-43.281067-36.317867-78.779733-80.759467-78.779734H623.957333C553.233067 315.050667 490.632533 269.789867 470.357333 204.8l-24.234666-70.8608c-10.103467-33.450667-40.3456-55.159467-76.731734-55.159467zM242.346667 748.3392h323.037866c22.186667 0 40.3456 17.749333 40.3456 39.3216a40.004267 40.004267 0 0 1-40.3456 39.389867H242.2784a40.004267 40.004267 0 0 1-40.413867-39.389867c0-21.640533 18.2272-39.3216 40.413867-39.3216z" /></svg>