<?xml version="1.0" standalone="no"?><!DOCTYPE svg PUBLIC "-//W3C//DTD SVG 1.1//EN" "http://www.w3.org/Graphics/SVG/1.1/DTD/svg11.dtd"><svg t="1598499096060" class="icon" viewBox="0 0 1024 1024" version="1.1" xmlns="http://www.w3.org/2000/svg" p-id="6536" xmlns:xlink="http://www.w3.org/1999/xlink" width="128" height="128"><defs><style type="text/css"></style></defs><path d="M924.509759 0.096635H105.454419A101.100771 101.100771 0 0 0 2.962688 102.588365v812.613003a102.49173 102.49173 0 0 0 102.491731 108.787651h812.613002a101.100771 101.100771 0 0 0 102.491731-102.49173V102.588365A92.388974 92.388974 0 0 0 924.509759 0.096635z m31.992061 863.858868a87.850054 87.850054 0 0 1-89.680264 89.680264H162.922996A87.850054 87.850054 0 0 1 73.389149 863.955503V160.056942A87.850054 87.850054 0 0 1 162.922996 70.523095H866.821556a87.850054 87.850054 0 0 1 89.607056 89.607056z" p-id="6537"></path><path d="M675.528063 707.948448H354.289698a35.140022 35.140022 0 0 1-35.286439-35.286438V351.423644a35.140022 35.140022 0 0 1 35.286439-35.286438h325.191617a34.554355 34.554355 0 0 1 31.333186 35.286438v325.191618a34.554355 34.554355 0 0 1-35.286438 31.333186z" p-id="6538"></path></svg>