<?xml version="1.0" standalone="no"?><!DOCTYPE svg PUBLIC "-//W3C//DTD SVG 1.1//EN" "http://www.w3.org/Graphics/SVG/1.1/DTD/svg11.dtd"><svg class="icon" width="200px" height="183.35px" viewBox="0 0 1117 1024" version="1.1" xmlns="http://www.w3.org/2000/svg"><path fill="#ffffff" d="M676.375273 0a65.536 65.536 0 0 0-65.466182 65.466182v52.363636h-39.284364a109.218909 109.218909 0 0 0-109.079272 109.079273v635.648h-164.584728a83.991273 83.991273 0 0 1-83.898182-83.898182V739.607273a21.806545 21.806545 0 1 0-43.636363 0v39.028363a127.674182 127.674182 0 0 0 127.534545 127.534546h164.584728v8.704A109.218909 109.218909 0 0 0 571.648 1024h436.363636A109.218909 109.218909 0 0 0 1117.090909 914.897455V226.909091a109.218909 109.218909 0 0 0-109.102545-109.102546h-39.261091v-52.363636A65.536 65.536 0 0 0 903.261091 0h-226.909091z m-21.829818 65.466182c0-12.055273 9.774545-21.829818 21.829818-21.829818h226.909091c12.032 0 21.806545 9.774545 21.806545 21.829818v52.363636H654.545455v-52.363636z m-148.363637 849.454545V226.909091a65.536 65.536 0 0 1 65.466182-65.466182h436.363636a65.512727 65.512727 0 0 1 65.442909 65.466182v688.011636a65.512727 65.512727 0 0 1-65.466181 65.442909h-436.363637a65.536 65.536 0 0 1-65.442909-65.466181zM222.487273 235.380364H161.442909V167.749818l-0.046545-1.908363a50.222545 50.222545 0 0 0-50.152728-48.267637 50.222545 50.222545 0 0 0-50.176 50.176v67.816727l-2.117818 0.16291A65.536 65.536 0 0 0 0 300.846545c0 26.810182 16.197818 49.896727 39.330909 59.997091v144.290909l0.046546 2.234182a75.310545 75.310545 0 0 0 75.194181 73.006546h154.856728l2.234181-0.046546a75.333818 75.333818 0 0 0 72.983273-75.194182v-144.290909l2.094546-0.930909a65.559273 65.559273 0 0 0 37.259636-59.066182 65.512727 65.512727 0 0 0-61.137455-65.28V167.749818l-0.023272-1.908363a50.222545 50.222545 0 0 0-50.176-48.267637 50.222545 50.222545 0 0 0-50.152728 50.176v67.653818z m43.706182-68.538182a6.539636 6.539636 0 0 1 13.032727 0.884363v67.653819h-13.102546V167.749818l0.069819-0.884363z m-161.466182 0a6.539636 6.539636 0 0 1 13.032727 0.884363v67.653819h-13.079273V167.749818L104.727273 166.865455z m-40.704 155.764363a21.853091 21.853091 0 0 1 1.442909-43.589818h253.090909a21.853091 21.853091 0 0 1 0 43.636364H65.442909l-1.419636-0.046546z m48.872727 214.062546a31.650909 31.650909 0 0 1-29.928727-31.557818V366.312727h218.065454v138.821818l-0.046545 1.675637a31.650909 31.650909 0 0 1-31.557818 29.905454H114.571636l-1.675636-0.023272z m698.507636-216.040727l-181.666909 277.294545a21.829818 21.829818 0 0 0 18.269091 33.792h80.151273v177.477818a21.806545 21.806545 0 0 0 40.075636 11.938909l181.666909-277.527272a21.806545 21.806545 0 0 0-18.269091-33.745455h-80.151272v-177.268364a21.806545 21.806545 0 0 0-40.075637-11.962181z m-3.560727 211.037091c0 12.032 9.774545 21.806545 21.806546 21.806545h61.626181l-119.458909 182.528v-126.114909a21.806545 21.806545 0 0 0-21.829818-21.806546h-61.602909l119.458909-182.36509v125.952zM117.853091 451.490909c0 12.055273 9.774545 21.806545 21.829818 21.806546h104.634182a21.806545 21.806545 0 1 0 0-43.636364H139.682909a21.806545 21.806545 0 0 0-21.829818 21.829818z m52.573091 195.397818c0 5.725091 2.327273 11.357091 6.376727 15.429818a21.992727 21.992727 0 0 0 15.429818 6.376728c5.748364 0 11.380364-2.327273 15.429818-6.376728a21.992727 21.992727 0 0 0 6.4-15.429818c0-5.725091-2.327273-11.380364-6.4-15.429818a21.992727 21.992727 0 0 0-15.429818-6.4 21.876364 21.876364 0 0 0-21.829818 21.829818z"  /></svg>