<?xml version="1.0" standalone="no"?><!DOCTYPE svg PUBLIC "-//W3C//DTD SVG 1.1//EN" "http://www.w3.org/Graphics/SVG/1.1/DTD/svg11.dtd"><svg class="icon" width="200px" height="200.00px" viewBox="0 0 1024 1024" version="1.1" xmlns="http://www.w3.org/2000/svg"><path fill="#333333" d="M511.530835 1022.761404A512.553615 512.553615 0 0 1 0.478549 511.746651 512.553615 512.553615 0 0 1 511.530835 0.656831a508.987959 508.987959 0 0 1 300.265738 95.822304 31.565436 31.565436 0 0 1 6.380647 44.720828 31.565436 31.565436 0 0 1-44.720829 6.399414 426.640081 426.640081 0 0 0-261.925556-83.06101 444.430826 444.430826 0 0 0-447.170751 447.208284 444.412059 444.412059 0 0 0 447.170751 447.133217 444.412059 444.412059 0 0 0 447.17075-447.133217 466.143792 466.143792 0 0 0-57.500889-223.622909 33.779896 33.779896 0 0 1 12.780061-44.739595 33.779896 33.779896 0 0 1 44.720828 12.780061 581.577202 581.577202 0 0 1 63.80647 255.526143 512.553615 512.553615 0 0 1-510.97722 511.071053z m0 0M717.062733 299.608907h-41.943371v-16.777348a15.857784 15.857784 0 0 0-16.777348-16.777348h-33.554696a15.857784 15.857784 0 0 0-16.777348 16.777348v16.777348h-201.365711v-16.777348a15.857784 15.857784 0 0 0-16.777348-16.777348h-33.554696a15.857784 15.857784 0 0 0-16.777348 16.777348v16.777348h-41.943371a41.549272 41.549272 0 0 0-41.962137 41.962137v318.807147a41.549272 41.549272 0 0 0 41.943371 41.94337h419.490003a41.549272 41.549272 0 0 0 41.94337-41.94337V341.571044a41.549272 41.549272 0 0 0-41.94337-41.962137z m-8.388675 352.38061H305.961404V349.959718h402.712654zM490.531 618.434821l100.682855-134.237552h-67.128159v-100.682855l-100.664089 134.237552h67.109393z" /></svg>