<?xml version="1.0" standalone="no"?><!DOCTYPE svg PUBLIC "-//W3C//DTD SVG 1.1//EN" "http://www.w3.org/Graphics/SVG/1.1/DTD/svg11.dtd"><svg t="1617938395527" class="icon" viewBox="0 0 1024 1024" version="1.1" xmlns="http://www.w3.org/2000/svg" p-id="806" xmlns:xlink="http://www.w3.org/1999/xlink" width="200" height="200"><defs><style type="text/css"></style></defs><path d="M643.648 0c-34.368 0-60.16 25.6-60.16 59.712 0 34.176 28.672 59.776 60.16 59.776 34.368 0 60.16-25.6 60.16-59.776C706.688 25.6 678.016 0 643.648 0z m0 301.504c-34.368 0-60.16 25.6-60.16 59.712 0 34.176 28.672 59.776 60.16 59.776 34.368 0 60.16-25.6 60.16-59.776 2.88-34.112-25.792-59.712-60.16-59.712z m0 301.504c-34.368 0-60.16 25.6-60.16 59.776 0 34.112 28.672 59.712 60.16 59.712 34.368 0 60.16-25.6 60.16-59.712 2.88-34.176-25.792-59.776-60.16-59.776-31.488 0 0 0 0 0z m0 301.504c-34.368 0-60.16 25.6-60.16 59.776 0 34.112 28.672 59.712 60.16 59.712 34.368 0 60.16-25.6 60.16-59.712 2.88-34.176-25.792-59.776-60.16-59.776-31.488 0 0 0 0 0zM380.16 0C348.672 0 320 25.6 320 59.712c0 34.176 28.672 59.776 60.16 59.776 34.368 0 60.16-25.6 60.16-59.776C443.136 25.6 414.528 0 380.16 0z m0 301.504c-34.368 0-60.16 25.6-60.16 59.712 0 34.176 28.672 59.776 60.16 59.776 34.368 0 60.16-25.6 60.16-59.776 2.816-34.112-25.792-59.712-60.16-59.712z m0 301.504c-34.368 0-60.16 25.6-60.16 59.776 0 34.112 28.672 59.712 60.16 59.712 34.368 0 60.16-25.6 60.16-59.712 2.816-34.176-25.792-59.776-60.16-59.776z m0 301.504c-34.368 0-60.16 25.6-60.16 59.776 0 34.112 28.672 59.712 60.16 59.712 34.368 0 60.16-25.6 60.16-59.712 2.816-34.176-25.792-59.776-60.16-59.776z" p-id="807"></path></svg>