<?xml version="1.0" standalone="no"?><!DOCTYPE svg PUBLIC "-//W3C//DTD SVG 1.1//EN" "http://www.w3.org/Graphics/SVG/1.1/DTD/svg11.dtd"><svg class="icon" width="200px" height="194.49px" viewBox="0 0 1053 1024" version="1.1" xmlns="http://www.w3.org/2000/svg"><path fill="#333333" d="M526.484754 692.544325a46.039526 46.039526 0 0 0 46.039525-46.039525V305.87013a46.039526 46.039526 0 1 0-92.006776 0v340.706945a46.039526 46.039526 0 0 0 46.039526 46.039526z m0 59.555054a65.047995 65.047995 0 1 0 45.894974 19.00847 65.409373 65.409373 0 0 0-45.894974-19.00847z m0 0M960.933088 1024H91.964144a89.766234 89.766234 0 0 1-79.503106-50.159232 107.473744 107.473744 0 0 1 0-100.39074L446.909372 50.52061a88.031621 88.031621 0 0 1 159.006212 0l434.520609 822.929418a107.401468 107.401468 0 0 1 0 100.39074 89.766234 89.766234 0 0 1-79.503105 50.159232zM526.412478 77.696217a20.30943 20.30943 0 0 0-18.213439 11.491812L73.678429 912.117448a24.429136 24.429136 0 0 0 0 22.983625 20.598532 20.598532 0 0 0 18.213439 11.491812h869.04122a20.598532 20.598532 0 0 0 18.213439-11.491812 24.429136 24.429136 0 0 0 0-22.983625L544.625917 89.260305a20.237154 20.237154 0 0 0-18.213439-11.491813z m0 0" /></svg>