<?xml version="1.0" standalone="no"?><!DOCTYPE svg PUBLIC "-//W3C//DTD SVG 1.1//EN" "http://www.w3.org/Graphics/SVG/1.1/DTD/svg11.dtd"><svg t="1604899567387" class="icon" viewBox="0 0 1053 1024" version="1.1" xmlns="http://www.w3.org/2000/svg" p-id="2176" xmlns:xlink="http://www.w3.org/1999/xlink" width="205.6640625" height="200"><defs><style type="text/css"></style></defs><path d="M526.601047 692.420768a46.061034 46.061034 0 0 0 46.000823-46.000823v-340.791439a46.000823 46.000823 0 1 0-92.061857 0v340.791439a46.061034 46.061034 0 0 0 46.000823 46.000823z m0 59.548186a64.967131 64.967131 0 1 0 45.940612 19.026518 65.448815 65.448815 0 0 0-45.940612-19.026518z" p-id="2177"></path><path d="M961.200447 1024H92.001646a89.773858 89.773858 0 0 1-79.538072-50.215558 107.475745 107.475745 0 0 1 0-100.431117L447.062974 50.215558a88.087964 88.087964 0 0 1 159.076145 0l434.5994 823.137767a107.475745 107.475745 0 0 1 0 100.431117 89.773858 89.773858 0 0 1-79.538072 50.215558zM526.601047 77.430705a20.290939 20.290939 0 0 0-18.063151 11.500206L73.938496 912.068678a24.445464 24.445464 0 0 0 0 23.000411 20.591992 20.591992 0 0 0 18.06315 11.500206h869.198801a20.591992 20.591992 0 0 0 18.06315-11.500206 24.445464 24.445464 0 0 0 0-23.000411L544.664197 88.930911a20.290939 20.290939 0 0 0-18.06315-11.500206z" p-id="2178"></path></svg>