<?xml version="1.0" standalone="no"?><!DOCTYPE svg PUBLIC "-//W3C//DTD SVG 1.1//EN" "http://www.w3.org/Graphics/SVG/1.1/DTD/svg11.dtd"><svg t="1604899583110" class="icon" viewBox="0 0 1626 1024" version="1.1" xmlns="http://www.w3.org/2000/svg" p-id="2554" xmlns:xlink="http://www.w3.org/1999/xlink" width="317.578125" height="200"><defs><style type="text/css"></style></defs><path d="M425.481896 239.303699l199.121067-199.320189 200.435267 187.572046-59.338078 63.479796-139.026329-130.14553-139.822814 139.822814z" p-id="2555"></path><path d="M486.930658 283.309454l-44.125229-43.806634 182.195777-182.195777 182.832963 171.244118-42.532259 45.5589-138.867033-129.986233z" p-id="2556"></path><path d="M0 545.631548l332.014467-335.041107 280.282815 272.477268L1095.404815-0.039824l524.524715 530.060281-61.727531 61.090343L1095.086221 123.096644l-481.872983 481.872982-279.96422-272.198499-271.561311 273.91094z" p-id="2557"></path><path d="M61.408937 589.31871l-44.125228-43.806634 314.890055-317.558278 280.282814 272.477268L1095.404815 17.48283l507.041885 512.457978-44.284525 43.806635L1095.046397 105.733287l-481.872983 482.151752-280.123517-272.357796z m1565.091588 37.912652v95.219694H7.606425V627.231362z" p-id="2558"></path><path d="M23.81488 647.82048h1585.003694v59.73632H23.81488z m935.869015 122.220511v95.219694H182.195776v-95.219694z" p-id="2559"></path><path d="M182.03648 800.825108h772.58974v59.73632h-772.58974zM1197.91234 944.630343v79.369657H372.635165V944.630343z" p-id="2560"></path><path d="M392.14903 958.40952h782.107727v59.736321H392.14903z m1075.532532-188.368529v95.219694h-396.768639v-95.219694z" p-id="2561"></path><path d="M1086.802785 800.825108h367.736786v59.73632H1086.802785z" p-id="2562"></path></svg>