<?xml version="1.0" standalone="no"?><!DOCTYPE svg PUBLIC "-//W3C//DTD SVG 1.1//EN" "http://www.w3.org/Graphics/SVG/1.1/DTD/svg11.dtd"><svg t="1605252618167" class="icon" viewBox="0 0 1024 1024" version="1.1" xmlns="http://www.w3.org/2000/svg" p-id="3447" xmlns:xlink="http://www.w3.org/1999/xlink" width="200" height="200"><defs><style type="text/css"></style></defs><path d="M781.841711 901.183185a38.977555 38.977555 0 1 1-53.707675-14.295719 39.490937 39.490937 0 0 1 53.707675 14.295719z m-230.5086 83.325878a39.490937 39.490937 0 0 1-78.981875 0v-27.406711a39.490937 39.490937 0 0 1 78.981875 0zM309.964503 940.279213a39.490937 39.490937 0 0 1-68.200849-39.2145l29.104821-50.903818a40.201774 40.201774 0 0 1 54.221057-14.493174 39.490937 39.490937 0 0 1 14.019282 53.707674l-29.10482 50.903818z m-187.305515-157.963748a39.490937 39.490937 0 0 1-53.707675-14.493174 39.096028 39.096028 0 0 1 14.019283-53.707675l78.192056-45.296105a39.490937 39.490937 0 1 1 39.2145 68.200849zM39.451583 551.056537a39.253992 39.253992 0 0 1 0-78.507983h121.829541a39.253992 39.253992 0 0 1 0 78.507983z m43.440031-241.724026a38.3457 38.3457 0 0 1-13.821828-53.391747 38.977555 38.977555 0 0 1 53.747166-14.532665l132.373621 76.928345a39.056537 39.056537 0 1 1-39.096028 67.608485l-133.044967-76.612418z m158.87204-187.226533l92.211339 160.13575a39.293482 39.293482 0 1 0 67.924411-39.490937L309.293157 82.970459a39.017046 39.017046 0 0 0-67.490012 39.096028z m230.824528-82.57555a39.490937 39.490937 0 1 1 78.981874 0v184.422677a39.846356 39.846356 0 0 1-39.688392 39.688391 39.490937 39.490937 0 0 1-39.096027-39.688391v-184.422677z m241.329117 43.440031a39.490937 39.490937 0 0 1 53.707674-14.493174 38.740609 38.740609 0 0 1 14.690629 53.747165l-92.408793 160.09626a39.490937 39.490937 0 0 1-53.707675 14.493174 39.964828 39.964828 0 0 1-14.295719-54.023602l92.013884-159.819823z m187.818897 158.398149l-160.293714 92.408793a39.490937 39.490937 0 0 0-14.493174 53.707674 40.280756 40.280756 0 0 0 53.707674 14.295719l160.412187-92.408792a39.332973 39.332973 0 0 0-39.490937-68.003394z m82.417586 231.100964a39.253992 39.253992 0 0 1 0 78.507983h-184.620132a39.253992 39.253992 0 0 1 0-78.507983h184.620132z" p-id="3448"></path></svg>