<?xml version="1.0" standalone="no"?><!DOCTYPE svg PUBLIC "-//W3C//DTD SVG 1.1//EN" "http://www.w3.org/Graphics/SVG/1.1/DTD/svg11.dtd"><svg t="1597909991444" class="icon" viewBox="0 0 1088 1024" version="1.1" xmlns="http://www.w3.org/2000/svg" p-id="1716" xmlns:xlink="http://www.w3.org/1999/xlink" width="212.5" height="200"><defs><style type="text/css"></style></defs><path d="M483.310656 493.500071a246.641637 246.641637 0 1 0-245.702187-246.569372 246.424841 246.424841 0 0 0 245.702187 246.569372z m0-448.045166a201.475794 201.475794 0 1 1-200.536344 201.475794A201.258998 201.258998 0 0 1 483.310656 45.454905z m355.545519 477.457163a249.821313 249.821313 0 1 0 249.026394 249.821312 249.676782 249.676782 0 0 0-249.026394-249.821312z m0 454.404516a204.655469 204.655469 0 1 1 203.86055-204.655469 204.438673 204.438673 0 0 1-203.86055 204.655469z m0 0" fill="#FFFFFF" p-id="1717"></path><path d="M661.444742 562.730275a542.351447 542.351447 0 0 0-216.29019-53.620889 446.599859 446.599859 0 0 0-445.082287 446.599859h45.599436a400.928158 400.928158 0 0 1 399.555116-401.144954 494.728582 494.728582 0 0 1 193.598871 47.622865z m185.432887 104.351165h-45.599436v164.331404h154.792379v-45.599435h-109.048413z m0 0" fill="#FFFFFF" p-id="1718"></path></svg>