<?xml version="1.0" standalone="no"?><!DOCTYPE svg PUBLIC "-//W3C//DTD SVG 1.1//EN" "http://www.w3.org/Graphics/SVG/1.1/DTD/svg11.dtd"><svg t="1604899587141" class="icon" viewBox="0 0 1365 1024" version="1.1" xmlns="http://www.w3.org/2000/svg" p-id="2686" xmlns:xlink="http://www.w3.org/1999/xlink" width="266.6015625" height="200"><defs><style type="text/css"></style></defs><path d="M1280.01772 159.692116V85.41012H85.33924v82.362289l579.583858 394.942065a2.97695 2.97695 0 0 0 3.473109 0l606.872569-400.328927a43.307538 43.307538 0 0 1 4.678064-2.622551z m0 101.854226l-564.202949 372.047899a88.032671 88.032671 0 0 1-99.231674 0l-531.598256-362.266491v667.616529h1195.032879zM85.33924 0h1194.67848a85.055721 85.055721 0 0 1 85.055721 85.055721v853.32152a85.055721 85.055721 0 0 1-85.055721 85.055721H85.33924a85.055721 85.055721 0 0 1-85.055721-85.055721V85.33924a85.055721 85.055721 0 0 1 85.055721-85.055721z" p-id="2687"></path></svg>