<?xml version="1.0" standalone="no"?><!DOCTYPE svg PUBLIC "-//W3C//DTD SVG 1.1//EN" "http://www.w3.org/Graphics/SVG/1.1/DTD/svg11.dtd"><svg t="1604562170260" class="icon" viewBox="0 0 1113 1024" version="1.1" xmlns="http://www.w3.org/2000/svg" p-id="2117" xmlns:xlink="http://www.w3.org/1999/xlink" width="217.3828125" height="200"><defs><style type="text/css"></style></defs><path d="M1024.290703 934.899645H89.100355a44.550177 44.550177 0 1 0 0 89.100355h935.190348a44.550177 44.550177 0 0 0 0-89.100355z m89.100354-356.110717a555.16934 555.16934 0 0 0-177.982682-407.92846l-37.573315 88.664301a463.888715 463.888715 0 0 1 99.274947 475.008091 47.02115 47.02115 0 0 0 49.492122 44.550178c24.564372 0 37.427963-20.494535 44.550178-44.550178a552.334989 552.334989 0 0 0 22.166075-155.889283zM116.28105 734.750887a466.287012 466.287012 0 0 1 558.948474-607.786515l61.192903-75.001278a556.622853 556.622853 0 0 0-714.111 682.642442c9.665862 27.616749 19.985806 44.550177 44.550177 44.550177a48.838041 48.838041 0 0 0 49.419446-44.404826z m306.763946-188.956707a144.769908 144.769908 0 1 0 272.533712-67.733712l187.503194-447.24599c15.189212-36.337828 7.267566-40.625692-17.587509-9.811213L558.294393 401.533002A144.551881 144.551881 0 0 0 422.972321 545.721505z m200.366785 0a55.669553 55.669553 0 1 1-55.669552-55.669553 55.669553 55.669553 0 0 1 55.742228 55.160824z" p-id="2118" fill="#ffffff"></path></svg>