<?xml version="1.0" standalone="no"?><!DOCTYPE svg PUBLIC "-//W3C//DTD SVG 1.1//EN" "http://www.w3.org/Graphics/SVG/1.1/DTD/svg11.dtd"><svg class="icon" width="200px" height="200.00px" viewBox="0 0 1024 1024" version="1.1" xmlns="http://www.w3.org/2000/svg"><path fill="#333333" d="M511.530835 1022.761404A512.553615 512.553615 0 0 1 0.478549 511.746651 512.553615 512.553615 0 0 1 511.530835 0.656831a508.987959 508.987959 0 0 1 300.265738 95.822304 31.565436 31.565436 0 0 1 6.380647 44.720828 31.565436 31.565436 0 0 1-44.720829 6.399414 426.640081 426.640081 0 0 0-261.925556-83.06101 444.430826 444.430826 0 0 0-447.170751 447.208284 444.412059 444.412059 0 0 0 447.170751 447.133217 444.412059 444.412059 0 0 0 447.17075-447.133217 466.143792 466.143792 0 0 0-57.500889-223.622909 33.779896 33.779896 0 0 1 12.780061-44.739595 33.779896 33.779896 0 0 1 44.720828 12.780061 581.577202 581.577202 0 0 1 63.80647 255.526143 512.553615 512.553615 0 0 1-510.97722 511.071053z m0 0M671.234674 454.208229h-63.806469c-12.78006 0-51.101475 6.380647-63.806469 0 0-6.380647 6.380647-25.560121 6.380646-31.903235 6.380647-25.560121 12.78006-44.720828 19.160708-70.262183l31.903235-102.20295c0-19.160707-19.160707-25.560121-25.560121-12.780061l-229.966023 319.407679c-6.380647 6.380647 0 19.160707 12.780061 19.160708h89.441657c6.399414 0 31.903235-6.380647 38.340181 0a144.859452 144.859452 0 0 0-6.380647 25.560121c-19.160707 63.806469-31.903235 121.382425-51.101475 185.26396-6.380647 12.78006 12.78006 19.160707 19.160707 6.380647l229.966022-319.407679a12.235829 12.235829 0 0 0-6.380646-19.160707z m0 0" /></svg>