<?xml version="1.0" standalone="no"?><!DOCTYPE svg PUBLIC "-//W3C//DTD SVG 1.1//EN" "http://www.w3.org/Graphics/SVG/1.1/DTD/svg11.dtd"><svg class="icon" width="200px" height="196.55px" viewBox="0 0 1042 1024" version="1.1" xmlns="http://www.w3.org/2000/svg"><path fill="#333333" d="M521.574812 1024C234.805313 1024 0.187666 793.604795 0.187666 512.014825S234.767781 0.010885 521.574812 0.010885a525.816018 525.816018 0 0 1 306.30533 96.008949c13.042654 12.798691 19.554598 31.902896 6.511944 44.795418a32.597253 32.597253 0 0 1-45.621141 6.399346A440.729119 440.729119 0 0 0 521.574812 64.00434a449.380434 449.380434 0 0 0-456.211407 447.991719 449.380434 449.380434 0 0 0 456.211407 447.991719 449.361667 449.361667 0 0 0 456.211406-447.991719 460.396316 460.396316 0 0 0-58.663795-223.99586 33.404208 33.404208 0 0 1 13.023888-44.795418 34.717857 34.717857 0 0 1 45.621141 12.798691 574.25212 574.25212 0 0 1 65.175739 255.992587c0 281.589969-234.580114 511.985175-521.368379 511.985175z m0 0M840.341037 714.147818H226.454261a14.731631 14.731631 0 0 1-15.013127-14.506434 14.731631 14.731631 0 0 1 15.013127-14.506434h613.86801a14.731631 14.731631 0 0 1 15.013127 14.506434 14.731631 14.731631 0 0 1-15.013127 14.506434z m-94.601468-148.986522L654.891382 427.960079l-77.280073 109.821026-93.550549-192.731022-90.529158 172.238103-82.928762-80.507895-67.859336 65.870096a15.257091 15.257091 0 0 1-21.130976 0 14.206172 14.206172 0 0 1 0-20.511685l88.990312-86.325482 75.065637 72.813667 99.461968-189.371834 97.266299 200.387717 73.188995-104.097272 101.226011 152.871169 73.864587-32.841216a15.125726 15.125726 0 0 1 19.817328 7.150002 14.337537 14.337537 0 0 1-7.356433 19.235569z m0 0" /></svg>