<?xml version="1.0" standalone="no"?><!DOCTYPE svg PUBLIC "-//W3C//DTD SVG 1.1//EN" "http://www.w3.org/Graphics/SVG/1.1/DTD/svg11.dtd"><svg t="1604899578728" class="icon" viewBox="0 0 1150 1024" version="1.1" xmlns="http://www.w3.org/2000/svg" p-id="2428" xmlns:xlink="http://www.w3.org/1999/xlink" width="224.609375" height="200"><defs><style type="text/css"></style></defs><path d="M1150.020455 511.284896a91.415329 91.415329 0 0 0-91.41533-91.415329 91.415329 91.415329 0 0 0-91.415329 91.415329 91.415329 91.415329 0 0 0 55.898653 84.259955 452.479861 452.479861 0 0 1-125.761127 238.078823 452.826788 452.826788 0 0 1-322.338778 133.523624 456.122597 456.122597 0 0 1-400.093846-237.298237 27.75418 27.75418 0 0 0-37.684972-11.01494 27.75418 27.75418 0 0 0-11.01494 37.684972 511.717688 511.717688 0 0 0 448.793758 266.136564 508.161684 508.161684 0 0 0 199.049508-40.200195 509.636124 509.636124 0 0 0 162.535415-109.585644 509.766222 509.766222 0 0 0 109.585644-162.535414 505.3429 505.3429 0 0 0 32.481063-109.889206 91.371963 91.371963 0 0 0 71.336915-89.160302z m-967.059699 0A91.415329 91.415329 0 0 0 127.062104 427.024941a452.566592 452.566592 0 0 1 125.761127-238.078822 452.870154 452.870154 0 0 1 322.338777-133.523624 456.165963 456.165963 0 0 1 400.050481 237.298236 27.75418 27.75418 0 0 0 37.684972 11.01494 27.75418 27.75418 0 0 0 11.01494-37.684972A511.717688 511.717688 0 0 0 575.162008-0.085864a508.291781 508.291781 0 0 0-199.049507 40.200194 509.67949 509.67949 0 0 0-162.535415 109.585644A509.549393 509.549393 0 0 0 103.991442 312.235389a507.03417 507.03417 0 0 0-32.481063 109.889205A91.415329 91.415329 0 0 0 0 511.284896a91.371963 91.371963 0 0 0 91.415329 91.41533 91.371963 91.371963 0 0 0 91.371964-91.41533z m0 0" p-id="2429"></path><path d="M449.140686 425.333671h57.286361v171.90245h-57.286361z m-85.951225 0h57.286361v171.90245H363.189461z m458.377624 85.951225l-171.902451-171.90245v85.951225h-114.616089v171.90245h114.616089v85.864494z m0 0" p-id="2430"></path></svg>