<?xml version="1.0" standalone="no"?><!DOCTYPE svg PUBLIC "-//W3C//DTD SVG 1.1//EN" "http://www.w3.org/Graphics/SVG/1.1/DTD/svg11.dtd"><svg class="icon" width="200px" height="200.00px" viewBox="0 0 1024 1024" version="1.1" xmlns="http://www.w3.org/2000/svg"><path fill="#333333" d="M770.624196 532.932719H253.374651a25.228359 25.228359 0 1 1 0-50.388533h517.249545a25.228359 25.228359 0 1 1 0 50.388533z m0 150.006459H253.374651a25.228359 25.228359 0 1 1 0-50.388533h517.249545a25.228359 25.228359 0 1 1 0 50.388533z m-278.602906 150.006459h-238.646639a25.228359 25.228359 0 1 1 0-50.388533h238.646639a25.228359 25.228359 0 1 1 0 50.388533zM822.853717 1023.999318H201.14513A121.641601 121.641601 0 0 1 79.026235 903.107749V120.892251A121.573416 121.573416 0 0 1 201.14513 0.000682h621.708587A121.641601 121.641601 0 0 1 944.972612 120.892251v782.147313a121.641601 121.641601 0 0 1-122.118895 120.959754zM201.14513 60.344189a60.888985 60.888985 0 0 0-61.366279 60.548062v782.147313a60.95717 60.95717 0 0 0 61.366279 60.548062h621.708587a60.888985 60.888985 0 0 0 61.366279-60.548062V120.892251a60.95717 60.95717 0 0 0-61.366279-60.548062zM250.306337 405.631784a25.228359 25.228359 0 0 1-17.250742-43.774612l185.394346-168.416343a25.569283 25.569283 0 0 1 34.978779 0.545478l115.914082 111.754812 178.234947-158.05226a25.637468 25.637468 0 0 1 35.933365 1.909173 25.160174 25.160174 0 0 1-1.909173 35.592442L585.570773 358.857042a25.773837 25.773837 0 0 1-34.774225-0.681847L435.427945 246.624937 267.829819 398.949678a26.046576 26.046576 0 0 1-17.523482 6.682106z" /></svg>