<?xml version="1.0" standalone="no"?><!DOCTYPE svg PUBLIC "-//W3C//DTD SVG 1.1//EN" "http://www.w3.org/Graphics/SVG/1.1/DTD/svg11.dtd"><svg class="icon" width="200px" height="200.00px" viewBox="0 0 1024 1024" version="1.1" xmlns="http://www.w3.org/2000/svg"><path fill="#333333" d="M511.530835 1022.761404A512.553615 512.553615 0 0 1 0.478549 511.746651 512.553615 512.553615 0 0 1 511.530835 0.656831a508.987959 508.987959 0 0 1 300.265738 95.822304 31.565436 31.565436 0 0 1 6.380647 44.720828 31.565436 31.565436 0 0 1-44.720829 6.399414 426.640081 426.640081 0 0 0-261.925556-83.06101 444.430826 444.430826 0 0 0-447.170751 447.208284 444.412059 444.412059 0 0 0 447.170751 447.133217 444.412059 444.412059 0 0 0 447.17075-447.133217 466.143792 466.143792 0 0 0-57.500889-223.622909 33.779896 33.779896 0 0 1 12.780061-44.739595 33.779896 33.779896 0 0 1 44.720828 12.780061 581.577202 581.577202 0 0 1 63.80647 255.526143 512.553615 512.553615 0 0 1-510.97722 511.071053z m0 0M387.971484 736.045157V256.42694h61.929808v-54.141666h116.033941v54.141666h61.929809v479.618217z m162.443764-518.296197h-85.087804v38.67798h85.087804z m61.929808 54.141666H403.529002v448.672079h208.853588z m-15.519985 433.208394h-177.90745V326.144891l177.926217 77.355961z" /></svg>