<?xml version="1.0" standalone="no"?><!DOCTYPE svg PUBLIC "-//W3C//DTD SVG 1.1//EN" "http://www.w3.org/Graphics/SVG/1.1/DTD/svg11.dtd"><svg t="1598509878372" class="icon" viewBox="0 0 1024 1024" version="1.1" xmlns="http://www.w3.org/2000/svg" p-id="1755" xmlns:xlink="http://www.w3.org/1999/xlink" width="200" height="200"><defs><style type="text/css"></style></defs><path d="M219.382857 146.24a73.142857 73.142857 0 1 0-73.142857 73.142857 73.142857 73.142857 0 0 0 73.142857-73.142857z m73.142857 0a146.285714 146.285714 0 1 1-146.285714-146.285714 146.285714 146.285714 0 0 1 146.285714 146.285714z m109.714286 73.142857a36.571429 36.571429 0 1 1 0-73.142857h512a36.571429 36.571429 0 0 1 0 73.142857z m402.285714 292.571429a73.142857 73.142857 0 1 1 73.142857 73.142857 73.142857 73.142857 0 0 1-73.234285-73.188572z m-73.142857 0a146.285714 146.285714 0 1 0 146.285714-146.285715 146.285714 146.285714 0 0 0-146.377142 146.24z m-109.714286 73.142857a36.571429 36.571429 0 1 0 0-73.142857h-512a36.571429 36.571429 0 0 0 0 73.142857z m-402.285714 292.571428a73.142857 73.142857 0 1 0-73.142857 73.142858 73.142857 73.142857 0 0 0 73.142857-73.28z m73.142857 0a146.285714 146.285714 0 1 1-146.285714-146.285714 146.285714 146.285714 0 0 1 146.285714 146.148572z m109.714286 73.142858a36.571429 36.571429 0 1 1 0-73.142858h512a36.571429 36.571429 0 0 1 0 73.142858z" p-id="1756"></path></svg>