<?xml version="1.0" standalone="no"?><!DOCTYPE svg PUBLIC "-//W3C//DTD SVG 1.1//EN" "http://www.w3.org/Graphics/SVG/1.1/DTD/svg11.dtd"><svg class="icon" width="200px" height="200.00px" viewBox="0 0 1024 1024" version="1.1" xmlns="http://www.w3.org/2000/svg"><path fill="#333333" d="M511.45594 1022.761585A512.478478 512.478478 0 0 1 0.478571 511.821743 512.478478 512.478478 0 0 1 511.45594 0.806846a508.913345 508.913345 0 0 1 300.221722 95.808257 31.560808 31.560808 0 0 1 6.379711 44.714272 31.560808 31.560808 0 0 1-44.714272 6.398476 426.577538 426.577538 0 0 0-261.887161-83.048834 444.365675 444.365675 0 0 0-447.105198 447.142726 444.346911 444.346911 0 0 0 447.105198 447.067671 444.346911 444.346911 0 0 0 447.105199-447.067671 466.075459 466.075459 0 0 0-57.49246-223.590127 33.774944 33.774944 0 0 1 12.778187-44.733036 33.774944 33.774944 0 0 1 44.714273 12.778187 581.491947 581.491947 0 0 1 63.797116 255.488685 512.478478 512.478478 0 0 1-510.902315 510.996133z m0 0M327.570136 277.836439L327.570136 767.104026A44.676745 44.676745 0 0 0 372.059242 811.593132l266.99093 0a44.676745 44.676745 0 0 0 44.489106-44.489106l0-489.267587a44.582926 44.582926 0 0 0-44.489106-44.489106L372.059242 233.347333a44.582926 44.582926 0 0 0-44.489106 44.489106z m289.132281 0a22.291463 22.291463 0 0 1 22.347755 22.197644L639.050172 744.906382a22.291463 22.291463 0 0 1-22.291463 22.197644L394.350705 767.104026a22.291463 22.291463 0 0 1-22.291463-22.197644l0-444.891063a22.291463 22.291463 0 0 1 22.291463-22.197644z m-43.907426-69.80155l0 25.012222L439.327672 233.047111l0-25.012222a19.476884 19.476884 0 0 1 19.476884-19.401829l94.11951 0a20.152383 20.152383 0 0 1 19.476884 19.476884zM594.504774 699.929416a22.291463 22.291463 0 0 1-22.197644 22.291462L438.839811 722.220878a22.291463 22.291463 0 0 1 0-44.489106l133.467319 0a22.197644 22.197644 0 0 1 22.197644 22.197644z m1.06954-88.396533a22.197644 22.197644 0 0 1-21.897422 22.197643L439.909351 633.730526a22.291463 22.291463 0 0 1 0-44.489106l133.767541 0a22.291463 22.291463 0 0 1 22.216407 22.291463z m0-88.978213a22.197644 22.197644 0 0 1-21.897422 22.197643L439.909351 544.752313a22.291463 22.291463 0 0 1 0-44.489106l133.767541 0a22.291463 22.291463 0 0 1 22.216407 22.366518z m0 0" /></svg>