<?xml version="1.0" standalone="no"?><!DOCTYPE svg PUBLIC "-//W3C//DTD SVG 1.1//EN" "http://www.w3.org/Graphics/SVG/1.1/DTD/svg11.dtd"><svg t="1604899572292" class="icon" viewBox="0 0 1024 1024" version="1.1" xmlns="http://www.w3.org/2000/svg" p-id="2302" xmlns:xlink="http://www.w3.org/1999/xlink" width="200" height="200"><defs><style type="text/css"></style></defs><path d="M511.871728 1023.961388a81.394166 81.394166 0 1 0-75.02318-112.978809 405.966917 405.966917 0 0 1-119.697303-755.212756 24.711701 24.711701 0 1 0-23.7464-43.322702 455.621991 455.621991 0 0 0 41.121815 819.07706 449.946022 449.946022 0 0 0 97.842892 28.920412 81.355554 81.355554 0 0 0 79.38634 63.516795z m0-861.048339a81.394166 81.394166 0 0 0 75.023181-49.925359 405.966917 405.966917 0 0 1 119.697303 755.212756 24.711701 24.711701 0 0 0 23.7464 43.361313 455.351707 455.351707 0 0 0-139.003319-847.997472 81.394166 81.394166 0 1 0-79.386341 99.232926z m0 0" p-id="2303"></path><path d="M588.400778 399.913708v50.89066H435.342679v-50.89066z m0-76.52905v51.006496H435.342679V323.384658z m-76.52905 408.129191l153.0581-153.019488h-76.52905v-102.051603H435.342679v102.051603H358.813629z m0 0" p-id="2304"></path></svg>