<?xml version="1.0" standalone="no"?><!DOCTYPE svg PUBLIC "-//W3C//DTD SVG 1.1//EN" "http://www.w3.org/Graphics/SVG/1.1/DTD/svg11.dtd"><svg t="1604899590147" class="icon" viewBox="0 0 1045 1024" version="1.1" xmlns="http://www.w3.org/2000/svg" p-id="2811" xmlns:xlink="http://www.w3.org/1999/xlink" width="204.1015625" height="200"><defs><style type="text/css"></style></defs><path d="M1008.490149 952.806286h-187.517595V551.47432a298.65209 298.65209 0 1 0-596.721102 0v401.331966H36.733857a34.459857 34.459857 0 0 0 0 68.861406h971.756292a34.459857 34.459857 0 0 0 0-68.861406z m-253.346999 0H290.080856V551.47432a232.764378 232.764378 0 1 1 465.003986 0z" p-id="2812"></path><path d="M36.733857 1024a36.792165 36.792165 0 0 1 0-73.526022H221.860836V551.47432a300.984398 300.984398 0 1 1 601.327411 0v398.999658h185.301902a36.792165 36.792165 0 0 1 0 73.526022z m0-68.919713a32.185856 32.185856 0 0 0 0 64.138481h971.756292a32.185856 32.185856 0 0 0 0-64.138481h-189.849903V551.47432a296.378089 296.378089 0 1 0-592.114793 0v403.605967z m720.624986 0H287.806856V551.47432a235.038378 235.038378 0 1 1 469.610295 0z m-465.003986-4.606309h460.630908V551.47432a230.432069 230.432069 0 1 0-460.630908 0zM525.060927 174.689899a33.701856 33.701856 0 0 0 32.943856-34.459857V36.733857a32.943856 32.943856 0 1 0-65.887712 0v103.496185a33.701856 33.701856 0 0 0 32.943856 34.459857z" p-id="2813"></path><path d="M524.827696 176.963899a36.092472 36.092472 0 0 1-34.984626-36.850472V36.675549a35.217857 35.217857 0 1 1 70.435714 0v103.554493a36.034165 36.034165 0 0 1-34.984626 36.733857z m0-172.35759a30.55324 30.55324 0 0 0-30.611547 31.952625v103.6128a31.486163 31.486163 0 0 0 30.611547 32.185856 31.427856 31.427856 0 0 0 30.611548-32.06924V36.675549a30.55324 30.55324 0 0 0-30.611548-32.06924z m244.309304 255.037923a32.06924 32.06924 0 0 0 23.323084-10.378772l69.152944-74.050792a35.567703 35.567703 0 0 0-0.524769-48.686938 31.952625 31.952625 0 0 0-46.646168 0.52477l-69.152944 74.050791a35.567703 35.567703 0 0 0 0.524769 48.686938 32.06924 32.06924 0 0 0 23.031546 9.795695z" p-id="2814"></path><path d="M766.863 261.97654a34.518164 34.518164 0 0 1-22.390161-10.43708 37.900011 37.900011 0 0 1-0.524769-51.835554l69.152944-74.050791a34.401549 34.401549 0 0 1 24.839084-11.078465h0.349846a34.459857 34.459857 0 0 1 24.780777 10.553695 37.900011 37.900011 0 0 1 0.583077 51.835554l-69.152944 74.050792a34.576472 34.576472 0 0 1-25.247238 11.078465z m71.426944-142.912197a29.853547 29.853547 0 0 0-21.515545 9.620773l-69.211251 74.050791a33.293702 33.293702 0 0 0 0.466461 45.538321 29.911855 29.911855 0 0 0 21.39893 9.096003h1.224462a29.911855 29.911855 0 0 0 20.640929-9.620772l69.152944-74.050791a33.293702 33.293702 0 0 0-0.524769-45.538322 29.853547 29.853547 0 0 0-21.632161-9.096003z m65.362943 369.729188h0.408154l99.123107-1.166154a34.459857 34.459857 0 0 0-0.408154-68.861405h-0.349847l-99.123106 1.166154a34.518164 34.518164 0 0 0 0.349846 68.861405z" p-id="2815"></path><path d="M903.944425 490.950917h-0.466461a36.792165 36.792165 0 0 1-0.408154-73.526022l99.123107-1.166155a36.792165 36.792165 0 0 1 0.932923 73.526023z m0-4.606309h0.349847l99.123106-1.166155a32.185856 32.185856 0 0 0-0.466461-64.13848l-99.123107 1.166154a32.185856 32.185856 0 0 0 0.408154 64.138481z" p-id="2816"></path><path d="M261.160232 249.323767a31.894317 31.894317 0 0 0 46.646168 0.583077 35.567703 35.567703 0 0 0 0.52477-48.686937l-69.152944-74.050792a31.894317 31.894317 0 0 0-46.646168-0.524769 35.567703 35.567703 0 0 0-0.52477 48.686937z" p-id="2817"></path><path d="M284.599932 261.97654h-0.408154a34.168318 34.168318 0 0 1-24.780777-11.136772L190.258057 176.847284a37.958319 37.958319 0 0 1 0.52477-51.893862 34.459857 34.459857 0 0 1 24.780776-10.553695h0.349846a34.343241 34.343241 0 0 1 24.839085 11.136772L309.905478 199.528983a38.016627 38.016627 0 0 1-0.583077 51.893862 34.343241 34.343241 0 0 1-24.722469 10.553695zM215.505296 119.064343a29.853547 29.853547 0 0 0-21.457238 9.154311 33.293702 33.293702 0 0 0-0.466461 45.538321l69.152943 73.992484a29.736932 29.736932 0 0 0 21.457238 9.620772h0.349846a29.620317 29.620317 0 0 0 21.340622-9.096003 33.410318 33.410318 0 0 0 0.524769-45.596629L237.254071 128.685116a29.853547 29.853547 0 0 0-21.515545-9.620773z" p-id="2818"></path><path d="M43.614167 487.510762l99.123107 1.166154h0.349846A34.459857 34.459857 0 0 0 143.436966 419.815511l-99.123107-1.166154H43.964013a34.518164 34.518164 0 0 0-0.349846 68.919713z" p-id="2819"></path><path d="M143.08712 490.950917L43.497552 489.784763a36.792165 36.792165 0 0 1 0.408154-73.526023l99.472952 1.166155a36.792165 36.792165 0 0 1 0 73.526022z m-99.123107-5.830771l99.123107 1.166154a32.185856 32.185856 0 0 0 0.583077-64.138481l-99.123107-1.166154a32.185856 32.185856 0 0 0-0.641384 64.138481z" p-id="2820"></path><path d="M358.125954 860.680105a33.526933 33.526933 0 0 1-32.885549-34.11001v-238.536841a32.885548 32.885548 0 1 1 65.771097 0v238.711764a33.526933 33.526933 0 0 1-32.885548 33.935087z m0 0" p-id="2821"></path><path d="M358.125954 863.012413a35.800934 35.800934 0 0 1-34.984626-36.442318v-238.536841a35.217857 35.217857 0 1 1 70.377406 0v238.478533a35.800934 35.800934 0 0 1-34.984626 36.442318z m0-306.815169a30.55324 30.55324 0 0 0-30.55324 31.777702v238.653456a30.611548 30.611548 0 1 0 61.164787 0v-238.595148a30.55324 30.55324 0 0 0-30.55324-31.83601z" p-id="2822"></path></svg>