<?xml version="1.0" standalone="no"?><!DOCTYPE svg PUBLIC "-//W3C//DTD SVG 1.1//EN" "http://www.w3.org/Graphics/SVG/1.1/DTD/svg11.dtd"><svg t="1591838033621" class="icon" viewBox="0 0 1126 1024" version="1.1" xmlns="http://www.w3.org/2000/svg" p-id="4761" xmlns:xlink="http://www.w3.org/1999/xlink" width="219.921875" height="200"><defs><style type="text/css"></style></defs><path d="M1023.289382 1024H102.4A102.4 102.4 0 0 1 0 921.6V358.577654a102.4 102.4 0 0 1 102.4-102.4h921.315753a102.4 102.4 0 0 1 102.328938 102.4v563.022346a102.4 102.4 0 0 1-102.755309 102.4zM204.657876 102.684247h716.586815a102.4 102.4 0 0 1 102.4 102.4H102.4A102.328938 102.328938 0 0 1 204.657876 102.684247zM324.1127 0.284247h477.677168c37.733796 0 68.219292 22.952949 68.219292 51.164469H255.822346c0-28.21152 30.698681-51.448716 68.290354-51.448716z" fill="#4E4E4E" p-id="4762"></path></svg>