<?xml version="1.0" standalone="no"?><!DOCTYPE svg PUBLIC "-//W3C//DTD SVG 1.1//EN" "http://www.w3.org/Graphics/SVG/1.1/DTD/svg11.dtd"><svg t="1591773032089" class="icon" viewBox="0 0 1024 1024" version="1.1" xmlns="http://www.w3.org/2000/svg" p-id="6529" xmlns:xlink="http://www.w3.org/1999/xlink" width="200" height="200"><defs><style type="text/css"></style></defs><path d="M814.81051 648.913137a21.624312 21.624312 0 0 0-18.867672-14.150754H101.759541a9.801388 9.801388 0 0 0-9.433836 14.150754l120.12826 360.936109a21.624312 21.624312 0 0 0 18.867672 14.150754h689.527638a9.801388 9.801388 0 0 0 9.433836-14.150754z m116.023929-83.005504a47.230438 47.230438 0 0 1-47.107921 47.107921h-159.272553a47.230438 47.230438 0 0 1-47.10792-47.107921V471.079206a47.230438 47.230438 0 0 1 47.10792-47.107921h159.272553a47.230438 47.230438 0 0 1 47.107921 47.107921z m-151.308926-277.318018l0.612587 115.411342 152.534099-204.358937L780.1381 0l0.612587 109.53051S336.196487 78.349844 302.014147 531.725293h28.852836a456.5609 456.5609 0 0 1 448.719789-243.196937z" fill="#92929D" p-id="6530"></path><path d="M914.294597 531.725293H330.193137a490.804499 490.804499 0 0 0-30.629337 59.482173c0-20.582915 0.612587-40.614501 2.32783-59.482173H224.766959a16.846135 16.846135 0 0 0-16.478584 16.478584v69.467336h598.252214a22.236899 22.236899 0 0 1 20.031586 14.702082l104.139747 326.202441V547.59129a16.356066 16.356066 0 0 0-16.417325-15.865997z" fill="#92929D" p-id="6531"></path></svg>