<?xml version="1.0" standalone="no"?><!DOCTYPE svg PUBLIC "-//W3C//DTD SVG 1.1//EN" "http://www.w3.org/Graphics/SVG/1.1/DTD/svg11.dtd"><svg t="1591773157604" class="icon" viewBox="0 0 1036 1024" version="1.1" xmlns="http://www.w3.org/2000/svg" p-id="7994" xmlns:xlink="http://www.w3.org/1999/xlink" width="202.34375" height="200"><defs><style type="text/css"></style></defs><path d="M63.903069 65.349725h290.261269L0.088576 445.166217V133.769915a66.526737 66.526737 0 0 1 63.814493-68.42019zM673.185627 1023.488256H191.48088A199.58021 199.58021 0 0 1 0.088576 818.176512v-277.16062l111.662569-119.748126zM443.463688 65.349725h121.232184a362.826587 362.826587 0 0 0-54.244877 195.025687 352.028786 352.028786 0 0 0 82.953723 232.690055l184.995502 212.169116a27.583008 27.583008 0 0 0 38.278461 0l184.995502-212.169116a189.345327 189.345327 0 0 0 19.139231-27.378311v352.438181a199.58021 199.58021 0 0 1-191.392304 205.311744H762.587327L156.528756 373.522039z" fill="#8a8a8a" p-id="7995"></path><path d="M810.128356 0a235.914043 235.914043 0 0 0-223.018091 248.298251A262.012994 262.012994 0 0 0 653.995223 424.747626l143.288355 160.073563a17.655172 17.655172 0 0 0 28.657672 0l143.288355-160.073563a262.012994 262.012994 0 0 0 66.884958-176.449375A240.51974 240.51974 0 0 0 810.128356 0z m0 326.697451a98.050175 98.050175 0 1 1 95.593803-97.999 95.082059 95.082059 0 0 1-95.593803 97.999z" fill="#8a8a8a" p-id="7996"></path></svg>