<?xml version="1.0" standalone="no"?><!DOCTYPE svg PUBLIC "-//W3C//DTD SVG 1.1//EN" "http://www.w3.org/Graphics/SVG/1.1/DTD/svg11.dtd"><svg t="1591772900360" class="icon" viewBox="0 0 1024 1024" version="1.1" xmlns="http://www.w3.org/2000/svg" p-id="3886" xmlns:xlink="http://www.w3.org/1999/xlink" width="200" height="200"><defs><style type="text/css"></style></defs><path d="M57.92256 0h316.2624a58.9824 58.9824 0 0 1 57.8048 60.0064v327.9872a58.9824 58.9824 0 0 1-57.9072 59.9552H57.87136A58.9824 58.9824 0 0 1-0.03584 387.8912v-327.68A58.9824 58.9824 0 0 1 57.92256 0z m0 576h316.2624a58.9824 58.9824 0 0 1 57.8048 60.0576v327.936A58.9824 58.9824 0 0 1 374.08256 1024H57.87136a56.7808 56.7808 0 0 1-40.96-17.5616 61.1328 61.1328 0 0 1-16.9472-42.4448v-327.68a58.9824 58.9824 0 0 1 57.9584-60.3136z" fill="#B5B5BE" p-id="3887"></path><path d="M653.73696 61.696h308.5312a54.528 54.528 0 0 1 61.696 61.696 54.528 54.528 0 0 1-61.696 61.696h-308.5312a54.528 54.528 0 0 1-61.696-61.696 54.528 54.528 0 0 1 61.696-61.696z" fill="#B5B5BE" p-id="3888"></path><path d="M653.73696 578.9184h308.5312a54.528 54.528 0 0 1 61.696 61.696 54.528 54.528 0 0 1-61.696 61.696h-308.5312a54.528 54.528 0 0 1-61.696-61.696 54.528 54.528 0 0 1 61.696-61.696z" fill="#B5B5BE" p-id="3889"></path><path d="M653.73696 321.6384h308.5312a54.528 54.528 0 0 1 61.696 61.696 54.528 54.528 0 0 1-61.696 61.696h-308.5312a54.528 54.528 0 0 1-61.696-61.696 54.528 54.528 0 0 1 61.696-61.696z" fill="#B5B5BE" p-id="3890"></path><path d="M653.73696 838.8608h308.5312a54.528 54.528 0 0 1 61.696 61.696 54.528 54.528 0 0 1-61.696 61.696h-308.5312a54.528 54.528 0 0 1-61.696-61.696 54.528 54.528 0 0 1 61.696-61.696z" fill="#B5B5BE" p-id="3891"></path></svg>