<?xml version="1.0" standalone="no"?><!DOCTYPE svg PUBLIC "-//W3C//DTD SVG 1.1//EN" "http://www.w3.org/Graphics/SVG/1.1/DTD/svg11.dtd"><svg class="icon" width="200px" height="200.00px" viewBox="0 0 1024 1024" version="1.1" xmlns="http://www.w3.org/2000/svg"><path fill="#ffffff" d="M907.718158 0H116.282241A116.082587 116.082587 0 0 0 0.199654 116.481496v791.037008a116.082587 116.082587 0 0 0 116.082587 116.481496h791.435917a116.082587 116.082587 0 0 0 116.082587-116.481496V116.481496A116.082587 116.082587 0 0 0 907.718158 0zM451.764905 544.910012L359.217963 638.254772a46.67238 46.67238 0 0 1-65.820023-65.820023l60.235294-60.235294-60.634203-60.634204a46.273471 46.273471 0 0 1 0-65.820023 47.071289 47.071289 0 0 1 66.218932 0L451.764905 478.691079a46.273471 46.273471 0 0 1 0 66.218933z m292.799377 385.745228h-92.945851v-837.709389h92.945851z"  /></svg>