<?xml version="1.0" standalone="no"?><!DOCTYPE svg PUBLIC "-//W3C//DTD SVG 1.1//EN" "http://www.w3.org/Graphics/SVG/1.1/DTD/svg11.dtd"><svg class="icon" width="200px" height="200.00px" viewBox="0 0 1024 1024" version="1.1" xmlns="http://www.w3.org/2000/svg"><path d="M837.312 491.072a44.16 44.16 0 0 1 21.44 5.44l137.728 82.56c16.512 11.072 27.52 27.584 27.52 49.6v159.744c0 16.512-11.008 38.528-27.52 44.032l-137.728 82.624c-11.008 5.504-16.512 5.504-27.52 5.504s-16.512 0-27.52-5.504l-137.664-77.12c-16.512-11.008-27.52-27.52-27.52-49.536V628.672c0-22.016 11.008-38.528 27.52-49.536l137.664-82.56c11.008-5.568 16.512-5.568 27.52-5.568z m-245.696 177.92v133.824c0 26.688 13.44 46.72 33.6 60.032l59.264 33.024H100.416c-52.16 0-95.36-40.448-100.032-91.648L0 795.072v-126.08h591.616z m-328.064 75.648H138.048a38.656 38.656 0 0 0-37.632 37.824c0 18.176 14.208 34.24 31.68 37.312l5.952 0.512h125.44a38.656 38.656 0 0 0 37.696-37.824 38.656 38.656 0 0 0-37.632-37.76z m567.68-132.48l-82.56 44.096v99.072l82.56 49.6 82.624-49.6v-99.072l-82.56-44.096z m44.672-248.192v94.72l-15.808-9.408c-13.44-6.656-20.096-6.656-33.536-6.656-13.44 0-20.16 0-33.536 6.656L625.216 549.312c-15.872 10.56-27.584 25.216-31.808 44.032H0V364.032h875.904zM263.552 442.112H138.048a38.656 38.656 0 0 0-37.632 37.824c0 18.176 14.208 34.304 31.68 37.312l5.952 0.512h125.44a38.656 38.656 0 0 0 37.696-37.76 38.656 38.656 0 0 0-37.632-37.888zM778.048 64c52.16 0 95.36 40.448 99.968 91.712l0.384 9.152v126.016H0v-126.08c0-52.352 40.32-95.744 91.264-100.416L100.48 64h677.632z m-514.56 75.648h-125.44a38.656 38.656 0 0 0-37.632 37.76c0 18.176 14.208 34.304 31.68 37.312l5.952 0.512h125.44a38.656 38.656 0 0 0 37.696-37.76 38.656 38.656 0 0 0-37.632-37.824z m351.36 0a38.656 38.656 0 0 0-37.568 37.76c0 20.224 17.536 37.824 37.632 37.824a38.656 38.656 0 0 0 37.632-37.76 38.656 38.656 0 0 0-37.632-37.824z m125.568 0a38.656 38.656 0 0 0-37.696 37.76c0 20.224 17.6 37.824 37.696 37.824a38.656 38.656 0 0 0 37.632-37.76 38.656 38.656 0 0 0-37.632-37.824z" /></svg>