<?xml version="1.0" standalone="no"?><!DOCTYPE svg PUBLIC "-//W3C//DTD SVG 1.1//EN" "http://www.w3.org/Graphics/SVG/1.1/DTD/svg11.dtd"><svg class="icon" width="200px" height="200.00px" viewBox="0 0 1024 1024" version="1.1" xmlns="http://www.w3.org/2000/svg"><path fill="#ffffff" d="M463.232 45.312a64 64 0 0 1 90.496 0l124.8 125.056h17.28a128 128 0 0 1 121.792 88.512l113.728 350.72a128 128 0 0 1-46.4 142.976l-297.6 216.576a128 128 0 0 1-150.656 0l-297.6-216.576a128 128 0 0 1-46.4-142.976l113.728-350.72a128 128 0 0 1 121.728-88.512h10.24L463.104 45.44V45.312z m45.184 263.36L434.304 458.944l-165.76 24.064L388.48 599.936l-28.352 165.248 148.16-78.016 148.224 78.016-28.352-165.248 120-116.928-165.76-24.064-73.984-150.272z m27.136-201.216a38.4 38.4 0 0 0-54.272 0l-62.912 62.912H598.4l-62.72-62.848z" /></svg>