<?xml version="1.0" standalone="no"?><!DOCTYPE svg PUBLIC "-//W3C//DTD SVG 1.1//EN" "http://www.w3.org/Graphics/SVG/1.1/DTD/svg11.dtd"><svg class="icon" width="200px" height="200.00px" viewBox="0 0 1024 1024" version="1.1" xmlns="http://www.w3.org/2000/svg"><path d="M983.68 64c21.12 0 38.272 16.96 38.272 37.824a38.08 38.08 0 0 1-38.336 37.824h-38.336v467.264l-65.344-73.856a64 64 0 0 0-2.688-2.816l-2.816-2.624a64 64 0 0 0-84.672-0.192l-5.696 5.632L576 768l64.96 0.064a46.528 46.528 0 0 1 10.816-19.2c22.016-24.768 46.976-51.072 71.104-76.48 24-25.216 48.768-51.328 70.528-75.776 26.304-27.84 56.832-27.456 85.568 1.024 22.592 26.752 47.36 54.912 71.36 82.24 23.808 26.944 46.208 52.48 66.112 76.032 8.192 11.328 9.728 24 4.48 34.304a24.96 24.96 0 0 1-22.656 13.824h-24.896v106.688c0 38.912-21.696 49.28-34.496 49.28h-66.368v-115.072h-72.128V960h-65.92c-20.608 0-34.432-20.8-34.432-40.32v-115.648h-34.048c-7.808 0-18.752-6.4-23.552-17.024a28.16 28.16 0 0 1-1.92-16.64h-254.08L218.88 935.744a38.656 38.656 0 0 1-53.76-0.512 37.504 37.504 0 0 1-0.448-52.992l113.344-112H153.28a76.16 76.16 0 0 1-76.608-75.648V139.648h-38.4A38.08 38.08 0 0 1 0 101.888C0 80.896 17.152 64 38.336 64h945.28z m-231.36 238.208l-151.68 149.76-126.08-124.544a38.656 38.656 0 0 0-6.016-4.864l-3.264-1.92a38.592 38.592 0 0 0-14.144-4.16l-3.712-0.128a39.424 39.424 0 0 0-7.296 0.64l-3.584 0.896a38.528 38.528 0 0 0-16.192 9.536L215.744 529.408a37.504 37.504 0 0 0 16.96 63.808 38.656 38.656 0 0 0 37.248-10.368L447.424 407.68l126.08 124.544c7.488 7.424 17.28 11.136 27.072 11.136l3.712-0.192a38.4 38.4 0 0 0 23.424-10.88l178.816-176.64 2.56-2.816a37.504 37.504 0 0 0-2.56-50.624 38.656 38.656 0 0 0-54.208 0z" /></svg>