<?xml version="1.0" standalone="no"?><!DOCTYPE svg PUBLIC "-//W3C//DTD SVG 1.1//EN" "http://www.w3.org/Graphics/SVG/1.1/DTD/svg11.dtd"><svg t="1691560293571" class="icon" viewBox="0 0 1024 1024" version="1.1" xmlns="http://www.w3.org/2000/svg" p-id="1132" xmlns:xlink="http://www.w3.org/1999/xlink" width="200" height="200"><path d="M752.09472 1024c-59.904 0-139.456-35.392-243.008-107.648-149.888 101.76-249.216 128.32-311.488 83.84-63.808-45.568-70.08-153.152-19.584-337.6C35.42272 543.04-19.16928 452.032 6.49472 377.152c25.152-73.6 120.96-111.616 300.608-118.72C372.51072 79.488 435.29472 0.064 515.10272 0c77.952 0.512 141.44 81.28 204.544 261.12 179.52 9.472 274.816 48.64 299.072 122.624 24.64 75.136-31.104 165.504-175.36 283.136 48.192 185.088 40.448 292.544-23.936 337.28-19.008 13.184-41.344 19.84-67.328 19.84z" p-id="1133"></path></svg>