<?xml version="1.0" standalone="no"?><!DOCTYPE svg PUBLIC "-//W3C//DTD SVG 1.1//EN" "http://www.w3.org/Graphics/SVG/1.1/DTD/svg11.dtd"><svg t="1685582846839" class="icon" viewBox="0 0 1024 1024" version="1.1" xmlns="http://www.w3.org/2000/svg" p-id="2137" xmlns:xlink="http://www.w3.org/1999/xlink" width="200" height="200"><path d="M978.304 468.288a237.056 237.056 0 0 0-100.48-76.352C839.936 238.08 697.28 128 532.288 128c-159.04 0.128-298.56 102.592-341.76 251.008C80.192 400.256 0.448 494.08 0 603.264 0 729.344 105.792 832 235.968 832h552C918.016 832 1024 729.408 1024 603.264c0-48.64-16-95.872-45.696-135.04z m-554.56 176.64c-11.968 18.112-32.576 27.2-61.696 27.2-34.432 0-58.368-8.64-71.808-25.792-13.44-17.216-20.096-45.696-19.968-85.568v-57.28c0-42.624 6.976-72.192 20.864-88.64 14.08-16.512 36.288-24.896 66.624-24.896 28.608 0 49.28 7.36 61.952 22.08 12.736 14.72 19.072 37.44 19.072 68.224h-51.712c0-16.64-1.728-29.056-5.312-37.12-3.584-8.128-10.24-12.16-20.096-12.16-24.832 0-37.184 18.752-37.184 56.384v87.808c0 20.16 3.2 34.56 9.536 43.136 6.336 8.64 15.616 12.928 27.968 12.928 9.28 0 16.192-4.48 20.48-13.632 4.48-9.088 6.784-24.832 6.784-47.04h52.544c0 31.488-6.016 56.32-17.984 74.368z m236.352-83.776c0 40-6.592 68.48-19.84 85.568-13.184 17.024-36.672 25.472-70.4 25.408-32.768 0-56.192-8.128-70.4-24.32-14.144-16.32-21.248-45.248-21.248-87.04V506.88c0-44.544 7.04-75.2 21.12-91.84 14.016-16.704 37.312-25.024 69.824-25.088 36.352 0 60.672 9.408 72.768 28.16 12.16 18.88 18.24 48.448 18.176 88.768v54.272z m80.96-60.352c16.448 0 28.672 4.352 36.8 12.8 8.128 8.576 12.544 19.904 12.16 31.616 0 16.96-7.168 32.64-21.696 46.976l-24.96 25.472c-11.456 11.392-17.152 21.12-17.152 29.312h61.44v25.152h-96.32a133.12 133.12 0 0 1 5.632-38.656c3.392-9.6 12.672-22.656 28.288-38.72l15.424-15.872c5.12-4.672 9.536-10.048 13.184-15.936a34.944 34.944 0 0 0 3.392-17.088c0-13.312-5.312-19.968-15.872-19.968-7.488 0-12.416 2.304-14.656 6.912-2.24 4.608-3.2 12.864-3.2 25.152h-30.72V551.04c0-33.472 16.064-50.24 48.256-50.24zM566.592 435.328c24.32 0 36.48 19.648 36.352 59.008v84.544c0 35.264-12.416 52.928-37.312 52.928-23.68 0-35.456-18.368-35.456-54.976V490.752c0-36.928 12.16-55.424 36.416-55.424z" p-id="2138"></path></svg>