<?xml version="1.0" standalone="no"?><!DOCTYPE svg PUBLIC "-//W3C//DTD SVG 1.1//EN" "http://www.w3.org/Graphics/SVG/1.1/DTD/svg11.dtd"><svg class="icon" width="200px" height="200.00px" viewBox="0 0 1024 1024" version="1.1" xmlns="http://www.w3.org/2000/svg"><path d="M970.112 781.44H53.888a54.08 54.08 0 0 0-53.888 53.952v134.72c0 29.632 24.256 53.888 53.888 53.888h916.224a54.08 54.08 0 0 0 53.888-53.888v-134.72a54.08 54.08 0 0 0-53.888-53.888z m-471.616 161.728H148.224a41.472 41.472 0 0 1-40.448-40.448c0-21.568 18.88-40.384 40.448-40.384h350.272c21.568 0 40.448 18.816 40.448 40.384a41.472 41.472 0 0 1-40.448 40.448z m242.56 0a41.472 41.472 0 0 1-40.448-40.448c0-21.568 18.88-40.384 40.448-40.384s40.448 18.816 40.448 40.384a41.472 41.472 0 0 1-40.448 40.448z m134.72 0a41.472 41.472 0 0 1-40.384-40.448c0-21.568 18.816-40.384 40.384-40.384s40.448 18.816 40.448 40.384a41.472 41.472 0 0 1-40.448 40.448zM970.112 0H53.888A54.08 54.08 0 0 0 0 53.888v592.832c0 29.632 24.256 53.888 53.888 53.888h916.224a54.08 54.08 0 0 0 53.888-53.888V53.888A54.08 54.08 0 0 0 970.112 0z m-94.336 455.424h-105.088c-24.256 0-48.512-13.44-59.264-35.072L600.896 218.304 487.744 560.512c-8.064 24.256-26.944 43.136-51.2 45.824h-13.44c-24.32 0-45.824-10.816-56.64-32.384L274.88 425.792h-126.72a41.472 41.472 0 0 1-40.32-40.448c0-21.568 18.816-40.448 40.32-40.448h148.288a46.08 46.08 0 0 1 35.008 18.88l88.96 142.848 113.152-342.272c8.064-24.256 26.88-43.072 53.888-48.448a63.36 63.36 0 0 1 70.08 35.008l121.216 220.992h97.024c21.568 0 40.448 18.816 40.448 40.384s-18.88 43.136-40.448 43.136z" /></svg>