<?xml version="1.0" standalone="no"?><!DOCTYPE svg PUBLIC "-//W3C//DTD SVG 1.1//EN" "http://www.w3.org/Graphics/SVG/1.1/DTD/svg11.dtd"><svg t="1653624121013" class="icon" viewBox="0 0 1024 1024" version="1.1" xmlns="http://www.w3.org/2000/svg" p-id="5248" xmlns:xlink="http://www.w3.org/1999/xlink" width="200" height="200"><defs><style type="text/css">@font-face { font-family: feedback-iconfont; src: url("//at.alicdn.com/t/font_1031158_u69w8yhxdu.woff2?t=1630033759944") format("woff2"), url("//at.alicdn.com/t/font_1031158_u69w8yhxdu.woff?t=1630033759944") format("woff"), url("//at.alicdn.com/t/font_1031158_u69w8yhxdu.ttf?t=1630033759944") format("truetype"); }
</style></defs><path d="M512 0a512 512 0 1 0 0.064 1024.064A512 512 0 0 0 512 0z m96 392.128l-99.456 344.448c-5.44 19.648-8.192 32.64-8.192 38.72 0 3.584 1.472 6.848 4.352 9.984a12.48 12.48 0 0 0 9.216 4.544 24.768 24.768 0 0 0 16.448-7.296c14.528-12.032 32-33.6 52.352-64.96l16.448 9.728c-48.768 85.056-100.48 127.552-155.52 127.552-20.992 0-37.76-5.952-50.176-17.728a59.008 59.008 0 0 1-18.56-44.8c0-11.968 2.688-27.072 8.192-45.568l67.264-231.68c6.528-22.272 9.728-39.04 9.728-50.368a24.704 24.704 0 0 0-9.216-18.88 36.416 36.416 0 0 0-25.152-8.256c-4.8 0-10.624 0.128-17.472 0.512l6.272-19.456 164.224-26.624H608v0.128z m20.352-101.376c-13.952 13.952-30.72 20.8-50.432 20.8-19.392 0-35.968-7.04-49.92-20.8a68.608 68.608 0 0 1-20.8-50.432c0-19.648 6.848-36.48 20.544-50.368 13.76-13.824 30.4-20.8 50.176-20.8 20.032 0 36.928 6.976 50.624 20.8 13.76 13.952 20.608 30.72 20.608 50.368 0 19.712-7.04 36.48-20.8 50.432z" p-id="5249"></path></svg>