<?xml version="1.0" standalone="no"?><!DOCTYPE svg PUBLIC "-//W3C//DTD SVG 1.1//EN" "http://www.w3.org/Graphics/SVG/1.1/DTD/svg11.dtd"><svg t="1572857775294" class="icon" viewBox="0 0 1024 1024" version="1.1" xmlns="http://www.w3.org/2000/svg" p-id="1897" xmlns:xlink="http://www.w3.org/1999/xlink" width="200" height="200"><defs><style type="text/css"></style></defs><path d="M849.58208 677.66784c27.34592 39.07072 58.60352 63.81056 95.06816 75.53024-15.63136 48.18944-40.3712 97.66912-72.92928 148.46976C819.62496 979.80928 768.83456 1018.88 719.34464 1018.88c-18.23744 0-46.88384-6.50752-83.34336-19.53792-33.86368-13.02016-63.81568-19.52768-89.87136-19.52768-26.04032 0-53.39648 6.50752-84.64896 19.52768C428.92288 1012.37248 402.87744 1018.88 382.04416 1018.88c-59.90912 0-119.81312-50.80064-178.42176-153.68192-58.60352-100.27008-88.56064-199.24992-88.56064-298.22976 0-91.16672 22.13888-164.09088 66.41664-222.69952 45.58336-57.30304 101.58592-85.95968 169.30304-85.95968 14.32576 0 31.2576 1.3056 49.49504 5.21216 18.23232 3.91168 36.46464 10.4192 55.99744 20.83328 20.8384 11.7248 37.76512 19.5328 50.7904 23.4496 13.0304 3.90656 23.44448 6.50752 31.2576 6.50752 9.1136 0 22.13888-2.60096 40.37632-6.50752 18.23744-3.91168 36.45952-11.7248 54.69696-22.144 19.52768-10.41408 36.46464-18.23232 50.7904-24.74496 14.32576-5.20704 28.65152-7.81312 42.97728-7.81312 46.88384 0 89.86624 13.02016 126.33088 37.76512 19.5328 13.02016 40.3712 32.55296 61.2096 59.90912-31.2576 27.34592-53.4016 50.78528-67.72736 70.31808-26.04544 37.77024-39.07072 78.14144-39.07072 122.42432 1.30048 50.7904 14.32576 95.05792 41.68192 134.12864v0.02048z m-201.86624-470.13888c-23.43936 22.13888-45.57824 36.46464-63.81568 42.97728-6.50752 2.60096-15.63136 3.90656-26.04032 5.20704a1472.4096 1472.4096 0 0 1-35.16928 3.90656c1.3056-58.60352 15.63136-109.39392 46.88384-152.37632 31.25248-42.97728 78.14144-71.62368 148.46464-87.25504 1.3056 6.50752 2.60608 11.7248 2.60608 14.32576v10.41408c0 24.74496-5.20704 50.7904-16.93184 82.05312-13.02016 29.952-31.25248 55.99744-55.99744 80.74752z m0 0" p-id="1898"></path></svg>
