<?xml version="1.0" standalone="no"?><!DOCTYPE svg PUBLIC "-//W3C//DTD SVG 1.1//EN" "http://www.w3.org/Graphics/SVG/1.1/DTD/svg11.dtd"><svg class="icon" width="200px" height="200.00px" viewBox="0 0 1024 1024" version="1.1" xmlns="http://www.w3.org/2000/svg"><path d="M494.902411 947.841476V530.889554L124.157594 322.381594 63.99876 287.50227v468.342925c0 10.431798 5.759888 20.031612 14.911711 25.279511L509.814122 1024l-15.615697-8.959826 0.703986-67.198698zM428.791692 616.583894a29.43943 29.43943 0 0 1-18.111649 13.759733 30.271413 30.271413 0 0 1-22.783558-3.007942L171.516677 505.29005a29.247433 29.247433 0 0 1-16.639678-25.599504 29.119436 29.119436 0 0 1 15.615698-26.239492 30.719405 30.719405 0 0 1 31.039398 1.279976l216.443807 121.725641a29.43943 29.43943 0 0 1 13.951729 17.855654 28.607446 28.607446 0 0 1-3.135939 22.20757zM97.406113 235.983268L509.814122 3.859765a31.231395 31.231395 0 0 1 30.079418 0l415.99194 234.235462-60.094836 33.663348-370.808816 208.443961-370.808815-208.635958-56.7669-35.58331zM833.263856 858.883199l-8.895828 5.119901-269.306782 151.549064V530.825555l370.808815-208.443961 60.158835-39.359238v184.060434a222.587687 222.587687 0 0 0-62.078798-22.207569l-7.935846-1.215977-1.471971-14.271723-34.559331 7.295858-33.919342-6.591872-1.471972 14.079727-8.959826 1.599969c-26.751482 5.759888-52.222988 16.319684-74.942548 31.167396l-7.039864 4.479914-12.223763-9.151823-19.007632 28.543447-29.119436 19.199628 9.407818 11.007787-4.543912 6.783868c-14.271723 22.463565-24.063534 47.359082-28.863441 73.342579l-1.471971 7.679851-14.719715 1.407973 6.527874 34.239337-6.71987 32.767365 14.207724 1.407972 1.919963 8.639833c5.567892 26.111494 16.255685 50.943013 31.48739 73.086584l4.799907 7.039864-8.895827 10.751791 29.119435 18.559641 19.199628 28.031457 11.071786-8.895828 7.23186 4.671909c21.503583 13.43974 45.311122 23.039554 70.20664 28.351451zM1023.98016 681.350639c-3.775927 17.407663-10.879789 33.919343-20.927594 48.767055a30.271413 30.271413 0 0 0-41.983187 0.575989 28.351451 28.351451 0 0 0 0.639988 40.831209c-15.359702 9.79181-32.383373 16.639678-50.303025 20.415604a29.503428 29.503428 0 0 0-58.622865 0 142.717235 142.717235 0 0 1-50.303025-20.415604 28.223453 28.223453 0 0 0-1.919963-38.591253 30.399411 30.399411 0 0 0-39.871227-1.407972 138.557315 138.557315 0 0 1-21.18359-48.959052 28.863441 28.863441 0 0 0 25.983497-28.159454 29.823422 29.823422 0 0 0-27.199473-28.799442c3.519932-17.279665 10.495797-33.919343 20.479603-48.639058a30.079417 30.079417 0 0 0 18.495641 6.783869 31.423391 31.423391 0 0 0 21.375586-8.703832 28.479448 28.479448 0 0 0 0-38.847247c15.679696-10.751792 33.471351-18.367644 52.222989-22.271568a29.759423 29.759423 0 0 0 29.567427 26.239491 30.015418 30.015418 0 0 0 29.311432-26.239491c17.919653 3.455933 35.007322 10.239802 50.303025 19.903614a28.031457 28.031457 0 0 0 1.919963 38.655251c10.879789 10.687793 28.479448 11.327781 40.127222 1.407973 10.239802 14.719715 17.407663 31.103397 21.119591 48.447061a29.567427 29.567427 0 0 0-26.623484 29.055437v1.407973a29.375431 29.375431 0 0 0 27.391469 28.543447z m-90.238251-28.799442a50.815015 50.815015 0 0 0-51.391005-50.111029 50.815015 50.815015 0 0 0-51.455003 50.111029c0 27.711463 23.039554 50.111029 51.455003 50.111029 28.415449 0 51.455003-22.399566 51.455004-50.111029z" /></svg>