<?xml version="1.0" standalone="no"?><!DOCTYPE svg PUBLIC "-//W3C//DTD SVG 1.1//EN" "http://www.w3.org/Graphics/SVG/1.1/DTD/svg11.dtd"><svg class="icon" width="200px" height="171.38px" viewBox="0 0 1195 1024" version="1.1" xmlns="http://www.w3.org/2000/svg"><path fill="#ffffff" d="M151.985344 0.036691a83.622346 83.622346 0 0 1 60.583536 24.148086 79.782545 79.782545 0 0 1 24.745388 59.55959v64.764653a81.915768 81.915768 0 0 1-24.745388 60.242221 82.51307 82.51307 0 0 1-60.583536 24.745388h-67.409851a81.062478 81.062478 0 0 1-59.303603-24.745388A81.915768 81.915768 0 0 1 0.441173 148.50902V83.659038C0.441173 60.108254 8.718079 40.226615 25.27189 24.184777A82.086426 82.086426 0 0 1 84.490164 0.036691h67.49518zM1101.184302 0.036691c25.598677 0 47.784198 8.020919 66.300574 24.148086a75.857414 75.857414 0 0 1 27.81723 59.55959v64.764653a77.649321 77.649321 0 0 1-27.81723 60.242221 96.421685 96.421685 0 0 1-66.300574 24.745388H492.106437c-26.622624 0-49.23479-8.276906-67.751166-24.745388a77.649321 77.649321 0 0 1-27.817229-60.242221V83.659038c0-23.636112 9.215524-43.517752 27.817229-59.55959A99.834842 99.834842 0 0 1 492.106437 0.036691h608.992536zM151.985344 394.682968c23.80677 0 43.944396 8.191577 60.583536 24.745388a81.915768 81.915768 0 0 1 24.745388 60.242221v64.679325a80.379847 80.379847 0 0 1-24.745388 59.047616 82.51307 82.51307 0 0 1-60.583536 24.745388h-67.409851a81.062478 81.062478 0 0 1-59.303603-24.745388A80.379847 80.379847 0 0 1 0.441173 544.349902v-64.679325a81.915768 81.915768 0 0 1 24.830717-60.32755 81.062478 81.062478 0 0 1 59.218274-24.745388h67.49518z m949.113629 0c25.598677 0 47.784198 8.191577 66.300574 24.745388a77.649321 77.649321 0 0 1 27.81723 60.242221v64.679325a76.454717 76.454717 0 0 1-27.81723 59.047616 96.421685 96.421685 0 0 1-66.300574 24.745388H492.106437c-26.622624 0-49.23479-8.276906-67.751166-24.745388a76.454717 76.454717 0 0 1-27.817229-59.047616v-64.679325a77.649321 77.649321 0 0 1 27.817229-60.32755c18.516377-16.468482 41.128542-24.745388 67.751166-24.745388h608.992536zM151.985344 790.52385c23.80677 0 43.944396 8.276906 60.583536 24.745388a80.379847 80.379847 0 0 1 24.745388 58.962287v64.764654a81.915768 81.915768 0 0 1-24.745388 60.24222 82.51307 82.51307 0 0 1-60.583536 24.745389h-67.409851a81.062478 81.062478 0 0 1-59.303603-24.745389 81.915768 81.915768 0 0 1-24.830717-60.24222v-64.764654c0-22.782823 8.276906-42.493804 24.830717-58.962287a81.062478 81.062478 0 0 1 59.218274-24.745388h67.49518z m949.113629 0c25.598677 0 47.784198 8.276906 66.300574 24.745388a76.454717 76.454717 0 0 1 27.81723 58.962287v64.764654a77.649321 77.649321 0 0 1-27.81723 60.24222 96.421685 96.421685 0 0 1-66.300574 24.745389H492.106437c-26.622624 0-49.23479-8.276906-67.751166-24.745389a77.649321 77.649321 0 0 1-27.817229-60.24222v-64.764654c0-22.782823 9.215524-42.493804 27.817229-58.962287 18.516377-16.468482 41.128542-24.745388 67.751166-24.745388h608.992536z" /></svg>