<?xml version="1.0" standalone="no"?><!DOCTYPE svg PUBLIC "-//W3C//DTD SVG 1.1//EN" "http://www.w3.org/Graphics/SVG/1.1/DTD/svg11.dtd"><svg class="icon" width="200px" height="200.00px" viewBox="0 0 1024 1024" version="1.1" xmlns="http://www.w3.org/2000/svg"><path fill="#ffffff" d="M64 569.344h326.4a64 64 0 0 1 64 64V960a64 64 0 0 1-64 64H64a64 64 0 0 1-64-64V633.344a64 64 0 0 1 64-64zM64 0h326.4a64 64 0 0 1 64 64v326.656a64 64 0 0 1-64 64H64a64 64 0 0 1-64-64V64a64 64 0 0 1 64-64z m569.6 569.344H960a64 64 0 0 1 64 64V960a64 64 0 0 1-64 64H633.6a64 64 0 0 1-64-64V633.344a64 64 0 0 1 64-64zM633.6 0H960a64 64 0 0 1 64 64v326.656a64 64 0 0 1-64 64H633.6a64 64 0 0 1-64-64V64a64 64 0 0 1 64-64z" /></svg>