<?xml version="1.0" standalone="no"?><!DOCTYPE svg PUBLIC "-//W3C//DTD SVG 1.1//EN" "http://www.w3.org/Graphics/SVG/1.1/DTD/svg11.dtd"><svg class="icon" width="200px" height="200.00px" viewBox="0 0 1024 1024" version="1.1" xmlns="http://www.w3.org/2000/svg"><path fill="#ffffff" d="M85.333333 597.333333h255.744a85.333333 85.333333 0 0 1 85.333334 85.333334v256a85.333333 85.333333 0 0 1-85.333334 85.333333H85.333333a85.333333 85.333333 0 0 1-85.333333-85.333333V682.666667a85.333333 85.333333 0 0 1 85.333333-85.333334z m0-597.333333h256a85.333333 85.333333 0 0 1 85.333334 85.333333v256.256a85.333333 85.333333 0 0 1-85.333334 85.333334H85.333333a85.333333 85.333333 0 0 1-85.333333-85.333334V85.333333a85.333333 85.333333 0 0 1 85.333333-85.333333z m597.333334 597.333333h255.744a85.333333 85.333333 0 0 1 85.333333 85.333334v256a85.333333 85.333333 0 0 1-85.333333 85.333333H682.666667a85.333333 85.333333 0 0 1-85.333334-85.333333V682.666667a85.333333 85.333333 0 0 1 85.333334-85.333334z m0-597.333333h255.744a85.333333 85.333333 0 0 1 85.333333 85.333333v256a85.333333 85.333333 0 0 1-85.333333 85.333334H682.666667a85.333333 85.333333 0 0 1-85.333334-85.333334V85.333333a85.333333 85.333333 0 0 1 85.333334-85.333333z" /></svg>