<?xml version="1.0" standalone="no"?><!DOCTYPE svg PUBLIC "-//W3C//DTD SVG 1.1//EN" "http://www.w3.org/Graphics/SVG/1.1/DTD/svg11.dtd"><svg class="icon" width="200px" height="200.00px" viewBox="0 0 1024 1024" version="1.1" xmlns="http://www.w3.org/2000/svg"><path fill="#ffffff" d="M875.913255 718.227111c81.722892 0 148.022749 68.47572 148.022749 152.822448C1023.936004 955.52428 957.636148 1023.936004 875.913255 1023.936004c-81.722892 0-148.022749-68.411724-148.022748-152.886445 0-84.346728 66.299856-152.822449 148.022748-152.822448z m-15.03906 65.659896a18.366852 18.366852 0 0 0-13.055184 5.503656 19.1988 19.1988 0 0 0-6.207612 12.863196v89.466408a19.070808 19.070808 0 0 0 6.207612 12.927193 20.47872 20.47872 0 0 0 13.055184 5.951628h85.626649a19.390788 19.390788 0 0 0 12.7992-5.887632 17.726892 17.726892 0 0 0 5.503656-12.927193 18.55884 18.55884 0 0 0-5.43966-13.183176 19.006812 19.006812 0 0 0-12.7992-6.207612h-66.875821v-70.139616a17.342916 17.342916 0 0 0-5.695644-12.863196 18.430848 18.430848 0 0 0-13.11918-5.503656zM384.80795 103.545528h226.801824c23.870508 0 44.029248-23.230548 44.029249-51.83676 0-28.606212-20.094744-51.708768-45.309169-51.708768H384.80795c-25.150428 0-45.245172 23.102556-45.245173 51.708768 0 28.606212 20.15874 51.83676 45.245173 51.83676z m474.018373 567.196551c26.366352 0 51.51678 5.631648 74.299357 15.807012V174.325105c0-70.203612-36.669708-118.840572-113.464909-118.840573H717.395163c1.023936 5.631648 1.5999 11.327292 1.5999 17.150928 0.063996 43.51728-30.526092 86.3946-66.87582 86.394601H338.218861c-38.269608 0-68.923692-42.87732-68.923692-86.394601 0.063996-5.75964 0.63996-11.51928 1.663896-17.150928H167.541529C84.410724 55.484532 63.996 104.121492 63.996 174.325105V869.705643c0 75.451284 29.246172 117.688644 109.817137 117.688645h541.406162a196.019749 196.019749 0 0 1-43.389288-123.640273c0-106.617336 83.706768-193.011937 186.996312-193.011936zM282.222361 319.532029h443.108306c16.382976 0 30.206112 15.67902 31.486032 33.91788 0 16.894944-17.27892 35.133804-33.5979 35.133805H278.830573c-16.382976 0-26.87832-18.23886-26.87832-35.197801 0-16.894944 13.887132-33.91788 30.270108-33.91788z m199.539529 458.851322H278.830573c-16.382976 0-26.87832-18.110868-26.87832-35.069808 0-16.95894 13.887132-33.91788 30.270108-33.91788H483.809762c16.382976 0 30.270108 15.743016 31.486032 33.91788 0 16.95894-17.27892 35.133804-33.5979 35.133804z m-204.787201-191.860009c-16.382976 0-32.63796-20.734704-32.63796-37.693644 0-16.894944 13.75914-31.35804 30.142116-31.35804h443.172302c16.31898 0 30.142116 13.183176 31.422036 31.35804 0 16.95894-11.327292 37.693644-27.710268 37.693644H276.974689z" /></svg>