<?xml version="1.0" standalone="no"?><!DOCTYPE svg PUBLIC "-//W3C//DTD SVG 1.1//EN" "http://www.w3.org/Graphics/SVG/1.1/DTD/svg11.dtd"><svg class="icon" width="200px" height="200.00px" viewBox="0 0 1024 1024" version="1.1" xmlns="http://www.w3.org/2000/svg"><path fill="#ffffff" d="M1000.192 572.544c12.608 0 23.808 13.184 23.808 25.728v333.376c0 28.864-24.96 31.168-36.096 26.24l-118.72-51.84a58.56 58.56 0 0 0-40.96 0.192l-111.296 49.6c-11.264 5.12-42.432 11.52-42.432-21.12V598.208c0-3.52 0.64-7.04 1.92-10.24a21.376 21.376 0 0 1 19.072-15.488zM983.616 64c21.12 0 38.4 16.96 38.4 37.824a38.08 38.08 0 0 1-38.4 37.824h-38.336V524.16h-246.272c-40 0-72.576 31.552-73.6 70.784v175.424H386.432L218.88 935.808a38.656 38.656 0 0 1-53.76-0.512 37.504 37.504 0 0 1-0.448-52.992l113.344-112H153.28a76.16 76.16 0 0 1-76.608-75.648V139.648h-38.4A38.08 38.08 0 0 1 0 101.888C0 80.896 17.152 64 38.336 64h945.28z m-138.88 589.44l-28.352 59.968-37.76 6.016-26.944 4.288 26.88 26.048 20.48 19.84-10.368 65.6 57.664-31.552 18.304 9.472 39.936 20.8-11.776-65.408 46.4-46.912-64.896-8.896-9.664-19.392-19.904-39.872z m-92.416-351.232l-151.68 149.76-126.08-124.544a38.656 38.656 0 0 0-6.016-4.864l-3.264-1.92a38.592 38.592 0 0 0-14.144-4.16l-3.712-0.128a39.424 39.424 0 0 0-7.296 0.64l-3.584 0.896a38.528 38.528 0 0 0-16.192 9.536L215.744 529.408a37.504 37.504 0 0 0 16.96 63.808 38.656 38.656 0 0 0 37.248-10.368L447.424 407.68l126.08 124.544c7.488 7.424 17.28 11.136 27.072 11.136l3.712-0.192a38.4 38.4 0 0 0 23.424-10.88l178.816-176.64 2.56-2.816a37.504 37.504 0 0 0-2.56-50.624 38.656 38.656 0 0 0-54.208 0z" /></svg>