<?xml version="1.0" standalone="no"?><!DOCTYPE svg PUBLIC "-//W3C//DTD SVG 1.1//EN" "http://www.w3.org/Graphics/SVG/1.1/DTD/svg11.dtd"><svg t="1572859923628" class="icon" viewBox="0 0 1024 1024" version="1.1" xmlns="http://www.w3.org/2000/svg" p-id="11631" xmlns:xlink="http://www.w3.org/1999/xlink" width="200" height="200"><defs><style type="text/css"></style></defs><path d="M203.07968 540.9024l-76.6464 36.57216v62.84288h16.39424l60.6976-32.0512v-67.19488z" fill="#151515" p-id="11632"></path><path d="M203.52512 541.07136v67.19488l71.99744 32.05632v-62.71488z" fill="#262727" p-id="11633"></path><path d="M66.43712 393.79968V640.31744h59.99616V424.32zM284.88704 485.3504v154.97216H344.8832V454.83008z" fill="#1A1B1B" p-id="11634"></path><path d="M442.30656 618.61888l22.10304-55.70048h27.38176l14.83776 55.70048h0.6144l29.77792-55.70048h22.71744l-40.2176 74.1376h-27.01824l-15.19616-56.50944-22.10304 56.50944H427.5712l-27.63264-74.1376h25.17504zM757.43744 637.056h-35.00032l-44.21632-61.71648-0.59904 0.39936v61.31712h-22.72768v-74.1376h36.224l42.98752 58.51136 0.60928-0.40448v-58.10688h22.72256zM794.7008 562.91328v32.06656l38.0672-32.06656h28.24704l-41.7536 33.26464 45.44 40.87808h-30.09024l-39.9104-37.67808v37.67808h-24.56064v-74.14272zM609.03424 637.056h-32.50176l15.90272-19.11808z" fill="#231815" p-id="11635"></path><path d="M607.83616 562.91328h-28.86656l-41.1392 74.14272h23.33696l31.26784-59.70944 30.74048 59.70944h24.57088zM896.47104 624.62976V575.33952h78.19776v-12.42624h-102.7584v74.14272h102.7584v-12.42624z" fill="#231815" p-id="11636"></path><path d="M962.87232 604.99968v-12.42624h-57.44128l-2.9952 6.20544 2.9952 6.2208zM950.02112 511.66208l2.62656 26.99776h18.21696l-2.62144-26.99776h-18.22208z m17.82784-46.39232h-28.47744l1.57696-5.76512h-22.6048l-1.56672 5.76512h-16.5632v41.93792h22.67648v20.17792l-2.08896 11.26912h23.05536l1.7152-10.48064v-20.97152h22.28224v-41.9328z m-21.89312 31.45216h-23.9872v-5.10976h23.9872v5.10976z m0-15.98976h-23.9872v-4.98176h23.9872v4.98176z m-72.86784-34.9952l-2.49344 92.79488h23.58784l2.23232-80.9984h74.4448v-11.79648h-97.77152z m-177.3312 93.31712h23.59296v-10.61376h19.39456v0.9216l-2.62144 9.69728h24.38144l1.83296-8.40704v-50.18112H695.7568v58.58304z m23.59296-46.79168h19.39456v6.2976h-19.39456v-6.2976z m0 18.08896h19.39456v6.29248h-19.39456v-6.29248z m149.15072-41.6768l-4.19328-23.45984h-22.27712l4.18816 23.45984h22.28224z m-466.59072-9.56928h21.62176l-15.98464 79.68768h23.58784l9.43616-47.31392h56.8832v27.91936l-2.0736 8.06912H470.9888v11.32032h21.48352v0.00512h24.77056l3.79904-16.91648v-42.19392H442.9312l4.19328-20.57728h81.78688v-11.79648H401.90976v11.79648z m252.82048 53.99552h12.9792v-40.62208h-44.69248v-9.8304h50.85184v-11.79648h-50.85184V445.0816h-23.58784v5.76512h-50.85696v11.79648h50.85696v9.8304h-44.56448v40.62208h12.3136l-11.136 25.95328h24.1152l11.14112-25.95328h39.84896v25.95328h44.82048v-11.53536h-21.23264v-14.4128z m-10.60864-11.79648h-65.66912v-17.03424h65.66912v17.03424z m90.29632-50.85184l2.23232 14.54592h-14.81216l5.376-19.7888h-24.38144l-8.7808 31.58016h69.59616l-5.24288-26.3424h-23.9872z m108.1344 23.59296l3.80416 23.46496h22.28224l-3.79904-23.46496h-22.28736z m55.9616 64.6144h18.08384l2.75968-26.99776h-18.22208l-2.62144 26.99776z m-57.66144-0.128h22.28224l5.23264-35.11808h-22.27712l-5.23776 35.11808z m-50.59584-44.95872h-23.59296v45.48096h57.27744v-11.79648h-33.67936v-13.26592l33.67936-3.90656V498.688l-33.67936 3.93216v-9.04704z m0-47.96928h-23.59296v44.43648h57.27744v-11.79648h-33.67936v-12.45184l33.67936-3.79904v-11.40736l-33.67936 3.79904v-8.7808z" fill="#231815" p-id="11637"></path></svg>
