<?xml version="1.0" standalone="no"?><!DOCTYPE svg PUBLIC "-//W3C//DTD SVG 1.1//EN" "http://www.w3.org/Graphics/SVG/1.1/DTD/svg11.dtd"><svg t="1591940730703" class="icon" viewBox="0 0 1024 1024" version="1.1" xmlns="http://www.w3.org/2000/svg" p-id="4254" xmlns:xlink="http://www.w3.org/1999/xlink" width="200" height="200"><defs><style type="text/css"></style></defs><path d="M819.2 1024H768a204.8 204.8 0 0 1-204.8-204.8v-153.6A204.8 204.8 0 0 1 768 460.8h51.2a204.8 204.8 0 0 1 204.8 204.8v153.6a204.8 204.8 0 0 1-204.8 204.8zM768 563.2a102.4 102.4 0 0 0-102.4 102.4v153.6a102.4 102.4 0 0 0 102.4 102.4h51.2a102.4 102.4 0 0 0 102.4-102.4v-153.6a102.4 102.4 0 0 0-102.4-102.4zM256 1024h-51.2A204.8 204.8 0 0 1 0 819.2v-102.4A204.8 204.8 0 0 1 204.8 512H256a204.8 204.8 0 0 1 204.8 204.8v102.4A204.8 204.8 0 0 1 256 1024z m-51.2-409.6a102.4 102.4 0 0 0-102.4 102.4v102.4a102.4 102.4 0 0 0 102.4 102.4H256a102.4 102.4 0 0 0 102.4-102.4v-102.4A102.4 102.4 0 0 0 256 614.4z m-25.6-204.8A179.2 179.2 0 0 1 0 230.4v-51.2a179.2 179.2 0 0 1 358.4 0v51.2a179.2 179.2 0 0 1-179.2 179.2z m0-307.2a76.8 76.8 0 0 0-76.8 76.8v51.2a76.8 76.8 0 1 0 153.6 0v-51.2a76.8 76.8 0 0 0-76.8-76.8z m665.6 256H640A179.2 179.2 0 1 1 640 0h204.8a179.2 179.2 0 0 1 0 358.4z m-204.8-256A76.8 76.8 0 1 0 640 256h204.8a76.8 76.8 0 0 0 0-153.6z" fill="#4E4E4E" p-id="4255"></path></svg>