<?xml version="1.0" standalone="no"?><!DOCTYPE svg PUBLIC "-//W3C//DTD SVG 1.1//EN" "http://www.w3.org/Graphics/SVG/1.1/DTD/svg11.dtd"><svg t="1591838246638" class="icon" viewBox="0 0 1024 1024" version="1.1" xmlns="http://www.w3.org/2000/svg" p-id="5434" xmlns:xlink="http://www.w3.org/1999/xlink" width="200" height="200"><defs><style type="text/css"></style></defs><path d="M541.63665 610.091626l311.335646 341.18975a41.454555 41.454555 0 0 1-4.264872 59.708206 25.589231 25.589231 0 0 1-25.589231 12.794615H196.182029a40.26039 40.26039 0 0 1-42.648719-42.648718 46.060616 46.060616 0 0 1 12.794615-29.854103l311.335647-341.18975a46.401806 46.401806 0 0 1 63.973078 0z m-59.708206-196.184105L170.592797 72.717771a41.454555 41.454555 0 0 1 4.264872-59.708206 25.589231 25.589231 0 0 1 25.589231-12.794615h622.671293a40.26039 40.26039 0 0 1 42.648719 42.648718 46.060616 46.060616 0 0 1-12.794616 29.854103l-311.335646 341.18975a41.198662 41.198662 0 0 1-59.708206 0z m17.059487-123.681285a20.64198 20.64198 0 0 0 29.854103 0l157.800259-170.594874a15.694728 15.694728 0 0 0 4.264872-12.794616 20.130195 20.130195 0 0 0-21.324359-21.324359H358.247159a15.694728 15.694728 0 0 0-12.794615 4.264872 20.64198 20.64198 0 0 0 0 29.854103zM938.269733 511.999574a40.26039 40.26039 0 0 1-42.648718 42.648718 42.648719 42.648719 0 0 1 0-85.297437 42.648719 42.648719 0 0 1 42.648718 42.648719zM810.323577 511.999574a40.26039 40.26039 0 0 1-42.648718 42.648718 42.648719 42.648719 0 0 1 0-85.297437 42.648719 42.648719 0 0 1 42.648718 42.648719zM682.377421 511.999574a40.26039 40.26039 0 0 1-42.648718 42.648718 42.648719 42.648719 0 0 1 0-85.297437A42.648719 42.648719 0 0 1 682.377421 511.999574zM554.431265 511.999574a40.26039 40.26039 0 0 1-42.648718 42.648718 42.648719 42.648719 0 0 1 0-85.297437 42.648719 42.648719 0 0 1 42.648718 42.648719zM426.485109 511.999574a42.648719 42.648719 0 1 1-42.648718-42.648719 42.648719 42.648719 0 0 1 42.648718 42.648719zM298.538953 511.999574a42.648719 42.648719 0 1 1-42.648718-42.648719 42.648719 42.648719 0 0 1 42.648718 42.648719zM170.592797 511.999574a42.648719 42.648719 0 1 1-42.648718-42.648719 42.648719 42.648719 0 0 1 42.648718 42.648719z" fill="#4E4E4E" p-id="5435"></path></svg>