<?xml version="1.0" standalone="no"?><!DOCTYPE svg PUBLIC "-//W3C//DTD SVG 1.1//EN" "http://www.w3.org/Graphics/SVG/1.1/DTD/svg11.dtd"><svg t="1591838029446" class="icon" viewBox="0 0 1229 1024" version="1.1" xmlns="http://www.w3.org/2000/svg" p-id="4627" xmlns:xlink="http://www.w3.org/1999/xlink" width="240.0390625" height="200"><defs><style type="text/css"></style></defs><path d="M732.352892 476.208753l409.563548-373.726738a49.761971 49.761971 0 0 1 71.673621 5.119544 30.717266 30.717266 0 0 1 15.358634 30.717267V890.891847a48.328499 48.328499 0 0 1-51.195444 51.195443 55.291079 55.291079 0 0 1-35.836811-15.358633l-409.563548-373.726738a55.700643 55.700643 0 0 1 0-76.793166z m-235.499041 71.673621L87.290302 921.609113a49.761971 49.761971 0 0 1-71.673621-5.119545 30.717266 30.717266 0 0 1-15.358633-30.717266v-747.453476a48.328499 48.328499 0 0 1 51.195444-51.195444 55.291079 55.291079 0 0 1 35.83681 15.358633l409.563549 373.726738a49.454799 49.454799 0 0 1 0 71.673621z m-148.466786-20.478177a24.778595 24.778595 0 0 0 0-35.83681l-204.781775-189.423142a18.839923 18.839923 0 0 0-15.358633-5.119544 24.164249 24.164249 0 0 0-25.597722 25.597722V696.349161a18.839923 18.839923 0 0 0 5.119545 15.358633 24.778595 24.778595 0 0 0 35.83681 0zM614.603371 0.091128a48.328499 48.328499 0 0 1 51.195444 51.195443 51.195444 51.195444 0 0 1-102.390887 0A51.195444 51.195444 0 0 1 614.603371 0.091128z m0 153.586331a48.328499 48.328499 0 0 1 51.195444 51.195443 51.195444 51.195444 0 0 1-102.390887 0 51.195444 51.195444 0 0 1 51.195443-51.195443zM614.603371 307.26379a48.328499 48.328499 0 0 1 51.195444 51.195443 51.195444 51.195444 0 0 1-102.390887 0A51.195444 51.195444 0 0 1 614.603371 307.26379z m0 153.58633a48.328499 48.328499 0 0 1 51.195444 51.195444 51.195444 51.195444 0 0 1-102.390887 0 51.195444 51.195444 0 0 1 51.195443-51.195444zM614.603371 614.436451a51.195444 51.195444 0 1 1-51.195443 51.195444A51.195444 51.195444 0 0 1 614.603371 614.436451z m0 153.586331a51.195444 51.195444 0 1 1-51.195443 51.195444 51.195444 51.195444 0 0 1 51.195443-51.195444zM614.603371 921.609113a51.195444 51.195444 0 1 1-51.195443 51.195443A51.195444 51.195444 0 0 1 614.603371 921.609113z" fill="#4E4E4E" p-id="4628"></path></svg>