<?xml version="1.0" standalone="no"?><!DOCTYPE svg PUBLIC "-//W3C//DTD SVG 1.1//EN" "http://www.w3.org/Graphics/SVG/1.1/DTD/svg11.dtd"><svg t="1591838217393" class="icon" viewBox="0 0 1024 1024" version="1.1" xmlns="http://www.w3.org/2000/svg" p-id="5300" xmlns:xlink="http://www.w3.org/1999/xlink" width="200" height="200"><defs><style type="text/css"></style></defs><path d="M937.590874 241.943839L533.566721 6.505303a39.127962 39.127962 0 0 0-43.20845 0L86.390015 241.999736A44.717671 44.717671 0 0 0 64.813739 278.724123v466.628892a41.811022 41.811022 0 0 0 21.576276 36.724387L490.414168 1017.348247a39.127962 39.127962 0 0 0 43.20845 0l403.968256-233.314447a44.717671 44.717671 0 0 0 21.576276-36.724387V278.724123a41.811022 41.811022 0 0 0-21.576276-36.724387zM470.961982 905.16279l-319.731345-183.621934V347.812924l319.731345 166.349734v391.279618z m43.208449-466.628892l-315.427269-162.101556L511.990445 95.046291l324.203111 187.92601-321.855434 155.561597z m358.579821 283.006958L634.964039 857.650265l-79.932837 45.388436V514.274453l317.551359-153.381611v360.759808z" fill="#4E4E4E" p-id="5301"></path></svg>