<?xml version="1.0" standalone="no"?><!DOCTYPE svg PUBLIC "-//W3C//DTD SVG 1.1//EN" "http://www.w3.org/Graphics/SVG/1.1/DTD/svg11.dtd"><svg t="1591838058985" class="icon" viewBox="0 0 1024 1024" version="1.1" xmlns="http://www.w3.org/2000/svg" p-id="4895" xmlns:xlink="http://www.w3.org/1999/xlink" width="200" height="200"><defs><style type="text/css"></style></defs><path d="M512 1024a512 512 0 1 1 512-512 512 512 0 0 1-512 512zM512 128A384 384 0 1 0 896 512 397.738667 397.738667 0 0 0 512 128z m-51.797333 578.218667a63.061333 63.061333 0 0 1-94.549334-56.746667V374.528a63.061333 63.061333 0 0 1 94.549334-56.746667l229.205333 137.557334a66.816 66.816 0 0 1 0 113.408L460.202667 706.218667z" fill="#4E4E4E" p-id="4896"></path></svg>