<?xml version="1.0" standalone="no"?><!DOCTYPE svg PUBLIC "-//W3C//DTD SVG 1.1//EN" "http://www.w3.org/Graphics/SVG/1.1/DTD/svg11.dtd"><svg t="1591838025422" class="icon" viewBox="0 0 1024 1024" version="1.1" xmlns="http://www.w3.org/2000/svg" p-id="4493" xmlns:xlink="http://www.w3.org/1999/xlink" width="200" height="200"><defs><style type="text/css"></style></defs><path d="M1024.056318 85.416247a43.262774 43.262774 0 0 0-25.599274-39.337553 41.98281 41.98281 0 0 0-46.676011 9.30107l-87.122865 86.013563A518.214651 518.214651 0 0 0 512.070825 0.085331a511.985494 511.985494 0 1 0 393.972837 839.314886 21.332729 21.332729 0 0 0-1.279964-28.671188L813.374288 718.912964a25.599275 25.599275 0 0 0-17.066183-5.973164 21.588722 21.588722 0 0 0-15.359565 8.021106 337.483771 337.483771 0 0 1-269.30437 132.604243 341.323662 341.323662 0 1 1 232.868069-591.513907L652.696174 354.037969a41.129501 41.129501 0 0 0-9.30107 45.993363 42.665458 42.665458 0 0 0 39.337552 26.623246h298.658205a42.665458 42.665458 0 0 0 42.665457-42.665458V85.330916z" fill="#4E4E4E" p-id="4494"></path></svg>