<?xml version="1.0" standalone="no"?><!DOCTYPE svg PUBLIC "-//W3C//DTD SVG 1.1//EN" "http://www.w3.org/Graphics/SVG/1.1/DTD/svg11.dtd"><svg t="1591838305718" class="icon" viewBox="0 0 1024 1024" version="1.1" xmlns="http://www.w3.org/2000/svg" p-id="5702" xmlns:xlink="http://www.w3.org/1999/xlink" width="200" height="200"><defs><style type="text/css"></style></defs><path d="M937.174628 169.903545L802.429179 11.528585A30.988183 30.988183 0 0 0 778.717905 0H110.305257A36.384542 36.384542 0 0 0 77.02771 39.164484v945.507506a36.629831 36.629831 0 0 0 33.277547 39.32801h803.158097a36.548068 36.548068 0 0 0 33.441073-39.32801V198.438837a43.416161 43.416161 0 0 0-9.729799-28.535292zM656.891012 68.353881v273.08847H308.989384V68.353881zM308.989384 955.891408V614.530821H714.779227v341.360587z m579.945065 0H772.912731V596.87001a46.604919 46.604919 0 0 0-42.762057-50.447781H293.781463a46.686682 46.686682 0 0 0-42.762057 50.447781v359.184925H134.997688V68.272118h116.021718v290.99457a46.768445 46.768445 0 0 0 42.762057 50.44778h378.31747a46.523156 46.523156 0 0 0 42.762057-50.44778V68.353881h53.718301L888.934449 209.558607z" fill="#4E4E4E" p-id="5703"></path></svg>