<?xml version="1.0" standalone="no"?><!DOCTYPE svg PUBLIC "-//W3C//DTD SVG 1.1//EN" "http://www.w3.org/Graphics/SVG/1.1/DTD/svg11.dtd"><svg t="1591838376846" class="icon" viewBox="0 0 1025 1024" version="1.1" xmlns="http://www.w3.org/2000/svg" p-id="5836" xmlns:xlink="http://www.w3.org/1999/xlink" width="200.1953125" height="200"><defs><style type="text/css"></style></defs><path d="M1022.464 479.488a97.28 97.28 0 0 1-60.672 59.733333 20.736 20.736 0 0 1-4.608 1.792 47.274667 47.274667 0 0 0-29.952 37.973334 14.250667 14.250667 0 0 1 0 1.450666 411.392 411.392 0 0 1-5.290667 30.464 13.738667 13.738667 0 0 1 0 1.792 47.616 47.616 0 0 0 15.445334 45.056 28.416 28.416 0 0 1 3.84 3.328 98.645333 98.645333 0 0 1 36.693333 75.861334 25.6 25.6 0 0 1-2.389333 10.922666 520.533333 520.533333 0 0 1-38.741334 67.413334 23.978667 23.978667 0 0 1-8.533333 7.509333 96.512 96.512 0 0 1-46.848 12.202667 94.890667 94.890667 0 0 1-35.754667-6.912 22.442667 22.442667 0 0 1-4.693333-1.706667 44.202667 44.202667 0 0 0-15.189333-2.56 49.408 49.408 0 0 0-31.829334 12.202667l-0.682666 0.512a394.24 394.24 0 0 1-23.296 19.712l-0.938667 0.938666a48.810667 48.810667 0 0 0-18.090667 43.264 25.6 25.6 0 0 1 1.450667 8.533334v0.426666a99.328 99.328 0 0 1-19.029333 78.677334 24.490667 24.490667 0 0 1-8.96 7.168 508.330667 508.330667 0 0 1-74.581334 27.392 24.405333 24.405333 0 0 1-6.4 0.853333 22.954667 22.954667 0 0 1-4.949333-0.512 97.621333 97.621333 0 0 1-65.365333-49.493333 30.293333 30.293333 0 0 1-2.56-4.437334 46.848 46.848 0 0 0-42.069334-23.210666h-32.853333a47.104 47.104 0 0 0-42.154667 23.296 32.938667 32.938667 0 0 1-2.56 4.352 97.365333 97.365333 0 0 1-65.28 49.493333 23.210667 23.210667 0 0 1-11.434666 0 511.402667 511.402667 0 0 1-74.581334-27.392 24.490667 24.490667 0 0 1-8.96-7.168 99.413333 99.413333 0 0 1-18.688-80.64 23.552 23.552 0 0 1 0.768-4.949333 47.957333 47.957333 0 0 0-17.066666-45.226667l-1.194667-1.024a374.613333 374.613333 0 0 1-23.125333-19.626667 49.92 49.92 0 0 0-32.256-12.544 44.032 44.032 0 0 0-15.104 2.56 22.186667 22.186667 0 0 1-4.864 1.706667 96.768 96.768 0 0 1-82.432-5.290667 24.746667 24.746667 0 0 1-8.533334-7.509333 529.578667 529.578667 0 0 1-38.741333-67.413333 24.405333 24.405333 0 0 1-2.389333-10.922667 98.474667 98.474667 0 0 1 36.778666-75.690667 20.053333 20.053333 0 0 1 3.754667-3.328 47.786667 47.786667 0 0 0 15.274667-45.994666 2.816 2.816 0 0 1 0-0.938667 481.792 481.792 0 0 1-5.290667-30.464 18.773333 18.773333 0 0 1 0-1.962667 47.104 47.104 0 0 0-29.866667-37.376 22.016 22.016 0 0 1-4.778666-1.792 97.450667 97.450667 0 0 1-60.586667-59.733333 25.6 25.6 0 0 1-1.28-10.666667A527.701333 527.701333 0 0 1 13.653333 395.946667a23.466667 23.466667 0 0 1 4.778667-9.642667 95.658667 95.658667 0 0 1 77.653333-35.84 22.528 22.528 0 0 1 4.949334 0 47.616 47.616 0 0 0 40.874666-25.6l0.682667-1.109333c4.352-8.533333 9.472-17.066667 15.104-26.453334a8.533333 8.533333 0 0 1 0.768-1.365333 47.872 47.872 0 0 0 0.853333-48.725333 19.797333 19.797333 0 0 1-1.962666-3.669334 98.56 98.56 0 0 1-7.936-87.381333 23.125333 23.125333 0 0 1 5.717333-8.533333 518.741333 518.741333 0 0 1 54.784-46.848 24.490667 24.490667 0 0 1 9.472-4.266667 96.341333 96.341333 0 0 1 83.797333 22.784 30.037333 30.037333 0 0 1 3.754667 3.242667 45.482667 45.482667 0 0 0 29.269333 10.496 56.234667 56.234667 0 0 0 18.176-3.242667h0.426667a412.16 412.16 0 0 1 30.464-11.178667 47.445333 47.445333 0 0 0 31.744-36.778666 25.6 25.6 0 0 1 0.768-4.266667 97.365333 97.365333 0 0 1 50.176-72.533333 23.296 23.296 0 0 1 9.813333-2.816 456.533333 456.533333 0 0 1 70.741334 0 23.296 23.296 0 0 1 9.728 2.816 97.536 97.536 0 0 1 50.090666 72.021333 22.357333 22.357333 0 0 1 0.938667 4.864 47.274667 47.274667 0 0 0 31.658667 36.437333c10.069333 3.328 20.224 6.997333 30.464 11.178667a54.954667 54.954667 0 0 0 18.346666 3.328 45.482667 45.482667 0 0 0 29.269334-10.496 23.04 23.04 0 0 1 3.925333-3.242667 96.341333 96.341333 0 0 1 83.626667-22.698666 23.978667 23.978667 0 0 1 9.472 4.266666 518.826667 518.826667 0 0 1 54.784 46.848 23.978667 23.978667 0 0 1 5.717333 8.533334 98.730667 98.730667 0 0 1-7.765333 86.954666 25.6 25.6 0 0 1-2.389334 4.352 48.128 48.128 0 0 0 1.194667 48.469334l0.682667 1.28c5.461333 8.533333 10.581333 17.749333 15.274666 26.794666 0 0.426667 0.512 0.768 0.768 1.194667a47.189333 47.189333 0 0 0 40.192 24.832 25.6 25.6 0 0 1 5.290667 0 96.597333 96.597333 0 0 1 77.653333 35.84 23.466667 23.466667 0 0 1 4.778667 9.642667 534.869333 534.869333 0 0 1 12.629333 73.642666 25.6 25.6 0 0 1-2.389333 10.410667zM511.829333 262.314667a258.645333 258.645333 0 1 0 255.488 258.645333 257.365333 257.365333 0 0 0-255.232-258.645333z" fill="#4E4E4E" p-id="5837"></path></svg>