<?xml version="1.0" standalone="no"?><!DOCTYPE svg PUBLIC "-//W3C//DTD SVG 1.1//EN" "http://www.w3.org/Graphics/SVG/1.1/DTD/svg11.dtd"><svg t="1591838020844" class="icon" viewBox="0 0 1024 1024" version="1.1" xmlns="http://www.w3.org/2000/svg" p-id="4359" xmlns:xlink="http://www.w3.org/1999/xlink" width="200" height="200"><defs><style type="text/css"></style></defs><path d="M223.068407 42.638241a40.762159 40.762159 0 0 0-38.715523-42.638241H89.354883a40.762159 40.762159 0 0 0-38.715523 42.638241v938.723518a40.762159 40.762159 0 0 0 38.715523 42.638241h95.339107a40.762159 40.762159 0 0 0 38.715523-42.638241V42.638241z m138.147902 939.1499c0 23.365756 14.07062 30.78481 30.955363 17.055297l568.026649-461.772152a31.296469 31.296469 0 0 0 0-50.398401L392.086395 24.900733c-17.055296-13.900067-30.955363-6.139907-30.955363 17.055296v940.087942z" fill="#4E4E4E" p-id="4360"></path></svg>