<?xml version="1.0" standalone="no"?><!DOCTYPE svg PUBLIC "-//W3C//DTD SVG 1.1//EN" "http://www.w3.org/Graphics/SVG/1.1/DTD/svg11.dtd"><svg t="1591773119655" class="icon" viewBox="0 0 1119 1024" version="1.1" xmlns="http://www.w3.org/2000/svg" p-id="7351" xmlns:xlink="http://www.w3.org/1999/xlink" width="218.5546875" height="200"><defs><style type="text/css"></style></defs><path d="M918.848585 1017.459751H200.548838a46.627464 46.627464 0 0 1-46.627464-46.627464V406.397533a405.946482 405.946482 0 0 1 811.892964 0v564.378373a46.627464 46.627464 0 0 1-46.627464 46.627464zM247.119921 924.148442h625.044819V406.397533a312.522409 312.522409 0 1 0-625.044819 0z" fill="#92929D" p-id="7352"></path><path d="M1072.882722 1023.943619H46.627464a46.683845 46.683845 0 0 1 0-93.31131h1026.142495a46.683845 46.683845 0 0 1 0 93.31131z m-551.805308-186.566238a46.796608 46.796608 0 0 1-39.185111-72.788459l107.124766-160.461623H443.158242a46.063649 46.063649 0 0 1-38.73406-71.378923l155.330911-233.250083a46.627464 46.627464 0 0 1 77.919172 50.405022L530.549499 510.815989H676.577469a45.612598 45.612598 0 0 1 38.734061 70.927872l-155.330911 234.603237a46.627464 46.627464 0 0 1-38.73406 20.973902z" fill="#92929D" p-id="7353"></path></svg>