<?xml version="1.0" standalone="no"?><!DOCTYPE svg PUBLIC "-//W3C//DTD SVG 1.1//EN" "http://www.w3.org/Graphics/SVG/1.1/DTD/svg11.dtd"><svg t="1591772908505" class="icon" viewBox="0 0 1147 1024" version="1.1" xmlns="http://www.w3.org/2000/svg" p-id="4009" xmlns:xlink="http://www.w3.org/1999/xlink" width="224.0234375" height="200"><defs><style type="text/css"></style></defs><path d="M879.972372 482.407704h112.008343v62.170863h-112.008343v-62.170863zM566.280053 777.984537h62.860471v110.920883h-62.860471v-110.920883z m321.675865-508.00279l-79.19889 78.403187-44.347134-43.869713 79.198889-78.482757z m-44.373658 530.97206l-79.172366-78.456235 44.400181-43.869713 79.198889 78.403188-44.400181 43.949283zM452.255931 647.966802l115.191152-114.050644v-250.805325a47.58299 47.58299 0 0 1 95.165979 0v288.044186l-143.040727 143.226391a47.74213 47.74213 0 0 1-67.157263 0.132617 46.681194 46.681194 0 0 1-0.132617-66.467655z m171.314678-603.195293a44.691939 44.691939 0 0 0 40.554288 44.453228 419.069811 419.069811 0 1 1-459.730192 472.912324l32.358555 31.668947a45.673305 45.673305 0 0 0 63.152229-1.16703 44.532798 44.532798 0 0 0 0.663085-62.515667L156.2282 387.241724 11.463451 530.255928a44.400181 44.400181 0 0 0 1.724022 61.322114 45.514164 45.514164 0 0 0 61.958676 1.936208l37.636712-37.132768A513.068761 513.068761 0 1 0 672.691957 0.185664a45.408071 45.408071 0 0 0-34.480428 11.564205 44.453228 44.453228 0 0 0-14.614396 33.02164z" fill="#0062FF" p-id="4010"></path></svg>