<?xml version="1.0" standalone="no"?><!DOCTYPE svg PUBLIC "-//W3C//DTD SVG 1.1//EN" "http://www.w3.org/Graphics/SVG/1.1/DTD/svg11.dtd"><svg t="1591773004814" class="icon" viewBox="0 0 1024 1024" version="1.1" xmlns="http://www.w3.org/2000/svg" p-id="5759" xmlns:xlink="http://www.w3.org/1999/xlink" width="200" height="200"><defs><style type="text/css"></style></defs><path d="M576.968473 1023.998976a102.399232 102.399232 0 0 1-48.434837-11.929511l-132.095009-73.522648A99.122457 99.122457 0 0 1 344.06142 850.432278V431.824217a20.479846 20.479846 0 0 0-8.03834-15.871881L31.026967 171.52537l-3.327975-3.942371a97.27927 97.27927 0 0 1-19.046257-107.97999A97.791267 97.791267 0 0 1 99.890451 0.006656h823.136226a101.170441 101.170441 0 0 1 92.159309 59.596353 98.61046 98.61046 0 0 1-17.919865 107.97999l-4.04477 3.942371-308.733685 247.089346a21.196641 21.196641 0 0 0-7.321545 15.871881v488.853934A99.173656 99.173656 0 0 1 579.272455 1023.998976h-2.303982zM83.404174 111.929017l303.716123 242.430181A100.402447 100.402447 0 0 1 424.956813 432.489812v418.608061a19.404654 19.404654 0 0 0 9.881526 17.919865l132.043809 72.191459a22.937428 22.937428 0 0 0 20.479847 0 20.838244 20.838244 0 0 0 9.932725-17.868666V435.203392a99.788052 99.788052 0 0 1 37.222121-78.284213l304.432917-244.938963a20.479846 20.479846 0 0 0 1.894386-21.196641 19.96785 19.96785 0 0 0-17.919866-11.263915H99.99285a18.790259 18.790259 0 0 0-17.919866 11.263915 20.172649 20.172649 0 0 0 1.33119 21.196641z m902.546831 415.94568h-216.523176a39.730902 39.730902 0 0 1 0-79.410604h216.523176a39.014107 39.014107 0 0 1 38.041315 39.730902 38.246113 38.246113 0 0 1-38.041315 39.730902z m0 152.626055h-216.523176a39.782102 39.782102 0 0 1 0-79.513003h216.523176a39.065307 39.065307 0 0 1 38.041315 39.782101 38.246113 38.246113 0 0 1-38.041315 39.730902z m0 152.626056h-216.523176a39.782102 39.782102 0 0 1 0-79.513004h216.523176a39.065307 39.065307 0 0 1 38.041315 39.730902 38.60451 38.60451 0 0 1-38.041315 39.782102z" fill="#171725" p-id="5760"></path></svg>