<?xml version="1.0" standalone="no"?><!DOCTYPE svg PUBLIC "-//W3C//DTD SVG 1.1//EN" "http://www.w3.org/Graphics/SVG/1.1/DTD/svg11.dtd"><svg t="1591773061109" class="icon" viewBox="0 0 1024 1024" version="1.1" xmlns="http://www.w3.org/2000/svg" p-id="6658" xmlns:xlink="http://www.w3.org/1999/xlink" width="200" height="200"><defs><style type="text/css"></style></defs><path d="M519.643429 0a193.243429 193.243429 0 0 0-192.804572 186.953143H82.834286a49.152 49.152 0 0 0 0 98.304h54.272v550.912A174.738286 174.738286 0 0 0 293.778286 1024h441.344a174.299429 174.299429 0 0 0 156.672-187.830857V285.696h49.444571a49.152 49.152 0 0 0 0-98.304H712.155429A192.585143 192.585143 0 0 0 519.643429 0z m-100.937143 186.953143a100.790857 100.790857 0 0 1 201.289143 0H418.706286zM293.778286 931.84c-30.72 0-64.512-39.350857-64.512-95.670857V285.696h570.514285v550.912c0 56.32-33.792 95.817143-64.512 95.817143H293.778286z" fill="#B5B5BE" p-id="6659"></path><path d="M359.826286 813.641143a46.592 46.592 0 0 0 40.96-50.761143V473.673143a41.910857 41.910857 0 1 0-81.92 0v289.206857a46.226286 46.226286 0 0 0 40.96 50.761143z m148.48 0a46.592 46.592 0 0 0 40.96-50.761143V473.673143a41.910857 41.910857 0 1 0-81.92 0v289.206857a46.592 46.592 0 0 0 40.96 50.761143z m156.086857 0a46.592 46.592 0 0 0 40.96-50.761143V473.673143a41.910857 41.910857 0 1 0-81.92 0v289.206857a46.299429 46.299429 0 0 0 40.96 50.761143z" fill="#B5B5BE" p-id="6660"></path></svg>