<?xml version="1.0" standalone="no"?><!DOCTYPE svg PUBLIC "-//W3C//DTD SVG 1.1//EN" "http://www.w3.org/Graphics/SVG/1.1/DTD/svg11.dtd"><svg t="1591772950228" class="icon" viewBox="0 0 1028 1024" version="1.1" xmlns="http://www.w3.org/2000/svg" p-id="4728" xmlns:xlink="http://www.w3.org/1999/xlink" width="200.78125" height="200"><defs><style type="text/css"></style></defs><path d="M985.560426 275.226087l-162.127038-0.592966L1005.325989 93.975867a51.736363 51.736363 0 0 0 0-72.687861 50.846913 50.846913 0 0 0-72.193721 0l-183.671502 182.831466 1.235348-165.635425a36.813363 36.813363 0 0 0-36.566293-38.394608h-26.139959a35.578015 35.578015 0 0 0-38.147538 33.650873l-1.087106 286.897158c0 0.395311 1.334176 0.642381 1.334176 1.037692l-1.976557 18.8267a33.552045 33.552045 0 0 0 35.083876 36.813363l18.629044-0.395312a6.374394 6.374394 0 0 0 1.087106 0l287.243056 1.630659a39.531128 39.531128 0 0 0 38.196952-38.444021v-26.584684a42.051237 42.051237 0 0 0-42.792445-38.29578z m40.914717 437.362514v-26.337614a39.531128 39.531128 0 0 0-38.196952-38.444022l-285.760639 1.581245h-1.087106l-18.57963-0.444725a33.304975 33.304975 0 0 0-34.88622 36.862777l1.976556 18.826699c0 0.395311-1.334176 0.642381-1.334175 1.037692l1.087106 284.673533a35.380359 35.380359 0 0 0 37.999296 33.552045h27.721203a36.763949 36.763949 0 0 0 36.319224-38.394608l-1.185934-162.028209 182.831465 181.546703a50.402188 50.402188 0 0 0 71.847825 0 51.835191 51.835191 0 0 0 0-72.687861l-182.831466-182.436154 161.039932-0.592966a40.469992 40.469992 0 0 0 43.039515-36.714535zM369.368974 659.270992a34.985048 34.985048 0 0 0-26.139958-10.475748l-18.678458 0.444725h-1.037692l-283.438185-1.433004a39.531128 39.531128 0 0 0-38.147539 38.444022v26.337614a40.766475 40.766475 0 0 0 42.84186 36.763948l159.853997 0.592967-183.424432 182.337327a51.637535 51.637535 0 0 0 0 72.68786 50.797499 50.797499 0 0 0 72.144308 0l183.671502-182.831465-1.235348 161.287001a36.813363 36.813363 0 0 0 36.467465 38.29578h26.189372a35.528601 35.528601 0 0 0 38.147539-33.650873l1.087106-282.598148c0-0.395311-1.334176-0.642381-1.334176-1.037692l2.02597-18.8267a35.380359 35.380359 0 0 0-8.993331-26.337614z m8.252123-338.633522L376.533991 33.789725A35.429773 35.429773 0 0 0 338.633522 0.089439h-27.721203a36.763949 36.763949 0 0 0-36.319224 38.29578L275.828443 202.686468 92.947564 21.139765a50.501016 50.501016 0 0 0-71.897239 0 51.835191 51.835191 0 0 0 0 72.687861l181.101979 180.805495-159.5081 0.592966A41.902995 41.902995 0 0 0 0 313.521867v26.337614a39.531128 39.531128 0 0 0 37.999296 38.444022l285.760639-1.630659a6.917947 6.917947 0 0 0 1.037692 0l18.57963 0.444725a33.403803 33.403803 0 0 0 34.88622-36.912191l-2.02597-18.826699c0-0.098828 1.383589-0.098828 1.38359-0.741209z" fill="#92929D" p-id="4729"></path></svg>