<?xml version="1.0" standalone="no"?><!DOCTYPE svg PUBLIC "-//W3C//DTD SVG 1.1//EN" "http://www.w3.org/Graphics/SVG/1.1/DTD/svg11.dtd"><svg t="1591772870011" class="icon" viewBox="0 0 1024 1024" version="1.1" xmlns="http://www.w3.org/2000/svg" p-id="3648" xmlns:xlink="http://www.w3.org/1999/xlink" width="200" height="200"><defs><style type="text/css"></style></defs><path d="M604.161101 804.384188a273.885212 273.885212 0 0 1-53.181595 10.612145V553.367062l121.42325-121.326556a39.209339 39.209339 0 1 0-55.453899-55.405553l-65.969351 65.872657v-101.81858a39.209339 39.209339 0 1 0-78.394505 0v280.218657l-65.848483-65.969351a39.209339 39.209339 0 1 0-55.453899 55.453899l121.254035 121.374903v82.649033q-27.340174-4.496262-54.41444-10.442932a265.013555 265.013555 0 0 1-190.269242-242.21799c-5.269813-137.474422 67.371411-226.118471 163.750965-328.517213l17.356538-19.556323a793.348524 793.348524 0 0 0 101.866927-131.310192 950.403442 950.403442 0 0 0 121.157342 150.842341l3.650191 4.230354c88.813263 100.102265 165.370586 186.594877 160.100773 324.069299a265.690412 265.690412 0 0 1-191.574607 242.870673m90.384537-618.840373l-4.544609-5.100599a877.49631 877.49631 0 0 1-114.461296-142.623367 33.528578 33.528578 0 0 0-5.53572-7.42125 67.274717 67.274717 0 0 0-18.661905-17.501579 69.039379 69.039379 0 0 0-55.115471-11.071441 70.804041 70.804041 0 0 0-48.080996 35.84923 840.390061 840.390061 0 0 1-97.733267 123.768074l-16.728029 18.806946c-104.55018 111.19788-190.510976 216.763345-184.03249 384.696316a343.915703 343.915703 0 0 0 248.986556 314.665826c18.661905 4.182007 44.793407 9.669381 70.779868 13.392092a81.029411 81.029411 0 0 1-29.274051 56.976827 39.306033 39.306033 0 0 0 36.646954 69.547021c50.764249-26.590797 66.742901-85.936622 71.819326-125.436042a364.293923 364.293923 0 0 0 78.926321-14.890847 343.40806 343.40806 0 0 0 246.569211-314.254877c6.526832-169.214165-88.136406-275.988302-179.608749-379.257289" fill="#0062FF" p-id="3649"></path></svg>