<?xml version="1.0" standalone="no"?><!DOCTYPE svg PUBLIC "-//W3C//DTD SVG 1.1//EN" "http://www.w3.org/Graphics/SVG/1.1/DTD/svg11.dtd"><svg t="1591773166491" class="icon" viewBox="0 0 1795 1024" version="1.1" xmlns="http://www.w3.org/2000/svg" p-id="8341" xmlns:xlink="http://www.w3.org/1999/xlink" width="350.5859375" height="200"><defs><style type="text/css"></style></defs><path d="M0.009198 890.15181c0 48.003965 171.154969 91.841271 448.748314 115.838655a5602.253132 5602.253132 0 0 0 897.505827 0c277.602543-24.006582 448.748314-66.795324 448.748314-115.838655s-171.154969-91.841271-448.748314-115.838654a5601.986392 5601.986392 0 0 0-897.505827 0C170.115604 798.319738 0.009198 843.196409 0.009198 890.15181z" fill="#F1F1F5" p-id="8342"></path><path d="M403.880841 142.930863V12.476708a11.497405 11.497405 0 0 1 22.99481 0v130.454155a11.037509 11.037509 0 0 1-10.439644 12.527573h-1.039365c-7.339943 1.039365-11.515801-5.224421-11.515801-12.527573z" fill="#F1F1F5" p-id="8343"></path><path d="M348.573724 66.744459h125.229735a13.796886 13.796886 0 0 1 11.479009 14.606304 12.260833 12.260833 0 0 1-11.479009 10.439643H348.573724a12.527572 12.527572 0 0 1-12.527572-11.479009v-1.039365a12.693135 12.693135 0 0 1 12.527572-12.527573z m1112.488904 558.313985l-88.704779-90.792708a11.708957 11.708957 0 0 1-1.039365-16.694232l1.039365-1.039365a11.65377 11.65377 0 0 1 16.694232-1.039365l1.039366 1.039365 89.753342 90.792708a12.012489 12.012489 0 0 1 0 17.742795 13.226615 13.226615 0 0 1-18.791359 0.009198z" fill="#F1F1F5" p-id="8344"></path><path d="M1463.141359 516.504545a11.65377 11.65377 0 0 1 16.694232-1.039365l1.039365 1.039365a11.708957 11.708957 0 0 1 1.039366 16.694232l-1.039366 1.039366-89.753342 90.792707a11.65377 11.65377 0 0 1-16.694232 1.039366l-1.039365-1.039366a12.647145 12.647145 0 0 1-2.087929-15.636471c0-1.039365 1.039365-1.039365 2.087929-2.087928l89.753342-90.792708zM195.161551 551.990136a60.540736 60.540736 0 1 1 0-121.053877 61.681278 61.681278 0 0 1 61.570903 61.570903 60.605121 60.605121 0 0 1-61.570903 59.482974z m0-98.095859a39.008396 39.008396 0 0 0-38.631281 37.573519 37.417155 37.417155 0 0 0 37.573519 37.57352 39.008396 39.008396 0 0 0 38.631281-37.57352 37.417155 37.417155 0 0 0-37.582717-37.509134z m1360.860444-224.364959a36.534154 36.534154 0 1 1 36.524956-36.524956 37.205602 37.205602 0 0 1-36.524956 36.524956z m0-56.355681a18.782161 18.782161 0 1 0 18.782161 18.782161 20.180245 20.180245 0 0 0-18.782161-18.754567zM913.160693 890.133415H895.417898a35.678747 35.678747 0 0 1-33.397662-36.524956 34.814142 34.814142 0 0 1 36.524956-32.349099c49.052528 3.127294 78.274333-7.303152 103.32028-35.485591 29.221804-32.349099 56.35568-92.899032 85.540693-171.154969 63.658832-171.154969 129.405592-371.522545 157.588031-452.924172L804.588399 72.98985 650.164453 500.868075a35.522382 35.522382 0 0 1-43.828107 21.918652h-1.039366a35.255643 35.255643 0 0 1-20.870089-44.876671L749.318074 22.897956a32.054765 32.054765 0 0 1 38.63128-21.918653l507.191924 100.183788a34.345048 34.345048 0 0 1 28.173241 39.661448v5.215223c0 1.039365-86.61685 271.338757-170.106406 492.58562-33.397662 88.704779-62.619466 152.36361-99.144423 194.076195a173.905148 173.905148 0 0 1-140.884601 57.395046z" fill="#E2E2EA" p-id="8345"></path><path d="M950.715817 890.15181a209.390739 209.390739 0 0 1-90.792708-19.830724l-286.975227-127.317663S438.317869 701.263244 477.979317 526.971783l391.353269 155.500102s-15.636471 154.451539 107.496137 137.757308a42.613982 42.613982 0 0 1-3.127294 59.482974 41.832158 41.832158 0 0 1-22.985612 10.439643z m181.594613-549.962269h-9.391081l-149.236316-39.65225a35.724737 35.724737 0 0 1-25.045947-42.788743 34.271465 34.271465 0 0 1 42.788742-24.006581l150.275682 40.700813a33.379266 33.379266 0 0 1 25.045947 41.740179 36.083456 36.083456 0 0 1-34.437027 24.006582z m-61.570903 148.196951a37.086029 37.086029 0 0 1-10.439644-2.087929L910.024201 438.294598a33.829964 33.829964 0 0 1-22.99481-41.740179v-1.039366a34.952111 34.952111 0 0 1 42.788743-22.994809h1.039365l150.275682 48.003965a33.829964 33.829964 0 0 1 22.99481 41.740179v1.039365a35.366018 35.366018 0 0 1-33.397662 25.064343z m-56.355681 136.708744a44.379983 44.379983 0 0 1-11.479009-2.087929l-150.275681-48.003965a33.379266 33.379266 0 0 1-20.87009-42.788743 34.519809 34.519809 0 0 1 43.828108-20.870089l150.275682 48.003965a34.16109 34.16109 0 0 1 27.133875 39.661448 32.661828 32.661828 0 0 1-38.612885 26.066917z m-134.630013-355.867679h-12.527572a34.188683 34.188683 0 0 1 14.606303-66.795323h5.215223a32.422682 32.422682 0 0 1 26.09451 38.63128v2.087929a33.839162 33.839162 0 0 1-33.388464 26.057719z m-54.267751 140.884602h-12.527572a34.786548 34.786548 0 0 1-26.094511-41.740179 35.871903 35.871903 0 0 1 42.788743-26.09451h5.215222a32.946964 32.946964 0 0 1 26.085313 39.661448v1.039365a32.744609 32.744609 0 0 1-35.467195 27.11548zM772.257696 540.566314h-12.527572a34.188683 34.188683 0 1 1 14.606303-66.795323h6.263786a32.422682 32.422682 0 0 1 26.09451 38.63128v1.039366a35.724737 35.724737 0 0 1-34.437027 27.133875z" fill="#E2E2EA" p-id="8346"></path></svg>