<?xml version="1.0" standalone="no"?><!DOCTYPE svg PUBLIC "-//W3C//DTD SVG 1.1//EN" "http://www.w3.org/Graphics/SVG/1.1/DTD/svg11.dtd"><svg t="1591772913048" class="icon" viewBox="0 0 1024 1024" version="1.1" xmlns="http://www.w3.org/2000/svg" p-id="4128" xmlns:xlink="http://www.w3.org/1999/xlink" width="200" height="200"><defs><style type="text/css"></style></defs><path d="M512 1024C228.977778 1024 0 795.022222 0 512S228.977778 0 512 0s512 228.977778 512 512-228.977778 512-512 512z m0-967.111111C261.688889 56.888889 56.888889 261.688889 56.888889 512s204.8 455.111111 455.111111 455.111111 455.111111-204.8 455.111111-455.111111S762.311111 56.888889 512 56.888889z" fill="#0062FF" p-id="4129"></path><path d="M652.8 450.844444h-61.155556c-12.8 0-49.777778 7.111111-62.577777-1.422222-2.844444-8.533333 5.688889-25.6 7.111111-32.711111 5.688889-22.755556 12.8-44.088889 18.488889-66.844444 8.533333-32.711111 18.488889-65.422222 27.022222-98.133334 4.266667-12.8-12.8-18.488889-19.911111-8.533333-72.533333 100.977778-146.488889 200.533333-219.022222 301.511111-2.844444 5.688889-1.422222 12.8 4.266666 15.644445 1.422222 1.422222 2.844444 1.422222 5.688889 1.422222H440.888889c5.688889 0 29.866667-4.266667 34.133333 1.422222 2.844444 4.266667-2.844444 18.488889-4.266666 24.177778-15.644444 56.888889-32.711111 115.2-48.355556 172.088889-4.266667 12.8 12.8 18.488889 19.911111 8.533333 72.533333-99.555556 146.488889-199.111111 219.022222-300.088889 2.844444-5.688889 1.422222-12.8-4.266666-15.644444-1.422222 0-2.844444-1.422222-4.266667-1.422223z" fill="#0062FF" p-id="4130"></path></svg>