<?xml version="1.0" standalone="no"?><!DOCTYPE svg PUBLIC "-//W3C//DTD SVG 1.1//EN" "http://www.w3.org/Graphics/SVG/1.1/DTD/svg11.dtd"><svg t="1591773169899" class="icon" viewBox="0 0 1488 1024" version="1.1" xmlns="http://www.w3.org/2000/svg" p-id="8477" xmlns:xlink="http://www.w3.org/1999/xlink" width="290.625" height="200"><defs><style type="text/css"></style></defs><path d="M1370.182081 331.947658c16.628348 3.622936 32.296773 5.976296 47.252997 10.590121a87.879427 87.879427 0 0 1 41.152839 28.333219 134.884701 134.884701 0 0 1 25.670206 116.057819 104.848393 104.848393 0 0 1-24.524491 53.848599 93.731862 93.731862 0 0 1-45.890525 30.624648c-13.965335 3.591971-28.147427 6.193053-43.661026 9.599233v6.781393c0 48.770295 0.712201 97.571555-0.247722 146.310885a112.032335 112.032335 0 0 1-30.345961 79.240117 98.407617 98.407617 0 0 1-48.120024 28.766733 230.319653 230.319653 0 0 1-54.715627 6.193053c-45.33315-0.433514-90.697266 0-136.030416 0h-9.970815c5.387956 9.28958 10.001781 17.40248 14.832362 25.391519a103.9504 103.9504 0 0 1 15.482634 54.932383 86.950469 86.950469 0 0 1-66.637254 89.365759 207.467286 207.467286 0 0 1-52.331301 6.193053c-182.942795-0.216757-365.916555 0-548.85935-0.402548a104.291018 104.291018 0 0 1-70.600808-23.038158 85.89765 85.89765 0 0 1-26.599164-39.171063 113.116119 113.116119 0 0 1 15.482634-97.01418c2.9417-4.892512 5.697609-9.87792 9.289579-16.070973h-9.692128c-52.981571 0-105.994108 0.557375-158.975679-0.216757a113.580598 113.580598 0 0 1-80.231005-29.881482 99.955881 99.955881 0 0 1-29.014455-47.129136 194.678631 194.678631 0 0 1-6.193053-61.001575c0.433514-6.967185-1.17668-10.713982-8.70124-11.519079a88.653558 88.653558 0 0 1-48.677399-22.63561 97.323833 97.323833 0 0 1-31.832294-46.943344 208.427209 208.427209 0 0 1-7.648421-60.010687c0.495444-80.943207-0.247722-161.855448 0.433513-242.798655a113.054188 113.054188 0 0 1 29.912448-80.231006 96.178118 96.178118 0 0 1 54.127286-30.438857c12.386107-2.012742 11.673906-2.693978 12.386107-15.482634 0.805097-15.172981 2.477221-30.284031 4.025484-45.39508a89.272864 89.272864 0 0 1 24.214839-50.473385 95.651708 95.651708 0 0 1 44.74481-29.757621 211.771458 211.771458 0 0 1 61.589915-7.803247c57.997944 0.58834 115.995889 0 173.993833 0.309652a10.652052 10.652052 0 0 0 10.806878-6.440775A101.442213 101.442213 0 0 1 488.043567 5.480852a263.204766 263.204766 0 0 1 42.948824-4.737686q208.396244-0.52641 416.792489 0a114.137973 114.137973 0 0 1 81.159963 29.509899 146.032197 146.032197 0 0 1 22.790437 30.067274 12.107419 12.107419 0 0 0 12.386106 6.781394c63.540727-0.154826 126.957593-0.619305 190.591216 0a113.178049 113.178049 0 0 1 80.231006 29.881482 97.571555 97.571555 0 0 1 28.921559 47.160101 226.046446 226.046446 0 0 1 6.471741 57.038021c-0.52641 41.121874-0.154826 82.243748-0.154827 123.365622v7.400699z m-368.486672 113.425771V116.398437a47.996163 47.996163 0 0 0-52.640953-53.043502H520.309374a48.058094 48.058094 0 0 0-53.538945 53.136398v657.919019a47.996163 47.996163 0 0 0 52.640953 53.043502h429.550178a47.841337 47.841337 0 0 0 52.640953-52.331301V445.373429z m-598.558603 339.379322V129.806398h-191.984653a47.655545 47.655545 0 0 0-51.123655 51.464273v552.079738a47.655545 47.655545 0 0 0 51.185585 51.402342h191.984653z m662.09933 0h189.817084a47.779406 47.779406 0 0 0 51.959717-52.207439v-551.181746a47.655545 47.655545 0 0 0-51.185585-51.402342h-190.684112v654.791527z m-621.658692 80.912242c-8.825101 15.482633-17.866959 31.212989-26.630129 47.067205a35.795848 35.795848 0 0 0-3.096527 9.785024 28.704802 28.704802 0 0 0 22.356922 35.950675 79.704596 79.704596 0 0 0 18.021786 1.703089h563.134338c3.096527 0 6.193053 0 9.475371-0.154826a30.2221 30.2221 0 0 0 28.580941-44.249366c-7.741317-18.207577-18.795917-34.990751-28.704802-52.981571a133.150646 133.150646 0 0 1-92.8958 27.86874q-200.90265-0.278687-401.774334 0a131.478522 131.478522 0 0 1-86.269232-24.369665c-0.247722-0.185792-0.867027-0.185792-2.198534-0.619305zM96.332944 635.654992v-359.197092a32.482565 32.482565 0 0 0-4.830581 1.424402 46.4479 46.4479 0 0 0-27.86874 44.806741v219.853393c0 16.87607-0.216757 33.752141 0 50.597245a44.466123 44.466123 0 0 0 32.699321 42.608207z m1274.22072-120.547782a47.191066 47.191066 0 0 0 53.38412-46.633692c0-8.70124 0.247722-17.40248 0-26.10372a46.850448 46.850448 0 0 0-53.322189-44.497088z" fill="#0062FF" p-id="8478"></path><path d="M851.823519 355.636087l-112.341988 112.001369 1.083785 2.384326h147.177912l0.65027 2.229499-260.355961 186.256078-1.17668-0.959923 74.533396-149.469342h-114.571486c10.46626-14.120162 19.508118-26.413372 28.642872-38.644653 27.032678-36.105501 54.03439-72.241967 81.345755-108.13071a15.482633 15.482633 0 0 1 10.280469-5.821471c46.4479-0.371583 93.143522-0.247722 139.684317-0.247722 1.393437 0.030965 2.724943 0.216757 5.047339 0.402549z" fill="#0062FF" p-id="8479"></path></svg>