<?xml version="1.0" standalone="no"?><!DOCTYPE svg PUBLIC "-//W3C//DTD SVG 1.1//EN" "http://www.w3.org/Graphics/SVG/1.1/DTD/svg11.dtd"><svg t="1591772961738" class="icon" viewBox="0 0 1024 1024" version="1.1" xmlns="http://www.w3.org/2000/svg" p-id="4847" xmlns:xlink="http://www.w3.org/1999/xlink" width="200" height="200"><defs><style type="text/css"></style></defs><path d="M974.295853 448.006367a23.589616 23.589616 0 0 0-17.16058 4.945412l-446.125627 205.284057L64.834565 452.753963c-4.302509-4.945412-8.555563-4.945412-17.16058-4.945412A50.492658 50.492658 0 0 0 0.544207 500.526644a57.663505 57.663505 0 0 0 30.068106 47.723227l467.539261 214.828702c4.302509 4.945412 8.555563 4.945412 17.16058 4.945412a23.737978 23.737978 0 0 0 17.16058-4.945412l467.539262-214.828702a34.617885 34.617885 0 0 0 21.413634-47.723227 50.492658 50.492658 0 0 0-47.129777-52.520277z" fill="#92929D" p-id="4848"></path><path d="M38.574426 324.964514l461.110226 221.455554c4.2036 4.945412 8.456655 4.945412 16.913309 4.945412a22.79835 22.79835 0 0 0 16.962764-4.945412L994.572042 324.964514a59.839487 59.839487 0 0 0 29.672473-49.454121 59.839487 59.839487 0 0 0-29.672473-49.206851L533.511271 5.095258c-4.302509-4.945412-8.506109-4.945412-16.962764-4.945412a22.649987 22.649987 0 0 0-16.913309 4.945412L38.574426 226.501359a53.904992 53.904992 0 0 0-29.672472 49.454121 59.987849 59.987849 0 0 0 29.672472 49.20685z m477.974081-215.619968l346.178848 166.363663-346.178848 166.363664-346.178848-166.363664z m452.604117 584.745528a22.847804 22.847804 0 0 0-16.913309 4.945412l-440.141679 211.564731-440.141678-211.663639c-4.2036-4.945412-8.456655-4.945412-16.913309-4.945412-25.419418 0-46.585782 24.727061-55.042437 54.102808a59.839487 59.839487 0 0 0 29.672473 49.454122L491.178543 1018.904742c4.302509 4.945412 8.506109 4.945412 16.962764 4.945412a22.649987 22.649987 0 0 0 16.913309-4.945412l461.110226-221.505009a48.811218 48.811218 0 0 0 29.672473-49.20685 51.23447 51.23447 0 0 0-46.585783-54.102809z" fill="#92929D" p-id="4849"></path></svg>