<?xml version="1.0" standalone="no"?><!DOCTYPE svg PUBLIC "-//W3C//DTD SVG 1.1//EN" "http://www.w3.org/Graphics/SVG/1.1/DTD/svg11.dtd"><svg t="1591773150036" class="icon" viewBox="0 0 1064 1024" version="1.1" xmlns="http://www.w3.org/2000/svg" p-id="7737" xmlns:xlink="http://www.w3.org/1999/xlink" width="207.8125" height="200"><defs><style type="text/css"></style></defs><path d="M530.569948 81.962144a45.539015 45.539015 0 0 1 32.335396 10.778465l418.581695 418.68948h-131.389491v385.222345a49.473155 49.473155 0 0 1-15.089851 32.012042 44.73063 44.73063 0 0 1-30.988087 13.257512H260.138257a42.197691 42.197691 0 0 1-43.113861-43.113861V511.430089H82.778613L501.198631 95.974149l2.047908-1.994017 1.886231-2.155693a34.706658 34.706658 0 0 1 25.598855-9.862295m0-81.916336a116.08407 116.08407 0 0 0-87.251675 37.724629L24.682685 453.7653a80.838489 80.838489 0 0 0-17.461113 90.161861 83.317536 83.317536 0 0 0 75.449256 49.473155h52.329448v305.461703a123.95235 123.95235 0 0 0 125.030196 125.084089h543.827461a130.527213 130.527213 0 0 0 127.940381-125.084089V593.400316h52.329449a75.449256 75.449256 0 0 0 72.700747-46.562969 79.868427 79.868427 0 0 0-14.550928-90.161861L620.570132 34.860251A125.084088 125.084088 0 0 0 530.569948 0.045808z" fill="#44444F" p-id="7738"></path><path d="M654.522298 529.322341H537.468166l61.976175-165.287764a15.143744 15.143744 0 0 0-3.449109-17.191652 18.916206 18.916206 0 0 0-17.191652-10.347326H496.186644c-6.898218 0-17.191652 6.898218-17.191652 13.796435l-96.413371 251.353808a15.143744 15.143744 0 0 0 3.449109 17.191652 18.916206 18.916206 0 0 0 17.191652 10.347327h99.86248l-89.515153 237.611264c0 3.449109 0 6.898218 3.449109 6.898218h10.347326l244.401698-309.934766a16.167698 16.167698 0 0 0 3.449109-20.640761 24.898255 24.898255 0 0 0-20.694653-13.796435z" fill="#44444F" p-id="7739"></path></svg>