<?xml version="1.0" standalone="no"?><!DOCTYPE svg PUBLIC "-//W3C//DTD SVG 1.1//EN" "http://www.w3.org/Graphics/SVG/1.1/DTD/svg11.dtd"><svg t="1591772946095" class="icon" viewBox="0 0 1024 1024" version="1.1" xmlns="http://www.w3.org/2000/svg" p-id="4607" xmlns:xlink="http://www.w3.org/1999/xlink" width="200" height="200"><defs><style type="text/css"></style></defs><path d="M512 1024C228.977778 1024 0 795.022222 0 512S228.977778 0 512 0s512 228.977778 512 512-228.977778 512-512 512z m0-967.111111C261.688889 56.888889 56.888889 261.688889 56.888889 512s204.8 455.111111 455.111111 455.111111 455.111111-204.8 455.111111-455.111111S762.311111 56.888889 512 56.888889z" fill="#0062FF" p-id="4608"></path><path d="M625.777778 379.733333v-28.444444h32.711111c8.533333 0 15.644444-8.533333 15.644444-17.066667s-7.111111-14.222222-15.644444-15.644444H362.666667c-8.533333 0-15.644444 8.533333-15.644445 17.066666s7.111111 14.222222 15.644445 15.644445h32.711111v28.444444c0 61.155556 31.288889 113.777778 73.955555 133.688889-42.666667 19.911111-73.955556 72.533333-73.955555 133.688889v29.866667h-32.711111c-8.533333 0-17.066667 5.688889-17.066667 15.644444 0 8.533333 5.688889 17.066667 15.644444 17.066667h295.822223c8.533333 0 15.644444-8.533333 15.644444-17.066667s-7.111111-14.222222-15.644444-15.644444h-32.711111v-29.866667c0-61.155556-31.288889-113.777778-73.955556-133.688889 44.088889-19.911111 75.377778-72.533333 75.377778-133.688889zM412.444444 648.533333c0-65.422222 42.666667-120.888889 93.866667-122.311111v146.488889c-9.955556 0-21.333333 2.844444-29.866667 7.111111H412.444444v-31.288889z m196.266667 0v29.866667h-64c-9.955556-4.266667-19.911111-7.111111-29.866667-7.111111V524.8c51.2 2.844444 93.866667 56.888889 93.866667 123.733333z m-93.866667-146.488889v-21.333333c34.133333-2.844444 61.155556-31.288889 61.155556-65.422222h-130.844444c0 34.133333 27.022222 62.577778 61.155555 65.422222v21.333333c-52.622222-2.844444-93.866667-56.888889-93.866667-122.311111v-28.444444h196.266667v28.444444c0 66.844444-42.666667 120.888889-93.866667 122.311111z" fill="#0062FF" p-id="4609"></path><path d="M361.244444 718.222222h-1.422222c-12.8-1.422222-22.755556-11.377778-21.333333-24.177778 1.422222-12.8 11.377778-22.755556 24.177778-22.755555h25.6v-22.755556c0-56.888889 27.022222-109.511111 66.844444-133.688889-39.822222-25.6-66.844444-78.222222-66.844444-133.688888v-21.333334h-25.6c-12.8 0-21.333333-9.955556-22.755556-22.755555-1.422222-12.8 8.533333-24.177778 22.755556-24.177778h295.822222c12.8 0 21.333333 9.955556 22.755555 22.755555 1.422222 12.8-8.533333 24.177778-22.755555 24.177778h-25.6v21.333334c0 56.888889-27.022222 109.511111-66.844445 133.688888 39.822222 25.6 66.844444 78.222222 66.844445 133.688889v22.755556h25.6c12.8 0 21.333333 9.955556 22.755555 22.755555 1.422222 12.8-8.533333 24.177778-22.755555 24.177778H361.244444c1.422222 0 1.422222 0 0 0z m1.422223-32.711111c-5.688889 0-9.955556 4.266667-9.955556 8.533333 0 5.688889 4.266667 9.955556 8.533333 9.955556h295.822223c4.266667 0 8.533333-4.266667 8.533333-9.955556 0-4.266667-4.266667-8.533333-8.533333-8.533333h-39.822223v-36.977778c0-56.888889-28.444444-108.088889-69.688888-128l-12.8-7.111111 12.8-5.688889c42.666667-19.911111 69.688889-71.111111 69.688888-128v-35.555555h39.822223c4.266667 0 8.533333-4.266667 8.533333-9.955556 0-4.266667-4.266667-8.533333-8.533333-8.533333H362.666667c-4.266667 0-8.533333 4.266667-8.533334 9.955555 0 4.266667 4.266667 8.533333 8.533334 8.533334h39.822222v35.555555c0 56.888889 28.444444 108.088889 69.688889 128l12.8 7.111111-12.8 5.688889c-42.666667 19.911111-69.688889 71.111111-69.688889 128v36.977778h-39.822222z m253.155555 0h-72.533333l-1.422222-1.422222c-8.533333-4.266667-17.066667-7.111111-27.022223-7.111111h-8.533333c-8.533333 0-18.488889 2.844444-27.022222 7.111111l-1.422222 1.422222h-72.533334v-36.977778c0-69.688889 44.088889-126.577778 100.977778-129.422222h8.533333c56.888889 2.844444 100.977778 59.733333 100.977778 129.422222v36.977778z m-69.688889-14.222222h55.466667v-22.755556c0-58.311111-35.555556-108.088889-79.644444-115.2v130.844445c8.533333 1.422222 17.066667 4.266667 24.177777 7.111111z m-126.577777 0h55.466666c7.111111-4.266667 15.644444-5.688889 24.177778-7.111111v-130.844445c-44.088889 7.111111-79.644444 56.888889-79.644444 115.2v22.755556z m93.866666-160.711111h-7.111111c-56.888889-2.844444-100.977778-59.733333-100.977778-129.422222v-35.555556h210.488889v35.555556c0 68.266667-44.088889 126.577778-102.4 129.422222z m8.533334-22.755556v7.111111c45.511111-7.111111 81.066667-56.888889 81.066666-115.2v-21.333333H419.555556v21.333333c0 58.311111 35.555556 108.088889 79.644444 115.2v-7.111111c-35.555556-5.688889-61.155556-35.555556-61.155556-71.111111v-7.111111H583.111111v7.111111c0 35.555556-27.022222 65.422222-61.155555 71.111111z m-69.688889-64c2.844444 27.022222 25.6 49.777778 54.044444 51.2h8.533333c28.444444-1.422222 51.2-24.177778 54.044445-51.2h-116.622222z" fill="#0062FF" p-id="4610"></path></svg>