<?xml version="1.0" standalone="no"?><!DOCTYPE svg PUBLIC "-//W3C//DTD SVG 1.1//EN" "http://www.w3.org/Graphics/SVG/1.1/DTD/svg11.dtd"><svg t="1591772935061" class="icon" viewBox="0 0 1024 1024" version="1.1" xmlns="http://www.w3.org/2000/svg" p-id="4367" xmlns:xlink="http://www.w3.org/1999/xlink" width="200" height="200"><defs><style type="text/css"></style></defs><path d="M829.978947 522.754994h-45.463204l-54.182176-144.437895a43.115789 43.115789 0 0 0-40.28931-28.025263 44.840421 44.840421 0 0 0-40.528842 26.73179l-99.597473 243.60421a4.311579 4.311579 0 0 1-8.192 0L429.193731 252.035743a43.115789 43.115789 0 0 0-50.014316-29.749895 45.702737 45.702737 0 0 0-31.666152 27.162947l-117.274947 273.785263H161.684211a10.778947 10.778947 0 0 0-10.778948 10.778948v64.673684a10.778947 10.778947 0 0 0 10.778948 10.778947H258.694737a43.115789 43.115789 0 0 0 39.666526-27.354573l78.231205-182.379789a4.072047 4.072047 0 0 1 8.000374 0l113.154994 371.849731a42.684632 42.684632 0 0 0 80.818152 4.503205l105.394152-255.4371a4.311579 4.311579 0 0 1 8.000375 0l21.557894 59.49979a43.115789 43.115789 0 0 0 41.151626 28.743859h75.452632a10.778947 10.778947 0 0 0 10.778947-10.778947v-64.673684a10.778947 10.778947 0 0 0-10.778947-10.778948z" fill="#0062FF" p-id="4368"></path><path d="M511.976047 0a511.976047 511.976047 0 1 0 512.023953 511.976047A511.976047 511.976047 0 0 0 511.976047 0z m0 937.768421a425.744468 425.744468 0 1 1 425.744468-425.744468 425.744468 425.744468 0 0 1-425.744468 425.744468z" fill="#0062FF" p-id="4369"></path></svg>