<?xml version="1.0" standalone="no"?><!DOCTYPE svg PUBLIC "-//W3C//DTD SVG 1.1//EN" "http://www.w3.org/Graphics/SVG/1.1/DTD/svg11.dtd"><svg t="1577416561376" class="icon" viewBox="0 0 1024 1024" version="1.1" xmlns="http://www.w3.org/2000/svg" p-id="4335" xmlns:xlink="http://www.w3.org/1999/xlink" width="200" height="200"><defs><style type="text/css"></style></defs><path d="M515.23584 843.51488a34.8416 34.8416 0 0 0 49.05984 0l207.95392-208.15872a34.7392 34.7392 0 1 0-49.13152-49.13152l-148.90496 149.18144V64.3584a34.69312 34.69312 0 1 0-69.38624 0v670.62784l-148.90496-148.83328a34.7648 34.7648 0 0 0-49.1264 49.13152l208.44032 208.1536v0.0768z m440.61184 88.192H123.19744a34.69312 34.69312 0 1 0 0 69.38624h832.65024a34.69824 34.69824 0 0 0 0-69.38624z m0 0" fill="#666666" p-id="4336"></path></svg>
