<?xml version="1.0" standalone="no"?><!DOCTYPE svg PUBLIC "-//W3C//DTD SVG 1.1//EN" "http://www.w3.org/Graphics/SVG/1.1/DTD/svg11.dtd"><svg t="1572858996720" class="icon" viewBox="0 0 1024 1024" version="1.1" xmlns="http://www.w3.org/2000/svg" p-id="7653" xmlns:xlink="http://www.w3.org/1999/xlink" width="200" height="200"><defs><style type="text/css"></style></defs><path d="M562.11968 387.85536c184.89344 0 335.21664 150.31808 335.21664 333.88544 0 122.37312-99.76832 222.14656-222.14144 222.14656H366.58688c-122.38336 0-222.15168-99.76832-222.15168-222.14656 0-184.89344 150.31808-335.21664 335.21664-335.21664h82.46784m0-61.17888H478.32064C260.16768 325.34528 81.92 502.26176 81.92 721.74592c0 156.96384 127.69792 285.99296 285.99296 285.99296h307.28192c156.95872 0 284.66176-127.70304 284.66176-285.99296 0-219.48416-178.2528-396.40064-397.73696-396.40064z m113.0752-252.74368l-38.58432 131.69152H402.50368L354.6112 72.6016h117.05856l39.90528 37.25312 41.23648 38.57408 42.56768-37.24288 43.89376-38.58432h35.92192m19.94752-62.5152h-79.81568l-61.184 54.53312L495.61088 10.0864H332.00128c-33.25952 0-55.87456 31.9232-43.89888 62.5152l59.85792 163.61984c6.65088 18.61632 23.94112 30.59712 43.89376 30.59712h256.73216c21.27872 0 39.9104-13.30688 45.23008-33.25952l46.55104-163.6096c9.31328-29.27104-13.29152-59.86304-45.22496-59.86304z m0 0" p-id="7654"></path></svg>
