<?xml version="1.0" standalone="no"?><!DOCTYPE svg PUBLIC "-//W3C//DTD SVG 1.1//EN" "http://www.w3.org/Graphics/SVG/1.1/DTD/svg11.dtd"><svg t="1576057009807" class="icon" viewBox="0 0 1024 1024" version="1.1" xmlns="http://www.w3.org/2000/svg" p-id="4846" xmlns:xlink="http://www.w3.org/1999/xlink" width="200" height="200"><defs><style type="text/css"></style></defs><path d="M561.42336 895.83616c-8.064-0.42496-14.67392-5.63712-16.8704-13.312L369.31072 245.89312l-105.85088 360.22272c-2.36544 7.82336-9.39008 13.11744-17.46432 13.11744H61.42464a18.21696 18.21696 0 0 1-18.19136-18.19648 18.21184 18.21184 0 0 1 18.19136-18.19648h170.91584l120.04864-408.6528c2.36544-7.82336 9.39008-13.11232 17.46432-13.11232h0.24064a18.176 18.176 0 0 1 17.44896 13.27104l177.11104 642.85184 156.99456-438.51776a17.94048 17.94048 0 0 1 18.49856-12.01664c8.36096 0.7424 14.94528 6.73792 16.40448 14.90944l43.26912 242.87744h195.46112c10.0352 0 18.19136 8.16128 18.19136 18.19136s-8.15616 18.19648-18.19136 18.19648h-210.51392c-8.69888 0-16.35328-6.37952-17.79712-14.83776l-34.0224-190.74048-153.31328 428.47232c-2.99008 7.36256-9.79456 12.10368-17.3824 12.10368h-0.82944z m0 0" p-id="4847"></path></svg>
