<?xml version="1.0" standalone="no"?><!DOCTYPE svg PUBLIC "-//W3C//DTD SVG 1.1//EN" "http://www.w3.org/Graphics/SVG/1.1/DTD/svg11.dtd"><svg t="1591773184854" class="icon" viewBox="0 0 1024 1024" version="1.1" xmlns="http://www.w3.org/2000/svg" p-id="9012" xmlns:xlink="http://www.w3.org/1999/xlink" width="200" height="200"><defs><style type="text/css"></style></defs><path d="M990.439272 324.950992c2.44181-19.076641 5.087104-40.03551 7.376301-64.046642s5.544944-48.022264 7.986754-72.643849 5.544944-49.243169 7.986753-73.864753 5.544944-46.190907 7.376302-66.132355c4.324039-34.490567-10.479435-50.514945-44.970002-48.022264-18.466188 1.220905-38.814605 3.713586-61.553961 6.155396s-46.190907 5.544944-70.812491 7.986754-48.022264 5.544944-71.21946 8.597206-45.783938 5.544944-65.267547 7.376301a52.549787 52.549787 0 0 0-40.696834 17.855736c-5.544944 9.868982-2.44181 20.958869 9.868982 33.269661 7.986754 7.376301 17.855736 17.245283 29.556076 30.166529s21.569322 23.40068 29.556076 31.387433a22.179774 22.179774 0 0 1 7.376301 24.011132 96.654981 96.654981 0 0 1-17.245284 25.435521c-20.348417 19.687093-38.814605 37.542829-55.958146 53.567208s-35.101019 34.490567-55.958147 55.958146c-4.324039 4.324039-8.597206 9.25853-12.921245 14.14215a52.600658 52.600658 0 0 0-9.868982 17.245283 35.60973 35.60973 0 0 0-1.220905 19.687094 45.783938 45.783938 0 0 0 14.14215 22.179774c4.324039 4.324039 7.986754 7.986754 11.089887 11.70034a113.747651 113.747651 0 0 0 8.597206 8.597206 118.173432 118.173432 0 0 1 9.25853 8.597206c3.103134 3.103134 7.376301 7.986754 12.310792 13.531698a47.004843 47.004843 0 0 0 40.696834 18.466188 83.530252 83.530252 0 0 0 40.696834-25.435521c14.752602-14.752602 29.556076-29.556076 44.970002-44.308678s32.659209-31.997886 50.871042-50.871042a174.894644 174.894644 0 0 1 35.60973-27.114266 22.891969 22.891969 0 0 1 28.945623 6.765849c6.765849 6.765849 14.752602 14.14215 24.621584 23.400679s18.466188 17.245283 25.84249 24.621585c12.310792 12.310792 23.40068 17.245283 33.269662 14.142149 11.70034-2.848778 17.855736-13.938666 19.687093-32.404854zM36.658098 696.818312c-2.44181 19.076641-5.087104 40.03551-7.376301 64.046643s-5.544944 48.022264-7.986754 72.643848-5.544944 49.243169-7.986754 73.864754-5.544944 46.190907-7.376301 66.132355a46.140035 46.140035 0 0 0 7.376301 39.425058 43.342128 43.342128 0 0 0 36.932377 8.597206c18.466188-1.220905 38.814605-3.713586 61.553962-6.155396s46.190907-5.544944 70.812491-7.986754 48.022264-5.544944 71.219459-8.597206 45.783938-5.544944 65.267547-7.376301c22.179774-2.44181 35.60973-7.986754 41.256416-17.855736s1.831358-20.958869-10.479435-33.269662c-7.376301-7.376301-16.024378-16.634831-27.114266-28.33517s-19.687093-21.569322-27.724718-29.556076-11.70034-16.634831-8.597206-24.011132a91.567876 91.567876 0 0 1 18.466189-25.435521 374.054775 374.054775 0 0 1 27.114265-27.114266c8.597206-7.376301 16.634831-15.261313 24.621585-22.790227s16.634831-16.024378 25.435521-24.621584l27.114265-27.114266a79.409697 79.409697 0 0 0 12.310793-15.261313 55.958147 55.958147 0 0 0 8.597206-18.466188 34.846664 34.846664 0 0 0-0.610453-20.958869 55.958147 55.958147 0 0 0-14.142149-22.179775l-12.310793-12.310792a102.403408 102.403408 0 0 1-7.986753-8.597206 63.283577 63.283577 0 0 0-9.25853-8.597207l-12.310792-12.921244c-14.752602-14.752602-27.114266-20.348417-37.54283-16.634831a111.916293 111.916293 0 0 0-37.542829 27.114265c-14.752602 14.752602-28.335171 28.335171-41.866868 41.256416s-28.945623 28.335171-48.022264 47.411811a134.70652 134.70652 0 0 1-35.101019 27.114266 23.604164 23.604164 0 0 1-29.556076-6.765849c-6.765849-7.376301-15.261313-16.024378-27.114265-27.114265s-20.958869-19.687093-28.335171-27.114266c-12.310792-12.310792-23.40068-17.245283-32.659209-14.14215-11.089887 3.510102-16.634831 14.599989-19.076641 33.67663z m938.367248 325.574672a46.140035 46.140035 0 0 0 39.425058-7.376301 44.156065 44.156065 0 0 0 8.597206-37.54283c-1.831358-17.855736-3.713586-38.814605-6.155396-61.553961s-5.544944-46.190907-7.986754-70.812491-5.544944-48.022264-8.597206-71.219459-5.544944-45.783938-7.376301-65.267548a52.549787 52.549787 0 0 0-17.855736-40.696834c-9.868982-5.544944-20.958869-2.44181-33.269662 11.089888-7.376301 7.376301-16.634831 16.024378-28.33517 27.114265s-21.569322 19.687093-29.556076 27.724718a23.858519 23.858519 0 0 1-24.011132 7.986754 76.815274 76.815274 0 0 1-25.435521-17.855736q-29.556076-29.556076-51.73585-53.567208a1964.843142 1964.843142 0 0 0-52.956755-54.788112 79.409697 79.409697 0 0 0-15.261313-12.310793 55.958147 55.958147 0 0 0-18.466188-8.597206 34.846664 34.846664 0 0 0-20.95887 0.610453 53.770692 53.770692 0 0 0-22.179774 15.261313c-4.324039 4.324039-7.986754 7.986754-11.70034 11.089887s-6.155396 5.544944-9.25853 8.597206-6.155396 5.544944-9.25853 8.597206-7.376301 7.376301-12.310792 12.921245c-14.752602 14.752602-20.348417 27.114266-17.245283 38.153282a97.723272 97.723272 0 0 0 27.114265 38.153281l41.866868 43.698226c14.14215 14.752602 30.166528 31.387433 49.243169 50.514945a119.343465 119.343465 0 0 1 28.335171 35.101019 22.078032 22.078032 0 0 1-7.376301 28.335171c-6.765849 6.765849-14.752602 15.261313-25.435521 27.114265s-19.076641 20.348417-26.452942 27.724719c-12.310792 12.310792-17.245283 23.40068-14.14215 32.659209s14.14215 15.261313 32.659209 17.245283 40.03551 5.087104 64.046642 7.376301 48.022264 5.544944 73.254301 7.986754 49.853622 5.544944 73.864754 7.986754c23.655035 3.815328 45.224357 6.257138 64.91145 8.698948zM370.372136 417.892387c4.324039-4.324039 7.986754-7.986754 11.70034-11.089887s6.155396-5.544944 9.25853-8.597207l8.597206-9.868982 12.921244-12.310792a48.581845 48.581845 0 0 0 19.076641-40.03551 80.376247 80.376247 0 0 0-25.842489-41.256416c-14.14215-14.14215-28.335171-28.335171-43.698226-44.308678s-32.659209-33.269662-50.871042-51.73585a110.339291 110.339291 0 0 1-24.621585-31.997886 26.300329 26.300329 0 0 1 9.25853-27.114265c7.376301-6.765849 15.261313-14.752602 24.621585-24.621585s17.245283-18.466188 24.621584-25.842489c12.310792-12.310792 17.245283-23.40068 13.531698-32.659209s-14.14215-15.261313-33.269662-17.245284-40.03551-5.087104-63.43619-7.376301S214.808488 26.287102 189.576451 23.23484 139.72283 17.689896 115.050374 14.637634 68.859468 9.09269 48.918019 7.261333a52.295432 52.295432 0 0 0-38.814605 7.986753 44.664775 44.664775 0 0 0-9.25853 36.932377c1.220905 18.466188 3.713586 38.814605 6.155396 61.553961s5.544944 46.190907 7.986754 70.812491 5.544944 48.022264 8.597206 71.21946 5.544944 45.783938 7.376301 65.267547c2.44181 22.179774 7.986754 35.60973 17.855736 41.256416s20.958869 1.831358 33.269662-10.479435c7.376301-7.376301 17.245283-16.634831 30.166528-28.335171s23.40068-21.569322 31.387433-29.556075a30.115657 30.115657 0 0 1 22.179775-11.70034 50.107977 50.107977 0 0 1 22.179774 16.024378c9.25853 9.25853 18.466188 18.466188 27.114266 27.724718s17.245283 17.855736 26.452942 27.114266l27.114265 27.114265c9.25853 9.25853 18.466188 19.076641 28.945623 29.556076 4.324039 4.324039 9.25853 8.597206 14.14215 12.921245a52.600658 52.600658 0 0 0 17.245284 9.868982 30.522625 30.522625 0 0 0 19.687093 0.610453 67.505873 67.505873 0 0 0 21.671064-15.261313z" fill="#92929D" p-id="9013"></path></svg>