<?xml version="1.0" standalone="no"?><!DOCTYPE svg PUBLIC "-//W3C//DTD SVG 1.1//EN" "http://www.w3.org/Graphics/SVG/1.1/DTD/svg11.dtd"><svg t="1590377356936" class="icon" viewBox="0 0 1024 1024" version="1.1" xmlns="http://www.w3.org/2000/svg" p-id="2690" xmlns:xlink="http://www.w3.org/1999/xlink" width="200" height="200"><defs><style type="text/css"></style></defs><path d="M902.79424 807.06048H124.20096c-52.31104 0-94.68928-42.61888-94.68928-94.68928V194.8416c0-52.31104 42.624-94.68928 94.68928-94.68928h778.59328c52.31104 0 94.6944 42.624 94.6944 94.68928v517.5296c0 52.0704-42.38336 94.68928-94.6944 94.68928zM124.20096 143.744c-28.09344 0-51.0976 23.00416-51.0976 51.0976v517.5296c0 28.09344 23.00928 51.0976 51.0976 51.0976h778.59328c28.09344 0 51.0976-23.00416 51.0976-51.0976V194.8416c0-28.09344-23.00416-51.0976-51.0976-51.0976H124.20096zM797.2096 929.12128H228.5824a21.7088 21.7088 0 0 1-21.79584-21.80096 21.7088 21.7088 0 0 1 21.79584-21.79584h568.63232a21.7088 21.7088 0 0 1 21.79584 21.79584 21.71904 21.71904 0 0 1-21.80096 21.80096z" p-id="2691"></path><path d="M455.25504 929.12128a21.7088 21.7088 0 0 1-21.79584-21.80096V788.1728a21.7088 21.7088 0 0 1 21.79584-21.79584 21.7088 21.7088 0 0 1 21.79584 21.79584v119.14752a21.7088 21.7088 0 0 1-21.79584 21.80096zM576.34304 929.12128a21.7088 21.7088 0 0 1-21.79584-21.80096V788.1728a21.7088 21.7088 0 0 1 21.79584-21.79584 21.7088 21.7088 0 0 1 21.79584 21.79584v119.14752a21.7088 21.7088 0 0 1-21.79584 21.80096zM976.90112 706.31424H53.48864c-12.1088 0-21.79584-9.68704-21.79584-21.79584s9.68704-21.79584 21.79584-21.79584h923.41248c12.1088 0 19.37408 9.68704 19.37408 21.79584s-7.26528 21.79584-19.37408 21.79584z" p-id="2692"></path></svg>