<?xml version="1.0" standalone="no"?><!DOCTYPE svg PUBLIC "-//W3C//DTD SVG 1.1//EN" "http://www.w3.org/Graphics/SVG/1.1/DTD/svg11.dtd"><svg t="1572858985171" class="icon" viewBox="0 0 1024 1024" version="1.1" xmlns="http://www.w3.org/2000/svg" p-id="7528" xmlns:xlink="http://www.w3.org/1999/xlink" width="200" height="200"><defs><style type="text/css"></style></defs><path d="M500.00384 257.8176L399.47264 449.14688 341.09952 390.77376 243.8144 452.39808l29.184 16.20992 61.6192-38.92224 74.58816 77.83424L493.5168 342.12864l97.29536 246.47168 81.0752-171.88352 32.42496 71.35232 35.66592-6.49728-68.09088-145.93024-77.83424 162.14528-94.04928-239.96928z m444.28288 441.0368c3.24608-3.2512 3.24608-6.48704 3.24608-9.72288 0-3.2512 0-6.49728-3.24608-9.73312-16.21504-22.70208-35.67104-42.15296-61.6192-58.37312-25.9328-16.21504-51.88096-22.69696-81.06496-22.69696s-55.1424 6.48192-81.08032 22.69696c-25.94304 12.96896-45.39904 32.4352-61.60896 58.37312-3.24608 3.24096-3.24608 6.48704-3.24608 9.73312 0 3.24096 0 6.4768 3.24608 9.72288 16.20992 22.70208 35.66592 42.15296 61.60896 58.368 25.93792 12.9792 51.89632 22.7072 81.08032 22.7072s55.13216-6.48704 81.06496-22.7072c25.94816-16.20992 45.40416-35.66592 61.6192-58.368z m-178.36032-64.86528c9.73312-9.728 22.70208-12.96896 35.67616-12.96896 3.24608 0 3.24608 0 6.48192 3.24096 3.24608 3.2512 3.24608 3.2512 3.24608 6.49728 0 3.23584 0 3.23584-3.24608 6.48704 0 0-3.23584 3.24608-6.48192 3.24608-9.73312 0-16.21504 3.24096-22.7072 9.72288-6.48192 6.48704-9.728 9.728-9.728 16.21504 0 3.24608 0 3.24608-3.24096 6.48704-3.24608 3.24096-3.24608 3.24096-6.48704 3.24096s-3.24096 0-6.49216-3.24096c-3.24096-3.24096-3.24096-3.24096-3.24096-6.48704 3.24608-12.97408 6.49216-22.70208 16.22016-32.44032z m107.01312 103.7824c-22.7072 12.96896-45.39904 19.456-71.34208 19.456s-48.65024-6.48704-71.3472-19.456c-22.7072-12.96896-38.92224-29.184-55.13728-51.8912 16.21504-22.70208 38.92224-42.15296 61.61408-55.12704-6.48192 9.728-9.728 22.70208-9.728 35.67104 0 19.456 6.49216 35.67616 22.7072 48.65024 16.21504 12.96384 32.43008 19.44576 51.8912 19.44576 19.45088 0 38.912-6.48192 51.88096-19.44576 12.97408-12.97408 22.7072-29.19424 22.7072-48.65024 0-12.96896-3.24608-22.70208-9.728-35.67104 25.94304 12.96896 45.39904 29.184 61.61408 55.12704-16.21504 22.7072-32.42496 38.92224-55.13216 51.8912z m94.04928-55.13728c3.24096 29.18912-35.68128 61.6192-58.37312 77.83424h45.39904c38.912 0 45.39904-12.96896 45.39904-32.43008v-42.15808h-32.42496v-3.24608z m0 0" p-id="7529"></path><path d="M649.18016 659.9424H169.22624V202.68544h664.8064v376.17664c19.45088 3.2512 38.912 12.96896 45.3888 16.21504V186.47552c0-19.46624-12.96384-32.4352-32.41984-32.4352H156.25216c-16.21504 0-32.42496 16.21504-32.42496 32.4352v499.4048H23.29088v42.15808c0 19.46112 12.97408 32.43008 32.4352 32.43008h635.60704c-29.184-25.94816-84.31104-68.096-42.15296-100.52608z m-81.07008 48.64512H441.63072v-22.7072h126.47936v22.7072z m0 0" p-id="7530"></path></svg>
