<?xml version="1.0" standalone="no"?><!DOCTYPE svg PUBLIC "-//W3C//DTD SVG 1.1//EN" "http://www.w3.org/Graphics/SVG/1.1/DTD/svg11.dtd"><svg t="1577416911919" class="icon" viewBox="0 0 1024 1024" version="1.1" xmlns="http://www.w3.org/2000/svg" p-id="5328" xmlns:xlink="http://www.w3.org/1999/xlink" width="200" height="200"><defs><style type="text/css"></style></defs><path d="M950.30784 648.36096H397.70112c-26.78784 0-48.47104-13.10208-48.47104-29.24032s21.67808-29.30176 48.47104-29.30176l552.61184-0.00512c26.84928 0 48.53248 13.16352 48.53248 29.30688-0.00512 16.08192-21.6832 29.24032-48.5376 29.24032z m0-244.3264H397.70112c-26.78784 0-48.47104-13.1584-48.47104-29.29664 0-16.0768 21.67808-29.2352 48.47104-29.2352h552.61184c26.84928 0 48.53248 13.08672 48.53248 29.2352-0.00512 16.13824-21.6832 29.30176-48.5376 29.29664z m-3.45088-235.5712H98.05824C69.4784 168.46336 46.08 155.30496 46.08 139.17696c0-16.09216 23.3984-29.30176 51.97824-29.30176h848.7936c28.58496 0 51.98336 13.15328 51.98336 29.30176 0.00512 16.06144-23.39328 29.2864-51.97824 29.2864zM288.6144 697.0112L46.08 521.22624l242.5344-219.61216v395.39712z m-190.56128 128.38912h848.79872c28.58496 0 51.98336 13.15328 51.98336 29.29664 0 16.08704-23.3984 29.30176-51.98336 29.30176H98.05312c-28.57984 0-51.97312-13.15328-51.97312-29.30176 0-16.08192 23.3984-29.30176 51.97312-29.29664z m0 0" p-id="5329"></path></svg>
