<?xml version="1.0" standalone="no"?><!DOCTYPE svg PUBLIC "-//W3C//DTD SVG 1.1//EN" "http://www.w3.org/Graphics/SVG/1.1/DTD/svg11.dtd"><svg t="1577777647205" class="icon" viewBox="0 0 1024 1024" version="1.1" xmlns="http://www.w3.org/2000/svg" p-id="1978" xmlns:xlink="http://www.w3.org/1999/xlink" width="200" height="200"><defs><style type="text/css"></style></defs><path d="M304.83968 669.78816v-128.64512c0-6.82496 2.70848-13.36832 7.53152-18.19648a25.74336 25.74336 0 0 1 18.19648-7.53152h360.20736a25.73312 25.73312 0 0 1 25.73312 25.728v128.64512h51.46112V463.95904H253.37856v205.82912h51.46112z m0 51.46112H227.65056a25.728 25.728 0 0 1-25.728-25.73312V438.22592a25.71776 25.71776 0 0 1 25.728-25.728h77.18912V283.8528a25.72288 25.72288 0 0 1 25.728-25.73312h360.20736a25.67168 25.67168 0 0 1 25.73312 25.73312v128.64512h77.184a25.7536 25.7536 0 0 1 25.73312 25.728v257.29024a25.73824 25.73824 0 0 1-25.73312 25.73312h-77.184v77.184a25.7536 25.7536 0 0 1-25.73312 25.73312H330.56768a25.728 25.728 0 0 1-25.728-25.73312v-77.184z m360.20736-308.75136V309.5808H356.29568v102.91712h308.75136z m-150.51776 566.0416c-255.7696 0-466.98496-207.34976-466.98496-463.11936 0-255.77984 211.21024-463.1296 466.98496-463.1296 255.77984 0 459.26912 207.35488 459.26912 463.1296-0.00512 255.7696-203.4944 463.11936-459.26912 463.11936z m-7.64416-51.46112c227.34848 0 415.44704-184.2944 415.44704-411.65824 0-227.37408-188.07296-411.66848-415.44704-411.66848-227.36896 0-407.8848 184.2944-407.8848 411.66848 0.00512 227.36384 180.52096 411.65824 407.8848 411.65824z m-150.58944-360.20736v205.83936h308.75136v-205.83936H356.29568z m51.46112 51.46112h205.82912v25.73312H407.7568v-25.73312z m0 77.18912h205.82912v25.728H407.7568v-25.728z m0 0" p-id="1979"></path></svg>
