<?xml version="1.0" standalone="no"?><!DOCTYPE svg PUBLIC "-//W3C//DTD SVG 1.1//EN" "http://www.w3.org/Graphics/SVG/1.1/DTD/svg11.dtd"><svg t="1586763016692" class="icon" viewBox="0 0 1024 1024" version="1.1" xmlns="http://www.w3.org/2000/svg" p-id="3008" xmlns:xlink="http://www.w3.org/1999/xlink" width="200" height="200"><defs><style type="text/css"></style></defs><path d="M953.56416 1006.29504H102.68672c-30.73536 0.29184-55.99232-24.19712-56.64256-54.92736V97.0496c0.65536-30.72512 25.91232-55.20896 56.64256-54.92224h395.99616v54.92224H102.68672v854.31808h850.87744v-427.15648h56.64256v428.35968c-1.29536 30.25408-26.368 54.03136-56.64256 53.72416z m0 0" p-id="3009"></path><path d="M381.77792 670.73024l34.432-157.88544a28.64128 28.64128 0 0 1 0-10.84928l21.00736-39.25504 367.41632-372.92544a150.10304 150.10304 0 0 1 109.15328-47.6928 101.24288 101.24288 0 0 1 70.42048 26.51136c38.87616 53.64224 32.17408 127.744-15.6672 173.55776l-361.56416 368.1024a153.4464 153.4464 0 0 1-18.59584 12.73344v2.41152l-35.64032 13.78304h-7.40352l-163.5584 31.50848z m90.9056-150.656v4.14208l-17.21856 77.1328 80.06656-17.21856 24.09984-9.64608c2.048-1.08032 3.90144-2.46784 5.51424-4.13696l361.55392-367.58016c22.5536-22.90176 35.3024-74.55232 14.6432-94.35136a41.856 41.856 0 0 0-27.55584-6.02624 89.71776 89.71776 0 0 0-60.2624 25.82528c-120.5248 120.5248-336.25088 341.07904-361.56416 368.78848l-19.2768 23.07072z m0 0" p-id="3010"></path></svg>