<?xml version="1.0" standalone="no"?><!DOCTYPE svg PUBLIC "-//W3C//DTD SVG 1.1//EN" "http://www.w3.org/Graphics/SVG/1.1/DTD/svg11.dtd"><svg t="1586762896050" class="icon" viewBox="0 0 1024 1024" version="1.1" xmlns="http://www.w3.org/2000/svg" p-id="2608" xmlns:xlink="http://www.w3.org/1999/xlink" width="200" height="200"><defs><style type="text/css"></style></defs><path d="M659.2 238.2336H297.12896V133.97504c0-37.94432-26.13248-52.20864-58.04544-31.7184L44.84608 226.8672c-31.96928 20.49024-31.96928 53.98528 0 74.45504l194.23744 124.63104c31.94368 20.49536 58.04544 6.19008 58.04544-31.744V307.20512h344.81664c190.45888 0 293.0944 85.40672 293.0944 275.84 0 144.47104-56.64256 275.84512-293.0944 275.84512H159.2064c-0.22016 0-0.41472 0.13312-0.63488 0.16384-0.51712-0.03072-1.00352-0.16384-1.53088-0.16384-23.80288 0-43.08992 19.31264-43.08992 43.1104a43.08992 43.08992 0 0 0 43.08992 43.09504c0.51712 0 1.01376-0.13824 1.53088-0.16896 0.22016 0 0.41472 0.16896 0.63488 0.16896h499.9936c190.45888 0 344.82176-119.90016 344.82176-310.33344v-103.42912c0-190.464-154.36288-293.09952-344.82176-293.09952z m0 0" p-id="2609"></path></svg>