<?xml version="1.0" standalone="no"?><!DOCTYPE svg PUBLIC "-//W3C//DTD SVG 1.1//EN" "http://www.w3.org/Graphics/SVG/1.1/DTD/svg11.dtd"><svg t="1572858791835" class="icon" viewBox="0 0 1024 1024" version="1.1" xmlns="http://www.w3.org/2000/svg" p-id="6410" xmlns:xlink="http://www.w3.org/1999/xlink" width="200" height="200"><defs><style type="text/css"></style></defs><path d="M585.63584 512.88064l397.4656-397.47584c20.0704-20.06016 20.0704-53.14048 0-73.1904l-2.16064-2.17088c-20.07552-20.0704-53.14048-20.0704-73.20576 0L510.2592 438.04672 112.7936 40.04352c-20.06016-20.0704-53.14048-20.0704-73.20064 0l-2.17088 2.17088c-20.59776 20.04992-20.59776 53.13024 0 73.1904l397.4656 397.47584-397.4656 397.4656c-20.06016 20.06016-20.06016 53.14048 0 73.20576l2.17088 2.16576c20.06016 20.06528 53.14048 20.06528 73.20064 0l397.4656-397.46048 397.47584 397.46048c20.06528 20.06528 53.13024 20.06528 73.20576 0l2.16064-2.16576c20.0704-20.06528 20.0704-53.1456 0-73.20576l-397.4656-397.4656z m0 0" p-id="6411"></path></svg>
