<?xml version="1.0" standalone="no"?><!DOCTYPE svg PUBLIC "-//W3C//DTD SVG 1.1//EN" "http://www.w3.org/Graphics/SVG/1.1/DTD/svg11.dtd"><svg t="1590377411175" class="icon" viewBox="0 0 1024 1024" version="1.1" xmlns="http://www.w3.org/2000/svg" p-id="3353" xmlns:xlink="http://www.w3.org/1999/xlink" width="200" height="200"><defs><style type="text/css"></style></defs><path d="M1005.12256 501.91872c-7.14752 7.15776-21.45792 14.3104-28.61056 14.3104s-14.30016 0-21.45792-7.15264L511.58016 101.36576 68.11136 509.07648c-14.30016 14.30528-35.76832 7.15264-50.06848-7.15776-14.30528-14.30016-7.15264-35.75808 7.15264-50.06848L511.58016 1.2288l486.38976 450.62144c14.3104 14.3104 21.45792 35.76832 7.15264 50.06848zM604.5696 380.32384c-14.3104-14.30016-35.76832-7.15264-50.06848 7.15264l-171.66848 214.5792 143.05792 71.53152L411.4432 816.64c-14.3104 14.3104-7.15264 35.7632 7.14752 50.06848 7.15264 7.15264 14.3104 7.15264 21.45792 7.15264 7.15264 0 21.45792-7.15264 28.61056-14.3104l171.66848-214.5792-143.05792-71.5264 114.44736-143.05792c14.30528-14.29504 7.15264-35.75296-7.14752-50.06336z m228.8896 135.90528c-21.45792 0-35.76832 14.30528-35.76832 35.75808v286.11584c0 57.22112-50.06848 107.2896-107.2896 107.2896H332.76416c-57.22112 0-107.29472-50.06848-107.29472-107.2896V551.9872c0-21.4528-14.30528-35.75808-35.7632-35.75808s-35.7632 14.30528-35.7632 35.75808v286.11584c0 100.13696 78.68416 178.82112 178.82112 178.82112h357.63712c100.14208 0 178.82112-78.68416 178.82112-178.82112V551.9872c0-21.4528-14.3104-35.75808-35.7632-35.75808z m0 0" p-id="3354"></path></svg>