<?xml version="1.0" standalone="no"?><!DOCTYPE svg PUBLIC "-//W3C//DTD SVG 1.1//EN" "http://www.w3.org/Graphics/SVG/1.1/DTD/svg11.dtd"><svg t="1577416578416" class="icon" viewBox="0 0 1024 1024" version="1.1" xmlns="http://www.w3.org/2000/svg" p-id="4831" xmlns:xlink="http://www.w3.org/1999/xlink" width="200" height="200"><defs><style type="text/css"></style></defs><path d="M761.97376 695.19872h143.30368c24.0896 0 39.53152-16.05632 39.53152-39.53152 0-24.0896-16.06144-39.53152-39.53152-39.53152h-246.4768c-8.01792 0-16.0512 8.02816-24.07936 16.05632-8.02816 8.02816-8.02816 16.06144-8.02816 24.0896v238.4384c0 24.08448 16.06144 39.5264 39.53152 39.5264 24.09472 0 39.53664-16.05632 39.53664-39.5264v-143.3088l214.95808 214.95808c16.06144 16.05632 39.53664 16.05632 55.59296 0 16.06144-16.06144 16.06144-39.53664 0-55.59296l-214.33856-215.5776zM921.33888 34.88256l-143.31392 143.3088-71.6544 71.64928v-143.3088c0-24.0896-16.0512-39.53664-39.52128-39.53664-24.09472 0-39.54176 16.06656-39.54176 39.53664v238.43328c0 24.09472 16.06656 39.53152 39.54176 39.53152h238.42816c24.0896 0 39.53152-16.05632 39.53152-39.53152 0-23.47008-16.06144-39.53664-39.53152-39.53664h-143.30368l214.94784-214.95808c16.06144-16.05632 16.06144-39.53152 0-55.58784-16.04608-16.06144-40.1408-15.44704-55.58272 0zM356.13696 66.9952c-24.08448 0-39.5264 16.06656-39.5264 39.53664v143.3088L101.65248 34.88256c-16.06144-16.06144-39.53664-16.06144-55.59296 0-16.06144 16.05632-16.06144 39.53152 0 55.58784L261.0176 305.42848H117.7088c-24.0896 0-39.53664 16.06656-39.53664 39.53664 0 23.4752 16.07168 39.53152 39.53664 39.53152h238.42816c24.09984 0 39.53664-16.05632 39.53664-39.53152V106.53184c0.6144-23.47008-15.4368-39.53664-39.53664-39.53664z m0 548.52608H117.70368c-24.0896 0-39.53664 16.06144-39.53664 39.54176 0 24.08448 16.07168 39.53152 39.53664 39.53152h143.3088L46.0544 909.54752c-16.06144 16.06144-16.06144 39.53664 0 55.59296 16.06144 16.06144 39.53152 16.06144 55.59296 0l214.95808-214.95808v143.3088c0 24.08448 16.06144 39.53152 39.5264 39.53152 23.48032 0 39.53664-16.06656 39.53664-39.53152v-238.42816c0.61952-23.48544-15.43168-39.54176-39.53152-39.54176z m0 0" p-id="4832"></path></svg>
