<?xml version="1.0" standalone="no"?><!DOCTYPE svg PUBLIC "-//W3C//DTD SVG 1.1//EN" "http://www.w3.org/Graphics/SVG/1.1/DTD/svg11.dtd"><svg t="1577777640246" class="icon" viewBox="0 0 1024 1024" version="1.1" xmlns="http://www.w3.org/2000/svg" p-id="1727" xmlns:xlink="http://www.w3.org/1999/xlink" width="200" height="200"><defs><style type="text/css"></style></defs><path d="M518.76864 999.74656c-267.93472 0-485.81632-218.21952-485.81632-485.81632S250.83392 28.11904 518.76864 28.11904c267.9296 0 485.80608 217.8816 485.80608 485.8112 0 267.9296-217.87648 485.81632-485.80608 485.81632z m0.3328-927.25248c-243.24096 0-441.10336 197.8624-441.10336 441.09824 0.3328 243.56864 197.5296 440.76544 441.10336 441.09312 243.23072 0 441.09312-197.85728 441.09312-441.09312s-198.18496-441.09824-441.09312-441.09824z m0 0" p-id="1728"></path><path d="M522.10688 231.31648c-134.47168 0-243.91168 109.43488-243.91168 243.90144 0 129.80224 218.54208 360.35072 227.88608 370.03264 4.34176 4.33152 10.01472 7.00928 16.0256 7.00928h0.32768c6.33856 0 12.01664-3.01056 16.35328-7.68512l75.74016-86.74816c100.42368-123.11552 151.4752-218.21952 151.4752-282.60864 0-134.46656-109.43488-243.90144-243.89632-243.90144z m0 354.67264c-61.39904 0-110.78144-49.7152-110.78144-110.7712s49.72032-110.7712 110.78144-110.7712c61.056 0 110.7712 49.7152 110.7712 110.7712s-49.72032 110.7712-110.7712 110.7712z m0 0" p-id="1729"></path></svg>
