<?xml version="1.0" standalone="no"?><!DOCTYPE svg PUBLIC "-//W3C//DTD SVG 1.1//EN" "http://www.w3.org/Graphics/SVG/1.1/DTD/svg11.dtd"><svg t="1577777133542" class="icon" viewBox="0 0 1024 1024" version="1.1" xmlns="http://www.w3.org/2000/svg" p-id="2653" xmlns:xlink="http://www.w3.org/1999/xlink" width="200" height="200"><defs><style type="text/css"></style></defs><path d="M62.55616 586.24512h190.99136a31.83104 31.83104 0 0 0 0-63.6672H62.55616A31.8464 31.8464 0 0 0 30.72 554.41408a31.8464 31.8464 0 0 0 31.83616 31.83104z m913.96608 265.99424l-109.62944-109.62944c33.93024-43.29472 55.07072-97.09056 55.07072-156.42624 0-140.63616-114.0224-254.65856-254.65344-254.65856-140.64128 0-254.65856 114.0224-254.65856 254.65856 0 140.64128 114.01728 254.65856 254.65856 254.65856 59.3408 0 113.13152-21.13536 156.42624-55.07072l109.63456 109.62944a30.5408 30.5408 0 0 0 43.15648 0 30.53056 30.53056 0 0 0-0.00512-43.1616z m-172.71808-132.67968c-0.57344 0.512-1.34656 0.70144-1.85344 1.27488-0.50176 0.57344-0.75776 1.33632-1.26976 1.8432-34.44224 33.6128-81.36704 54.5024-133.376 54.5024-105.49248 0-190.99648-85.49888-190.99648-190.99648s85.49888-190.99136 190.99648-190.99136c105.49248 0 190.99648 85.49888 190.99648 190.99136 0.06144 52.01408-20.81792 98.93888-54.49728 133.376zM62.55616 204.25728h572.9792a31.8464 31.8464 0 0 0 31.83616-31.82592 31.8464 31.8464 0 0 0-31.83616-31.83616H62.55616A31.8464 31.8464 0 0 0 30.72 172.43136a31.8464 31.8464 0 0 0 31.83616 31.82592z m254.65344 127.32928H62.55616C44.98432 331.58656 30.72 345.85088 30.72 363.42272s14.26432 31.83104 31.83616 31.83104h254.65344c17.57184 0 31.83104-14.2592 31.83104-31.83104s-14.2592-31.83616-31.83104-31.83616z m0 381.99296H62.55616A31.8464 31.8464 0 0 0 30.72 745.41056a31.8464 31.8464 0 0 0 31.83616 31.83104h254.65344a31.83616 31.83616 0 0 0 0-63.66208z m0 0" p-id="2654"></path></svg>
