<?xml version="1.0" standalone="no"?><!DOCTYPE svg PUBLIC "-//W3C//DTD SVG 1.1//EN" "http://www.w3.org/Graphics/SVG/1.1/DTD/svg11.dtd"><svg t="1572859333809" class="icon" viewBox="0 0 1024 1024" version="1.1" xmlns="http://www.w3.org/2000/svg" p-id="10268" xmlns:xlink="http://www.w3.org/1999/xlink" width="200" height="200"><defs><style type="text/css"></style></defs><path d="M470.69184 729.81504H470.016a18.22208 18.22208 0 0 1-16.67584-12.84608L343.5008 365.48096 280.97536 518.2464a18.26304 18.26304 0 0 1-16.896 11.37664h-71.9872a18.176 18.176 0 0 1-18.2528-18.2528 18.176 18.176 0 0 1 18.2528-18.24256h59.70432l76.94336-188.36992c2.93376-7.09632 9.69216-11.264 17.68448-11.37152a18.31936 18.31936 0 0 1 16.67072 12.83584l109.6192 351.04256 94.63808-235.67872a18.22208 18.22208 0 0 1 16.67072-11.4944c7.65952 0.68096 14.08512 4.28032 16.90112 11.04384l58.5728 136.20224 29.52192-55.53664a18.19648 18.19648 0 0 1 16.11264-9.69216h63.08864a18.17088 18.17088 0 0 1 18.24256 18.2528 18.176 18.176 0 0 1-18.24256 18.2528h-52.16256l-42.25024 79.3088c-3.26656 6.1952-10.1376 9.68704-16.896 9.68704a18.44736 18.44736 0 0 1-15.99488-11.03872L584.704 475.88352 487.36256 718.4384c-2.47808 6.87104-9.23136 11.37664-16.67072 11.37664z m0 0" p-id="10269"></path><path d="M802.80576 206.29504c49.79712 49.79712 86.96832 111.52896 107.47904 178.44736l35.93728-11.03872c-22.30272-72.77568-62.75072-139.81184-116.82304-193.9968-117.49888-117.49888-284.01152-163.69152-445.45024-123.6992l9.12384 36.5056c148.48-36.84352 301.696 5.73952 409.73312 113.78176z m-610.60608 0l-26.58816-26.58816c-183.0656 183.0656-183.0656 480.82432 0 663.77728l26.58816-26.58304c-168.30976-168.4224-168.30976-442.29632 0-610.60608z m761.344 416.60928l-36.61824-8.89856c-18.5856 76.60544-58.13248 146.78528-114.23744 202.89024-109.3888 109.39392-270.15168 151.98208-419.5328 111.20128l-9.91232 36.27008c162.33472 44.39552 337.1776-1.90976 456.0384-120.8832 61.06112-60.94848 104.09472-137.216 124.2624-220.57984z m-44.05248-70.528c23.20896 23.20896 60.94848 23.20896 84.15744 0 23.20896-23.20896 23.20896-60.94848 0-84.15232-23.20384-23.20896-60.94336-23.20896-84.03968 0-23.21408 23.20384-23.21408 60.94336-0.11776 84.15232z m67.93216-67.92704c14.3104 14.30528 14.3104 37.50912 0 51.70688-14.30528 14.30528-37.51424 14.30528-51.712 0-14.30528-14.3104-14.30528-37.51424 0-51.70688 14.31552-14.20288 37.51424-14.20288 51.712 0zM321.64352 859.71456c-23.20896-23.20896-61.06112-23.20896-84.26496 0-23.20896 23.19872-23.20896 61.056 0 84.26496 23.20896 23.19872 61.06112 23.19872 84.26496 0 23.31648-23.20896 23.31648-61.06624 0-84.26496z m-68.0448 68.03968a36.64896 36.64896 0 0 1 51.82464-51.81952 36.63872 36.63872 0 0 1 0 51.81952c-14.19776 14.30528-37.51424 14.30528-51.82464 0zM237.94176 162.69824c23.20896 23.20896 61.056 23.20896 84.26496 0 23.21408-23.20896 23.21408-61.06112 0-84.27008-23.20896-23.20896-61.056-23.20896-84.26496 0-23.21408 23.31648-23.21408 61.06112 0 84.27008z m68.0448-68.04992a36.6592 36.6592 0 0 1 0 51.82464 36.6592 36.6592 0 0 1-51.82464 0 36.6592 36.6592 0 0 1 0-51.82464 36.6592 36.6592 0 0 1 51.82464 0z m0 0" p-id="10270"></path><path d="M852.03968 388.23936C722.59072 82.59072 417.85344 145.4592 414.81216 146.24768l-3.83488-17.57696c3.15904-0.78848 322.54464-66.58048 457.62048 252.57984l-16.55808 6.9888z m0 0" p-id="10271"></path></svg>
