<?xml version="1.0" standalone="no"?><!DOCTYPE svg PUBLIC "-//W3C//DTD SVG 1.1//EN" "http://www.w3.org/Graphics/SVG/1.1/DTD/svg11.dtd"><svg t="1586504804052" class="icon" viewBox="0 0 1024 1024" version="1.1" xmlns="http://www.w3.org/2000/svg" p-id="2449" xmlns:xlink="http://www.w3.org/1999/xlink" width="200" height="200"><defs><style type="text/css"></style></defs><path d="M404.93056 28.17536h245.43232c40.064 0 75.12064 35.05664 75.12064 75.13088V433.8688h105.18528c30.0544 0 60.10368 20.03968 70.1184 45.07648 10.01472 30.05952 5.00736 60.11392-15.0272 85.16096l-305.52064 305.52064c-30.05952 30.0544-80.13312 30.0544-105.18016 0l-305.54112-305.52576c-20.03456-20.03968-30.04416-55.09632-15.0272-85.15584C164.51584 448.90112 194.56 433.8688 224.62464 433.8688h105.16992V103.30624c-5.00224-40.07424 30.05952-75.13088 75.136-75.13088z m120.20736 791.36768c5.01248 0 5.01248 0 0 0l310.528-305.53088s5.01248-5.01248 0-5.01248c-5.00736 0-5.00736-5.00736-5.00736-5.00736h-140.24192c-20.03456 0-35.072-15.03232-35.072-35.06176V103.30624c0-5.01248-4.99712-5.01248-4.99712-5.01248H404.93056c-5.00224 0-5.00224 5.01248-5.00224 5.01248V468.9408c0 20.02944-15.03232 35.06176-35.06688 35.06176h-140.2368s-5.00736 0-5.00736 5.00736v5.01248l305.52064 305.52064z m-440.7552 120.19712l881.5104 0.00512c20.02944 0 35.06688 15.03232 35.06688 35.06688 0 20.02944-15.03744 35.05664-35.06688 35.05664l-881.5104-0.00512c-20.0448 0-35.07712-15.02208-35.07712-35.05664 0.00512-20.03456 15.03232-35.06688 35.07712-35.06688z m0 0" p-id="2450"></path></svg>