<?xml version="1.0" standalone="no"?><!DOCTYPE svg PUBLIC "-//W3C//DTD SVG 1.1//EN" "http://www.w3.org/Graphics/SVG/1.1/DTD/svg11.dtd"><svg t="1572859031246" class="icon" viewBox="0 0 1024 1024" version="1.1" xmlns="http://www.w3.org/2000/svg" p-id="9021" xmlns:xlink="http://www.w3.org/1999/xlink" width="200" height="200"><defs><style type="text/css"></style></defs><path d="M539.27424 172.5184c-161.3312 0-291.86048 130.5344-291.86048 291.87072 0 122.26048 74.92096 226.59072 181.5552 270.2592v-61.1328c-74.92096-39.53152-125.94176-118.5792-125.94176-209.1264 0-130.54464 105.71776-236.25728 236.24704-236.25728 130.53952 0 236.25216 105.71264 236.25216 236.25728 0 90.0864-50.54976 168.21248-124.55424 208.2048v61.5936c105.70752-43.66848 180.16768-147.99872 180.16768-269.7984 0-161.33632-130.98496-291.87072-291.8656-291.87072z m0 0" p-id="9022"></path><path d="M699.69408 376.13568c-7.36256 5.05856-10.12224 14.71488-6.90176 22.98368a136.48384 136.48384 0 0 1 6.90176 20.6848c2.75456 10.56768 13.32736 17.00352 23.89504 14.24896 10.11712-2.75968 16.08704-13.32736 13.79328-23.43936a231.73632 231.73632 0 0 0-8.27904-25.28768c-5.05344-11.95008-19.29216-16.54784-29.40928-9.1904z m-157.66016-98.36032c0 10.112 7.35744 17.92 17.00352 19.30752 40.448 5.05344 76.30336 24.35584 102.04672 52.84864 6.43584 7.35744 17.45408 8.27904 25.28256 2.75968a19.4048 19.4048 0 0 0 3.21024-28.9536 203.85792 203.85792 0 0 0-126.39744-65.26464c-11.02848-1.37728-21.1456 7.808-21.1456 19.3024z m-383.32928 0.91648a22.9888 22.9888 0 0 0 8.27392 27.58144c7.35232 5.05856 14.24896 10.11712 20.6848 16.08704 10.112 8.73984 24.82176 8.27904 33.55648-1.83808 8.2688-9.65632 7.35232-24.35584-2.29888-33.09056-7.81312-7.35744-16.54272-13.78816-25.28256-19.7632-11.9552-8.28416-29.41952-3.2256-34.93376 11.02336z m136.50944-165.00736a23.48544 23.48544 0 0 0-0.9216 28.96384c5.51936 6.89152 10.11712 14.24896 14.70976 22.06208 6.43584 11.48928 21.1456 15.62624 32.63488 8.7296 11.02848-6.43584 14.70976-20.6848 8.27392-32.17408-5.51424-9.19552-11.0336-18.38592-17.46944-26.66496-9.1904-12.40576-27.11552-12.86656-37.22752-0.91648z m237.62944-66.18624c-10.56768 2.75968-17.46432 12.86656-17.00352 23.44448 0.45568 8.7296 0.45568 17.4592-0.4608 26.19392-0.9216 13.32736 8.7296 24.82176 22.06208 25.74336a23.20896 23.20896 0 0 0 24.82176-21.6064c0.9216-10.56768 0.9216-21.60128 0.4608-32.17408-0.46592-15.16032-15.17056-25.73824-29.88032-21.60128z m216.94464 60.672c-9.6512-5.05856-21.6064-3.21536-28.4928 5.05344a173.20448 173.20448 0 0 1-18.39104 18.38592c-10.112 8.73472-11.02848 23.90016-2.28864 33.55648 8.72448 9.6512 23.43424 10.56768 33.09056 1.83296 8.27392-6.89152 15.62112-14.69952 22.52288-22.51776 10.10688-11.48416 6.89152-29.41952-6.44096-36.31104z m167.30112 167.76192c-6.89152-8.2688-18.3808-11.48928-28.4928-6.43072-7.808 3.67616-16.08704 7.35744-24.35584 10.10688-12.416 4.13696-19.30752 17.47456-15.17568 30.34112 4.14208 11.94496 17.47456 18.38592 29.41952 14.70976 10.112-3.22048 20.224-7.35744 29.8752-11.94496 14.25408-7.36256 18.38592-24.82688 8.7296-36.78208z m-289.5616 597.52448h-179.2512c-13.79328 0-25.28768-11.48928-25.28768-25.27744 0-13.79328 11.4944-25.28256 25.28768-25.28256h179.25632c13.78816 0 25.27744 11.48928 25.27744 25.28256-0.00512 13.78816-11.48928 25.27744-25.28256 25.27744z m-45.96224 85.49376H494.2336c-13.78816 0-25.28256-11.4944-25.28256-25.28256 0-13.78816 11.4944-25.28256 25.28256-25.28256h87.33184c13.78304 0 25.28256 11.4944 25.28256 25.28256-0.00512 13.78816-11.49952 25.28256-25.28256 25.28256z m45.04576-285.89568v42.2912c0 9.6512-8.27392 17.92512-17.92512 17.92512H469.87264c-9.6512 0-17.93024-8.27392-17.93024-17.92512v-42.2912H396.78976v59.75552c0 30.336 24.82176 55.15264 55.15264 55.15264h174.20288c30.336 0 55.14752-24.82176 55.14752-55.15264v-59.75552h-54.6816z m0 0" p-id="9023"></path></svg>
