<?xml version="1.0" standalone="no"?><!DOCTYPE svg PUBLIC "-//W3C//DTD SVG 1.1//EN" "http://www.w3.org/Graphics/SVG/1.1/DTD/svg11.dtd"><svg t="1572858805292" class="icon" viewBox="0 0 1024 1024" version="1.1" xmlns="http://www.w3.org/2000/svg" p-id="6906" xmlns:xlink="http://www.w3.org/1999/xlink" width="200" height="200"><defs><style type="text/css"></style></defs><path d="M481.5616 23.39328h60.88192v97.40288H481.5616V23.39328z m402.51904 193.59232l43.03872 43.09504-73.17504 73.18016-43.03872-43.03872 73.17504-73.23648z m-744.1664 0.06144L213.0944 290.22208l-43.03872 43.03872-73.18016-73.18016 43.03872-43.0336z m37.25824 640.36864h669.64992v-316.56448c0-188.71296-146.10432-334.8224-334.82752-334.8224-188.71808 0-334.8224 146.10432-334.8224 334.8224v316.56448z m60.88192-316.56448c0-152.192 121.74848-273.9456 273.94048-273.9456s273.9456 121.75872 273.9456 273.9456v255.68768H371.97824v-213.0688H311.10656v213.0688H238.0544v-255.68768z m-182.63552 401.78688h913.16224V1003.52H55.41888v-60.88192z m0 0" p-id="6907"></path></svg>
