<?xml version="1.0" standalone="no"?><!DOCTYPE svg PUBLIC "-//W3C//DTD SVG 1.1//EN" "http://www.w3.org/Graphics/SVG/1.1/DTD/svg11.dtd"><svg t="1572859045514" class="icon" viewBox="0 0 1024 1024" version="1.1" xmlns="http://www.w3.org/2000/svg" p-id="9146" xmlns:xlink="http://www.w3.org/1999/xlink" width="200" height="200"><defs><style type="text/css"></style></defs><path d="M948.608 133.90336c13.16864 13.17888 21.41184 31.29344 21.41184 52.70528v709.96992c0 21.41696-8.23808 39.54176-21.41184 52.72064-13.17888 13.16864-31.30368 21.41184-52.71552 21.41184H118.38976c-21.41184 0-39.53152-8.23808-52.7104-21.41184-13.17888-13.17888-21.41696-31.30368-21.41696-52.72064V188.26752c0-21.41184 8.23808-39.53664 21.41696-52.7104 13.17888-13.17888 31.29856-21.42208 52.7104-21.42208h125.18912V84.48c0-9.8816 3.3024-19.75808 11.53024-26.34752 6.59456-6.59456 16.47616-11.53536 26.36288-11.53536 9.8816 0 19.75808 3.29728 26.35264 11.53536 6.59456 6.58944 11.53024 16.46592 11.53024 26.34752v29.65504h380.51328V84.48c0-9.8816 3.3024-19.75808 11.53536-26.34752 8.22784-6.59456 16.47104-11.53536 26.35264-11.53536 9.8816 0 19.75808 3.29728 26.35776 11.53536 6.58944 6.58944 11.52512 16.46592 11.52512 26.34752v29.65504h123.5456c18.11968 0 34.60096 6.58944 49.42336 19.76832zM118.38976 301.92128h777.50272V186.61376h-125.184v21.42208c0 9.8816-3.30752 19.76832-11.53536 26.34752-6.58944 6.58944-16.47616 11.53024-26.35776 11.53024s-19.76832-3.29216-26.34752-11.53024c-6.59456-6.58432-11.53536-16.46592-11.53536-26.34752v-21.42208H316.06272v21.42208c0 9.8816-3.29728 19.76832-11.53024 26.34752-6.59456 6.58944-16.47616 9.88672-26.36288 9.88672-9.87648 0-19.7632-3.29728-26.35264-11.52512-6.58432-6.58944-11.52512-16.47616-11.52512-26.35776v-21.41184h-123.5456c1.64352 1.6384 1.64352 116.94592 1.64352 116.94592zM895.89248 377.7024H118.38976v520.5248h777.50272V377.7024zM251.81696 519.36256c-6.58432 6.58944-8.23296 13.17888-8.23296 23.0656 0 9.8816 3.3024 18.11456 9.8816 23.05536 6.59456 6.59456 14.83264 9.88672 23.0656 9.88672h65.88928c9.88672 0 18.11968-3.29216 23.06048-9.88672 6.59456-6.58432 9.8816-14.82752 9.8816-23.05536 0-8.23296-3.28704-18.11968-9.8816-23.0656-6.58432-6.58432-13.17888-9.88672-23.06048-9.88672h-65.8944c-9.8816 0-18.11968 3.3024-24.70912 9.88672z m0 199.31648c-6.58432 6.58432-9.8816 14.82752-9.8816 23.0656 0 9.88672 3.29728 18.10944 9.8816 23.06048 6.59456 6.58432 14.82752 9.88672 23.0656 9.88672h65.88928c9.88672 0 18.1248-3.3024 23.06048-9.88672 6.58944-6.59456 9.88672-14.83264 9.88672-23.06048 0-9.88672-3.29728-18.1248-9.88672-23.0656-6.59456-6.58944-14.8224-9.88672-23.06048-9.88672H274.88256c-8.23808 1.64864-16.47616 4.9408-23.0656 9.88672z m199.3216-199.31648c-6.58944 6.58944-9.88672 13.17888-9.88672 23.0656 0 9.8816 3.29728 18.11456 9.88672 23.05536 6.58432 8.23808 13.17888 9.88672 23.06048 9.88672h65.88416c9.88672 0 18.1248-3.29216 23.06048-9.88672 6.58944-6.58432 9.88672-14.82752 9.88672-23.05536 0-8.23296-3.29728-18.11968-9.88672-23.0656-4.93568-6.58432-13.17376-9.88672-23.06048-9.88672H474.19904c-9.8816 0-18.11968 3.3024-23.06048 9.88672z m0 199.31648c-6.58944 6.58432-9.88672 14.82752-9.88672 23.0656 0 9.88672 3.29728 18.10944 9.88672 23.06048 6.58432 6.58432 14.8224 9.88672 23.06048 9.88672h65.88416c9.88672 0 18.1248-3.3024 23.06048-9.88672 6.58944-6.59456 9.88672-14.83264 9.88672-23.06048 0-9.88672-3.29728-18.1248-9.88672-23.0656-6.5792-6.58944-14.8224-9.88672-23.06048-9.88672H474.19904c-9.8816 1.64864-18.11968 4.9408-23.06048 9.88672z m197.67296-199.31648c-6.59456 6.58944-9.88672 13.17888-9.88672 23.0656 0 9.8816 3.29216 18.11456 9.88672 23.05536 6.58432 8.23808 14.82752 9.88672 23.05536 9.88672h65.8944c9.8816 0 18.11968-3.29216 23.0656-9.88672 6.5792-6.58432 9.88672-14.82752 9.88672-23.05536 0-8.23296-3.30752-18.11968-9.88672-23.0656-6.59456-6.58432-14.82752-9.88672-23.0656-9.88672h-65.8944c-9.88672 0-16.47104 3.3024-23.05536 9.88672z m0 0" p-id="9147"></path></svg>
