<?xml version="1.0" standalone="no"?><!DOCTYPE svg PUBLIC "-//W3C//DTD SVG 1.1//EN" "http://www.w3.org/Graphics/SVG/1.1/DTD/svg11.dtd"><svg t="1572858776551" class="icon" viewBox="0 0 1024 1024" version="1.1" xmlns="http://www.w3.org/2000/svg" p-id="6034" xmlns:xlink="http://www.w3.org/1999/xlink" width="200" height="200"><defs><style type="text/css"></style></defs><path d="M843.81184 408.48384H284.64128V317.22496c0-124.34944 101.22752-225.57696 225.71008-225.57696 124.4928 0 225.72032 101.36064 225.72032 225.85344 0 16.896 13.568 30.464 30.45888 30.464 16.896 0 30.46912-13.568 30.46912-30.464C797.0048 159.36 668.35456 30.72 510.35648 30.72c-76.57472 0-148.5824 29.76768-202.7264 83.9168s-83.9168 126.01344-83.9168 202.58816v91.25888H159.4624C122.07104 408.48384 92.16 438.39488 92.16 475.64288v462.64832c0 37.38624 30.04928 68.27008 67.3024 68.27008H843.6736c37.38624 0 68.13184-30.88384 68.13184-68.27008V475.64288c0.13312-37.248-30.61248-67.15904-67.9936-67.15904z m7.19872 530.50368a6.79424 6.79424 0 0 1-6.784 6.784H159.87712a6.784 6.784 0 0 1-6.784-6.784V476.19584a6.79424 6.79424 0 0 1 6.784-6.78912H844.0832a6.80448 6.80448 0 0 1 6.784 6.78912v462.78656h0.14336z m-354.49856-372.64384a62.22336 62.22336 0 0 0-62.3104 62.3104c0 22.72256 12.1856 42.65472 30.464 53.6064v120.8832c0 16.74752 13.71136 30.45888 30.464 30.45888 16.75776 0 30.46912-13.71136 30.46912-30.45888v-119.3728a62.0544 62.0544 0 0 0 33.22368-55.1168c0-34.47808-27.8272-62.3104-62.3104-62.3104z m0 0" p-id="6035"></path></svg>
