<?xml version="1.0" standalone="no"?><!DOCTYPE svg PUBLIC "-//W3C//DTD SVG 1.1//EN" "http://www.w3.org/Graphics/SVG/1.1/DTD/svg11.dtd"><svg t="1577416582359" class="icon" viewBox="0 0 1024 1024" version="1.1" xmlns="http://www.w3.org/2000/svg" p-id="4955" xmlns:xlink="http://www.w3.org/1999/xlink" width="200" height="200"><defs><style type="text/css"></style></defs><path d="M533.75488 976.0512c40.7296 0 73.74336-33.024 73.74336-73.74336 0-40.73472-33.01376-73.74848-73.74336-73.74848-30.5664 0-56.78592 18.5856-67.97312 45.1072-72.3712-13.45024-138.9568-48.31232-192.11264-101.4784-69.47328-69.47328-107.73504-161.83296-107.73504-260.08064 0-134.4512 73.3696-258.1504 191.48288-322.83136a22.38976 22.38976 0 1 0-21.51424-39.27552C203.43296 222.53056 121.14944 361.28256 121.14944 512.1024c0 55.68512 10.91072 109.72672 32.43008 160.60416a411.28448 411.28448 0 0 0 88.41728 131.14368c37.888 37.87264 82.01216 67.62496 131.1488 88.40704a407.82336 407.82336 0 0 0 88.65792 26.21952c7.36768 32.93696 36.76672 57.5744 71.95136 57.5744z m0-780.42624c30.57664 0 56.80128-18.60608 67.98336-45.1072 72.35072 13.44512 138.94144 48.31232 192.10752 101.47328 69.4784 69.4784 107.72992 161.84832 107.72992 260.10624 0 134.43072-73.36448 258.11456-191.46752 322.80576a22.38976 22.38976 0 0 0-8.87808 30.39744 22.38464 22.38464 0 0 0 30.39232 8.8832c132.45952-72.5504 214.74816-211.28704 214.74816-362.0864 0-55.70048-10.92096-109.73696-32.44032-160.6144a411.0336 411.0336 0 0 0-88.41216-131.1488c-37.888-37.888-82.01216-67.6352-131.15392-88.4224a409.472 409.472 0 0 0-88.65792-26.20928c-7.37792-32.95232-36.7872-57.56928-71.95136-57.56928-40.73472 0-73.74336 33.01376-73.74336 73.7536-0.00512 40.7296 33.01888 73.73824 73.74336 73.73824z m0 0" p-id="4956"></path><path d="M603.10016 410.51648v46.2336h-138.7008v-46.2336h138.7008z m0-69.3504v46.22848h-138.7008v-46.22848h138.7008z m-69.34528 369.85856l138.69568-138.69056h-69.3504v-92.4672h-138.7008v92.47232H395.0592l138.69568 138.68544z m0 0" p-id="4957"></path></svg>
