<?xml version="1.0" standalone="no"?><!DOCTYPE svg PUBLIC "-//W3C//DTD SVG 1.1//EN" "http://www.w3.org/Graphics/SVG/1.1/DTD/svg11.dtd"><svg t="1586763022337" class="icon" viewBox="0 0 1024 1024" version="1.1" xmlns="http://www.w3.org/2000/svg" p-id="3141" xmlns:xlink="http://www.w3.org/1999/xlink" width="200" height="200"><defs><style type="text/css"></style></defs><path d="M78.78656 126.45376c8.59136 0 18.37056 19.456 23.4752 35.00032 28.15488 96.40448 155.43296 198.47168 270.21312 211.08224v-1.19296c0-32.1792 11.51488-55.11168 34.45248-70.00576 12.0576-7.49568 24.67328-11.51488 37.82144-11.51488 14.89408 0 29.78304 5.21728 42.496 14.88384l172.17536 136.08448c19.45088 14.35136 30.976 37.82656 30.976 62.49984 0 24.13568-11.52512 47.60576-30.4384 61.95712l-172.70784 136.6272c-1.73568 1.19808-2.82624 2.28352-4.56704 2.83136-8.0384 4.56704-21.19168 10.32192-37.27872 10.32192-13.14816 0-25.76384-3.47648-37.28384-10.86464-28.6976-18.37056-33.26464-47.61088-35.00032-60.22144l-0.5376-2.2784c-0.54784-1.73568-0.54784-4.0192-0.54784-5.76v-5.76512c-176.73728-29.2352-341.40672-209.33632-341.40672-382.59712 0-32.17408 4.56704-64.77824 13.80352-95.75936 4.57216-15.0016 20.00896-28.80512 34.3552-25.32864z m364.34432 507.70432c0.5376 2.83136 1.19296 7.5008 2.28352 9.13408l169.7792-134.23616c1.73568-1.2032 2.82624-3.4816 2.82624-5.76512s-0.54272-4.01408-2.82624-5.76L444.2112 362.20928c0 1.19808-0.54272 3.4816-0.54272 8.58624v37.82656c0 18.91328-14.34112 34.4576-33.25952 35.54304-113.58208 8.04352-232.38656-66.52416-304.66048-158.3616 24.12544 133.68832 167.49056 269.01504 304.01024 276.51072 18.91328 1.19296 33.81248 16.62976 33.81248 35.54304v35.53792l-0.44032 0.76288z m0 0" p-id="3142"></path><path d="M293.34528 960.67584c-72.82176 0-131.95264-59.6736-131.95264-131.95776V609.4848h75.10528v219.13088c0 31.51872 25.86624 56.84736 56.84736 56.84736h573.14304c31.51872 0 56.84736-25.86624 56.84736-56.84736V210.80576c0-31.52896-25.87136-56.84736-56.84736-56.84736H392.04352V78.19776h474.44992c72.82176 0 132.49024 59.6736 132.49024 132.49536v617.2672c0 72.82688-59.66848 132.49536-132.49024 132.49536H293.34528v0.22016z m0 0" p-id="3143"></path><path d="M872.2432 645.14048h-122.27584v-64.24064h122.1632v64.24064h0.11264z m0 167.49568h-321.83808v-64.23552h321.83808v64.23552z m0-462.38208h-257.60256V286.01856h257.60256v64.23552z m0 153.14944h-122.27584V439.168h122.1632v64.23552h0.11264z m0 0" p-id="3144"></path></svg>