<?xml version="1.0" standalone="no"?><!DOCTYPE svg PUBLIC "-//W3C//DTD SVG 1.1//EN" "http://www.w3.org/Graphics/SVG/1.1/DTD/svg11.dtd"><svg t="1572859028550" class="icon" viewBox="0 0 1024 1024" version="1.1" xmlns="http://www.w3.org/2000/svg" p-id="8897" xmlns:xlink="http://www.w3.org/1999/xlink" width="200" height="200"><defs><style type="text/css"></style></defs><path d="M522.61888 956.22656C270.74048 956.22656 66.56 751.98976 66.56 500.09088c0-251.904 204.18048-456.11008 456.05888-456.11008 251.86816 0 456.05888 204.20608 456.05888 456.11008 0 251.89888-204.1856 456.13568-456.05888 456.13568z m0-855.23456c-220.39552 0-399.0528 178.67776-399.0528 399.09888 0 220.42112 178.65728 399.104 399.0528 399.104 220.38016 0 399.04768-178.68288 399.04768-399.104 0.00512-220.42112-178.66752-399.09888-399.04768-399.09888z m171.02336 427.60704h-142.52032v142.5408a28.50304 28.50304 0 0 1-56.99584 0v-142.5408H351.59552a28.50816 28.50816 0 0 1 0-57.00608h142.52544V329.04704a28.4928 28.4928 0 0 1 28.49792-28.4928 28.4928 28.4928 0 0 1 28.49792 28.4928v142.54592h142.52032a28.50304 28.50304 0 1 1 0.00512 57.00608z m0 0" p-id="8898"></path></svg>
