<?xml version="1.0" standalone="no"?><!DOCTYPE svg PUBLIC "-//W3C//DTD SVG 1.1//EN" "http://www.w3.org/Graphics/SVG/1.1/DTD/svg11.dtd"><svg t="1576046287023" class="icon" viewBox="0 0 1024 1024" version="1.1" xmlns="http://www.w3.org/2000/svg" p-id="2061" xmlns:xlink="http://www.w3.org/1999/xlink" width="200" height="200"><defs><style type="text/css"></style></defs><path d="M873.13408 998.51776H149.49888c-72.72448 0-131.57376-55.6288-131.57376-124.11392v-256.0768c0-17.09056 14.64832-30.97088 32.89088-30.97088h16.44544c18.24256 0 32.89088 13.88032 32.89088 30.97088v236.42112c0 34.176 29.55776 61.4144 65.792 61.4144h690.62144c36.36224 0 65.792-27.75552 65.792-62.06464v-235.77088c0-17.09056 14.63296-30.97088 32.89088-30.97088h16.57344c18.24256 0 32.89088 13.88032 32.89088 30.97088v256.19968c-0.00512 68.49024-58.84928 123.99104-131.57888 123.99104zM250.23488 429.44512c8.22272-7.8336 21.71392-7.8336 30.06464 0l190.03904 183.74144V43.86304c0-10.66496 1.664-32.12288 23.77216-32.12288h33.28c24.15104 0 23.89504 21.45792 23.89504 32.12288v569.19552l189.00992-183.73632c8.2176-7.8336 21.71392-7.8336 29.93664 0l30.06464 28.26752c8.2176 7.8336 8.2176 20.42368 0 28.2624l-262.49728 252.98944c-0.64 0.65024-13.88032 8.22784-27.11552 8.22784-13.3632 0-26.8544-7.5776-27.6224-8.22784l-262.7584-252.85632c-8.22272-7.84384-8.22272-20.4288 0-28.26752l29.93152-28.27264z m0 0" p-id="2062"></path></svg>
