<?xml version="1.0" standalone="no"?><!DOCTYPE svg PUBLIC "-//W3C//DTD SVG 1.1//EN" "http://www.w3.org/Graphics/SVG/1.1/DTD/svg11.dtd"><svg t="1576057019589" class="icon" viewBox="0 0 1024 1024" version="1.1" xmlns="http://www.w3.org/2000/svg" p-id="5219" xmlns:xlink="http://www.w3.org/1999/xlink" width="200" height="200"><defs><style type="text/css"></style></defs><path d="M258.99008 562.43712V262.43584a27.27424 27.27424 0 0 1 27.28448-27.28448 27.264 27.264 0 0 1 27.28448 27.28448v253.44512l103.86944-57.3184 155.20768 70.59968 170.63936-176.7424a27.33568 27.33568 0 0 1 38.528-0.72192 27.3408 27.3408 0 0 1 0.72192 38.53312l-197.44768 204.50816-165.376-75.26912-106.2656 58.63936v92.73856h449.34656a27.25888 27.25888 0 0 1 27.27936 27.28448 27.26912 27.26912 0 0 1-27.27936 27.27936H258.99008v-162.97472z m530.95936 339.84512v31.83616c0 35.06176-28.48256 63.54944-63.5392 63.54944H308.89984c-35.06688 0-63.54432-28.48768-63.54432-63.54944v-31.83616h-43.8016a119.53664 119.53664 0 0 1-84.59776-35.05664 119.46496 119.46496 0 0 1-34.944-84.48512V136.89856a119.552 119.552 0 0 1 35.06176-84.59776 119.46496 119.46496 0 0 1 84.48-34.944h632.192a119.552 119.552 0 0 1 84.60288 35.06688 119.8592 119.8592 0 0 1 35.06688 84.59776v645.83168a119.54688 119.54688 0 0 1-35.06688 84.608 119.84384 119.84384 0 0 1-84.60288 35.06688h-43.79648v-0.24576zM201.55392 98.9696a37.54496 37.54496 0 0 0-26.8032 11.13088 38.0672 38.0672 0 0 0-11.13088 26.79808v645.84192c0 10.05568 3.94752 19.74272 11.13088 26.80832a38.0672 38.0672 0 0 0 26.8032 11.12064h632.192a37.58592 37.58592 0 0 0 26.80832-11.12064 38.08768 38.08768 0 0 0 11.12576-26.80832V136.89856a37.9392 37.9392 0 0 0-37.93408-37.92896H201.55392z m0 0" p-id="5220"></path></svg>
