<?xml version="1.0" standalone="no"?><!DOCTYPE svg PUBLIC "-//W3C//DTD SVG 1.1//EN" "http://www.w3.org/Graphics/SVG/1.1/DTD/svg11.dtd"><svg t="1572859013645" class="icon" viewBox="0 0 1024 1024" version="1.1" xmlns="http://www.w3.org/2000/svg" p-id="8399" xmlns:xlink="http://www.w3.org/1999/xlink" width="200" height="200"><defs><style type="text/css"></style></defs><path d="M281.77408 878.43328h74.48064v-68.79744h298.06592v68.79744h74.48064c22.93248 0 34.3296 17.22368 34.3296 34.32448 0 17.2288-17.22368 34.3296-34.3296 34.3296H281.89184c-22.92224 0-34.3296-17.22368-34.3296-34.3296-5.94432-17.09568 11.28448-34.32448 34.21184-34.32448zM103.32672 227.23072v378.25536c0 28.74368 22.92736 51.67104 57.25696 51.67104h704.8192c28.75392 0 57.2672-22.92736 57.2672-51.67104V227.23072c0-28.75392-22.93248-51.68128-57.2672-51.68128H160.57856c-34.3296-5.5808-57.25184 23.17312-57.25184 51.68128zM34.6624 556.83072V178.70336C34.6624 109.92128 54.19008 102.4 128.68096 102.4H896.4608c74.48576 0 94.01344 13.22496 94.01344 76.30336v452.608c0 74.49088-19.52768 99.71712-94.01344 99.71712H128.68096c-74.48576 0-90.50112-28.98432-93.89568-92.8l-0.12288-81.39776z m0 0" p-id="8400"></path></svg>
