<?xml version="1.0" standalone="no"?><!DOCTYPE svg PUBLIC "-//W3C//DTD SVG 1.1//EN" "http://www.w3.org/Graphics/SVG/1.1/DTD/svg11.dtd"><svg t="1572859337747" class="icon" viewBox="0 0 1024 1024" version="1.1" xmlns="http://www.w3.org/2000/svg" p-id="10519" xmlns:xlink="http://www.w3.org/1999/xlink" width="200" height="200"><defs><style type="text/css"></style></defs><path d="M920.33536 629.0432c25.56416-155.76064-37.88288-312.77568-164.48512-407.06048a31.2832 31.2832 0 0 0-31.29856-3.91168 31.27296 31.27296 0 0 0-5.92896 54.15424 359.6032 359.6032 0 0 1 144.80384 288.0256c0 17.72032-1.59744 35.14368-4.09088 52.40832-68.80256 0.15872-124.47232 56.03328-124.37504 124.8512 0.10752 68.80256 55.92576 124.51328 124.73856 124.48256 68.80256-0.03584 124.5696-55.81312 124.5952-124.6208a124.2112 124.2112 0 0 0-63.95904-108.32896zM122.6752 539.2384a31.26784 31.26784 0 0 0 35.10784-26.8544 357.08928 357.08928 0 0 1 236.288-289.52576c24.23296 57.6 87.35744 88.36608 147.65056 71.97696 60.30336-16.38912 99.16416-74.87488 90.91072-136.81664-8.25344-61.94688-61.0816-108.20608-123.5712-108.23168-63.02208 0.13312-115.98848 47.39072-123.24864 109.99296-151.35744 47.488-268.13952 179.70176-289.98656 344.39168a31.232 31.232 0 0 0 26.84928 35.06688z m532.60288 346.43968a349.02016 349.02016 0 0 1-146.304 31.7696c-93.48096 0-180.61824-37.65248-245.48864-100.608 15.50336-20.80256 25.0112-46.32576 25.0112-74.25536-0.02048-68.8384-55.83872-124.63616-124.68736-124.62592-68.8384 0.00512-124.63616 55.808-124.6464 124.65152-0.01024 68.8384 55.7824 124.65664 124.6208 124.68224 18.22208 0 35.4048-4.1216 50.9952-11.13088 76.84096 77.30176 181.53984 123.78624 294.23616 123.78624a412.44672 412.44672 0 0 0 172.28288-37.35552 31.29856 31.29856 0 0 0 15.44192-41.472 31.27808 31.27808 0 0 0-41.46176-15.44192z m0 0" p-id="10520"></path></svg>
