<?xml version="1.0" standalone="no"?><!DOCTYPE svg PUBLIC "-//W3C//DTD SVG 1.1//EN" "http://www.w3.org/Graphics/SVG/1.1/DTD/svg11.dtd"><svg t="1586763008124" class="icon" viewBox="0 0 1024 1024" version="1.1" xmlns="http://www.w3.org/2000/svg" p-id="2874" xmlns:xlink="http://www.w3.org/1999/xlink" width="200" height="200"><defs><style type="text/css"></style></defs><path d="M485.65248 908.43648H245.41184a33.05984 33.05984 0 0 1-33.10592-33.10592V124.928a33.06496 33.06496 0 0 1 33.10592-33.10592H819.2512a33.06496 33.06496 0 0 1 33.10592 33.10592v418.35008h33.10592v-440.4224c-0.10752-24.49408-19.86048-44.25216-44.35968-44.25216H223.45216C199.06048 58.71616 179.2 78.3616 179.2 102.85568v794.54208c0 24.3968 19.75296 44.25728 44.25216 44.25728h262.30784v-33.21856h-0.10752z m0 0" p-id="2875"></path><path d="M311.61856 192.68608h441.4208V225.792H311.61856v-33.10592z m0 165.5296h441.4208v33.10592H311.61856v-33.10592z m0 0M701.82912 604.63616h33.10592v331.0592h-33.10592z" p-id="2876"></path><path d="M552.85248 753.60768h331.0592v33.11104h-331.0592z" p-id="2877"></path></svg>