<?xml version="1.0" standalone="no"?><!DOCTYPE svg PUBLIC "-//W3C//DTD SVG 1.1//EN" "http://www.w3.org/Graphics/SVG/1.1/DTD/svg11.dtd"><svg t="1572859005328" class="icon" viewBox="0 0 1024 1024" version="1.1" xmlns="http://www.w3.org/2000/svg" p-id="8026" xmlns:xlink="http://www.w3.org/1999/xlink" width="200" height="200"><defs><style type="text/css"></style></defs><path d="M119.59808 630.66624h13.15328c3.584 0.0768 6.38464 2.95936 6.38464 6.53824s-2.80064 6.53312-6.38464 6.53312h-13.15328v13.1584a6.54336 6.54336 0 0 1-6.53824 6.37952c-1.71008 0-3.34848-0.62464-4.59264-1.792a6.20032 6.20032 0 0 1-1.9456-4.51584v-13.15328h-13.15328a6.5024 6.5024 0 0 1-6.38464-6.53312c0-3.584 2.80064-6.54336 6.38464-6.54336h13.15328v-13.14816c0.08192-3.584 2.95936-6.38464 6.53824-6.38464s6.53824 2.80064 6.53824 6.38464v13.07648z m858.52672-51.99872v-13.15328c0-1.71008-0.70144-3.34336-1.95072-4.51584a6.36416 6.36416 0 0 0-4.58752-1.792c-3.50208 0-6.46144 2.80064-6.53312 6.38464v13.07648h-13.1584c-1.71008 0-3.34336 0.70656-4.51584 1.9456a6.36928 6.36928 0 0 0-1.792 4.59264c0 3.5072 2.88256 6.53824 6.38464 6.53824h13.15328v13.15328c0 3.57888 2.88256 6.38464 6.53312 6.38464 3.584 0 6.46656-2.80576 6.53824-6.38464v-13.15328h13.15328c3.57888 0 6.38464-2.88256 6.38464-6.53824 0-3.50208-2.80576-6.46144-6.38464-6.53824h-13.22496z m-472.50432 214.60992H178.13504a13.09184 13.09184 0 0 1-9.18528-3.80928 13.0816 13.0816 0 0 1-3.8144-9.18528 13.07648 13.07648 0 0 1 13.0048-12.99968h59.00288a51.31776 51.31776 0 0 1-6.92736-25.92256V363.97568c0-13.77792 5.52448-27.008 15.2576-36.81792 9.728-9.728 23.04-15.1808 36.81792-15.1808h38.99904v-13.07648c0-13.77792 5.5296-27.01312 15.2576-36.81792a52.29056 52.29056 0 0 1 36.81792-15.1808h312.06912a52.1216 52.1216 0 0 1 36.81792 15.1808 51.7376 51.7376 0 0 1 15.25248 36.81792v377.38496c0 9.41568-2.48832 18.28352-6.92736 25.91744h71.92576a12.97408 12.97408 0 0 1 12.99968 13.0048 12.97408 12.97408 0 0 1-12.99968 12.99968h-156.07296v13.07648c0 9.41568-2.48832 18.28864-6.92736 25.92256h7.00416a12.97408 12.97408 0 0 1 12.99968 12.99968 13.07648 13.07648 0 0 1-12.99968 12.99968h-68.42368a25.99936 25.99936 0 0 1-3.968 31.68256 25.984 25.984 0 0 1-18.37056 7.62368 25.7024 25.7024 0 0 1-18.37056-7.62368l-31.75424-31.61088z m47.5648-25.99936h41.32864c14.32064 0 25.92256-11.60192 25.92256-26.07616V363.35104c0-14.08512-11.20768-25.37472-25.1392-25.37472H281.27744c-13.85472 0-25.14432 11.36128-25.14432 25.37472v377.85088c0 14.39744 11.67872 26.07616 25.92256 26.07616h197.48864l-6.69184-6.69696a25.9328 25.9328 0 0 1-6.77376-25.14432l-12.29824-12.29824c-38.21568 28.4928-92.0064 22.65088-123.22304-13.4656-31.21664-36.03968-29.27104-90.0608 4.35712-123.84256 33.78688-33.86368 87.9616-35.8912 124.0832-4.59264 36.1216 31.28832 41.9584 85.23776 13.23008 123.45856l12.29824 12.29312a25.92256 25.92256 0 0 1 25.14432 6.77376l43.51488 43.51488z m93.25056-65.08032h39.15264a26.02496 26.02496 0 0 0 25.92256-25.99936V298.97728a25.9328 25.9328 0 0 0-25.92256-25.99936H373.13024a26.0864 26.0864 0 0 0-25.92256 25.99936v12.99968h247.07584c13.7728 0 27.0848 5.44768 36.8128 15.1808a51.75296 51.75296 0 0 1 15.2576 36.81792v338.22208h0.08192zM187.94496 224.17408h19.3792c5.44768 0 9.88672 4.36224 9.88672 9.728 0 5.376-4.43904 9.73312-9.88672 9.73312h-19.3792v19.38432c0 5.44768-4.36224 9.88672-9.728 9.88672-2.57024 0-5.06368-1.09056-6.93248-2.95936s-2.87744-4.35712-2.80064-6.92736V243.712h-19.38432a10.0864 10.0864 0 0 1-7.00416-2.80576 9.76896 9.76896 0 0 1-2.87744-6.92736c0-5.37088 4.43392-9.73312 9.8816-9.73312h19.38432v-19.456c0-5.4528 4.36224-9.88672 9.73312-9.88672s9.728 4.43392 9.728 9.88672v19.38432zM35.06176 780.27776a13.07136 13.07136 0 0 1 12.99968-12.99968h78.1568a12.97408 12.97408 0 0 1 13.0048 12.99968 13.07648 13.07648 0 0 1-13.0048 12.99456H48.06144a13.1072 13.1072 0 0 1-9.18528-3.80928 12.7744 12.7744 0 0 1-3.8144-9.18528z m410.22976-84.0704c25.37472-25.3696 25.37472-66.55488 0-92.01152-25.37984-25.3696-66.56-25.3696-92.01152 0-25.37984 25.37984-25.37984 66.56 0 92.01152 25.45664 25.37984 66.6368 25.37984 92.01152 0zM308.21376 390.05696a13.02016 13.02016 0 0 1 12.99968-12.99968h143.07328c7.16288 0 12.99968 5.8368 12.99968 12.99968s-5.8368 12.99968-12.99968 12.99968H321.21344a12.77952 12.77952 0 0 1-9.1904-3.81952 13.07648 13.07648 0 0 1-3.80928-9.18016z m0 64.9984a12.95872 12.95872 0 0 1 12.91776-13.0048h208.3072a12.91264 12.91264 0 0 1 12.91776 13.0048 12.9536 12.9536 0 0 1-12.91776 12.99456H321.13152c-3.42528 0-6.76864-1.39264-9.18528-3.80928s-3.73248-5.76-3.73248-9.18528z m0 65.0752a13.02016 13.02016 0 0 1 12.99968-12.99968h91.07456a12.97408 12.97408 0 0 1 12.99968 12.99968 13.02528 13.02528 0 0 1-12.99968 12.99968H321.21344a12.8 12.8 0 0 1-9.1904-3.8144 13.09696 13.09696 0 0 1-3.80928-9.18528z m-247.15264-78.08a39.00416 39.00416 0 0 1-33.78688-19.5328 38.81984 38.81984 0 0 1 0-38.99904 39.10656 39.10656 0 0 1 33.78688-19.53792 38.97344 38.97344 0 0 1 38.99904 38.99904c0.0768 21.63712-17.43872 39.07072-38.99904 39.07072z m0-19.53792a19.54304 19.54304 0 0 0 16.89088-9.728 19.4816 19.4816 0 0 0 0-19.53792 19.47136 19.47136 0 0 0-16.89088-9.728 19.54304 19.54304 0 0 0-19.53792 19.53792 19.584 19.584 0 0 0 19.53792 19.456z m806.528-58.53696a39.0144 39.0144 0 0 1-33.78688-19.53792 38.79424 38.79424 0 0 1 0-38.99904 39.08608 39.08608 0 0 1 33.78688-19.53792 38.9632 38.9632 0 0 1 38.99904 38.99904 38.98368 38.98368 0 0 1-38.99904 39.07584z m0-19.46112a19.54816 19.54816 0 0 0 16.89088-9.728 19.456 19.456 0 0 0 0-19.53792 19.47136 19.47136 0 0 0-16.89088-9.728 19.54816 19.54816 0 0 0-19.53792 19.53792c0 10.65984 8.79616 19.456 19.53792 19.456z m0 0" fill="#8A96A3" p-id="8027"></path></svg>
