<?xml version="1.0" standalone="no"?><!DOCTYPE svg PUBLIC "-//W3C//DTD SVG 1.1//EN" "http://www.w3.org/Graphics/SVG/1.1/DTD/svg11.dtd"><svg t="1572858799167" class="icon" viewBox="0 0 1024 1024" version="1.1" xmlns="http://www.w3.org/2000/svg" p-id="6658" xmlns:xlink="http://www.w3.org/1999/xlink" width="200" height="200"><defs><style type="text/css"></style></defs><path d="M235.6224 511.77984c0 152.92928 123.97056 276.90496 276.89984 276.90496 152.9344 0 276.90496-123.97568 276.90496-276.90496s-123.97568-276.90496-276.90496-276.90496S235.6224 358.84544 235.6224 511.77984z m0 0M512.52224 175.232c-17.03424 0-29.81888-12.78464-29.81888-29.81888V51.69152c0-17.03936 12.78464-29.81888 29.81888-29.81888 17.03936 0 29.824 12.78464 29.824 29.81888v93.7216c0 17.03936-12.78464 29.81888-29.824 29.81888z m0 822.19008c-17.03424 0-29.81888-12.77952-29.81888-29.81888v-93.72672c0-17.03424 12.78464-29.81888 29.81888-29.81888 17.03936 0 29.824 12.78464 29.824 29.81888v93.72672c0 17.03936-12.78464 29.81888-29.824 29.81888z m336.54784-485.64224c0-17.03936 12.7744-29.824 29.81888-29.824h93.71136c17.0496 0 29.824 12.78464 29.824 29.824 0 17.03936-12.7744 29.81888-29.824 29.81888h-93.71136c-17.04448-0.00512-29.81888-12.78464-29.81888-29.81888z m-826.45504 0c0-17.03936 12.78464-29.824 29.81888-29.824h93.7216c17.03936 0 29.81888 12.78464 29.81888 29.824 0 17.03936-12.78464 29.81888-29.81888 29.81888H52.43904c-17.03936-0.00512-29.824-12.78464-29.824-29.81888z m724.20864-230.04672c-12.78464-12.78464-12.78464-29.824 0-42.60352l63.8976-63.8976c12.77952-12.78464 29.81888-12.78464 42.59328 0 12.78464 12.78464 12.78464 29.81888 0 42.60352l-63.89248 63.8976c-12.77952 12.77952-34.07872 12.77952-42.5984 0zM163.2 865.36192c-12.7744-12.78464-12.7744-29.824 0-42.5984l63.8976-63.90272c12.77952-12.7744 29.824-12.7744 42.60352 0 12.78464 12.78464 12.78464 29.824 0 42.60864l-63.90272 63.89248c-8.51968 8.51456-29.81888 8.51456-42.5984 0z m583.62368-106.50624c12.77952-12.7744 29.81376-12.7744 42.60352 0l63.89248 63.90272c12.78464 12.7744 12.78464 29.81376 0 42.5984-12.7744 12.7744-29.81376 12.7744-42.59328 0l-63.8976-63.89248c-12.78976-12.78464-12.78976-29.824-0.00512-42.60864zM158.94016 175.232c12.7744-12.78464 29.81888-12.78464 42.59328 0l63.90272 63.8976c12.77952 12.77952 12.77952 29.824 0 42.60352-12.78464 12.77952-29.81888 12.77952-42.60352 0l-63.89248-63.8976c-12.77952-12.78464-12.77952-34.08384 0-42.60352z m0 0" p-id="6659"></path></svg>
