<?xml version="1.0" standalone="no"?><!DOCTYPE svg PUBLIC "-//W3C//DTD SVG 1.1//EN" "http://www.w3.org/Graphics/SVG/1.1/DTD/svg11.dtd"><svg t="1572859325803" class="icon" viewBox="0 0 1024 1024" version="1.1" xmlns="http://www.w3.org/2000/svg" p-id="9769" xmlns:xlink="http://www.w3.org/1999/xlink" width="200" height="200"><defs><style type="text/css"></style></defs><path d="M658.87232 251.1104H324.67968V154.88512c0-35.0208-24.1152-48.18944-53.57056-29.28128L91.82208 240.61952c-29.51168 18.90816-29.51168 49.82784 0 68.71552L271.104 424.3712c29.47584 18.9184 53.57056 5.71392 53.57056-29.30176V314.77248h318.26432c175.7952 0 270.53056 78.83264 270.53056 254.60224 0 133.34016-52.28544 254.60224-270.53056 254.60224H197.376c-0.2048 0-0.37888 0.12288-0.58368 0.14848-0.47616-0.0256-0.93184-0.14848-1.41312-0.14848-21.97504 0-39.77216 17.82272-39.77216 39.79264s17.80224 39.77216 39.77216 39.77216c0.47616 0 0.93696-0.12288 1.41312-0.14848 0.2048 0 0.37888 0.14848 0.58368 0.14848h461.4912c175.79008 0 318.26432-110.65856 318.26432-286.43328v-95.46752c0.00512-175.7952-142.46912-270.53056-318.2592-270.53056z m0 0" p-id="9770"></path></svg>
