<?xml version="1.0" standalone="no"?><!DOCTYPE svg PUBLIC "-//W3C//DTD SVG 1.1//EN" "http://www.w3.org/Graphics/SVG/1.1/DTD/svg11.dtd"><svg t="1572859002843" class="icon" viewBox="0 0 1024 1024" version="1.1" xmlns="http://www.w3.org/2000/svg" p-id="7902" xmlns:xlink="http://www.w3.org/1999/xlink" width="200" height="200"><defs><style type="text/css"></style></defs><path d="M508.72832 53.5552l212.93568 174.3872 0.1536-87.92064 152.18176 0.14336 0.384 210.06848 126.09536 133.59104-33.88416 36.21376-169.03168-183.82336 28.82048-12.46208 1.09568-136.92416-59.07456 0.0768-0.4352 122.82368-44.40576-17.16736L507.2896 116.9408 44.7232 520.0384l-30.38208-36.21376 494.3872-430.26944zM138.7776 980.97664h258.79552l0.38912-263.47008 217.32352-0.38912 0.77824 263.8592h258.21696v-406.33856h-46.73024v360.18688H662.2208V669.5936l-311.37792 0.5888v264.64256H185.51296v-360.18688h-46.73536v406.33856z m0 0" p-id="7903"></path></svg>
