<?xml version="1.0" standalone="no"?><!DOCTYPE svg PUBLIC "-//W3C//DTD SVG 1.1//EN" "http://www.w3.org/Graphics/SVG/1.1/DTD/svg11.dtd"><svg t="1576057012857" class="icon" viewBox="0 0 1024 1024" version="1.1" xmlns="http://www.w3.org/2000/svg" p-id="4970" xmlns:xlink="http://www.w3.org/1999/xlink" width="200" height="200"><defs><style type="text/css"></style></defs><path d="M703.54432 927.15008V323.83488H333.4912v603.3152h370.05312zM426.03008 55.59808H333.4912c-50.80576-0.05632-92.12416 40.92416-92.48256 91.72992v779.82208c0 50.45248 41.6256 91.72992 92.48256 91.72992h370.05312c50.80576 0.05632 92.12928-40.92416 92.48768-91.72992V147.328c0-50.45248-41.6256-91.72992-92.48768-91.72992h-92.53376c0-25.22624-20.79232-45.86496-46.21824-45.86496H472.25344a46.22336 46.22336 0 0 0-46.22336 45.92128v-0.05632z m46.22336 45.92128h231.29088c25.43104 0 46.22336 20.58752 46.22336 45.80864v779.82208c0 25.22624-20.79744 45.86496-46.22336 45.86496H333.4912a46.21824 46.21824 0 0 1-46.21312-45.92128V147.38432c0-25.23136 20.7872-45.86496 46.21312-45.86496h138.76224z m0 0" p-id="4971"></path></svg>
