<?xml version="1.0" standalone="no"?><!DOCTYPE svg PUBLIC "-//W3C//DTD SVG 1.1//EN" "http://www.w3.org/Graphics/SVG/1.1/DTD/svg11.dtd"><svg t="1577416597933" class="icon" viewBox="0 0 1024 1024" version="1.1" xmlns="http://www.w3.org/2000/svg" p-id="5080" xmlns:xlink="http://www.w3.org/1999/xlink" width="200" height="200"><defs><style type="text/css"></style></defs><path d="M407.32672 48.47616h-330.3424A46.26944 46.26944 0 0 0 30.72 94.74048v330.33728a46.26432 46.26432 0 0 0 46.26944 46.26432h330.3424a46.26432 46.26432 0 0 0 46.26432-46.26432V94.74048a46.27456 46.27456 0 0 0-46.26944-46.26432z m0 377.52832l-330.3424-0.9216v-330.3424h330.3424v331.264z m0 0M909.7728 48.47616h-330.33728a46.26944 46.26944 0 0 0-46.26944 46.26944v330.33728a46.26432 46.26432 0 0 0 46.26944 46.26432h330.33728a46.26432 46.26432 0 0 0 46.26432-46.26432v-330.3424c0.00512-25.5488-20.7104-46.26432-46.26432-46.26432z m0 377.52832h-330.33728V95.6672h330.33728v330.33728z m0 0M407.32672 550.46144h-330.3424a46.26944 46.26944 0 0 0-46.26944 46.26432v330.8032a46.26944 46.26944 0 0 0 46.26944 46.26432h330.3424a46.26944 46.26944 0 0 0 46.26432-46.26432v-330.3424a46.26944 46.26944 0 0 0-46.26432-46.26432v-0.4608z m0 377.06752h-330.3424v-330.3424h331.264l-0.9216 330.3424z m0 0M909.7728 550.46144h-330.33728a46.26944 46.26944 0 0 0-46.26944 46.26432v330.8032a46.26944 46.26944 0 0 0 46.26944 46.26432h330.33728a46.26944 46.26944 0 0 0 46.26432-46.26432v-330.3424a46.26944 46.26944 0 0 0-46.26432-46.26432v-0.4608z m0 377.06752h-331.264v-330.3424h331.264v330.3424z m0 0" p-id="5081"></path></svg>
