<?xml version="1.0" standalone="no"?><!DOCTYPE svg PUBLIC "-//W3C//DTD SVG 1.1//EN" "http://www.w3.org/Graphics/SVG/1.1/DTD/svg11.dtd"><svg t="1576057029187" class="icon" viewBox="0 0 1024 1024" version="1.1" xmlns="http://www.w3.org/2000/svg" p-id="5467" xmlns:xlink="http://www.w3.org/1999/xlink" width="200" height="200"><defs><style type="text/css"></style></defs><path d="M560.09728 800.86016c-16.51712 1.26976-30.48448-11.42784-31.75424-27.95008v-195.59936c-1.26976-16.52224 11.42784-30.4896 27.93984-31.75936h175.2832c17.78688 0 31.75424 13.97248 31.75424 31.75936v191.79008c1.27488 16.52224-11.42784 30.4896-27.93984 31.75936h-175.2832z m-1.27488-29.21984h175.28832V574.7712h-175.28832v196.86912z m-271.81568 29.21984c-16.51712 1.26976-30.4896-11.42784-31.75424-27.95008v-195.59936c-1.27488-16.52224 11.42784-30.4896 27.94496-31.75936h175.2832c17.78176 0 31.75424 13.97248 31.75424 31.75936v191.79008c1.26976 16.52224-11.43296 30.4896-27.94496 31.75936H287.00672z m-2.53952-29.21984h175.2832V574.7712H284.4672v196.86912z m2.53952-264.192c-16.51712 1.26976-30.4896-11.43296-31.75424-27.94496V324.54144c-1.27488-16.51712 11.42784-30.48448 27.94496-31.75424h448.36864c17.78688 0 31.75424 13.97248 31.75424 31.75424V474.4192c1.27488 16.51712-11.42784 30.47936-27.93984 31.75424h-3.8144l-444.55936 1.27488z m-2.53952-30.48448h449.64352V321.9968H284.4672v154.96704z m0 0" p-id="5468"></path></svg>
