<?xml version="1.0" standalone="no"?><!DOCTYPE svg PUBLIC "-//W3C//DTD SVG 1.1//EN" "http://www.w3.org/Graphics/SVG/1.1/DTD/svg11.dtd"><svg t="1577416574267" class="icon" viewBox="0 0 1024 1024" version="1.1" xmlns="http://www.w3.org/2000/svg" p-id="4707" xmlns:xlink="http://www.w3.org/1999/xlink" width="200" height="200"><defs><style type="text/css"></style></defs><path d="M498.06336 333.36832H63.8464c-18.26304 0-33.22368 12.51328-33.22368 27.89888 0 15.39584 14.96064 27.904 33.22368 27.904h434.21696c18.26304 0 33.22368-12.50816 33.22368-27.904 0-15.3856-14.96064-27.89888-33.22368-27.89888z m0 0M498.06336 580.46464H63.8464c-18.26304 0-33.22368 12.51328-33.22368 27.89888 0 15.39584 14.96064 27.904 33.22368 27.904h434.21696c18.26304 0 33.22368-12.50816 33.22368-27.904 0-15.3856-14.96064-27.89888-33.22368-27.89888z m0 0M497.4848 827.70944H64.41984c-18.69312 0-33.80224 12.50816-33.80224 27.89888 0 15.3856 15.104 27.904 33.80224 27.904h433.06496c18.69312 0 33.80224-12.5184 33.80224-27.904 0-15.39072-15.10912-27.89888-33.80224-27.89888z m0 0M64.41984 141.78816H942.4896c18.69312 0 33.80224-12.51328 33.80224-27.904 0-15.3856-15.104-27.89888-33.80224-27.89888H64.41984c-18.69312 0-33.80224 12.51328-33.80224 27.89888 0 15.39584 15.10912 27.904 33.80224 27.904z m0 0M714.52672 478.91968h107.15136v362.30656c0 18.26816 12.51328 33.21856 27.89888 33.21856s27.904-14.9504 27.904-33.21856V478.91968h107.15136c16.82944 0 25.03168-4.45952 26.60864-7.62368 1.29536-2.5856-0.14336-10.78272-9.34912-22.14912l-117.36576-146.69824c-9.64096-12.0832-22.00576-18.69824-34.94912-18.69824s-25.31328 6.61504-34.944 18.69824l-117.36576 146.69824c-9.06752 11.3664-10.50624 19.56352-9.21088 22.14912 1.30048 3.16416 9.63584 7.62368 26.4704 7.62368z m0 0" p-id="4708"></path></svg>
