<?xml version="1.0" standalone="no"?><!DOCTYPE svg PUBLIC "-//W3C//DTD SVG 1.1//EN" "http://www.w3.org/Graphics/SVG/1.1/DTD/svg11.dtd"><svg t="1572859053130" class="icon" viewBox="0 0 1024 1024" version="1.1" xmlns="http://www.w3.org/2000/svg" p-id="9394" xmlns:xlink="http://www.w3.org/1999/xlink" width="200" height="200"><defs><style type="text/css"></style></defs><path d="M516.02432 983.24992c-256.8448 0-466.2272-209.38752-466.2272-469.0176 0-259.64032 209.3824-466.2272 466.2272-466.2272s466.2272 209.3824 466.2272 466.2272-206.592 469.0176-466.2272 469.0176z m0-890.57792c-231.71584 0-421.5552 189.83936-421.5552 421.5552 0 231.72096 189.83936 421.56544 421.55008 421.56544 231.72096 0 421.57056-189.84448 421.57056-421.56032 0-231.72608-187.0592-421.56032-421.56544-421.56032z m0 0" p-id="9395"></path><path d="M516.02432 997.20704C250.80832 997.20704 35.84 779.4432 35.84 514.23232 35.84 249.0112 250.80832 34.04288 516.0192 34.04288c265.22112 0 482.97984 214.96832 482.97984 480.18432 0 265.216-217.75872 482.97984-482.97472 482.97984z m0-935.2448c-251.25888 0-452.26496 203.8016-452.26496 452.27008 0 251.25888 203.8016 452.26496 452.26496 452.26496 251.264 0 452.26496-203.8016 452.26496-452.26496 2.80064-248.4736-201.00096-452.27008-452.26496-452.27008z m0 890.57792c-240.09216 0-435.51744-195.42528-435.51744-435.52256 0-240.09216 195.42528-435.51744 435.51744-435.51744 240.09728 0 435.52256 195.42528 435.52256 435.51744 2.79552 240.09728-192.63488 435.52256-435.52256 435.52256z m0-845.91104c-223.34464 0-407.59808 184.25344-407.59808 407.59808 0 226.13504 184.25856 407.59808 407.59808 407.59808 226.13504 0 407.6032-184.25344 407.6032-407.59808 2.7904-223.34464-181.46816-407.59808-407.6032-407.59808z m0 0" p-id="9396"></path><path d="M552.32 514.23232l181.45792-181.46816c8.38144-8.37632 8.38144-25.12896 0-33.50528h-2.7904c-8.38144-8.3712-25.12896-8.3712-33.50016 0l-181.46816 181.47328-178.66752-181.47328c-11.17184-8.3712-25.12896-8.3712-33.50016 0l-2.79552 2.7904c-8.37632 8.37632-8.37632 25.12896 0 33.50528l181.46816 178.66752L301.056 695.69536c-8.37632 8.3712-8.37632 25.12384 0 33.50016l2.78528 2.7904c8.38144 8.38144 25.12896 8.38144 33.50528 0l181.46816-181.46304 181.45792 181.46304c8.38144 8.38144 25.12896 8.38144 33.50016 0l2.80064-2.7904c8.3712-8.37632 8.3712-25.12896 0-33.50016l-184.25344-181.46304z m0 0" p-id="9397"></path></svg>
