<?xml version="1.0" standalone="no"?><!DOCTYPE svg PUBLIC "-//W3C//DTD SVG 1.1//EN" "http://www.w3.org/Graphics/SVG/1.1/DTD/svg11.dtd"><svg t="1577417074936" class="icon" viewBox="0 0 1024 1024" version="1.1" xmlns="http://www.w3.org/2000/svg" p-id="5824" xmlns:xlink="http://www.w3.org/1999/xlink" width="200" height="200"><defs><style type="text/css"></style></defs><path d="M910.5664 565.4272c-42.30656-74.07616-16.72704-169.46176 56.9088-212.62336l13.33248-7.7824-102.73792-180.00896-13.53216 8.10496a150.70208 150.70208 0 0 1-76.9536 21.09952c-84.51584 0-153.25696-70.12352-153.25696-156.34432v-15.6672H428.52352l0.10752 15.6672a155.01824 155.01824 0 0 1-20.45952 78.336c-13.75232 23.97184-33.46432 43.8016-57.12384 57.22624-46.464 26.54208-106.25536 26.21952-152.93952-0.95744l-13.53216-7.88992-102.85056 180.11136 13.42464 7.78752c23.56224 13.53216 43.0592 33.24928 56.59136 56.91392 20.46976 35.9168 25.79456 77.69088 15.13984 117.76-10.65984 40.07936-36.13184 73.64608-71.7312 94.6432l-13.21472 7.7824 102.73792 179.89632 13.53728-7.9872a151.00416 151.00416 0 0 1 76.62592-20.89472c40.71424 0 79.0784 16.09728 108.06784 45.40416 28.98944 29.30688 45.08672 68.41856 45.18912 110.08512l0.10752 15.4624h205.696v-15.55968a155.58656 155.58656 0 0 1 20.45952-77.58336 154.0608 154.0608 0 0 1 57.12384-57.2416c46.35648-26.42944 105.9328-26.3168 152.61696 0.74752l13.53728 7.7824 102.7328-179.90656-13.41952-7.7824c-23.4496-13.42976-42.84928-33.03424-56.38144-56.58112z m-307.36384 355.0976H458.47552a188.28288 188.28288 0 0 0-53.504-116.37248c-34.74432-35.28192-80.9984-54.6816-130.12992-54.6816-27.06944 0-54.13888 6.07232-78.4384 17.80736l-72.46848-127.04256c35.80928-25.26208 61.70624-62.35136 73.10848-105.19552 12.78976-48.07168 6.39488-98.1504-18.2272-141.2096a187.09504 187.09504 0 0 0-54.9888-60.21632l72.46848-126.94016c53.81632 25.47712 118.83008 22.91712 170.09664-6.28736 28.56448-16.19968 52.33152-40.07424 68.74112-68.84864a186.19392 186.19392 0 0 0 23.98208-78.33088h144.61952c7.7824 96.87552 87.5008 171.90912 183.84384 171.90912a182.18496 182.18496 0 0 0 78.86336-18.01216l72.4736 126.92992c-78.8736 55.31648-103.2704 162.42688-55.31648 246.62016 13.53216 23.76704 32.29696 44.4416 54.55872 59.89888l-72.46336 127.03744c-53.71392-25.36448-118.61504-22.7072-169.67168 6.4a184.36096 184.36096 0 0 0-68.74112 68.84352 189.16864 189.16864 0 0 0-24.07936 77.69088z m0 0" fill="#333333" p-id="5825"></path><path d="M726.72256 486.87616c0-108.92288-87.7056-197.48864-195.34848-197.48864S336.01536 377.95328 336.01536 486.87616c0 108.91264 87.7056 197.4784 195.3536 197.4784s195.3536-88.56576 195.3536-197.4784z m-195.45088 166.35904c-90.59328 0-164.23936-74.5984-164.23936-166.35904 0-91.75552 73.64608-166.36928 164.23936-166.36928 90.58304 0 164.224 74.60864 164.224 166.36928s-73.64096 166.35904-164.224 166.35904z m0 0" fill="#333333" p-id="5826"></path></svg>
