<?xml version="1.0" standalone="no"?><!DOCTYPE svg PUBLIC "-//W3C//DTD SVG 1.1//EN" "http://www.w3.org/Graphics/SVG/1.1/DTD/svg11.dtd"><svg t="1572858999826" class="icon" viewBox="0 0 1024 1024" version="1.1" xmlns="http://www.w3.org/2000/svg" p-id="7777" xmlns:xlink="http://www.w3.org/1999/xlink" width="200" height="200"><defs><style type="text/css"></style></defs><path d="M472.32 712.1408a26.27584 26.27584 0 0 1-8.448 0 27.55584 27.55584 0 0 1-19.09248-26.28608v-119.84896H384.0768a27.5456 27.5456 0 0 1-24.72448-15.65184 27.8528 27.8528 0 0 1 2.50368-29.10208l153.64608-202.7776a27.8528 27.8528 0 0 1 31.29856-9.07264 27.53024 27.53024 0 0 1 17.20832 28.78464l-12.2112 111.7184h70.09792a27.53536 27.53536 0 1 1 22.2208 44.12416L492.032 700.8768a28.17024 28.17024 0 0 1-19.712 11.264z m-52.57728-190.88384h41.9328a27.84768 27.84768 0 0 1 27.84768 27.84768v84.49024l101.69856-138.3168h-56.32512a27.52 27.52 0 0 1-27.53536-31.28832l7.51104-69.7856-95.1296 127.0528z m0 0" fill="#333333" p-id="7778"></path><path d="M587.79136 1009.11104H419.11808a23.47008 23.47008 0 0 1-23.46496-22.2208l-7.19872-102.95296a391.7056 391.7056 0 0 1-151.1424-87.936l-93.88032 45.69088a24.0896 24.0896 0 0 1-15.3344 1.56672 22.53824 22.53824 0 0 1-14.08-10.9568L28.89728 686.17216a22.87616 22.87616 0 0 1-2.50368-17.52576 23.42912 23.42912 0 0 1 9.7024-13.76768l85.74464-57.89184a400.62464 400.62464 0 0 1 0-175.24736L36.096 364.16a23.15264 23.15264 0 0 1-7.19872-31.28832l84.17792-145.82272a23.7824 23.7824 0 0 1 31.29344-9.38496l90.74688 44.43648A395.13088 395.13088 0 0 1 388.7616 132.9152l6.89152-100.4544A23.77728 23.77728 0 0 1 419.11808 10.24h168.66816a23.7824 23.7824 0 0 1 23.47008 22.2208l6.88128 98.57024a407.66976 407.66976 0 0 1 38.8096 14.08l-17.20832 40.99584a296.2944 296.2944 0 0 0-34.432-12.20096 97.54624 97.54624 0 0 0-13.76768-3.75808 23.46496 23.46496 0 0 1-17.52064-21.27872L567.4496 54.9888H438.84032l-6.57408 93.8752a23.48032 23.48032 0 0 1-17.20832 20.97152 351.31904 351.31904 0 0 0-158.96576 93.88032 23.79776 23.79776 0 0 1-27.22816 4.68992l-86.99392-41.61536-64.47104 111.39584L159.3856 392.94976a22.84032 22.84032 0 0 1 9.39008 25.34912 360.91904 360.91904 0 0 0-12.5184 90.12736 348.9024 348.9024 0 0 0 12.5184 91.99616 23.79776 23.79776 0 0 1-9.7024 25.66656l-81.67936 55.07072 64.46592 111.7184 89.18016-43.1872a23.78752 23.78752 0 0 1 26.91584 4.3776 346.03008 346.03008 0 0 0 156.4672 91.0592 23.79264 23.79264 0 0 1 17.20832 20.97152l6.88128 98.57024h129.23904l6.89152-97.32096a23.4752 23.4752 0 0 1 17.52064-21.27872 350.71488 350.71488 0 0 0 159.27808-90.752 23.47008 23.47008 0 0 1 26.5984-4.3776l86.6816 41.9328 64.77824-111.7184-78.85824-53.19168a23.16288 23.16288 0 0 1-9.39008-25.66656 354.26304 354.26304 0 0 0 12.83072-93.8752 361.20064 361.20064 0 0 0-12.20096-91.68896 24.10496 24.10496 0 0 1 9.38496-25.66656l78.2336-52.56704-64.46592-111.71328-84.49024 40.6784a23.48032 23.48032 0 0 1-26.5984-4.69504 348.15488 348.15488 0 0 0-62.58688-51.01056l23.7824-37.8624a403.37408 403.37408 0 0 1 62.592 46.93504l88.55552-43.18208a23.77728 23.77728 0 0 1 31.29344 9.38496l84.1728 146.14016a22.8352 22.8352 0 0 1 2.50368 17.52064 25.01632 25.01632 0 0 1-10.0096 13.76768L892.5696 419.53792a402.21184 402.21184 0 0 1 6.56896 88.87296c0.09216 30.7712-3.4816 61.44-10.63424 91.37152l82.61632 55.7056a23.17312 23.17312 0 0 1 7.19872 31.29344l-84.17792 146.12992a23.78752 23.78752 0 0 1-31.29856 9.3952l-90.74688-44.43648a394.5216 394.5216 0 0 1-153.96352 87.92576l-6.88128 101.70368a23.7824 23.7824 0 0 1-23.7824 21.90336l0.32256-0.29184z m0 0" fill="#333333" p-id="7779"></path></svg>
