<?xml version="1.0" standalone="no"?><!DOCTYPE svg PUBLIC "-//W3C//DTD SVG 1.1//EN" "http://www.w3.org/Graphics/SVG/1.1/DTD/svg11.dtd"><svg t="1577777136315" class="icon" viewBox="0 0 1024 1024" version="1.1" xmlns="http://www.w3.org/2000/svg" p-id="2777" xmlns:xlink="http://www.w3.org/1999/xlink" width="200" height="200"><defs><style type="text/css"></style></defs><path d="M476.52864 113.4592c-88.79104 0-160.77312 71.99232-160.77312 160.77312 0 88.79616 71.9872 160.77312 160.77312 160.77312s160.77312-71.97696 160.77312-160.77312c0.00512-88.7808-71.9872-160.77312-160.77312-160.77312z m-0.64512 536.0128S244.74112 391.87968 244.74112 264.22784c0-127.65184 103.49056-231.14752 231.1424-231.14752 127.66208 0 231.14752 103.5008 231.14752 231.14752 0.00512 127.65184-231.14752 385.24416-231.14752 385.24416z m0-308.1984c-42.55232 0-77.04576-34.49344-77.04576-77.04576 0-42.55744 34.49344-77.05088 77.04576-77.05088 42.56256 0 77.056 34.49344 77.056 77.05088 0 42.5472-34.49344 77.04576-77.056 77.04576z m320.36352 42.22976l80.2048-28.672v427.21792s-164.41344 48.80384-253.47584 73.84576l-311.25504-87.32672-207.9744 70.76864V413.9776l77.03552-21.02272c-2.21184-12.88192-3.11808-45.63456-3.11808-59.35616L44.0832 364.46208v557.24544l44.53376-14.54592 222.88896-72.39168 311.46496 87.2192 311.71584-87.2704V277.4272l-134.2208 37.27872c-0.86528 15.03232-1.23392 45.9008-4.21888 68.79744z m0 0" p-id="2778"></path></svg>
