<?xml version="1.0" standalone="no"?><!DOCTYPE svg PUBLIC "-//W3C//DTD SVG 1.1//EN" "http://www.w3.org/Graphics/SVG/1.1/DTD/svg11.dtd"><svg t="1572858809832" class="icon" viewBox="0 0 1024 1024" version="1.1" xmlns="http://www.w3.org/2000/svg" p-id="7030" xmlns:xlink="http://www.w3.org/1999/xlink" width="200" height="200"><defs><style type="text/css"></style></defs><path d="M159.36512 337.2288c11.47392-120.3712 114.24256-214.58432 239.39072-214.58432 109.0816 0 201.08288 71.60832 230.528 169.68704 120.00768 3.77856 216.18176 100.57728 216.18176 219.74528a216.6272 216.6272 0 0 1-17.17248 84.66944l-0.03584-0.04096c-7.89504 16.52736-27.66848 23.88992-44.6976 16.65024-17.00352-7.2192-25.14432-26.44992-18.37568-43.45856l-0.01536-0.01024-0.6144 0.47104a148.82816 148.82816 0 0 0 12.17024-58.28096c0.31232-82.3296-66.11456-149.82144-149.632-152.064l-7.00416-0.21504c-84.31616 1.09056-152.6016 68.93568-152.6016 152.2944 0 18.70848-15.39072 33.85856-34.35008 33.85856-18.98496 0-34.37568-15.15008-34.37568-33.85856 0-100.17792 67.95776-184.6016 160.896-211.23072-24.71936-65.5616-89.2672-110.48448-160.896-110.48448-88.68352-0.38912-162.92352 66.14528-170.98752 153.1904l-4.14208 43.35104-41.68704 14.27968c-55.29088 18.90304-92.35968 70.17984-92.45184 127.81568 0 74.69568 61.6704 135.46496 137.46176 135.46496h137.46176c18.9696 0 34.36032 15.16032 34.36032 33.84832 0 18.70848-15.39072 33.87392-34.36032 33.87392H226.9184c-113.8688 0-206.16192-90.98752-206.16192-203.19744 0.00512-88.84224 57.984-164.17792 138.60864-191.77472z m0 0" fill="#AABAD6" p-id="7031"></path><path d="M226.9184 732.20608h137.46176c18.9696 0 34.37568-15.16544 34.37568-33.87392 0-18.688-15.40608-33.84832-34.37568-33.84832H226.9184c-75.75552 0-137.44128-60.76928-137.44128-135.46496 0.10752-57.63584 37.16096-108.90752 92.43648-127.81568l41.71776-14.27968 4.12672-43.35104c8.0384-87.04512 82.28352-153.56416 170.96704-153.1904 71.64928 0 136.20736 44.92288 160.92672 110.48448-92.93312 26.63424-160.92672 111.0528-160.92672 211.23072 0 18.70848 15.40608 33.85856 34.37568 33.85856 18.96448 0 34.36544-15.15008 34.36544-33.85856 0-83.3536 68.27008-151.20384 152.58624-152.2944l7.01952 0.21504c83.51744 2.24256 149.92896 69.74976 149.65248 152.064a149.13536 149.13536 0 0 1-12.20096 58.28096l0.60928-0.47104 0.03584 0.01024c-6.784 17.00864 1.3568 36.23936 18.3552 43.45856 17.02912 7.22944 36.80768-0.12288 44.71808-16.65024l0.01536 0.04096a216.5248 216.5248 0 0 0 17.18272-84.66944c0-119.168-96.1792-215.96672-216.192-219.74528-29.44-98.07872-121.4464-169.68704-230.528-169.68704-125.14816 0-227.88608 94.208-239.37536 214.58432-80.60928 27.5968-138.58816 102.93248-138.58816 191.78496 0.00512 112.20992 92.32384 203.1872 206.16192 203.1872z m0 0" p-id="7032"></path><path d="M625.08032 731.70944c-11.36128-13.89568-25.4464-20.8384-42.17344-20.8384-7.3472 0-14.1824 1.34656-20.44416 4.01408a50.15552 50.15552 0 0 0-16.21504 10.91584c-4.51072 4.608-8.0384 10.08128-10.63424 16.44544-2.6112 6.35904-3.89632 13.21472-3.89632 20.57728 0 7.53152 1.28512 14.46912 3.89632 20.83328a50.14016 50.14016 0 0 0 26.96192 27.60192c6.17984 2.66752 12.87168 4.00896 20.06016 4.00896 15.744 0 29.89568-6.69696 42.4448-20.08064v58.24l-5.02272 1.76128c-7.5264 2.66752-14.5664 4.63872-21.09952 5.89824a102.9632 102.9632 0 0 1-19.30752 1.88416c-13.04576 0-25.5744-2.46784-37.51424-7.41376a97.79712 97.79712 0 0 1-31.63648-20.81792c-9.13408-8.96-16.43008-19.57888-21.9648-31.88736-5.5296-12.28288-8.2688-25.728-8.2688-40.28416 0-14.54592 2.688-27.88864 8.15616-40.0128 5.44768-12.1344 12.6976-22.6048 21.82656-31.3856a99.71712 99.71712 0 0 1 31.77472-20.57216 98.7648 98.7648 0 0 1 37.90848-7.41376c7.52128 0 14.8992 0.81408 22.20544 2.39616 7.2704 1.5872 14.90432 4.04992 22.94272 7.39328v58.73664z m25.36448 31.38048c0-14.07488 2.56512-27.15648 7.78752-39.29088 5.17632-12.11904 12.35968-22.72256 21.5808-31.744 9.20064-9.04192 20.17792-16.09216 33.01376-21.19168 12.79488-5.12 26.90048-7.68 42.27072-7.68 15.25248 0 29.29152 2.56 42.20416 7.68 12.88192 5.09952 23.95648 12.14976 33.23392 21.19168a96.79872 96.79872 0 0 1 21.70368 31.744c5.18144 12.1344 7.80288 25.23136 7.80288 39.29088 0 14.04416-2.62656 27.14112-7.80288 39.28576a96.6912 96.6912 0 0 1-21.70368 31.744c-9.28256 9.04192-20.35712 16.10752-33.23392 21.21216-12.91264 5.09952-26.95168 7.64416-42.20416 7.64416-15.37024 0-29.47584-2.54464-42.27072-7.64416-12.83584-5.10464-23.81312-12.17024-33.01376-21.21216a97.66912 97.66912 0 0 1-21.5808-31.744c-5.2224-12.14464-7.78752-25.25184-7.78752-39.28576z m51.46112 0c0 7.53152 1.40288 14.464 4.2496 20.80256a52.74624 52.74624 0 0 0 11.54048 16.59904 52.41344 52.41344 0 0 0 16.94208 10.89536c6.44096 2.59072 13.24544 3.89632 20.45952 3.89632 7.1936 0 14.01856-1.3056 20.47488-3.89632a54.24128 54.24128 0 0 0 17.05984-10.89536 52.03456 52.03456 0 0 0 11.66848-16.59904c2.8416-6.33856 4.25472-13.27616 4.25472-20.80256 0-7.54688-1.41312-14.46912-4.25472-20.84352a52.1216 52.1216 0 0 0-11.66848-16.54784 54.8352 54.8352 0 0 0-17.05984-10.94656 54.75328 54.75328 0 0 0-20.47488-3.8656c-7.21408 0-14.01856 1.29024-20.45952 3.8656a53.03808 53.03808 0 0 0-16.94208 10.94656 52.1728 52.1728 0 0 0-11.54048 16.54784c-2.84672 6.3744-4.2496 13.29664-4.2496 20.84352z m306.00704 94.6176h-130.59584l40.23808-41.73824c10.58304-11.03872 18.9184-20.38272 24.94464-28.07296 6.03136-7.66976 10.50624-14.16704 13.44-19.47648 2.944-5.28896 4.77184-9.61024 5.48864-12.89728 0.72704-3.30752 1.0496-6.09792 1.0496-8.38144 0-2.43712-0.38912-4.8128-1.15712-7.11168a18.14016 18.14016 0 0 0-3.56352-6.12352 17.92 17.92 0 0 0-5.7088-4.31104c-2.2016-1.08032-4.82304-1.60256-7.84384-1.60256-5.71392 0-10.19904 1.85856-13.44 5.59104-3.24096 3.72224-4.83328 8.38144-4.83328 13.96224 0 1.60256 0.19456 3.88096 0.62464 6.912h-46.03392c0-9.48224 1.54624-18.0736 4.65408-25.83552 3.0976-7.72608 7.42912-14.40256 12.98944-19.98848a57.33888 57.33888 0 0 1 19.90144-12.90752c7.71072-3.01056 16.1024-4.51584 25.28256-4.51584 9.04704 0 17.41824 1.42848 25.07264 4.31104 7.65952 2.87744 14.30016 6.87104 19.92192 12.03712a56.02816 56.02816 0 0 1 13.1072 18.39616c3.13856 7.11168 4.72064 14.80704 4.72064 23.12704 0 8.89344-1.89952 17.11616-5.68832 24.64256-3.8144 7.52128-9.87648 15.24224-18.18112 23.13728l-26.89536 25.15456h52.49024v35.70688h0.01536z m0 0" p-id="7033"></path></svg>
