<?xml version="1.0" standalone="no"?><!DOCTYPE svg PUBLIC "-//W3C//DTD SVG 1.1//EN" "http://www.w3.org/Graphics/SVG/1.1/DTD/svg11.dtd"><svg t="1577416571515" class="icon" viewBox="0 0 1024 1024" version="1.1" xmlns="http://www.w3.org/2000/svg" p-id="4583" xmlns:xlink="http://www.w3.org/1999/xlink" width="200" height="200"><defs><style type="text/css"></style></defs><path d="M544.2048 636.12928h434.22208c18.26304 0 33.22368-12.50816 33.22368-27.89888 0-15.39584-14.96064-27.904-33.22368-27.904H544.2048c-18.25792 0-33.21856 12.50816-33.21856 27.904 0 15.39072 14.96064 27.89888 33.21856 27.89888z m0 0M544.2048 389.03296h434.22208c18.26304 0 33.22368-12.51328 33.22368-27.89888 0-15.39584-14.96064-27.904-33.22368-27.904H544.2048c-18.25792 0-33.21856 12.50816-33.21856 27.904 0 15.3856 14.96064 27.89888 33.21856 27.89888z m0 0M544.78336 141.78816h433.06496c18.69312 0 33.80224-12.50816 33.80224-27.89888 0-15.3856-15.104-27.904-33.80224-27.904h-433.06496c-18.69312 0-33.80224 12.5184-33.80224 27.904 0.00512 15.39072 15.10912 27.89888 33.80224 27.89888z m0 0M977.84832 827.70944H99.77856c-18.69312 0-33.80224 12.50816-33.80224 27.904 0 15.3856 15.104 27.89888 33.80224 27.89888h878.07488c18.69312 0 33.80224-12.50816 33.80224-27.89888s-15.10912-27.904-33.80736-27.904z m0 0M327.74144 490.57792H220.59008V128.27136c0-18.26816-12.51328-33.21856-27.89888-33.21856s-27.904 14.9504-27.904 33.21856v362.30656H57.63584c-16.82944 0-25.03168 4.45952-26.60864 7.62368-1.29536 2.5856 0.14336 10.78272 9.34912 22.14912l117.36576 146.69824c9.64096 12.0832 22.00576 18.69824 34.94912 18.69824s25.31328-6.61504 34.944-18.69824l117.36576-146.69824c9.06752-11.3664 10.50624-19.56352 9.21088-22.14912-1.30048-3.16416-9.63584-7.62368-26.4704-7.62368z m0 0" p-id="4584"></path></svg>
